<svg id="_10_3" xmlns="http://www.w3.org/2000/svg" viewBox="0 0 153.07 238.11"><defs><style>.cls-1{fill:#ed1c24;}.cls-2{fill:#fff;}.cls-3{fill:#ffcb05;}</style></defs><title>_10_3</title><rect class="cls-1" width="153.07" height="238.11"/><path class="cls-2" d="M224.8,299.67V504.5s1.84,9.5,10.67,9.5H353.14s10-.5,10-13.66V299.17s-.84-8.83-12.67-8.83H235.14S226.8,289.84,224.8,299.67Z" transform="translate(-217.27 -283.03)"/><path class="cls-1" d="M363.14,337.67a47,47,0,0,0-13.34-11.83c-8.33-4.84-21-10.34-22.33-11.34a61.74,61.74,0,0,1,2.67,8.34c.5,2.83,6.66,22.33,17.83,31.83a90,90,0,0,0-15.33,4c-7,2.67-18.34,10.67-22,13.67s-9.17,6.5-9.17,6.5,6.67.16,9,.83a78.68,78.68,0,0,0,19,1.67c7.83-.34,21.83-2.67,23.67-3.67a12,12,0,0,1-1.5,2.17c-1,1.16-4.67,8.5-6.17,14.5s-3.33,23.16-3.33,24.66a67.86,67.86,0,0,1-2.34,11,114.2,114.2,0,0,0,12.5-7.5c5.34-3.83,10.17-10.66,10.84-14.83Z" transform="translate(-217.27 -283.03)"/><path class="cls-1" d="M224.8,357.5a34.17,34.17,0,0,1,6-1.16s-3.16-9.17-2.33-17.17,2.17-17.83,1.83-19.67c0,0,3.17,2.84,4.17,3.67s12.5,7.67,18.5,27.17c0,0,2.83-5.34,6.83-8.17s11.84-5.33,12.67-5.83,9.5-4,10.83-5a40.53,40.53,0,0,1-.83,12.33A49.72,49.72,0,0,1,272.3,364.5a27.38,27.38,0,0,1,11.5,7.34c5.34,5.66,13.84,19.5,13.84,19.5a43.66,43.66,0,0,0-5.17-1.17,23.16,23.16,0,0,0-5.17.33c-.83.17-13.66,2.17-21.33-1.5,0,0,1.17,7.17,1.17,8.67s.66,10.83.66,10.83l-2-.83a51.81,51.81,0,0,0-4.66-5c-1.34-1-10-7.67-13.17-18.67a18.71,18.71,0,0,0-3.83,3.5c-1.17,1.67-9,11.5-19.34,11.84V383.5l5.34-8.83L224.8,373Z" transform="translate(-217.27 -283.03)"/><path class="cls-1" d="M255,513.84s3.5-8.67,6.67-11.84a51.88,51.88,0,0,1-9.84.67,42.35,42.35,0,0,1-10.33-2.83c-1.5-.67-8-2.84-8-2.84s4.5-3.83,5.33-4.66a31.65,31.65,0,0,1,9.67-7.84A27.44,27.44,0,0,1,259.8,482S252,476,249,472.17s-6.67-13-7.83-15.5-6-13.17-6-13.17,8.33,4.67,11.5,6.17,13.5,5.33,20.66,9.83a118.78,118.78,0,0,1,14.17,10.84A26.69,26.69,0,0,1,292.14,462c7-3,32-12.83,38-16.83,0,0-4.5,8.67-5.67,11.67s-4.33,11-7,15.16-6.5,10.34-14.33,12.84c0,0,.33.5,2,1s7.66,4.83,11,9.5,12,11.83,15.5,14.83a4.83,4.83,0,0,1-2.34,0,109.09,109.09,0,0,0-13.5-.67c-2.5.17-19.66-.5-33.33-6.33,0,0-5.5,8.67-12.67,10.67Z" transform="translate(-217.27 -283.03)"/><path class="cls-3" d="M246.3,425.21a20.14,20.14,0,0,0-7.25,3.88c-3.62,3-8,10.37-10.62,12.5,0,0-.5.37,1,.25s13.75-2.75,15.5-3,10.75-2.63,10.75-2.63l14,3.75s6.5,7.75,7.37,9.25,5.5,12,6.63,17.38c0,0,1.12-1.38,1.87-2.25s7.75-12,5-23.63l12.25-8.62A85.77,85.77,0,0,0,314.43,428c4.37-2.12,7.62-3.87,9.37-4.37a25.86,25.86,0,0,1,5.88-.25,38.3,38.3,0,0,1-3.75-2.25c-1.38-1-7.88-3.63-11.88-5.13a98.27,98.27,0,0,0-12.12-3l-37.5,4.63Z" transform="translate(-217.27 -283.03)"/><path d="M234.72,289.63a10.64,10.64,0,0,0-10.63,10.63V503.92a10.64,10.64,0,0,0,10.63,10.63H352.88a10.64,10.64,0,0,0,10.63-10.63V300.26a10.64,10.64,0,0,0-10.63-10.63Zm-9.21,214.29V300.26a9.22,9.22,0,0,1,9.21-9.21H352.88a9.22,9.22,0,0,1,9.21,9.21V503.92a9.22,9.22,0,0,1-9.21,9.21H234.72A9.22,9.22,0,0,1,225.51,503.92Z" transform="translate(-217.27 -283.03)"/><path d="M252.3,290.59s-4.75,5.25-9,9.75-14.75,10-14.75,10,11.75-2,17-2.5,25-1,32.25-4.75a23.93,23.93,0,0,0-1,12.25c1.25,6.75,6.75,12.75,7,17.25,0,0,5-7.25,7.75-11.5s5.75-11.25,5-17.5c0,0,5.25,2.75,14.5,3.75s17-.75,27.5,6c0,0-5.75-6.25-8.75-9.75s-9.25-10.5-15-13.25Z" transform="translate(-217.27 -283.03)"/><path d="M229.6,319.16c0,.17,0,.37,0,.6,0,1.36-.27,3.77-.6,6.7-.41,3.67-.92,8.24-1.17,13.09,0,.82-.07,1.61-.07,2.4A48.5,48.5,0,0,0,229.86,356a22.14,22.14,0,0,0-5.41,1.22l.7,1.23a27.12,27.12,0,0,1,5.74-1.16l.89-.11-.31-.84a46.5,46.5,0,0,1-2.27-14.44c0-.75,0-1.5.06-2.28.25-4.8.76-9.35,1.17-13,.27-2.36.48-4.28.57-5.71a35.67,35.67,0,0,0,4.64,4.25c3.54,2.57,13.44,12.23,16.72,25.84l.53,2.2.82-2.11A22.15,22.15,0,0,1,265.57,340c7.47-3,14.77-6.54,17.3-7.78,0,.46,0,1,0,1.63a37.63,37.63,0,0,1-.28,5.38c-1,6-3.83,17.17-10.82,24.89l-.75.83,1.07.33a30.31,30.31,0,0,1,10.71,6.58c3.52,3.35,8.41,10.82,11.65,15.76.79,1.2,1.39,2.11,1.87,2.82a35.64,35.64,0,0,0-6-1.05l-2.33.27c-4.47.65-14.93,2.16-21.86-1.2l-1.22-.59.21,1.34a105.9,105.9,0,0,1,1.24,10.64s.14,4.78.2,7.14a63,63,0,0,0-6.56-6.21c-2.84-2.13-10.52-11.54-11.48-17l-.19-1.12-.92.66a17,17,0,0,0-3.95,4c-.93,1.62-7.84,10.2-18.23,11.65l.19,1.4c10.91-1.52,18.08-10.27,19.27-12.35a12.46,12.46,0,0,1,2.75-2.9c1.67,6,8.83,14.7,11.71,16.86a78.42,78.42,0,0,1,7.65,7.41l1.28,1.43-.3-10.9a89.26,89.26,0,0,0-1.07-9.65c7.22,2.88,16.76,1.55,21.48.87l2.13-.26c1.89,0,7.52,1.46,7.57,1.47l2.53.66-1.85-1.84c-.34-.35-1.53-2.16-2.9-4.26-3.28-5-8.22-12.54-11.86-16a32.19,32.19,0,0,0-10.31-6.57c6.73-7.93,9.49-18.85,10.52-24.79a39.94,39.94,0,0,0,.3-5.63c0-1.49,0-2.66,0-2.76l0-1.11-1,.49c-.09.05-9.09,4.53-18.2,8.23a23.66,23.66,0,0,0-11.83,10.26C249.43,335.85,240,326.56,236.47,324a41.33,41.33,0,0,1-5.63-5.38l-1.47-1.71Z" transform="translate(-217.27 -283.03)"/><path d="M233.35,333.65c0,.5,1,12.42,3.54,19.18A87.14,87.14,0,0,0,243,365.32a21.24,21.24,0,0,0-7-.44c-5.69.52-7.85,2.62-7.94,2.71L227,368.67l1.52.12c2.1.18,8.64,2.9,12.11,4.43-5.91,3.94-9.47,10.65-10.73,15.44-1.17,4.44-5.44,7.57-5.48,7.6l.72,1.22c5.7-2.77,8.67-6.61,11.54-10.33a37.79,37.79,0,0,1,5.12-5.78,24.75,24.75,0,0,1,8.7-5.15c.42,4.57,2.6,9.19,6.8,14.08a33,33,0,0,1,4.63,7.32l1.35-.43a56.78,56.78,0,0,1-1-8.14,31.69,31.69,0,0,0-1.91-8.54c4.62,1.86,12,2,15.3,1.53,3.56-.48,10.16,1.22,10.23,1.23l.37-1.36c-1.59-.46-11.9-6.3-16.8-9.66a26.9,26.9,0,0,0-8.57-3.85c2.74-3.14,11.72-13.64,14.32-19.27,3-6.54,3.3-10.34,3.31-10.5l.17-2.61-1.46,2.17c-.07.09-6.28,9.24-12.38,14.62a118.28,118.28,0,0,1-11.75,9c-1.71-3.6-5.58-8.44-8.75-12.4a60,60,0,0,1-3.92-5.17c-1.72-3-5.69-10.88-5.73-11Zm11.81,32.56a91,91,0,0,1-6.94-13.87c-1.58-4.27-2.56-10.85-3.06-15,1.3,2.55,3,5.86,4,7.59a62.61,62.61,0,0,0,4,5.35c3.34,4.17,7.5,9.36,8.92,12.82l.32.78.72-.46a118.64,118.64,0,0,0,12.58-9.56,82.38,82.38,0,0,0,10.68-12.16,43.61,43.61,0,0,1-2.54,6.83c-2.92,6.33-14.77,19.69-14.89,19.83l-.86,1,1.28.21a25.24,25.24,0,0,1,9.21,3.88c3,2.06,8.38,5.26,12.38,7.45a22.25,22.25,0,0,0-5.57-.24c-3.73.5-12.27.21-16-2.14l-1.92-1.2.89,2.08a34.09,34.09,0,0,1,2.45,9.75c.08,1.59.22,3,.36,4.23a31.76,31.76,0,0,0-2.87-4c-4.24-4.95-6.39-9.55-6.58-14.07l0-.81-.8.14c-.18,0-4.51.84-10.09,5.66a38.78,38.78,0,0,0-5.31,6,40.13,40.13,0,0,1-6.26,6.84,13.06,13.06,0,0,0,2-4.11c1.27-4.83,5-11.73,11.17-15.32l1.19-.69-1.25-.57a116.39,116.39,0,0,0-12-4.69,16.26,16.26,0,0,1,5.73-1.46c5.2-.47,8.09.92,8.12.93l2.22,1.09Z" transform="translate(-217.27 -283.03)"/><path d="M326.15,314.11a112.48,112.48,0,0,1,4,11.15c1,4.14,6.26,18.1,16.51,29.09-3.6.63-13.84,2.74-22.18,7.63a145.45,145.45,0,0,0-16.17,11.53,51.91,51.91,0,0,1-6.77,4.93l-2.39,1.11,2.62.24c.08,0,8,.76,12.45,1.5,4,.67,22.76,2.17,37.8-2.53a40.82,40.82,0,0,0-6.88,15.17c-1.77,7.63-2.8,17.45-3.42,23.32-.24,2.37-.44,4.25-.58,4.95-.49,2.45-2,8.15-2,8.21l-.42,1.6,1.45-.8s4.57-2.55,7.81-4.79l1.1-.74c3.83-2.52,11-7.23,14.41-17.36l-1.34-.46c-3.29,9.67-10.16,14.21-13.85,16.64l-1.13.75c-2.07,1.44-4.66,3-6.24,3.89.48-1.89,1.25-5,1.59-6.66.15-.77.34-2.58.6-5.09.62-5.83,1.64-15.59,3.39-23.14a38.07,38.07,0,0,1,8.08-16.42l-.76-1.16c-15.08,5.53-35.21,3.91-39.39,3.22-3.08-.51-7.78-1-10.46-1.3,1.35-.94,3.06-2.27,5.2-4a144.45,144.45,0,0,1,16-11.43c10-5.86,22.86-7.64,23-7.66l1.4-.19-1-1c-10.84-11.09-16.22-26-17.07-29.42a90.93,90.93,0,0,0-3.27-9.45c1.45.77,3.42,1.76,5.78,2.92,5.61,2.78,12.6,6.25,17.16,9.29a40.73,40.73,0,0,1,11,10.78l1.2-.75A41.14,41.14,0,0,0,352,326.5c-4.64-3.09-11.67-6.58-17.33-9.38-3.38-1.68-6.3-3.12-7.42-3.87L325.26,312Z" transform="translate(-217.27 -283.03)"/><path d="M337.23,326a45.35,45.35,0,0,1,2.16,4.47c1.88,4.15,4.7,10.41,7.83,15,3.66,5.39,7.33,11.1,8.8,13.39a36.68,36.68,0,0,0-13.25,2.81l-11.41,5.36c-5.54,2.65-11.27,5.39-13.81,6.38l.33,1.36c.09,0,9-1,15.92-1l4.15.07a90.76,90.76,0,0,0,24.76-2.09l-.32-1.38a89.38,89.38,0,0,1-24.4,2.05l-4.19-.07c-3.89,0-8.38.31-11.64.58,2.8-1.28,6.34-3,9.81-4.63L343.34,363a36.16,36.16,0,0,1,13.94-2.68l1.34,0-.72-1.13c0-.08-4.81-7.59-9.51-14.52-3.05-4.5-5.85-10.7-7.71-14.8-.16-.37-.31-.69-.46-1,1.74,1.65,3.8,3.58,4.87,4.51l1.21,1a57.75,57.75,0,0,1,15.88,18.59l1.24-.69a59.19,59.19,0,0,0-16.25-19L346,332.3c-2-1.72-7.67-7.17-7.73-7.22Z" transform="translate(-217.27 -283.03)"/><path d="M354.89,390.35a132.2,132.2,0,0,0-3.54,13.77c-1.38,6.22-2.82,12.65-4.44,16.17l1.26.64,8.51-15.51a22.13,22.13,0,0,1,2.48-3.44,21.37,21.37,0,0,0,4.32-7.18l-1.35-.43a19.91,19.91,0,0,1-4.07,6.71,24.12,24.12,0,0,0-2.63,3.67l-4.84,8.82c.74-2.85,1.45-6,2.15-9.14a132.68,132.68,0,0,1,3.48-13.61,44.24,44.24,0,0,1,6.87-12.52l-1.08-.92A45,45,0,0,0,354.89,390.35Z" transform="translate(-217.27 -283.03)"/><path d="M262.55,404.34l2.5,5.25a42.79,42.79,0,0,0-14.25.75c-6.75,1.75-23.25,8.75-25.5,9.5l.25,1.25s3.25.75,5.5,1.5,17.75,4,28,3.75c0,0-2.75,5.75-5.5,12.5a87.71,87.71,0,0,0-4,12.25s8.25-2.5,12.5-5,9.75-5.5,17-15.75c0,0,2.5,3.75,12.5,12s19.75,7.75,19.75,7.75a38.64,38.64,0,0,1-5.25-9c-1.5-4.25-4.5-16.25-10.75-22.5,0,0,7.25-3,15.5-11.5s10.5-14.25,11.5-15.25c0,0-7.25,2.5-12,3.5s-19.25,3.25-25.75,8.5c0,0-4.25-5-7.5-7.25a51,51,0,0,1-6.75-6l-4.16-1.09s.5,6.84.66,8.34S267,408,267,408Z" transform="translate(-217.27 -283.03)"/><path d="M237.57,429.82a54.62,54.62,0,0,0-5.8,6.81,32.48,32.48,0,0,1-4.42,5.16l-2.14,1.79L237.93,441l2.27-.39c4.78-.79,12-2,15.92-3.93l-.63-1.27c-3.72,1.86-10.82,3-15.52,3.8l-2.29.39-7.74,1.55c1-1.09,1.95-2.36,3-3.7a52.28,52.28,0,0,1,5.64-6.64,23,23,0,0,1,8.21-5.08l-.4-1.36A23.92,23.92,0,0,0,237.57,429.82Z" transform="translate(-217.27 -283.03)"/><path d="M269,439.74a97.15,97.15,0,0,0,6.31,8.32c2.41,2.65,7.08,14.43,7.57,19.1l.16,1.54,1.06-1.13c.17-.18,4.15-4.48,6.17-12.56a34.8,34.8,0,0,0,.76-14.32l-1.39.29a25.6,25.6,0,0,1,.37,4.73,37.65,37.65,0,0,1-1.11,9,30.93,30.93,0,0,1-4.9,10.75c-1.14-5.58-5.29-15.72-7.64-18.31a100.67,100.67,0,0,1-6.19-8.17Z" transform="translate(-217.27 -283.03)"/><path d="M234.41,443.62l10.25,22.76c3.48,7.55,10.06,12.95,13.13,15.18a28.81,28.81,0,0,0-17.24,8c-2.7,2.7-7.42,6.93-7.47,7l-1.26,1.13,1.69.1c1.68.11,4.15,1.14,6.77,2.23,3.36,1.4,7.17,3,10.72,3.27a38.54,38.54,0,0,0,9.37-.47c-3.67,3.93-5.88,10.23-6,10.54l1.34.46c0-.09,3-8.57,7.48-11.65l-.58-1.27a38,38,0,0,1-11.51,1c-3.32-.26-7-1.81-10.28-3.17a41.48,41.48,0,0,0-5.71-2.08c1.57-1.43,4.5-4.1,6.43-6a27.11,27.11,0,0,1,18.27-7.79l2.35-.07-2-1.24c-.1-.07-9.88-6.26-14.23-15.7,0,0-7.77-17.23-9.31-20.66a99.23,99.23,0,0,0,12.66,6.62c2.28.87,22.56,8.8,31.72,19.3l.64.74.5-.84c0-.06,3.6-5.88,16.65-10.95,12.15-4.73,24.16-10.32,30-13.4-1.23,2.31-3.2,6.11-4.66,9.18l-1.26,3.1c-2.73,7.09-8.42,21.85-21.06,25.78l.18,1.39c.05,0,5.05.33,10,5.77l.39.42c4.67,5.12,12,13.11,17.44,17.43a41.21,41.21,0,0,0-8.33-.54c-7.46.29-27.54-1-38.65-6.67l-.59-.3-.34.56c-.05.08-5,8-12.1,10.19l.41,1.36c6.66-2,11.32-8.42,12.56-10.3,11.47,5.57,31.31,6.86,38.76,6.58a38.14,38.14,0,0,1,11.27,1.22l.56-1.29c-5.27-3.12-14.82-13.58-20-19.2l-.38-.42a19.45,19.45,0,0,0-8.53-5.7c11.69-5.07,17-18.91,19.68-25.77l1.21-3c2.22-4.68,5.7-11.15,5.74-11.22l1.18-2.2-2.16,1.25c-4.52,2.62-18.11,9.09-31.9,14.46-11.06,4.3-15.46,9-16.82,10.8-9.63-10.44-29.41-18.19-31.67-19.06-5.13-1.95-14.29-7.63-14.38-7.68l-2-1.23Z" transform="translate(-217.27 -283.03)"/><path d="M246,454.8a104.16,104.16,0,0,1,7.18,9.39c.66,1.14,6.6,10.71,22.88,19.62a30.19,30.19,0,0,0-9.47,1.35,125,125,0,0,0-13.16,5.1c-4.33,1.87-8.42,3.64-11,4.13l.16,1.41c.07,0,7.68-.24,11,.72s13.5-.31,20.36-3.06a29.2,29.2,0,0,0-3.05,4.81c-2.38,4.76-5.81,9.71-7.8,11.26l.66,1.23a45.56,45.56,0,0,0,6.12-2.55l.63-.35a31.94,31.94,0,0,0,13-11.77,32.06,32.06,0,0,0,10.65,4.44l8.78,1.67a95.82,95.82,0,0,1,11.89,2.55l.67-1.22a70.29,70.29,0,0,1-5.69-4.94c-2.31-2.32-10.56-7.75-18.92-10.77,2.51-1.08,7.34-3.73,13.43-10,8.79-9,10.85-18,10.94-18.34l.52-2.37-1.72,1.72c-.05.05-5.48,5.46-8.62,7.39l-1.41.89c-4.28,2.71-13.11,8.29-19.81,9.7a115.23,115.23,0,0,0-14.82-9.61A250.22,250.22,0,0,1,247,453.77Zm34.36,29.65c-18.71-9.22-25.27-19.79-26-21a61.54,61.54,0,0,0-4.27-5.87c5.11,3.27,12.79,7.78,18.57,10.85a114.39,114.39,0,0,1,14.9,9.69l.25.19.32-.06c7-1.35,16.17-7.17,20.59-10l1.39-.88a51.62,51.62,0,0,0,6.83-5.62,43.85,43.85,0,0,1-9.7,15c-8.47,8.71-14.6,10.29-14.66,10.31l-2.47.6,2.42.76c8.75,2.75,17.81,8.67,20.21,11.08,1.05,1.05,2.21,2.07,3.22,2.93-2.51-.58-5.59-1.14-8.84-1.71l-8.72-1.66a30,30,0,0,1-10.73-4.63l-.64-.49-.4.71a30.36,30.36,0,0,1-12.83,11.87l-.65.36a27.86,27.86,0,0,1-3,1.37,55.45,55.45,0,0,0,6-9.43,26.79,26.79,0,0,1,5.09-7.05l-.84-1.13c-6.1,3.66-19.23,5.34-22.44,4.43a31.73,31.73,0,0,0-6.82-.77c2-.77,4.32-1.75,6.82-2.83a123.2,123.2,0,0,1,13-5c8.13-2.39,12.76-.78,12.81-.77Z" transform="translate(-217.27 -283.03)"/><path d="M301.92,414c.09,0,9.27,1.76,13.92,3.23a89,89,0,0,1,11.72,5.49,15.85,15.85,0,0,0-5.27.68l-3,1.49c-4.41,2.27-11.8,6.09-17,6.46l.1,1.41c5.51-.39,13.06-4.29,17.57-6.62l2.9-1.42c2.31-.93,7.62-.46,7.67-.46l.41-1.32c-.4-.23-9.87-5.55-14.63-7.06s-13.71-3.2-14.08-3.27Z" transform="translate(-217.27 -283.03)"/><path d="M244.87,429.77a74.51,74.51,0,0,0-6.82,5.82l.93,1.06s4.12-3.1,7.82-3.1c3.92,0,10-1.7,12.25-4l-1-1c-1.79,1.78-7.36,3.54-11.25,3.54a11,11,0,0,0-3.4.62c.71-.58,1.48-1.19,2.33-1.85a32,32,0,0,1,7.56-4.4l-.48-1.33A32.76,32.76,0,0,0,244.87,429.77Z" transform="translate(-217.27 -283.03)"/><path d="M282.38,442.77a38.14,38.14,0,0,0,.22,4.66,12.72,12.72,0,0,1,.11,1.72,16,16,0,0,1-.19,2.32,61.32,61.32,0,0,0-2.82-8.18c-1.75-3.74-4.51-8.51-4.53-8.56l-1.23.71c0,.05,2.75,4.77,4.47,8.45a78.87,78.87,0,0,1,3.46,10.62l.54,2.17.8-2.09a16.39,16.39,0,0,0,.8-7.35,72,72,0,0,1,.22-12.94l-1.35-.44A62.48,62.48,0,0,0,282.38,442.77Z" transform="translate(-217.27 -283.03)"/><path d="M295.11,419.15l.38,1.37a23.57,23.57,0,0,1,14.37.35l.5.15,3.47,1a54.15,54.15,0,0,0-5.68.92c-4.41,1-8.88,1.48-8.92,1.48l.15,1.41c.05,0,4.59-.51,9.08-1.51a64.12,64.12,0,0,1,9.38-1.23l.15-1.4-7.24-2-.5-.15A25,25,0,0,0,295.11,419.15Z" transform="translate(-217.27 -283.03)"/><path d="M224.8,464.59a33.5,33.5,0,0,1,7.5-3.5,37.34,37.34,0,0,0,8.5-4.25l1,2s-2.5,1.5-2.75,3.5-2.25,14.25-9.25,19.5c0,0,5.34,7.16,8,11.16l-4.25,4.09a12.73,12.73,0,0,1,3.75.91c1.17.67,5.34,2.17,6,2.5,0,0,5.84,9.34,6.84,10.67s1.33,2,.5,2-2.84-1.67-5.5-2.5-8.5-2.17-10.67-3.67a62.86,62.86,0,0,1-1.67,6.5s-8-.83-8-8.83Z" transform="translate(-217.27 -283.03)"/><path d="M224.94,374l4.25,1.23a95.67,95.67,0,0,0-4.86,8.28l1.28.61a103.52,103.52,0,0,1,5.29-8.91l.52-.81-6.09-1.76Z" transform="translate(-217.27 -283.03)"/></svg>