<svg id="_10_2" xmlns="http://www.w3.org/2000/svg" viewBox="0 0 153.07 238.11"><defs><style>.cls-1{fill:#ed1c24;}.cls-2{fill:#fff;}.cls-3{fill:#0066b3;}</style></defs><title>_10_2</title><rect class="cls-1" width="153.07" height="238.11"/><path class="cls-2" d="M227.67,315.44V518.6s-.5,10.17,10.66,10.5H358.84s8,1,7.66-7.83,1.17-49,1.17-49V313.44s-1.33-8.5-10.5-8.5H240.67S228.17,303.1,227.67,315.44Z" transform="translate(-221.17 -298.05)"/><path class="cls-1" d="M307.67,305.6a28,28,0,0,0-5.63,8.63,113.15,113.15,0,0,0-4.75,15.5c-.25,1.37-1.12,6.5-4,7.87l-18-.75-24.5-1.25.88,25.75s-5.13,12.5-11.88,15.63a38.16,38.16,0,0,1-4.37-11.5c-1.5-7,1.75-14.5,1.75-14.5s-7.38-.63-9.38-2.88V333.85s4.63-3.62,10-3.75c0,0-3.37-4.37-6.12-8.75a31.5,31.5,0,0,1-3.75-9,15.56,15.56,0,0,1,3.75-5.25c2.62-2.37,8.37-2,8.37-2s6.25,3.63,8.75,5.88,7.5,7.62,7.5,7.62-.62-8.87,2.63-13.5h19.62s.88,6.88,0,10.63a62.5,62.5,0,0,1,25.63-10.5S307.92,304.6,307.67,305.6Z" transform="translate(-221.17 -298.05)"/><path class="cls-3" d="M250.79,335.6s30.38,1.13,42.5,2a1.7,1.7,0,0,1,.63,1.5c0,1.13.37,22.63,1.5,32.75s5.75,32.88,6.87,39.13,8.25,28.87,10.13,33.12,11.12,24.38,15.75,31.63,13,17.75,13,17.75a2.81,2.81,0,0,1-1.63.12c-1.25-.12-36.87-.5-37.25-.5l-8.87.13a8.28,8.28,0,0,1-6-3.75c-2.5-3.63-10.5-21.25-13.25-27.25s-9.38-28.38-9.75-29.5-11.63-35-11.63-35l.25-25.5S250.79,343.85,250.79,335.6Z" transform="translate(-221.17 -298.05)"/><path class="cls-1" d="M298.29,389.73s6.88,4.62,8.63,5.75,9.87,6.62,11.87,9.5a28.78,28.78,0,0,1,8.88-11.25c6.5-5,19.5-11.13,19.5-11.13s-1.25,4.25-1.75,5.5-.5,4.38-.5,5.5-1,8.38-1.75,12.38A91.94,91.94,0,0,1,340,416.6a95.9,95.9,0,0,1,12.88,4c5.75,2.38,14.62,9.13,14.62,9.13v1.62a57.72,57.72,0,0,1-6.12,1.88,18.14,18.14,0,0,0-5.88,2.87c-.62.5-10.75,6.13-16.75,5.5a48.27,48.27,0,0,1,5.5,9.25C346.79,456.35,349,466,349,466l-1.25.12-7-.62S323.92,462,318,456.23l-6.37-14.5c-1.38-3.13-6.13-17.88-8.63-27.38S298.29,389.73,298.29,389.73Z" transform="translate(-221.17 -298.05)"/><path class="cls-1" d="M227.92,466.23s2.87,6.25,3.37,8,4.25,13.12,4.88,15.12a64.84,64.84,0,0,0,8.25,13.88,42,42,0,0,0-9.5,1.62,37.19,37.19,0,0,0-7.13,3.25l-.12,6.38a80.11,80.11,0,0,0,7,8c2.87,2.62,8.12,6.37,9.37,6.5l14.63.25,35.87-.38s-3.75-3.62-4.87-4.12,1.37-.75,2.25-.75,13.75-3.13,16.87-5.38,7.75-5.5,9.25-5.75c0,0-5.12-1.75-6.75-2.62s-15.12-5.38-25.87-4.13c0,0,6.37-6.12,6.87-12.75a8.5,8.5,0,0,1-4.75-3.37,55.93,55.93,0,0,1-3.5-6.13s-7.37-.87-13.87,9.75A4.28,4.28,0,0,1,269,492c-.37-1-6.5-8.63-13.37-13.88a133.1,133.1,0,0,0-18-11c-1.75-.87-10-6-10-6Z" transform="translate(-221.17 -298.05)"/><path d="M237.59,304.4A10.64,10.64,0,0,0,227,315V519.18a10.64,10.64,0,0,0,10.63,10.63H357.75a10.64,10.64,0,0,0,10.63-10.63V315a10.64,10.64,0,0,0-10.63-10.63Zm-9.21,214.78V315a9.23,9.23,0,0,1,9.21-9.22H357.75A9.23,9.23,0,0,1,367,315V519.18a9.23,9.23,0,0,1-9.21,9.22H237.59A9.23,9.23,0,0,1,228.38,519.18Z" transform="translate(-221.17 -298.05)"/><path d="M274.79,383.35a2.41,2.41,0,0,0,3.25-2.87,9.69,9.69,0,0,0-2.87-3.75c-.63-.5-.88-1.13-.5-2.63s1.37-5.12,1.87-6.37a7.06,7.06,0,0,0,.13-4.25c-.38-1.38-1-2.63-2.38-2.5s-3,.37-3,.37a2.83,2.83,0,0,1-.37-1.25,6.5,6.5,0,0,0-2.63-3.5c-1.5-1-2.75-.5-3.25.5a2.61,2.61,0,0,0,1.25,3.13,2.17,2.17,0,0,1,1,2.71s-.33.33-1.83.5a35.33,35.33,0,0,1-3.67.16c-.66,0-1,1.25-1,1.75s1.13,2.63,4.13,2.75a9.11,9.11,0,0,0,5.25-1.5.86.86,0,0,1,.37.63c0,.37-.5,3.37-3.75,6.87s-4.75,5.13-5,5.75-.12,1.63,2.25,2,5.75-2.12,7.38-4.12a2.23,2.23,0,0,1,.62,1.37A5.82,5.82,0,0,0,274.79,383.35Z" transform="translate(-221.17 -298.05)"/><path d="M313,458.23c-.87-1.38-2.62-2.5-3.62-1.88-.84.53-3.94,2.71-6.55,4.14a33.2,33.2,0,0,0-.45-4c-.43-2.38-1.15-5.71-1.92-9.19a21.13,21.13,0,0,0,2.29-2.06c1.75-2,2.5-5.13,1.25-7.38s-4.62-5.37-5.75-6.37a6.39,6.39,0,0,1-1.55-2.31c-.73-4.07-1.61-7.9-3.2-9.69a18.41,18.41,0,0,0-5.75-4c-1.37-.75-2.62.87-2.75,2l1,1c.75.75,3.13,2,3.63,3.37.21.59,1.37,4,2.68,8l-.06,0a3.47,3.47,0,0,0-.42.34.71.71,0,0,0-1.2,0,18.56,18.56,0,0,1-4.5,4,3.8,3.8,0,0,1-4.38-.63c-1.25-1.12-1.12-3.87-.75-4.5a15.59,15.59,0,0,1,4.13-2.87c1.5-.75,1.37-2.88,1-3.75a1.64,1.64,0,0,0-2.25-.63c-.75.38-3.63,2.13-4.5,2.63s-2-.25-2.38-3.13.13-6.37,2.75-11a28.65,28.65,0,0,1,6.5-7.62l-.07,0a7.44,7.44,0,0,0,2.32-6.77,14.38,14.38,0,0,0-4.75-7.5,15.63,15.63,0,0,0,1.75-2.88c.5-1.25,2.63-6.5,1.63-16.5s-3.63-13.87-5.88-15.25-4.25-1.75-5-1.25-.75,2.25.38,3.13,1.87.75,2.25,1.37,1.5,4.13,1.62,10.5A11.46,11.46,0,0,1,278,370a6.63,6.63,0,0,0-2.62,3c-.38,1-.25,2.5.37,3a3.12,3.12,0,0,0,3.5-.5c.88-1,1.5-1.63,1.88-.88a11.22,11.22,0,0,1-.75,7.75c-1.63,3.38-3.88,5-5.13,6.38s-3.75,4-3.25,8,2.13,8.62,8,8.5c.17,0,.32,0,.48,0a17.71,17.71,0,0,0-5.6,14.54c.37,6,3,7.75,3,7.75a6,6,0,0,0-2.25,5.12c.37,3.13,1.87,6.25,4.37,7.13s6.88-.13,9.25-2.63a11.05,11.05,0,0,0,2.79-5,1.45,1.45,0,0,1,.92-.29c1.56,4.85,3.17,10.06,3.54,12.19,0,.18.07.4.11.61-2.74,2.52-6.6,5.5-8.48,7.89a7.57,7.57,0,0,0-.25,9.75,11.44,11.44,0,0,0,9.5,4.25,15.27,15.27,0,0,0,1.75-.18c-.24,3.42-.59,6.43-1.13,7.18a7.93,7.93,0,0,0-.75,4.62,21,21,0,0,1,.63,3.5c0,1.13.12,1.38.75,1.5s2.62-.37,2.62-.75-.12-1.25-.12-2.12,1-4.88,1.25-6.88c.14-1.12.47-4.32.54-8a33.15,33.15,0,0,0,4-1.61c1.25-.63,3.75-.88,5.37-1.63S313.92,459.6,313,458.23ZM279.79,401.6c-1.17-.18-3.25-2.62-2.25-6.25s3.63-3.37,3.63-3.37c.87.12,3.12.75,2.75,4.87S281.42,401.85,279.79,401.6Zm19.63,39.88-.16.25c-.57-2.54-1.1-4.94-1.49-6.9C299.71,436.92,300.89,438.78,299.42,441.48ZM293,461.35c-2.62-1.75-3-3.62-.75-6.75a31.08,31.08,0,0,1,5.25-5c.7,4.09,1.47,9,1.7,12.39A7.17,7.17,0,0,1,293,461.35Z" transform="translate(-221.17 -298.05)"/><path d="M250.13,335.61c1.31,95.86,35.16,154,38.25,156.54,2.14,1.78,3.62,1.83,3.79,1.83l50.16.34-.94-1.16c-47.37-58.42-47-144.68-46.77-154.33v-.23a1.61,1.61,0,0,0-.54-1.24,2.56,2.56,0,0,0-1.91-.46l-42.06-2Zm42,157a5.61,5.61,0,0,1-2.88-1.5c-.68-.62-9.79-14.62-19.12-42.06-8.08-23.74-17.83-62.51-18.61-112.65l40.64,2h.06a1.45,1.45,0,0,1,.9.13s0,0,0,.16v.2c0,.67,0,1.71,0,3.08,0,18.34,2.7,96.31,46.2,151Z" transform="translate(-221.17 -298.05)"/><path d="M296.47,330.47a16.24,16.24,0,0,1-3.57,6.9l1,1a17.16,17.16,0,0,0,3.92-7.6c1-5.28,5.55-21.65,10.68-24.77l-.74-1.21C301.76,308.42,297.26,326.26,296.47,330.47Z" transform="translate(-221.17 -298.05)"/><path d="M289.4,309a41.17,41.17,0,0,0-10.11,6c.16-1.84.36-4.6.36-6.84a10.35,10.35,0,0,0-.33-3.27l-1.3.56c.49,1.15.07,7.45-.31,11.15l-.19,1.9,1.38-1.31a39.81,39.81,0,0,1,11-6.86,89.44,89.44,0,0,1,14.61-4.21l-.26-1.39A89.45,89.45,0,0,0,289.4,309Z" transform="translate(-221.17 -298.05)"/><path d="M239.34,306A62.71,62.71,0,0,1,248,311.4a89.8,89.8,0,0,1,7.91,8.41l1.72,2.06-.47-2.64a22.14,22.14,0,0,1,0-6.28,29.35,29.35,0,0,1,2.19-7.3l-1.28-.6a30.08,30.08,0,0,0-2.32,7.71,26.37,26.37,0,0,0-.22,3.45c0,.37,0,.68,0,1a70.7,70.7,0,0,0-6.64-6.89,62.63,62.63,0,0,0-8.87-5.58Z" transform="translate(-221.17 -298.05)"/><path d="M227.48,312a37.58,37.58,0,0,0,4.34,10.73c2,3.12,3.72,5.48,4.71,6.76a15.93,15.93,0,0,0-9.36,4.11l1,1c3.74-3.74,9.69-3.8,9.75-3.8h1.51l-1-1.16A80,80,0,0,1,233,322a36.74,36.74,0,0,1-4.16-10.28Z" transform="translate(-221.17 -298.05)"/><path d="M227.49,348.92c.13.1,3.17,2.33,8.88,2.59a41.8,41.8,0,0,0-1.9,8.49,13.36,13.36,0,0,0-.13,1.92c0,6.88,4.5,15.15,4.71,15.53l.33.6.61-.32c.31-.15,7.55-4,12.59-17.12l-1.32-.51c-4,10.5-9.57,14.82-11.32,16-1-2-4.19-8.69-4.19-14.18a11.87,11.87,0,0,1,.12-1.71c1-6.71,2.16-9,2.17-9l.57-1h-1.19c-5.9,0-9-2.34-9.07-2.36Z" transform="translate(-221.17 -298.05)"/><path d="M227.67,373.85s6.75-8.75,7.25-10.5c0,0,1,7.75,4.5,13a4.27,4.27,0,0,0,3-1.25c1-1.25,1.75,4,1,7l9.25-11.5s3.5,36.5,12.25,64.5c0,0-4-1.75-7-3.25s-10.5-4.75-15.5-11.5a28,28,0,0,1-5.5,10c-4,4.5-8.25,6.75-9.25,9Z" transform="translate(-221.17 -298.05)"/><path d="M367.67,315s.5-1.43-4.5-3.18-8.5-3-13-6.75h-3.25a39.33,39.33,0,0,1,.25,6.75c-.25,2.75.75,9.5,3.75,13.25a36.84,36.84,0,0,0-14.5-3c-8.25,0-14.75,0-19.75-2.5s-6.5-1.75-4.5-.5a42.21,42.21,0,0,1,9.75,9.5c2.75,4,9.75,12.25,15,16.5a63.86,63.86,0,0,0-11.5,9c-5.5,5.5-10.5,12.25-16,14s-6,2.5-3.25,2.75,17.75-1,21.75-.75,16.5,0,23.5-4.5a75.17,75.17,0,0,0-.5,18.25c1,9.5,6.5,22.25,6.5,23s.75,1.25,1.25-1.25,1-7.25,2-10.25,6.25-10.75,7-17.5Z" transform="translate(-221.17 -298.05)"/><path d="M347,381.79c-.31.23-1.27.72-2.61,1.4-2.63,1.35-7,3.6-13.32,7.3a29.89,29.89,0,0,0-12.35,13.69c-2.94-3.57-9.49-8.12-11.68-9.43-2.44-1.47-8.38-5.92-8.44-6l-.85,1.13c.25.19,6.06,4.54,8.56,6,2.67,1.6,9.92,6.76,12,10l.82,1.27.45-1.44a28.32,28.32,0,0,1,12.19-14.11c6.24-3.68,10.63-5.92,13.25-7.25l1.05-.55c-.76,2.12-1.87,5.41-1.87,6.69,0,2.46-.91,17.67-4.93,25.94l-.42.86.94.15a59,59,0,0,1,13.31,3.94c5.18,2.48,12.44,7.65,13.64,8.51,0,.27.08.6.14,1.06-1.33.3-4.56,1.08-6.95,1.87a24.8,24.8,0,0,0-3.5,1.77c-4.17,2.32-10.47,5.84-18.06,6.2l-1.5.07,1,1.11a36.2,36.2,0,0,1,6.6,11.09c2.13,6.23,4,13.05,4,13.12l1.37-.37c0-.07-1.86-6.93-4-13.21a36.38,36.38,0,0,0-6-10.54c7.31-.71,13.52-4.13,17.3-6.24a24.7,24.7,0,0,1,3.26-1.65c2.93-1,7.39-2,7.43-2l.63-.14-.37-3-.24-.18c-.34-.24-8.37-6.07-14.12-8.82a56.16,56.16,0,0,0-12.79-3.89c4.25-9.62,4.7-25.56,4.7-25.72,0-1.18,1.46-5.43,2.45-8l.88-2.3Z" transform="translate(-221.17 -298.05)"/><path d="M367.42,471.35a21.42,21.42,0,0,0-9.25-2.5c-5.5-.25-16.25-7.25-19.75-10,0,0,2.75,7,3,11s2.5,10.75,7.5,16.25c0,0-3.92,1.17-9.42,5.5l1.34,2h-3.5a106.05,106.05,0,0,0-8.5,6.5c-3.17,2.84-12.5,12.17-13.17,12.5s.33.67,2,.34,12-2.17,18.67-2.67,15.33,1.5,15.33,1.5-3.17,2.67-5.67,5.33-5.66,11.84-5.66,11.84h6.83a23,23,0,0,1,5.67-3c3-1,8-2.17,9.5-3.5,0,0,0,4.83-5.5,6.66,0,0,10.83.66,10.83-9.92S367.42,471.35,367.42,471.35Z" transform="translate(-221.17 -298.05)"/><path d="M316.78,455.87c5.43,7,23.34,10.29,24.09,10.43l.26-1.39c-.18,0-18.13-3.37-23.24-9.91Z" transform="translate(-221.17 -298.05)"/><path d="M227.31,514.72c5.54,9.06,16.08,14.77,16.52,15l.67-1.25c-.1-.06-10.65-5.77-16-14.49Z" transform="translate(-221.17 -298.05)"/><path d="M227,465.44c1.67,3.1,6,16.08,8.45,23.87,1.76,5.68,5.66,11.06,7.45,13.35a29,29,0,0,0-5.95,1,45.59,45.59,0,0,0-9.68,4.07L228,509a44.52,44.52,0,0,1,9.33-3.93,23,23,0,0,1,7-1l1.74.16L245,502.89c-.06-.07-5.94-7-8.12-14-2.43-7.84-6.83-20.93-8.55-24.12Z" transform="translate(-221.17 -298.05)"/><path d="M227.52,461.69c.06,0,5.31,3.54,8.29,5.28l2.31,1.24a109.38,109.38,0,0,1,20.09,13.19c10.07,8.38,11,13,11,13.07l.38,2.1.95-1.9c0-.06,2.95-5.83,6.72-7.95a15,15,0,0,1,6.4-2.16v-1.41a15.78,15.78,0,0,0-7.1,2.34c-3,1.68-5.37,5.23-6.53,7.19-1-2.1-3.61-6.28-10.92-12.37A110.7,110.7,0,0,0,238.78,467l-2.26-1.22c-2.94-1.72-8.16-5.19-8.21-5.23Z" transform="translate(-221.17 -298.05)"/><path d="M284.19,506.08l-2.05,1.85,2.69-.64c.05,0,5.24-1.19,13.72.26A91.54,91.54,0,0,1,316,513a31.07,31.07,0,0,0-5.6,3.6c-1.39,1.39-13.17,6.8-22,7l-.27,1.35a19.74,19.74,0,0,1,6.24,4.56l1.09-.91a18.23,18.23,0,0,0-4.58-3.78c8.76-1,19-5.76,20.54-7.26,1.16-1.17,5.14-3.31,6.57-4l1.32-.67-1.35-.61c-.11,0-10.44-4.64-19.17-6.13a44.35,44.35,0,0,0-12.13-.56c6.06-6.31,6.22-12.07,6.22-12.33h-1.42C291.46,493.33,291.34,499.65,284.19,506.08Z" transform="translate(-221.17 -298.05)"/><path d="M267.81,517.24c0,.07-4.49,7.41-9.79,11l.8,1.17c4.18-2.85,7.73-7.71,9.32-10.09,1.48,4.58,5.78,9.72,6,10l1.08-.91c0-.07-5.38-6.41-6.09-10.91l-.31-1.92Z" transform="translate(-221.17 -298.05)"/><path d="M233.79,471.9l.49,1c.06.13,6.08,12.63,11.05,19.85,4.22,6.11,11.32,13.52,13.45,15.7-1.74,1-6.83,3.3-15.89,3.69a48.47,48.47,0,0,1-10.33-.49l-1.25-.24.44,1.18c.08.2,1.95,4.95,12.28,6.95a37.46,37.46,0,0,0,13,.1c-1.52,2.14-6.22,8.8-6.22,8.8l1.16.81,8.36-11.83-1.87.49a36.07,36.07,0,0,1-14.19.24c-6.33-1.23-9.17-3.49-10.38-4.87a56.5,56.5,0,0,0,9,.27c11.82-.5,17.16-4.22,17.38-4.38l.68-.48-.59-.6c-.09-.09-9-9-13.92-16.15A163.62,163.62,0,0,1,237,475.18c2.09,2.34,15,15.73,18.94,19.68s11.44,10.94,11.51,11l.48.45.49-.44c.05-.05,5.8-5.3,9.27-8.77a99.15,99.15,0,0,1,7.57-6.61,24.33,24.33,0,0,1-3.41,9.45,97.82,97.82,0,0,1-8.18,9.92l-.82.86L274,511c.35.09,8.63,2.27,13.89,2.52,3.94.19,12.21,1,16,1.31a20.55,20.55,0,0,1-9.48,2.53c-7.4.24-19.35.25-19.47.25H274l.22.88a105,105,0,0,1,2.23,10.32h1.42c0-1.31-1.48-7.42-2.06-9.79,2.91,0,12.37,0,18.62-.25,7.67-.25,11.77-3.77,11.94-3.92l1.24-1.08-1.63-.16c-.13,0-12.83-1.26-18-1.5A77.63,77.63,0,0,1,275.5,510a92.24,92.24,0,0,0,7.5-9.21c3.32-4.85,3.85-11.56,3.87-11.84l.12-1.59-1.26,1c-.05,0-5.57,4.32-9.06,7.81-2.89,2.89-7.33,7-8.75,8.29-1.67-1.57-7.62-7.15-11-10.54C253,490,239.7,476.13,238,474.14s-2.71-2.24-3-2.24Z" transform="translate(-221.17 -298.05)"/><path d="M339.9,391.61c-.14.06-3.56,1.49-10.75,9.35-6.08,6.64-10.64,17.42-12.36,21.49l-.56,1.29,0,0c-7.84-9.35-13.29-10.95-13.52-11l-.38,1.37c.06,0,5.43,1.61,13.15,10.94a1,1,0,0,0,.85.31,1.6,1.6,0,0,0,1.13-.9l.66-1.47c1.69-4,6.18-14.62,12.09-21.08a67.75,67.75,0,0,1,6.71-6.52,72.14,72.14,0,0,0-5.53,8.88c-3.33,6.5-6.58,19.28-6.72,19.82l-.13.51.45.27a3,3,0,0,0,2,.41,68.64,68.64,0,0,1,15.56.18,58.13,58.13,0,0,1,11.51,3.1l-6.12.33c-3,.16-19.37,1.83-24.73,6l-.61.47.53.57a98.54,98.54,0,0,1,6.44,7.76c2,2.75,8.68,11.8,11.45,15.53a56.07,56.07,0,0,1-9.88-4.07c-6.73-3.53-17-11.55-19-13.83l-1.07.93c2.33,2.69,12.79,10.7,19.38,14.16a53.63,53.63,0,0,0,12.17,4.73l1.85.4L343.4,460c-.1-.13-10.19-13.7-12.66-17.15a92.63,92.63,0,0,0-6-7.25c5.17-3.32,18.87-5.07,23.26-5.3l9.33-.5.25-1.35a63.65,63.65,0,0,0-14.85-4.39,68.15,68.15,0,0,0-16.11-.15,1.13,1.13,0,0,1-.49-.06c.69-2.61,3.6-13.35,6.46-18.93a79.35,79.35,0,0,1,8.08-12.21l1.78-2.14Z" transform="translate(-221.17 -298.05)"/><path d="M265.8,308.84c.13,1.42.31,5.46-.43,7-1,2-3.94,13.57-2.56,20.29l1.39-.29a18.78,18.78,0,0,1-.34-3.82c0-6.24,2-14.06,2.77-15.55a8.06,8.06,0,0,0,.62-2.82c.69,2.12,1.54,4.63,2.42,6.93a26.11,26.11,0,0,1,1.51,9.07c0,1-.05,1.59-.05,1.61l-.18,2.05,1.4-1.51c.09-.09,8.82-9.46,12.54-11.89,2.33-1.51,6.13-3.55,8.7-4.89l-5.66,7.54c-4.42,5.91-11.71,13.87-11.78,13.95l1,1c.07-.08,7.41-8.1,11.88-14.06l7.5-10-.89-1.06c-.31.16-7.74,3.88-11.57,6.38-3,2-8.91,8-11.51,10.75A27.44,27.44,0,0,0,271,320c-2-5.07-3.8-11.37-3.82-11.44Z" transform="translate(-221.17 -298.05)"/><path d="M235.86,312.9a96,96,0,0,1,3.79,9.39c.79,2.84,4.5,9.24,10,14.13a35.84,35.84,0,0,0-8,.15,58.06,58.06,0,0,0-10.82,2.53l-1.17.42,1,.8c.12.1,3,2.53,5.21,4a12.43,12.43,0,0,0,8,2.16,19.06,19.06,0,0,0-2.78,7.88c-.11,1.53-.15,3.44-.15,5.31,0,3.61.14,7.05.15,7.27l1.37.23a21.54,21.54,0,0,1,2.57-4.5l.92-1.12c2-2.34,5.32-6.27,6.05-12.39l-1.41-.17c-.67,5.7-3.71,9.28-5.72,11.65l-1,1.17a19.06,19.06,0,0,0-1.48,2.28c0-1.28-.06-2.85-.06-4.46,0-1.83,0-3.7.14-5.17.32-4.24,3.34-8.43,3.37-8.47l1.21-1.66-2,.56c-3.76,1.08-7.13-.85-8.4-1.73s-3.06-2.29-4.12-3.15a56.14,56.14,0,0,1,9.3-2.07,31.79,31.79,0,0,1,8.79,0l1.12.21-.7-2.47-.16-.14c-5.4-4.72-9-10.94-9.78-13.66a50,50,0,0,0-1.91-5.11c2.34,2.39,5.51,5.25,8.61,8.06l2.14,1.93a74.4,74.4,0,0,1,8.74,9.4l1.14-.84a75.63,75.63,0,0,0-8.93-9.6l-2.14-1.94c-4.76-4.31-10.16-9.18-11.56-11.57Z" transform="translate(-221.17 -298.05)"/></svg>