<svg id="_10_4" xmlns="http://www.w3.org/2000/svg" viewBox="0 0 153.07 238.11"><defs><style>.cls-1{fill:#ed1c24;}.cls-2{fill:#fff;}.cls-3{fill:#ffcb05;}</style></defs><title>_10_4</title><rect class="cls-1" width="153.07" height="238.11"/><path class="cls-2" d="M232.25,310V513.37s.5,9.83,9.84,9.83h118s9.66-.66,9.66-10.83V308s-.16-9.33-12.16-9.33h-115S232.25,298.7,232.25,310Z" transform="translate(-224.38 -292.06)"/><path class="cls-3" d="M265.42,475.2s4.17,2.67,15,3.17a48.52,48.52,0,0,0,18.67-2.67,57.6,57.6,0,0,1-6.84-5.66c-3-3-11.83-11.34-22.33-13.84a2.26,2.26,0,0,1,1.33-1.33c1-.33,9.17-5,10.84-8s4.16-11.17,4.16-11.17a62.36,62.36,0,0,0-15,1.17c-9,1.67-17,8.67-17,8.67s-.33-11.17-4-19-6.5-12.17-8.33-16.17-3.17-8-3.17-8-.66-.17-.83,1.5-1.33,9-2.5,12a83.49,83.49,0,0,0-3.17,11c-.33,2,0,36.5,0,36.5s5.34,13.5,6,14.17,4,9.16,4,9.16l8.67,1.84,12-7Z" transform="translate(-224.38 -292.06)"/><path class="cls-1" d="M309.59,298.87a14.32,14.32,0,0,0,6.83,7s-4.33,2.33-6.5,5.16-6.67,12.67-8.67,14.5l.67,1.17s3.83-1,4.83-.67,9,7.5,9,7.5-2.66,2.84-4,9.17-.66,14.67-.66,14.67l.16,7.5s2.84-1.67,4.84-3.17,8-4,10-5.67,15.5-10.5,17.33-21.66a47.9,47.9,0,0,0,8.33,5.66c3.84,1.84,15.17,5.17,18,8l.17-19.83s-.67-5-4.67-7.67a69.65,69.65,0,0,0-9.5-5s11.17-4.5,12.34-12c0,0-2-5-10-5h-5.84Z" transform="translate(-224.38 -292.06)"/><path class="cls-1" d="M316.92,418.2s-4.33-.33-11.33,3.34-15.17,11-15.17,11l-3.5,2.66a20.89,20.89,0,0,1,4.5,1.5c2,1,5.5,2.67,10,4.5s13.5,2.83,18.17,1.5c0,0-.67,1.84-1.34,2.17s-7.83,10.17-10,15.67-5.5,20.5-5.5,20.5l-1.16,6.5s4.83-4.17,7.16-5.67,11-6,13.84-8,13.33-10,14.83-14c0,0,1.33,6.83,3.83,11.33s10.34,14.84,11.84,16.67,8.5,10.16,8.83,10.83,1.5,2.34,1.33.67-1.16-10.67-1.16-13.5.5-14.67.66-19.67-.66-24.16-5-31.83-22-14.5-22-14.5Z" transform="translate(-224.38 -292.06)"/><path class="cls-1" d="M232.25,473.2s5.67,1.83,10.5,8.5c0,0,1.17-7.83,4.67-13s9.83-11.5,12.5-16.33c0,0,1,7.33,2,10.17s4.33,15,4.83,24.83a37,37,0,0,1,8.5-.83c4.17.16,11.67,1.49,14.67,1.66s7.83.34,7.83.34a41.4,41.4,0,0,0-2.83,4.16,37.62,37.62,0,0,1-8.17,10.84c-4.5,3.83-12.5,5.16-12.5,5.16a27.91,27.91,0,0,1,5.84,14.67l-38.67-.17s-9.33-1-9.33-10.33S232.25,473.2,232.25,473.2Z" transform="translate(-224.38 -292.06)"/><path d="M242.17,298.16a10.64,10.64,0,0,0-10.63,10.63V513.45a10.64,10.64,0,0,0,10.63,10.63H359.83a10.64,10.64,0,0,0,10.63-10.63V308.79a10.64,10.64,0,0,0-10.63-10.63ZM233,513.45V308.79a9.22,9.22,0,0,1,9.21-9.21H359.83a9.22,9.22,0,0,1,9.21,9.21V513.45a9.22,9.22,0,0,1-9.21,9.21H242.17A9.22,9.22,0,0,1,233,513.45Z" transform="translate(-224.38 -292.06)"/><path d="M238.25,299.87s5.25,5,6,8.25,7,17.75,13.75,24.25a73.62,73.62,0,0,0-9.75,4.75c-3.5,2.25-10.25,5-15.75,4.25v1.5a39.83,39.83,0,0,1,5.75,2,35.16,35.16,0,0,0,18,4,65.86,65.86,0,0,0-7.75,31.5,9.25,9.25,0,0,0,3.5-4,21.56,21.56,0,0,1,11-9.75c5.5-2,13.25-4,16.75-9.75a44.28,44.28,0,0,0,16.5,15.5c10.75,5.5,16,10.5,18.5,15.25,0,0-1.75-10.75-2.25-15s-3.75-20-12.75-27.75c0,0,16.92-12.42,17.67-12.67l5.17-4a45.21,45.21,0,0,1-7.34-.67c-3.5-.66-7.16-1.33-8.5-1.66s-7.5,1.5-8.83,2.66a84.94,84.94,0,0,0,.83-10.33c0-4.67,1.5-17.17,1.5-17.17a22.16,22.16,0,0,0-3,2.5c-1.5,1.5-12,13.17-14.5,18.67,0,0-5.66-9.33-16.16-12.5s-22.84-4-27-10.33Z" transform="translate(-224.38 -292.06)"/><path d="M308.88,299.45a19.48,19.48,0,0,0,6.24,6.67c-1.76,1.11-5.3,3.62-7.23,6.89l-2.7,5c-1.72,3.33-3.66,7.1-4.86,8l.56,1.26c.05,0,5.11-.95,7.41-.26a56.2,56.2,0,0,0,12.35,1.72,18.17,18.17,0,0,0-7.53,7.79c-2.55,5.29-2.85,11.48-2.85,15.67,0,.73,0,1.39,0,2v1.16l.29,11.49,1.13-.95c.06-.05,6-5,9.83-6.64s19.33-11,22.38-23.85A46.56,46.56,0,0,0,357,343c7.22,2.76,10.94,4.51,11.69,5.51l1.13-.85c-.81-1.07-3.21-2.5-12.31-6a45,45,0,0,1-13.52-8.1l-1-.92-.22,1.31c-2.22,12.82-18,22.31-21.84,24a50.38,50.38,0,0,0-9,5.94c-.06-2.09-.22-8.54-.22-8.54v-1.18c0-.58,0-1.23,0-1.94,0-4.07.29-10.05,2.71-15.07,3.07-6.38,10-8.61,10.07-8.64l-.31-1.37c-4.93.74-13-.76-15.44-1.48a17.48,17.48,0,0,0-6.17-.06,64.77,64.77,0,0,0,3.91-6.93l2.66-5c2.37-4,7.68-7,7.73-7l1.19-.65-1.21-.61a17.64,17.64,0,0,1-6.69-6.69Z" transform="translate(-224.38 -292.06)"/><path d="M355.08,314.93l-2.19.57,2.12.78a50.38,50.38,0,0,1,8.11,3.93c4,2.61,4.48,3.69,6,8.37l1.35-.43c-1.54-4.88-2.13-6.27-6.54-9.13a45.24,45.24,0,0,0-6.64-3.37,22.15,22.15,0,0,0,11.65-11.49l-1.29-.58A20.91,20.91,0,0,1,355.08,314.93Z" transform="translate(-224.38 -292.06)"/><path d="M369.25,444.62l-13.5-11.25A45.48,45.48,0,0,1,344,444.12a146.5,146.5,0,0,1-20.75,10.25c-1.5.5-1.75,0-1.75,0,3.5-3.5,8-14.5,10-18.75a55,55,0,0,1,5.25-8.5c-10,.25-19-7.5-20.75-9s-8.75-3.25-11-3.75-2-1.25-2-1.25a52.92,52.92,0,0,0,14.5-2.25c6.75-2.25,18.75-4,18.75-4-5.75-6.25-9.75-16.75-10-19.75s-4-14.5-5-16.75-.75-3.25-.75-3.25a92.42,92.42,0,0,0,9,7.5c4,2.75,11,4,17.5,9.25s8.25,13.5,8.25,13.5a53.24,53.24,0,0,1,8-11.25,72.83,72.83,0,0,1,6.5-6Z" transform="translate(-224.38 -292.06)"/><path d="M302.11,422.78c-4.21,2.81-8.32,6.13-11.32,8.55A41.21,41.21,0,0,1,286,435l.24,1.36a17.73,17.73,0,0,1,7.17,2.14c3.22,2,16,6.72,25,5.11-2.68,3-8.07,9.67-11.07,17.54-4,10.45-6.51,26.73-6.54,26.89l-.34,2.24,1.56-1.64c0-.05,4.47-4.7,8.33-6.87l1.8-1c6.06-3.23,19.74-10.51,25-19.27a42.74,42.74,0,0,0,6.75,15.28c3,4.27,7.5,9.91,11.45,14.89,3.29,4.15,6.69,8.44,6.95,9.13,0,.2.15.78.66.94l.4.12.37-.31c.66-.64.27-2.89-.06-4.12-.74-2.71-1.22-12.6-.73-20.27l.15-2.08c.65-8.87,2-27.33-5.22-41.53l-1.27.64c4.56,9,5.61,19.76,5.61,28.62,0,4.83-.31,9.09-.54,12.17l-.14,2.09c-.14,2.16-.2,4.5-.2,6.82,0,6,.41,11.88,1,13.91.07.25.09.44.14.66-1.09-1.49-3-3.86-6-7.67-3.75-4.72-8.41-10.59-11.4-14.83a40.76,40.76,0,0,1-6.87-16.67l-.3-2.53-1.05,2.32c-4.13,9.13-19.57,17.34-25.38,20.44l-1.82,1a39,39,0,0,0-7.09,5.56c.82-4.74,3-16.36,6.1-24.44,3.89-10.23,12.25-18.67,12.33-18.75l-.73-1.17c-8.37,2.87-22.89-2.43-26.15-4.44a17.34,17.34,0,0,0-5.89-2.09c.89-.67,2-1.58,3.45-2.73,3-2.41,7.06-5.71,11.22-8.48a30.83,30.83,0,0,1,14.38-5.13l0-1.42A31.62,31.62,0,0,0,302.11,422.78Z" transform="translate(-224.38 -292.06)"/><path d="M249.17,465.61c-4.51,5.1-6.08,11.82-6.6,15a30.88,30.88,0,0,0-10.24-8.26l-.6,1.29c.07,0,7,3.32,10.71,9.21l1.14,1.82.17-2.14c0-.1.82-9.58,6.48-16a87.9,87.9,0,0,0,9.27-12.4,52.59,52.59,0,0,0,2.09,10.39c1.6,4.27,4.56,16.66,4.56,23v1l1-.38s4.56-1.71,12.2-.72c7,.9,13.77,1.7,17.19,1.67a19.39,19.39,0,0,0-2.39,3.51c-.05.13-5.49,13.34-20.19,15.44l-1.27.18.83,1c.06.07,5.74,6.82,6,13.65l1.42-.05c-.21-5.91-4-11.47-5.59-13.59,14.6-2.73,20.08-15.95,20.14-16.09a29,29,0,0,1,3.21-4.41l1.42-1.68-2.13.53c-2.18.55-13.57-.92-18.44-1.55a30.7,30.7,0,0,0-12,.53c-.24-6.75-3-18.44-4.61-22.61-1.48-4-2.25-12.28-2.26-12.37l-1.38-.16C258.77,453,254.86,459.17,249.17,465.61Z" transform="translate(-224.38 -292.06)"/><path d="M238.45,400.75c-.52,0-.84.42-1,1.19l-.21,1.4c-.42,2.91-1.29,9-2.33,12.06-1.27,3.83-3.07,11.25-3.09,11.33l1.38.33c0-.07,1.8-7.44,3.06-11.21,1.07-3.22,2-9.35,2.38-12.3l0-.24.06.19a57.19,57.19,0,0,0,3.9,10.92l1.47,2.4c3.24,5.05,9.25,14.45,9.46,29.29l0,1.54,1.15-1a47.16,47.16,0,0,1,13.59-8.06c5.93-2,14.06-2.25,16.85-2.26-.83,2.13-2.86,7.39-3.66,9.82-.91,2.7-11.48,9-12.79,9.26l0,1.39a34.26,34.26,0,0,1,14.26,6.51c2.53,2,4.91,4.19,7,6.1a66.57,66.57,0,0,0,7.38,6.1c-2.6.56-7.55,1.55-10.95,1.91-5.58.59-14.06,0-21.14-3.26l-.6,1.28c7.34,3.43,16.12,4,21.89,3.39,4.85-.51,12.8-2.3,12.88-2.32l2-.45-1.88-.88c-2.28-1.06-5.24-3.73-8.66-6.83-2.12-1.91-4.52-4.08-7.08-6.14a34.78,34.78,0,0,0-12.87-6.34c3.68-1.95,10.9-6.52,11.82-9.28,1-3,4-10.63,4-10.7l.37-.94-1,0c-.44,0-10.9-.24-18.36,2.33a46.59,46.59,0,0,0-13,7.43c-.57-14.4-6.39-23.61-9.59-28.61l-1.42-2.3a56.46,56.46,0,0,1-3.78-10.6C239.91,402.24,239.39,400.71,238.45,400.75Z" transform="translate(-224.38 -292.06)"/><path d="M351.07,437.06c.52,1.83.62,8.6.72,15.14.08,5.55.17,11.3.51,14.49.49,4.54,2.78,12.43,4.4,17.6a97.74,97.74,0,0,1-9-17.91,96.44,96.44,0,0,1-4.46-22.06l-1.41.09a97.26,97.26,0,0,0,4.54,22.44c3.73,10.72,12,22.56,12.08,22.68l1.25-.64c-.05-.15-5.23-15.51-6-22.35-.34-3.13-.42-8.84-.5-14.36-.1-6.94-.2-13.5-.77-15.51Z" transform="translate(-224.38 -292.06)"/><path d="M324.05,461.08l-8.23,6.76c1.33-2.55,2.91-5.88,3.84-8.21,1.44-3.59,5.84-8.75,5.88-8.8l-1.07-.92c-.19.21-4.6,5.38-6.12,9.19a81.65,81.65,0,0,1-5.65,11.33l1,1L325,462.16c3.37-2.85,7.92-8.7,9.71-13.55l-1.33-.49C331.66,452.69,327.21,458.4,324.05,461.08Z" transform="translate(-224.38 -292.06)"/><path d="M313.75,428.46c-7.14,2.71-12.66,4.47-12.71,4.48l.31,1.38c.07,0,7.27-1,11.45-1.24,3-.18,12.29.53,17.86.95l4.34.3v-1.42l-4.24-.3c-5.6-.42-15-1.13-18.05-.95-1.38.08-3.08.25-4.75.43,1.85-.66,4-1.43,6.29-2.31,7.07-2.68,16.47-3.45,16.56-3.46l-.11-1.41C330.31,424.94,321,425.7,313.75,428.46Z" transform="translate(-224.38 -292.06)"/><path d="M256.61,463.08c-.48,1.07-4.69,10.7-6.06,19.17a51.58,51.58,0,0,1-5.11,14.46,16.32,16.32,0,0,1-3-1.9c-2.18-1.7-9.35-9.35-9.42-9.43l-1,1c.29.32,7.31,7.81,9.58,9.58a14.87,14.87,0,0,0,4,2.36l.55.18.29-.5A52.76,52.76,0,0,0,252,482.48a83.51,83.51,0,0,1,4.89-16.28c0,.29,0,.67,0,.67,0,.91-.93,9.38-1.68,16.19-.82,7.41-1.32,12-1.32,12.56v.47l.44.18a22.4,22.4,0,0,0,11.39,1.05l5.49-1.09a82.55,82.55,0,0,1,12.64-2,23,23,0,0,0-5.21,2.58c-1.74,1.5-14.06,7.32-22.52,7.08h0c-1,0-1.59.28-1.71.83a1.24,1.24,0,0,0,0,.18c0,.71.92,1.12,1.43,1.35A79,79,0,0,1,270,516.38a49.61,49.61,0,0,1,3.64,3.79,56,56,0,0,0-6.7-2.73c-3.8-1.19-14.15-7.3-18.31-10.16l-.33-.22-.36.16a159.1,159.1,0,0,1-15.67,6.22l.42,1.36a161,161,0,0,0,15.48-6.12c4.31,2.91,14.36,8.87,18.35,10.11a68.9,68.9,0,0,1,9.13,4l2.1,1.09-1.15-2.07c-.05-.09-1.35-2.39-5.63-6.42a83.85,83.85,0,0,0-14-10c8.85-.17,20.67-5.85,22.49-7.41,1.35-1.16,7-3.19,9-3.87l-.23-1.38a76,76,0,0,0-17.44,2.18l-5.42,1.08a21.7,21.7,0,0,1-10.14-.79c.14-1.62.71-6.84,1.27-11.91,1-9,1.69-15.43,1.69-16.35l.15-2c.07-.74.12-1.3.12-1.72,0-.7-.15-1-.61-1.13C257.16,461.83,256.83,462.58,256.61,463.08Z" transform="translate(-224.38 -292.06)"/><path d="M231.37,493.19a53.79,53.79,0,0,0,8.55,11.57L232.35,510l.81,1.16L242.1,505l-.6-.6c-.05-.06-5.95-6-8.86-11.82Z" transform="translate(-224.38 -292.06)"/><path d="M239.11,421.52l-.07.85c0,.78-.15,2.29-.36,4.37a188.51,188.51,0,0,0-1.16,19.38c0,.83,0,1.67,0,2.51A47.73,47.73,0,0,0,241.2,466c-2.21-2.51-8.32-10.25-8.39-10.33l-1.11.88c.3.39,7.54,9.55,9.05,11.06l2.71,2.95,1.14-.83A45.21,45.21,0,0,1,239,448.6c0-.83,0-1.66,0-2.48a186.58,186.58,0,0,1,1.15-19.24c0-.51.1-1,.14-1.42,0,.3.06.61.06.91,0,2.49.71,11.06,3.82,17.55a103.79,103.79,0,0,0,6.81,11.85l.6.87.58-.88a32,32,0,0,1,11.71-10,76.44,76.44,0,0,1,13.28-4.67,11.15,11.15,0,0,0-2.94,2.91c-1.18,2-7,10.49-11.75,13.25l-1.51.88,1.69.43a32.13,32.13,0,0,1,10.73,5.86c2.3,1.82,4.6,3.42,6.58,4.72a29,29,0,0,0-4.36-.48,36.88,36.88,0,0,1-12.72-3.18l-.61,1.28a38,38,0,0,0,13.28,3.32,22.44,22.44,0,0,1,9.59,2.22l.35.19.72-1.22-.43-.24a94.19,94.19,0,0,1-11.52-7.72,36.21,36.21,0,0,0-9.87-5.68c4.78-3.47,9.85-10.91,11-12.9,1.38-2.29,6.16-4.7,6.21-4.73l-.46-1.33c-.1,0-10.17,2.06-17.92,5.81a33.28,33.28,0,0,0-11.66,9.64,102.36,102.36,0,0,1-6.14-10.81c-3-6.26-3.68-14.54-3.68-16.94,0-.06-.19-5.63-1.78-5.63A.84.84,0,0,0,239.11,421.52Z" transform="translate(-224.38 -292.06)"/><path d="M231.82,463.05a61.71,61.71,0,0,0,5.57,13.68l1.23-.72a60.78,60.78,0,0,1-5.43-13.32Z" transform="translate(-224.38 -292.06)"/><path d="M349.91,306.73a41.82,41.82,0,0,0-4.33,9.43l-.1.31.17.27c1.77,2.9,7.32,6.94,12.21,10.51a70.26,70.26,0,0,1,6.89,5.37,12.28,12.28,0,0,1,3.1,6.58c-4.75-4.64-8.75-6.44-13-8.3-1.64-.72-3.33-1.47-5.06-2.41-6.26-3.37-8.52-6.05-8.54-6.07l-1-1.23-.23,1.58c-1.75,12-7.74,17-11.7,20.22L327,344.08c-2.27,2-5.5,4.52-7.66,6.19A170.18,170.18,0,0,1,328.85,333c3.76-5.77,6.47-14.32,6.58-14.68l.23-.74-.76-.16c-9.49-2.06-19.26,2.21-23.43,4-1.47.64-2.8,1.15-3.9,1.53,2.85-2.57,7.83-6.93,12.1-10.06s9.85-1.76,12.55-.71a11,11,0,0,0,1.84.82l.54-1.3a18.79,18.79,0,0,0-1.84-.84,21.09,21.09,0,0,1-5.48-4.51c-3.76-4.23-4.07-7.31-4.07-7.34l-1.41.11c0,.15.31,3.54,4.42,8.17a26.75,26.75,0,0,0,2.49,2.44,12.7,12.7,0,0,0-9.87,2c-6.46,4.72-14.49,12.23-14.57,12.3l-2,1.87,2.65-.66a51.9,51.9,0,0,0,7.11-2.54c3.93-1.72,13-5.65,21.78-4.08-.74,2.19-3.12,8.88-6.16,13.54a178.93,178.93,0,0,0-10.8,20.1l-1.15,2.54,2.22-1.69c.07-.05,6.31-4.8,10-8l1.28-1.06c3.73-3.08,9.84-8.21,11.93-19.78a38.6,38.6,0,0,0,8,5.43c1.78,1,3.5,1.72,5.16,2.46,4.48,2,8.72,3.85,13.91,9.4l1.22,1.31v-1.79c0-.24,0-5.84-3.71-9.5a69.77,69.77,0,0,0-7.05-5.52c-4.42-3.22-9.86-7.19-11.66-9.86a40.33,40.33,0,0,1,4.06-8.74c2.63-4.06,9-8,9.1-8l-.74-1.21C359.19,298.43,352.71,302.4,349.91,306.73Z" transform="translate(-224.38 -292.06)"/><path d="M325.47,299.33a32.15,32.15,0,0,0,5.92,5.4c2.65,1.59,6.17,4.51,7.77,7l.43.69.62-.53a26.86,26.86,0,0,0,5.17-6c1.49-2.74,4.66-5.5,7.06-6.16l-.37-1.37c-3.09.85-6.46,4.15-7.94,6.85a23.52,23.52,0,0,1-4.29,5.06,29.11,29.11,0,0,0-7.72-6.83,31.68,31.68,0,0,1-5.58-5.11Z" transform="translate(-224.38 -292.06)"/></svg>