<svg id="_10_1" xmlns="http://www.w3.org/2000/svg" viewBox="0 0 153.07 238.11"><defs><style>.cls-1{fill:#ed1c24;}.cls-2{fill:#fff;}.cls-3{fill:#ffcb05;}</style></defs><title>_10_1</title><rect class="cls-1" width="153.07" height="238.11"/><path class="cls-2" d="M224.58,315.16V516.83s.17,10.17,11.33,10.5h92.84l27-61.83,5.5-59.84-1.17-49.5-8.83-45.83-21.5-7.17-93.67-.08S223.91,301.66,224.58,315.16Z" transform="translate(-217.76 -296.33)"/><path class="cls-3" d="M235.46,366.83s-9.88-7.63-10.88-12v-13a13.77,13.77,0,0,0,2.38,1.62c.87.38,2.25,0,3.25,1.38a4.2,4.2,0,0,1,.25,4.5c-.75,1.37-.13,4.5.37,5.62a28.47,28.47,0,0,0,6.38,8.38,95.46,95.46,0,0,0-1.88-10.5c-.87-2.75-2.5-5.63-3.12-6s-2.25-2.88-3.5-4.75-1.75-6-1.75-7.5.5-2,1.37-2.25a6.91,6.91,0,0,1,3.25.25,1.06,1.06,0,0,1,.63,1.37,22.1,22.1,0,0,0-.38,4.63,6.13,6.13,0,0,0,1.25,2.87s.25.25.75-.5.88-1.87,2.38-2.25a1.69,1.69,0,0,1,2.37,1.25c.38,1,.83,2.79.33,2.79a4.57,4.57,0,0,0-2.58,2.09c-.67,1.16.83,3.5,1.42,4.16s1.5.34,2.25.09,2.33-.92,2.33-.92.42-.42,1.17.75a2.93,2.93,0,0,1,.16,3.17c-.5,1-2.25,2.75-2.41,4.25s2.08,7.17,2.33,7.33a21.42,21.42,0,0,1,3.67.25c2.91.5,7.16,3.09,10.5,5.75a47.28,47.28,0,0,0,8.66,5.08c1.25.67,3.59,1.42,4.09,2.34s.5,2.83-.25,3.33a2.61,2.61,0,0,0-1.09,1.5,7.23,7.23,0,0,1-2.33,3.5c-1.42.92-3.83.67-4.58.58a92.69,92.69,0,0,0-9.42.59,12.55,12.55,0,0,0-7,4.41,11,11,0,0,0-1.92,8.34c.67,3.16,6,7.67,12.42,8.83s13.5-.16,19.17-2.5,8.91-4.75,15.16-5.25,14.25-.16,21.5,3.5S323.91,410.16,326,411a11.07,11.07,0,0,0,3.75.84s.75,1.17,1,1.58-.17,1.42-.17,1.42-6.42,3.91-7.17,4.25-1.66.67-1.58,1.08,1.92,7.25,2.33,10.84-.41,12.33-2.33,17.16A67.41,67.41,0,0,1,317.5,457a2,2,0,0,0,0,1.58c.33,1,1.83,5.67,2.08,6.42a2.77,2.77,0,0,1-.42,2.25c-.41.75-3.25,6.08-4.16,7.25s-3.17,7.41-4.25,10.25-3.42,14.16-3.59,15.66-.5,5.59-.5,5.59.5.75-.25.75-7.25.41-7.25.41a1.21,1.21,0,0,1-.08-1c.17-.66,1.75-7.83,2.58-10.16s4.17-13.42,4.84-16.09a50.84,50.84,0,0,0,.83-8.16c0-.34-.75-1.09-1-1s-3.42,2.58-4.25,4.25-2.08,9.08-2.25,11.25-1,10.58-1,10.91-.33,2.25-.33,2.25.16,1.25-.84,1.25-7.25.25-7.25.25-2,.25-1.5-.66a16,16,0,0,0,.84-1.84,44.6,44.6,0,0,0,2.75-6c.41-1.66,2.91-13.91,3.33-16.41a61.05,61.05,0,0,0,.92-9c-.09-2-1.5-6.09-3.42-7.59s-8.42-7.91-8.42-7.91l-4.16-3.75a154.23,154.23,0,0,1-19,4.08l-1.84.25-.16.83a32,32,0,0,1,.16,7.67c-.5,3-3,9.33-3.41,10.92s-2.42,7.83-2.59,10.75a46.32,46.32,0,0,0,.59,10c.58,3.33,2.33,11.49,2.5,12.16s.5,4.09.58,5.84a6.2,6.2,0,0,1-1,3.33l-4.75.25-2.75.17s-.08-.84-.25-1.84.83-5.67.92-6a24.28,24.28,0,0,0,0-6.08c-.42-1.92-3.25-9.75-3.42-10.25s-2.83-6-2.83-6a43,43,0,0,0-2.25,6.75c-.34,2.17-.67,12.83-.67,15.33s-.33,5.84-.33,5.84-.09,1.08-.84,1.33a42,42,0,0,1-4.83.42h-3.5a58.43,58.43,0,0,0,2.5-7c.33-1.84,1.17-9.5,1.17-11.42s.33-8.5-.17-10a133.72,133.72,0,0,1-2.75-13.83c-.5-4-1.75-17.17,1.08-22.42,0,0-2.91-4-3.58-6.08s-1-4-1.33-4.84-2.67-7.75-2.92-8.91-.67-4-.67-4l.09-18.51-.09-13.91a17.18,17.18,0,0,1,1.25-2.42c.5-.67.92-.75.84-1.17a11.77,11.77,0,0,1,0-4.08,4,4,0,0,1,2.5-2.83,12.68,12.68,0,0,1-.17-1.5,5.39,5.39,0,0,1,.83-3.25A9.13,9.13,0,0,1,232.5,375a17.07,17.07,0,0,1-2.84-1.08,18.47,18.47,0,0,1-2.91-2.42s-.34-.41.08-1.16,3.58-2.09,5.17-2.25l2.25-.25Z" transform="translate(-217.76 -296.33)"/><path class="cls-3" d="M274.83,318.33s4.38,4.25,4.75,7.12c0,0,1-1.87,2-2.12s12,1.87,12.38,2.12,4-5.62,4.12-8.75a20.06,20.06,0,0,0,7.88-2.5,87.84,87.84,0,0,1,9.25-5.37,8.92,8.92,0,0,1-3.13-1.25c-1.12-.88-5-4.25-6.5-4.5H276.33a2.66,2.66,0,0,0,1.88,1.12,18.21,18.21,0,0,1,3.62,1.13,13.72,13.72,0,0,0-1.75,3.25c-.25,1.12-.62,4-1.75,5.75A27.94,27.94,0,0,1,274.83,318.33Z" transform="translate(-217.76 -296.33)"/><path class="cls-3" d="M336.71,303.58s7.12,19,7.62,21.12S347.71,337,347.71,337a18.84,18.84,0,0,0,1.87,2.25c.5.38,4,2.25,4,2.25a27.48,27.48,0,0,0-3.12,3.25,10.29,10.29,0,0,0-1.13,2.38s1.88,11.87,2.5,13.87,1.88,4.75,2.88,7.13-.88,34.5-.88,34.5l-11.37,5.87-3.75,3.63-5.5,1.87h-2.75l-2.13,1.88a25.07,25.07,0,0,0,4.5,7.37,10.79,10.79,0,0,0-3.75,4.13c-1.25,2.62-2.25,8.5-2.25,8.5l-.75,4.25s3,.75,4.75,1.25,6.5.62,8.25-.75c0,0,.75,4.25,2.5,6.25l-.12.87s-6.63,14.63-7.38,16.25-9.12,21-10.62,24.13-7,17.37-8.75,19.5S307,518,304.46,520.2a103,103,0,0,1-9.5,6.63s-.13.37,1.75.37,38.5-.25,38.5-.25-5.75-3.37-8.75-5.62a86.06,86.06,0,0,1-7.75-7.25s-.88-.63,0-1.13a39.94,39.94,0,0,0,4.37-3.62c.75-.75,8.25-5.88,9-6.38a4.17,4.17,0,0,0,1.5-2.12c.25-.75,4.38-9.38,5.5-11.5s2.5-4.13,2.5-4.13a3.8,3.8,0,0,1,1.13.38c.37.25,8.25,3.75,8.25,3.75l11.5-14,1.87-17V422.08L364.21,368V315.2s0-6.37-2.13-8.5-4.37-3.12-8.25-3.5-16.87,0-16.87,0" transform="translate(-217.76 -296.33)"/><path class="cls-1" d="M243.58,303.49s-.5,3.34,1.17,5c0,0-2.17-.41-3.79-.54s-4.13,1.38-4.75,2-5.88,4-9.25,3.88a22,22,0,0,0,1.75,1.75,4.71,4.71,0,0,1,1.5,2.62,22.73,22.73,0,0,0,3.75,8.5c2.37,3,7.12,4,7.12,4s0,4.25.13,5.75a14.36,14.36,0,0,0,2.37,6.38c1.38,1.75,3.38,4.25,3.38,5.5a12.48,12.48,0,0,1,3.75-3c2.25-1.13,6.5-1.25,8.75-2.25s8.62-5.5,8.62-5.5l12.5-6.88-.62-5.37s-3.13-5.75-4.25-6.88a49.66,49.66,0,0,0,2.87-4.62c.88-1.75,1.75-6.75,3.63-8.38a27.58,27.58,0,0,1-4.75-1.37,9.73,9.73,0,0,0-2.13-.88Z" transform="translate(-217.76 -296.33)"/><path class="cls-1" d="M306.58,330.33a31,31,0,0,1,.5-5.25c.5-2.5,1.13-6.38,1.13-6.38l.5-.25s3.62,1,5.37,1.38a54,54,0,0,1,10.75,4.87l6.25-3.37,5.13-2,2.62-.13.75,2.63s3.38,4.5,3,13.75a16.07,16.07,0,0,1,5,2.12c2.5,1.63,4.63,3.25,6,3.75,0,0-2.75,1.75-3.12,3.25s-4.38,5.63-5.88,6.13l-.25,7A35.08,35.08,0,0,1,348,360.2l1.37,1.38s-1,3.12-1.25,3.87-3.37,4.88-6,5.38c0,0,3.5,7.37,2.38,11.25s-16.88,10-16.88,10-4.25,0-6.5-1c0,0-.62,3.62-2,5.12s-4.5,4-4.75,4.5a43.7,43.7,0,0,0-3.87-2.87c-1.63-1-7.75-7.25-8.25-11.5a15.06,15.06,0,0,1-7,1c-4-.38-7.13-1-8.63-1.13,0,0,.38-2.25.5-4.37s1.13-7.13,3.13-9.88,7.87-19.5,7.87-19.5Z" transform="translate(-217.76 -296.33)"/><path class="cls-1" d="M350.46,489.08s-3.63-1.88-5.25-2.5A23,23,0,0,1,342,485s-2.88,4.13-3.88,6-4.87,10.88-4.87,10.88-.75,1.12-1.13,1.12-3.75,2.63-6.37,4.5-7,5.5-7.38,5.5-.62.38.38,1.13a41.73,41.73,0,0,1,5,4.37c.75,1,9.12,7.63,12.5,8.75l16.87.25s4.88-.25,7.5-2.5a9,9,0,0,0,3.5-7.37c.13-3-.12-27.63-.12-27.63l-5.38-.37Z" transform="translate(-217.76 -296.33)"/><path d="M234.5,302.62a10.64,10.64,0,0,0-10.63,10.63V517.41A10.64,10.64,0,0,0,234.5,528H354.16a10.64,10.64,0,0,0,10.63-10.63V313.25a10.64,10.64,0,0,0-10.63-10.63Zm-9.21,214.79V313.25A9.22,9.22,0,0,1,234.5,304H354.16a9.22,9.22,0,0,1,9.21,9.21V517.41a9.22,9.22,0,0,1-9.21,9.21H234.5A9.22,9.22,0,0,1,225.29,517.41Z" transform="translate(-217.76 -296.33)"/><path d="M231.1,367.64c-4.08.88-5.4,2.89-5.45,3l-.25.4.26.39a11.46,11.46,0,0,0,6.78,4.29,42.78,42.78,0,0,0,7.64.85h0a.71.71,0,0,0,.71-.71h0a.71.71,0,0,0-.71-.71,42.11,42.11,0,0,1-7.36-.82,10.1,10.1,0,0,1-5.54-3.28,8.44,8.44,0,0,1,4.22-2c3.57-.78,8.37,1.11,8.42,1.13a.7.7,0,1,0,.52-1.31C240.13,368.75,235.1,366.77,231.1,367.64Z" transform="translate(-217.76 -296.33)"/><path d="M239.82,363.67a34.68,34.68,0,0,0-6.34,3.93.7.7,0,0,0-.13,1,.72.72,0,0,0,1,.13,34,34,0,0,1,6-3.73c2.84-1.14,7.85-1.27,12.67,2.09,6,4.16,9.78,6.73,11.61,7.56l1.09.47c1.61.68,4,1.7,4.36,2.76a1.88,1.88,0,0,1-1.1,2.47,14.43,14.43,0,0,1-4.39.45.71.71,0,1,0,0,1.41,16.58,16.58,0,0,0,4.95-.55,3.31,3.31,0,0,0,1.9-4.19c-.51-1.7-3.09-2.79-5.17-3.66l-1.05-.45c-1.73-.78-5.64-3.43-11.39-7.44C247,361.17,241,363.21,239.82,363.67Z" transform="translate(-217.76 -296.33)"/><path d="M268.54,380.91a7.67,7.67,0,0,1-1.14,3.23c-.74.92-2.1,1.1-4.19,1.1a83,83,0,0,0-11.52,1c-3.39.68-7.46,4.61-8.54,8.24s1.12,9.33,6.72,12.33c5.87,3.14,14,3.62,21.66,1.3a57.87,57.87,0,0,0,7.75-3.12c4.11-1.9,8-3.69,13.57-3.85a43.6,43.6,0,0,1,23.25,5.91c6.7,3.84,9.55,5.27,12.22,5.63,1.79.24,2.13.51,2.19.69-.53.79-4.51,3.83-9.22,6l-.61.27.24.63a45.58,45.58,0,0,1,2.64,14.19c0,.39,0,.79,0,1.19-.33,7.84-3.71,15.44-6.23,20.49a3.86,3.86,0,0,0-.9,2.26,2.23,2.23,0,0,0,.19.89c.48,1.14,2,5.13,2.3,6.25a1.22,1.22,0,0,1,0,.34,6.2,6.2,0,0,1-1.09,2.88,59.79,59.79,0,0,0-6.77,12.69,129.52,129.52,0,0,0-4.7,19.32,52.13,52.13,0,0,0-.34,5.41s0,.09,0,.11l-.14,0-6.12.14c.43-2,1.52-7,2.3-9.56l.86-2.69c1.82-5.56,5.18-15.81,5.18-20.59,0-.1,0-.19,0-.28-.16-5.44-2.14-9.61-3.9-11.18-2.1-1.86-6.54-6.38-8.33-10.11a36.42,36.42,0,0,1-3.61-16.52c0-.33,0-.66,0-1h0a.71.71,0,0,0-1.42,0,38.23,38.23,0,0,0,3.74,18.15c1.89,3.94,6.49,8.63,8.67,10.56,1.29,1.15,3.26,4.8,3.43,10.16.13,4.4-3.41,15.2-5.1,20.39l-.88,2.72c-1,3.32-2.45,10.26-2.51,10.56l-.18.87,7.87-.19a1.54,1.54,0,0,0,1.25-.51,1.49,1.49,0,0,0,.28-1.17l0,.14s0-2.33.32-5.25a129.6,129.6,0,0,1,4.63-19A59.88,59.88,0,0,1,319,469.59a7.69,7.69,0,0,0,1.38-3.73,2.57,2.57,0,0,0-.1-.73c-.34-1.19-1.85-5.22-2.36-6.41a.84.84,0,0,1-.07-.35,2.57,2.57,0,0,1,.62-1.41l.06-.07,0-.08c2.58-5.17,6.06-13,6.41-21.12,0-.43,0-.85,0-1.28a45.79,45.79,0,0,0-2.52-14.05c4.34-2.06,9.5-5.55,9.5-6.87s-1.32-1.91-3.45-2.2c-2.43-.32-5.18-1.71-11.7-5.45a45.11,45.11,0,0,0-24-6.1c-5.88.17-9.88,2-14.12,4a55.62,55.62,0,0,1-7.56,3c-7.35,2.22-15.05,1.77-20.59-1.19-5-2.66-7-7.51-6-10.68s4.61-6.68,7.46-7.25a81.58,81.58,0,0,1,11.24-1c2.1,0,4.09-.12,5.3-1.64a9.22,9.22,0,0,0,1.44-3.94.71.71,0,0,0-.61-.79A.72.72,0,0,0,268.54,380.91Z" transform="translate(-217.76 -296.33)"/><path d="M280.72,447.69a.7.7,0,0,0,.06,1l.47.43c7,6.21,11.1,10.07,12.09,11.45a20.05,20.05,0,0,1,2.87,8.93c0,2.17-3.44,19-4.32,22.49-.8,3.19-3.89,8.42-3.92,8.48l-.65,1.09,10.43-.19c1.34,0,1.71-1.81,1.71-2.87l.12-1.31L300,493c.23-3.69,1.29-14.86,3.06-17.67a14,14,0,0,1,4.57-4.42.71.71,0,0,0-.66-1.25,15,15,0,0,0-5.11,4.92c-2.33,3.7-3.26,18.18-3.27,18.33l-.5,5.55a2.77,2.77,0,0,1-.35,1.45l-7.88.15a38.62,38.62,0,0,0,3.46-7.77c.85-3.4,4.35-20.37,4.35-22.83a21.1,21.1,0,0,0-3.13-9.75c-1.07-1.5-5.09-5.32-12.3-11.7l-.47-.42A.71.71,0,0,0,280.72,447.69Z" transform="translate(-217.76 -296.33)"/><path d="M257.2,441.49a.71.71,0,0,0-.5.67.93.93,0,0,0,0,.22c0,.07,2.47,7.81,2.63,13.63,0,.21,0,.41,0,.61,0,5.34-1.92,10.42-3,13.2l-.16.43c-.54,1.43-3.21,8.87-3.21,14.91,0,4.52,1.3,10,2,13l.35,1.51a89,89,0,0,1,1.5,10.33,2.1,2.1,0,0,1,0,.27l-.08.71a5.06,5.06,0,0,1-.42,2l-6.88.3c.07-1.13.22-3.26.45-4.64l.13-.76a29.36,29.36,0,0,0,.55-5,12.94,12.94,0,0,0-.19-2.31,104.52,104.52,0,0,0-4.21-13l-.38-.79a13.49,13.49,0,0,1-1.69-5.6,5.89,5.89,0,0,1,.11-1.18c.69-3.23.69-8.72.69-16.31s-2.59-16.48-2.7-16.86a.71.71,0,1,0-1.36.39c0,.09,2.64,9.16,2.64,16.47,0,7.51,0,12.93-.65,16s.82,5.92,1.69,7.69l.35.75a105,105,0,0,1,4.12,12.66,20.15,20.15,0,0,1-.37,6.82l-.13.78c-.34,2-.5,5.44-.51,5.58l0,.78,8.41-.37c1.48,0,1.67-1.9,1.8-3.28l.07-.67c.19-1.52-1-8.95-1.51-11.07l-.35-1.54c-.69-2.9-2-8.3-2-12.65,0-5.8,2.6-13,3.12-14.42l.16-.42c1-2.76,3.21-8.51,3.05-14.34-.17-6-2.6-13.71-2.7-14A.7.7,0,0,0,257.2,441.49Z" transform="translate(-217.76 -296.33)"/><path d="M224.62,425.3a.7.7,0,0,0-.57.82c.07.38,1.7,9.3,3.06,12l.68,1.82c1.38,4.16,4.27,12.82,15,14.56a.71.71,0,0,0,.23-1.4c-9.9-1.61-12.5-9.41-13.9-13.6l-.75-2c-1.27-2.55-2.92-11.55-2.94-11.64A.7.7,0,0,0,224.62,425.3Z" transform="translate(-217.76 -296.33)"/><path d="M291.69,441.74c-12,8-31.8,9.53-32,9.55a.71.71,0,1,0,.11,1.41c.82-.06,20.33-1.61,32.67-9.78a.71.71,0,0,0-.78-1.18Z" transform="translate(-217.76 -296.33)"/><path d="M232.25,448.24c-.09.23-2.21,5.74-1.88,15.45.21,6.11,1.63,12.76,2.66,17.61a54,54,0,0,1,1.18,6.56,135,135,0,0,1-.83,16.53c-.48,3.2-2.93,8.93-2.95,9l-.44,1,1.11,0c.67,0,6.58-.17,7.6-.34,1.39-.24,2.26-1,2.26-2v-4.34c0-1.12.5-14.57,1.3-17.48l2-6.81a.71.71,0,0,1-.88.47.72.72,0,0,1-.48-.88l-2,6.85c-.86,3.08-1.36,16.67-1.36,17.85V512c0,.26-.45.53-1.08.63s-3.78.22-6.31.29a44.57,44.57,0,0,0,2.63-8.32,142.64,142.64,0,0,0,.87-15c0-.68,0-1.28,0-1.76a52.06,52.06,0,0,0-1.21-6.8,105,105,0,0,1-2.62-17.36c0-.68,0-1.33,0-2,0-8.17,1.8-12.87,1.82-12.92a.56.56,0,0,0,.05-.25.71.71,0,0,0-1.37-.26Z" transform="translate(-217.76 -296.33)"/><path d="M224.69,340.49a.71.71,0,0,0-.45.9c.4,1.18,2.65,3.55,4.12,3.3.61-.1,1.3.5,1.54,1.33a4.53,4.53,0,0,1-.3,3.35c-.76,1.71-.13,4.69,1.69,8,1.69,3,6.24,8.08,6.43,8.3a.71.71,0,0,0,1.05-.95c0-.05-4.63-5.15-6.24-8s-2.2-5.43-1.64-6.7a5.94,5.94,0,0,0,.37-4.32,2.94,2.94,0,0,0-3.13-2.33c-.49.05-2.25-1.48-2.54-2.36A.72.72,0,0,0,224.69,340.49Z" transform="translate(-217.76 -296.33)"/><path d="M224.26,353.86a.71.71,0,0,0-.31,1,30.74,30.74,0,0,0,11.29,12.46.7.7,0,0,0,1-.28.71.71,0,0,0-.28-1,30,30,0,0,1-10.71-11.87A.71.71,0,0,0,224.26,353.86Z" transform="translate(-217.76 -296.33)"/><path d="M228.59,331.64c-2.51.55-2.56,3.06-1.87,6.66a13.27,13.27,0,0,0,2.83,6.42l.61.83.93,1.21a16.76,16.76,0,0,1,3.64,6.75c1.14,4.41,2.14,10.7,2.15,10.76a.71.71,0,1,0,1.4-.22c0-.06-1-6.42-2.18-10.9a18.08,18.08,0,0,0-3.92-7.28l-.84-1.1-.67-.91a11.94,11.94,0,0,1-2.56-5.83c-.89-4.64.12-4.86.79-5a3.77,3.77,0,0,1,2.68.29c.13.09.13.15.13.18l-.28,1.71A13.51,13.51,0,0,0,231,338a7.53,7.53,0,0,0,1.17,3.54l.38.73a.87.87,0,0,0,.77.61c.59,0,.85-.47,1.21-1.16a5.35,5.35,0,0,1,1.27-1.81,1.49,1.49,0,0,1,1.11-.42c.41.09.78.61,1,1a3.85,3.85,0,0,1,.63,1.62h0a4.66,4.66,0,0,0-3,3.25,3,3,0,0,0,0,.31,7.14,7.14,0,0,0,1.53,3.83,1.62,1.62,0,0,0,1.2.67,9.72,9.72,0,0,0,4.31-1.58,3.16,3.16,0,0,1,.66,1.35,4.68,4.68,0,0,1,.12.85,2.71,2.71,0,0,1-.53,1.47l-.42.54a6.12,6.12,0,0,0-1.77,4.28c0,1.64.59,3.81,2.35,6.75a.71.71,0,0,0,1,.24.7.7,0,0,0,.25-1c-3.6-6-1.8-8.12-.72-9.39l.54-.7a3.81,3.81,0,0,0,.61-3.28c-.1-.52-.65-2.26-1.71-2.58a1.15,1.15,0,0,0-1.16.31,8.53,8.53,0,0,1-3.44,1.28,5.42,5.42,0,0,1-1.37-3,.76.76,0,0,1,0-.15,3.41,3.41,0,0,1,1.94-2.07,1.32,1.32,0,0,0,1-.74,1.53,1.53,0,0,0,.14-.66,5.15,5.15,0,0,0-.81-2.3,3.09,3.09,0,0,0-1.95-1.73,2.81,2.81,0,0,0-2.26.67,6,6,0,0,0-1.55,2.06,6.18,6.18,0,0,1-1-2.83,11.78,11.78,0,0,1,.36-2.49l.3-2a1.61,1.61,0,0,0-.65-1.29A5.08,5.08,0,0,0,228.59,331.64Z" transform="translate(-217.76 -296.33)"/><path d="M245.06,372.37a.44.44,0,0,0-.15.33.28.28,0,0,0,0,.12.4.4,0,0,0-.46.13.42.42,0,0,0,.09.59,17.5,17.5,0,0,0,3.59,2,6.06,6.06,0,0,0,3.92.05l.46-.11.28,0a2.45,2.45,0,0,0,1.83-.67,1.16,1.16,0,0,0,.17-1c-.31-1.37-1.71-3-4.65-3.08A8.34,8.34,0,0,0,245.06,372.37Zm.54.66a7.61,7.61,0,0,1,4.55-1.44c3.17.09,3.76,2,3.85,2.41,0,.21,0,.28,0,.3-.17.24-.82.29-1.21.33l-.32,0-.56.12a5.24,5.24,0,0,1-3.39,0,17.2,17.2,0,0,1-3.07-1.67A.4.4,0,0,0,245.6,373Z" transform="translate(-217.76 -296.33)"/><path d="M251.33,371.41a2.22,2.22,0,0,0-1.58,1.58,1.92,1.92,0,0,0,1.91,2.34c1.25,0,2.5-.25,2.67-1.09S253.41,371.58,251.33,371.41Z" transform="translate(-217.76 -296.33)"/><path d="M268.16,378.33s-.16-.84-.91-.84-1.09.34-1.09.84-.08.66.92.66S268.16,378.83,268.16,378.33Z" transform="translate(-217.76 -296.33)"/><path d="M243.24,303.28a7.91,7.91,0,0,0-.29,2.14,6.72,6.72,0,0,0,.32,1.95,8.89,8.89,0,0,0-6.61,1.39c-3,2.24-6.61,4.53-10.08,4.53H224l2.27,1.32c.81.47,3,2,3.34,3.54,1.64,7.17,5.33,11.55,10.94,13.18,0,.47-.07,1.19-.07,2.16a37,37,0,0,0,.28,4.59c.3,2.38,1.93,4.55,3.38,6.47,1.06,1.41,2.06,2.74,2.12,3.66l.1,1.62,1.12-1.18s2.38-2.51,4.62-3l.8-.15c3.34-.61,11.17-2,15.28-7.1a.71.71,0,1,0-1.1-.89c-3.78,4.65-11.24,6-14.43,6.6l-.83.15a10.75,10.75,0,0,0-4.51,2.55,17.24,17.24,0,0,0-2-3.15c-1.34-1.78-2.85-3.79-3.1-5.79a35.88,35.88,0,0,1-.27-4.41c0-1.57.1-2.58.1-2.6l.07-.61-.6-.15c-5.39-1.35-8.91-5.45-10.46-12.2a6.94,6.94,0,0,0-2.54-3.5c3.23-.6,6.37-2.54,9.08-4.54s6.66-.91,6.7-.9l1.81.58L245,308a5.86,5.86,0,0,1-.43-4.26.71.71,0,0,0-1.35-.42Z" transform="translate(-217.76 -296.33)"/><path d="M266.25,333.16a44.29,44.29,0,0,1,1.16,4.33,23.54,23.54,0,0,0,5,9.84,17.52,17.52,0,0,0-3.83,7.5c-1,4.5-1.33,10.5-2.17,12.16,0,0,4.34-1.83,7.5-1.83s6.67-1.67,7.17-2.83a15.37,15.37,0,0,0,5.67,8.33,41.41,41.41,0,0,1,6.33,5.5s2.5-4.17,4-6.17,4.17-5,4.33-8.5a17.59,17.59,0,0,0,6-1.33,19.05,19.05,0,0,1,6.34-1.33,32.45,32.45,0,0,1-1.34-4.5c-.16-1.34-2.33-7.17-4-8.34,0,0,4-3.33,4.67-6.83a21.76,21.76,0,0,1,3.5-7.83,31.62,31.62,0,0,1-6.33-1.17c-2.34-.83-9-.83-12,.5,0,0-1.34-4.5-4.67-6.17s-7.67-4.33-8.33-6.16a11,11,0,0,1-3.34,3.66,7.11,7.11,0,0,0-3,7.84,30.18,30.18,0,0,0-5.16,1.66C271.58,332.49,269.08,334,266.25,333.16Z" transform="translate(-217.76 -296.33)"/><path d="M275.24,303.6a.93.93,0,0,0,0,.23.71.71,0,0,0,.49.67,53.9,53.9,0,0,0,5.5,1.29,27.62,27.62,0,0,0-3,6.84c-.76,2.61-3.61,5.32-3.64,5.35l-.57.54.6.51a14.11,14.11,0,0,1,4.26,7.26.71.71,0,0,0,1.41-.13.62.62,0,0,0,0-.13,15.75,15.75,0,0,0-4.2-7.54,15.14,15.14,0,0,0,3.51-5.46c1.05-3.55,2.46-6.53,3.37-7.1l1.56-1-1.82-.32s-4.63-.83-6.56-1.47A.71.71,0,0,0,275.24,303.6Z" transform="translate(-217.76 -296.33)"/><path d="M254.14,303a.7.7,0,0,0-.44.65.66.66,0,0,0,.06.27,37.37,37.37,0,0,1,2.54,12.28c0,.61,0,1.22-.09,1.82l-.45,1.34c-.54.92-7.39,12.72-7.55,22.28h0a.71.71,0,1,0,1.41,0c.16-9.36,7.33-21.52,7.4-21.65l0-.06.55-1.65v-.08c.68-6.93-2.42-14.52-2.55-14.84A.71.71,0,0,0,254.14,303Z" transform="translate(-217.76 -296.33)"/><path d="M276.54,308.39l-1.26.81c-2.67,1.73-8.23,5.34-11.34,6.82-3.39,1.62-10.38,2-15.33,1.77-4.06-.17-14.93-2.63-15-2.65a.71.71,0,0,0-.85.53.72.72,0,0,0,.54.85c.45.1,11.11,2.52,15.29,2.68,1.85.08,11.33.33,16-1.9,3.19-1.53,8.81-5.16,11.5-6.91l1.24-.79a.73.73,0,0,0,.22-1A.7.7,0,0,0,276.54,308.39Z" transform="translate(-217.76 -296.33)"/><path d="M256.05,317.86a.71.71,0,0,0,.06,1c.19.16,4.66,4.11,9.07,5.64l4.08,1.23c3,.84,5.81,1.63,7.9,3.17a.71.71,0,0,0,1-.15.7.7,0,0,0-.15-1c-2.3-1.69-5.24-2.52-8.36-3.39l-4-1.21c-4.15-1.44-8.56-5.32-8.6-5.36A.71.71,0,0,0,256.05,317.86Z" transform="translate(-217.76 -296.33)"/><path d="M305.74,303.62a.52.52,0,0,0,0,.21.71.71,0,0,0,.5.67,8.18,8.18,0,0,1,3.71,2.22l.7.64a13.74,13.74,0,0,0,2.46,1.65c-1.51.9-4,2.55-6.4,4.24-3.29,2.35-8.58,2.7-8.63,2.7l-.6,0-.06.59c-.47,4.06-4.14,8.41-4.17,8.46a.65.65,0,0,0-.17.45.69.69,0,0,0,.25.54.7.7,0,0,0,1-.08c.15-.18,3.62-4.33,4.38-8.63,1.48-.15,5.79-.75,8.82-2.92a74.49,74.49,0,0,1,7.32-4.73l1.58-.6-1.51-.72a16.79,16.79,0,0,1-3.33-2.06l-.67-.6a9.44,9.44,0,0,0-4.25-2.54A.71.71,0,0,0,305.74,303.62Z" transform="translate(-217.76 -296.33)"/><path d="M285.15,305.78c-.26.41-6.44,10.09-6.61,18a.71.71,0,0,0,.69.73.73.73,0,0,0,.73-.7c.13-6.28,4.42-14,5.89-16.48,1.09,1.49,3.66,6.05,5.87,17.93a.71.71,0,1,0,1.39-.26c-3-16.24-6.77-19.31-6.93-19.43l-.61-.47Z" transform="translate(-217.76 -296.33)"/><path d="M282.93,303.15a.7.7,0,0,0,0,1l3,3.16.22.05a66.77,66.77,0,0,0,11.81,1.18,90.54,90.54,0,0,1,12.72,1.15.71.71,0,0,0,.82-.58s0-.08,0-.12a.71.71,0,0,0-.59-.69,89.83,89.83,0,0,0-13-1.18,65.45,65.45,0,0,1-11.3-1.11l-2.68-2.84A.71.71,0,0,0,282.93,303.15Z" transform="translate(-217.76 -296.33)"/><path d="M288,303.23l-2.33,3a.7.7,0,0,0,.12,1,.71.71,0,0,0,1-.12l2.33-3a.72.72,0,0,0-.12-1A.72.72,0,0,0,288,303.23Z" transform="translate(-217.76 -296.33)"/><path d="M307.39,318.33a39.08,39.08,0,0,1-1.17,6.84,11.65,11.65,0,0,0-.16,5.18.71.71,0,0,0,1.4-.19.57.57,0,0,0,0-.18,7.77,7.77,0,0,1-.15-1.66,13.24,13.24,0,0,1,.32-2.84,59.49,59.49,0,0,0,1.15-6.34,40.8,40.8,0,0,0,4.37,1.22,39.15,39.15,0,0,1,11.23,4.89l.44.29.41-.33a15.24,15.24,0,0,1,6.17-2.85c2.83-.52,6-1.23,7.25-1.53a21.12,21.12,0,0,0,1.54,3.56,25.63,25.63,0,0,1,1.76,8.95,10.47,10.47,0,0,1-.2,2.17l-.17.79.8.07a11.58,11.58,0,0,1,6.08,2.48,21.94,21.94,0,0,0,3.92,2.94,11.36,11.36,0,0,0-2.77,3.15c-.28.81-3,4.61-5.34,5.2l-.58.15,0,.59s.08,1,.08,2.39a20.42,20.42,0,0,1-.4,4.4,55.07,55.07,0,0,0-.94,6,21.2,21.2,0,0,0-3.37-.51h-.15c-1.25,0-5.07,0-7.26-3.19l-.62-.91-.58.94s-2.26,3.68-4.71,4.9l-9.49,4.75c-.66-.81-2.08-2.51-2.86-3.28a19.54,19.54,0,0,1-3.8-7,.71.71,0,1,0-1.39.27c.54,2.73,3.18,6.69,4.19,7.7s3.1,3.59,3.12,3.61l.36.44,10.51-5.25a14.77,14.77,0,0,0,4.74-4.62c2.65,3,6.47,3,7.8,3h.14a25.64,25.64,0,0,1,3.84.64l.79.19.08-.81a54.62,54.62,0,0,1,1-6.57,21.85,21.85,0,0,0,.44-4.72c0-.84,0-1.53-.06-2,2.77-1.09,5.39-4.79,5.77-5.91a15.36,15.36,0,0,1,3.11-3.18l.86-.72-1-.47a19.31,19.31,0,0,1-4.48-3.21,12.33,12.33,0,0,0-6.22-2.76,12.8,12.8,0,0,0,.15-1.69c0-3.9-1.33-8.76-2-9.76a23.47,23.47,0,0,1-1.59-3.83l-.2-.62-.64.16s-4.19,1-7.79,1.65a16.5,16.5,0,0,0-6.41,2.84A41.47,41.47,0,0,0,313.37,319a46.06,46.06,0,0,1-5.06-1.47l-1.14-.4Z" transform="translate(-217.76 -296.33)"/><path d="M338.21,320a116.13,116.13,0,0,0-12.76,19,30,30,0,0,1-1.31,2.8c-.54.89-7.25,17.49-8.6,27.94a.71.71,0,0,0,1.41.18c1.31-10.18,7.86-26.44,8.41-27.4a29.51,29.51,0,0,0,1.37-2.92A115,115,0,0,1,339.29,321a.72.72,0,0,0-.08-1A.71.71,0,0,0,338.21,320Z" transform="translate(-217.76 -296.33)"/><path d="M327.52,341.49c-.29.1-1.77.32-2.66.45l-1.23.19c-1,.17-13.78,3.62-15.24,4a.71.71,0,0,0,.38,1.37c5.68-1.53,14.39-3.86,15.09-4l1.21-.19a24.78,24.78,0,0,0,2.9-.51c.81-.16,15.55-1.26,22.82,0a.71.71,0,0,0,.25-1.4C343.46,340.12,328.16,341.28,327.52,341.49Z" transform="translate(-217.76 -296.33)"/><path d="M308.3,318.44a.72.72,0,0,0-.11,1c.19.23,1.72,2.56,3.5,5.26,4.3,6.54,10.79,16.41,12.2,17.94,2,2.13,16.34,19.14,16.48,19.31a.71.71,0,0,0,1,.09.7.7,0,0,0,.08-1c-.59-.7-14.53-17.21-16.52-19.36-1.33-1.45-8.05-11.66-12.06-17.76-2.25-3.43-3.35-5.09-3.57-5.37A.72.72,0,0,0,308.3,318.44Z" transform="translate(-217.76 -296.33)"/><path d="M336.33,302.83a.7.7,0,0,0-.41.91c.06.18,6.68,17.88,8.32,22.65a94.92,94.92,0,0,1,2.81,10.74.71.71,0,0,0,.83.56.7.7,0,0,0,.56-.83,94.4,94.4,0,0,0-2.86-10.93c-1.65-4.79-8.27-22.51-8.34-22.68A.7.7,0,0,0,336.33,302.83Z" transform="translate(-217.76 -296.33)"/><path d="M349.33,346.13a.7.7,0,0,0-.62.79c.06.49,1.53,12.11,2.87,16l1.38,3.26c2.33,5.22,6.24,14,6.24,24,0,12.46-7.1,31.78-9.28,37.41-1.05,2.72-5.45,12.22-10.11,22.27-4.06,8.76-8.25,17.82-10.21,22.37l-4.09,9.65c-3.95,9.38-8.42,20-10.21,23.11-1.59,2.75-10.08,16.7-21.66,21.54a.7.7,0,0,0-.38.92.71.71,0,0,0,.93.39c12-5,20.71-19.32,22.34-22.14,1.83-3.17,6.32-13.85,10.29-23.27l4.08-9.63c2-4.54,6.14-13.59,10.2-22.34,4.66-10.08,9.07-19.6,10.14-22.36,2.82-7.28,9.38-25.56,9.38-37.92,0-10.35-4-19.26-6.37-24.59l-1.33-3.14c-1.3-3.72-2.79-15.57-2.8-15.69A.71.71,0,0,0,349.33,346.13Z" transform="translate(-217.76 -296.33)"/><path d="M341.16,484.43a73.11,73.11,0,0,0-4.72,8.09c-1.63,3.41-3.53,8.29-3.93,9.33a74.24,74.24,0,0,0-11.76,9,21.22,21.22,0,0,1-3,2.05l-.78.45.61.65s2.75,2.9,7.38,7a49.2,49.2,0,0,0,11.18,7.12.71.71,0,0,0,1-.64.7.7,0,0,0-.42-.65A49.17,49.17,0,0,1,325.88,520c-3.33-3-5.64-5.28-6.67-6.33a15.8,15.8,0,0,0,2.54-1.81A72.48,72.48,0,0,1,333.42,503l.23-.13.09-.24c0-.06,2.18-5.68,4-9.45a68.59,68.59,0,0,1,4.24-7.34,25.25,25.25,0,0,0,3,1.53c5.53,2.21,9.19,5.11,11,8.66l.44.88.69-.7a22.8,22.8,0,0,1,7.24-4.66.71.71,0,1,0-.48-1.34,23.16,23.16,0,0,0-7.13,4.42c-2.06-3.51-5.74-6.4-11.12-8.55a24.32,24.32,0,0,1-3.46-1.8l-.58-.37Z" transform="translate(-217.76 -296.33)"/><path d="M342.39,486.81a.7.7,0,0,0-.49.87c.05.18,4.83,17.53,5.65,21.46L351.39,527a.71.71,0,0,1,.54-.84.69.69,0,0,1,.84.54l-3.83-17.83c-.83-4-5.48-20.83-5.68-21.54A.71.71,0,0,0,342.39,486.81Z" transform="translate(-217.76 -296.33)"/><path d="M320.31,512.84a.71.71,0,1,0,.54,1.31c.11,0,11.55-4.58,28.16-2.95a76.2,76.2,0,0,1,14.27,4.94.71.71,0,0,0,.6-1.29,78.6,78.6,0,0,0-14.65-5.05C332.17,508.13,320.79,512.65,320.31,512.84Z" transform="translate(-217.76 -296.33)"/><path d="M363.12,500.29c-5.75,4.91-8.8,6.42-11,7.53a14.42,14.42,0,0,0-3.48,2.14c-2.91,2.57-9.08,16-9.34,16.57a.71.71,0,1,0,1.29.59c1.74-3.81,6.76-14.12,9-16.09a13,13,0,0,1,3.16-1.94c2.3-1.14,5.45-2.7,11.33-7.72a.71.71,0,0,0-.92-1.08Z" transform="translate(-217.76 -296.33)"/><path d="M289.26,371.88a28,28,0,0,0-1.71,6c-.52,3.28-1.67,7.19-2.19,7.84l-1,1.25,1.6-.1a15.25,15.25,0,0,1,4.08.3c1.9.57,7.81,1.66,11.82,0a14.63,14.63,0,0,0,2.66,5.92,36.6,36.6,0,0,0,5.6,5.14,24.51,24.51,0,0,1,3.55,3.17l.51.7.59-.64a27.2,27.2,0,0,1,2.89-2.73c1.16-.83,3.3-4.46,3.83-6.58a21.8,21.8,0,0,0,6,.37.71.71,0,0,0,.62-.78.72.72,0,0,0-.79-.63,22.47,22.47,0,0,1-6.26-.48l-.86-.2v.89c0,1.28-2.41,5.57-3.36,6.26a20.87,20.87,0,0,0-2.57,2.35,38.07,38.07,0,0,0-3.26-2.8,35.73,35.73,0,0,1-5.37-4.91,13.27,13.27,0,0,1-2.52-6.14L303,385l-.95.53c-3.6,2-10.07.74-11.61.28a12.62,12.62,0,0,0-3.39-.39,40.87,40.87,0,0,0,1.89-7.32,26.33,26.33,0,0,1,1.61-5.66.75.75,0,0,0,.06-.29.71.71,0,0,0-1.36-.28Z" transform="translate(-217.76 -296.33)"/><path d="M329.25,412.16s1.66.33,1.83.83-.83,1.67-.83,1.67a19.4,19.4,0,0,0,2.66.5c.67,0,4.17,1.5,9.17-2.67,0,0,1.5,5,4.33,7.84s4.84,4.33,4.84,5.17c0,0,5.83-15.34,7.33-24.17s1.33-15.67.33-20.34a73.44,73.44,0,0,0-3.33-10.33l-1.83-4.17s-1.34,3.67-2,4.84-5.34,7.83-5.5,10.83a33.16,33.16,0,0,0-9.67-2.17c-5.33-.33-12.67-1.16-15-2.33,0,0,2,4.34,2.67,6.5s2,10.83,8.5,15.83a13.19,13.19,0,0,0-2.67,5C329.58,407.49,329.25,412.16,329.25,412.16Z" transform="translate(-217.76 -296.33)"/><path d="M343.46,357.48a.8.8,0,0,0-.1.38.63.63,0,0,0,.33.56l.84.47a15.73,15.73,0,0,1,3.05,1.94l1.28,1.28c-.4.7-1.23,2.19-2.41,4.57a7.31,7.31,0,0,1-4.67,3.62l-1.12.22.69.9c2.1,2.77,2.41,7.13,2.41,9.44,0,.95-.05,1.55-.05,1.57s0,0,0,.07a.71.71,0,0,0,1.42.06c0-.09.06-.75.06-1.76,0-2.3-.37-6.33-2.23-9.38a8.36,8.36,0,0,0,4.76-4.11c1.64-3.26,2.63-4.93,2.64-4.95l.29-.48-2.06-2.05a16.21,16.21,0,0,0-3.38-2.19l-.73-.4A.76.76,0,0,0,343.46,357.48Z" transform="translate(-217.76 -296.33)"/><path d="M314.54,369.43c0,.07-.67,7.42-.67,11.73l-.17,16.66a.72.72,0,0,1,.72-.7.71.71,0,0,1,.7.72l.17-16.68c0-4.25.66-11.53.66-11.6a.71.71,0,1,0-1.41-.13Z" transform="translate(-217.76 -296.33)"/><path d="M311.41,365.14c-9,2.18-14.57,8.92-17.57,12.54l-1.28,1.5a78.07,78.07,0,0,1-6.1,5.6.71.71,0,0,0-.09,1,.7.7,0,0,0,1,.09,80.2,80.2,0,0,0,6.24-5.72l1.33-1.57c2.9-3.49,8.28-10,16.82-12.06a.71.71,0,0,0-.34-1.38Z" transform="translate(-217.76 -296.33)"/><path d="M317.71,369.06a.71.71,0,0,0,.6.8,28.48,28.48,0,0,1,17.36,11.21.71.71,0,1,0,1.15-.82,29.37,29.37,0,0,0-18.31-11.79A.72.72,0,0,0,317.71,369.06Z" transform="translate(-217.76 -296.33)"/><path d="M349.17,361.29c-.18,0-4.39.51-6.06.84a.71.71,0,1,0,.28,1.39c1.61-.32,5.9-.82,5.94-.82a.71.71,0,0,0-.16-1.41Z" transform="translate(-217.76 -296.33)"/><path d="M328.23,415.48a.7.7,0,0,0-.53.68.68.68,0,0,0,0,.19,16,16,0,0,0,4.34,6.88,10.4,10.4,0,0,0-4.34,5.58l-1.42,5.95c-.54,2.42-1.05,4.7-1.4,5.66l-.3.84.89.1s4.15.51,5.77.83a13.2,13.2,0,0,0,7.45-.59c.33,1.43,1.15,4.41,2.48,6a.7.7,0,0,0,1,.1.71.71,0,0,0,.09-1c-1.53-1.84-2.34-6.13-2.35-6.18l-.15-.85L339,440a12,12,0,0,1-7.43.8c-1.23-.25-3.73-.57-5-.74.33-1.18.73-3,1.19-5l1.4-5.89c.9-3.31,4.44-5.21,4.48-5.22l1-.52-.87-.67A14.42,14.42,0,0,1,329.1,416,.71.71,0,0,0,328.23,415.48Z" transform="translate(-217.76 -296.33)"/><path d="M343.56,415.84c0,.05-1.22,5.16-6.57,13.26S325.84,440,325.78,440a.71.71,0,1,0,.6,1.28c.25-.12,6.25-3,11.79-11.41s6.72-13.52,6.77-13.74a.72.72,0,0,0-.54-.85A.71.71,0,0,0,343.56,415.84Z" transform="translate(-217.76 -296.33)"/><path d="M344.67,418.2a.7.7,0,0,1-.79-.62l2.33,18.84a.7.7,0,0,0,.79.61.72.72,0,0,0,.62-.79l-2.34-18.83A.7.7,0,0,1,344.67,418.2Z" transform="translate(-217.76 -296.33)"/><path d="M342.4,303.29a.7.7,0,0,0,.48.88,53.41,53.41,0,0,1,20.69,13.48.71.71,0,1,0,1-1,53.37,53.37,0,0,0-21.31-13.85A.7.7,0,0,0,342.4,303.29Z" transform="translate(-217.76 -296.33)"/><path d="M337.89,308.5a.71.71,0,0,0,.53.85c.15,0,15.56,3.76,25.12,14.94a.71.71,0,0,0,1.08-.92c-9.87-11.55-25.23-15.25-25.88-15.4A.71.71,0,0,0,337.89,308.5Z" transform="translate(-217.76 -296.33)"/><path d="M340.72,315.68a.71.71,0,0,0,.55.84,50.16,50.16,0,0,1,22.31,13.14.71.71,0,0,0,1-1c-10.86-10.86-22.53-13.42-23-13.53A.71.71,0,0,0,340.72,315.68Z" transform="translate(-217.76 -296.33)"/><path d="M343.24,322.45a.7.7,0,0,0,.46.89c.12,0,11.93,3.88,20,12.15a.71.71,0,0,0,1,0,.7.7,0,0,0,0-1c-8.36-8.53-20.12-12.35-20.62-12.51A.7.7,0,0,0,343.24,322.45Z" transform="translate(-217.76 -296.33)"/><path d="M345.45,328.51a.7.7,0,0,0,.31.95c.1.05,10.5,5.37,17.84,12.06a.71.71,0,0,0,1,0,.7.7,0,0,0,0-1c-7.49-6.82-18.05-12.22-18.16-12.27A.7.7,0,0,0,345.45,328.51Z" transform="translate(-217.76 -296.33)"/><path d="M347.25,335.42a.7.7,0,0,0,.42.91c.11,0,10.54,3.85,15.68,10.43a.71.71,0,1,0,1.12-.87c-5.4-6.91-15.87-10.74-16.32-10.9A.7.7,0,0,0,347.25,335.42Z" transform="translate(-217.76 -296.33)"/><path d="M351.44,342.85a.72.72,0,0,0,.33.95c.09,0,9.34,4.62,11.7,8.56a.71.71,0,0,0,1,.24.7.7,0,0,0,.25-1c-2.58-4.3-11.9-8.91-12.3-9.1A.71.71,0,0,0,351.44,342.85Z" transform="translate(-217.76 -296.33)"/><path d="M349.27,349.19a.71.71,0,0,0,.34.94c.1.05,10,4.82,13.7,10.9a.71.71,0,1,0,1.21-.74c-3.9-6.44-13.88-11.23-14.3-11.44A.73.73,0,0,0,349.27,349.19Z" transform="translate(-217.76 -296.33)"/><path d="M350.29,355.49a.71.71,0,0,0,.28,1,63,63,0,0,1,13,9.71.71.71,0,0,0,1-1,62.87,62.87,0,0,0-13.34-10A.71.71,0,0,0,350.29,355.49Z" transform="translate(-217.76 -296.33)"/><path d="M351.61,361.35a.71.71,0,0,0,.33.95c.07,0,7.71,3.82,11.4,8.94a.71.71,0,0,0,1,.16.71.71,0,0,0,.16-1c-3.89-5.41-11.61-9.23-11.93-9.39A.72.72,0,0,0,351.61,361.35Z" transform="translate(-217.76 -296.33)"/><path d="M355.11,369.86a.7.7,0,0,0,.33.94c.06,0,5.84,2.79,7.87,6.07a.71.71,0,1,0,1.21-.75c-2.26-3.63-8.22-6.48-8.47-6.6A.7.7,0,0,0,355.11,369.86Z" transform="translate(-217.76 -296.33)"/><path d="M357.26,377.38a.71.71,0,0,0,.37.93,16.19,16.19,0,0,1,5.55,4.11.7.7,0,0,0,1,.14.7.7,0,0,0,.14-1A17.2,17.2,0,0,0,358.2,377,.72.72,0,0,0,357.26,377.38Z" transform="translate(-217.76 -296.33)"/><path d="M358.91,383.16a.71.71,0,0,0,0,1s2.83,2.84,4.46,4.79a.71.71,0,1,0,1.09-.91c-1.67-2-4.43-4.76-4.55-4.88A.7.7,0,0,0,358.91,383.16Z" transform="translate(-217.76 -296.33)"/><path d="M359.36,390.39a.7.7,0,0,0,.11,1,30.4,30.4,0,0,1,3.85,3.51.72.72,0,0,0,1,.19.7.7,0,0,0,.19-1,32,32,0,0,0-4.14-3.83A.71.71,0,0,0,359.36,390.39Z" transform="translate(-217.76 -296.33)"/><path d="M358.78,395.68a.71.71,0,0,0,.32.95s3.17,1.6,4.22,3.25a.7.7,0,0,0,1,.21.71.71,0,0,0,.22-1c-1.26-2-4.64-3.68-4.78-3.75A.71.71,0,0,0,358.78,395.68Z" transform="translate(-217.76 -296.33)"/><path d="M358,400.92a.7.7,0,0,0,.18,1c1.17.81,4.39,3.17,5.14,4.31a.72.72,0,0,0,1,.2.71.71,0,0,0,.19-1c-1-1.57-5.06-4.38-5.52-4.69A.69.69,0,0,0,358,400.92Z" transform="translate(-217.76 -296.33)"/><path d="M356.45,406.68a.7.7,0,0,0,.31.95,17.84,17.84,0,0,1,6.38,5.73.71.71,0,0,0,1,.24.7.7,0,0,0,.23-1,18.93,18.93,0,0,0-7-6.27A.71.71,0,0,0,356.45,406.68Z" transform="translate(-217.76 -296.33)"/><path d="M355,411.55a.7.7,0,0,0,.11,1c.06.05,6.72,5.43,8.29,8.91a.71.71,0,0,0,1.3-.59c-1.72-3.78-8.42-9.2-8.71-9.43A.71.71,0,0,0,355,411.55Z" transform="translate(-217.76 -296.33)"/><path d="M353.19,418.23a.7.7,0,0,0,.12,1c.09.07,8.73,6.77,10.3,9.92a.71.71,0,0,0,1.27-.63c-1.72-3.44-10.33-10.13-10.7-10.41A.7.7,0,0,0,353.19,418.23Z" transform="translate(-217.76 -296.33)"/><path d="M350.77,426c.09.08,8.63,7.85,12.85,16l1.26-.66c-4.35-8.35-12.8-16-13.16-16.36Z" transform="translate(-217.76 -296.33)"/><path d="M348.45,432.86c.09.08,9.63,8.54,14.84,18.46l1.25-.65c-5.33-10.17-15.06-18.79-15.16-18.87Z" transform="translate(-217.76 -296.33)"/><path d="M345.73,438.31c.1.11,10.13,10.87,14.53,21.62l1.31-.54c-4.5-11-14.7-21.94-14.81-22.05Z" transform="translate(-217.76 -296.33)"/><path d="M341.66,448.23c.11.08,11,8.17,13.56,20.74l1.39-.28c-2.69-13.12-13.65-21.26-14.11-21.6Z" transform="translate(-217.76 -296.33)"/><path d="M338.91,453.79c.11,0,10.79,5.9,15,21.23l1.36-.38c-4.36-15.94-15.22-21.86-15.68-22.1Z" transform="translate(-217.76 -296.33)"/><path d="M335.94,460c.12.07,12.38,6.3,15.61,27l1.4-.22c-3.35-21.45-15.86-27.77-16.39-28Z" transform="translate(-217.76 -296.33)"/><path d="M333.17,465.9A43.17,43.17,0,0,1,347.56,488l1.37-.37A43.72,43.72,0,0,0,334,464.75Z" transform="translate(-217.76 -296.33)"/><path d="M330.79,470.87c.08.07,8.36,7.11,10.27,14.14l1.37-.37c-2-7.46-10.37-14.56-10.73-14.85Z" transform="translate(-217.76 -296.33)"/><path d="M328.62,476.53a38.1,38.1,0,0,1,9.3,13.55l1.32-.5a38.57,38.57,0,0,0-9.7-14.12Z" transform="translate(-217.76 -296.33)"/><path d="M326.11,482.36c.07.06,6.38,5.64,8.62,13.33l1.36-.39c-2.36-8.11-8.77-13.77-9-14Z" transform="translate(-217.76 -296.33)"/><path d="M323.57,488.32c.08.08,7.26,7.47,9.51,13.59l1.33-.49c-2.36-6.41-9.52-13.78-9.82-14.09Z" transform="translate(-217.76 -296.33)"/><path d="M320.94,493.52c.06.06,6,5.43,7.28,11.29l1.39-.3c-1.37-6.32-7.47-11.81-7.73-12Z" transform="translate(-217.76 -296.33)"/><path d="M318.51,499.91a20,20,0,0,1,5.92,7.54l1.3-.58a21,21,0,0,0-6.41-8.12Z" transform="translate(-217.76 -296.33)"/><path d="M316.09,504.67s3.78,3.63,5,5.84l1.23-.7a38.09,38.09,0,0,0-5.29-6.16Z" transform="translate(-217.76 -296.33)"/><path d="M312.76,509.84a74.63,74.63,0,0,1,12.69,17.32l1.26-.66a76,76,0,0,0-13-17.68Z" transform="translate(-217.76 -296.33)"/><path d="M310.5,513.9c.07.06,7.69,5.64,10.41,13.17l1.34-.48c-2.88-8-10.59-13.6-10.92-13.84Z" transform="translate(-217.76 -296.33)"/><path d="M308.06,516.47c.05.06,5.27,5.81,7.36,11l1.32-.54c-2.19-5.39-7.42-11.13-7.64-11.37Z" transform="translate(-217.76 -296.33)"/><path d="M305.36,519.11a40,40,0,0,1,5.06,8l1.32-.54a41.25,41.25,0,0,0-5.28-8.35Z" transform="translate(-217.76 -296.33)"/><path d="M356.58,495.66a11.52,11.52,0,0,0-6.83-6.66c0-7,6.33-18.17,8.5-22s5.66-10.34,5.66-10.34v35a8.26,8.26,0,0,0-6.33,3.17Z" transform="translate(-217.76 -296.33)"/><path d="M232.08,374.49l.16-.12a11.06,11.06,0,0,0-3.42,2.9,5.49,5.49,0,0,0-.54,4.49,1.37,1.37,0,0,0,1,.93c1.19.24,3-.78,4-2.9.69-1.52,1-4.78,0-5.44A.9.9,0,0,0,232.08,374.49Zm-2.64,5.74a4.17,4.17,0,0,1,.56-2.18,8.42,8.42,0,0,1,2.41-2.12c0,.16,0,.32,0,.52a7.38,7.38,0,0,1-.5,2.75,3.32,3.32,0,0,1-2.29,2.11A2,2,0,0,1,229.44,380.23Z" transform="translate(-217.76 -296.33)"/><path d="M229.29,381.29l-.12,0a5.88,5.88,0,0,0-3.07,2.87,6.43,6.43,0,0,0-.23,4.55,1.77,1.77,0,0,0,.95,1.07c1.29.52,3.27-1.07,4.4-3.53a4.19,4.19,0,0,0,0-4,2.18,2.18,0,0,0-1.84-1ZM227,386.85a5,5,0,0,1,.42-2.06,4.3,4.3,0,0,1,2.11-2.06.81.81,0,0,1,.55.37,1.87,1.87,0,0,1,.26,1,3.76,3.76,0,0,1-.37,1.56c-.92,2-2.25,2.84-2.58,2.8A2.58,2.58,0,0,1,227,386.85Z" transform="translate(-217.76 -296.33)"/><path d="M235.07,375.31a.72.72,0,0,0,.49.87c.13,0,.75.28.65,1.42s-.31,3.39-1.71,3.9a1.62,1.62,0,0,1-1.4,0,.87.87,0,0,1-.31-.71.71.71,0,1,0-1.42,0,2.24,2.24,0,0,0,.92,1.87,2.82,2.82,0,0,0,2.7.13c2.24-.82,2.51-3.8,2.63-5.08a2.57,2.57,0,0,0-1.7-2.94A.7.7,0,0,0,235.07,375.31Z" transform="translate(-217.76 -296.33)"/><path d="M232.49,382.09a.72.72,0,0,0-.14,1s1.23,1.69.59,3.11c-1,2.2-1.79,3-2.79,2.92a.71.71,0,0,1-.7-.68.72.72,0,0,0-.76-.65.71.71,0,0,0-.65.75,2.14,2.14,0,0,0,2,2c2.4.24,3.58-2.35,4.22-3.74,1-2.19-.68-4.46-.75-4.55A.71.71,0,0,0,232.49,382.09Z" transform="translate(-217.76 -296.33)"/><path d="M226.94,388.47c-2.45.49-3,3.2-2.9,4.56.09,2.08.46,4.61,1.76,4.83,1.82.3,2.81-1.89,3.62-4.31,1.14-3.43-.45-4.54-.63-4.66l-.1-.06-1.59-.39ZM225.45,393v-.12c0-.53.13-2.53,1.68-2.94l.94.24a1.78,1.78,0,0,1,.34,1.2,5.6,5.6,0,0,1-.34,1.76c-.73,2.21-1.39,3.33-1.95,3.36A9.08,9.08,0,0,1,225.45,393Z" transform="translate(-217.76 -296.33)"/><path d="M223.87,397l-.16,6a4.57,4.57,0,0,0,1.21,3.05,1.35,1.35,0,0,0,1.13.32c1.66-.34,2.41-1.78,2.41-4.7,0-3.59-1.32-4.63-1.47-4.74l-.11-.08-3-.75Zm1.25,6s.11-3.82.14-5.09l1,.23c.17.18.83,1,.83,3.53,0,2.91-.77,3.2-1.2,3.29A3.14,3.14,0,0,1,225.12,403Z" transform="translate(-217.76 -296.33)"/><path d="M225.22,404.88c-.83.27-1.2,1.45-1.33,1.94l0,.09V411c0,.47,0,2.82,1,3.61a1.18,1.18,0,0,0,1,.26c1.3-.26,2.22-2.17,2.4-5a5.92,5.92,0,0,0-1.93-4.76h0A1.18,1.18,0,0,0,225.22,404.88Zm.24,1.33Zm.15.15a4.33,4.33,0,0,1,1.27,3.13c0,.09,0,.19,0,.29-.15,2.41-.82,3.39-1.15,3.6a5.46,5.46,0,0,1-.43-2.39v-3.88A2.81,2.81,0,0,1,225.61,406.36Z" transform="translate(-217.76 -296.33)"/><path d="M224.21,415.66a.7.7,0,0,0,.7.71,2.43,2.43,0,0,1,2,1.28c.68,1.37.9,3.85-.48,5-.6.47-.87.44-.92.43a.26.26,0,0,1-.15-.15.71.71,0,0,0-.92-.37.7.7,0,0,0-.4.89,1.7,1.7,0,0,0,1.09,1,2.48,2.48,0,0,0,2.19-.69c2.07-1.66,1.75-4.91.85-6.7a3.85,3.85,0,0,0-3.3-2.06A.7.7,0,0,0,224.21,415.66Z" transform="translate(-217.76 -296.33)"/><path d="M232.71,506.93a.71.71,0,0,0,.63.77l6.84.67a.71.71,0,0,0,.77-.64.69.69,0,0,0-.63-.77l-6.84-.67A.71.71,0,0,0,232.71,506.93Z" transform="translate(-217.76 -296.33)"/><path d="M236.24,506.93l-2,5.84a.71.71,0,1,0,1.34.45l2-5.83a.71.71,0,1,0-1.34-.46Z" transform="translate(-217.76 -296.33)"/><path d="M256.36,504.32A18.67,18.67,0,0,1,250,505a.71.71,0,1,0-.13,1.41,19.83,19.83,0,0,0,7-.7.71.71,0,0,0-.44-1.35Z" transform="translate(-217.76 -296.33)"/><path d="M252.38,505.72a52,52,0,0,0-.67,7.67.69.69,0,0,0,.76.64.71.71,0,0,0,.65-.76,52.4,52.4,0,0,1,.66-7.34.71.71,0,0,0-1.4-.21Z" transform="translate(-217.76 -296.33)"/><path d="M300,500a.71.71,0,0,0,.67.74l5.83.34a.71.71,0,1,0,.08-1.42l-5.83-.33A.71.71,0,0,0,300,500Z" transform="translate(-217.76 -296.33)"/><path d="M303.05,500.19c-.1.54-1,5.27-1,6.31a.71.71,0,0,0,1.42,0c0-.69.59-4,1-6a.7.7,0,0,0-.56-.83A.72.72,0,0,0,303.05,500.19Z" transform="translate(-217.76 -296.33)"/><path d="M298.73,493.64c-1.4.39-5.35.12-6.75,0a.71.71,0,1,0-.13,1.41c.54.06,5.35.5,7.25,0a.71.71,0,0,0,.5-.87A.72.72,0,0,0,298.73,493.64Z" transform="translate(-217.76 -296.33)"/><path d="M294.24,494.44a44.15,44.15,0,0,0-1.7,6.06.7.7,0,0,0,.7.7.73.73,0,0,0,.72-.7,46.73,46.73,0,0,1,1.63-5.62.71.71,0,0,0-.45-.89A.72.72,0,0,0,294.24,494.44Z" transform="translate(-217.76 -296.33)"/><path d="M245.09,404.52a.57.57,0,0,0-.07.8,14.11,14.11,0,0,0,4.33,3.4.56.56,0,0,0,.75-.29.55.55,0,0,0-.29-.74,13.18,13.18,0,0,1-3.92-3.1A.57.57,0,0,0,245.09,404.52Z" transform="translate(-217.76 -296.33)"/><path d="M244.66,406.57a.57.57,0,0,0,0,.8,19.46,19.46,0,0,0,3.89,2.72.57.57,0,1,0,.5-1,18.05,18.05,0,0,1-3.61-2.53A.57.57,0,0,0,244.66,406.57Z" transform="translate(-217.76 -296.33)"/><path d="M245.07,409.7a.57.57,0,0,0,.26.76,21.11,21.11,0,0,0,3.5,1.42.56.56,0,0,0,.68-.43.58.58,0,0,0-.43-.68,21.72,21.72,0,0,1-3.25-1.32A.56.56,0,0,0,245.07,409.7Z" transform="translate(-217.76 -296.33)"/><path d="M245.79,412.77a.57.57,0,0,0,.36.72,15.83,15.83,0,0,0,3.56.78.57.57,0,0,0,0-1.13,14.36,14.36,0,0,1-3.2-.72A.57.57,0,0,0,245.79,412.77Z" transform="translate(-217.76 -296.33)"/><path d="M246.21,415.12c-.08.3.65.83.35.76l3.41.88a.54.54,0,0,0,.66-.41.6.6,0,0,0-.44-.7l-3.34-.87C247.16,414.86,246.28,414.82,246.21,415.12Z" transform="translate(-217.76 -296.33)"/><path d="M247.19,417.73a.55.55,0,0,0,.29.74,11.09,11.09,0,0,0,2.85.93.57.57,0,0,0,0-1.14,11.35,11.35,0,0,1-2.4-.83A.57.57,0,0,0,247.19,417.73Z" transform="translate(-217.76 -296.33)"/><path d="M247.68,420.38a.56.56,0,0,0,.32.73l2.63,1a.57.57,0,1,0,.4-1.06l-2.62-1A.56.56,0,0,0,247.68,420.38Z" transform="translate(-217.76 -296.33)"/><path d="M248.91,423.43a.58.58,0,0,0,.4.7l1.87.5a.57.57,0,0,0,.3-1.1l-1.88-.5A.57.57,0,0,0,248.91,423.43Z" transform="translate(-217.76 -296.33)"/><path d="M250.17,426.39a.56.56,0,0,0,.35.72l2.87,1a.57.57,0,0,0,.73-.35.58.58,0,0,0-.35-.72l-2.88-1A.57.57,0,0,0,250.17,426.39Z" transform="translate(-217.76 -296.33)"/><path d="M250.81,408.11a.57.57,0,0,0,.3.74,25.2,25.2,0,0,0,6.93,1.79.57.57,0,0,0,.61-.52.58.58,0,0,0-.53-.61,25.08,25.08,0,0,1-6.57-1.7A.56.56,0,0,0,250.81,408.11Z" transform="translate(-217.76 -296.33)"/><path d="M251.8,410.25a.56.56,0,0,0,.33.73,23,23,0,0,0,5.8,1.41.56.56,0,0,0,.59-.53.57.57,0,0,0-.54-.6,22.43,22.43,0,0,1-5.45-1.34A.57.57,0,0,0,251.8,410.25Z" transform="translate(-217.76 -296.33)"/><path d="M252.91,413.07a.55.55,0,0,0,.41.68,26.94,26.94,0,0,0,5.51.77.57.57,0,1,0,0-1.13,26,26,0,0,1-5.24-.74A.56.56,0,0,0,252.91,413.07Z" transform="translate(-217.76 -296.33)"/><path d="M253.52,415.34a.58.58,0,0,0,.44.67,24.49,24.49,0,0,0,5.16.51.57.57,0,1,0-.08-1.13,23.72,23.72,0,0,1-4.84-.49A.57.57,0,0,0,253.52,415.34Z" transform="translate(-217.76 -296.33)"/><path d="M254.9,417.58a.57.57,0,0,0,.43.68,22.79,22.79,0,0,0,3.5.51.57.57,0,1,0,0-1.13,22.22,22.22,0,0,1-3.25-.49A.56.56,0,0,0,254.9,417.58Z" transform="translate(-217.76 -296.33)"/><path d="M255.66,419.62c0,.31,1,.8.74.77l2.93.26a.53.53,0,0,0,.56-.52.61.61,0,0,0-.56-.62l-2.82-.25C256.83,419.29,255.69,419.31,255.66,419.62Z" transform="translate(-217.76 -296.33)"/><path d="M256.78,421.69a.57.57,0,0,0,.41.69,11.38,11.38,0,0,0,3.1.38.57.57,0,1,0-.16-1.12,10.24,10.24,0,0,1-2.66-.36A.57.57,0,0,0,256.78,421.69Z" transform="translate(-217.76 -296.33)"/><path d="M257.14,423.88a.57.57,0,0,0,.49.64,13.61,13.61,0,0,0,2.81.11.57.57,0,0,0,.45-.66.58.58,0,0,0-.67-.45,12.46,12.46,0,0,1-2.44-.13A.57.57,0,0,0,257.14,423.88Z" transform="translate(-217.76 -296.33)"/><path d="M259.08,425.51a.57.57,0,0,0-.57.57.58.58,0,0,0,.57.57h1.63a.57.57,0,0,0,.56-.57.56.56,0,0,0-.56-.57Z" transform="translate(-217.76 -296.33)"/><path d="M266.6,409.77a44.41,44.41,0,0,1-6.74.12.57.57,0,0,0-.6.53.58.58,0,0,0,.54.6,44.33,44.33,0,0,0,7-.13.57.57,0,0,0-.21-1.12Z" transform="translate(-217.76 -296.33)"/><path d="M265.67,411.66a25.38,25.38,0,0,1-5.18.1.57.57,0,0,0-.6.53.56.56,0,0,0,.53.6,25.72,25.72,0,0,0,5.57-.14.57.57,0,0,0,.38-.71A.56.56,0,0,0,265.67,411.66Z" transform="translate(-217.76 -296.33)"/><path d="M260.52,413.87a.55.55,0,0,0,.47.64,19.55,19.55,0,0,0,4.7.25.57.57,0,0,0,.45-.67.58.58,0,0,0-.67-.44,18.57,18.57,0,0,1-4.3-.26A.58.58,0,0,0,260.52,413.87Z" transform="translate(-217.76 -296.33)"/><path d="M266,415.64c-.95.12-3.9.12-3.93.12a.57.57,0,0,0,0,1.14c.12,0,3.05,0,4.07-.13a.57.57,0,0,0,.49-.64A.56.56,0,0,0,266,415.64Z" transform="translate(-217.76 -296.33)"/><path d="M262.45,418.22a.56.56,0,0,0,.25.74,10.64,10.64,0,0,0,3.87.17.57.57,0,0,0-.23-1.11,11.08,11.08,0,0,1-3.13-.08A.59.59,0,0,0,262.45,418.22Z" transform="translate(-217.76 -296.33)"/><path d="M266.76,419.89l-3,.25c.32,0-.32.08-.29.4s.68.7.37.73l3-.25a.56.56,0,0,0,.5-.61A.59.59,0,0,0,266.76,419.89Z" transform="translate(-217.76 -296.33)"/><path d="M267.19,422c-.32.08-1.64.18-2.4.23a.57.57,0,1,0,.08,1.13,26.06,26.06,0,0,0,2.6-.26.57.57,0,0,0-.28-1.1Z" transform="translate(-217.76 -296.33)"/><path d="M267.92,424.14l-2,.12a.57.57,0,0,0-.53.6.56.56,0,0,0,.6.53l2-.12a.57.57,0,1,0-.07-1.13Z" transform="translate(-217.76 -296.33)"/><path d="M266.36,426.57a.54.54,0,0,0,.16.73,6.87,6.87,0,0,0,2.69.35.57.57,0,0,0,.56-.57.56.56,0,0,0-.56-.57,9.41,9.41,0,0,1-2.09-.17A.6.6,0,0,0,266.36,426.57Z" transform="translate(-217.76 -296.33)"/><path d="M270.31,428.64l-2.88.12a.57.57,0,0,0-.54.59.56.56,0,0,0,.59.54l2.87-.12a.57.57,0,1,0,0-1.13Z" transform="translate(-217.76 -296.33)"/><path d="M276.42,406.21a36.94,36.94,0,0,1-6.73,2.44.57.57,0,1,0,.28,1.1,36.57,36.57,0,0,0,7-2.56.56.56,0,0,0,.2-.77A.57.57,0,0,0,276.42,406.21Z" transform="translate(-217.76 -296.33)"/><path d="M274.67,408.78l-4.33,1a.57.57,0,1,1,.23,1.11l4.42-1a.54.54,0,0,0,.39-.67A.6.6,0,0,0,274.67,408.78Z" transform="translate(-217.76 -296.33)"/><path d="M274.82,410.53a16.77,16.77,0,0,1-3.46.38.59.59,0,0,0-.68.41.54.54,0,0,0,.35.67,14.56,14.56,0,0,0,4.06-.36.56.56,0,0,0,.41-.69A.56.56,0,0,0,274.82,410.53Z" transform="translate(-217.76 -296.33)"/><path d="M273,413.38a6.18,6.18,0,0,1-1.44.38.57.57,0,0,0,0,1.14,6.57,6.57,0,0,0,1.81-.45,8.19,8.19,0,0,1,2.32-.55.57.57,0,0,0,0-1.14A9,9,0,0,0,273,413.38Z" transform="translate(-217.76 -296.33)"/><path d="M272.38,415.3a.57.57,0,0,0,.4,1.06,9.2,9.2,0,0,1,3.12-.59.57.57,0,0,0,.11-1.13A9.91,9.91,0,0,0,272.38,415.3Z" transform="translate(-217.76 -296.33)"/><path d="M276.74,417.05a31.4,31.4,0,0,1-3.72.59.57.57,0,1,0,.13,1.13,31.19,31.19,0,0,0,4-.67.55.55,0,0,0,.31-.73A.57.57,0,0,0,276.74,417.05Z" transform="translate(-217.76 -296.33)"/><path d="M277.2,419.44a22.18,22.18,0,0,1-3.29.45.56.56,0,0,0-.52.61.58.58,0,0,0,.61.52,18.9,18.9,0,0,0,3.71-.56.56.56,0,0,0,.25-.74A.59.59,0,0,0,277.2,419.44Z" transform="translate(-217.76 -296.33)"/><path d="M277.15,420.67l-2.67.6c.3-.07-.47.38-.4.68s.91.37.6.44l2.83-.65a.52.52,0,0,0,.37-.66A.6.6,0,0,0,277.15,420.67Z" transform="translate(-217.76 -296.33)"/><path d="M278.1,422.15l-2.63.5a.57.57,0,1,0,.22,1.11l2.62-.5a.56.56,0,0,0-.21-1.11Z" transform="translate(-217.76 -296.33)"/><path d="M275.27,424.67a.59.59,0,0,0,.56.6l.49,0c1.56.12,2.32.13,2.7-.13a.52.52,0,0,0,.15-.7.59.59,0,0,0-.73-.26,11,11,0,0,1-2,0l-.57,0A.53.53,0,0,0,275.27,424.67Z" transform="translate(-217.76 -296.33)"/><path d="M279.43,425.76l-2.5.13a.56.56,0,0,0-.54.59.56.56,0,0,0,.59.54l2.5-.13a.56.56,0,0,0,.54-.59A.57.57,0,0,0,279.43,425.76Z" transform="translate(-217.76 -296.33)"/><path d="M280.4,427.89l-2.5.25a.57.57,0,1,0,.11,1.13l2.5-.25a.57.57,0,0,0,.51-.62A.56.56,0,0,0,280.4,427.89Z" transform="translate(-217.76 -296.33)"/><path d="M285.45,402.28a46.94,46.94,0,0,0-6.12,2.54.57.57,0,0,0,.5,1,48.75,48.75,0,0,1,5.88-2.46.57.57,0,0,0-.26-1.1Z" transform="translate(-217.76 -296.33)"/><path d="M286.14,404.89l-5.65.88c.31,0-.27.25-.22.56s.71.51.4.56l5.6-.87a.6.6,0,0,0,.5-.65A.55.55,0,0,0,286.14,404.89Z" transform="translate(-217.76 -296.33)"/><path d="M285.77,407l-1.94.37a14.58,14.58,0,0,1-2.39.39.57.57,0,0,0-.66.46.56.56,0,0,0,.44.65,9.59,9.59,0,0,0,2.85-.4l1.82-.34a.61.61,0,0,0,.5-.67A.54.54,0,0,0,285.77,407Z" transform="translate(-217.76 -296.33)"/><path d="M285.38,408.64c-1,.13-3.82.86-3.94.89a.56.56,0,0,0-.41.69.57.57,0,0,0,.69.41s2.85-.75,3.81-.86a.57.57,0,1,0-.15-1.13Z" transform="translate(-217.76 -296.33)"/><path d="M285.42,410.53a28.16,28.16,0,0,1-3.52.48.57.57,0,0,0-.51.62.56.56,0,0,0,.62.51,33.88,33.88,0,0,0,3.73-.52.57.57,0,0,0,.39-.7A.58.58,0,0,0,285.42,410.53Z" transform="translate(-217.76 -296.33)"/><path d="M282.29,412.76a.57.57,0,1,0,.08,1.13c1.75-.11,3.76-.2,4.08-.14a.57.57,0,0,0,.67-.43.55.55,0,0,0-.4-.67A35.14,35.14,0,0,0,282.29,412.76Z" transform="translate(-217.76 -296.33)"/><path d="M282.42,415.28a.56.56,0,0,0,.36.71,15,15,0,0,0,3.18.16.57.57,0,0,0,0-1.14,26,26,0,0,1-2.83-.09A.58.58,0,0,0,282.42,415.28Z" transform="translate(-217.76 -296.33)"/><path d="M282.39,417.68a.57.57,0,0,0,.54.59,29.72,29.72,0,0,0,3.91,0,.56.56,0,0,0,.41-.68.58.58,0,0,0-.68-.42,34.51,34.51,0,0,1-3.59,0A.56.56,0,0,0,282.39,417.68Z" transform="translate(-217.76 -296.33)"/><path d="M286.74,419.52a25.2,25.2,0,0,1-3.13,0,.58.58,0,0,0-.6.54.57.57,0,0,0,.54.59,24.93,24.93,0,0,0,3.37,0,.58.58,0,0,0,.47-.66A.57.57,0,0,0,286.74,419.52Z" transform="translate(-217.76 -296.33)"/><path d="M283.89,422.05a.56.56,0,0,0,.54.59l2.5.13a.56.56,0,0,0,.59-.54.56.56,0,0,0-.54-.59l-2.5-.13A.57.57,0,0,0,283.89,422.05Z" transform="translate(-217.76 -296.33)"/><path d="M284,424.15a.56.56,0,0,0,.5.62l2.5.25a.56.56,0,0,0,.62-.51.56.56,0,0,0-.5-.62l-2.5-.25A.56.56,0,0,0,284,424.15Z" transform="translate(-217.76 -296.33)"/><path d="M290.4,401.51a.57.57,0,0,0-.51.62.56.56,0,0,0,.62.51c1.53-.13,5.81-.4,7.16,0a.56.56,0,0,0,.71-.39.57.57,0,0,0-.39-.7C296.16,401,290.64,401.49,290.4,401.51Z" transform="translate(-217.76 -296.33)"/><path d="M290.62,403.87c0,.31,1,.67.69.65l4.83.25a.61.61,0,0,0,.63-.54.54.54,0,0,0-.5-.59l-4.92-.25C291.66,403.4,290.64,403.56,290.62,403.87Z" transform="translate(-217.76 -296.33)"/><path d="M291.46,405.7c0,.31.59.61.28.56l4.89.76a.57.57,0,0,0,.64-.48.59.59,0,0,0-.49-.65l-4.86-.75C292.23,405.19,291.5,405.39,291.46,405.7Z" transform="translate(-217.76 -296.33)"/><path d="M291.64,407.83a.57.57,0,0,0,.57.57,20.83,20.83,0,0,1,3.92.58.56.56,0,0,0,.73-.33.57.57,0,0,0-.33-.73,21.24,21.24,0,0,0-4.32-.66A.57.57,0,0,0,291.64,407.83Z" transform="translate(-217.76 -296.33)"/><path d="M291.64,409.66a.56.56,0,0,0,.52.61,27.36,27.36,0,0,1,4.35.59.57.57,0,0,0,.73-.33.56.56,0,0,0-.34-.73,25.9,25.9,0,0,0-4.65-.66A.56.56,0,0,0,291.64,409.66Z" transform="translate(-217.76 -296.33)"/><path d="M292.64,411.76a.56.56,0,0,0,.49.63,11.39,11.39,0,0,1,2.57.57.57.57,0,1,0,.51-1,12,12,0,0,0-2.93-.68A.57.57,0,0,0,292.64,411.76Z" transform="translate(-217.76 -296.33)"/><path d="M291.29,413.8a.56.56,0,0,0,.38.7,30.93,30.93,0,0,0,4.66,1,.57.57,0,1,0,0-1.13,28.46,28.46,0,0,1-4.34-1A.56.56,0,0,0,291.29,413.8Z" transform="translate(-217.76 -296.33)"/><path d="M291.81,415.86a.56.56,0,0,0,.3.74,6.66,6.66,0,0,0,2.79.54.56.56,0,1,0-.14-1.12,5.7,5.7,0,0,1-2.21-.47A.57.57,0,0,0,291.81,415.86Z" transform="translate(-217.76 -296.33)"/><path d="M291.89,418c-.07.31.35.63,0,.55l2.54.63a.54.54,0,0,0,.66-.41.59.59,0,0,0-.44-.7l-2.46-.61C292.53,417.48,292,417.65,291.89,418Z" transform="translate(-217.76 -296.33)"/><path d="M291.29,420a.57.57,0,0,0,.38.71l2.5.75a.56.56,0,0,0,.7-.38.57.57,0,0,0-.38-.71l-2.5-.75A.56.56,0,0,0,291.29,420Z" transform="translate(-217.76 -296.33)"/><path d="M291.15,422.21a.52.52,0,0,0,.38.66l2.45.52c-.31-.07.49-.09.56-.39s-.66-.79-.36-.73l-2.3-.48A.63.63,0,0,0,291.15,422.21Z" transform="translate(-217.76 -296.33)"/><path d="M290.27,424.52a.51.51,0,0,0,.45.61l2.44.26c-.31,0,.6-.21.63-.52s-.86-.64-.54-.61l-2.31-.24A.61.61,0,0,0,290.27,424.52Z" transform="translate(-217.76 -296.33)"/><path d="M300.54,401.92a.56.56,0,0,0,.38.7,40.3,40.3,0,0,1,6.45,2.29.57.57,0,0,0,.79-.12A.55.55,0,0,0,308,404c-1.05-.79-6.22-2.3-6.8-2.47A.57.57,0,0,0,300.54,401.92Z" transform="translate(-217.76 -296.33)"/><path d="M300.78,404.06a.57.57,0,0,0,.41.69c1.18.31,4.43,1.26,5.26,2a.56.56,0,0,0,.8-.05.57.57,0,0,0,0-.8c-1.2-1.06-5.28-2.13-5.74-2.25A.58.58,0,0,0,300.78,404.06Z" transform="translate(-217.76 -296.33)"/><path d="M301.42,406.15a.57.57,0,0,0,.36.72l3.88,1.25a.57.57,0,0,0,.71-.37A.56.56,0,0,0,306,407l-3.87-1.25A.56.56,0,0,0,301.42,406.15Z" transform="translate(-217.76 -296.33)"/><path d="M301.42,407.88a.58.58,0,0,0,.34.73,30.17,30.17,0,0,1,3.64,1.57.57.57,0,0,0,.79-.18.58.58,0,0,0-.18-.78,29.8,29.8,0,0,0-3.86-1.67A.57.57,0,0,0,301.42,407.88Z" transform="translate(-217.76 -296.33)"/><path d="M300.91,410.18a.55.55,0,0,0,.39.69,23.77,23.77,0,0,1,3.72,1.3.55.55,0,0,0,.78-.15.56.56,0,0,0-.16-.79,23.78,23.78,0,0,0-4-1.45A.57.57,0,0,0,300.91,410.18Z" transform="translate(-217.76 -296.33)"/><path d="M300.29,412.09a.56.56,0,0,0,.38.7,21.26,21.26,0,0,1,4.5,1.75.57.57,0,0,0,.66-.92A23.28,23.28,0,0,0,301,411.7.56.56,0,0,0,300.29,412.09Z" transform="translate(-217.76 -296.33)"/><path d="M300.29,414.25a.55.55,0,0,0,.37.7,10.35,10.35,0,0,1,3.39,1.57.57.57,0,0,0,.8.08.55.55,0,0,0,.09-.79c-.74-.93-3.42-1.78-3.94-1.94A.57.57,0,0,0,300.29,414.25Z" transform="translate(-217.76 -296.33)"/><path d="M299.89,415.94a.56.56,0,0,0,.3.74,12.34,12.34,0,0,1,2.34,1.22.59.59,0,0,0,.78.1.52.52,0,0,0,.17-.71,7.55,7.55,0,0,0-2.84-1.65A.58.58,0,0,0,299.89,415.94Z" transform="translate(-217.76 -296.33)"/><path d="M299.29,417.66a.57.57,0,0,0,.37.71,6.79,6.79,0,0,1,1.77.78.57.57,0,0,0,.8,0,.58.58,0,0,0,0-.81,7.19,7.19,0,0,0-2.23-1A.56.56,0,0,0,299.29,417.66Z" transform="translate(-217.76 -296.33)"/><path d="M297.6,419.56a.58.58,0,0,0,.47.66,10.4,10.4,0,0,1,2.55.76.57.57,0,0,0,.59-1,11.19,11.19,0,0,0-2.95-.91A.58.58,0,0,0,297.6,419.56Z" transform="translate(-217.76 -296.33)"/><path d="M296.16,421.87c-.05.31.63.65.32.6l2.92.5a.57.57,0,0,0,.19-1.12l-2.91-.5C297,421.41,296.22,421.56,296.16,421.87Z" transform="translate(-217.76 -296.33)"/><path d="M294.68,424.1a.57.57,0,0,0,.51.62c1.11.12,2.45.3,2.68.38a.57.57,0,0,0,.42-1.05,19.41,19.41,0,0,0-3-.45A.56.56,0,0,0,294.68,424.1Z" transform="translate(-217.76 -296.33)"/><path d="M309.39,404.1a.58.58,0,0,0,.3.75,48.34,48.34,0,0,1,6,3,.56.56,0,1,0,.72-.87,48.18,48.18,0,0,0-6.3-3.17A.57.57,0,0,0,309.39,404.1Z" transform="translate(-217.76 -296.33)"/><path d="M309.4,405.42a.57.57,0,0,0,.27.75,48.4,48.4,0,0,1,4.33,2.28.56.56,0,1,0,.66-.91,50.53,50.53,0,0,0-4.5-2.39A.57.57,0,0,0,309.4,405.42Z" transform="translate(-217.76 -296.33)"/><path d="M309.29,406.62c-.15.28.89,1,.61.88l3.26,1.67a.56.56,0,0,0,.76-.25.58.58,0,0,0-.25-.77l-3.25-1.66C310.7,406.63,309.43,406.34,309.29,406.62Z" transform="translate(-217.76 -296.33)"/><path d="M310,408.62a.58.58,0,0,0,.32.74,11.89,11.89,0,0,1,2.06,1,.58.58,0,0,0,.8,0,.55.55,0,0,0,0-.78,11,11,0,0,0-2.45-1.21A.57.57,0,0,0,310,408.62Z" transform="translate(-217.76 -296.33)"/><path d="M309.86,410.35a.58.58,0,0,0,.41.69,10.77,10.77,0,0,1,2.12.73.58.58,0,0,0,.8-.09.57.57,0,0,0-.09-.79,10.07,10.07,0,0,0-2.54-.94A.57.57,0,0,0,309.86,410.35Z" transform="translate(-217.76 -296.33)"/><path d="M310.07,412.16a.57.57,0,0,0,.26.76,16.53,16.53,0,0,1,2,1.14.57.57,0,0,0,.8-.8,15,15,0,0,0-2.32-1.36A.57.57,0,0,0,310.07,412.16Z" transform="translate(-217.76 -296.33)"/><path d="M310.54,414c-.26.17.08.87-.09.61l1.24,1.83a.57.57,0,0,0,.79.15.55.55,0,0,0,.15-.78L311.38,414C311.56,414.27,310.8,413.86,310.54,414Z" transform="translate(-217.76 -296.33)"/><path d="M309.57,415.7a.54.54,0,0,0,0,.78l1.45,1.28c-.24-.21.53.14.74-.1s-.25-1,0-.76l-1.38-1.22A.6.6,0,0,0,309.57,415.7Z" transform="translate(-217.76 -296.33)"/><path d="M308.31,417.19a.56.56,0,0,0,.3.74l2.17.92a.56.56,0,1,0,.44-1l-2.17-.92A.56.56,0,0,0,308.31,417.19Z" transform="translate(-217.76 -296.33)"/><path d="M307.59,418.13a.56.56,0,0,0,.21.77l2.33,1.34a.58.58,0,0,0,.78-.21.57.57,0,0,0-.22-.78l-2.33-1.33A.56.56,0,0,0,307.59,418.13Z" transform="translate(-217.76 -296.33)"/><path d="M305.9,419.26a.54.54,0,0,0,.26.74l2.44,1.1c-.28-.13.52-.07.65-.36s-.48-.81-.19-.68L306.67,419A.58.58,0,0,0,305.9,419.26Z" transform="translate(-217.76 -296.33)"/><path d="M304.31,420.44a.57.57,0,0,0,.29.74l1.92.83a.56.56,0,0,0,.75-.29.58.58,0,0,0-.3-.75l-1.91-.83A.57.57,0,0,0,304.31,420.44Z" transform="translate(-217.76 -296.33)"/><path d="M303.71,421.73a.57.57,0,0,0,.35.72l1.92.66a.56.56,0,0,0,.72-.35.57.57,0,0,0-.35-.72l-1.92-.66A.56.56,0,0,0,303.71,421.73Z" transform="translate(-217.76 -296.33)"/><path d="M302.31,423.86a.56.56,0,0,0,.3.74l1.58.67a.58.58,0,0,0,.75-.31.57.57,0,0,0-.31-.74l-1.58-.66A.55.55,0,0,0,302.31,423.86Z" transform="translate(-217.76 -296.33)"/><path d="M317.06,407.84a.56.56,0,0,0,.29.75,48.2,48.2,0,0,1,5.37,2.76.57.57,0,0,0,.72-.88,48.82,48.82,0,0,0-5.63-2.91A.57.57,0,0,0,317.06,407.84Z" transform="translate(-217.76 -296.33)"/><path d="M316.64,409.11a.57.57,0,0,0,.31.74,24.23,24.23,0,0,1,4.4,2.21.57.57,0,0,0,.8-.8c-.79-.79-4.11-2.18-4.77-2.46A.57.57,0,0,0,316.64,409.11Z" transform="translate(-217.76 -296.33)"/><path d="M317.16,411a.56.56,0,0,0,.25.76,26.13,26.13,0,0,1,2.5,1.37.59.59,0,0,0,.77,0,.54.54,0,0,0,.12-.72c-.08-.12-.25-.38-2.88-1.69A.56.56,0,0,0,317.16,411Z" transform="translate(-217.76 -296.33)"/><path d="M316.75,412.58c-.17.26.47,1.07.2.9l2.21,1.39a.61.61,0,0,0,.82-.16.53.53,0,0,0-.14-.75l-2.3-1.45C317.81,412.68,316.91,412.31,316.75,412.58Z" transform="translate(-217.76 -296.33)"/><path d="M316.79,414.54c-.22.22.26,1,0,.76l1.8,1.79a.53.53,0,0,0,.77,0,.61.61,0,0,0,0-.83l-1.71-1.71C317.88,414.75,317,414.32,316.79,414.54Z" transform="translate(-217.76 -296.33)"/><path d="M316.12,416.67a.56.56,0,0,0,.12.78L318,418.7a.58.58,0,0,0,.8-.13.56.56,0,0,0-.12-.78l-1.75-1.25A.58.58,0,0,0,316.12,416.67Z" transform="translate(-217.76 -296.33)"/><path d="M315.2,417.68a.57.57,0,0,0-.19.77,8.51,8.51,0,0,0,1.83,1.59.57.57,0,0,0,.79-.13.56.56,0,0,0-.14-.79,10.35,10.35,0,0,1-1.51-1.25A.58.58,0,0,0,315.2,417.68Z" transform="translate(-217.76 -296.33)"/><path d="M313.8,419.53a.58.58,0,0,0,.32.74l1.25.5a.57.57,0,0,0,.74-.31.57.57,0,0,0-.32-.74l-1.25-.5A.57.57,0,0,0,313.8,419.53Z" transform="translate(-217.76 -296.33)"/><path d="M311.73,420.51a.57.57,0,0,0,.28.75l2.42,1.09a.57.57,0,0,0,.47-1l-2.42-1.08A.57.57,0,0,0,311.73,420.51Z" transform="translate(-217.76 -296.33)"/><path d="M323.62,411.66a.57.57,0,0,0,.37.71c.17.05,4.06,1.26,5.17,1.43.53.09.65.22.65.22l-.05-.19a.65.65,0,0,0,.63.49c.29,0,.51-.21.51-.49s-.12-.92-1.57-1.15c-.82-.12-3.63-1-5-1.39A.56.56,0,0,0,323.62,411.66Z" transform="translate(-217.76 -296.33)"/><path d="M323.54,412.76a.51.51,0,0,0,.33.68l1.71.47c.91.24,2.42.64,2.66.76a.56.56,0,0,0,.76-.25.58.58,0,0,0-.25-.77,26,26,0,0,0-2.88-.83l-1.58-.43A.61.61,0,0,0,323.54,412.76Z" transform="translate(-217.76 -296.33)"/><path d="M323.21,413.45c-.13.29.52.94.24.82l3.46,1.48a.58.58,0,0,0,.77-.28.53.53,0,0,0-.26-.73l-3.54-1.52C324.17,413.34,323.33,413.17,323.21,413.45Z" transform="translate(-217.76 -296.33)"/><path d="M322.47,414.87a.56.56,0,0,0,.32.73,23.89,23.89,0,0,0,3.3,1,.56.56,0,1,0,.14-1.12,25.44,25.44,0,0,1-3-1A.58.58,0,0,0,322.47,414.87Z" transform="translate(-217.76 -296.33)"/><path d="M322.14,416a.57.57,0,0,0,.31.74l2.25.92a.58.58,0,0,0,.74-.31.56.56,0,0,0-.31-.74l-2.25-.92A.57.57,0,0,0,322.14,416Z" transform="translate(-217.76 -296.33)"/><path d="M321.06,417a.57.57,0,0,0,.29.74l1.92.84a.58.58,0,0,0,.75-.3.57.57,0,0,0-.3-.74l-1.91-.84A.58.58,0,0,0,321.06,417Z" transform="translate(-217.76 -296.33)"/><path d="M320.07,418.34a.55.55,0,0,0,.27.75l1.58.75a.58.58,0,0,0,.76-.27.57.57,0,0,0-.27-.75l-1.59-.75A.55.55,0,0,0,320.07,418.34Z" transform="translate(-217.76 -296.33)"/><path d="M320.83,322.58a4.25,4.25,0,0,0,.25-2.63c-.37-1.25-1-6.37.25-9.25A11.87,11.87,0,0,1,318,308a18.38,18.38,0,0,0-5.25-4.25l21.25-.5s2.37-1,3.37,2.13S343,321.08,343,321.08l-2.75,1.25s-1.25-2.63-3.13-1.88-6.25,1-8.12,1.88a41.46,41.46,0,0,0-3.88,2.12Z" transform="translate(-217.76 -296.33)"/></svg>