<svg id="_11_2" xmlns="http://www.w3.org/2000/svg" viewBox="0 0 153.07 238.11"><defs><style>.cls-1{fill:#ed1c24;}.cls-2{fill:#fff;}.cls-3{fill:#0066b3;}</style></defs><title>_11_2</title><rect class="cls-1" width="153.07" height="238.11"/><path class="cls-2" d="M227.27,312.35V515s-1.33,11.33,11.33,11.33h113s11.67,1.34,11.67-12.5V312.35s-.17-10.16-10-10.16H236.94S228.6,302,227.27,312.35Z" transform="translate(-218.73 -295.3)"/><path class="cls-3" d="M253.73,368.1s-1.75,3-2.38,3.88a20.8,20.8,0,0,0-2.5,8.12A13.08,13.08,0,0,0,242.1,379c-3.87.37-7.87,2.75-9,3.37A20.61,20.61,0,0,1,230,383.6a21.42,21.42,0,0,1,3.5,3C234.6,388,239.1,391,239.1,391s-3.5,4.25-4.37,6.87-.88,8.13-.88,8.13v1.62s3.88-2.12,6.25-3.12,11.5-4.38,12.63-7.25a15.65,15.65,0,0,0,5.62,5.25c3.5,1.75,5.88,3.5,6.13,4a40.52,40.52,0,0,1,0-4.13c.12-1.5,2-7-1.13-12.37a18.22,18.22,0,0,0,7.5-5.38c2.88-3.75,5-6.37,5-6.37a35.08,35.08,0,0,1-4.62.12c-2-.12-9.88-.62-12.13,0,0,0-.75-4.5-2.62-6.75S253.73,368.1,253.73,368.1Z" transform="translate(-218.73 -295.3)"/><path class="cls-3" d="M286.1,375.35a18.72,18.72,0,0,0-4.87,4.63,14,14,0,0,0-2.25,5.75,18.2,18.2,0,0,1-1.63,4s4-.75,5.13-1.13,7.87-2.75,9.37-4.37c0,0,4.13,4.12,9.5,3.25a22.52,22.52,0,0,0,9.5-4.25,59.7,59.7,0,0,0,4.88,3.75,12.08,12.08,0,0,0,3.62,1.37,46,46,0,0,0,0-7.5c-.37-2.62-2.75-8.25-4.5-10.25a37.11,37.11,0,0,0,5.25-9c1.63-4.5,2.38-7.37,2.38-7.37s-3.88.25-6.25.37-6.13.5-8.38,1.5a15.14,15.14,0,0,0-4.37,3.5s-2.38-4.5-4.25-6-6.5-4.62-6.75-5.37c0,0-.63,3-1,4.37a41.52,41.52,0,0,0-1,7.63,9.89,9.89,0,0,0-4.88-1.38c-2.75,0-7.62-.12-9-.87,0,0,1.63,4.75,2.13,6.87S282.1,372.23,286.1,375.35Z" transform="translate(-218.73 -295.3)"/><path class="cls-1" d="M363.6,439.85v75.84s2,10.5-12.66,10.5H236.1s-9,0-9-12.17V446.35Z" transform="translate(-218.73 -295.3)"/><path d="M237.19,301.65a10.64,10.64,0,0,0-10.63,10.63V516.43a10.64,10.64,0,0,0,10.63,10.63H353.35A10.64,10.64,0,0,0,364,516.43V312.28a10.64,10.64,0,0,0-10.63-10.63ZM228,516.43V312.28a9.23,9.23,0,0,1,9.21-9.22H353.35a9.23,9.23,0,0,1,9.21,9.22V516.43a9.23,9.23,0,0,1-9.21,9.22H237.19A9.23,9.23,0,0,1,228,516.43Z" transform="translate(-218.73 -295.3)"/><path d="M227.1,439.1a16.46,16.46,0,0,0,4.25-9.25c.5-5.5,3.25-15.5,9.25-19.5s10.5-4,17-2.5,9.5,2.75,14.5,3a18,18,0,0,0-3-3.75,5.84,5.84,0,0,1,1.25-8.75c4-2.5,10.5-.75,12.5,3.25a12.35,12.35,0,0,1,.5,8.5s5.75.25,15.75-2.75,14-11.25,15-13.25,6.5-10.75,17.75-11.25,29.5.75,31,27.75c0,0-.5,7.75-3.25,12.75a9.29,9.29,0,0,0,1,10.5c1,1,2.75,4,2.75,5.5v3.25a43.39,43.39,0,0,0-4.5.25c-2,.25-6.5,1.5-8.25,3.25s-11.5,6.25-21.5,6c0,0-.5,6.75-4.75,10.25s-8.25,3.75-11,5-5.5,5-6.75,7.75a62.32,62.32,0,0,0-2.75,7c-.25,1,0,1-2-.5a23.91,23.91,0,0,0-10.75-5c-5-.75-9.75-1-17.5-5.25s-11.25-12.25-11.25-12.25a15.49,15.49,0,0,1-7.25,1c-3.75-.5-9.75-3.5-12.75-5.75s-9.75-6-15-5.75Z" transform="translate(-218.73 -295.3)"/><path d="M313.85,327.1s.75-6.75,6.25-9.25,10.75-1,12,2.5-.5,7.75-7.25,9.25S314.85,327.85,313.85,327.1Z" transform="translate(-218.73 -295.3)"/><path d="M314.6,347.85s.5-7.25,6.5-11.25,12-1.25,13,3-1.75,7.75-7.25,9S316.35,349.1,314.6,347.85Z" transform="translate(-218.73 -295.3)"/><path d="M294.85,344.85s1.75-4.75-3-9.75-12-3-13.75-.75-2.5,7.75,4.5,11A12.61,12.61,0,0,0,294.85,344.85Z" transform="translate(-218.73 -295.3)"/><path d="M296.35,329.35s3.5-6.25-1.5-11.25-11-4.75-14.75-1.25-.5,10.25,5,12.5S296.35,329.35,296.35,329.35Z" transform="translate(-218.73 -295.3)"/><path d="M303.85,302.1c-3.5,4,.25,11,.25,11s8.25,1.5,16.5-10.5Z" transform="translate(-218.73 -295.3)"/><path d="M292.85,402.1s3-6,.25-10.25-8-5-10.5-3.5-3.5,6.25.5,10.25S292.85,402.1,292.85,402.1Z" transform="translate(-218.73 -295.3)"/><path d="M262.1,360.85s-2-7,2.5-11,10.25-2.75,11.75-.25,1.25,7.25-3.75,10A15.5,15.5,0,0,1,262.1,360.85Z" transform="translate(-218.73 -295.3)"/><path d="M256.1,345.85a11.18,11.18,0,0,1-5-10c.25-7,3.75-9.25,8.25-9.25s6.5,5.5,5.25,10.5S258.35,345.6,256.1,345.85Z" transform="translate(-218.73 -295.3)"/><path d="M246.6,357.85a11.73,11.73,0,0,0-.5-11.25c-3.5-6-10-5.5-12.75-3s-2.75,8,2.25,12.25S246.6,357.85,246.6,357.85Z" transform="translate(-218.73 -295.3)"/><path d="M227.1,361.85c1.25-1,6.5-2.25,10.5,1.5s1.75,10.5,1.75,10.5-8.5,2.75-12-2Z" transform="translate(-218.73 -295.3)"/><path d="M253.15,367.85s-1.18,2.18-3,4.95a15.7,15.7,0,0,0-2,6.4c-6.22-2.57-13.58,1.68-13.9,1.88a38.45,38.45,0,0,1-4.56,2.11l-1.13.44,4.61,3.78,5,3.75c-1.41,1.9-3.89,5.45-4.55,8.89a29.74,29.74,0,0,0-.43,5.28c0,1.45.08,2.5.09,2.58l.12,1.46,1.07-1c1.71-1.6,6.84-3.76,10.59-5.34l3.9-1.7a9.17,9.17,0,0,0,3.8-3.15c1.77,3,6.43,6,8,6.52a9.16,9.16,0,0,1,3,2l2,2L265,406a3.15,3.15,0,0,1-.1-.9,34.55,34.55,0,0,1,.43-4.07c.23-1.6.46-3.26.53-4.79,0-.17,0-.34,0-.51a11.35,11.35,0,0,0-1.33-5.31c3.59-1.38,7.84-5.77,8.71-7.17s3.28-4.58,3.3-4.62l1.07-1.41-1.75.29a45.37,45.37,0,0,1-9.45,0,23.44,23.44,0,0,0-6.83.2,14,14,0,0,0-3.06-6.95,26.9,26.9,0,0,1-2.1-2.9l-.63-1.11Zm-3.67,12.37a15.55,15.55,0,0,1,1.88-6.65c1.11-1.7,1.93-3.11,2.45-4,.37.53.87,1.23,1.58,2.09a11.9,11.9,0,0,1,2.84,6.88v.88l.86-.19a23.59,23.59,0,0,1,7.08-.32,45.27,45.27,0,0,0,8.25.15c-.8,1.1-1.91,2.62-2.42,3.44-.72,1.16-5.47,6.07-8.73,6.85l-1,.25.62.86a9.73,9.73,0,0,1,1.54,5.28c0,.14,0,.29,0,.44-.06,1.46-.29,3.08-.51,4.65a37.3,37.3,0,0,0-.41,3.79,7.92,7.92,0,0,0-2.33-1.26c-1.62-.49-7.1-4.23-7.68-7l-1.37,0c0,.09-.67,2.23-3.79,3.72l-3.84,1.67a69.33,69.33,0,0,0-9.88,4.76c0-.34,0-.72,0-1.15a27.24,27.24,0,0,1,.41-5c.66-3.49,3.49-7.26,4.7-8.87l.42-.57-6-4.58-2.74-2.24A34.76,34.76,0,0,0,235,382.3c.31-.19,7.77-4.59,13.46-1.49l1,.55Z" transform="translate(-218.73 -295.3)"/><path d="M291.73,347.8a33.21,33.21,0,0,1-1,5.37,31,31,0,0,0-.82,6.08c-2.3-1.26-4.95-1.12-7-1l-1.36.06a17.43,17.43,0,0,1-4.91-1.12l-1.46-.56.54,1.47s1.18,3.21,2.65,8.12c1.22,4.06,4.93,7.69,6.58,9.15-3.7,2.06-6.44,7.65-6.6,9.42a17.3,17.3,0,0,1-1.76,4.73l-.71,1.37,1.5-.35s3.73-.85,7-1.84a22.15,22.15,0,0,0,7.11-3.66l.18.12.48.3.15.09c3.77,2.32,7.43,3.11,10.87,2.33a16,16,0,0,0,7.55-3.89c1.2,1,4.13,3.45,5.72,4l3.71,1.53.07-1c0-.06,0-.4,0-.94a40.26,40.26,0,0,0-1-9.78,24.42,24.42,0,0,0-3.63-7.14c2.66-3.57,5.61-9.19,6-11,.32-1.61,1.47-5.22,1.48-5.26l.32-1-3.89.29-7.85.63c-3.56.39-6.75,2.88-8.16,4.15a16,16,0,0,0-6.42-7.07,24.89,24.89,0,0,1-4.13-4l-1.13-1.32Zm-.42,12.72a32.9,32.9,0,0,1,.81-7,37.8,37.8,0,0,0,.83-4,18.28,18.28,0,0,0,3.47,3.14,14,14,0,0,1,6.17,7.26L303,361l.82-.85s3.88-4,8.07-4.46l7.78-.62,1.82-.13c-.37,1.22-1,3.25-1.21,4.41-.31,1.56-3.26,7.29-6,10.87l-.34.44.35.44a23.87,23.87,0,0,1,3.7,7.09,38.58,38.58,0,0,1,1,9.25l-1.89-.78c-1.4-.51-4.64-3.21-5.77-4.2l-.55-.48-.46.56A14.29,14.29,0,0,1,303,386.5c-3.07.69-6.37,0-9.82-2.15l-.16-.1-.42-.27a1.33,1.33,0,0,0-1.95,0,21.36,21.36,0,0,1-6.53,3.32c-2,.6-4.15,1.15-5.52,1.48a14.32,14.32,0,0,0,1.26-3.9c.14-1.6,3.13-7.49,6.69-8.73l1.22-.42-1-.8c0-.05-5.51-4.43-6.93-9.15-.91-3.05-1.71-5.43-2.19-6.83a14.87,14.87,0,0,0,4,.74l1.45-.06c2.12-.14,5-.32,7.1,1.4l1.16.95Z" transform="translate(-218.73 -295.3)"/><path d="M303.82,352l1.43,5.55,1.37-.36-1.43-5.55a74,74,0,0,1,.59-39.4l-1.36-.4A75.43,75.43,0,0,0,303.82,352Z" transform="translate(-218.73 -295.3)"/><path d="M302.21,333.6a62.05,62.05,0,0,0-6.17-5.47l-.87,1.12a57.14,57.14,0,0,1,6.4,5.73l.41.48.52-.35c.1-.07,9.82-6.64,15.18-8.59l-.49-1.33C312.32,327,304.3,332.21,302.21,333.6Z" transform="translate(-218.73 -295.3)"/><path d="M293.46,344.55a59.42,59.42,0,0,0,10.65,7.6l.65-1.26a59.48,59.48,0,0,1-10.35-7.39Z" transform="translate(-218.73 -295.3)"/><path d="M304.87,353.6l.8,1.17c.08,0,7.85-5.34,12.1-7.63l-.67-1.24C312.78,348.22,305.19,353.38,304.87,353.6Z" transform="translate(-218.73 -295.3)"/><path d="M296,409.88l1.27.62c4.16-8.5,6.47-22.6,6.56-23.2l-1.4-.23C302.38,387.22,300,401.57,296,409.88Z" transform="translate(-218.73 -295.3)"/><path d="M291.51,401.74c.2.32,5.11,8,9.49,11.34l.87-1.12c-4.19-3.22-9.12-10.91-9.17-11Z" transform="translate(-218.73 -295.3)"/><path d="M254.06,369.64l1.42.1c0-.23,1.67-23.23,1.83-27.36l-1.42-.05C255.73,346.43,254.08,369.41,254.06,369.64Z" transform="translate(-218.73 -295.3)"/><path d="M245.26,357.51l6,6.18a14.75,14.75,0,0,1,2.84,4.26l1.32-.53a16,16,0,0,0-3.16-4.73l-6-6.16Z" transform="translate(-218.73 -295.3)"/><path d="M254.22,368.24l1.1.9c.05-.07,5.46-6.6,9.31-8.84l-.72-1.22C259.85,361.45,254.45,368,254.22,368.24Z" transform="translate(-218.73 -295.3)"/><path d="M237.74,373.15c.18.22,4.54,5.22,5.9,6.4l.93-1.06c-1.28-1.12-5.72-6.22-5.77-6.27Z" transform="translate(-218.73 -295.3)"/><path d="M250.8,410.05l1.28.61a51.67,51.67,0,0,0,3.22-10.85l-1.39-.25A51.71,51.71,0,0,1,250.8,410.05Z" transform="translate(-218.73 -295.3)"/></svg>