<svg id="_11_4" xmlns="http://www.w3.org/2000/svg" viewBox="0 0 153.07 238.11"><defs><style>.cls-1{fill:#ed1c24;}.cls-2{fill:#fff;}.cls-3{fill:#0066b3;}</style></defs><title>_11_4</title><rect class="cls-1" width="153.07" height="238.11"/><path class="cls-2" d="M229.71,304.86v202.5s-.33,9.67,10.84,9.67H356.88s10-.33,10-11V304.86s.33-9.83-12-9.83H239.55S229.71,295,229.71,304.86Z" transform="translate(-221.76 -287.14)"/><path class="cls-3" d="M294.05,411.07s.37,4,.87,7.13a23.5,23.5,0,0,1-4.37,3.75,16.68,16.68,0,0,1-5.75,2.25,20.33,20.33,0,0,0,10.75,8.25s-2.63,4.12.37,12.37a8.4,8.4,0,0,1,2.75-3c1.63-.87,6.75-3.62,7.63-6a14.06,14.06,0,0,0,5.25,2.75c3.37,1,10.12,1.5,11.25,2.63,0,0-1.25-4.75-2-6.63s-2.38-6-4.13-7.12c0,0,3.38-2.25,4.38-5.63s1.87-5.62,1.87-5.62a10.46,10.46,0,0,1-4.25,0c-2.12-.5-8.75-.75-10.5.62,0,0-1.87-5.5-6-7.87Z" transform="translate(-221.76 -287.14)"/><path class="cls-3" d="M338.92,431a24.64,24.64,0,0,0-6.5-4c-3-1-6.37-1.75-6.37-1.75a19.24,19.24,0,0,1,1.37,4.5c.13,1.62,2.5,6.5,4.63,9.25a19,19,0,0,0-5,4.25c-1.75,2.37-3.13,6.25-3.75,6.87a12.15,12.15,0,0,0,4.12.5,45.8,45.8,0,0,0,8.88-1.75,9.71,9.71,0,0,0,1.75,5.75c2,3,4.62,5.5,5.12,6.5,0,0,2.13-4.25,3.25-6.25s1.25-6.37,1.13-7.37c0,0,1.87-.25,5.25-.75s7.75-1.38,7.75-1.38-2.25-3.25-3.13-4.62-6.75-5.63-7.87-5.88a10.09,10.09,0,0,0,2.75-6.37V419.7a31.05,31.05,0,0,1-4.75,2.37C345.67,422.7,339.67,424.82,338.92,431Z" transform="translate(-221.76 -287.14)"/><path d="M239.47,294.49a10.64,10.64,0,0,0-10.63,10.63V507.28a10.64,10.64,0,0,0,10.63,10.63H357.13a10.64,10.64,0,0,0,10.62-10.63V305.12a10.64,10.64,0,0,0-10.62-10.63Zm-9.22,212.79V305.12a9.24,9.24,0,0,1,9.22-9.22H357.13a9.23,9.23,0,0,1,9.21,9.22V507.28a9.22,9.22,0,0,1-9.21,9.21H239.47A9.23,9.23,0,0,1,230.25,507.28Z" transform="translate(-221.76 -287.14)"/><path d="M366.71,392.86a10.31,10.31,0,0,0-5.33,4.34c-2,3.33-5.67,13-15.67,16s-22,0-29.66-3-16.34,0-23,1.66-26,5.67-39.34-2-15.33-23.33-15.66-31.33,1-18.67-1.67-26-4.33-12-4.33-13,.33-1,1.66-.33,10.34,3.33,17.34,3a60.68,60.68,0,0,0,17.66-4c3.34-1.34,17-5,27.34,5.66a16.26,16.26,0,0,1,13-7c9-.33,19.66.67,29.33-7.66a27.68,27.68,0,0,0,5,11.66c4,5,9,12,10,22.34s2,22.33,13.33,25.33Z" transform="translate(-221.76 -287.14)"/><path d="M258.09,442.86l1.41.17c1-8.12,5.94-29.71,6-29.92l-1.39-.32C264.05,413,259.09,434.67,258.09,442.86Z" transform="translate(-221.76 -287.14)"/><path d="M259.05,440.45a14,14,0,0,0-7.75,7.25c-2.75,5.75-.25,10.75,4,11.75s8.5-2,9-8.5S259.05,440.45,259.05,440.45Z" transform="translate(-221.76 -287.14)"/><path d="M251.55,437.2A21.28,21.28,0,0,0,239.8,436c-6.25,1.25-6.25,5.5-6,7.75s3.25,5.75,11,3.5S252.55,438.2,251.55,437.2Z" transform="translate(-221.76 -287.14)"/><path d="M253.3,422.45a13.16,13.16,0,0,0-9.75-4c-6,.25-9,4.25-8.25,7.25s2.5,4.75,9.75,4S253.8,424.2,253.3,422.45Z" transform="translate(-221.76 -287.14)"/><path d="M269.3,425.7a11.4,11.4,0,0,0,2,12c5,5.75,11.75,2.75,13.5-.25s1-8-4-10.5S270.3,425,269.3,425.7Z" transform="translate(-221.76 -287.14)"/><path d="M284.55,447.2a14.39,14.39,0,0,0-11,1c-5.75,3-5.25,9-3.25,11s7.75,3.25,12.25-2S284.55,447.2,284.55,447.2Z" transform="translate(-221.76 -287.14)"/><path d="M286.8,463a11.7,11.7,0,0,0-10.75,1c-5.5,3.5-4,8.25-2.25,10s7.25,3,11.25-1.25S286.8,463,286.8,463Z" transform="translate(-221.76 -287.14)"/><path d="M289.8,478.7s3.25,7-2,11.5-11.25,3-13,.25-1-8.25,4-11S289.8,478.7,289.8,478.7Z" transform="translate(-221.76 -287.14)"/><path d="M297.3,488.2s-5,2.25-6.75,9.75,3,11.5,8.25,11.5,6.5-6.25,5.5-11.25S297.3,488.2,297.3,488.2Z" transform="translate(-221.76 -287.14)"/><path d="M303.05,468a12.29,12.29,0,0,0,2.75,11c4.5,5,11.25,2.5,12.75-.25a7.72,7.72,0,0,0-4.75-10.5A20.63,20.63,0,0,0,303.05,468Z" transform="translate(-221.76 -287.14)"/><path d="M304.3,450.45a13.3,13.3,0,0,0,3,9.75c3.75,4.25,11.25,4,12.75,1.5s1.25-7.25-4.5-10.25A15.07,15.07,0,0,0,304.3,450.45Z" transform="translate(-221.76 -287.14)"/><path d="M338.05,463s-4.25-.75-10,2.5-5.25,8.25-3.5,10.75,9,3,12.5-3S338.05,463,338.05,463Z" transform="translate(-221.76 -287.14)"/><path d="M349.05,477.7a14.11,14.11,0,0,0-3.5,10c.25,6.25,5.75,9,10.5,7.25s6-6.75,3-11.5S349.05,477.7,349.05,477.7Z" transform="translate(-221.76 -287.14)"/><path d="M366.8,463.2s-2.75,5-9.75,4.5-8.5-8-8.5-8a11.78,11.78,0,0,1,8.25-4.5c5.5-.5,9.75,3.25,10,5Z" transform="translate(-221.76 -287.14)"/><path d="M352.19,418.83,346,422.32l-1.07.56c-2.4,1.21-5.56,2.82-6.36,6.66a12.33,12.33,0,0,0-4.23-2.5,58.68,58.68,0,0,0-8.11-2.54l-1.3-.28.5,1.24a32.76,32.76,0,0,1,1.7,5.57c.25,2,2.14,5.47,3.84,7.67a13.71,13.71,0,0,0-3.39,2.5c-1.25,1.25-2.35,3.57-3.33,5.62A18.73,18.73,0,0,1,322.5,450l-.8,1,1.24.19a22.4,22.4,0,0,0,5,.25l1-.15a31.65,31.65,0,0,0,6.73-1.5,12.41,12.41,0,0,0,2.06,5.86,78.34,78.34,0,0,0,5.06,6.07l.69.75,3.21-6.42a19.71,19.71,0,0,0,1.62-7.59c0-.11,0-.21,0-.31a42,42,0,0,0,6.94-1,36.28,36.28,0,0,1,5.38-1L362,446l-.91-1a35,35,0,0,1-2.93-3.91,23.27,23.27,0,0,0-7.31-6.43,14.77,14.77,0,0,0,2.18-7.36c0-.2,0-.41,0-.62q-.06-1.32-.06-2.43a30.8,30.8,0,0,1,.3-4.66l.27-1.48Zm-12.44,12.62c0-4.39,3.07-5.94,5.78-7.31l1.1-.57,5-2.82c-.08.83-.15,2-.15,3.45,0,.77,0,1.62.07,2.54,0,.18,0,.36,0,.53a13.85,13.85,0,0,1-2.38,7.26l-.57.78.92.31c2.05.68,6.21,4.33,7.38,6.2a29.68,29.68,0,0,0,2.23,3.08,35.36,35.36,0,0,0-4.32.86,45.85,45.85,0,0,1-7.35,1l-.75,0,.08.74a8,8,0,0,1,0,.88,18.73,18.73,0,0,1-1.47,7L343.13,460c-1-1.11-2.88-3.27-4.26-5.17A11.82,11.82,0,0,1,337,448.7v-1.28l-1.08.68c-1.53.95-5.21,1.47-7.19,1.74l-1.05.16a15.9,15.9,0,0,1-3.45-.12c.39-.68.8-1.49,1.26-2.45a21.47,21.47,0,0,1,3.06-5.23,11.94,11.94,0,0,1,3.75-2.59l.95-.36-.67-.77c-1.64-1.88-3.85-5.76-4.08-7.62a25.25,25.25,0,0,0-1.32-4.65,58.63,58.63,0,0,1,6.61,2.15c4,1.55,4.57,3.26,4.57,3.28Z" transform="translate(-221.76 -287.14)"/><path d="M302.2,409.82c4.15,2.3,5.14,7.21,5.15,7.26l.22,1.11.9-.68c1.69-1.26,7-1.16,9.15-.63a16.86,16.86,0,0,0,4.23.33c-.26.89-.71,2.38-1.47,4.5a11.32,11.32,0,0,1-4.21,5.13l-.88.55.83.62c1.79,1.35,4,6.64,4.49,8.61.27,1.09.68,2.38,1,3.35a25.58,25.58,0,0,0-4.65-1l-4.26-.75a12.13,12.13,0,0,1-5.89-3l-.54-.6-.52.62a38.77,38.77,0,0,1-7.28,5.82,6.7,6.7,0,0,0-2.26,2.23,21.1,21.1,0,0,1-1.22-5.84,9.62,9.62,0,0,1,1.15-4.63l.48-.79-.88-.26a18.41,18.41,0,0,1-7-3.69l-.23-.19a28.26,28.26,0,0,1-2.8-2.91,14.24,14.24,0,0,0,5.8-2.73c2.5-2,4-3.49,4.06-3.55l.3-.31-.13-.4a17.52,17.52,0,0,1-.81-5.2,11.77,11.77,0,0,1,.08-1.48l-1.39-.23a11.35,11.35,0,0,0-.11,1.72,19.33,19.33,0,0,0,.76,5.18c-.54.52-1.83,1.71-3.65,3.16a11.94,11.94,0,0,1-6.3,2.6h-1.52l1,1.16a41.49,41.49,0,0,0,3.85,4.1l.23.18a20.08,20.08,0,0,0,6.73,3.67,11.1,11.1,0,0,0-1,4.6c0,3.09,1.72,7.56,1.8,7.75l.57,1.49.72-1.43a7.79,7.79,0,0,1,2.43-2.93,41.84,41.84,0,0,0,7.22-5.63,14.35,14.35,0,0,0,6.05,2.94l4.39.77a19.36,19.36,0,0,1,5.73,1.43l1.54.71-.58-1.6s-1-2.74-1.48-4.68c-.43-1.72-2.31-6.55-4.33-8.74a12.19,12.19,0,0,0,4.06-5.35c1.25-3.49,1.75-5.48,1.77-5.56l.24-1-1,.08a18.83,18.83,0,0,1-4.77-.23c-1.84-.46-6.79-.75-9.46.41a12.53,12.53,0,0,0-5.62-7.34Z" transform="translate(-221.76 -287.14)"/><polygon points="28.89 150.22 29.68 151.4 39.16 145.15 38.41 143.96 28.89 150.22"/><path d="M263.73,415.56c-3.47,1.74-11.69,6.22-11.77,6.26l.67,1.25c.08,0,7.35-4,11.07-5.9.81,1.81,3.15,6.87,5.07,9l1.05-.95c-2.14-2.38-5.09-9.23-5.12-9.3l-.3-.69Z" transform="translate(-221.76 -287.14)"/><path d="M297.09,490.3l1.41-.21c-3-20.19-1.76-45.6-1.75-45.86l-1.41-.07C295.32,444.42,294.12,470,297.09,490.3Z" transform="translate(-221.76 -287.14)"/><polygon points="67.26 192.33 68.31 193.28 74.79 186.31 73.78 185.3 67.26 192.33"/><path d="M285.4,463.11l.79,1.17c1.57-1.06,9.45-6.43,10.24-8l-1.27-.63C294.74,456.46,289.87,460.09,285.4,463.11Z" transform="translate(-221.76 -287.14)"/><rect x="282.29" y="442.74" width="13.27" height="1.42" transform="translate(-445.93 26.45) rotate(-42.71)"/><path d="M297.4,442.25a36.85,36.85,0,0,0,6.38,8.68l1-1a36.52,36.52,0,0,1-6.12-8.31Z" transform="translate(-221.76 -287.14)"/><path d="M294.94,457.57c.2.32,4.84,7.86,8.84,12.11l1-1c-3.9-4.15-8.61-11.81-8.66-11.88Z" transform="translate(-221.76 -287.14)"/><path d="M337.88,431l1.33-.51c0-.09-3.7-9.7-3.46-16.47l-1.41-.05C334.09,421,337.73,430.55,337.88,431Z" transform="translate(-221.76 -287.14)"/><path d="M342.62,461.42c.05.13,4.54,13.83,6.77,19.29l1.31-.53c-2.21-5.42-6.69-19.07-6.73-19.2Z" transform="translate(-221.76 -287.14)"/><path d="M336.78,463.21l1,1c.34-.37,3.35-3.64,3.88-5l-1.31-.53A28.28,28.28,0,0,1,336.78,463.21Z" transform="translate(-221.76 -287.14)"/><rect x="346.59" y="456.49" width="1.42" height="4.67" transform="matrix(0.27, -0.96, 0.96, 0.27, -409.5, 383.51)"/></svg>