<svg id="_11_1" xmlns="http://www.w3.org/2000/svg" viewBox="0 0 153.07 238.11"><defs><style>.cls-1{fill:#ed1c24;}.cls-2{fill:#fff;}.cls-3{fill:#0066b3;}.cls-4{fill:#ffcb05;}</style></defs><title>_11_1</title><rect class="cls-1" width="153.07" height="238.11"/><path class="cls-2" d="M230.87,451.1V346.77l7.5-33.67,36.33-12,44.34.83s18.5,12.67,19,13.5,32.33,57.5,32.33,57.5v33.84L348,412.6l-17.84,5.5-20.33,1L282.7,431.93,266,439.27,236.87,453.6Z" transform="translate(-224 -262.38)"/><path class="cls-1" d="M233,345.43s-.62,5,4.5,8.88,11.25,3.87,14.88,1.37c0,0,2,4.75,9.12,6.13s11.88-2.13,12.5-5.75c0,0,4.38,2.62,7.88.37s3.62-5.62,2.75-8.37a63.39,63.39,0,0,1-1.88-7.38c-.12-1-.62-4.37,1.13-7s4.62-3.25,5.75-2.75,2.75,1.75,4,2.38,5.5,2.12,7.25,1.5a25.6,25.6,0,0,1,1,2.62,5,5,0,0,0,.75,1.5,12.53,12.53,0,0,0,1.75-6,30.27,30.27,0,0,0-.88-6.62l66.88-5.13V279.56s-.25-10.25-10-10.25H240.12s-9.38,1-9.38,9.5v21.25Z" transform="translate(-224 -262.38)"/><path class="cls-1" d="M231,349.56s5.25,19.87,25.5,29.75a30.74,30.74,0,0,1-25.62-6.5Z" transform="translate(-224 -262.38)"/><path class="cls-1" d="M230.87,377.93s9.62,13.63,24.62,19.63a3.47,3.47,0,0,1-.75,1.25c-.37.25-15.25,3.75-23.87-1.38Z" transform="translate(-224 -262.38)"/><path class="cls-1" d="M326,348.93s-8.75,16.63-23.75,22.5a8.17,8.17,0,0,1,2,3.38s24.88-4.75,34.63-11.88C338.87,362.93,329.49,354.68,326,348.93Z" transform="translate(-224 -262.38)"/><path class="cls-1" d="M341.12,365.31a75,75,0,0,1-33.88,26.5,15.18,15.18,0,0,0,5.75.75c3.63-.13,36.13-7,47.25-19.13C360.24,373.43,349.24,370.43,341.12,365.31Z" transform="translate(-224 -262.38)"/><path class="cls-3" d="M275.12,398.93a27.84,27.84,0,0,0-6.5-5.62,46.22,46.22,0,0,0-6.75-2.88s.12,2.5.12,4.13a26.45,26.45,0,0,0,.75,6,11.51,11.51,0,0,0-4,2.5c-1.75,1.75-3.12,3.25-3.12,3.25a37.81,37.81,0,0,1,3.87,2.87,15.56,15.56,0,0,0,4.25,2.25l-1,6.25,7.75,1.38.88.12s3.75-3.12,4-4.25c0,0,1.62.63,2.75,1.13s4.25,1.5,4.25,1.5,4.12-3,4.75-3.38c0,0-1.63-4.75-3-5.87,0,0,4-2.5,5.5-5.38a59.13,59.13,0,0,0,2.62-5.87,31.79,31.79,0,0,1-4.5.37A63.43,63.43,0,0,0,275.12,398.93Z" transform="translate(-224 -262.38)"/><path class="cls-4" d="M230.87,465.43v18s.5,10.17,9.83,10.17H360.2s10,.17,10-12V452.1l-14.66,8.83L328.7,476.77l-16.33-.34-20-2.16L249.2,460.1l-16.83,1.83Z" transform="translate(-224 -262.38)"/><path d="M240.79,268.56a10.64,10.64,0,0,0-10.63,10.63V483.68a10.64,10.64,0,0,0,10.63,10.63H360.28a10.64,10.64,0,0,0,10.63-10.63V279.19a10.64,10.64,0,0,0-10.63-10.63Zm-9.21,215.12V279.19a9.22,9.22,0,0,1,9.21-9.21H360.28a9.22,9.22,0,0,1,9.21,9.21V483.68a9.22,9.22,0,0,1-9.21,9.21H240.79A9.22,9.22,0,0,1,231.58,483.68Z" transform="translate(-224 -262.38)"/><path d="M230.87,451.93s5.75-26.25,22.25-32.5,23.5,3,23.5,3,8.25-10.25,21.5-13.25,22.5,2,24,3.25c0,0,7.75-12.25,22-15.75s24,2.25,25.5,8.5v50.5a52.14,52.14,0,0,1-3.75,6c-1.75,2.25-16.75,19.25-16.75,31.5,0,0-7.5-8.25-16.5-10.25s-18.25,1-23.75,4.5-14.25,6.25-16.5,6.25-6.75-1.5-9.75-5.75c0,0-6,5.75-13.5,5.75s-14.5-4.5-19.5-10.25-9.5-12.75-12.5-14.75a21.52,21.52,0,0,0-6-2.75Z" transform="translate(-224 -262.38)"/><path class="cls-1" d="M343.87,449.43a23.34,23.34,0,1,1-23.33-23.33A23.34,23.34,0,0,1,343.87,449.43Z" transform="translate(-224 -262.38)"/><path d="M244.35,318.72a.72.72,0,0,0-.69.73c.75,24.6,16.68,34.74,16.84,34.84l.92-1.05c-8.71-10.78-9.36-24.73-9.36-28.68v-.22c1.94.39,6.75.78,12.53-3a.71.71,0,1,0-.77-1.19c-6.76,4.4-12.16,2.61-12.22,2.59l-.88-.3-.06.93s0,.43,0,1.14c0,3.58.53,14.93,6.61,25.16-4.63-4.65-11.68-14.28-12.17-30.28A.72.72,0,0,0,244.35,318.72Z" transform="translate(-224 -262.38)"/><path d="M261.25,316.22c-3.91,3.28-10.13,3.17-10.2,3.17a.7.7,0,0,0-.72.69.71.71,0,0,0,.69.73c.27,0,6.82.13,11.14-3.5a.71.71,0,0,0-.91-1.09Z" transform="translate(-224 -262.38)"/><path d="M266.38,324.26c-4.05,3.89-9.92,3.64-10,3.63a.71.71,0,1,0-.08,1.42c.26,0,6.53.3,11-4a.71.71,0,0,0,0-1A.69.69,0,0,0,266.38,324.26Z" transform="translate(-224 -262.38)"/><path d="M269.22,327.58a17.55,17.55,0,0,1-11.17,4.31.7.7,0,0,0-.72.69.71.71,0,0,0,.69.73,18.64,18.64,0,0,0,12.17-4.69.71.71,0,0,0,0-1A.7.7,0,0,0,269.22,327.58Z" transform="translate(-224 -262.38)"/><path d="M273,330.69c-2.89,4.1-8.79,3.54-8.85,3.54a.71.71,0,1,0-.15,1.41c.28,0,6.79.65,10.15-4.13a.71.71,0,0,0-.17-1A.69.69,0,0,0,273,330.69Z" transform="translate(-224 -262.38)"/><path d="M276.91,333.1c-1.93,3.57-7.65,3.62-7.71,3.62a.71.71,0,0,0,0,1.42c.27,0,6.62-.05,9-4.37a.71.71,0,0,0-.29-1A.7.7,0,0,0,276.91,333.1Z" transform="translate(-224 -262.38)"/><path d="M231.12,297.93a29.72,29.72,0,0,1,15.75-14.5c11.5-4.5,20-1.25,20-1.25s5.26-5.85,16-7c11.75-1.25,18.25,3,18.25,3s7.5-6.5,22-3.25c13.44,3,20.5,17,20.5,17s18.25-.5,26.25,12.75v69.75a41.44,41.44,0,0,1-27.5-7.5c-13.25-9.5-21.25-23.5-23-25.5S311.7,331.1,304.2,328.1a14.94,14.94,0,0,1,.84,6.67,8.09,8.09,0,0,1-3,5.83,3.25,3.25,0,0,1-.84-2.17c0-1.33-1.5-7-8.16-9.66,0,0,.5-.84,2.33-.5s5.83,2.83,7.5,9.33c0,0,1-6-.33-10.17s-4.84-6.5-6.17-8-3.67-5.5-2.67-9.33,3-4,4.67-3.83,5,1,5.17-1.67-1.17-3.17-3.34-2.67-3.33.17-3.66-1.33a3.08,3.08,0,0,1,.83-3.17c.83-1-.5-2.83-2.17-3.16a2.42,2.42,0,0,0-2.66,2.83c.33,1.33.5,4.17-1.5,5.5s-4.84,1.83-6.5,0a4.11,4.11,0,0,1,.66-6c1.84-1.5,3-3,2.5-5a2,2,0,0,0-3.5-1c-1,1.17-.66,2.5-.66,3.33s-2,3-4.67,3.5-4.33-1.5-4-3.16,1.67-2.84,2.33-4a2.49,2.49,0,0,0-1-3.67c-1.66-.83-3,.67-3.16,2.17a22,22,0,0,1-1.67,6c-.83,1.66-3.17,4.5-5.33,4.5s-4.5-1.84-3.17-4.5,3.33-3.5,2.83-5.67-3.5-2-5,.5-.66,4.67-.5,6.67,0,4.83-.5,5.83-1.5,1.17-1.16,2,0,2-2.5,3.33-5,1-5.67-3,2-10.16,2.67-11.83.33-2.17-1.34-2.33-2.66,4.83-3,6.5a18.79,18.79,0,0,1-2.33,6c-1,1.33-3.67,9-4.17,11.83s-1,13.33-1.5,16.17a10.65,10.65,0,0,1-2.33,5.5c-1,1.16-5.33,11.33-7,12.66S231.12,297.93,231.12,297.93Z" transform="translate(-224 -262.38)"/><path d="M287,330.43c-2.86.95-5,4.8-5.15,7.8-.1,1.6-.73,6.83-5,6.83a3,3,0,0,1-2.36-.86,3.5,3.5,0,0,1-.61-2.49l.29-1.9-1.45,1.26a9,9,0,0,1-6.15,1.82,6.52,6.52,0,0,1-5.07-3.74l-.41-.92-.74.7a3.79,3.79,0,0,1-3.07.63c-2.1-.27-3.62-3.25-3.63-3.28a.7.7,0,0,0-.95-.31.71.71,0,0,0-.32.95c.08.15,1.87,3.67,4.71,4.05a5.75,5.75,0,0,0,3.5-.52,7.73,7.73,0,0,0,5.87,3.86,10.32,10.32,0,0,0,6-1.38,4.18,4.18,0,0,0,.91,2.18,4.28,4.28,0,0,0,3.45,1.37c4.34,0,6.14-4.22,6.37-8.17.15-2.48,1.9-5.78,4.19-6.54,1.74-.58,3.12.41,4,1.07l.53.37c1.23.74,5.54,3.1,9.3,2.59a.71.71,0,0,0-.19-1.4c-3.39.46-7.57-1.93-8.38-2.41l-.43-.3C291.29,331,289.41,329.62,287,330.43Z" transform="translate(-224 -262.38)"/><path d="M281.83,338.22a19.12,19.12,0,0,0,1.57,8.28c1.05,2.87,1.81,4.94.06,7.35-3.56,4.92-8.81,1.48-9,1.33l-1-.69-.08,1.24c0,.23-.45,5.68-8.64,5.83-8.42.15-11.56-6-11.69-6.27l-.4-.82-.7.6c-.2.17-5.07,4.25-12.34-.08s-5.43-9.93-5.35-10.16a.72.72,0,0,0-.45-.9.71.71,0,0,0-.9.44c0,.07-2.25,6.93,6,11.84,6.58,3.92,11.57,1.52,13.31.41A14,14,0,0,0,264.72,363c7.26-.14,9.27-4.17,9.82-6.13,1.95.95,6.67,2.53,10.07-2.17,2.19-3,1.19-5.76.12-8.67a17.94,17.94,0,0,1-1.49-7.69.71.71,0,0,0-.66-.76A.7.7,0,0,0,281.83,338.22Z" transform="translate(-224 -262.38)"/><path d="M266.08,307.89A.71.71,0,0,0,267,309a10.6,10.6,0,0,1,7.32-1.68,13.91,13.91,0,0,1,7.73,3.47l.06.05.06,0c.28.18,1,.6,1.56.94-.41.27-.91.56-1.2.73l-.51.3a16.39,16.39,0,0,1-8.22.9c-4.3-.48-5.71-1.93-5.72-1.94a.72.72,0,0,0-1,0,.71.71,0,0,0-.06,1c.17.19,1.78,1.86,6.62,2.4,4.65.51,8.15-.52,9.11-1.1l.49-.28c1.8-1,2.43-1.47,2.43-2.07v-.09l0-.46-.51-.21A22.53,22.53,0,0,1,283,309.7a15.12,15.12,0,0,0-8.53-3.81A11.75,11.75,0,0,0,266.08,307.89Z" transform="translate(-224 -262.38)"/><path d="M277.54,307.27s2.66,1.5,2.66,3.5-1,3.5-3.66,3.83-6.67-.33-6.5-4.33S276,306.43,277.54,307.27Z" transform="translate(-224 -262.38)"/><path class="cls-2" d="M313.87,439.27a11.36,11.36,0,0,1-1.67-.84,4.47,4.47,0,0,0-2-.66,13,13,0,0,1,.29,2.41c0,1.13.38,2.13,1.38,1.75S313.87,439.27,313.87,439.27Z" transform="translate(-224 -262.38)"/><path class="cls-2" d="M316.62,442.56s-1.13,1-1.75,1.62-.63.75.87.38c0,0,2-.21,2.3-.71s.08-1.33-.5-1.33-1.42-.42-1.09-1l1.67-1.5a1.41,1.41,0,0,0,.17-.75c0-.5.33-7.09.25-7.59s-.42-1.83-.5-2.25.25-.58.75-.33a8.91,8.91,0,0,1,1.5,1.33,1.48,1.48,0,0,1,.33,1c-.08.5-.33,4.5-.33,4.75s.5.92.75.67l4.58-4.67c.25-.25.33-.66.67-.91s.66-.34,1.16.41,1,1.59,1,1.59-.08.91-.58,1.16-7.67,6-7.92,6.25-.58.59-.5,1,.17,1.34.17,1.34.5.5.92.16,3.58-2.08,3.91-2.25.17-.5.92-.25a3.57,3.57,0,0,1,1.67,2c.16.59-.09.67-.59.84s-3.5,2-3.5,2-.33.16.09.33a7.53,7.53,0,0,1,1.16.75s1.08.17.75.92a26.65,26.65,0,0,0-1.66,3.16,31.65,31.65,0,0,0-.84,6.34c0,.91.67,1.41,1.75,1.5a27.22,27.22,0,0,0,6.34-.09c1.66-.41,3.58-2.75,3.75-3.16a4.35,4.35,0,0,0,.25-1.34c0-.33.49-.25.91.17a35.71,35.71,0,0,1,2.17,4.42,1.55,1.55,0,0,1-.58,1.91,21,21,0,0,1-3.5,1.17c-1,.33-8.5.17-10.5-.17s-2.59-.83-2.67-2.83.17-7.67.17-7.67-.09-.83-.5-.66-3.09,3.25-3.84,3.91-6.33,6.09-6.91,6.34a14.9,14.9,0,0,1-3.34,0c-.41,0-.5-.59.17-.84a9.08,9.08,0,0,0,1.58-.83c.42-.25,9.59-10.58,9.84-11.17a3.69,3.69,0,0,0,.33-1.41.78.78,0,0,0-1.17-.5c-.58.33-3.58,2.41-4.25,2.75a3.41,3.41,0,0,1-2.25-.17c-.5-.17-.5-.67-.08-1.08s5.17-4.5,5.42-4.67S317.29,441.52,316.62,442.56Z" transform="translate(-224 -262.38)"/><path d="M252.54,424.1c-1.5-.17-5.5-5-4-9.33s5-4.34,5-4.34a6.19,6.19,0,0,1,5.33,2.67c2.17,3,.67,9.17-1.5,10.5A6.51,6.51,0,0,1,252.54,424.1Z" transform="translate(-224 -262.38)"/><path d="M239,406.1s-4.84,2.33-3.34,8.5,6,6.17,8.17,6,5.83-3.33,3.83-9.17S239.87,405.43,239,406.1Z" transform="translate(-224 -262.38)"/><path d="M231,417.93s2.33-1.66,6.5,1.5,4,8.5,3.16,9.84-6.5,2.33-9.66-1.84Z" transform="translate(-224 -262.38)"/><path d="M272.37,383.6a7.29,7.29,0,0,0,.67-9.67c-3.84-5.5-8.34-4.33-10.17-3.16s-3.33,6,.67,10S271.7,384.1,272.37,383.6Z" transform="translate(-224 -262.38)"/><path d="M278.37,373.1a7.05,7.05,0,0,0,1.67-7.5c-1.67-4.5-6.34-6.33-9.67-4.5s-2.67,6.5,0,9.33S276.2,374.1,278.37,373.1Z" transform="translate(-224 -262.38)"/><path d="M288.2,363.93s-4.5-3.33-2.5-10.83c1.68-6.29,6-6.67,9-5.5s5.5,5.5,2.67,10.67S289.2,364.77,288.2,363.93Z" transform="translate(-224 -262.38)"/><path d="M290.87,375.77a7.6,7.6,0,0,1,6.83-5.67c5.84-.67,7,3.5,7.17,4.33s-1.17,5-6.33,5S291.37,377.27,290.87,375.77Z" transform="translate(-224 -262.38)"/><path d="M288,388.77s1-5.5,7.83-6.67,9.33,3.5,9.33,4.67-1.16,5.66-7.66,6.33S288.37,390.6,288,388.77Z" transform="translate(-224 -262.38)"/><path d="M261,390.55a36.9,36.9,0,0,1,.49,4.72,35,35,0,0,0,.58,4.88,13.78,13.78,0,0,0-4.77,3.51l-.27.27-2.57,2.58.65.49c.08.06,2.05,1.53,3.73,2.54l1.32.82a10,10,0,0,0,2.37,1.26,2,2,0,0,1,.57.27c-.13.73-1.1,6.08-1.1,6.08l1.4.25,1.23-6.86-.26-.26a3.4,3.4,0,0,0-1.5-.85,12.06,12.06,0,0,1-2-1.09l-1.34-.83c-1.07-.64-2.23-1.47-2.95-2l1.42-1.42.28-.29c.81-.84,3-3.08,4.66-3.34l.72-.11-.14-.72a40.93,40.93,0,0,1-.65-5.2,31,31,0,0,0-.34-3.83c1,.3,2.38.76,3.37,1.15a28.55,28.55,0,0,1,8.71,7l.28.34.43-.1a60.88,60.88,0,0,1,7.73-1.15c3.69-.3,6.46-.54,8.15-.78l-.88,2.18c-.29.87-3.69,6.21-6.68,7.95l-.72.41.52.65a20.49,20.49,0,0,1,3,5.29l1.34-.48a21.11,21.11,0,0,0-2.83-5.11,25.6,25.6,0,0,0,6.67-8.26l1.83-4.56-1.34.32c-1.32.33-5.45.68-9.22,1a62.07,62.07,0,0,0-7.52,1.09,30,30,0,0,0-9-7.05c-1.68-.67-4.45-1.48-4.57-1.52l-1.08-.32Z" transform="translate(-224 -262.38)"/><path d="M274.79,414.36a25.55,25.55,0,0,1-3.51,4.17l.85,1.14a23.66,23.66,0,0,0,3.44-4,49.68,49.68,0,0,0,6.76,2.58l.41-1.36c-1.5-.45-5.67-1.83-7-2.73l-.58-.41Z" transform="translate(-224 -262.38)"/><polygon points="52.7 135.83 54.04 136.28 65.38 101.27 64.03 100.84 52.7 135.83"/><path d="M277.27,373s3,4.69,5,8.45l1.26-.66c-2-3.82-5-8.51-5-8.55Z" transform="translate(-224 -262.38)"/><path d="M271.82,383.54s3.53,4.38,7,9.14l1.15-.83c-3.47-4.79-7-9.15-7-9.2Z" transform="translate(-224 -262.38)"/><polygon points="55.66 128.21 56.08 129.56 65.56 126.74 65.18 125.37 55.66 128.21"/><path d="M283.59,378l.56,1.3a81.67,81.67,0,0,1,7.88-3l-.32-1.38A80.27,80.27,0,0,0,283.59,378Z" transform="translate(-224 -262.38)"/><path d="M230.53,350c.06.21,6.73,20.49,24.16,29.29-4.84.19-15.52-.29-23.52-7.21l-.93,1.08c11.12,9.6,26.58,7.43,27.23,7.33l2.52-.38-2.35-1C239,371.34,232,349.77,231.88,349.55Z" transform="translate(-224 -262.38)"/><path d="M230.35,367.58a44.37,44.37,0,0,0,24.92,12.56l.19-1.41c-14.55-1.94-24-12-24.07-12.11Z" transform="translate(-224 -262.38)"/><path d="M230.25,377.45A55.69,55.69,0,0,0,254.68,398c-4,1.16-14.39,3.37-23.66-1.2l-.63,1.27c12.3,6.07,26,.91,26.57.69l1.7-.65-1.7-.67a54.13,54.13,0,0,1-25.48-20.69Z" transform="translate(-224 -262.38)"/><path d="M230.26,389.66c.36.28,9,7,25.35,9.14l.19-1.4c-15.93-2.12-24.57-8.79-24.66-8.86Z" transform="translate(-224 -262.38)"/><path d="M302.08,371.12l.57,1.3a57.28,57.28,0,0,0,23.67-23l-1.24-.7A55.73,55.73,0,0,1,302.08,371.12Z" transform="translate(-224 -262.38)"/><path d="M303.61,374.4l.18,1.4a114.5,114.5,0,0,0,35.59-11.91l-.69-1.24A113.15,113.15,0,0,1,303.61,374.4Z" transform="translate(-224 -262.38)"/><path d="M303.16,372.92l.42,1.36c.18-.06,18.29-5.85,29.13-16.85l-1-1C321.12,367.18,303.33,372.87,303.16,372.92Z" transform="translate(-224 -262.38)"/><path d="M303.33,392.59l.22,1.39c.32,0,32.68-.73,57.25-19.65l-.86-1.12c-18.7,14.4-41.95,18.08-51.71,19,7.58-3.22,23.14-11.29,33.56-26.73l-1.18-.8C326.76,385.24,303.56,392.52,303.33,392.59Z" transform="translate(-224 -262.38)"/><path d="M306.53,392.08l.34,1.37c.28-.06,28.2-7,44.48-22l-1-1C334.38,385.11,306.81,392,306.53,392.08Z" transform="translate(-224 -262.38)"/><rect x="231.41" y="292.36" width="1.42" height="3.31" transform="translate(-366.09 14.5) rotate(-49.09)"/><rect x="232.74" y="287.76" width="1.42" height="6.02" transform="translate(-362.97 9.7) rotate(-48.37)"/><rect x="233.74" y="281.28" width="1.42" height="10.15" transform="translate(-355.71 -29.79) rotate(-42.34)"/><rect x="235.33" y="274.63" width="1.42" height="14.77" transform="translate(-351 -39.1) rotate(-40.88)"/><rect x="238.41" y="270.42" width="1.42" height="17.52" transform="translate(-347.08 -45.91) rotate(-39.6)"/><rect x="241.99" y="268.17" width="1.42" height="17.87" transform="translate(-341.43 -62.69) rotate(-36.65)"/><rect x="246.24" y="268.01" width="1.42" height="16.84" transform="translate(-338.95 -66.1) rotate(-35.74)"/><rect x="250.74" y="268.27" width="1.42" height="15.49" transform="translate(-331.72 -88.38) rotate(-31.81)"/><rect x="254.99" y="268.59" width="1.42" height="14.35" transform="translate(-329.02 -92.97) rotate(-30.73)"/><rect x="259.58" y="268.36" width="1.42" height="15.32" transform="translate(-328.53 -90.48) rotate(-30.75)"/><rect x="263.49" y="268.66" width="1.42" height="15.21" transform="translate(-318.37 -118.58) rotate(-26)"/><rect x="267.49" y="268.88" width="1.42" height="11.78" transform="translate(-315.26 -122.57) rotate(-25.12)"/><rect x="270.83" y="269.1" width="1.42" height="10.34" transform="translate(-303.62 -148.25) rotate(-20.77)"/><rect x="273.66" y="269.17" width="1.42" height="8.86" transform="translate(-300.45 -153.27) rotate(-19.8)"/><rect x="277.58" y="269.28" width="1.42" height="7.81" transform="translate(-288.88 -174.42) rotate(-16.11)"/><rect x="280.49" y="269.21" width="1.42" height="7.62" transform="matrix(0.98, -0.18, 0.18, 0.98, -267.45, -208.94)"/><rect x="283.74" y="269.41" width="1.42" height="8.04" transform="translate(-250.79 -231.45) rotate(-5.94)"/><rect x="286.83" y="269.43" width="1.42" height="6.67" transform="translate(-237.29 -247.65) rotate(-2.87)"/><rect x="289.99" y="269.58" width="1.42" height="7.2" transform="translate(-248.05 -234.29) rotate(-5.31)"/><rect x="293.24" y="269.41" width="1.42" height="8.04" transform="translate(-250.74 -230.46) rotate(-5.94)"/><rect x="296.74" y="269.41" width="1.42" height="8.87" transform="translate(-248.41 -233.22) rotate(-5.39)"/><rect x="300.08" y="269.27" width="1.42" height="12" transform="translate(-227.8 -258.17) rotate(-0.8)"/><rect x="79.49" y="7.05" width="1.42" height="8"/><rect x="302.68" y="272.81" width="8.21" height="1.42" transform="matrix(0.1, -0.99, 0.99, 0.1, -220.39, 288.65)"/><rect x="306.16" y="271.89" width="6.74" height="1.42" transform="translate(-229.88 275.99) rotate(-81.49)"/><rect x="309.05" y="271.81" width="6.31" height="1.42" transform="translate(-244.21 257.6) rotate(-77.78)"/><rect x="312.16" y="271.72" width="5.75" height="1.42" transform="translate(-231.94 273.03) rotate(-80.01)"/><rect x="315.41" y="271.56" width="5.59" height="1.42" transform="matrix(0.3, -0.95, 0.95, 0.3, -260.57, 232.41)"/><rect x="318.11" y="271.47" width="5.85" height="1.42" transform="translate(-268.47 218.49) rotate(-70.02)"/><rect x="321.01" y="272.22" width="7.38" height="1.42" transform="translate(-260.96 232.19) rotate(-71.55)"/><rect x="323.98" y="272.89" width="8.61" height="1.42" transform="translate(-243.12 260.09) rotate(-75.43)"/><rect x="326.16" y="273.31" width="9.91" height="1.42" transform="translate(-250.18 250.52) rotate(-73.38)"/><rect x="327.91" y="274.81" width="12.76" height="1.42" transform="translate(-252.95 249.18) rotate(-72.51)"/><rect x="330.35" y="275.64" width="15.2" height="1.42" transform="translate(-265.99 228.97) rotate(-68.78)"/><rect x="332.42" y="277.73" width="19.07" height="1.42" transform="translate(-268.64 228.19) rotate(-67.91)"/><rect x="333.75" y="279.14" width="23.57" height="1.42" transform="translate(-275.36 217.92) rotate(-65.8)"/><rect x="336.07" y="280.81" width="26.59" height="1.42" transform="translate(-269.75 231.72) rotate(-67.14)"/><rect x="340.51" y="280.47" width="26.39" height="1.42" transform="translate(-276.14 217.46) rotate(-64.57)"/><rect x="343.32" y="281.81" width="28.25" height="1.42" transform="translate(-275.44 221.11) rotate(-64.5)"/><rect x="347.88" y="283.31" width="26.48" height="1.42" transform="translate(-286.26 200.03) rotate(-61.03)"/><rect x="352.64" y="287.44" width="22.13" height="1.42" transform="translate(-307.19 150.63) rotate(-54)"/><rect x="358.41" y="292.89" width="13.91" height="1.42" transform="translate(-323.66 89.91) rotate(-45.98)"/><rect x="361.53" y="296.97" width="9.5" height="1.42" transform="translate(-329.59 24.86) rotate(-37.83)"/><polygon points="16.2 165.72 17.37 167.72 17.2 168.55 16.37 169.05 15.7 166.72 16.2 165.72"/><polygon points="19.87 158.22 21.2 164.22 22.54 163.06 20.54 156.22 19.87 158.22"/></svg>