<svg id="_11_3" xmlns="http://www.w3.org/2000/svg" viewBox="0 0 153.07 238.11"><defs><style>.cls-1{fill:#ed1c24;}.cls-2{fill:#fff;}.cls-3{fill:#0066b3;}</style></defs><title>_11_3</title><rect class="cls-1" width="153.07" height="238.11"/><path class="cls-2" d="M228.51,288.07V491.41s-1.33,10.16,12.17,10.16H352.85s9.5,0,9.5-11.83V289.57s-1.5-9.66-10.17-9.66H239.85S230.51,279.07,228.51,288.07Z" transform="translate(-218.96 -271.77)"/><path class="cls-3" d="M283.22,422.7s2.25,2.62,2.25,4.5,1.13,6.87,2.75,9a10.91,10.91,0,0,0-5,4.62c-1.5,3.13-3.25,7.88-4,9.25,0,0,3.25.25,5.25.25s9.25-1,11.13-3A30.51,30.51,0,0,0,298,453.7a10.56,10.56,0,0,0,3.38,3.87s1.5-3.87,2.75-6.62,2.75-7.25,2.25-9.25c0,0,6.87-1.38,9.62-3.25a12.76,12.76,0,0,0,4-4.5,6.75,6.75,0,0,1-3.87-1c-2.38-1.25-7.13-2.75-8.13-2.63,0,0,.75-12.62.63-13.25a37.19,37.19,0,0,1-3.25,3.25c-1.25,1-6.38,5.13-7,6.5C298.35,426.82,289,421.2,283.22,422.7Z" transform="translate(-218.96 -271.77)"/><path class="cls-3" d="M326.72,401.45a40.1,40.1,0,0,0-1.62,4.75,34.57,34.57,0,0,0-7-1.25,50.8,50.8,0,0,0-5.75-.13,43.14,43.14,0,0,1,.87,4.25c.25,1.88,2.63,4.88,4.13,6.63a28,28,0,0,0-3,4.25c-.88,1.75-2,4.12-2,4.12a4.52,4.52,0,0,0,1.62,0c1.25-.12,8.63-.62,11.63-1.5a16.07,16.07,0,0,0,3.5,5c2.37,2.25,9.5,5.25,9.5,5.25s-.13-3.62,0-4.87a32.85,32.85,0,0,0-.75-5.38s6.75-.87,10.25-3.25a52.23,52.23,0,0,1,5-3.12s-3.38-2.38-4.38-3.25-7.25-3.13-10.37-3.25c0,0,0-4.75-1.13-6.63Z" transform="translate(-218.96 -271.77)"/><path d="M229.51,383.07s9.34.34,14.67-4,7-11.33,8.33-18.33,6.67-25.67,10.34-32.33.66-12.34-.34-14.34-.33-1.33,2,.34,5,5,12.34,7.33a53.75,53.75,0,0,0,16.33,2.33c2.33,0,17,.34,29.33,9.67s12.67,15,16.34,19.33,11.66,10.34,24-2v35s-5.67,15.67-17.34,17.34-20.66-3.67-28.33-2.34c0,0-10,1-15,5.34-5.33,4.66-8.67,10-16.33,14.33s-20.34,4-30.34-5-20-24-21-26S229.51,383.07,229.51,383.07Z" transform="translate(-218.96 -271.77)"/><rect x="261.96" y="429.7" width="18.6" height="1.42" transform="translate(-455.19 122.86) rotate(-53.75)"/><path d="M266.6,436.82a21.93,21.93,0,0,0-9.5,2.5,91,91,0,0,0-11,8s.25,1.25,2.25,1,5.75-1.5,7.25-.25.75,3.75.25,6a36.79,36.79,0,0,0-.25,7s7-6.25,9.75-10S269.85,441.57,266.6,436.82Z" transform="translate(-218.96 -271.77)"/><path d="M263.6,428.32s0,4.25-5.5,8.5a24.09,24.09,0,0,1-11.5,4.75l-1.75-.5s.25-1,2.25-2,1.5-2.25-.25-2.75a45.11,45.11,0,0,1-7-2.25,25.71,25.71,0,0,0,4-3.5c1.5-1.75,2.25-2,.5-3.5a31.59,31.59,0,0,0-5.5-3.25,18.7,18.7,0,0,1,7-3C249.85,420.07,259.6,419.32,263.6,428.32Z" transform="translate(-218.96 -271.77)"/><path d="M262.6,428.07s7-3.75,8.25-5a3.37,3.37,0,0,1,2.75-1s-9.25,7.75-11.75,8.25S262.6,428.07,262.6,428.07Z" transform="translate(-218.96 -271.77)"/><path d="M302,422.48a19.66,19.66,0,0,0-3.93,3.79,20.58,20.58,0,0,0-6.43-3.61,18.63,18.63,0,0,0-9.12-1l-1.48.28,1.15,1a8.64,8.64,0,0,1,2.75,5.95c0,2.13,1.72,5.7,2.48,7.16-1.68.87-4.8,3.23-5.71,6.4a56.23,56.23,0,0,1-3.2,7.88l-.72,1.44,1.55-.44a14.07,14.07,0,0,1,3.36-.14,30.39,30.39,0,0,0,6.34-.35,21.62,21.62,0,0,0,6.21-2.38,54.69,54.69,0,0,0,2,5.23,13.08,13.08,0,0,0,4,4.78l1.64,1.15-.55-1.92a1.32,1.32,0,0,1,0-.41c0-1.06.84-2.78,1.88-4.9l1.63-3.46a13.72,13.72,0,0,0,1.31-5.6,9.54,9.54,0,0,0-.1-1.37,61.19,61.19,0,0,0,7.62-1.89c4-1.33,6.31-5.66,6.4-5.84l.65-1.23-1.37.19c-1.38.2-4.68-1-7.09-2.18a15.44,15.44,0,0,0-4.51-1.23c.14-1.09.65-4.79.65-4.79a52.23,52.23,0,0,0,.32-6.25c0-1.85-.06-3.26-.07-3.38l-1.41,0C307.94,417.32,304.4,420.85,302,422.48Zm-3.28,5.26a19.8,19.8,0,0,1,4.07-4.08,23.92,23.92,0,0,0,5.46-5.26v.27a48.71,48.71,0,0,1-.31,6.06L307,431l.75.07a15.68,15.68,0,0,1,4.74,1.18,26.72,26.72,0,0,0,6.56,2.28,10.73,10.73,0,0,1-5,4.16,61.51,61.51,0,0,1-8.14,2l-.83.14.28.8a6.15,6.15,0,0,1,.2,1.7,12.5,12.5,0,0,1-1.18,5l-1.62,3.41a22.41,22.41,0,0,0-1.89,4.63,10.81,10.81,0,0,1-2.45-3.3,60.12,60.12,0,0,1-2.22-5.91l-.28-.91-.79.52a20.37,20.37,0,0,1-6.49,2.65,28.11,28.11,0,0,1-6,.32c-.92,0-1.7,0-2.38,0a52.12,52.12,0,0,0,2.73-6.94c.91-3.2,4.67-5.55,5.49-5.76l.89-.22L289,436c-.74-1.34-2.66-5.26-2.66-7.16a10,10,0,0,0-2.22-5.92,18,18,0,0,1,7,1.09,17.3,17.3,0,0,1,6.47,3.81l.58.65Z" transform="translate(-218.96 -271.77)"/><path d="M300.94,458.09c.05.13,5.48,13.33,21.87,32l1.07-.93c-13.26-15.07-19.25-26.49-21-30.23A90.77,90.77,0,0,0,314,461l.14-1.41a100.83,100.83,0,0,1-12.39-2.48l-1.37-.37Z" transform="translate(-218.96 -271.77)"/><path d="M321.35,487.32a10.93,10.93,0,0,0,1.75,7.5c2.5,4,6.75,6.5,10.25,5s4-6.5,0-9.25S322.35,486.57,321.35,487.32Z" transform="translate(-218.96 -271.77)"/><path d="M308.6,482.57a28.33,28.33,0,0,0-7.25,4.75c-2.75,2.75-4.75,8.5.75,10.75s9.5-2.75,9.25-6.75S308.6,482.57,308.6,482.57Z" transform="translate(-218.96 -271.77)"/><path d="M293.85,468.57a18.57,18.57,0,0,0-8.75,5.25c-4,4.25-2.5,10.25,1.25,11.5s9.75-.5,9.75-7S294.6,467.57,293.85,468.57Z" transform="translate(-218.96 -271.77)"/><path d="M285.6,456.82a19.44,19.44,0,0,0-9.75,3.5c-4.25,3.25-4.5,7.75-.75,10.25a6.8,6.8,0,0,0,10.5-5.25C286.35,459.32,285.6,456.82,285.6,456.82Z" transform="translate(-218.96 -271.77)"/><path d="M312.1,459.32s-.25,5.25,7.75,5.75,9-2.5,9-5.25-2-5.25-7.75-5.25S312.1,457.82,312.1,459.32Z" transform="translate(-218.96 -271.77)"/><path d="M318.35,473.07s.75,5.25,8.75,6.75,9-3,8.75-5.25-3-6-8.75-5.75A12.1,12.1,0,0,0,318.35,473.07Z" transform="translate(-218.96 -271.77)"/><path d="M293,469.52l1.28.6c.22-.48,5.53-11.83,6-13.87l-1.37-.35C298.51,457.49,294.48,466.27,293,469.52Z" transform="translate(-218.96 -271.77)"/><path d="M283.6,457.82l1,1c1.26-1.27,7-8.51,7.3-8.81l-1.11-.89C290.73,449.21,284.8,456.62,283.6,457.82Z" transform="translate(-218.96 -271.77)"/><rect x="303.87" y="478.99" width="11.71" height="1.42" transform="translate(-455.47 374.25) rotate(-74.09)"/><path d="M310.51,473.28c.31,0,7.81,1,9.09,1v-1.41c-1,0-6.77-.72-8.91-1Z" transform="translate(-218.96 -271.77)"/><path d="M324.56,405.46a17.87,17.87,0,0,0-4.64-1.09,46.85,46.85,0,0,0-5.6-.14l-3.71,0,.65,1.11a7.27,7.27,0,0,1,1.21,2.77c0,.44.17,4.21,4.22,7.88-.62.71-2.21,2.49-2.21,2.49a14.91,14.91,0,0,0-2,3.77,11.22,11.22,0,0,1-1.1,2.2l.7,1.17a16,16,0,0,1,3.63-.63h0a78.24,78.24,0,0,0,9.5-1.55,10.22,10.22,0,0,0,3.75,4.91,69.33,69.33,0,0,0,7.51,4.48l3,1.7-.1-1.34s-.21-1.69-.21-3a6.9,6.9,0,0,1,.05-.84,19.26,19.26,0,0,0,.09-1.95,15.28,15.28,0,0,0-.47-4.09,36.16,36.16,0,0,0,7.81-2.24,31.46,31.46,0,0,0,5.08-3.2,10.25,10.25,0,0,1,1.38-1l1.1-.44-.91-.76c-.12-.11-3-2.54-4.71-3.71s-6.41-2.44-9.73-2.87a23.32,23.32,0,0,0-1.2-6.49l-1.3.56c.94,2.18,1.11,6.53,1.11,6.58l0,.61.62.07c3.07.32,8.13,1.63,9.66,2.7,1.13.79,2.87,2.2,3.87,3l-.76.55a29.16,29.16,0,0,1-4.84,3.06,38.39,38.39,0,0,1-8.3,2.27l-1.06.17.57.91a11,11,0,0,1,.64,4.37,15.21,15.21,0,0,1-.08,1.66,8,8,0,0,0-.05,1c0,.6,0,1.23.08,1.79l-.73-.41a70.56,70.56,0,0,1-7.34-4.38,8.48,8.48,0,0,1-3.39-4.72l-.13-.71-.73.14a87.82,87.82,0,0,1-9.84,1.65h0a11.86,11.86,0,0,0-2.41.3c.16-.34.31-.66.48-1.06a14.21,14.21,0,0,1,1.79-3.39l3.16-3.55-.57-.47c-4.19-3.46-4.24-7.13-4.24-7.29a5.92,5.92,0,0,0-.81-2.44l1.27,0a45.64,45.64,0,0,1,5.42.13A15.85,15.85,0,0,1,324.7,407l.83.41.18-.9c.11-.56,1.16-3.29,1.79-4.88l-1.31-.53C326.05,401.49,325,404,324.56,405.46Z" transform="translate(-218.96 -271.77)"/><path d="M335.85,441.74a13,13,0,0,0-5.67,3.33c-2.33,2.5-2.83,7,.33,10.67s8.5,2.33,10-.83S341,444.57,335.85,441.74Z" transform="translate(-218.96 -271.77)"/><path d="M363,447.41s-4.5,2.5-9.66-1.17-4.34-8.17-4.34-8.17a15.19,15.19,0,0,1,7.84-2.66,8.59,8.59,0,0,1,6.5,3.16Z" transform="translate(-218.96 -271.77)"/><path d="M363.18,432.41c-1,.66-5,1.5-9.5-.67s-4.17-5.17-4.17-5.17,1.34-2.33,5.34-2.83,8.33,1.83,8.33,1.83Z" transform="translate(-218.96 -271.77)"/><path d="M342.27,422.65c2.82,2,6.83,4.5,6.87,4.53l.75-1.21s-4-2.51-6.8-4.47Z" transform="translate(-218.96 -271.77)"/><path d="M338.06,430.29c.06,0,5.9,4.88,10.53,8.35l.85-1.13c-4.6-3.45-10.42-8.27-10.47-8.31Z" transform="translate(-218.96 -271.77)"/><rect x="330.75" y="436.78" width="10.52" height="1.42" transform="translate(-340.87 473.3) rotate(-86.36)"/><path d="M238.27,279.37A10.64,10.64,0,0,0,227.64,290V491.65a10.64,10.64,0,0,0,10.63,10.63H352.43a10.64,10.64,0,0,0,10.63-10.63V290a10.64,10.64,0,0,0-10.63-10.63Zm-9.21,212.28V290a9.23,9.23,0,0,1,9.21-9.22H352.43a9.23,9.23,0,0,1,9.21,9.22V491.65a9.23,9.23,0,0,1-9.21,9.22H238.27A9.23,9.23,0,0,1,229.06,491.65Z" transform="translate(-218.96 -271.77)"/></svg>