<svg id="_12_2" xmlns="http://www.w3.org/2000/svg" viewBox="0 0 153.07 238.11"><defs><style>.cls-1{fill:#ed1c24;}.cls-2{fill:#fff;}.cls-3{fill:#ffcb05;}</style></defs><title>_12_2</title><rect class="cls-1" width="153.07" height="238.11"/><path class="cls-2" d="M223.69,317.27V519.44s.16,9.16,9.66,9.66l119.84-.16s7.83-1.34,8.33-9.5l.33-179.84V314.77a11.23,11.23,0,0,0-10.66-9l-116.67.33s-8.5,0-10.67,7.67Z" transform="translate(-216.15 -298.55)"/><path class="cls-1" d="M246.44,407.44s-5.59-.25-8.75,4.08-.09,12.17,5.33,13.33,11.25-.58,12.08-7.33S248.94,407.1,246.44,407.44Z" transform="translate(-216.15 -298.55)"/><path class="cls-1" d="M283.19,419.77s-2.17.25-2.59.25a1,1,0,0,0-1.08.67,6.53,6.53,0,0,1-3.08,2.16.92.92,0,0,0-.92.75c0,.25-2.17,1-3.5,1.09a14.15,14.15,0,0,0-2.33.33s-.92,1.17-1.34,1.33.09,1.34.09,1.34.58,17.25-4.92,23.5l.25.75s8.92,15.29,16.29,31.54,12.38,30.62,15,45.75h1.5s2.88-24.88.88-43c0,0,22.12,19.5,32.37,42.87h2.88a232.3,232.3,0,0,0-7.25-35.75c-5.25-17.62-13.75-35.25-25.38-53.12,0,0-12.5-15.88-15.37-18.63Z" transform="translate(-216.15 -298.55)"/><path class="cls-3" d="M255,415.94a24,24,0,0,0,9.42-3.75c4.66-3.17,9.33-8.59,11.91-10.17s9.59-2.67,17.67-2.67a129.64,129.64,0,0,1,17.42,1.5s-4.84,2.34-5.34,2.42-.58.33-.58.58-1,3.17-5.42,4c0,0-1.16,4.42-5.5,5.09,0,0-1.58,4.66-7.91,4.25,0,0-1.09,2.83-6.5,2.83,0,0-.59,2.58-4.17,2.92,0,0-1.5,2.25-6.25,1.83,0,0-.92,1.08-1.17,1.33s-.16.92-.16.92.33,9.33-.67,12.83l-1.67-.41a5.45,5.45,0,0,1-5.58-.34,2.9,2.9,0,0,1-3.25.84s-1.5,1.17-2.67.83a4.61,4.61,0,0,1-4.08,2.5s-.33,4.5-5.5,3.42c0,0,.83,5.41-3.42,4.66,0,0,.59,6.34-2.5,6.09,0,0,2,5.25-2.5,5.58a7.79,7.79,0,0,1-2,3.92c-1.5,1.25-2.75,1.16-3.83.16s-4-6.25-4.08-8.5,1.91-7.75,4-10.25l5.75-10.58,8.16-12.58a8.87,8.87,0,0,0,7.42-2A8,8,0,0,0,255,415.94Z" transform="translate(-216.15 -298.55)"/><path d="M233.61,305.4A10.64,10.64,0,0,0,223,316V519.18a10.64,10.64,0,0,0,10.63,10.63H351.77a10.64,10.64,0,0,0,10.63-10.63V316a10.64,10.64,0,0,0-10.63-10.63Zm-9.22,213.78V316a9.24,9.24,0,0,1,9.22-9.22H351.77A9.23,9.23,0,0,1,361,316V519.18a9.23,9.23,0,0,1-9.21,9.22H233.61A9.24,9.24,0,0,1,224.39,519.18Z" transform="translate(-216.15 -298.55)"/><path d="M236.15,414.85c-.54,4.44,1.18,7.08,2.73,8.52A10.69,10.69,0,0,0,248,425.8c4.89-1,7.72-4.32,7.72-8.91a12.71,12.71,0,0,0-.16-1.9,9.65,9.65,0,0,0-9.36-8.43C245.87,406.55,237.2,406.24,236.15,414.85Zm3.69,7.48a8.15,8.15,0,0,1-2.28-7.31c.9-7.39,8.27-7.06,8.59-7h0a8.23,8.23,0,0,1,8,7.23c.75,4.81-1.65,8.24-6.44,9.2A9.25,9.25,0,0,1,239.84,422.33Zm6.35-15.77h0Z" transform="translate(-216.15 -298.55)"/><path d="M253,403.64c-1.94,1-7.69,2.94-7.75,3l.46,1.34c.24-.08,5.9-2,7.92-3,1.2-.6,3.6-.57,6.1-.24a14.51,14.51,0,0,0-2.42,1l-2.51,1.44a11.58,11.58,0,0,1-2.92,1.48l.2,1.4a11.33,11.33,0,0,0,3.45-1.66L258,406.9a17.22,17.22,0,0,1,5.41-1.59l.09-1.4C259.9,403.05,255.25,402.53,253,403.64Z" transform="translate(-216.15 -298.55)"/><path d="M281.21,399.74c-5.64,1.13-9.37,4.72-12.67,7.88a47.73,47.73,0,0,1-3.62,3.26,27.52,27.52,0,0,1-10,4.53.71.71,0,0,0,.28,1.39,28.56,28.56,0,0,0,10.63-4.8c1.26-1,2.46-2.14,3.73-3.36,3.31-3.18,6.74-6.46,12-7.51,7.16-1.43,17.3-1.39,28.07.05a24.11,24.11,0,0,1-17.49,1.08.71.71,0,0,0-.44,1.35,25.09,25.09,0,0,0,20.61-2.25l1.54-1-1.82-.27C300.05,398.27,289.13,398.16,281.21,399.74Z" transform="translate(-216.15 -298.55)"/><path d="M305.17,403.41a5.58,5.58,0,0,1-4,3.51c-3.69,1-11.7.37-16.51-1.95a.71.71,0,1,0-.62,1.27c5.16,2.5,13.49,3.14,17.5,2.05a7,7,0,0,0,5-4.5.71.71,0,0,0-1.37-.38Z" transform="translate(-216.15 -298.55)"/><path d="M299.52,407.86a7.71,7.71,0,0,1-5.18,4.39c-2.78.75-7.83-.25-14.22-2.8a.71.71,0,1,0-.53,1.31c4.72,1.89,11.18,3.92,15.11,2.86a9.17,9.17,0,0,0,6.15-5.27.7.7,0,0,0-.42-.91A.71.71,0,0,0,299.52,407.86Z" transform="translate(-216.15 -298.55)"/><path d="M293.84,412.75c0,.14-1,3.35-6.19,3.65-5.59.32-11.06-2.92-11.75-3.75a.71.71,0,0,0-1.09.91c.92,1.11,6.76,4.6,12.92,4.25s7.43-4.52,7.48-4.69a.71.71,0,0,0-.51-.86A.7.7,0,0,0,293.84,412.75Z" transform="translate(-216.15 -298.55)"/><path d="M269.55,416.47a.7.7,0,0,0,.33.94c.29.14,7.19,3.4,11.14,3.4a7.87,7.87,0,0,0,6.24-2.79.71.71,0,0,0-1.14-.84,6.46,6.46,0,0,1-5.1,2.22c-3.63,0-10.46-3.24-10.53-3.27A.7.7,0,0,0,269.55,416.47Z" transform="translate(-216.15 -298.55)"/><path d="M265.46,418.17a.71.71,0,0,0,.12,1c.23.18,5.58,4.32,9.94,4.32,4.78,0,5-3.47,5-3.5a.71.71,0,0,0-1.41-.09c0,.22-.28,2.17-3.63,2.17-3.87,0-9-4-9.06-4A.7.7,0,0,0,265.46,418.17Z" transform="translate(-216.15 -298.55)"/><path d="M262,420.66a.7.7,0,0,0,.1,1c.19.16,4.74,3.82,9.09,4,2.88.11,4.11-.89,4.65-1.73,4.35,3.63,29.63,26.21,49.47,76.69,0,.1,4.21,12.67,4.45,16a.71.71,0,0,0,1.41-.11c-.25-3.54-4.36-15.9-4.53-16.42-21.83-55.58-50.38-77.71-50.66-77.92a.7.7,0,0,0-.71-.08.73.73,0,0,0-.43.58c0,.06-.24,1.65-3.6,1.52-3.87-.15-8.2-3.64-8.24-3.68A.71.71,0,0,0,262,420.66Z" transform="translate(-216.15 -298.55)"/><path d="M257,422.66a.7.7,0,0,0,.1,1,18.19,18.19,0,0,0,8.2,3.66,5.46,5.46,0,0,0,4.17-.8,2.53,2.53,0,0,0,.95-1.69.69.69,0,0,0-.64-.74.71.71,0,0,0-.77.62c0,.07-.23,1.6-3.54,1.2a17.09,17.09,0,0,1-7.47-3.34A.7.7,0,0,0,257,422.66Z" transform="translate(-216.15 -298.55)"/><path d="M254.88,425.24a.7.7,0,0,0,0,1c.12.14,3.07,3.39,7,3.57a4.28,4.28,0,0,0,3.38-1,3.05,3.05,0,0,0,.86-2.21.7.7,0,0,0-.74-.66.71.71,0,0,0-.67.74,1.71,1.71,0,0,1-.47,1.15,3,3,0,0,1-2.3.61c-3.31-.15-6-3.07-6-3.1A.71.71,0,0,0,254.88,425.24Z" transform="translate(-216.15 -298.55)"/><path d="M249.94,426.19a.72.72,0,0,0,.17,1c4.07,2.92,7.42,4.16,9.94,3.69a3.67,3.67,0,0,0,2.4-1.38.69.69,0,0,0-.2-1,.71.71,0,0,0-1,.18,2.46,2.46,0,0,1-1.56.78c-1.46.24-4.18-.16-8.78-3.46A.71.71,0,0,0,249.94,426.19Z" transform="translate(-216.15 -298.55)"/><path d="M289.37,399.48a6.81,6.81,0,0,1-4.32,3.6,68.66,68.66,0,0,1-8.39.82.71.71,0,0,0,0,1.41,64,64,0,0,0,8.62-.84,8.18,8.18,0,0,0,5.34-4.41.71.71,0,0,0-1.3-.58Z" transform="translate(-216.15 -298.55)"/><path d="M283.68,404.22a4.75,4.75,0,0,1-3.79,2.85,15.53,15.53,0,0,1-6.5-.31.71.71,0,0,0-.88.47.72.72,0,0,0,.47.89,16.86,16.86,0,0,0,7.17.35,6.14,6.14,0,0,0,4.88-3.82.7.7,0,0,0-.46-.88A.71.71,0,0,0,283.68,404.22Z" transform="translate(-216.15 -298.55)"/><path d="M279.34,407.59c0,.15-1.16,3.84-8,2.65a.71.71,0,0,0-.25,1.4c8.22,1.42,9.59-3.48,9.65-3.69a.71.71,0,0,0-.51-.86A.7.7,0,0,0,279.34,407.59Z" transform="translate(-216.15 -298.55)"/><path d="M275,410.59a.72.72,0,0,0-.49.87,1.68,1.68,0,0,1-.37,1.47c-.53.62-2.13,1.56-6.86,1a.71.71,0,0,0-.17,1.41c4.12.51,6.86,0,8.13-1.48a3.17,3.17,0,0,0,.64-2.76A.72.72,0,0,0,275,410.59Z" transform="translate(-216.15 -298.55)"/><path d="M268.36,425.9a.71.71,0,0,0-.63.78c0,.14,1.4,13.89-4.9,24.31l-.22.37.22.37c.26.42,26,42.29,31.41,77.23a.7.7,0,0,0,.8.59.71.71,0,0,0,.61-.69s0-.08,0-.11c-5.21-33.61-29-73.45-31.39-77.42,4.33-7.41,5.05-16.09,5.05-21,0-2.21-.14-3.64-.16-3.82A.71.71,0,0,0,268.36,425.9Z" transform="translate(-216.15 -298.55)"/><path d="M287.74,435.17a.7.7,0,0,0-.48.88c15.51,53.69,8.55,92.54,8.48,92.92a.71.71,0,1,0,1.39.26c.08-.38,7.1-39.54-8.51-93.57A.72.72,0,0,0,287.74,435.17Z" transform="translate(-216.15 -298.55)"/><path d="M282.4,419.64a.71.71,0,0,0,.07,1c.19.16,18.84,16.54,33.32,49.5C330.07,502.63,332,528.64,332,528.9a.71.71,0,0,0,.75.66.69.69,0,0,0,.66-.75c0-.26-1.92-26.51-16.3-59.24-14.62-33.27-33.5-49.84-33.69-50A.7.7,0,0,0,282.4,419.64Z" transform="translate(-216.15 -298.55)"/><path d="M280.21,426.93a.72.72,0,0,0-.45.9,393.41,393.41,0,0,1,12,46.4c4.19,22.91,3.74,54,3.74,54.36a.71.71,0,0,0,1.41,0c0-.32.46-31.59-3.76-54.64a396,396,0,0,0-12-46.6A.72.72,0,0,0,280.21,426.93Z" transform="translate(-216.15 -298.55)"/><path d="M296.92,485.36a.71.71,0,0,0,0,1c24.33,23.34,32,42.55,32.08,42.74a.69.69,0,0,0,.91.4.7.7,0,0,0,.41-.91c-.08-.2-7.84-19.67-32.42-43.26A.72.72,0,0,0,296.92,485.36Z" transform="translate(-216.15 -298.55)"/><path d="M293.44,442.44a.72.72,0,0,0-.42.91c.06.16,6,16.22,5.71,43.5a.71.71,0,0,0,1.41,0c.25-27.56-5.73-43.84-5.79-44A.71.71,0,0,0,293.44,442.44Z" transform="translate(-216.15 -298.55)"/><path d="M299,448.92a.7.7,0,0,0-.52.85A161.48,161.48,0,0,1,302,486.59a.71.71,0,1,0,1.41,0,162.9,162.9,0,0,0-3.51-37.18A.71.71,0,0,0,299,448.92Z" transform="translate(-216.15 -298.55)"/><path d="M303.8,455.91a.71.71,0,0,0-.56.83,143.85,143.85,0,0,1,2,31.57.71.71,0,0,0,1.41.09,145.06,145.06,0,0,0-2-31.93A.7.7,0,0,0,303.8,455.91Z" transform="translate(-216.15 -298.55)"/><path d="M307.59,462.9a.71.71,0,0,0-.61.8c0,.17,2.24,16.84,1.75,29.38a.71.71,0,1,0,1.41.05c.5-12.66-1.73-29.45-1.75-29.62A.71.71,0,0,0,307.59,462.9Z" transform="translate(-216.15 -298.55)"/><path d="M311.33,468.9a.7.7,0,0,0-.59.81c3.17,21-.18,30.3-.22,30.39a.72.72,0,0,0,.42.92.71.71,0,0,0,.91-.41c.15-.39,3.53-9.67.29-31.11A.72.72,0,0,0,311.33,468.9Z" transform="translate(-216.15 -298.55)"/><path d="M315.07,476.41a.7.7,0,0,0-.58.81c0,.2,3.17,19.62-.44,27.08a.7.7,0,0,0,1.27.61c3.81-7.86.7-27.11.57-27.92A.71.71,0,0,0,315.07,476.41Z" transform="translate(-216.15 -298.55)"/><path d="M318.85,484.15a.72.72,0,0,0-.62.79c0,.17,1.95,17.17-.71,24.42a.72.72,0,0,0,.42.91.71.71,0,0,0,.91-.42c2.78-7.57.87-24.37.79-25.08A.71.71,0,0,0,318.85,484.15Z" transform="translate(-216.15 -298.55)"/><path d="M321.58,490.65a.72.72,0,0,0-.59.81c0,.15,2.18,14.14-.95,21.36a.7.7,0,0,0,.36.93.71.71,0,0,0,.94-.36c3.29-7.6,1.14-21.56,1.05-22.15A.72.72,0,0,0,321.58,490.65Z" transform="translate(-216.15 -298.55)"/><path d="M325.9,499.65a.71.71,0,0,0-.67.74c0,.14.72,13.38-1.19,17.68a.71.71,0,0,0,1.29.57c2.05-4.6,1.34-17.77,1.31-18.32A.69.69,0,0,0,325.9,499.65Z" transform="translate(-216.15 -298.55)"/><path d="M329.48,513.58c-.1,3.27-.79,8.94-2.26,10.25a.7.7,0,0,0-.06,1,.71.71,0,0,0,1,0c2.41-2.14,2.71-10.33,2.73-11.26a.69.69,0,0,0-.68-.72A.7.7,0,0,0,329.48,513.58Z" transform="translate(-216.15 -298.55)"/><path d="M289.64,464.66l-5.5,6.75a.71.71,0,0,0,1.1.89l5.5-6.75a.71.71,0,0,0-.11-1A.7.7,0,0,0,289.64,464.66Z" transform="translate(-216.15 -298.55)"/><path d="M290.92,469.37l-11.25,12a.71.71,0,1,0,1,1l11.25-12a.71.71,0,0,0-1-1Z" transform="translate(-216.15 -298.55)"/><path d="M292,474.83l-11.25,10a.7.7,0,0,0-.06,1,.71.71,0,0,0,1,.05l11.25-10a.71.71,0,0,0,.06-1A.7.7,0,0,0,292,474.83Z" transform="translate(-216.15 -298.55)"/><path d="M292.9,479.9l-10.5,8.83a.71.71,0,0,0-.09,1,.7.7,0,0,0,1,.08l10.5-8.83a.71.71,0,0,0,.09-1A.7.7,0,0,0,292.9,479.9Z" transform="translate(-216.15 -298.55)"/><path d="M293.37,484.59c-3.34,3.15-8.8,8.26-9.25,8.6a.72.72,0,0,0-.17,1,.69.69,0,0,0,1,.19c.51-.34,7.35-6.78,9.43-8.74a.71.71,0,0,0,0-1A.7.7,0,0,0,293.37,484.59Z" transform="translate(-216.15 -298.55)"/><path d="M294.39,489.07l-8.83,7.67a.71.71,0,0,0-.08,1,.72.72,0,0,0,1,.07l8.84-7.67a.72.72,0,0,0,.07-1A.7.7,0,0,0,294.39,489.07Z" transform="translate(-216.15 -298.55)"/><path d="M294.41,494.55l-7.17,5.84a.71.71,0,0,0,.89,1.1l7.17-5.84a.71.71,0,0,0-.89-1.1Z" transform="translate(-216.15 -298.55)"/><path d="M294.58,499.05l-6.33,5a.7.7,0,0,0-.12,1,.71.71,0,0,0,1,.12l6.33-5a.7.7,0,0,0,.12-1A.71.71,0,0,0,294.58,499.05Z" transform="translate(-216.15 -298.55)"/><path d="M294.92,503.37l-5.5,4.17a.71.71,0,0,0,.86,1.13l5.5-4.17a.71.71,0,0,0,.14-1A.72.72,0,0,0,294.92,503.37Z" transform="translate(-216.15 -298.55)"/><path d="M295.06,507.89l-4.16,3.5a.71.71,0,1,0,.91,1.09L296,509a.71.71,0,0,0-.92-1.09Z" transform="translate(-216.15 -298.55)"/><path d="M295.45,512.86l-3.83,2.66a.71.71,0,0,0,.8,1.17l3.84-2.67a.71.71,0,0,0,.17-1A.69.69,0,0,0,295.45,512.86Z" transform="translate(-216.15 -298.55)"/><path d="M295.65,517.67l-3,1.83a.71.71,0,1,0,.74,1.21l3-1.83a.71.71,0,0,0,.23-1A.7.7,0,0,0,295.65,517.67Z" transform="translate(-216.15 -298.55)"/><path d="M280.29,426.23a.71.71,0,0,0-.64.77c0,.42,3.66,42.37,3.83,47.63a.71.71,0,0,0,1.41-.05c-.16-5.29-3.68-46-3.83-47.7A.72.72,0,0,0,280.29,426.23Z" transform="translate(-216.15 -298.55)"/><path d="M275.15,423.17c-.17,1.19,3.72,40.47,4.5,48.34a.7.7,0,0,0,.77.63.71.71,0,0,0,.64-.77c-1.85-18.6-4.57-46.73-4.5-48a.73.73,0,0,0-.64-.76A.71.71,0,0,0,275.15,423.17Z" transform="translate(-216.15 -298.55)"/><path d="M271.8,424.57a.71.71,0,0,0-.65.76c0,.35,2.83,35.16,2.83,37.11a.71.71,0,1,0,1.41,0c0-2-2.72-35.79-2.83-37.23A.69.69,0,0,0,271.8,424.57Z" transform="translate(-216.15 -298.55)"/><path d="M268.55,433.58a.71.71,0,0,0-.56.83c.13.68,1.36,14.08,2.16,22.92a.71.71,0,1,0,1.41-.12c-.21-2.27-2-22.23-2.18-23.08A.71.71,0,0,0,268.55,433.58Z" transform="translate(-216.15 -298.55)"/><path d="M239.28,431.86c-1.44,2-3.79,6.18-5.68,9.55l-2.18,3.81-.29.45c-1.46,2.27-4.5,7-5,11-.55,4.56,3.25,10.3,4.93,11.64a2.46,2.46,0,0,0,2.48.33,6.4,6.4,0,0,0,3.49-4.77.71.71,0,1,0-1.39-.24,5.06,5.06,0,0,1-2.6,3.68,1,1,0,0,1-1.1-.11c-1.53-1.23-4.86-6.55-4.4-10.36s3.47-8.41,4.77-10.42l.29-.45,2.22-3.88c1.77-3.17,4.2-7.5,5.59-9.42l4.85-7a.72.72,0,0,1-1,.18.69.69,0,0,1-.18-1Z" transform="translate(-216.15 -298.55)"/><path d="M230.65,446.67c0,.3-1,7.41,1,12.53s4.39,4.91,6.39,4.24a2.55,2.55,0,0,0,1.46-1.4,6.87,6.87,0,0,0,.15-4.84.71.71,0,0,0-1.34.48,5.41,5.41,0,0,1-.09,3.75,1.25,1.25,0,0,1-.63.67c-1.41.47-2.87.95-4.62-3.43-1.9-4.76-1-11.73-1-11.8a.7.7,0,0,0-.6-.8A.72.72,0,0,0,230.65,446.67Z" transform="translate(-216.15 -298.55)"/><path d="M232.93,443.23a.71.71,0,0,0-.61.8c0,.27.86,6.8,2.55,10.85.91,2.18,2.57,3.39,4.44,3.23a3.16,3.16,0,0,0,2.9-2.35,8.82,8.82,0,0,0,0-4.19.71.71,0,0,0-1.36.4,7.64,7.64,0,0,1,0,3.48,1.79,1.79,0,0,1-1.64,1.25c-1.23.1-2.35-.78-3-2.37-1.61-3.86-2.44-10.41-2.45-10.48A.72.72,0,0,0,232.93,443.23Z" transform="translate(-216.15 -298.55)"/><path d="M236,437.9a.72.72,0,0,0-.65.77,31,31,0,0,0,2.75,9.93c1.49,2.87,3.1,3.52,4.18,3.56a2.87,2.87,0,0,0,2.55-1.35c.92-1.48.79-4.12.77-4.42a.71.71,0,1,0-1.41.09,7.7,7.7,0,0,1-.56,3.58,1.47,1.47,0,0,1-1.29.69c-.58,0-1.75-.42-3-2.81a29.51,29.51,0,0,1-2.59-9.4A.71.71,0,0,0,236,437.9Z" transform="translate(-216.15 -298.55)"/><path d="M239.5,432.4a.71.71,0,0,0-.69.73,34.12,34.12,0,0,0,2.05,10.07,6.69,6.69,0,0,0,4,4.23,5.32,5.32,0,0,0,4.37-.39,4.27,4.27,0,0,0,1.84-3.82.71.71,0,0,0-.76-.65.69.69,0,0,0-.65.75,2.93,2.93,0,0,1-1.16,2.51,4,4,0,0,1-3.18.26,5.45,5.45,0,0,1-3.13-3.41,32.93,32.93,0,0,1-2-9.6A.7.7,0,0,0,239.5,432.4Z" transform="translate(-216.15 -298.55)"/><path d="M242,429.06a.71.71,0,0,0-.69.73c0,.28.21,7,4,11.44,3.28,3.82,7.15,2.81,8.24,2.15a3.66,3.66,0,0,0,1.34-2.53.71.71,0,0,0-1.41-.16c0,.38-.26,1.24-.66,1.47-.67.41-3.74,1.28-6.43-1.85-3.46-4-3.66-10.49-3.66-10.56A.71.71,0,0,0,242,429.06Z" transform="translate(-216.15 -298.55)"/><path d="M243.8,425.93a.7.7,0,0,0-.45.89c.11.35,2.76,8.38,6.68,12.13,4.79,4.58,8,1.46,8.16,1.32a.71.71,0,0,0-1-1c-.09.1-2.37,2.29-6.17-1.34s-6.29-11.47-6.32-11.55A.71.71,0,0,0,243.8,425.93Z" transform="translate(-216.15 -298.55)"/><path d="M249.53,423.91a.71.71,0,0,0-.53.85c.07.33,1.89,8.18,4.92,12.89,1.18,1.83,2.5,2.84,3.94,3a3.92,3.92,0,0,0,3-1,.71.71,0,1,0-1-1,2.49,2.49,0,0,1-1.86.63c-1-.11-2-.9-2.88-2.34-2.9-4.51-4.72-12.36-4.74-12.44A.72.72,0,0,0,249.53,423.91Z" transform="translate(-216.15 -298.55)"/><path d="M256,429.09a.73.73,0,0,0-.49.88,34.92,34.92,0,0,0,3.76,8.36,5.08,5.08,0,0,0,4.16,2.54,4.17,4.17,0,0,0,3.17-1.17.7.7,0,0,0-.14-1,.73.73,0,0,0-1,.11,3,3,0,0,1-2.06.62,3.79,3.79,0,0,1-2.95-1.92,33.37,33.37,0,0,1-3.57-8A.71.71,0,0,0,256,429.09Z" transform="translate(-216.15 -298.55)"/><path d="M260.06,429.41a.7.7,0,0,0-.57.82c.06.31,1.47,7.57,7.74,10.35a.71.71,0,1,0,.58-1.29c-5.58-2.48-6.91-9.25-6.93-9.32A.7.7,0,0,0,260.06,429.41Z" transform="translate(-216.15 -298.55)"/><path d="M262.15,428.67a.7.7,0,0,0-.23,1c.33.56,3.4,5.44,6.26,6.15a.7.7,0,0,0,.86-.51.71.71,0,0,0-.52-.86c-1.95-.49-4.56-4.15-5.4-5.52A.7.7,0,0,0,262.15,428.67Z" transform="translate(-216.15 -298.55)"/><path d="M245.85,413.77s-2.33.5-2.33,2.5a2.65,2.65,0,0,0,2.83,2.67c1.17,0,2.5-.34,2.34-2.5S246.69,413.44,245.85,413.77Z" transform="translate(-216.15 -298.55)"/><path d="M223.69,443.35s4.5-27.75,16-42.5,26-23,37.75-43.25,18-40.5,3.25-51.25H239.94s-12.26,5-16,18.25Z" transform="translate(-216.15 -298.55)"/><path d="M305.44,306.35s-8.5,5.25-11.5,23.25,6,31,18.25,42.75,20.5,12.75,26.25,36a69.68,69.68,0,0,1-3.5,42.75s8-6.75,10.25-13c0,0,2.5,7.5.75,21s-8,48.25.75,69.75l6.75.25,2.5-.5s-6-10.5-6.25-28.5,4.75-33.25,4.75-48.5-4.25-25.25-4.25-25.25,9.5-16,11.5-24.75l-.25-61.75s-9.25-26.5-30.5-33.5Z" transform="translate(-216.15 -298.55)"/><path d="M251,387.08c0,.14,2.83,13.82,3,16.73l1.41-.08c-.16-3-2.89-16.37-3-16.93Z" transform="translate(-216.15 -298.55)"/><polygon points="38.49 109.07 38.66 117.22 40.08 117.22 39.91 109.04 38.49 109.07"/><path d="M256,382.5a65.9,65.9,0,0,1,3.12,21.41l1.42.06a67.5,67.5,0,0,0-3.2-21.93Z" transform="translate(-216.15 -298.55)"/><path d="M257.66,414.94l1.38.32a90.19,90.19,0,0,0,1.52-9.76l-1.41-.13A88.33,88.33,0,0,1,257.66,414.94Z" transform="translate(-216.15 -298.55)"/><path d="M261,377c5.38,17.46,2.51,35,2.48,35.17l1.39.24c0-.18,3-18-2.52-35.83Z" transform="translate(-216.15 -298.55)"/><path d="M267.31,370.56a24.34,24.34,0,0,1,4.5,12.44c.47,5.58,0,14-.21,18.51-.16,3.09-.17,3.4-.09,3.65l1.37-.35c0-.24.05-1.69.13-3.22.24-4.56.69-13,.22-18.71a25.28,25.28,0,0,0-4.83-13.23Z" transform="translate(-216.15 -298.55)"/><path d="M272.93,362.82A41.33,41.33,0,0,1,279,383c.33,6.73-.33,17.81-.33,17.92l1.41.09c0-.11.67-11.27.33-18.08a42.6,42.6,0,0,0-6.28-20.85Z" transform="translate(-216.15 -298.55)"/><path d="M276.89,356.31a22.73,22.73,0,0,1,6.75,15.82l.18,5.84c.24,8.8.48,17.12,1.16,22.07l1.41-.2c-.68-4.87-.91-13.15-1.16-21.91l-.17-5.85a23.84,23.84,0,0,0-7.25-16.85Z" transform="translate(-216.15 -298.55)"/><path d="M281.69,346.94c7.76,7.62,8.42,19.11,8.89,27.5l.23,3.56c.66,8.09,2.49,21.4,2.51,21.53l1.4-.19c0-.13-1.84-13.41-2.49-21.46l-.23-3.52c-.49-8.62-1.17-20.43-9.32-28.43Z" transform="translate(-216.15 -298.55)"/><path d="M284.21,373.3a.72.72,0,0,0-.33.95c.07.15,7.17,14.67,8.31,17.77a.72.72,0,0,0,.91.42.72.72,0,0,0,.42-.91c-1.17-3.17-8.07-17.3-8.36-17.9A.71.71,0,0,0,284.21,373.3Z" transform="translate(-216.15 -298.55)"/><path d="M286.21,335.49a.7.7,0,0,0,.36.93c.05,0,4.57,2.16,7.26,14.67a108.39,108.39,0,0,1,2.18,18,58.32,58.32,0,0,0,1.15,10.21l2,7.2c1.38,4.77,2.8,9.7,3,13.18a.71.71,0,0,0,1.41-.09c-.23-3.63-1.67-8.64-3.06-13.49l-2-7.13a56.83,56.83,0,0,1-1.12-10,110.58,110.58,0,0,0-2.21-18.19c-2.88-13.38-7.87-15.59-8.09-15.67A.7.7,0,0,0,286.21,335.49Z" transform="translate(-216.15 -298.55)"/><path d="M295.77,362.53a.72.72,0,0,0-.16,1,53.85,53.85,0,0,1,8,22.18.71.71,0,1,0,1.41-.19,54.36,54.36,0,0,0-8.3-22.82A.71.71,0,0,0,295.77,362.53Z" transform="translate(-216.15 -298.55)"/><path d="M310.21,370.31l-2,4.33c-1.91,4.14-8.92,10.2-9,10.26a.71.71,0,0,0-.07,1,.7.7,0,0,0,1,.07c.3-.25,7.31-6.31,9.35-10.74l2-4.33a.71.71,0,1,0-1.29-.59Z" transform="translate(-216.15 -298.55)"/><path d="M311.81,371.77c0,12.18-10.48,21.2-10.58,21.29a.71.71,0,0,0,.91,1.09c.46-.39,11.09-9.53,11.09-22.38a.71.71,0,1,0-1.42,0Z" transform="translate(-216.15 -298.55)"/><path d="M324.38,381.47c-.11.24-2.73,6-.73,20.73a.71.71,0,1,0,1.41-.19c-1.94-14.21.58-19.88.6-19.94a.71.71,0,0,0-1.28-.6Z" transform="translate(-216.15 -298.55)"/><path d="M323.08,389.55a10.88,10.88,0,0,0-3.43,8.74,25.65,25.65,0,0,0,1.83,7c1.79,5.1,4.25,12.08,3.17,21.39a.71.71,0,0,0,.62.79.72.72,0,0,0,.79-.63c1.12-9.63-1.41-16.79-3.25-22a25.21,25.21,0,0,1-1.75-6.58,9.53,9.53,0,0,1,2.9-7.59.71.71,0,0,0-.88-1.11Z" transform="translate(-216.15 -298.55)"/><path d="M322.22,406.74c-.2.18-4.79,4.38-2.9,14l1.31,5.83c1.4,5.79,2.42,10,.54,16.85a.71.71,0,0,0,.5.87.72.72,0,0,0,.87-.5c2-7.23.92-11.56-.53-17.55l-1.3-5.77C319,411.69,323,408,323.16,407.8a.71.71,0,0,0,0-1A.7.7,0,0,0,322.22,406.74Z" transform="translate(-216.15 -298.55)"/><path d="M336.38,401.47c-1.92,4.15-11.4,12.52-11.49,12.6a.7.7,0,0,0-.07,1,.71.71,0,0,0,1,.07c.4-.35,9.8-8.65,11.84-13.07a.71.71,0,0,0-1.28-.6Z" transform="translate(-216.15 -298.55)"/><path d="M339.06,409.77c-2.39,4.47-11.2,10.86-11.29,10.93a.71.71,0,0,0-.16,1,.72.72,0,0,0,1,.16c.37-.27,9.16-6.66,11.71-11.41a.7.7,0,0,0-.29-1A.71.71,0,0,0,339.06,409.77Z" transform="translate(-216.15 -298.55)"/><path d="M340.34,419.74c-1,3.48-11,10.52-14.71,12.94a.71.71,0,0,0,.77,1.19c.57-.37,13.91-9,15.3-13.73a.71.71,0,1,0-1.36-.4Z" transform="translate(-216.15 -298.55)"/><path d="M340.73,427.61c-5.34,10.19-15.64,16.49-15.74,16.56a.69.69,0,0,0-.24,1,.71.71,0,0,0,1,.24c.44-.26,10.73-6.56,16.26-17.11a.71.71,0,0,0-.3-1A.7.7,0,0,0,340.73,427.61Z" transform="translate(-216.15 -298.55)"/><path d="M358.3,408.56a.72.72,0,0,0-.65.77,36.17,36.17,0,0,1-1.32,10.44,140.7,140.7,0,0,1-5,14.9.71.71,0,1,0,1.32.53,143.7,143.7,0,0,0,5-15.09,37.06,37.06,0,0,0,1.35-10.9A.71.71,0,0,0,358.3,408.56Z" transform="translate(-216.15 -298.55)"/><path d="M360.84,431.24c0,.13-3.51,12.24-7.69,17.07a.71.71,0,0,0,.07,1,.72.72,0,0,0,1-.07c4.39-5.07,7.84-17.1,8-17.61a.71.71,0,0,0-1.36-.39Z" transform="translate(-216.15 -298.55)"/><path d="M346.59,448.89c-3.52,5.53-5.51,13.21-5.59,13.54a.71.71,0,1,0,1.37.35c0-.08,2-7.79,5.41-13.13a.71.71,0,1,0-1.19-.76Z" transform="translate(-216.15 -298.55)"/><path d="M339.28,445.57a.71.71,0,0,0-.63.78,65.32,65.32,0,0,1-1.49,19.59c-2.6,10.78-4.17,19.48-3.34,26.91a.7.7,0,1,0,1.4-.16c-.8-7.22.75-15.78,3.32-26.42a66.79,66.79,0,0,0,1.52-20.07A.71.71,0,0,0,339.28,445.57Z" transform="translate(-216.15 -298.55)"/><path d="M335.69,448.7c-.06.15-1.38,3.93,0,11.86l.25,1.49c1.28,7.52,2.61,15.3,3.07,20a83.69,83.69,0,0,1,.33,9.74.71.71,0,0,0,1.42.05,85.68,85.68,0,0,0-.34-9.93c-.47-4.71-1.8-12.52-3.08-20.06l-.26-1.49c-1.27-7.51,0-11.11,0-11.14a.71.71,0,1,0-1.33-.48Z" transform="translate(-216.15 -298.55)"/><path d="M339.14,438.32c-.2.25-5.08,6.12-7.26,10.64-2.08,4.32-3.87,8.61-4.73,17.41-.83,8.42-1.17,16.46-1.17,16.54a.71.71,0,0,0,.68.74.7.7,0,0,0,.73-.68c0-.08.35-8.08,1.17-16.46.84-8.57,2.58-12.74,4.6-16.93,2.1-4.37,7-10.3,7.07-10.35a.71.71,0,1,0-1.09-.91Z" transform="translate(-216.15 -298.55)"/><path d="M330.39,452c-2.4,4.8-7.42,8.72-7.47,8.76a.72.72,0,0,0-.13,1,.72.72,0,0,0,1,.12c.21-.17,5.32-4.16,7.86-9.24a.71.71,0,1,0-1.26-.64Z" transform="translate(-216.15 -298.55)"/><path d="M335.41,450.07c-.22.36-5.37,8.9-7.19,12.55-1.69,3.39-5.77,14.57-5.57,16.71a.71.71,0,1,0,1.41-.12c-.14-1.5,3.42-11.93,5.43-16,1.8-3.6,7.08-12.36,7.14-12.45a.71.71,0,0,0-.24-1A.72.72,0,0,0,335.41,450.07Z" transform="translate(-216.15 -298.55)"/><path d="M344.85,305.77c-.39.4-3.84,2.65-6.87,4.57a.71.71,0,1,0,.75,1.2c1.07-.68,6.44-4.08,7.12-4.77a.71.71,0,0,0-1-1Z" transform="translate(-216.15 -298.55)"/><path d="M343.81,305.9a.69.69,0,0,0-.66.75c0,.35.5,8.71.67,9.89a.71.71,0,0,0,1.4-.2c-.13-.9-.49-6.79-.66-9.78A.7.7,0,0,0,343.81,305.9Z" transform="translate(-216.15 -298.55)"/><path d="M348.48,306.42c0,.12-.34,12.32-.5,13.77a.71.71,0,0,0,.63.78.69.69,0,0,0,.78-.62c.17-1.51.49-13.39.5-13.89a.7.7,0,0,0-.68-.73A.71.71,0,0,0,348.48,306.42Z" transform="translate(-216.15 -298.55)"/><path d="M351.62,305.42a.72.72,0,0,0-.54.84c.16.86.23,12,.23,18.84v1.15l1-.51c1.15-.58,2.71-2.83,4.63-5.7a23.51,23.51,0,0,1,1.72-2.43,10.32,10.32,0,0,1,3.07-1.67.71.71,0,1,0-.48-1.34,12.08,12.08,0,0,0-3.59,2,21.8,21.8,0,0,0-1.9,2.65,52.26,52.26,0,0,1-3.06,4.25c0-4.89-.05-16.66-.28-17.57A.7.7,0,0,0,351.62,305.42Z" transform="translate(-216.15 -298.55)"/><path d="M361.34,321.29c-1.39,1.47-5.54,5.36-8.06,5.61a.71.71,0,0,0,.14,1.41c3.56-.36,8.73-5.82,8.95-6.05a.72.72,0,0,0,0-1A.71.71,0,0,0,361.34,321.29Z" transform="translate(-216.15 -298.55)"/><path d="M296.79,305.56a.71.71,0,0,0-.64.77c.1,1.17,1,11.4,1.18,12.25a.7.7,0,1,0,1.38-.28c-.11-.58-.75-7.55-1.15-12.09A.72.72,0,0,0,296.79,305.56Z" transform="translate(-216.15 -298.55)"/><path d="M300.46,305.9a.71.71,0,0,0-.65.76l.5,5.84a.71.71,0,0,0,1.42-.12l-.5-5.84A.71.71,0,0,0,300.46,305.9Z" transform="translate(-216.15 -298.55)"/><path d="M292.24,305.45c-1.23.53-5.75,6-7.1,7.71a.7.7,0,0,0,.1,1,.71.71,0,0,0,1-.1c2.7-3.34,5.89-7,6.56-7.3a.71.71,0,0,0,.35-.93A.69.69,0,0,0,292.24,305.45Z" transform="translate(-216.15 -298.55)"/><path d="M287.63,305.6c-2.17.72-4.3,3.92-4.54,4.28a.71.71,0,0,0,.21,1,.7.7,0,0,0,1-.2c.57-.87,2.35-3.24,3.8-3.72a.71.71,0,1,0-.45-1.34Z" transform="translate(-216.15 -298.55)"/></svg>