<svg id="_12_1" xmlns="http://www.w3.org/2000/svg" viewBox="0 0 153.07 238.11"><defs><style>.cls-1{fill:#ed1c24;}.cls-2{fill:#fff;}.cls-3{fill:#ffcb05;}.cls-4{fill:#0066b3;}</style></defs><title>_12_1</title><rect class="cls-1" width="153.07" height="238.11"/><path class="cls-2" d="M227.21,385.78l-.16,133.67s1.16,9.16,9,9.33l41.5.17,73.83-7.67,9.5-10.67,4.83-9.16.17-93.5-12.33-78.67,11.83-6.17-.17-10.66s.34-5.84-7.5-6.67l-31-.5H301.05l-54.34,2.83-11,36.84-4.33,23.5Z" transform="translate(-219.93 -298.14)"/><path class="cls-1" d="M300.63,405.11l1.92,4.17s7.58,4.92,10.25,6.17,9.16,1.91,9.16,1.91v1.42c-2.33,5-3.33,16-3.33,23.5A70.06,70.06,0,0,0,320.88,458l-3.33-1.5s1.75,19.08,1.83,20.83a8.32,8.32,0,0,1-1.25,5.84c-1.58,2.58-9.25,6.16-15.33,6.5s-20.17-1.09-21.75-1.42-1.42-1.17-1.5-1.67-.59-9.25-.59-9.25-4.83-1.25-6.5-4.58a17,17,0,0,1-1.33-9.67c.17-1.41,3.67-17.66,3.92-18.25s1.75-12.75,2.58-18.66,3.08-10.25,5.58-12.84a17.76,17.76,0,0,1,6.09-3.83l2.33-6.83s3.17,2.16,5,1.75a5.14,5.14,0,0,0,2.75-1.59Zm1.21,33c3-1,3.69-3.18,3.31-4.31a2.53,2.53,0,0,0-2.37-1.56c-.44.19-5.75,1.5-5.75,1.5l-1.57,3C295.71,437.49,298.84,439.13,301.84,438.13Z" transform="translate(-219.93 -298.14)"/><path class="cls-3" d="M296.8,364.86s-5.09,4.09-7,7.59c0,0,9.08,2.41,23.41-1.42s18.5-8.92,18.5-8.92a52.8,52.8,0,0,0-11.08-3C314.8,358.28,300.38,361.86,296.8,364.86Z" transform="translate(-219.93 -298.14)"/><path class="cls-4" d="M320.63,359.11s-12.58-2.33-23.5,5.67c0,0,5.08,3.17,13.67.83S320.55,359.36,320.63,359.11Z" transform="translate(-219.93 -298.14)"/><path class="cls-4" d="M289.71,372.7a31.39,31.39,0,0,0-4.16,8.25s15,2.41,29.66-1.34,22.34-8.66,25.17-12.33c0,0-5.58-3.92-8.92-5.17,0,0-4.75,6-18,8.92S291.63,373.7,289.71,372.7Z" transform="translate(-219.93 -298.14)"/><path class="cls-3" d="M321.71,419s-2.5,5.75-3.08,16.58a81.27,81.27,0,0,0,1.83,21.84,1.37,1.37,0,0,0,1.5.91c.59-.08,1.67-.83,3.42-7.41s1.83-21.59,0-32.5C325.38,418.45,323.38,420.2,321.71,419Z" transform="translate(-219.93 -298.14)"/><path class="cls-3" d="M298.88,438.61l-3.42-1.83s-2.16,4.5-4.25,14.08S290.05,474,290.05,474s2.91-3.33,5.75-11.83A58.15,58.15,0,0,0,298.88,438.61Z" transform="translate(-219.93 -298.14)"/><path class="cls-3" d="M273.46,515.45a25,25,0,0,0,.84-5c-.09-1.5-2.42-5.5-3.17-5.75s-1.58.16-2.92.75a6.84,6.84,0,0,1-3.91.75c-1.67-.17-1.84-.42-2.25.16S261,510.11,257.3,511s-7.84-1.34-8.59-1.84-1-1-1.25-.41-.58,1.16-.58,1.16-4.42,4.84-5.83,5.59a2.35,2.35,0,0,0-1.42,1.91V518l-2.5.92s.42-1.84-2.5-2.92c0,0,1.17-1.42-.92-2.5,0,0,.92-1.25-1.08-2.17l3.75-.58,6.5-4.42.92-.75a7.49,7.49,0,0,1-1.75-3.5,24.09,24.09,0,0,1-.09-4.91l-1.66.5c-.84.25-2.67-.42-4-3.5s-1.09-4.75-1.92-6.25a10,10,0,0,0-3-3.34,7.9,7.9,0,0,1-1.33-1v-.75s1.58.42.25-2.58c0,0,2.16.83,2.58-1.33,0,0,1.25,1.25,1.67-.75,0,0,1.58,1.33,2.16-.34,0,0,.17,1.84.42,3.25s1.42,4.75,3.67,6.09,3.16.83,2.83-1.34-.67-2.75-1.33-3.16-.84-.5-.84-.92a5.32,5.32,0,0,1,.59-1.42,6.55,6.55,0,0,1,1.91-3.08c1.25-.92,3.25.08,3.75.67s1,.83,1.09,1.25a2,2,0,0,0,.5.83l1.33.5.83-1.92a15.88,15.88,0,0,0-.5-5.75,10.79,10.79,0,0,0-2.58-3.91,2.77,2.77,0,0,1-.17-1.67c.09-.42,1.59-.92,1.59-.92l1.5-.25s.5.17.41.5.92,1.09,1.59.17c0,0-.34,2.17,2,1.5a22,22,0,0,0,0,3.67c.16,2,1,8.41,1,8.41s4.16,1.25,8.66,7.17a27.67,27.67,0,0,1,5.34,11s5.66,1.75,7.91,5.83a55.65,55.65,0,0,1,2.59,5l2.66,2.92s-2-1.58-2.66,1.25c0,0-1.59-.67-2.67,2,0,0-1-3.17-2.67-.5C275.46,515,274.8,513.36,273.46,515.45Z" transform="translate(-219.93 -298.14)"/><path class="cls-4" d="M227.46,453a48.9,48.9,0,0,0,18.5-.75c10.13-2.38,19.38-9.38,29.38-8.75L272.21,457a72.35,72.35,0,0,0-14.5,5.62c-6.41,3.54-19,9.25-30.37,4.13Z" transform="translate(-219.93 -298.14)"/><path class="cls-4" d="M326.09,447.45s12.12-.25,16.37,5,.13,11-2.12,11.75-5.38,2.5-6,3.37-.5,2.63,3.25,3.63,13.25,1.25,16.75,2,10.5,1.37,11.12,6.25l.5,1.62-.5,19.75-19.37,8.75s-8-2.25-13.38-7.12-3.37-11.75-2.5-12.88,4-2.62,11.63-3.62a3,3,0,0,0-1.5-2.75c-1.75-1.25-6.88-1.13-10-1.63s-7.38-1.5-9.75-4.62.62-4.75,1.5-5.5,6.87-2.13,7.87-3.13,2.38-2.37,2.13-4.62-3.5-6.38-8.13-7.75Z" transform="translate(-219.93 -298.14)"/><path d="M237.13,304.74a10.64,10.64,0,0,0-10.63,10.63V519a10.64,10.64,0,0,0,10.63,10.63H355.79A10.64,10.64,0,0,0,366.42,519V315.37a10.64,10.64,0,0,0-10.63-10.63ZM227.92,519V315.37a9.22,9.22,0,0,1,9.21-9.21H355.79a9.22,9.22,0,0,1,9.21,9.21V519a9.22,9.22,0,0,1-9.21,9.21H237.13A9.22,9.22,0,0,1,227.92,519Z" transform="translate(-219.93 -298.14)"/><path d="M305.79,388.91a132.65,132.65,0,0,1-21.52,4.6.57.57,0,1,0,.13,1.13A135.77,135.77,0,0,0,306.13,390a.57.57,0,0,0-.34-1.08Z" transform="translate(-219.93 -298.14)"/><path d="M299,390.6a.56.56,0,0,0-.16.79,14.32,14.32,0,0,1,1.65,6.59,5.79,5.79,0,0,1-1.52,4.44,4.55,4.55,0,0,1-2.54,1.46,5.77,5.77,0,0,1-5-2.83c-1.4-2.58-1.18-7.77-1.18-7.83a.57.57,0,0,0-.54-.59.57.57,0,0,0-.59.54c0,.23-.24,5.57,1.32,8.42a6.87,6.87,0,0,0,6,3.42,5.42,5.42,0,0,0,3.36-1.81,6.86,6.86,0,0,0,1.83-5.28c-.25-4.73-1.77-7.06-1.84-7.16A.56.56,0,0,0,299,390.6Z" transform="translate(-219.93 -298.14)"/><path d="M289.36,393.76a2.64,2.64,0,0,0-2.33,2.89,1.93,1.93,0,0,0,.89,1.51,2.44,2.44,0,0,0,2,.06.56.56,0,1,0-.41-1.05,1.41,1.41,0,0,1-1,0,.87.87,0,0,1-.34-.68c-.17-1.29,1.25-1.59,1.41-1.62a.57.57,0,0,0,.46-.66A.58.58,0,0,0,289.36,393.76Z" transform="translate(-219.93 -298.14)"/><path d="M300.18,392a.56.56,0,0,0-.53.6.57.57,0,0,0,.6.53c.38,0,1.55.05,1.82.66a.58.58,0,0,1,0,.47,3.1,3.1,0,0,1-1.43,1.28.57.57,0,0,0-.32.73.57.57,0,0,0,.74.32,4.17,4.17,0,0,0,2.06-1.91,1.71,1.71,0,0,0,0-1.35C302.45,391.87,300.27,392,300.18,392Z" transform="translate(-219.93 -298.14)"/><path d="M292.16,396.23a.28.28,0,1,0,.36.44,4.33,4.33,0,0,1,2.07-.44.29.29,0,0,0,0-.57A4.85,4.85,0,0,0,292.16,396.23Z" transform="translate(-219.93 -298.14)"/><path d="M297,395.43a.29.29,0,0,0-.15.37.27.27,0,0,0,.36.16,4,4,0,0,1,1.72,0,.29.29,0,0,0,.11-.56A4.53,4.53,0,0,0,297,395.43Z" transform="translate(-219.93 -298.14)"/><path d="M296.58,398.76a.66.66,0,0,1-.94.05.28.28,0,0,0-.4.05.27.27,0,0,0,.05.39,1.22,1.22,0,0,0,1.72-.12.28.28,0,0,0-.43-.37Z" transform="translate(-219.93 -298.14)"/><path d="M297.4,400.84a16.41,16.41,0,0,1-2.52.16.29.29,0,0,0,0,.57,17.8,17.8,0,0,0,2.65-.18.28.28,0,0,0,.21-.34A.28.28,0,0,0,297.4,400.84Z" transform="translate(-219.93 -298.14)"/><path d="M294.23,393.09c-.2,0-2,.46-2.42,1.21a.27.27,0,0,0,.09.39.29.29,0,0,0,.39-.09,4.25,4.25,0,0,1,2.07-1,.28.28,0,0,0,.21-.34A.27.27,0,0,0,294.23,393.09Z" transform="translate(-219.93 -298.14)"/><path d="M297.36,392.67a.27.27,0,0,0-.26.3.28.28,0,0,0,.3.26,6.61,6.61,0,0,1,2.29.09.29.29,0,0,0,.39,0,.27.27,0,0,0,0-.38C299.71,392.54,298.22,392.6,297.36,392.67Z" transform="translate(-219.93 -298.14)"/><path d="M288.88,393.28s-.83-4.42.75-6.75,7.19-3.15,9.25-.33a7.18,7.18,0,0,1,1.58,4.66S293.8,392.45,288.88,393.28Z" transform="translate(-219.93 -298.14)"/><path d="M289,408.54a1.29,1.29,0,0,1-.33.78l-.24.09a14.56,14.56,0,0,0-8.78,8.07,34.58,34.58,0,0,0-2.91,10.22l-.13.91-.57,4.76c-.42,3.75-.95,8.43-1.42,11l-1.32,5.92a135.41,135.41,0,0,0-2.82,14c-.06.68-.1,1.34-.1,2,0,5.55,2.57,9.26,7.76,11.33.29,3.56.71,8.67.72,9h0a2,2,0,0,0,1.22,2,16.65,16.65,0,0,0,3.53.62v.51a4.8,4.8,0,0,0-1.25,2.15s0,.09,0,.13c0,1.37,2.8,3.4,8.2,4.62,5.6,1.28,10,.17,10.85-.48a1.94,1.94,0,0,0,.65-1.48,1.09,1.09,0,0,0,0-.18,3.12,3.12,0,0,0-.86-2.18c-.82-.82-2.76-1-3.74-1,0-.34,0-.51-.06-.88,1.11,0,3.52,0,4.85-.09a5.13,5.13,0,0,0,2.37,4.13c2.5,1.57,8.37,2.11,11.42,1.45a4.22,4.22,0,0,0,3.08-2.05,3.34,3.34,0,0,0,.08-2.85c-.7-1.69-3.18-1.74-3.8-1.73a25.22,25.22,0,0,0-2.74-1,1.34,1.34,0,0,1-.3-.53c1.38-.69,5.57-2.93,6.7-5.3A7.72,7.72,0,0,0,320,479c0-.34,0-.64-.05-.92l0-.66c0-1.14-.65-14.24-1.76-20l2.7,1.35a1.84,1.84,0,0,0,1.52.05c1-.42,1.78-1.68,2.75-4.38,1.3-3.61,3.59-20.31,1-36.53l-1.12.18c2.7,17.09,0,33.36-1,36-.29.82-1.19,3.32-2.12,3.71a.69.69,0,0,1-.61,0l-4.84-2.43.31,1.21c1.22,4.64,2,19.69,2,20.86l.05.77a6.11,6.11,0,0,1-.74,3.73c-1.15,2.41-6.55,5-6.61,5l-.4.19.09.44c0,.27.37,1.63,1.32,1.82a26,26,0,0,1,2.64,1l.12,0h.12c.61,0,2.45.11,2.83,1a2.23,2.23,0,0,1,0,1.89,3.26,3.26,0,0,1-2.32,1.46c-2.76.6-8.39.08-10.57-1.3a4.17,4.17,0,0,1-1.87-3.72l.06-.68-.68.06c-1.21.12-5.89.12-5.94.13h-.61l.2,3.13H297c1.15,0,3,.22,3.48.71a2,2,0,0,1,.52,1.49.94.94,0,0,1-.23.66c-.42.33-4.5,1.5-9.89.27s-7.29-3.09-7.31-3.51a4.21,4.21,0,0,1,1.08-1.66l.17-.17v-2l-.52-.05a19.19,19.19,0,0,1-3.7-.58c-.49-.21-.53-.55-.53-1s-.63-7.91-.75-9.42l0-.36-.34-.12c-5.56-2.09-7.87-6-7.26-12.29a135.26,135.26,0,0,1,2.79-13.87l1.33-6c.49-2.59,1-7.28,1.44-11.05l.56-4.72.14-.93a33.48,33.48,0,0,1,2.82-9.93,13.49,13.49,0,0,1,8.13-7.45l.36-.14a2.13,2.13,0,0,0,.93-1.55l1.86-6.55-1.09-.31Z" transform="translate(-219.93 -298.14)"/><path d="M326.57,411.34a.58.58,0,0,1-.45.06c-.8-.22-2.28-.22-3.31,2.34a43.06,43.06,0,0,0-1.4,4.45v.07a1.65,1.65,0,0,0,.4,1.26,1.43,1.43,0,0,0,1.23.37,9.11,9.11,0,0,0,4.36-2.45c.86-1,1.85-4,.92-5.43C327.66,411,327.07,411.15,326.57,411.34Zm.4,1.06.15,0,.25.29a1.61,1.61,0,0,1,.19.86,6,6,0,0,1-1,3.2,8,8,0,0,1-3.63,2.06.44.44,0,0,1-.29,0,.48.48,0,0,1-.08-.3h0a38.42,38.42,0,0,1,1.34-4.25c.52-1.32,1.18-1.88,1.94-1.67A1.69,1.69,0,0,0,327,412.4Z" transform="translate(-219.93 -298.14)"/><path d="M299,403.19a49.93,49.93,0,0,1,2.65,6.09l.06.15.13.1c.51.38,9.32,5.92,12.66,7.08a32.44,32.44,0,0,0,7.52,1.4l.07-1.13a32.36,32.36,0,0,1-7.22-1.34c-3.07-1.06-11.31-6.21-12.22-6.84a48.44,48.44,0,0,0-2.78-6.24Z" transform="translate(-219.93 -298.14)"/><path d="M307.43,412.5a107.34,107.34,0,0,0-4.4,14.59.56.56,0,0,0,.45.66.57.57,0,0,0,.67-.45,106.36,106.36,0,0,1,4.34-14.4.56.56,0,0,0-.32-.73A.57.57,0,0,0,307.43,412.5Z" transform="translate(-219.93 -298.14)"/><path d="M311.81,415.12A66.2,66.2,0,0,0,308,431.91a.56.56,0,0,0,.53.6.55.55,0,0,0,.6-.52,65.05,65.05,0,0,1,3.72-16.46.58.58,0,0,0-.33-.74A.56.56,0,0,0,311.81,415.12Z" transform="translate(-219.93 -298.14)"/><path d="M315.8,416.65a65.23,65.23,0,0,0-2.65,13.13,49.64,49.64,0,0,0,.51,11.9.56.56,0,0,0,.66.45.57.57,0,0,0,.45-.66,49.38,49.38,0,0,1-.49-11.6,63.86,63.86,0,0,1,2.6-12.87.58.58,0,0,0-.37-.72A.57.57,0,0,0,315.8,416.65Z" transform="translate(-219.93 -298.14)"/><path d="M321.45,418.09c-.13.27-3.05,6.74-3.3,19-.25,12,1.64,20.59,2.5,21.63a.57.57,0,0,0,.78.07.59.59,0,0,0,.1-.8c-.44-.61-2.51-8.3-2.25-20.88.24-12,3.17-18.46,3.2-18.52a.57.57,0,0,0-.28-.75A.56.56,0,0,0,321.45,418.09Z" transform="translate(-219.93 -298.14)"/><path d="M285.07,435.08a.55.55,0,0,0-.23.76.57.57,0,0,0,.77.23c6-3.29,9.48-2.63,10.67-2.22A56.35,56.35,0,0,0,291,450a111.13,111.13,0,0,0-1.56,20.1c0,1.23,0,2.51,0,3.85l0,1,.54.17c1.35.17,5.3-8.4,7.82-18.27,3.13-12.26,1.56-17.82,1.49-18a.57.57,0,0,0-1.11.16,1,1,0,0,0,0,.16,17,17,0,0,1,.4,4.29,53.65,53.65,0,0,1-1.9,13.16c-2.23,8.72-4.86,14.22-6.16,16.4,0-1,0-2,0-2.9a108.88,108.88,0,0,1,1.55-19.88c2-10.51,5.39-16.26,5.42-16.31l.29-.48-.47-.3C297.23,433,293.27,430.59,285.07,435.08Z" transform="translate(-219.93 -298.14)"/><path d="M303.38,431.76c-.49.07-6.35,1.32-7.07,2a.53.53,0,0,0,0,.75.59.59,0,0,0,.78.07,40.69,40.69,0,0,1,6.45-1.74.84.84,0,0,1,.56.34,1.93,1.93,0,0,1,.44,1.7,5.35,5.35,0,0,1-4.48,3.09,5.88,5.88,0,0,1-3.95-1.59.57.57,0,0,0-.8.8,7,7,0,0,0,4.81,1.92,6.45,6.45,0,0,0,5.51-3.92,3,3,0,0,0-.68-2.75A1.82,1.82,0,0,0,303.38,431.76Z" transform="translate(-219.93 -298.14)"/><path d="M284.81,424.73a.57.57,0,0,0,.31.74c4.62,1.9,7.43,7.43,7.46,7.48a.57.57,0,0,0,1-.51c-.13-.24-3-6-8.05-8A.57.57,0,0,0,284.81,424.73Z" transform="translate(-219.93 -298.14)"/><path d="M288.37,419.51a.56.56,0,0,0,.16.79c5.63,3.71,8.61,13.34,8.64,13.44a.57.57,0,0,0,1.09-.33c-.13-.41-3.13-10.12-9.11-14.06A.56.56,0,0,0,288.37,419.51Z" transform="translate(-219.93 -298.14)"/><path d="M298.82,441.67a.56.56,0,0,0,0,.8c7.33,7.46,18.73,14.76,18.85,14.83a.57.57,0,0,0,.78-.17.58.58,0,0,0-.17-.79c-.12-.07-11.41-7.3-18.65-14.67A.57.57,0,0,0,298.82,441.67Z" transform="translate(-219.93 -298.14)"/><path d="M289.58,474.21c-1.92,4.05-10.67,2.45-10.76,2.43a.56.56,0,0,0-.21,1.11c.39.08,9.71,1.78,12-3.06a.58.58,0,0,0-.27-.76A.56.56,0,0,0,289.58,474.21Z" transform="translate(-219.93 -298.14)"/><path d="M299,443.56a.58.58,0,0,0-.27.76,60.17,60.17,0,0,1,4.57,18.43,185.2,185.2,0,0,1,.63,22.67v.1l.9,3.09a.57.57,0,0,0,1.12-.16.41.41,0,0,0,0-.16s-.8-2.75-.85-2.91.11-2.66.11-6.28c0-4.36-.14-10.43-.74-16.46a61.26,61.26,0,0,0-4.68-18.81A.56.56,0,0,0,299,443.56Z" transform="translate(-219.93 -298.14)"/><path d="M283.15,488.64a.57.57,0,0,0,.51.62c.09,0,8.95.88,14.28,1.13a.57.57,0,1,0,.05-1.13c-5.3-.25-14.13-1.12-14.22-1.13A.57.57,0,0,0,283.15,488.64Z" transform="translate(-219.93 -298.14)"/><path d="M312,486.7c-3.13,1.68-9.74,2.55-9.81,2.56a.57.57,0,1,0,.15,1.12c.28,0,6.89-.9,10.19-2.68a.57.57,0,0,0,.23-.77A.55.55,0,0,0,312,486.7Z" transform="translate(-219.93 -298.14)"/><path d="M283.84,489.52a.57.57,0,0,0,0,.8c.07.08,1.85,2.08,6.34,2.77a11.38,11.38,0,0,0,7.3-1,.57.57,0,0,0,.18-.78.56.56,0,0,0-.77-.19,10.54,10.54,0,0,1-6.54.84c-4-.62-5.65-2.38-5.66-2.4A.58.58,0,0,0,283.84,489.52Z" transform="translate(-219.93 -298.14)"/><path d="M303.36,489a.56.56,0,0,0-.23.76c.06.11,1.55,2.79,6.66,2.88,3.53.06,5-.8,5.65-1.53a1.89,1.89,0,0,0,.48-1.19.68.68,0,0,0,0-.14.56.56,0,0,1-1.12.1.69.69,0,0,1-.21.5c-.3.35-1.38,1.19-4.76,1.13-4.4-.08-5.63-2.2-5.68-2.29A.57.57,0,0,0,303.36,489Zm12.54.78h0s0-.06,0-.1Z" transform="translate(-219.93 -298.14)"/><path d="M301.82,408.3c-2.39,1.54-5.05,3.19-5.64,3.47-.65-.2-3.78-1.45-6.58-2.6a.56.56,0,0,0-.74.31.57.57,0,0,0,.3.74c6.61,2.71,6.92,2.71,7,2.71s.5,0,6.23-3.67a.57.57,0,0,0,.17-.78A.58.58,0,0,0,301.82,408.3Z" transform="translate(-219.93 -298.14)"/><path d="M296,404.13a.57.57,0,0,0-.55.58l.17,7.67a.56.56,0,0,0,.58.55.56.56,0,0,0,.55-.58l-.17-7.66A.56.56,0,0,0,296,404.13Z" transform="translate(-219.93 -298.14)"/><path d="M300.41,405.38a20.59,20.59,0,0,1-4.54,2.06l-5.25-1.54a.57.57,0,0,0-.7.39.56.56,0,0,0,.38.7l5.58,1.63.16,0a22.53,22.53,0,0,0,5-2.24.56.56,0,0,0,.17-.78A.57.57,0,0,0,300.41,405.38Z" transform="translate(-219.93 -298.14)"/><path d="M314.81,379.53a.56.56,0,0,0-.39.7l9.17,32.21a.57.57,0,0,0,.7.39.57.57,0,0,0,.39-.7l-9.17-32.21A.57.57,0,0,0,314.81,379.53Z" transform="translate(-219.93 -298.14)"/><path d="M308.21,359.27c-19.38,4.53-23,21.52-23,21.69l-.11.56.55.11c.11,0,11.32,2.23,29.47-1.38s25.41-12.08,25.71-12.44l.33-.41-.38-.36A37.3,37.3,0,0,0,308.21,359.27Zm.26,1.11a36.24,36.24,0,0,1,31.06,7.11c-1.68,1.73-9.12,8.56-24.68,11.65s-26,1.86-28.44,1.48C287.2,377.76,291.74,364.29,308.47,360.38Z" transform="translate(-219.93 -298.14)"/><path d="M320.17,359.27s-1.34,3.75-9.71,5.75c-8.53,2-13.44-.43-13.48-.45a.58.58,0,0,0-.77.24.56.56,0,0,0,.24.76c.21.12,5.29,2.7,14.27.55s10.48-6.33,10.53-6.5a.56.56,0,0,0-.36-.71A.58.58,0,0,0,320.17,359.27Z" transform="translate(-219.93 -298.14)"/><path d="M331,361.85s-4.24,5.27-18.31,8.67-23,1.52-23.12,1.5a.57.57,0,0,0-.25,1.11c.37.08,9.17,2,23.63-1.51s18.77-8.85,18.94-9.08a.56.56,0,0,0-.89-.69Z" transform="translate(-219.93 -298.14)"/><rect x="292.82" y="369.07" width="8.3" height="1.13" transform="translate(-392.53 137.3) rotate(-59.2)"/><rect x="297.48" y="369.13" width="6.84" height="1.13" transform="translate(-363.94 242.64) rotate(-71.89)"/><rect x="300.45" y="369.07" width="6.65" height="1.13" transform="matrix(0.28, -0.96, 0.96, 0.28, -356.53, 258.5)"/><rect x="303.79" y="368.63" width="5.84" height="1.13" transform="translate(-329.51 309.97) rotate(-80.13)"/><rect x="307.09" y="368.13" width="5.51" height="1.13" transform="translate(-292.55 363.23) rotate(-87.38)"/><rect x="312.33" y="365.24" width="1.13" height="5.79" transform="translate(-298.39 -213.31) rotate(-13.74)"/><rect x="315.83" y="363.93" width="1.13" height="6.03" transform="translate(-371.07 -58.32) rotate(-34.02)"/><rect x="318.46" y="362.42" width="1.13" height="6.81" transform="translate(-383.51 15.76) rotate(-42.77)"/><rect x="321.21" y="360.44" width="1.13" height="8.01" transform="translate(-380.43 127.71) rotate(-55.81)"/><rect x="323.46" y="358.43" width="1.13" height="8.92" transform="translate(-374.22 153.59) rotate(-58.76)"/><rect x="308.27" y="357.17" width="1.13" height="2.43" transform="translate(-287.13 -226.83) rotate(-11.89)"/><path d="M315.62,382.35,311,380.18l-.48,1,5.59,2.59,2.76-4.56-1-.59Z" transform="translate(-219.93 -298.14)"/><path d="M317,386.71l-11.67-5.89-.51,1,12.59,6.36,6.4-10.19-1-.6Z" transform="translate(-219.93 -298.14)"/><path d="M234.4,477.66a.58.58,0,0,0-.35.72l.88,2.5a.55.55,0,0,0,.72.35.56.56,0,0,0,.35-.72l-.88-2.5A.56.56,0,0,0,234.4,477.66Z" transform="translate(-219.93 -298.14)"/><path d="M232.47,478.43a.58.58,0,0,0-.27.76l1.13,2.38a.55.55,0,0,0,.75.26.57.57,0,0,0,.27-.75l-1.12-2.37A.58.58,0,0,0,232.47,478.43Z" transform="translate(-219.93 -298.14)"/><path d="M230.14,479.36a.56.56,0,0,0-.14.79l1.5,2.12a.57.57,0,1,0,.93-.65l-1.5-2.12A.57.57,0,0,0,230.14,479.36Z" transform="translate(-219.93 -298.14)"/><path d="M230,483.29a.56.56,0,0,1-.79.11l2.73,2.11a15.78,15.78,0,0,1,2.35,3.32l.33,1.31c.45,2,1.2,5.38,2.78,7a3.44,3.44,0,0,0,4,1c.07,1,.17,2.51.17,3.74a6.32,6.32,0,0,0,1.91,4.4.57.57,0,0,0,.8,0,.55.55,0,0,0,0-.8,5.09,5.09,0,0,1-1.58-3.6c0-2-.24-4.69-.25-4.8l-.11-1.2-.86.85a2.11,2.11,0,0,1-1.13.54,2.58,2.58,0,0,1-2.19-.91c-1.35-1.35-2.05-4.51-2.47-6.41l-.42-1.57a17.08,17.08,0,0,0-2.65-3.68l-2.77-2.15A.58.58,0,0,1,230,483.29Z" transform="translate(-219.93 -298.14)"/><path d="M245.3,505c-.53,0-2.3.2-2.9,1a62.37,62.37,0,0,1-5.69,4.22,30.14,30.14,0,0,1-4,.32.56.56,0,0,0-.54.58.57.57,0,0,0,.58.55,21.55,21.55,0,0,0,4.49-.44,56.58,56.58,0,0,0,6.06-4.52,4.25,4.25,0,0,1,2.09-.54.56.56,0,0,0,.53-.6A.56.56,0,0,0,245.3,505Z" transform="translate(-219.93 -298.14)"/><path d="M236.44,511.32l-3,1.63a.57.57,0,1,0,.54,1l3-1.63a.56.56,0,0,0,.23-.77A.57.57,0,0,0,236.44,511.32Z" transform="translate(-219.93 -298.14)"/><path d="M237.29,513.34l-3.25,2a.57.57,0,1,0,.6,1l3.25-2a.55.55,0,0,0,.18-.77A.57.57,0,0,0,237.29,513.34Z" transform="translate(-219.93 -298.14)"/><path d="M238.62,515.12l-2.25,3.25a.56.56,0,0,0,.15.79.55.55,0,0,0,.78-.14l2.25-3.25a.56.56,0,0,0-.14-.79A.57.57,0,0,0,238.62,515.12Z" transform="translate(-219.93 -298.14)"/><path d="M267.73,505.07l-.24.11c-1.81.79-5.12.1-5.16.09l-.52-.11-.14.51a9.78,9.78,0,0,1-1.05,2.34,7.66,7.66,0,0,1-6.81,2.63,11,11,0,0,1-5.37-2.56l-.26-.21a.78.78,0,0,0-.79-.15c-.42.17-.5.61-.57,1l-.11.47a42.67,42.67,0,0,1-6,6,2.5,2.5,0,0,0-1.36,2.95.57.57,0,0,0,.73.31.56.56,0,0,0,.36-.53.58.58,0,0,0,0-.19.85.85,0,0,1,0-.26c0-.31.14-.82.93-1.31a40.25,40.25,0,0,0,6.46-6.48l.17-.61a12.11,12.11,0,0,0,5.72,2.67,8.78,8.78,0,0,0,7.95-3.12,9.59,9.59,0,0,0,1-2.17c1.06.17,3.63.49,5.34-.25l.24-.11c1.9-.83,2.48-1,3.13-.39a14.49,14.49,0,0,1,2.23,4.85,18.17,18.17,0,0,1-.63,4.62.57.57,0,0,0,1.11.26c.09-.4.89-3.91.62-5.13s-1.4-4.27-2.53-5.4S269.63,504.24,267.73,505.07Z" transform="translate(-219.93 -298.14)"/><path d="M275.36,510.64l-.48.09.14,4a.56.56,0,0,0,.59.54.57.57,0,0,0,.55-.56s-.08-2.06-.11-2.9a1.57,1.57,0,0,1,1,.9,4.48,4.48,0,0,1,.48,2,2.52,2.52,0,0,1,0,.42s0,.07,0,.1a.57.57,0,0,0,.46.56.56.56,0,0,0,.66-.44,5.17,5.17,0,0,0-.54-3.12A2.66,2.66,0,0,0,275.36,510.64Z" transform="translate(-219.93 -298.14)"/><path d="M279,509.43a.58.58,0,0,0-.29.75l1.38,3.12a.56.56,0,0,0,.75.29.58.58,0,0,0,.29-.75l-1.38-3.12A.56.56,0,0,0,279,509.43Z" transform="translate(-219.93 -298.14)"/><path d="M280.43,509.31a.56.56,0,0,0,0,.8l2.37,2.25a.59.59,0,0,0,.81,0,.57.57,0,0,0,0-.8l-2.37-2.25A.56.56,0,0,0,280.43,509.31Z" transform="translate(-219.93 -298.14)"/><path d="M254.91,471.29a.55.55,0,0,0-.36.71c.15.46.68,4.79,1.1,8.63l0,.36.33.12a20.76,20.76,0,0,1,8.49,6.68,36.66,36.66,0,0,1,5.41,10.93l.09.33.33.08a12.84,12.84,0,0,1,5.24,3.23,15.11,15.11,0,0,1,4,5.76.57.57,0,0,0,.71.37.58.58,0,0,0,.4-.54.57.57,0,0,0,0-.18,15.93,15.93,0,0,0-4.28-6.24,14.37,14.37,0,0,0-5.43-3.41,36.82,36.82,0,0,0-5.5-11,22,22,0,0,0-8.68-6.94c-.2-1.82-.87-7.8-1.11-8.53A.57.57,0,0,0,254.91,471.29Z" transform="translate(-219.93 -298.14)"/><path d="M254.74,468.13l-1.61,2.23a.56.56,0,0,1,.79-.12.57.57,0,0,1,.13.79l1.64-2.27a.55.55,0,0,0-.14-.77A.59.59,0,0,0,254.74,468.13Z" transform="translate(-219.93 -298.14)"/><path d="M252.91,466.93l-1,2.55a.55.55,0,0,1,.72-.31.57.57,0,0,1,.33.74l1-2.7a.51.51,0,0,0-.35-.67A.63.63,0,0,0,252.91,466.93Z" transform="translate(-219.93 -298.14)"/><path d="M251.27,466.45a6.14,6.14,0,0,1-1,2.05.56.56,0,1,0,.93.64,6.82,6.82,0,0,0,1.23-2.69.57.57,0,1,0-1.14,0Z" transform="translate(-219.93 -298.14)"/><path d="M248.81,465.92a4,4,0,0,0-1.23,2.49,1.7,1.7,0,0,0,.29,1l.7.87a7.81,7.81,0,0,1,2.33,5.21c0,.27,0,.52,0,.77a14.19,14.19,0,0,1-.44,3.84l-1.1-.41a1.68,1.68,0,0,0-.78-1.35l-.27-.31a3.64,3.64,0,0,0-2.23-1.49,3.86,3.86,0,0,0-4.28,2.61s-.42,1.13-.47,1.29a1.76,1.76,0,0,0-.66,1.27,1.39,1.39,0,0,0,.15.64,2.72,2.72,0,0,0,1.08,1.06,1.88,1.88,0,0,1,.57.47,5.76,5.76,0,0,1,.61,2.4,1.45,1.45,0,0,1-.21.85.64.64,0,0,1-.54.27c-.53,0-1.44-.51-2.41-1.88a22,22,0,0,1-2.4-4.79c0-.16-.13-3-.13-3a.56.56,0,0,0-.58-.54.57.57,0,0,0-.55.59l.13,3.21,0,.08a23.75,23.75,0,0,0,2.57,5.14c1.05,1.48,2.26,2.34,3.32,2.36a1.76,1.76,0,0,0,1.47-.72c1-1.33,0-3.9-.34-4.51a2.62,2.62,0,0,0-.93-.84,1.76,1.76,0,0,1-.67-.62c-.15-.3.32-.66.32-.66l.14-.11.06-.16.5-1.37a2.77,2.77,0,0,1,3-1.9,2.56,2.56,0,0,1,1.59,1.09l.66.62a1.41,1.41,0,0,1,.18.74v.39l2.88,1.08.21-.49a14.22,14.22,0,0,0,.67-5.62,8.91,8.91,0,0,0-2.61-5.92l-.61-.75c-.4-.6.47-1.7.8-2a.56.56,0,0,0,0-.8A.57.57,0,0,0,248.81,465.92Z" transform="translate(-219.93 -298.14)"/><path d="M248.27,484.48a.55.55,0,0,0-.15.78c0,.06,4,6,4.85,7.47a.57.57,0,0,1,.21-.77.56.56,0,0,1,.77.2c-.87-1.5-4.73-7.28-4.89-7.53A.56.56,0,0,0,248.27,484.48Z" transform="translate(-219.93 -298.14)"/><path d="M255.86,497.5a.57.57,0,0,0-.09.8l6.38,8a.55.55,0,0,0,.79.09.56.56,0,0,0,.09-.8l-6.37-8A.58.58,0,0,0,255.86,497.5Z" transform="translate(-219.93 -298.14)"/><path d="M275.19,442.61c-7.69.23-14.38,3-20.28,5.51-4.16,1.75-8.09,3.4-11.93,4a47.07,47.07,0,0,1-15.62.13.71.71,0,0,0-.3,1.39c.27.06,6.62,1.39,16.14-.12,4-.63,8-2.31,12.26-4.09,6.07-2.55,12.35-5.18,19.77-5.4a.71.71,0,1,0,0-1.42Z" transform="translate(-219.93 -298.14)"/><path d="M273.94,449.11c-8.14.23-13.9,3.15-19.46,6-3.82,2-7.43,3.78-11.52,4.53-9.77,1.81-15.3-.31-15.36-.33a.71.71,0,0,0-.52,1.32c.23.09,5.93,2.3,16.14.41,4.29-.8,8-2.67,11.9-4.66,5.43-2.76,11-5.61,18.86-5.83a.71.71,0,1,0,0-1.42Z" transform="translate(-219.93 -298.14)"/><path d="M272.24,456.12c-4.5.65-9,2.88-13.85,5.25-4.55,2.23-9.25,4.55-14.2,5.63-9.87,2.17-16.61-.91-16.67-.94a.71.71,0,0,0-1,.34.72.72,0,0,0,.34.94c.29.13,7.21,3.33,17.58,1.05,5.12-1.12,9.9-3.48,14.53-5.75s9.14-4.5,13.42-5.12a.7.7,0,0,0,.6-.8A.71.71,0,0,0,272.24,456.12Z" transform="translate(-219.93 -298.14)"/><path d="M326,446.74a.71.71,0,1,0,.09,1.41c.1,0,10.27-.57,15.8,4.65a5.32,5.32,0,0,1,1.87,5.25,10.29,10.29,0,0,1-4.6,5.89c-.67.22-6.44,2.74-6.15,4.77.25,1.76,4.12,3.78,10.16,4.11,16.86.94,20.82,3.91,21.18,6.23a3.68,3.68,0,0,1-.64,3.09c-1.37,1.6-4.58,1.6-6.5,1.6a186.4,186.4,0,0,0-23.31,3c-3.11.66-5.28,3.49-5.39,7.07-.17,5.38,4.25,12.4,17.18,16a.71.71,0,0,0,.87-.5.58.58,0,0,0,0-.19.71.71,0,0,0-.52-.68c-11.92-3.29-16.15-9.5-16.15-14.31v-.26c.1-2.91,1.81-5.2,4.27-5.72a187.78,187.78,0,0,1,23-3c2.17,0,5.78,0,7.58-2.09a4.57,4.57,0,0,0,1-3.09,7.7,7.7,0,0,0-.09-1.14c-.85-5.59-13.25-6.92-22.5-7.43-6.13-.34-8.66-2.33-8.82-2.86.25-.74,3.47-2.69,5.17-3.26a11.37,11.37,0,0,0,5.55-6.94,7.14,7.14,0,0,0,.16-1.44,7,7,0,0,0-2.44-5.15C336.88,446.12,326.44,446.71,326,446.74Z" transform="translate(-219.93 -298.14)"/><path d="M324.68,451.53a.7.7,0,0,0,.61.79c.09,0,9.1,1.19,11.1,6.06.94,2.3,1.06,4.21.34,5.67s-2.53,2.75-5.37,3.55-6.3,2.23-5.5,5.67c.61,2.68,3.63,3.87,11.95,4.72,9.82,1,17,3.45,19.33,6.55a.71.71,0,0,0,1,.14.7.7,0,0,0,.15-1c-3.63-4.92-15.43-6.61-20.33-7.11-8.4-.86-10.35-2.07-10.71-3.62-.31-1.34,0-2.74,4.5-4,3.25-.91,5.3-2.31,6.27-4.29s.79-4.14-.31-6.82c-2.32-5.65-11.83-6.89-12.23-6.94A.7.7,0,0,0,324.68,451.53Z" transform="translate(-219.93 -298.14)"/><path d="M323.55,455.85a.71.71,0,0,0,.4.92c.06,0,5.27,2.12,7,5.49a4.2,4.2,0,0,1,.29,3.7,5.57,5.57,0,0,1-3.84,2.8c-3.84,1.05-7.62,2.32-8,5.26s2.15,5.81,6.13,7.26a50.71,50.71,0,0,0,8.77,1.6c2.7.36,5.75.76,6.44,1.17a1.12,1.12,0,0,1,.58,1.56.72.72,0,0,0,.29,1,.71.71,0,0,0,.95-.28,2.54,2.54,0,0,0-1.09-3.45c-.9-.54-3.24-.87-7-1.36A51.71,51.71,0,0,1,326,480c-3.36-1.22-5.5-3.58-5.21-5.74s3.75-3.2,7-4.08a6.92,6.92,0,0,0,4.76-3.6,5.62,5.62,0,0,0-.31-4.9c-1.93-3.87-7.47-6.08-7.71-6.17A.71.71,0,0,0,323.55,455.85Z" transform="translate(-219.93 -298.14)"/><path d="M347.57,484.64c-.16.08-1.65.83-1.57,2.16s1.33,2.22,4,3.15c6.23,2.19,14.91,1.73,15.27,1.7a.71.71,0,0,0,.67-.74.71.71,0,0,0-.75-.67c-.08,0-8.76.47-14.72-1.63-2.91-1-3-1.8-3-1.88,0-.3.5-.68.78-.81a.71.71,0,0,0-.62-1.28Z" transform="translate(-219.93 -298.14)"/><path d="M332.87,487.17a.7.7,0,0,0-.28.95c.12.22,3.17,5.5,17.83,8.19,6.91,1.27,15.27,2.33,15.81.14a.64.64,0,0,0-.46-.76.78.78,0,0,0-.91.42l.11-.22c-.06.05-1.73,1.34-14.3-1-13.87-2.55-16.81-7.44-16.84-7.49A.7.7,0,0,0,332.87,487.17Z" transform="translate(-219.93 -298.14)"/><path d="M329,492.94a.7.7,0,0,0-.49.87c.07.23,1.73,5.74,12.48,9,10.48,3.16,15.34,3.2,15.54,3.2a.71.71,0,0,0,0-1.42c-.05,0-4.89-.05-15.13-3.13-9.92-3-11.51-8-11.53-8A.7.7,0,0,0,329,492.94Z" transform="translate(-219.93 -298.14)"/><path d="M365.71,499.61s-23,6.5-34.83,20.34c0,0-11-5.5-28.5-4.84s-29.33,11.34-32,13.5l86.33.34s8.67-1.84,9-9.5Z" transform="translate(-219.93 -298.14)"/><path d="M326.71,305.7S339.8,325.31,346.46,362c8,44,4.75,98.25,4.75,98.25S361,442,365.71,406l-.25-92s-.91-4.17-1.91-4.84.33,1.67.16,3.84-.66,9.16-.66,9.16a105.91,105.91,0,0,1-9-7.66c-3.5-3.5-4-6-2.84-6.84s6.67-1.66,9.17-.16c0,0,0-1.34-3.33-1.84S326.71,305.7,326.71,305.7Z" transform="translate(-219.93 -298.14)"/><path d="M304.21,305.61s22.5,15.34,25,53.34c0,0-6.5-19.67-26.83-26a69,69,0,0,1-21.67,43.83s1,29.33-11.16,48.33c0,0-7.17-5.66-8.5-11.66a81.26,81.26,0,0,1-11,18c-6.67,7.83-13.67,18.66-14.34,21.5,0,0-8.33-49.67,11.67-79.17L242.05,362s-8.5,18.16-15,26.66l.16-74.66s.34-8,11-8.5Z" transform="translate(-219.93 -298.14)"/><circle class="cls-1" cx="43.16" cy="34.31" r="23.5"/><path class="cls-2" d="M255.13,323a7.52,7.52,0,0,1-1.58-.59c-.59-.33-1.75-.83-1.67-.08s.58,2.83.67,3.25.83.67,1.25-.08S255.71,323.2,255.13,323Z" transform="translate(-219.93 -298.14)"/><path class="cls-2" d="M260.21,323.78s.5-7.33.25-8.08a6.74,6.74,0,0,1-.58-2.09c.08-.41.75-.16,1.42.34a1.71,1.71,0,0,1,.83,1.58,13.45,13.45,0,0,0-.33,1.92v3.75s0,.33.58,0a55.08,55.08,0,0,0,4.92-4.84c.25-.41.25-1.58,1.25-.75s1.91,2,1.33,2.34-8.25,6.58-8.58,6.91a1.74,1.74,0,0,0-.25,1.5,7.63,7.63,0,0,1,.08.92,3.12,3.12,0,0,0,1.5-.08c.75-.25,3.08-1.67,3.5-1.84s.42-.83,1.5-.16,1.17,1.41.5,1.91-3.58,2.92-3.58,2.92a3.5,3.5,0,0,0,.83.83c.42.25.58.42.58,1.09s-.41,1.16-1,2.58a20.48,20.48,0,0,0-1.33,5c-.17,1.58,0,3.33,1.67,3.33s6.41.17,6.41.17a3.53,3.53,0,0,0,2.42-1.5c.83-1.33,1.83-2.42,1.92-2.75s.41-.17.83.58,1.5,3.25,1.83,4.09.42,1.08-.33,1.33a12.47,12.47,0,0,1-2.5.92c-1.08.16-10.42.25-11.83.25s-2.25-1.75-2.42-3.84a52.29,52.29,0,0,1,.5-7.58c.08-.42-.33-.42-.75-.25a7.19,7.19,0,0,0-1.92,1.42c-.41.5-4.66,4.66-5.58,5.91s-3.58,3.09-4.5,3.17-1.92-1-1.92-1l1.84-1.08a28.35,28.35,0,0,1,3.33-3.75c1.33-1.09,6.17-6.59,6.42-6.92a21.23,21.23,0,0,0,1-2.33.8.8,0,0,0-.84-.25c-.5.16-4,2.25-5.16,2.75s-1.92.83-2.34.33,0-1,.84-1.75a13.45,13.45,0,0,1,2.83-2.25c.5-.08.17.5,1.58.17s2.5-.25,2.67-.67.33-.92-.17-1.08a6.53,6.53,0,0,0-1.83,0c-.75,0,.08-.59.83-1.42S260.21,323.78,260.21,323.78Z" transform="translate(-219.93 -298.14)"/><path d="M352.62,449.55a14.79,14.79,0,0,1-3.3,3,.71.71,0,1,0,.79,1.18,16.05,16.05,0,0,0,3.69-3.36.71.71,0,0,0-.19-1A.72.72,0,0,0,352.62,449.55Z" transform="translate(-219.93 -298.14)"/><path d="M352.53,439.8l-6,6.5a.71.71,0,1,0,1,1l6-6.5a.72.72,0,0,0,0-1A.7.7,0,0,0,352.53,439.8Z" transform="translate(-219.93 -298.14)"/><path d="M352.23,431.49c-.45,1-5.57,6.65-8.7,10a.71.71,0,0,0,0,1,.7.7,0,0,0,1,0c.85-.89,8.27-8.8,9-10.36a.71.71,0,0,0-.36-.94A.72.72,0,0,0,352.23,431.49Z" transform="translate(-219.93 -298.14)"/><path d="M352.4,424.09c-2.33,2.17-9.58,10.37-9.88,10.72a.7.7,0,0,0,.06,1,.71.71,0,0,0,1-.06c.07-.09,7.5-8.5,9.78-10.62a.7.7,0,0,0,0-1A.72.72,0,0,0,352.4,424.09Z" transform="translate(-219.93 -298.14)"/><path d="M352.66,415.51c-1.94,2.42-11.66,11.32-11.76,11.41a.71.71,0,0,0,1,1.05c.4-.37,9.9-9.07,11.91-11.58a.72.72,0,0,0-.11-1A.71.71,0,0,0,352.66,415.51Z" transform="translate(-219.93 -298.14)"/><path d="M352.43,404.94c-.59,1-7.84,9.16-12.57,14.36a.71.71,0,1,0,1,1c1.22-1.34,11.92-13.11,12.77-14.63a.72.72,0,0,0-.28-1A.7.7,0,0,0,352.43,404.94Z" transform="translate(-219.93 -298.14)"/><path d="M351.25,395.8c-1.45,2.89-12.31,16.06-12.42,16.2a.7.7,0,0,0,.1,1,.71.71,0,0,0,1-.09c.45-.55,11.07-13.43,12.58-16.47a.7.7,0,0,0-.31-.95A.71.71,0,0,0,351.25,395.8Z" transform="translate(-219.93 -298.14)"/><path d="M350.09,384.45c-1.3,2.43-12.84,19.26-13,19.43a.71.71,0,1,0,1.17.8c.48-.69,11.7-17.06,13-19.57a.71.71,0,0,0-.29-.95A.7.7,0,0,0,350.09,384.45Z" transform="translate(-219.93 -298.14)"/><path d="M349.39,373.84c-2.27,5.37-12.82,20.38-12.92,20.53a.71.71,0,0,0,1.16.82c.43-.62,10.73-15.29,13.07-20.8a.71.71,0,0,0-1.31-.55Z" transform="translate(-219.93 -298.14)"/><path d="M347.94,366.42c-2,3.28-11.72,18-11.82,18.14a.72.72,0,0,0,.2,1,.71.71,0,0,0,1-.2c.41-.61,9.87-14.88,11.85-18.19a.71.71,0,1,0-1.21-.73Z" transform="translate(-219.93 -298.14)"/><path d="M339,329.22c-2.18,1.67-14.06,13.39-14.57,13.89a.7.7,0,0,0,0,1,.71.71,0,0,0,1,0c.12-.12,12.33-12.16,14.43-13.78a.71.71,0,1,0-.86-1.12Z" transform="translate(-219.93 -298.14)"/><path d="M336.69,323.47c-3.29,3.62-13.38,13.88-13.48,14a.71.71,0,0,0,1,1c.1-.1,10.21-10.38,13.52-14a.71.71,0,1,0-1.05-.95Z" transform="translate(-219.93 -298.14)"/><path d="M335,318.11c-3.8,3.81-12.93,13.93-13,14a.71.71,0,0,0,1.05.95c.09-.1,9.2-10.2,13-14a.71.71,0,0,0-1-1Z" transform="translate(-219.93 -298.14)"/><path d="M333.54,313.45c-2.12,2.12-14.51,13.19-14.63,13.3a.71.71,0,0,0-.06,1,.7.7,0,0,0,1,.06c.51-.46,12.54-11.21,14.7-13.36a.71.71,0,0,0-1-1Z" transform="translate(-219.93 -298.14)"/><path d="M332,309.18c-4,2.51-14.82,13-15.28,13.43a.71.71,0,1,0,1,1c.11-.1,11.16-10.81,15.05-13.24a.71.71,0,0,0-.76-1.2Z" transform="translate(-219.93 -298.14)"/><path d="M326.71,305.28l-13.17,13.34a.71.71,0,0,0,1,1l13.17-13.33a.71.71,0,0,0,0-1A.7.7,0,0,0,326.71,305.28Z" transform="translate(-219.93 -298.14)"/><path d="M321.87,334.56a.71.71,0,0,0,.45.89c.17.06,16.66,5.51,21.38,8.12a.72.72,0,0,0,1-.28.71.71,0,0,0-.28-1c-4.84-2.67-20.94-8-21.62-8.22A.72.72,0,0,0,321.87,334.56Z" transform="translate(-219.93 -298.14)"/><path d="M321.19,329.9a.7.7,0,0,1-.93.36l23.33,10.33a.71.71,0,0,0,.94-.36.7.7,0,0,0-.36-.93L320.83,329A.7.7,0,0,1,321.19,329.9Z" transform="translate(-219.93 -298.14)"/><path d="M316.54,323.57a.7.7,0,0,0,.47.89c.16.05,16.83,5.2,25,10.58a.71.71,0,0,0,1-.2.7.7,0,0,0-.2-1c-8.32-5.5-24.66-10.54-25.35-10.76A.71.71,0,0,0,316.54,323.57Z" transform="translate(-219.93 -298.14)"/><path d="M314.37,317.74a.71.71,0,1,0,0,1.42c.09,0,9,0,23.94,9.55a.71.71,0,1,0,.77-1.19C323.76,317.68,314.74,317.73,314.37,317.74Z" transform="translate(-219.93 -298.14)"/><path d="M308.85,311.83a.71.71,0,0,0,.58.82c.12,0,12.73,2.26,28.24,11.9a.71.71,0,0,0,1-.23.7.7,0,0,0-.23-1c-15.77-9.8-28.63-12.08-28.75-12.1A.7.7,0,0,0,308.85,311.83Z" transform="translate(-219.93 -298.14)"/><path d="M309.71,305.4a.7.7,0,0,0,.46.89c.17,0,17.37,5.53,25.55,9.79a.72.72,0,0,0,1-.31.71.71,0,0,0-.31-.95c-8.29-4.31-25.6-9.83-25.78-9.88A.7.7,0,0,0,309.71,305.4Z" transform="translate(-219.93 -298.14)"/><path d="M324.19,348.78c-.8,3.26-2.07,8.33-2.3,8.91a.71.71,0,0,0,.39.92.73.73,0,0,0,.93-.4c.34-.85,2.15-8.25,2.36-9.09a.71.71,0,1,0-1.38-.34Z" transform="translate(-219.93 -298.14)"/><path d="M320.69,343.94c-.66,2.67-2.27,12.48-2.34,12.89a.71.71,0,0,0,.58.82.72.72,0,0,0,.82-.59c0-.1,1.67-10.17,2.32-12.77a.71.71,0,0,0-.52-.86A.7.7,0,0,0,320.69,343.94Z" transform="translate(-219.93 -298.14)"/><path d="M317.35,338.82c-.49,2.6-4.28,16.13-4.32,16.27a.7.7,0,0,0,.49.87.71.71,0,0,0,.88-.49c.15-.56,3.84-13.72,4.34-16.39a.71.71,0,1,0-1.39-.26Z" transform="translate(-219.93 -298.14)"/><path d="M313.34,337c-.32,2.62-1.81,11.38-1.82,11.47a.7.7,0,1,0,1.39.23c.06-.36,1.51-8.88,1.84-11.53a.71.71,0,1,0-1.41-.17Z" transform="translate(-219.93 -298.14)"/><path d="M310.67,334.74c-.32,5.31-3.08,11.69-3.11,11.76a.71.71,0,0,0,.37.93.7.7,0,0,0,.93-.37c.12-.27,2.89-6.67,3.23-12.24a.71.71,0,1,0-1.42-.08Z" transform="translate(-219.93 -298.14)"/><path d="M307,333.25c-.17,3.21-2.29,11.1-2.31,11.18a.7.7,0,1,0,1.36.37c.09-.33,2.19-8.11,2.36-11.48a.71.71,0,1,0-1.41-.07Z" transform="translate(-219.93 -298.14)"/><path d="M304,330.88c-.49,4.7-4.1,15.74-4.14,15.85a.71.71,0,0,0,1.35.44c.15-.46,3.7-11.3,4.2-16.15a.71.71,0,0,0-.63-.78A.72.72,0,0,0,304,330.88Z" transform="translate(-219.93 -298.14)"/><path d="M235.14,443.37,228.47,448a.71.71,0,0,0-.17,1,.72.72,0,0,0,1,.18l6.66-4.67a.72.72,0,0,0,.18-1A.71.71,0,0,0,235.14,443.37Z" transform="translate(-219.93 -298.14)"/><path d="M234.58,436.25l-5.5,4.83a.72.72,0,0,0-.07,1,.7.7,0,0,0,1,.07l5.5-4.84a.7.7,0,0,0,.07-1A.71.71,0,0,0,234.58,436.25Z" transform="translate(-219.93 -298.14)"/><path d="M234.57,429.42l-5.67,5.17a.7.7,0,0,0,0,1,.71.71,0,0,0,1,.05l5.66-5.17a.71.71,0,1,0-1-1.05Z" transform="translate(-219.93 -298.14)"/><path d="M235.18,422.34l-5.83,3.5a.71.71,0,0,0,.73,1.21l5.83-3.5a.69.69,0,0,0,.24-1A.71.71,0,0,0,235.18,422.34Z" transform="translate(-219.93 -298.14)"/><path d="M234.88,416.15l-5.66,3a.71.71,0,0,0,.66,1.26l5.66-3a.71.71,0,1,0-.66-1.26Z" transform="translate(-219.93 -298.14)"/><path d="M238,406.83l-8.83,4.83a.71.71,0,1,0,.68,1.24l8.83-4.83a.71.71,0,0,0,.28-1A.7.7,0,0,0,238,406.83Z" transform="translate(-219.93 -298.14)"/><path d="M239,397l-10.33,6.84a.7.7,0,0,0-.2,1,.71.71,0,0,0,1,.2l10.33-6.83A.71.71,0,0,0,239,397Z" transform="translate(-219.93 -298.14)"/><path d="M242,389.34l-11.83,7.17a.71.71,0,0,0-.24,1,.7.7,0,0,0,1,.24l11.84-7.17a.71.71,0,0,0,.24-1A.72.72,0,0,0,242,389.34Z" transform="translate(-219.93 -298.14)"/><path d="M244.57,381.14l-14.67,7.17a.7.7,0,0,0-.32.95.69.69,0,0,0,.94.32l14.67-7.16a.71.71,0,1,0-.62-1.28Z" transform="translate(-219.93 -298.14)"/><path d="M268.67,423.4c-.23,3.57-.58,7.57-.77,8.09s-2.73,4-4.27,6.22a.71.71,0,0,0,1.16.81c.68-.95,4-5.74,4.39-6.42s.72-5.69.91-8.61a.71.71,0,0,0-1.42-.09Z" transform="translate(-219.93 -298.14)"/><path d="M267.29,433.41a.71.71,0,0,0-.61.79c.23,1.8.82,6.63.82,7.41a.71.71,0,1,0,1.42,0c0-1-.75-6.92-.84-7.59A.71.71,0,0,0,267.29,433.41Z" transform="translate(-219.93 -298.14)"/><path d="M268.58,431.47a.71.71,0,0,0-.34.94c.64,1.38,2.36,5.15,2.63,6.06a.69.69,0,0,0,.87.49.7.7,0,0,0,.49-.87c-.34-1.19-2.47-5.76-2.71-6.28A.71.71,0,0,0,268.58,431.47Z" transform="translate(-219.93 -298.14)"/></svg>