<svg id="_12_4" xmlns="http://www.w3.org/2000/svg" viewBox="0 0 153.07 238.11"><defs><style>.cls-1{fill:#ed1c24;}</style></defs><title>_12_4</title><rect class="cls-1" width="153.07" height="238.11"/><path class="cls-1" d="M227.92,314.6l.25,31.62-.25,139.5L228,522s.38,8.25,10,8.63l117.88.25s10.12-1.63,9.62-11.25l.25-204.13s-1-8.75-10-9.37l-118.62.12S229,306.22,227.92,314.6Z" transform="translate(-220.29 -299.43)"/><path d="M238,305.51a10.64,10.64,0,0,0-10.63,10.63V520.8A10.64,10.64,0,0,0,238,531.43H355.62a10.64,10.64,0,0,0,10.63-10.63V316.14a10.64,10.64,0,0,0-10.63-10.63ZM228.75,520.8V316.14a9.22,9.22,0,0,1,9.21-9.21H355.62a9.22,9.22,0,0,1,9.21,9.21V520.8a9.22,9.22,0,0,1-9.21,9.21H238A9.22,9.22,0,0,1,228.75,520.8Z" transform="translate(-220.29 -299.43)"/><path d="M365.54,508.47s-19.75-6.75-32.5-12.25-47.5-26-54.5-32.75l1-141.25s14.46,15.56,46.75,20.25c31,4.5,39.25-.25,39.25-.25" transform="translate(-220.29 -299.43)"/><path d="M228,485.47s3,5.25,15.5,5.75c0,0,5.75-6,12.5-11.75l.5-158.5c-16.5,20.25-28.75,24.5-28.75,24.5Z" transform="translate(-220.29 -299.43)"/><path d="M353.2,530.06l1,1a63,63,0,0,1,11.52-9l-.72-1.22A63.12,63.12,0,0,0,353.2,530.06Z" transform="translate(-220.29 -299.43)"/><path d="M343.71,530.38l1,1a182.88,182.88,0,0,1,21.4-17.75l-.8-1.17A185.08,185.08,0,0,0,343.71,530.38Z" transform="translate(-220.29 -299.43)"/><path d="M337.08,529.85l.93,1.07a246.44,246.44,0,0,1,27.74-20.26l-.75-1.21A248.28,248.28,0,0,0,337.08,529.85Z" transform="translate(-220.29 -299.43)"/><path d="M339.37,528l1.34.46c.06-.15,5.39-15.66,12.72-25l-1.11-.88C344.83,512.1,339.43,527.84,339.37,528Z" transform="translate(-220.29 -299.43)"/><path d="M326.46,530.15l.83,1.15c.2-.15,20.16-14.57,38.22-23.1l-.6-1.28C346.72,515.51,326.66,530,326.46,530.15Z" transform="translate(-220.29 -299.43)"/><path d="M342.11,526.18l-.13,1.41a54.31,54.31,0,0,0,17.92-1.69l-.38-1.36A54.19,54.19,0,0,1,342.11,526.18Z" transform="translate(-220.29 -299.43)"/><rect x="296.55" y="515.1" width="53.99" height="1.42" transform="translate(-451.41 -34.81) rotate(-33.54)"/><path d="M291.49,529.8l.77,1.18c.47-.3,46.85-30.67,48.81-31.81l-.72-1.23C338.36,499.11,293.4,528.54,291.49,529.8Z" transform="translate(-220.29 -299.43)"/><path d="M278.83,530.13l.76,1.19c2.11-1.36,51.71-33.2,54.2-35l-.83-1.14C330.5,497,279.34,529.79,278.83,530.13Z" transform="translate(-220.29 -299.43)"/><path d="M298.68,493c.75,3.9,2.27,6.54,4.53,7.84a7.33,7.33,0,0,0,6.23.36c5.54-1.92,4.6-14.77,4.48-16.22l-1.42.12c.56,6.53-.47,13.7-3.52,14.77a6.09,6.09,0,0,1-5.06-.26c-1.89-1.09-3.18-3.4-3.85-6.87a62.87,62.87,0,0,1-.49-16.29l-1.41-.16A63.26,63.26,0,0,0,298.68,493Z" transform="translate(-220.29 -299.43)"/><path d="M280.19,524.23l1.38.32c.05-.23,5.27-22.81,17.66-36l-1-1C285.54,501.06,280.24,524,280.19,524.23Z" transform="translate(-220.29 -299.43)"/><path d="M264.7,530.34l1.35.43c.13-.4,12.62-40.27,25.9-58.46l-1.15-.84C277.39,489.85,264.82,529.94,264.7,530.34Z" transform="translate(-220.29 -299.43)"/><rect x="294.33" y="471.35" width="1.42" height="11.74" transform="translate(-439.07 -47.55) rotate(-34.59)"/><path d="M288.45,475.45c2,2.94,8.42,12.6,8.92,13.11l1-1c-.45-.51-5.49-8-8.76-12.91Z" transform="translate(-220.29 -299.43)"/><path d="M286.66,479.17c.07.09,7.18,8.86,9.48,12l1.14-.84c-2.32-3.14-9.45-11.94-9.52-12Z" transform="translate(-220.29 -299.43)"/><path d="M284.51,482.69c2.63,3,7.82,9.15,8.71,11.3l1.31-.54c-1.2-2.91-8.64-11.34-9-11.7Z" transform="translate(-220.29 -299.43)"/><path d="M283,485.71c.07.07,6.6,7,8.36,11.12l1.31-.55c-1.87-4.4-8.37-11.26-8.64-11.55Z" transform="translate(-220.29 -299.43)"/><path d="M281.49,488.67c2.07,2.58,7.63,9.62,8.42,11.2l1.27-.63c-1-2.05-8.28-11.08-8.59-11.46Z" transform="translate(-220.29 -299.43)"/><path d="M279.68,492.53c.07.08,7,7.8,8.4,10.52l1.26-.66c-1.53-2.88-8.31-10.48-8.6-10.81Z" transform="translate(-220.29 -299.43)"/><path d="M278,496.35c.06.08,6.32,7.33,8.1,10.09l1.19-.77c-1.84-2.84-8-9.94-8.22-10.24Z" transform="translate(-220.29 -299.43)"/><path d="M276.66,499.17c.07.09,7.12,8.79,8.24,11.19l1.28-.6c-1.18-2.55-8.13-11.12-8.42-11.48Z" transform="translate(-220.29 -299.43)"/><path d="M274.57,503.58c.07.06,7.09,6.45,8.84,10l1.27-.63c-1.87-3.75-8.87-10.11-9.16-10.38Z" transform="translate(-220.29 -299.43)"/><path d="M273.36,507.54c.07.08,7.3,7.81,8.75,10.07l1.2-.77c-1.52-2.36-8.62-10-8.92-10.27Z" transform="translate(-220.29 -299.43)"/><path d="M271.87,511.22c3.32,3.38,8.46,8.84,9,10l1.27-.64c-.86-1.71-8.44-9.47-9.3-10.34Z" transform="translate(-220.29 -299.43)"/><path d="M270.16,514.67c.07.08,7,8.68,8.48,10.64l1.14-.85c-1.49-2-8.23-10.33-8.52-10.68Z" transform="translate(-220.29 -299.43)"/><polygon points="49.02 219.06 55.86 227.73 56.97 226.85 50.14 218.19 49.02 219.06"/><rect x="270.33" y="521.31" width="1.42" height="8.5" transform="translate(-501.69 15.21) rotate(-41.82)"/><path d="M271.29,529.65l-4.09-3.94-1,1,4.9,4.73.48-.31c.52-.34,52.86-34.35,57.78-37l-.67-1.25C323.93,495.48,276.79,526.09,271.29,529.65Z" transform="translate(-220.29 -299.43)"/><path d="M270.51,476c-7.4.38-16.95,2-25.17,11.58-7.75,9-18,29.28-18.1,29.48l1.27.64c.1-.2,10.27-20.34,17.9-29.19,7.88-9.14,17-10.73,24.17-11.09,6.34-.32,15.7,2,15.79,2l.34-1.38C286.32,477.94,277.06,475.68,270.51,476Z" transform="translate(-220.29 -299.43)"/><path d="M271,476.68l1.75,9.56c-3.33,2.35-27.84,20.27-36.55,43.9l1.33.49c9.15-24.82,36.13-43.3,36.4-43.49l.38-.26-1.91-10.45Z" transform="translate(-220.29 -299.43)"/><rect x="269.58" y="476.75" width="1.42" height="10.96" transform="translate(-323.21 -225.02) rotate(-13.19)"/><path d="M266.08,477.54c.77,1.55,1.89,9.5,2.26,12.44l1.41-.18c-.14-1.1-1.38-10.84-2.41-12.89Z" transform="translate(-220.29 -299.43)"/><path d="M263,477.89c1,4.1,2.81,13.7,2.83,13.8l1.39-.27c0-.09-1.85-9.73-2.84-13.86Z" transform="translate(-220.29 -299.43)"/><path d="M260.39,478.49c1.12,2.72,2.77,15.2,2.78,15.33l1.41-.19c-.07-.52-1.69-12.79-2.88-15.68Z" transform="translate(-220.29 -299.43)"/><path d="M257.52,479.06c0,.07,1.84,7.57,3.15,16.76l1.41-.2c-1.33-9.26-3.16-16.82-3.18-16.9Z" transform="translate(-220.29 -299.43)"/><path d="M253.87,481.27a148.91,148.91,0,0,1,4.31,17.57l1.39-.24a149.51,149.51,0,0,0-4.35-17.76Z" transform="translate(-220.29 -299.43)"/><path d="M251,482.78c0,.06,2,6.11,4,18.72l1.4-.22c-2-12.74-4-18.7-4-18.95Z" transform="translate(-220.29 -299.43)"/><path d="M248.21,485a111.27,111.27,0,0,1,4.3,19.69l1.4-.19a112.1,112.1,0,0,0-4.36-20Z" transform="translate(-220.29 -299.43)"/><path d="M245.53,487.6a149.3,149.3,0,0,1,4.31,19.9l1.4-.22a154,154,0,0,0-4.35-20.1Z" transform="translate(-220.29 -299.43)"/><path d="M243,490.94a144.5,144.5,0,0,1,4.15,19.89l1.4-.21a146.85,146.85,0,0,0-4.2-20.11Z" transform="translate(-220.29 -299.43)"/><path d="M240.85,494.39c0,.12,2.84,11.89,4,19.6l1.4-.2c-1.15-7.78-4-19.61-4-19.73Z" transform="translate(-220.29 -299.43)"/><path d="M238,498.1a101.38,101.38,0,0,1,3.81,20.17l1.41-.09a102.31,102.31,0,0,0-3.86-20.5Z" transform="translate(-220.29 -299.43)"/><path d="M235.2,502.61a124.38,124.38,0,0,1,4.31,19.55l1.4-.2a126.15,126.15,0,0,0-4.36-19.79Z" transform="translate(-220.29 -299.43)"/><path d="M233.2,506.44a124.72,124.72,0,0,1,4.47,19.86l1.41-.16c-1-9-4.49-20-4.53-20.13Z" transform="translate(-220.29 -299.43)"/><path d="M231.52,509.73c0,.12,3.17,12.88,4.15,20.58l1.41-.18c-1-7.78-4.15-20.62-4.18-20.74Z" transform="translate(-220.29 -299.43)"/><path d="M229.51,513.17c0,.1,1.69,9.94,3.35,16.4l1.37-.36c-1.64-6.39-3.31-16.17-3.32-16.27Z" transform="translate(-220.29 -299.43)"/><path d="M255.85,530.58l1.39.28c.05-.25,5.08-25.09,13.93-41.81l-1.25-.66C261,505.29,255.9,530.33,255.85,530.58Z" transform="translate(-220.29 -299.43)"/><path d="M255.35,469.94l.72,1.23c.1-.06,10.84-6.18,27.05-4.08l.18-1.4C266.59,463.51,255.8,469.68,255.35,469.94Z" transform="translate(-220.29 -299.43)"/><path d="M271.38,466l1.33.49c0-.07,2.67-7.08,7-11.41l-1-1C274.15,458.61,271.49,465.68,271.38,466Z" transform="translate(-220.29 -299.43)"/><path d="M254.88,467.3l1.32.51c.09-.22,8.8-22.18,24.49-36.39l-1-1.06C263.79,444.81,255,467.07,254.88,467.3Z" transform="translate(-220.29 -299.43)"/><path d="M261.92,453.91a.7.7,0,0,0-.36.93.71.71,0,0,0,.94.36,6.24,6.24,0,0,1,6.57,1.55c3.31,3,2.45,7.62,2.44,7.67a.72.72,0,0,0,.56.83.69.69,0,0,0,.83-.56c.05-.22,1-5.43-2.88-9A7.59,7.59,0,0,0,261.92,453.91Z" transform="translate(-220.29 -299.43)"/><path d="M254.67,448.89a.71.71,0,0,0,.71.71,7.66,7.66,0,0,1,6.69,4.1.71.71,0,1,0,1.28-.62,9.11,9.11,0,0,0-8-4.9A.71.71,0,0,0,254.67,448.89Z" transform="translate(-220.29 -299.43)"/><path d="M269.38,430.39c-2.69,2.68-12.67,17.64-13.09,18.27a.72.72,0,0,0,.19,1,.73.73,0,0,0,1-.2c.1-.16,10.32-15.47,12.91-18.06,2.1-2.11,3.48-1.48,4.58-1l.3.13a1.88,1.88,0,0,1,.78,1.15,2.8,2.8,0,0,1-.1,2.16.71.71,0,0,0,1.2.75,4.21,4.21,0,0,0,.26-3.33,3.14,3.14,0,0,0-1.58-2l-.28-.13C274.37,428.58,272.18,427.59,269.38,430.39Z" transform="translate(-220.29 -299.43)"/><path d="M266.5,420.62c-3.4,2.15-10.32,13.92-12.77,19.48a.71.71,0,1,0,1.29.58c2.57-5.82,9.35-17,12.23-18.86,1.33-.83,2.55-1.05,3.45-.61a3,3,0,0,1,1.47,2.59c.3,2.86-1.85,6-1.88,6a.71.71,0,0,0,1.17.81c.1-.15,2.48-3.59,2.12-7a4.41,4.41,0,0,0-2.26-3.72C270,419.27,268.25,419.52,266.5,420.62Z" transform="translate(-220.29 -299.43)"/><path d="M279.56,408.92c-6.09,3-11.69,10.73-11.93,11.05a.72.72,0,0,0,.16,1,.71.71,0,0,0,1-.16c.06-.07,5.64-7.72,11.41-10.61a.7.7,0,0,0,.32-.95A.71.71,0,0,0,279.56,408.92Z" transform="translate(-220.29 -299.43)"/><path d="M255,385.61a.7.7,0,0,0,.11,1,.72.72,0,0,0,1-.11c2-2.48,8.41-4.52,13.09-3.37,2.46.6,3.91,2,4.32,4.06a24.21,24.21,0,0,1-1.93,14l-.89,1.74,1.8-.76a3.47,3.47,0,0,1,2.54,0,3.39,3.39,0,0,1,1.67,2.24c1.22,4,.22,6.13.21,6.15a.7.7,0,0,0,.32.94.72.72,0,0,0,.95-.31c.05-.11,1.27-2.64-.13-7.2a4.69,4.69,0,0,0-2.44-3.11,4.21,4.21,0,0,0-2.2-.33,26.11,26.11,0,0,0,1.88-9.54,21.14,21.14,0,0,0-.39-4.11c-.51-2.64-2.37-4.43-5.38-5.17C264.7,380.57,257.5,382.48,255,385.61Z" transform="translate(-220.29 -299.43)"/><path d="M255.15,392.3a.71.71,0,0,0,.78,1.18c.15-.1,3.56-2.3,5.95.08,2,2,.34,6.84-.47,8.52l-.3.61.61.33s2,1.12,2.28,5.42c.31,4.47-4.84,13.14-8.7,15.87a.71.71,0,0,0-.17,1,.72.72,0,0,0,1,.17c4.14-2.93,9.31-11.49,9.31-16.64,0-.17,0-.33,0-.49-.26-3.76-1.69-5.48-2.5-6.18a15.77,15.77,0,0,0,1.34-5.72,5.31,5.31,0,0,0-1.38-3.88C260.31,390,256.7,391.27,255.15,392.3Z" transform="translate(-220.29 -299.43)"/><path d="M279.44,375.85c-1.58,2.53-7.45,7.27-7.51,7.32a.72.72,0,0,0-.11,1,.71.71,0,0,0,1,.1c.25-.2,6.11-4.94,7.82-7.67a.71.71,0,1,0-1.2-.75Z" transform="translate(-220.29 -299.43)"/><path d="M279.94,364.51c-.59.94-9.34,10.72-15.09,17.07a.71.71,0,1,0,1,.95c1.47-1.62,14.4-15.92,15.24-17.27a.7.7,0,0,0-.22-1A.71.71,0,0,0,279.94,364.51Z" transform="translate(-220.29 -299.43)"/><path d="M279.79,354.49c-.6.85-15,16.56-24.6,26.92a.71.71,0,1,0,1,1c2.46-2.67,24.06-26.07,24.74-27.09a.71.71,0,0,0-.2-1A.71.71,0,0,0,279.79,354.49Z" transform="translate(-220.29 -299.43)"/><path d="M280,347.41c-1.65,1.82-24.06,27.59-25,28.68a.71.71,0,1,0,1.07.93c.23-.27,23.34-26.85,25-28.65a.72.72,0,0,0-.05-1A.71.71,0,0,0,280,347.41Z" transform="translate(-220.29 -299.43)"/><path d="M280.56,340c-2,1.84-24.75,28-25.72,29.06a.71.71,0,0,0,.07,1,.7.7,0,0,0,1-.07c.24-.27,23.66-27.16,25.61-28.94a.7.7,0,0,0,0-1A.71.71,0,0,0,280.56,340Z" transform="translate(-220.29 -299.43)"/><path d="M289.56,305.7c-.19,0-18.86,4.19-34.31,17.49l-.2.17-.72,4.56,1.1-.36c.22-.07,22.6-7.32,36.37-17.77a.71.71,0,1,0-.85-1.13c-11.85,9-30.22,15.6-34.86,17.19.13-.81.23-1.48.28-1.75,15.13-12.92,33.31-17,33.49-17a.71.71,0,0,0,.56-.69.77.77,0,0,0,0-.15A.7.7,0,0,0,289.56,305.7Z" transform="translate(-220.29 -299.43)"/><path d="M319.42,315.24c-17.81,7.82-25,18-25.29,18.41a.71.71,0,0,0,.17,1,.72.72,0,0,0,1-.18c.07-.1,7.29-10.27,24.7-17.92a.71.71,0,1,0-.57-1.3Z" transform="translate(-220.29 -299.43)"/><path d="M338.71,315.05a.7.7,0,0,0,0,1,109.76,109.76,0,0,1,20.85,29.29.71.71,0,1,0,1.3-.57,111.48,111.48,0,0,0-21.15-29.71A.71.71,0,0,0,338.71,315.05Z" transform="translate(-220.29 -299.43)"/><path d="M301.22,326.46a.71.71,0,0,0,.39.92,144.25,144.25,0,0,0,53.29,8.55.71.71,0,0,0,0-1.42,143,143,0,0,1-52.71-8.44A.7.7,0,0,0,301.22,326.46Z" transform="translate(-220.29 -299.43)"/><path d="M306.56,322.77a.7.7,0,0,0,.36.93c.15.07,15.63,6.9,44.13,6.73a.7.7,0,0,0,.7-.71A.71.71,0,0,0,351,329c-28.15.17-43.39-6.53-43.54-6.6A.71.71,0,0,0,306.56,322.77Z" transform="translate(-220.29 -299.43)"/><path d="M312.23,318.76a.71.71,0,0,0,.35.94c.13.06,14.06,6.4,34.82,5.73a.7.7,0,0,0,.68-.73.71.71,0,0,0-.73-.69c-20.4.66-34-5.53-34.18-5.6A.71.71,0,0,0,312.23,318.76Z" transform="translate(-220.29 -299.43)"/><path d="M316.29,316.69c-16.05,1.83-28,13.24-28.07,13.36a.7.7,0,1,0,1,1c.12-.11,11.69-11.18,27.26-13a.69.69,0,0,0,.62-.78A.7.7,0,0,0,316.29,316.69Z" transform="translate(-220.29 -299.43)"/><path d="M284.23,327a.71.71,0,0,0,1,1.05c.12-.11,12.26-11.08,26.08-9a.71.71,0,0,0,.81-.59.72.72,0,0,0-.6-.81C297,315.5,284.74,326.56,284.23,327Z" transform="translate(-220.29 -299.43)"/><path d="M280.86,315.68a.75.75,0,0,0,.65.75c.79.1,7,2.88,12.4,5.43a.7.7,0,0,0,.94-.34.71.71,0,0,0-.34-.94c-3.55-1.67-11.92-5.57-13-5.57A.7.7,0,0,0,280.86,315.68Z" transform="translate(-220.29 -299.43)"/><path d="M276,318a.7.7,0,0,0,.43.9l14,4.84a.72.72,0,0,1-.44-.91.71.71,0,0,1,.9-.43l-14-4.84A.72.72,0,0,0,276,318Z" transform="translate(-220.29 -299.43)"/><path d="M301.91,308.58a.71.71,0,0,0,.32.95c.13.06,12.85,6.22,23.29,9.21a83.32,83.32,0,0,0,19,3.19.7.7,0,0,0,.72-.69.71.71,0,0,0-.69-.73,82.16,82.16,0,0,1-18.66-3.13c-10.31-2.95-22.92-9.07-23-9.13A.7.7,0,0,0,301.91,308.58Z" transform="translate(-220.29 -299.43)"/><path d="M306,305.64c-9.93,6.84-22.47,9.86-22.59,9.89a.71.71,0,1,0,.33,1.38c.12,0,12.91-3.11,23.07-10.1a.71.71,0,0,0-.81-1.17Z" transform="translate(-220.29 -299.43)"/><path d="M328.2,306.07a12.26,12.26,0,0,1-7.7,2.95l-14.87.84-.17.12a45.11,45.11,0,0,1-17.52,7.54.71.71,0,1,0,.21,1.4,45.69,45.69,0,0,0,18-7.67l14.49-.82c5.71-.35,8.52-3.26,8.63-3.39a.69.69,0,0,0,.2-.48.74.74,0,0,0-.22-.52A.71.71,0,0,0,328.2,306.07Z" transform="translate(-220.29 -299.43)"/><path d="M308.1,311.17c-5.84,4.7-16,8.35-16.13,8.38a.71.71,0,0,0,.48,1.34c.42-.15,10.51-3.76,16.54-8.62a.71.71,0,0,0-.89-1.1Z" transform="translate(-220.29 -299.43)"/><path d="M311.39,312.7c-2.23,2.08-7.95,5-8,5.06A.71.71,0,0,0,304,319c.25-.12,6-3.07,8.33-5.28a.71.71,0,0,0-1-1Z" transform="translate(-220.29 -299.43)"/><path d="M314.44,314a39.52,39.52,0,0,1-4.66,4,.72.72,0,0,0-.13,1,.7.7,0,0,0,1,.13c1-.8,4.48-3.49,5-4.37a.71.71,0,1,0-1.21-.73Z" transform="translate(-220.29 -299.43)"/><path d="M353.14,305.85a.72.72,0,0,0-.64.78c1.77,17.6-2.1,22.07-2.14,22.11a.71.71,0,1,0,1,1c.18-.18,4.37-4.78,2.52-23.22A.7.7,0,0,0,353.14,305.85Z" transform="translate(-220.29 -299.43)"/><path d="M346.21,305.6a.7.7,0,0,0-.29,1c.05.1,5.36,10.11,3.59,21.39a.71.71,0,1,0,1.4.22c1.85-11.77-3.52-21.86-3.74-22.28A.7.7,0,0,0,346.21,305.6Z" transform="translate(-220.29 -299.43)"/><path d="M310.53,305.9a.7.7,0,0,0,0,1c.26.26,6.67,6.17,20,8.52,12.39,2.18,18.79-.43,19.06-.54a.71.71,0,1,0-.55-1.31c-.06,0-6.33,2.55-18.27.45-12.91-2.26-19.24-8.09-19.3-8.15A.72.72,0,0,0,310.53,305.9Z" transform="translate(-220.29 -299.43)"/><path d="M329.58,306.07a.7.7,0,0,0,.31.95l16.67,8.34a.71.71,0,0,0,.63-1.27l-16.66-8.33A.7.7,0,0,0,329.58,306.07Z" transform="translate(-220.29 -299.43)"/><path d="M357.5,340.52a.7.7,0,0,0,.68.74l7.33.34a.71.71,0,0,0,.06-1.42l-7.33-.33A.71.71,0,0,0,357.5,340.52Z" transform="translate(-220.29 -299.43)"/><path d="M355.5,337.52a.71.71,0,0,0,.67.74l8.83.5a.7.7,0,0,0,.75-.66.71.71,0,0,0-.67-.75l-8.83-.5A.71.71,0,0,0,355.5,337.52Z" transform="translate(-220.29 -299.43)"/><path d="M353.83,334.36a.72.72,0,0,0,.68.74l11.17.5a.71.71,0,0,0,.06-1.42l-11.17-.5A.71.71,0,0,0,353.83,334.36Z" transform="translate(-220.29 -299.43)"/><path d="M351.33,330.87a.71.71,0,0,0,.7.73l13.33.33a.71.71,0,0,0,0-1.42l-13.33-.33A.71.71,0,0,0,351.33,330.87Z" transform="translate(-220.29 -299.43)"/><path d="M351.67,327a.71.71,0,0,0,.67.74l13.33.67a.71.71,0,1,0,.07-1.42l-13.33-.66A.71.71,0,0,0,351.67,327Z" transform="translate(-220.29 -299.43)"/><path d="M352.67,323.86a.71.71,0,0,0,.68.74l12,.5a.71.71,0,0,0,0-1.42l-12-.5A.7.7,0,0,0,352.67,323.86Z" transform="translate(-220.29 -299.43)"/><path d="M353,320.71a.71.71,0,0,0,.7.72l11.5.17a.71.71,0,0,0,0-1.42l-11.5-.17A.72.72,0,0,0,353,320.71Z" transform="translate(-220.29 -299.43)"/><path d="M353.33,316.69a.72.72,0,0,0,.68.74l11.67.5a.71.71,0,0,0,.06-1.42l-11.67-.5A.72.72,0,0,0,353.33,316.69Z" transform="translate(-220.29 -299.43)"/><path d="M353.27,312.77a.69.69,0,0,0,.21.88c.18.12.67.44,11.53,1a.71.71,0,0,0,.74-.68.71.71,0,0,0-.67-.74c-4.83-.22-10.29-.57-10.92-.77A.74.74,0,0,0,353.27,312.77Z" transform="translate(-220.29 -299.43)"/><path d="M353.88,309.35a.71.71,0,0,0-.71.71.7.7,0,0,0,.71.7h9.33a.7.7,0,0,0,.71-.7.71.71,0,0,0-.71-.71Z" transform="translate(-220.29 -299.43)"/><path d="M247.36,321.94c-10,5.64-19.87,15-20,15.1a.71.71,0,1,0,1,1c.1-.09,9.89-9.34,19.7-14.9,8.6-4.87,10.39-4.14,10.66-3.94s.19.55.13.85a.71.71,0,1,0,1.39.28,2.06,2.06,0,0,0-.69-2.28C258.54,317.35,256.17,317,247.36,321.94Z" transform="translate(-220.29 -299.43)"/><path d="M227.67,314.22a.7.7,0,0,0,.7.71l40,.33a.71.71,0,0,0,0-1.41l-40-.34A.71.71,0,0,0,227.67,314.22Z" transform="translate(-220.29 -299.43)"/><path d="M229,311.21a.71.71,0,0,0,.7.72l43.83.83a.71.71,0,0,0,0-1.41l-43.84-.84A.72.72,0,0,0,229,311.21Z" transform="translate(-220.29 -299.43)"/><path d="M231.67,308.37a.71.71,0,0,0,.69.73l47,1.33a.71.71,0,0,0,0-1.42l-47-1.33A.71.71,0,0,0,231.67,308.37Z" transform="translate(-220.29 -299.43)"/></svg>