<svg id="_12_3" xmlns="http://www.w3.org/2000/svg" viewBox="0 0 153.07 238.11"><defs><style>.cls-1{fill:#ed1c24;}.cls-2{fill:#fff;}</style></defs><title>_12_3</title><rect class="cls-1" width="153.07" height="238.11"/><path class="cls-2" d="M227.35,311.06l-.16,206.67s.66,8.33,9.33,9H346.35l9.5-46,9.5-50.33V384.56l.17-55.66-.5-18.34a10.09,10.09,0,0,0-8.83-8.33l-118.5.17S228.69,301.06,227.35,311.06Z" transform="translate(-219.65 -295.42)"/><path class="cls-1" d="M254.31,350.48l49.5,1.37s15.54,23.88,22.71,52.55a329.93,329.93,0,0,1,10.33,68.33l.5,27.67-1.5.83-.66,3.33-39.34-1.33s.34-28.17-3-51.5-9.66-48.17-18.5-67.17C274.35,384.56,265.27,364.23,254.31,350.48Z" transform="translate(-219.65 -295.42)"/><path d="M237.11,301.52a10.64,10.64,0,0,0-10.63,10.63V516.81a10.64,10.64,0,0,0,10.63,10.63H355.27a10.64,10.64,0,0,0,10.63-10.63V312.15a10.64,10.64,0,0,0-10.63-10.63Zm-9.22,215.29V312.15a9.23,9.23,0,0,1,9.22-9.21H355.27a9.22,9.22,0,0,1,9.21,9.21V516.81a9.22,9.22,0,0,1-9.21,9.21H237.11A9.23,9.23,0,0,1,227.89,516.81Z" transform="translate(-219.65 -295.42)"/><path d="M253.49,351c.44.49,44.11,50.35,41.49,152.5l0,.71,41,1.38.09-.64c.1-.83,10.21-83.72-31.43-153.46l-.2-.33-52-1.39Zm43,143.7c0-88.35-34.58-135.49-40.95-143.43l48,1.28c27.59,46.42,32.2,98.64,32.2,128.27a223.16,223.16,0,0,1-1.08,23.31l-38.32-1.29C296.47,500.13,296.51,497.41,296.51,494.74Z" transform="translate(-219.65 -295.42)"/><path d="M267.94,526.48l25.25.25A128.25,128.25,0,0,1,276.44,480c-4.25-27.75,12.25-49.5,12.25-49.5V429a44.51,44.51,0,0,0-20.5,17s-11-33.75,5-62.5c0,0-7.25.25-20,20.75,0,0-16.75-42,2.75-101.75l-1.25-.25a257.77,257.77,0,0,0-21,67.25c-6.5,38.75,2.75,85.75,2.75,85.75s-6-9.5-9-15c0,0,.25,4.75.25,6s5,29.25,7.5,42.25,8.5,24.5,17,30A80.92,80.92,0,0,0,267.94,526.48Z" transform="translate(-219.65 -295.42)"/><path d="M300.94,503.73s1.5,8.75,12,9.75,14-8.75,14-8.75l2.5.25s1.5,16-4.5,21.75l-21.5-.25s-8.75-6.5-5-22.5Z" transform="translate(-219.65 -295.42)"/><path d="M345.44,526.73s-8.75-11-9.75-25.25c0,0,1.5-23.25.75-30.5,0,0,7.46-20,2.5-63.25-5.25-45.75-22.5-78.25-22.5-78.25s33.75,51,48.5,99.75l.25,87.58s.4,10.17-9.92,9.92Z" transform="translate(-219.65 -295.42)"/><path d="M364.94,387s-10.25-21-25-32.75c0,0-3-33.25-16.75-52l29.75.5s3.25,8,5.75,12.75,6.25,12.75,6.5,16.5Z" transform="translate(-219.65 -295.42)"/><rect x="259.39" y="521.5" width="1.42" height="5.3" transform="translate(-328.69 -225.28) rotate(-12.72)"/><path d="M253.66,518.7c.32,1.62,1.15,8.38,1.16,8.45l1.4-.17c0-.28-.84-6.88-1.17-8.56Z" transform="translate(-219.65 -295.42)"/><path d="M247.48,514.16c.5,3.67,2.92,12.55,3,12.92l1.37-.37c0-.09-2.49-9.17-3-12.74Z" transform="translate(-219.65 -295.42)"/><path d="M235.32,492.83a115.14,115.14,0,0,0,10.24,34.23l1.25-.66a113.6,113.6,0,0,1-10.09-33.77Z" transform="translate(-219.65 -295.42)"/><path d="M230.15,490.31c.12,1,2.92,24.27,9.41,36.58l1.25-.66c-6.36-12.07-9.23-35.85-9.25-36.08Z" transform="translate(-219.65 -295.42)"/><path d="M228.32,505.32c.07.53,1.71,13.19,5.05,21.18l1.3-.54c-3.25-7.82-4.93-20.69-4.95-20.82Z" transform="translate(-219.65 -295.42)"/><rect x="283.25" y="509.19" width="17.21" height="1.42" transform="translate(-492.57 52.58) rotate(-44.22)"/><path d="M288,521.09l1.06.95c.07-.09,7.35-8.18,10.29-11l-1-1C295.38,512.87,288.29,520.75,288,521.09Z" transform="translate(-219.65 -295.42)"/><path d="M295.28,525.82l.82,1.15c.21-.15,5.32-3.79,6.71-6.41l-1.25-.66C300.32,522.22,295.33,525.78,295.28,525.82Z" transform="translate(-219.65 -295.42)"/><path d="M327.43,515.5l.85,1.13c1.5-1.13,9-6.86,9.87-8.58l-1.26-.64C336.33,508.52,330.79,513,327.43,515.5Z" transform="translate(-219.65 -295.42)"/><path d="M328.44,526.15l.82,1.16c.47-.33,11.39-8,13.24-9.72l-1-1.05C339.76,518.16,328.56,526.07,328.44,526.15Z" transform="translate(-219.65 -295.42)"/><rect x="337.39" y="452.43" width="1.42" height="6.43" transform="matrix(0.6, -0.8, 0.8, 0.6, -448.93, 160.29)"/><rect x="337.14" y="445.06" width="1.42" height="7.67" transform="translate(-443.05 178.83) rotate(-55.62)"/><path d="M333.1,439c2.34,1.7,8.64,6.41,9.68,7.84l1.15-.83c-1.36-1.87-9.11-7.52-10-8.16Z" transform="translate(-219.65 -295.42)"/><path d="M331.21,427.92c.08.07,8.36,7.69,11.48,10.81l1-1c-3.14-3.14-11.44-10.78-11.52-10.86Z" transform="translate(-219.65 -295.42)"/><path d="M329.53,417.91c.09.08,8.89,8.55,12.53,11.69l.92-1.07c-3.61-3.12-12.38-11.56-12.47-11.65Z" transform="translate(-219.65 -295.42)"/><path d="M325.72,404.76c.16.14,15.59,13.63,17.68,17.47l1.24-.67c-2.2-4.07-17.34-17.3-18-17.87Z" transform="translate(-219.65 -295.42)"/><path d="M320.69,388.4c.82.82,20.19,20.19,21.53,21.36l.93-1.06c-1.3-1.14-21.26-21.1-21.46-21.31Z" transform="translate(-219.65 -295.42)"/><path d="M317,373.91c.21.2,21.33,19.84,23.29,22l1-1c-2-2.17-22.5-21.23-23.37-22Z" transform="translate(-219.65 -295.42)"/><polygon points="97.87 70.81 117.03 89.47 118.04 88.47 98.86 69.8 97.87 70.81"/><path d="M315.86,355.41c.18.16,17.5,16.83,19.14,18.63l1-1c-1.66-1.83-18.48-18-19.2-18.71Z" transform="translate(-219.65 -295.42)"/><path d="M313.34,343.38c.14.15,14.16,15,16,17.29l1.11-.88c-1.83-2.33-15.46-16.77-16-17.38Z" transform="translate(-219.65 -295.42)"/><path d="M332.35,358.65l1.33.49c.18-.49,4.37-12,5.54-19.3l-1.4-.22C336.68,346.8,332.4,358.53,332.35,358.65Z" transform="translate(-219.65 -295.42)"/><path d="M336.33,366.58l1.38.3a147.85,147.85,0,0,1,4.15-14.42l-1.34-.46A149,149,0,0,0,336.33,366.58Z" transform="translate(-219.65 -295.42)"/><path d="M337.67,374.71l1.37.37c.49-1.8,5.94-20,6-20.15l-1.36-.4C343.45,355.27,338.17,372.89,337.67,374.71Z" transform="translate(-219.65 -295.42)"/><path d="M341.5,380.7l1.37.39c.33-1.16,5.61-21.16,5.84-22l-1.38-.37C347.28,358.92,341.83,379.55,341.5,380.7Z" transform="translate(-219.65 -295.42)"/><path d="M344.82,390.1l1.4.26c.32-1.79,6.75-25.37,6.82-25.61l-1.37-.37C351.4,365.35,345.16,388.26,344.82,390.1Z" transform="translate(-219.65 -295.42)"/><rect x="339.61" y="382.35" width="26.15" height="1.42" transform="translate(-336.49 312.73) rotate(-72.98)"/><path d="M350.67,404.56l1.37.34c.18-.67,6.67-20.4,9.15-27.95l-1.34-.44C358.92,379.31,350.84,403.88,350.67,404.56Z" transform="translate(-219.65 -295.42)"/><path d="M354.33,410.72l1.38.35c1.15-4.6,8.74-29.22,8.82-29.47l-1.35-.41C362.86,382.2,355.49,406.09,354.33,410.72Z" transform="translate(-219.65 -295.42)"/><path d="M356.57,419.37l1.23.71c1.84-3.17,7.63-17.32,7.88-17.92l-1.32-.53C364.3,401.77,358.36,416.29,356.57,419.37Z" transform="translate(-219.65 -295.42)"/></svg>