<svg id="_1_1" xmlns="http://www.w3.org/2000/svg" viewBox="0 0 153.07 238.11"><defs><style>.cls-1{fill:#ed1c24;}.cls-2{fill:#fff;}.cls-3{fill:#ffcb05;}</style></defs><title>_1_1</title><rect class="cls-1" width="153.07" height="238.11"/><path class="cls-2" d="M221.49,308.08l-.33,125.33,22.5,58.17,16.5,30.83,44.5.33,38.67-.83,6.33-42,8.17-87.33v-84.5s-2-9-10-9l-117.17-.17S222.49,300.24,221.49,308.08Z" transform="translate(-213.12 -291.86)"/><path class="cls-1" d="M349.16,299.24l-72.67-.16s-3,17.33,8.34,35.83,40,38.83,73,29.33V308.08S356.83,299.41,349.16,299.24Z" transform="translate(-213.12 -291.86)"/><path class="cls-1" d="M229.24,349.58a10.12,10.12,0,0,1,5.25-9.5c5.88-3.13,11.63.25,12.25,1.5,0,0-.37,4.37-6.37,7.37S230.49,350.58,229.24,349.58Z" transform="translate(-213.12 -291.86)"/><path class="cls-3" d="M343.37,390.08s-3.63-2.38-4.38-8.88,2.13-10.12,4.38-10,3.87,3.13,3.87,7.25a60.63,60.63,0,0,1-1,9.38S345.24,391.58,343.37,390.08Z" transform="translate(-213.12 -291.86)"/><path class="cls-3" d="M250,469.7s.25-5.62,2.88-8.12,5.5-2.5,6.37.12-1.12,9.13-1.75,10a16.23,16.23,0,0,0-1.25,3.75l-3.5,1.75-3.37-2.12Z" transform="translate(-213.12 -291.86)"/><path class="cls-3" d="M301.24,487.45a29.94,29.94,0,0,1-6.12-5.37c-2.13-2.75-2.25-6.88-1.13-8.63s3.88-2,5.88,1.75a26.06,26.06,0,0,1,2.62,9.75,18,18,0,0,0,.63,3.38Z" transform="translate(-213.12 -291.86)"/><path d="M357.49,391.41s-6.83-8.33-9.83-9.67c0,0-2.33,8.67-4.67,8.5s-3.33-6.83-3.33-6.83-17.92,29.17-23.92,86.92c0,0-9.75,6.58-13.25,13.41,0,0-.33,3.84-1.5,3.67,0,0-3.66,13.83-1,21.33s3.17,12.5,2.84,13.5l46,.67s8.83-1.67,9-10.09Z" transform="translate(-213.12 -291.86)"/><path d="M231.41,298.37A10.64,10.64,0,0,0,220.78,309V512.82a10.64,10.64,0,0,0,10.63,10.63h116.5a10.64,10.64,0,0,0,10.62-10.63V309a10.64,10.64,0,0,0-10.62-10.63ZM222.2,512.82V309a9.22,9.22,0,0,1,9.21-9.21h116.5a9.22,9.22,0,0,1,9.21,9.21V512.82a9.23,9.23,0,0,1-9.21,9.22H231.41A9.23,9.23,0,0,1,222.2,512.82Z" transform="translate(-213.12 -291.86)"/><path d="M297.68,350.6c27.33,24.66,59.38,14.59,59.7,14.48l-.44-1.34c-.31.1-31.61,9.9-58.31-14.19s-21.5-49.73-21.44-50l-1.39-.3C275.74,299.52,270.36,326,297.68,350.6Z" transform="translate(-213.12 -291.86)"/><circle class="cls-1" cx="115.62" cy="206.47" r="23.62"/><path class="cls-2" d="M324.87,488s-2.88-1-3.63-1.12-.5,1.12-.5,2,0,1.75,1.38,1.12A11.4,11.4,0,0,0,324.87,488Z" transform="translate(-213.12 -291.86)"/><path class="cls-2" d="M328.62,488.2a48.52,48.52,0,0,0,.62-6,26.46,26.46,0,0,1,0-3.12c0-.5,1.13-.38,1.13.75S330,482,330,482.58s.38,3.75.38,3.75a39.41,39.41,0,0,0,4.87-3.75c1.13-1.25,2.13-2.5,2.38-1.5s.5,1.87-.25,2.62-6.63,3.75-7.63,5.13-.87,2.25-.62,2.87,0,1.25,1.37.75,3.38-1.5,4.63-2.12,1.12.87.62,1.37a37,37,0,0,1-3.5,2.13c-.37.25-.25,1.5.5,1.75s1.75.62.88,1.87-1.13,1.25-1.5,2.63-.5,4.37-.75,6.12,1.5,2.25,4,2.25a26.17,26.17,0,0,0,6-.62c.62-.25,2.25-2.75,2.75-3.38s.5-.37.75.5.62,2.75,1,3.63.62,1.37-1.75,2-8.88.25-11.38-.13-3.12-1.37-3-4a72.36,72.36,0,0,1,1-7.25s0-.87-1.25-.37-4,3.12-5.5,4.75-4,4.12-6.25,5-2.87-.38-1.87-.88a65.39,65.39,0,0,0,7.75-6.62c1.5-1.63,5.25-5.38,5.25-5.88s-.88-.87-1.75-1-1.75.25-3.25,1.25-2.25,1.75-3.63,1-.37-1.75,1.13-2,1.62-.87,2.62-.87a13.41,13.41,0,0,0,3.88-.5c.87-.38.5-.88.12-1.5s-.75-.88-.25-2A3.36,3.36,0,0,1,328.62,488.2Z" transform="translate(-213.12 -291.86)"/><path d="M276.16,332.54a3.67,3.67,0,0,0-2.56.84,2.69,2.69,0,0,0-.82,2,3.22,3.22,0,0,0,1.05,2.54,3.93,3.93,0,0,0,3.08.83,3.15,3.15,0,0,0,2.79-3.37,2.61,2.61,0,0,0-1-2A3.64,3.64,0,0,0,276.16,332.54Zm.14,1.4a2.29,2.29,0,0,1,1.47.54,1.22,1.22,0,0,1,.51.93,1.74,1.74,0,0,1-1.54,2,2.59,2.59,0,0,1-2-.48,1.86,1.86,0,0,1-.57-1.48,1.31,1.31,0,0,1,.36-1,2.42,2.42,0,0,1,1.56-.47h.09Z" transform="translate(-213.12 -291.86)"/><path d="M246.9,340.76c-.83-.9-3.26-3-8-2.55-6.13.55-10.48,4.83-10.48,10.22v.34a180.37,180.37,0,0,0,2.35,18.77c.57,3.13.9,14.3,1.08,20.29l.07,2.44c0,.3,0,.61,0,.94,0,1.58-.1,3.49-.21,5.63-.16,3-.34,6.33-.34,10.1,0,2.79.1,5.8.38,9,1,11.69,11,25,19.68,30a94.9,94.9,0,0,0,16.59,7.66l3.37,4.32c1.92,2.56,2.37,4.32,2.69,8s.33,10.3.33,12.43c0,1.79.79,3.29,1.79,3.41.47.06,1.06-.19,1.27-1.06.32-1.27,2.3-6.05,2.8-7.23a5.53,5.53,0,0,0,.43-2.17,4.72,4.72,0,0,0-.45-2.09l-.09-.18a9.52,9.52,0,0,1-1.12-4.73,14.09,14.09,0,0,1,.12-1.86,27.61,27.61,0,0,1,1.4-6.54,18.8,18.8,0,0,0,3,1A74.94,74.94,0,0,0,285,467.74a52.18,52.18,0,0,0,2.92,8.53,28.42,28.42,0,0,0-1.6,5.58,3.54,3.54,0,0,0,0,.45c0,1.42.7,1.73,1,1.8a1.42,1.42,0,0,0,1.53-1.13,22.38,22.38,0,0,1,3.6-4.67,2.61,2.61,0,0,0,.77-2.14,13.64,13.64,0,0,0-1.39-5.21c-1-2.15-1.36-6.74-1.51-9.49a15,15,0,0,0,3.71,2.75l1,.51v-1.14a11.25,11.25,0,0,1,.39-2.65c-.08,2.77-.13,5.75-.14,6l0,1.27,1.09-.65c2.72-1.61,4.2-4.95,5-7.61,0,.68.06,1.37.06,2,0,1.88-.12,3.4-.12,3.43l-.16,1.92,1.36-1.36c5-5,6.18-13.69,6.45-17.89a28.64,28.64,0,0,1,2,9.57l1.4.13a74.18,74.18,0,0,0,1.74-14.87c0-14.5-6.43-21.47-16.42-27.06-11.2-6.27-21.34-6.34-28-6.39l-2.45,0-1.38,0c-5.82-.14-11.32-.28-15.53-2.08-4.38-1.88-9.09-7.27-9.74-15.08-.23-2.84-.32-7.05-.32-11.38,0-7.91.29-16.21.48-17.26a32.64,32.64,0,0,1,2.77-7.31,13.81,13.81,0,0,0,1.24-5.82c11.13-3.91,28.78-13.11,28.95-13.2,0,0-.35-.69-.52-1l.49-.09-.25-1.4C273.19,334.74,256.27,337.82,246.9,340.76Zm0,1.49c7.64-2.46,20.94-5.05,25.29-5.87-3.67,1.89-18.76,9.55-28.41,12.86l-.5.17,0,.54a1.58,1.58,0,0,1,0,.31,12.9,12.9,0,0,1-1.1,5.33,33.66,33.66,0,0,0-2.89,7.69c-.23,1.27-.51,9.44-.51,17.28,0,4.48.09,8.84.33,11.74.7,8.4,5.82,14.22,10.59,16.26,4.46,1.91,10.1,2.05,16.06,2.19l1.37,0,2.48,0c6.56,0,16.48.11,27.36,6.21,9.53,5.34,15.67,12,15.67,26a63.64,63.64,0,0,1-.83,9.65,17.67,17.67,0,0,0-2.94-7.5l-1.29-1.63s0,2.1,0,2.13c0,.85-.12,11.36-4.81,17.71,0-.43,0-.9,0-1.41a22.33,22.33,0,0,0-.66-6.08l-1.38.13c0,.07-.85,6.38-4.06,9.42.07-3.32.19-8,.3-8.91l-1.34-.41a22.6,22.6,0,0,0-2,6.3,11,11,0,0,1-3.59-3.49l-1.38-2.46,0,2.82c0,.36.19,8.85,1.73,12.28a12.19,12.19,0,0,1,1.27,4.68,1.41,1.41,0,0,1-.23,1,24.81,24.81,0,0,0-3.86,4.89s0-.07,0-.11a30.49,30.49,0,0,1,1.62-5.47l.11-.28-.13-.27a51.6,51.6,0,0,1-2.95-8.53,82.46,82.46,0,0,1-1.32-11l0-.53-.51-.13a16.82,16.82,0,0,1-3.52-1.16.82.82,0,0,0-.86-.19c-1.37.47-2.18,6.71-2.33,8a16.21,16.21,0,0,0-.13,2,10.93,10.93,0,0,0,1.28,5.39l.09.16a3.34,3.34,0,0,1,.29,1.46A4.16,4.16,0,0,1,279,473c-.36.83-2.24,5.36-2.77,7.12a3.58,3.58,0,0,1-.37-1.67c0-2.16,0-8.7-.34-12.56s-.81-5.82-3-8.7l-3.65-4.69-.2-.06a92.67,92.67,0,0,1-16.53-7.6c-8.2-4.8-18-17.87-19-28.95-.28-3.18-.38-6.15-.38-8.91,0-3.74.18-7.09.34-10,.12-2.17.22-4.09.22-5.71,0-.34,0-.67,0-1l-.08-2.43c-.19-6.46-.51-17.27-1.1-20.51a180.18,180.18,0,0,1-2.32-18.56,2.62,2.62,0,0,1,0-.28c0-4.65,3.82-8.33,9.2-8.82,5-.46,6.94,2.25,7,2.36l.3.43Z" transform="translate(-213.12 -291.86)"/><path d="M240.14,348.3a11.66,11.66,0,0,1-10.34.81l-.62,1.27a13.06,13.06,0,0,0,11.66-.85c6.09-3.48,6.51-7.72,6.53-7.89l-1.42-.13C245.94,341.66,245.53,345.22,240.14,348.3Z" transform="translate(-213.12 -291.86)"/><path d="M243.61,345.57l.43,1.35c.22-.07,21.45-6.88,29.06-10l-.54-1.31C265,338.71,243.82,345.5,243.61,345.57Z" transform="translate(-213.12 -291.86)"/><path d="M241.34,356.63c0,.05-3.49,5.94-6.05,8.19a.56.56,0,1,0,.74.85c2.71-2.37,6.14-8.23,6.29-8.47a.58.58,0,0,0-.21-.78A.55.55,0,0,0,241.34,356.63Z" transform="translate(-213.12 -291.86)"/><path d="M239.57,364.2A53.24,53.24,0,0,0,235,370a.57.57,0,1,0,1,.59,52.8,52.8,0,0,1,4.43-5.58.57.57,0,0,0,0-.8A.56.56,0,0,0,239.57,364.2Z" transform="translate(-213.12 -291.86)"/><path d="M238.69,369.6c-.63.94-2.51,3.52-3.64,4.15a.57.57,0,1,0,.55,1c1.58-.88,3.78-4.14,4-4.51a.57.57,0,0,0-.16-.79A.56.56,0,0,0,238.69,369.6Z" transform="translate(-213.12 -291.86)"/><path d="M239.13,374c-.89.73-3.82,3.19-4.17,4.26a.56.56,0,1,0,1.07.36c.17-.52,2.12-2.35,3.82-3.74a.57.57,0,0,0-.72-.88Z" transform="translate(-213.12 -291.86)"/><path d="M239.1,378.67c-.33.31-3.26,3.1-3.95,4.49a.57.57,0,1,0,1,.5,26,26,0,0,1,3.71-4.17.57.57,0,0,0-.78-.82Z" transform="translate(-213.12 -291.86)"/><path d="M238.63,384c-.32.26-3.11,2.61-3.81,4a.57.57,0,1,0,1,.51,19.1,19.1,0,0,1,3.53-3.65.57.57,0,0,0,.07-.8A.56.56,0,0,0,238.63,384Z" transform="translate(-213.12 -291.86)"/><path d="M239,387.59c-.32.2-3.18,2-3.73,3.45a.57.57,0,0,0,1.06.4c.31-.83,2.17-2.21,3.26-2.88a.57.57,0,1,0-.59-1Z" transform="translate(-213.12 -291.86)"/><path d="M239.4,391.87a24.54,24.54,0,0,0-3.09,4.31.56.56,0,0,0,.29.75.55.55,0,0,0,.74-.29,24.83,24.83,0,0,1,2.91-4,.57.57,0,0,0-.85-.75Z" transform="translate(-213.12 -291.86)"/><path d="M239.77,396.45c0,.05-1.16,5-1.64,6.26a.57.57,0,0,0,1.06.4c.51-1.35,1.64-6.2,1.69-6.4a.57.57,0,1,0-1.11-.26Z" transform="translate(-213.12 -291.86)"/><path d="M242,400.92a16,16,0,0,0-2.1,3.9.57.57,0,1,0,1.12.18,15.77,15.77,0,0,1,1.91-3.43.56.56,0,0,0-.15-.79A.55.55,0,0,0,242,400.92Z" transform="translate(-213.12 -291.86)"/><path d="M243.94,402.85a.56.56,0,0,0-.51.56v0c.07.8.11,1.61.11,2.35,0,1.71-.19,3.08-.5,3.28l-.07,0a1.59,1.59,0,0,1-.4-.79c-.07-.37-.14-.69-.2-.89l-1.11.22a6.24,6.24,0,0,0,.15.72,10.68,10.68,0,0,1,.22,1.83,2.06,2.06,0,0,1-.13.81,3.28,3.28,0,0,1-.36-.65,9.21,9.21,0,0,0-.47-1.36l-1.06.39a11.71,11.71,0,0,0,.43,1.25,4,4,0,0,1,.15.91c0,.33-.08.59-.28.69a.23.23,0,0,1-.2,0c-.5-.21-1.1-1.52-1.34-2.33l-1.09.3a15.68,15.68,0,0,1,.48,3.26,1.45,1.45,0,0,1,0,.25,21,21,0,0,1-1.86-4.16l-1.1.21c.05,1.1.08,2.24.1,3.31-.05-.41-.1-.83-.14-1.22l-1.13,0c0,.68-.07,1.39-.11,2.06-.15-.83-.3-1.75-.43-2.62a.56.56,0,0,0-.64-.48.57.57,0,0,0-.48.64c.81,5.67,1.15,5.75,1.55,5.84l.38.08.27-.35a2.26,2.26,0,0,0,.16-.5c.21.71.4.8.55.87l.29.14.34-.19c.21-.13.54-.36.54-3.56,0-.24,0-.57,0-.86.51,1.08,1.07,2,1.58,2.16a.78.78,0,0,0,.7-.06c.45-.26.61-.92.61-1.75,0-.11,0-.24,0-.35a1.94,1.94,0,0,0,.4.32,1.29,1.29,0,0,0,1.15,0,1.49,1.49,0,0,0,.78-1.07s.07.06.11.07a.93.93,0,0,0,.93-.27,2.58,2.58,0,0,0,.53-1.78,1.17,1.17,0,0,0,.85-.13c1.34-.77,1.11-4.95.95-6.71A.57.57,0,0,0,243.94,402.85Z" transform="translate(-213.12 -291.86)"/><path d="M244.49,404a.56.56,0,0,0-.37.71l2.33,7.5a.57.57,0,0,0,.71.37.56.56,0,0,0,.37-.71l-2.33-7.5A.56.56,0,0,0,244.49,404Z" transform="translate(-213.12 -291.86)"/><path d="M248.45,411.22a10.14,10.14,0,0,0-5.51,6.88c-1.24,4.68-.48,14.08,10.29,19.65a92.17,92.17,0,0,0,14.27,6,26.14,26.14,0,0,1,3.56,1.36,9.73,9.73,0,0,1,4.07,4,.57.57,0,1,0,1.06-.42,10.77,10.77,0,0,0-4.6-4.62,26.21,26.21,0,0,0-3.73-1.43,91.28,91.28,0,0,1-14.11-5.91c-10.13-5.24-10.87-14-9.71-18.35a9,9,0,0,1,4.83-6.12.57.57,0,0,0,.32-.73A.57.57,0,0,0,248.45,411.22Z" transform="translate(-213.12 -291.86)"/><path d="M248.82,423.46a.56.56,0,0,0-.11.79c.54.72,5.43,7.06,8.78,7.06,2,0,2.68-.13,3-.59a1.23,1.23,0,0,0,0-1.22l-.1-.27-1.51-3.71a.59.59,0,0,1-.31.75.55.55,0,0,1-.73-.3l1.48,3.62.11.32.06.16a10.91,10.91,0,0,1-2,.11c-2.36,0-6.49-4.77-7.88-6.61A.56.56,0,0,0,248.82,423.46Z" transform="translate(-213.12 -291.86)"/><path d="M252.92,418.9a.57.57,0,0,0-.28.75c.05.09,4.46,9.36,14.09,8.16l.28,0,.14-.24c.05-.09,1.31-2.34-.84-5.76a.58.58,0,0,0-.79-.17.56.56,0,0,0-.26.48.55.55,0,0,0,.09.3,6.16,6.16,0,0,1,1.09,3.26,2.86,2.86,0,0,1-.17,1.06c-8.57.86-12.43-7.18-12.6-7.53A.56.56,0,0,0,252.92,418.9Z" transform="translate(-213.12 -291.86)"/><path d="M255.38,415.73a.57.57,0,0,0,.1.8c.3.23,7.35,5.6,12,6.11a20.19,20.19,0,0,0,7.05-.18.57.57,0,0,0,.39-.7.58.58,0,0,0-.7-.4,19.18,19.18,0,0,1-6.61.15c-4.29-.47-11.32-5.83-11.39-5.88A.56.56,0,0,0,255.38,415.73Z" transform="translate(-213.12 -291.86)"/><path d="M280.53,419.42a.56.56,0,0,0,.14.79A31.6,31.6,0,0,0,297,425.14a.57.57,0,1,0,0-1.13,31,31,0,0,1-15.68-4.73A.56.56,0,0,0,280.53,419.42Z" transform="translate(-213.12 -291.86)"/><path d="M275.25,423.86a.56.56,0,0,0,0,.8c.27.25,6.67,6.16,19,4.65a.57.57,0,0,0-.14-1.13c-11.73,1.45-18-4.29-18-4.35A.57.57,0,0,0,275.25,423.86Z" transform="translate(-213.12 -291.86)"/><path d="M271.26,428.18a.57.57,0,0,0,0,.8c.24.24,6,5.84,16.12,4.83a.57.57,0,0,0-.11-1.13,19.78,19.78,0,0,1-15.21-4.5A.57.57,0,0,0,271.26,428.18Z" transform="translate(-213.12 -291.86)"/><path d="M264.54,430.4a.56.56,0,0,0,.11.79c.36.28,9,6.84,17.27,2.56a.57.57,0,0,0-.52-1c-7.58,3.95-16-2.38-16.06-2.45A.57.57,0,0,0,264.54,430.4Z" transform="translate(-213.12 -291.86)"/><path d="M274.38,434.39a.58.58,0,0,0,.09.8s3.82,3.06,4.13,5.62c0,.12,0,.25-.24.38-1.91,1-10.34-1-16.83-6.55a.57.57,0,0,0-.8.07.56.56,0,0,0,.06.8c6.76,5.73,15.64,8,18.11,6.68a1.46,1.46,0,0,0,.82-1.51c-.35-3-4.37-6.25-4.54-6.38A.58.58,0,0,0,274.38,434.39Z" transform="translate(-213.12 -291.86)"/><path d="M283.23,439.53a.62.62,0,0,0-.14.38.57.57,0,0,0,.19.42c1.58,1.4,3,3.06,3,3.57-1,.42-4.91,0-7.15-.38a.57.57,0,0,0-.66.46.58.58,0,0,0,.47.66c.63.1,6.21,1,7.82.29a1.06,1.06,0,0,0,.64-.81c.21-1.34-2.26-3.69-3.33-4.63A.57.57,0,0,0,283.23,439.53Z" transform="translate(-213.12 -291.86)"/><path d="M285.77,436.16a.57.57,0,0,0,0,.8c2.19,2.36,3.58,4.66,3.32,5.08-.58.67-2.14.11-2.65-.14a.57.57,0,0,0-.5,1c.11.05,2.74,1.34,4-.14s-1.6-4.71-3.35-6.59A.57.57,0,0,0,285.77,436.16Z" transform="translate(-213.12 -291.86)"/><path d="M289.44,435.49a.58.58,0,0,0-.18.42.55.55,0,0,0,.15.38c1.38,1.52,2.53,3.26,2.53,3.81v0c-.48.36-1.76-.11-2.48-.56a.57.57,0,0,0-.6,1c.26.16,2.55,1.52,3.83.45l.38-.77c.1-1.43-2.34-4.18-2.82-4.71A.58.58,0,0,0,289.44,435.49Z" transform="translate(-213.12 -291.86)"/><path d="M291.41,431.86a.57.57,0,0,0-.15.38.56.56,0,0,0,.18.42c2.27,2.08,4.19,4.44,4.19,5.14a.19.19,0,0,1,0,.08h0a4.7,4.7,0,0,1-3.24.15.57.57,0,0,0-.72.35.56.56,0,0,0,.34.72,5.89,5.89,0,0,0,4.09-.18,1.13,1.13,0,0,0,.67-.87c.27-1.7-3.39-5.2-4.52-6.23A.56.56,0,0,0,291.41,431.86Z" transform="translate(-213.12 -291.86)"/><path d="M297.42,430a.57.57,0,0,0,0,.8c.74.74,2.63,3,2.51,4.39a.56.56,0,0,0,.52.61.58.58,0,0,0,.61-.52c.18-2.2-2.52-5-2.83-5.28A.58.58,0,0,0,297.42,430Z" transform="translate(-213.12 -291.86)"/><path d="M299.44,426.66a.57.57,0,0,0,0,.8c.61.66,2.23,2.69,2.35,4.16a.57.57,0,0,0,1.13-.09c-.18-2.17-2.55-4.73-2.65-4.84A.57.57,0,0,0,299.44,426.66Z" transform="translate(-213.12 -291.86)"/><path d="M267.49,450.78a.57.57,0,0,0,0,.8c.57.65,3.57,3.85,5.54,3.43a1.34,1.34,0,0,0,1.06-.86c.39-1.11-.86-2.74-1.12-3a.55.55,0,0,0-.79-.09.56.56,0,0,0-.09.8c.54.66,1.05,1.63.93,2,0,.06-.14.1-.23.12-1,.21-3.2-1.67-4.46-3.08A.57.57,0,0,0,267.49,450.78Z" transform="translate(-213.12 -291.86)"/><path d="M273.23,453a.56.56,0,0,0,.27.75c.39.19,3.91,1.84,5.73,1a.57.57,0,1,0-.48-1c-1,.46-3.45-.37-4.76-1A.57.57,0,0,0,273.23,453Z" transform="translate(-213.12 -291.86)"/><path d="M276.55,450.92a.56.56,0,0,0-.34.72,6.14,6.14,0,0,0,3.74,3.61.58.58,0,0,0,.71-.38.57.57,0,0,0-.38-.71,5,5,0,0,1-3-2.9A.57.57,0,0,0,276.55,450.92Z" transform="translate(-213.12 -291.86)"/><path d="M280.68,451.26a.57.57,0,0,0-.5.63,11.32,11.32,0,0,0,1.2,3.85.57.57,0,0,0,1-.57,10.25,10.25,0,0,1-1.05-3.41A.58.58,0,0,0,280.68,451.26Z" transform="translate(-213.12 -291.86)"/><path d="M283.74,452.39a.56.56,0,0,0-.56.56,11.66,11.66,0,0,0,.42,3.35.56.56,0,0,0,.74.3.58.58,0,0,0,.3-.75,10.57,10.57,0,0,1-.33-2.9A.56.56,0,0,0,283.74,452.39Z" transform="translate(-213.12 -291.86)"/><path d="M284.89,456.43a.58.58,0,0,1-.6.55l4.08.16a.54.54,0,0,0,.56-.54.58.58,0,0,0-.56-.59l-4-.17A.56.56,0,0,1,284.89,456.43Z" transform="translate(-213.12 -291.86)"/><path d="M289.49,459.74s-1.33-4-2.25-7.33-.75-4.08-.75-4.08l2.17,1.25s.25-1.25.33-2.09a10.48,10.48,0,0,1,.17-1.16,6.19,6.19,0,0,0,1.17.91,2.82,2.82,0,0,1,.91,1,24.69,24.69,0,0,0,.09-3.08c-.09-1.25-.09-2.42-.09-2.42s1.59,1,2.17,1.25v-3l2.92,1.92c.75.5.83.33.91-.5a19.28,19.28,0,0,0-.58-3.58,1.51,1.51,0,0,1,.92-.17,3.57,3.57,0,0,0,1.16-.08l-.08-2.67a2.91,2.91,0,0,1,.92.42,3.6,3.6,0,0,0,1.75.33,11.85,11.85,0,0,0,.25-1.83,10.27,10.27,0,0,1,.08-1.25,5.79,5.79,0,0,0,1.33,1.08,1.8,1.8,0,0,0,1.42.17s-.08-2.09-.17-3.34-.25-3-.25-3l2.17-.66s.17-3.34-3-7a5.57,5.57,0,0,1,2.42,1.58c1.5,1.42,4.66,3.42,7,13.58a36.78,36.78,0,0,1-.5,18.42l-.67-1s-.83-4.83-2.92-7.25a61.23,61.23,0,0,1-2.08,11.17c-1.75,6.25-4.08,7.41-4.08,7.41l-.42-6.16s-.67-.5-.83.41a17.21,17.21,0,0,1-4.5,7.25s-1-5.5-.84-6.75-.58,0-.91.75-1,3-1,3A23.85,23.85,0,0,1,289.49,459.74Z" transform="translate(-213.12 -291.86)"/><path d="M278.84,456.31a10.42,10.42,0,0,1-4.85,1,.57.57,0,1,0-.16,1.12,11.42,11.42,0,0,0,5.49-1.05.57.57,0,0,0-.48-1Z" transform="translate(-213.12 -291.86)"/><path d="M278.47,458.85a14.1,14.1,0,0,1-3.81.17.57.57,0,0,0-.16,1.12,15.2,15.2,0,0,0,4.18-.17.56.56,0,0,0,.45-.66A.57.57,0,0,0,278.47,458.85Z" transform="translate(-213.12 -291.86)"/><path d="M278.25,460.7a6.71,6.71,0,0,1-2.51.33.57.57,0,1,0-.33,1.09,7.62,7.62,0,0,0,3.16-.33.57.57,0,0,0-.32-1.09Z" transform="translate(-213.12 -291.86)"/><path d="M277.64,462.75a4,4,0,0,1-2.63.38.56.56,0,1,0-.37,1.06,4.93,4.93,0,0,0,3.54-.45.56.56,0,0,0,.23-.77A.57.57,0,0,0,277.64,462.75Z" transform="translate(-213.12 -291.86)"/><path d="M278.29,465.11a8.42,8.42,0,0,1-3,.09.57.57,0,1,0-.3,1.09,9.16,9.16,0,0,0,3.51-.08.56.56,0,1,0-.23-1.1Z" transform="translate(-213.12 -291.86)"/><path d="M274.76,467.79a.56.56,0,0,0,.52.6,25.64,25.64,0,0,0,3.11.08.56.56,0,1,0-.13-1.12,25.65,25.65,0,0,1-2.89-.09A.57.57,0,0,0,274.76,467.79Z" transform="translate(-213.12 -291.86)"/><path d="M275,469.51a.57.57,0,0,0,0,1.13h4.09a.57.57,0,0,0,0-1.13Z" transform="translate(-213.12 -291.86)"/><path d="M279.52,471.28a36,36,0,0,1-4.34,0,.57.57,0,0,0-.59.54.56.56,0,0,0,.54.59,36.4,36.4,0,0,0,4.67,0,.57.57,0,0,0-.28-1.1Z" transform="translate(-213.12 -291.86)"/><path d="M275.19,473.62a.57.57,0,0,0,.43.68,10.52,10.52,0,0,0,3.64.32.57.57,0,0,0,.35-.72.56.56,0,0,0-.71-.36,10.1,10.1,0,0,1-3-.35A.56.56,0,0,0,275.19,473.62Z" transform="translate(-213.12 -291.86)"/><path d="M274.87,475.64a.57.57,0,0,0,.35.72,6.93,6.93,0,0,0,3.12.28.57.57,0,0,0-.2-1.12,5.66,5.66,0,0,1-2.54-.23A.58.58,0,0,0,274.87,475.64Z" transform="translate(-213.12 -291.86)"/><path d="M289.33,457.51l-4.61.17a.57.57,0,0,1,.59.54.56.56,0,0,1-.54.59l4.56-.17a.58.58,0,0,0,.56-.58A.54.54,0,0,0,289.33,457.51Z" transform="translate(-213.12 -291.86)"/><path d="M284.34,459.86a.62.62,0,0,0,.56.62l.66.06a18,18,0,0,0,3.92.17.56.56,0,0,0,.38-.69.56.56,0,0,0-.68-.41,27.7,27.7,0,0,1-3.52-.2l-.75-.07A.54.54,0,0,0,284.34,459.86Z" transform="translate(-213.12 -291.86)"/><path d="M289.4,461.45a43,43,0,0,1-4.41.14.57.57,0,0,0,0,1.14,35.44,35.44,0,0,0,4.76-.2.56.56,0,0,0,.36-.7A.59.59,0,0,0,289.4,461.45Z" transform="translate(-213.12 -291.86)"/><path d="M285,463.59a.57.57,0,0,0,0,1.14h4.59a.57.57,0,0,0,0-1.14Z" transform="translate(-213.12 -291.86)"/><path d="M289.66,465.87a23.68,23.68,0,0,1-4.3,0,.57.57,0,0,0-.6.53.58.58,0,0,0,.53.61,23.9,23.9,0,0,0,4.7,0,.56.56,0,0,0,.38-.7A.57.57,0,0,0,289.66,465.87Z" transform="translate(-213.12 -291.86)"/><path d="M290,467.68c-.31.06-2.37.08-3.74.08a.57.57,0,0,0,0,1.13c.57,0,3.41,0,3.93-.09a.57.57,0,0,0,.47-.65A.58.58,0,0,0,290,467.68Z" transform="translate(-213.12 -291.86)"/><path d="M286.33,469.76a.57.57,0,1,0,0,1.13h4.33a.57.57,0,1,0,0-1.13Z" transform="translate(-213.12 -291.86)"/><path d="M288,472.34a.57.57,0,0,1-.59.55l3.85.09a.56.56,0,0,0,.57-.56.58.58,0,0,0-.57-.58l-3.81-.08A.57.57,0,0,1,288,472.34Z" transform="translate(-213.12 -291.86)"/><path d="M292,473.94a38.16,38.16,0,0,1-4.05.07.57.57,0,1,0,0,1.13,36.19,36.19,0,0,0,4.28-.09.56.56,0,1,0-.21-1.11Z" transform="translate(-213.12 -291.86)"/><path d="M288.18,476.71a.56.56,0,0,0,.53.6,12.6,12.6,0,0,0,3.24,0,.55.55,0,0,0,.31-.7.6.6,0,0,0-.71-.36,18.55,18.55,0,0,1-2.77,0A.57.57,0,0,0,288.18,476.71Z" transform="translate(-213.12 -291.86)"/><path d="M286.24,481.83s-1,6.75-1.25,12.5-.5,15-.5,15a3.62,3.62,0,0,1-2.37,1.37,19.9,19.9,0,0,0-5.25,1.75A23.67,23.67,0,0,0,274,514.2s-.5,1,.5.75,2.13-1.25,4-1.75a12.59,12.59,0,0,1,2.88-.5.71.71,0,0,1-.25.88c-.5.37-4,3.12-4.38,3.62s-.5,1.13.38.75a27.78,27.78,0,0,0,4-2.62c.75-.63,1.75-1.5,1.75-.88s0,3.25.62,3.13,1.25-1.25,1.38-2.63a15.43,15.43,0,0,1,1.37-3.87L288,512c.75.38,2.13.5,2.38.13s1.12-.5,0-.75-4-2.38-4-2.38.12-11.87.75-17,.87-8.12,2.37-10.25l-1.5.75Z" transform="translate(-213.12 -291.86)"/><path d="M274.37,479s-1.13,12.63-2,15.25c0,0-.38,2.13-1.38,2.13a17.11,17.11,0,0,1-3.75-1c-1.25-.38-2.5.25-1.75.75s3.38,1,4,1.25.88.5.5.87-1.25,1.25-2.12,2-2.38,4-2.75,4.38,1.75,1.62,2.12.75,1.13-3.25,1.88-3.88a41.5,41.5,0,0,0,3.37-3c.38-.5-.37-1.12.38-.5s3.12,1.5,3.87,2,2,1.75,2.63,1.5,1.87-.87.87-1.37-1.62-1.25-2.12-1.25a21.8,21.8,0,0,1-4-1.5c-.38-.25-.13-1.38.12-2s2.25-11.25,3.25-14.88l-1.5-.25Z" transform="translate(-213.12 -291.86)"/><path d="M272.74,498.83s-.62.75-.62,1.12.25,4.13.12,5.13.13,1.62.75,1.75,1-.38.75-2.13-.12-4-.37-5S273.49,498.58,272.74,498.83Z" transform="translate(-213.12 -291.86)"/><path d="M237,343.33s-1.62.5-1.62,1.75,1,1.5,1.75,1.5a2.12,2.12,0,0,0,2-1.88C239.12,343.58,237.62,342.83,237,343.33Z" transform="translate(-213.12 -291.86)"/><path d="M254.05,459.86c-1.3.72-3.07,2.39-4.08,6.2a12.88,12.88,0,0,0,1.44,10.26l.12.16.18.08a1.88,1.88,0,0,0,1.46-.07c1.71-.69,4.31-3.41,6-7.3,1.36-3.15,1.63-6,.75-7.93a3.27,3.27,0,0,0-2-1.86A4.87,4.87,0,0,0,254.05,459.86Zm-3.12,9.68a12.27,12.27,0,0,1,.41-3.11c.89-3.34,2.34-4.74,3.4-5.33a3.49,3.49,0,0,1,2.71-.35,2,2,0,0,1,1.16,1.1,4.78,4.78,0,0,1,.37,2,12.63,12.63,0,0,1-1.14,4.79c-1.85,4.32-4.61,6.49-5.43,6.61A11.49,11.49,0,0,1,250.93,469.54Z" transform="translate(-213.12 -291.86)"/><path d="M294.71,471.93a3.82,3.82,0,0,0-1.74,2.25,8.42,8.42,0,0,0,.56,6.71c2.07,4.14,6.9,7,7.1,7.13l.11.06.11,0a1.4,1.4,0,0,0,1.32-.55c.49-.57,1.92-2.92-.34-9.22-1.25-3.47-2.76-5.61-4.5-6.37A3.24,3.24,0,0,0,294.71,471.93Zm.08,8.33a7.75,7.75,0,0,1-.85-3.46,6.18,6.18,0,0,1,.36-2.13,2.63,2.63,0,0,1,1-1.44,1.83,1.83,0,0,1,1.49,0c.94.41,2.35,1.71,3.73,5.55a16.47,16.47,0,0,1,1.15,5.47,3.57,3.57,0,0,1-.56,2.34C300.08,486,296.42,483.51,294.79,480.26Z" transform="translate(-213.12 -291.86)"/><path d="M340.51,371.74c-1.62,1.56-2.31,4.38-2.06,8.38.52,8.26,4,10.62,4.16,10.72l.17.11H343c1.76,0,4.4-4.66,5-10.46.39-3.51-.25-6.6-1.77-8.46a3.64,3.64,0,0,0-2.36-1.49A4.27,4.27,0,0,0,340.51,371.74Zm-.64,8.29c0-.51-.05-1-.05-1.44,0-3.44.88-5.06,1.67-5.83a2.85,2.85,0,0,1,2.26-.81,2.33,2.33,0,0,1,1.41,1,8.62,8.62,0,0,1,1.57,5.56,15.36,15.36,0,0,1-.11,1.85c-.59,5.32-2.69,8.49-3.5,9.09C342.38,388.73,340.25,386.23,339.87,380Z" transform="translate(-213.12 -291.86)"/><path d="M261.66,522.58s3.67-31.34-3.33-52.84c0,0-2,5-5.84,5.84,0,0-3-.84-2.5-7.84a42.64,42.64,0,0,0-6,5.84s-10-29.67-22-41.67a2.19,2.19,0,0,0-.5,1.5c0,1-.16,80.83-.16,80.83s1.51,8.5,10.08,8.5Z" transform="translate(-213.12 -291.86)"/><path d="M226.56,424.39a22,22,0,0,0-5.71,6.75.71.71,0,1,0,1.28.62,20.91,20.91,0,0,1,5.29-6.25.71.71,0,1,0-.86-1.12Z" transform="translate(-213.12 -291.86)"/><path d="M227.79,426.29c-.15.21-3.66,5.19-4.92,7.44a.72.72,0,0,0,.28,1,.71.71,0,0,0,1-.28c1.22-2.19,4.8-7.26,4.84-7.31a.71.71,0,0,0-1.16-.82Z" transform="translate(-213.12 -291.86)"/><path d="M229.46,429.23c-.52.59-5.13,5.82-5.66,8.06a.71.71,0,0,0,.53.85.7.7,0,0,0,.85-.53c.38-1.59,4-5.91,5.34-7.44a.7.7,0,0,0-.06-1A.71.71,0,0,0,229.46,429.23Z" transform="translate(-213.12 -291.86)"/><path d="M231.57,431.25c-.19.24-4.78,5.79-6.4,8a.71.71,0,0,0,.16,1,.72.72,0,0,0,1-.16c1.59-2.21,6.3-7.91,6.34-8a.7.7,0,0,0-.09-1A.71.71,0,0,0,231.57,431.25Z" transform="translate(-213.12 -291.86)"/><path d="M233.32,434.5c-.51.62-5,6.06-5.68,7.08a.71.71,0,0,0,1.2.75c.5-.79,4.19-5.27,5.57-6.92a.71.71,0,0,0-1.09-.91Z" transform="translate(-213.12 -291.86)"/><path d="M235.57,437.5c-.22.27-5.39,6.53-6.14,7.53a.7.7,0,0,0,.14,1,.71.71,0,0,0,1-.14c.73-1,6.05-7.41,6.1-7.48a.7.7,0,0,0-.09-1A.71.71,0,0,0,235.57,437.5Z" transform="translate(-213.12 -291.86)"/><path d="M237.32,440.12c-.95,1.15-5.75,7-6.14,8.67a.71.71,0,1,0,1.38.32c.24-1.06,3.72-5.52,5.85-8.08a.71.71,0,1,0-1.09-.91Z" transform="translate(-213.12 -291.86)"/><path d="M239.06,443a84.42,84.42,0,0,1-6.79,7.9.71.71,0,1,0,.95,1.06,84.83,84.83,0,0,0,7-8.1.71.71,0,0,0-1.12-.86Z" transform="translate(-213.12 -291.86)"/><path d="M240.85,445.35c-.27.28-6.47,7-7.63,9.56a.71.71,0,0,0,.36.94.7.7,0,0,0,.93-.36c1.07-2.36,7.31-9.11,7.38-9.18a.71.71,0,0,0,0-1A.7.7,0,0,0,240.85,445.35Z" transform="translate(-213.12 -291.86)"/><path d="M242,448.94c0,.06-4.1,6.32-6.74,8.6a.71.71,0,0,0,.93,1.07c2.79-2.41,6.83-8.63,7-8.9a.7.7,0,0,0-.21-1A.71.71,0,0,0,242,448.94Z" transform="translate(-213.12 -291.86)"/><path d="M244.34,452.1c-.78.86-7.69,8.46-8.45,9.74a.69.69,0,0,0,.24,1,.71.71,0,0,0,1-.24c.52-.88,5.25-6.17,8.29-9.52a.7.7,0,0,0,0-1A.71.71,0,0,0,244.34,452.1Z" transform="translate(-213.12 -291.86)"/><path d="M245.79,455.54c-1.91,2.67-7,9.73-7.47,10.33a.71.71,0,0,0,1.09.91c.64-.76,7.25-10,7.53-10.42a.69.69,0,0,0-.16-1A.71.71,0,0,0,245.79,455.54Z" transform="translate(-213.12 -291.86)"/><path d="M247,459.17c-.27.38-6.53,9.29-7.28,10.54a.71.71,0,0,0,1.22.73c.72-1.21,7.15-10.36,7.22-10.46a.71.71,0,0,0-1.16-.81Z" transform="translate(-213.12 -291.86)"/><path d="M248.71,462.49c-.76.87-7.44,8.58-8.2,9.85a.71.71,0,0,0,.24,1,.72.72,0,0,0,1-.24c.52-.88,5.1-6.26,8.05-9.65a.72.72,0,0,0-.07-1A.7.7,0,0,0,248.71,462.49Z" transform="translate(-213.12 -291.86)"/><path d="M262.75,467.07c-.21.21-5.16,5-5.92,5.92a.71.71,0,0,0,1.08.92c.57-.67,4.06-4.1,5.83-5.83a.71.71,0,0,0-1-1Z" transform="translate(-213.12 -291.86)"/><path d="M264.49,470.58c-.06.06-5.25,5.37-6.34,6.34a.71.71,0,1,0,.94,1.06c1.13-1,6.19-6.19,6.41-6.41a.71.71,0,0,0-1-1Z" transform="translate(-213.12 -291.86)"/><path d="M265.21,474.49c-1.94,2.23-5.83,6.67-6.69,7.43a.71.71,0,0,0-.06,1,.7.7,0,0,0,1,.06c1.15-1,6.59-7.3,6.82-7.56a.72.72,0,0,0-.07-1A.7.7,0,0,0,265.21,474.49Z" transform="translate(-213.12 -291.86)"/><path d="M266.7,478a106.26,106.26,0,0,1-7.26,7.9.71.71,0,1,0,.85,1.13c1.55-1.16,7.25-7.82,7.49-8.11a.7.7,0,0,0-.08-1A.71.71,0,0,0,266.7,478Z" transform="translate(-213.12 -291.86)"/><path d="M266.59,483.48c-2.25,2.55-6.64,7.52-7.22,8.1a.7.7,0,0,0,0,1,.71.71,0,0,0,1,0c.76-.76,7-7.86,7.28-8.16a.71.71,0,0,0-1.06-.94Z" transform="translate(-213.12 -291.86)"/><path d="M267.09,488.85c-.06.07-6,6.62-6.85,7.48a.7.7,0,0,0,0,1,.71.71,0,0,0,1,0c.88-.88,6.66-7.26,6.9-7.53a.7.7,0,0,0-.05-1A.71.71,0,0,0,267.09,488.85Z" transform="translate(-213.12 -291.86)"/><path d="M267,494c-3.06,3.61-6.6,7.64-7.12,8a.71.71,0,0,0-.16,1,.69.69,0,0,0,1,.16c.91-.64,6.31-7,7.38-8.24a.7.7,0,0,0-.08-1A.72.72,0,0,0,267,494Z" transform="translate(-213.12 -291.86)"/><path d="M265.9,501c-2.33,3.63-5.11,7.62-5.75,8a.73.73,0,0,0-.26,1,.71.71,0,0,0,.95.27c1.19-.66,5.08-6.67,6.25-8.49a.71.71,0,0,0-.22-1A.7.7,0,0,0,265.9,501Z" transform="translate(-213.12 -291.86)"/><path d="M266.68,505.89c-2.1,2.7-5.6,7.13-6,7.51a.74.74,0,0,0-.09,1,.68.68,0,0,0,.93.16c.12-.08.47-.31,6.29-7.78a.7.7,0,0,0-.12-1A.71.71,0,0,0,266.68,505.89Z" transform="translate(-213.12 -291.86)"/><path d="M266.9,510.55c-.23.2-5.56,4.92-6.95,6.57A.71.71,0,0,0,261,518c1.33-1.57,6.75-6.38,6.81-6.43a.71.71,0,0,0,.06-1A.7.7,0,0,0,266.9,510.55Z" transform="translate(-213.12 -291.86)"/><path d="M267.45,515.12,261.7,522a.71.71,0,1,0,1.09.91l5.75-6.88a.71.71,0,0,0-1.09-.91Z" transform="translate(-213.12 -291.86)"/><path d="M292,518.47a.7.7,0,0,0,0,1l3.87,3.62a.71.71,0,1,0,1-1L293,518.43A.71.71,0,0,0,292,518.47Z" transform="translate(-213.12 -291.86)"/><path d="M292,513.31a.7.7,0,0,0,0,1l8.37,8.88a.71.71,0,0,0,1,0,.7.7,0,0,0,0-1L293,513.34A.71.71,0,0,0,292,513.31Z" transform="translate(-213.12 -291.86)"/><path d="M291.49,508a.7.7,0,0,0,0,1l13,12.75a.71.71,0,0,0,1-1l-13-12.75A.7.7,0,0,0,291.49,508Z" transform="translate(-213.12 -291.86)"/><path d="M291.36,502.71a.7.7,0,0,0,0,1l11.12,10.75a.7.7,0,0,0,1,0,.71.71,0,0,0,0-1l-11.13-10.75A.71.71,0,0,0,291.36,502.71Z" transform="translate(-213.12 -291.86)"/><path d="M291.6,498.22a.7.7,0,0,0,0,1l9.87,9.13a.71.71,0,0,0,1,0,.7.7,0,0,0,0-1l-9.87-9.13A.71.71,0,0,0,291.6,498.22Z" transform="translate(-213.12 -291.86)"/><path d="M291.92,492.27a.72.72,0,0,0-.11,1l6.5,8.12a.71.71,0,1,0,1.11-.88l-6.5-8.13A.72.72,0,0,0,291.92,492.27Z" transform="translate(-213.12 -291.86)"/><path d="M292.78,487.66a.71.71,0,0,0-.08,1l7.5,8.75a.71.71,0,0,0,1.08-.92l-7.5-8.75A.71.71,0,0,0,292.78,487.66Z" transform="translate(-213.12 -291.86)"/><path d="M294.51,484.69a.7.7,0,0,0,0,1l7.75,8.25a.71.71,0,0,0,1-1l-7.75-8.25A.7.7,0,0,0,294.51,484.69Z" transform="translate(-213.12 -291.86)"/><path d="M299.09,472.74a.71.71,0,0,0-.18,1l5.75,8.5a.7.7,0,0,0,1,.19.71.71,0,0,0,.19-1l-5.75-8.5A.72.72,0,0,0,299.09,472.74Z" transform="translate(-213.12 -291.86)"/><path d="M301.62,469.72a.71.71,0,0,0-.23,1l6.25,10.12a.7.7,0,0,0,1,.24.72.72,0,0,0,.24-1L302.6,470A.72.72,0,0,0,301.62,469.72Z" transform="translate(-213.12 -291.86)"/><path d="M303.51,467.71a.72.72,0,0,0-.26,1l5.75,10a.71.71,0,0,0,1.23-.71l-5.75-10A.71.71,0,0,0,303.51,467.71Z" transform="translate(-213.12 -291.86)"/><path d="M306.25,464.22a.7.7,0,0,0-.24,1l7.13,11.75a.69.69,0,0,0,1,.24.71.71,0,0,0,.24-1l-7.13-11.75A.7.7,0,0,0,306.25,464.22Z" transform="translate(-213.12 -291.86)"/><path d="M308.14,462a.7.7,0,0,0-.26,1l5.87,10.37a.72.72,0,0,0,1,.27.7.7,0,0,0,.26-1l-5.87-10.37A.72.72,0,0,0,308.14,462Z" transform="translate(-213.12 -291.86)"/><path d="M309.33,458.12a.72.72,0,0,0-.17,1l8.38,11.75a.71.71,0,1,0,1.15-.82l-8.37-11.75A.72.72,0,0,0,309.33,458.12Z" transform="translate(-213.12 -291.86)"/><path d="M310,453.78a.71.71,0,0,0-.09,1l8.12,9.87a.7.7,0,0,0,1,.1.71.71,0,0,0,.09-1L311,453.88A.7.7,0,0,0,310,453.78Z" transform="translate(-213.12 -291.86)"/><path d="M312.12,451.7a.7.7,0,0,0,0,1l6.5,6.5a.71.71,0,0,0,1-1l-6.5-6.5A.7.7,0,0,0,312.12,451.7Z" transform="translate(-213.12 -291.86)"/><path d="M313,445.62a.71.71,0,0,0-.17,1l5.75,8.13a.71.71,0,1,0,1.16-.82L314,445.79A.72.72,0,0,0,313,445.62Z" transform="translate(-213.12 -291.86)"/><path d="M312.81,441.89a.7.7,0,0,0-.13,1c2.49,3.24,6.26,8.16,6.47,8.47a.73.73,0,0,0,1,.19.71.71,0,0,0,.19-1c-.25-.39-5.88-7.71-6.53-8.54A.7.7,0,0,0,312.81,441.89Z" transform="translate(-213.12 -291.86)"/><path d="M312.14,436.31a.7.7,0,0,0,0,1l8.12,8.75a.71.71,0,1,0,1-1l-8.12-8.75A.71.71,0,0,0,312.14,436.31Z" transform="translate(-213.12 -291.86)"/><path d="M311.8,429.52a.71.71,0,0,0-.11,1l9.37,11.87a.71.71,0,1,0,1.11-.88l-9.37-11.87A.71.71,0,0,0,311.8,429.52Z" transform="translate(-213.12 -291.86)"/><path d="M313.62,424.85a.7.7,0,0,0-.23,1l7.75,12.75a.71.71,0,0,0,1,.24.72.72,0,0,0,.24-1l-7.75-12.75A.71.71,0,0,0,313.62,424.85Z" transform="translate(-213.12 -291.86)"/><path d="M314.49,421.23a.7.7,0,0,0-.22,1l8.5,13.63a.71.71,0,0,0,1.2-.75l-8.5-13.63A.71.71,0,0,0,314.49,421.23Z" transform="translate(-213.12 -291.86)"/><path d="M315.47,416a.71.71,0,0,0-.19,1l8.62,12.88a.72.72,0,0,0,1,.19.71.71,0,0,0,.19-1l-8.62-12.88A.72.72,0,0,0,315.47,416Z" transform="translate(-213.12 -291.86)"/><path d="M315.8,410.9a.7.7,0,0,0-.11,1l10,12.63a.71.71,0,0,0,1.11-.88L316.8,411A.71.71,0,0,0,315.8,410.9Z" transform="translate(-213.12 -291.86)"/><path d="M316.92,406.9a.72.72,0,0,0-.11,1l11,13.74a.71.71,0,1,0,1.11-.88l-11-13.75A.7.7,0,0,0,316.92,406.9Z" transform="translate(-213.12 -291.86)"/><path d="M318.47,401.87a.71.71,0,0,0-.19,1l9.88,14.5a.71.71,0,1,0,1.17-.8l-9.88-14.5A.71.71,0,0,0,318.47,401.87Z" transform="translate(-213.12 -291.86)"/><path d="M320.47,398.87a.71.71,0,0,0-.19,1l8.63,12.63a.71.71,0,0,0,1.17-.8l-8.63-12.63A.71.71,0,0,0,320.47,398.87Z" transform="translate(-213.12 -291.86)"/><path d="M322.83,394.38a.7.7,0,0,0-.17,1L331,407.11a.71.71,0,1,0,1.15-.82l-8.37-11.75A.71.71,0,0,0,322.83,394.38Z" transform="translate(-213.12 -291.86)"/><path d="M325.06,391.39a.7.7,0,0,0-.13,1l8.5,11.13a.7.7,0,0,0,1,.13.71.71,0,0,0,.14-1l-8.5-11.13A.72.72,0,0,0,325.06,391.39Z" transform="translate(-213.12 -291.86)"/><path d="M326.81,388.27a.7.7,0,0,0-.13,1l8.13,10.38a.7.7,0,0,0,1,.12.69.69,0,0,0,.12-1l-8.12-10.38A.7.7,0,0,0,326.81,388.27Z" transform="translate(-213.12 -291.86)"/><path d="M329.44,385.63a.72.72,0,0,0-.14,1l6.87,9.25a.71.71,0,0,0,1,.14.71.71,0,0,0,.15-1l-6.87-9.25A.73.73,0,0,0,329.44,385.63Z" transform="translate(-213.12 -291.86)"/><path d="M331.36,382.35a.71.71,0,0,0-.22,1l6,9.5a.71.71,0,0,0,1.2-.76l-6-9.5A.71.71,0,0,0,331.36,382.35Z" transform="translate(-213.12 -291.86)"/><path d="M334.5,379.17a.7.7,0,0,0-.43.88c.13.39,3.4,6.67,4.79,9.35a.71.71,0,1,0,1.26-.65c-1.8-3.46-4.54-8.75-4.71-9.17A.73.73,0,0,0,334.5,379.17Z" transform="translate(-213.12 -291.86)"/><path d="M348,379.08v4.25a.71.71,0,1,0,1.42,0v-4.25a.71.71,0,0,0-1.42,0Z" transform="translate(-213.12 -291.86)"/><path d="M351.34,379.8l-2.5,6a.71.71,0,0,0,1.31.55l2.5-6a.71.71,0,0,0-.39-.93A.7.7,0,0,0,351.34,379.8Z" transform="translate(-213.12 -291.86)"/><path d="M354.11,381.52l-3,6.12a.71.71,0,1,0,1.27.62l3-6.12a.71.71,0,0,0-.33-.95A.7.7,0,0,0,354.11,381.52Z" transform="translate(-213.12 -291.86)"/><path d="M356.47,386l-4.25,4.63a.71.71,0,1,0,1,1l4.25-4.63a.7.7,0,0,0,0-1A.71.71,0,0,0,356.47,386Z" transform="translate(-213.12 -291.86)"/></svg>