<svg id="_1_2" xmlns="http://www.w3.org/2000/svg" viewBox="0 0 153.07 238.11"><defs><style>.cls-1{fill:#ed1c24;}.cls-2{fill:#fff;}.cls-3{fill:#ffcb05;}</style></defs><title>_1_2</title><rect class="cls-1" width="153.07" height="238.11"/><path class="cls-2" d="M226.23,314.69l-.17,85.5,8.83,17.33,6,5.83,75.17,87.17,30.17,19.33h9.83s9-1.83,8.5-10.33l.17-71.67L364.56,314a10.38,10.38,0,0,0-10-8.17l-116-.16S227.23,304.52,226.23,314.69Z" transform="translate(-218.78 -298.8)"/><path class="cls-1" d="M282.73,326.85l-44.17,1s-1.83,47.17,10.67,86.84c3.45,10.95.33,30,.33,30l14.33,33,27.17,22.16,32.67-7.66,1.33-4.17,2.83-3-16-45.17-17.83-62.5-10-3.83S280.89,339.19,282.73,326.85Z" transform="translate(-218.78 -298.8)"/><path class="cls-3" d="M226.23,387.85l-.17,12.34,3.5,7.33,3.17.17.33-5.84a20.25,20.25,0,0,0,.33-10C232.23,386,227.39,385,226.23,387.85Z" transform="translate(-218.78 -298.8)"/><path class="cls-3" d="M311.39,350a16.25,16.25,0,0,1-1.83-6.5c-.33-4,1.33-9.5,3-11s5-.5,6,1.67c0,0,.67,9.16-2.83,13s-3.17,6.5-3.17,6.5Z" transform="translate(-218.78 -298.8)"/><path class="cls-3" d="M353.39,479.85s-3.16-2.16-7.16.67-5.17,7.5-5.5,8.67-1.5,4.66-1.5,4.66l4.16,2,3.84-2.83.5-2.33s4.5-3,5.5-5.5A7.31,7.31,0,0,0,353.39,479.85Z" transform="translate(-218.78 -298.8)"/><path d="M236,305.15a10.64,10.64,0,0,0-10.63,10.63V519.93A10.64,10.64,0,0,0,236,530.56H354.64a10.64,10.64,0,0,0,10.63-10.63V315.78a10.64,10.64,0,0,0-10.63-10.63Zm-9.21,214.78V315.78a9.23,9.23,0,0,1,9.21-9.22H354.64a9.23,9.23,0,0,1,9.21,9.22V519.93a9.23,9.23,0,0,1-9.21,9.22H236A9.23,9.23,0,0,1,226.77,519.93Z" transform="translate(-218.78 -298.8)"/><path d="M282.88,326.15l-45,1,0,.67c-1.55,54.38,11.44,95.19,22.61,119.86,12.11,26.75,24.78,40.84,24.91,41l.22.25,41.64-1.74-.76-1.06c-51.24-72.26-43-158.32-42.87-159.18l.08-.8Zm-.76,1.43c-.15,1.8-.48,6.72-.48,14.08,0,27.81,4.85,89.74,43,144.21l-38.41,1.6c-3.39-3.93-47.06-56.25-47.06-150.73,0-2.7.05-5.43.12-8.19Z" transform="translate(-218.78 -298.8)"/><path d="M305.56,477c-1.75-.38-5.12-.38-8.25-3.25s-3.62-4.75-7.37-14.63c-.61-1.6-1.24-3.52-1.86-5.61a18,18,0,0,0,6.36-3c.5-.5,1.87-1.38.87-1.88s-4.5-2.12-5.62-1.37a21.39,21.39,0,0,1-2.8,2c-1-3.91-2-8.09-2.9-11.88,2.19-4.62,4.93-10.23,5.2-10.76.37-.75-1.13-1.12-2.63-1.25a4.5,4.5,0,0,0-2.75.63l-2.13.8c-.17-.79-.3-1.37-.37-1.68-.62-2.62-2.5-11.25-2.87-13.25s-1.5-2.75-3.38-3c-1.41-.18-3.89-.59-5-.77,1.81-2.45,3.78-5.36,4.89-7,.17-.24.34-.48.49-.74l.39-.59-.08,0c1.38-2.87,1.07-6.45-.42-8.17-2.37-2.75-6.75-2.5-8.75-2.12a4.9,4.9,0,0,0-2.09,1,24.69,24.69,0,0,1,6.34-6.87c1.5-1.12,3.38-2.62,3.38-3.37a2,2,0,0,0-2.13-1.5c-.87.25-2.87,1.12-2.87,1.12,0-.62-.63-1.62-2.63-.62a73.5,73.5,0,0,1-8.25,3.25c-.75.12-2.12.12-.62-2s6.25-7,6.87-7.75,4.75-5,3.5-8.88-5.33-4.66-6-5,0-1.16,1.5-1.66,5-2.34,6.33-2.34,1.17-1.33.17-1.83a37.63,37.63,0,0,0-4.83-1.33s-2.67.66-3.5,1-1-2-1-3.67a41.13,41.13,0,0,0,.16-4.17c-.16-.83-1.66-2-3.5-2.83s-2.33-.5-2.33-.5,1.33,4,2,5.67.5,6.83.5,6.83a23.92,23.92,0,0,1-4.87,1.58,20.4,20.4,0,0,1-4.38-.25c-.87,0-1.37.13-.62.88a8,8,0,0,0,5.37,2.25,49.72,49.72,0,0,0,6.25-1s-6.5,6.12-5.75,11.37,6.25,5.38,6.25,5.38-1.87,2.87-2.75,4.5-3,3.12-2.62,4.62,2.62,3.25,5.5,3.13a16.3,16.3,0,0,0,6.12-2c-2.75,1.62-7.37,7.87-6.5,13.25.68,4.16,4.58,6.76,9.28,6.35.75.49.18,1.16-.4,3.15s-7.5,11.5-8,12.87-.5,1.38.25,1.88,2.5,1.5,2.37,2.12a36.59,36.59,0,0,1-2.87,4.88c-.75,1.12-1,2,.12,2.87a9.24,9.24,0,0,1,3.13,3.13c1.12,1.87.87,5.5,2.25,8.62s3.12,4.88,5.5,3.63,4.5-5.13,4.75-6.75,1.12-6.13,1.12-6.88-.62-1.62-1.12-.62-3.38,6.12-4.13,7.37a3.33,3.33,0,0,1-2.25,1.75c-.62.13-1.5-2-1.5-3.75s-.12-3.37-1.37-4.75a7.73,7.73,0,0,0-4.13-2.12c-1.12-.25-2.5-.63-1.5-2a29.08,29.08,0,0,1,5.25-5c2.13-1.63,4.13-3.63,4-4s-1-1.88-1.87-1.63-3.13.38-4.25.75-1.5-.5-1.13-1.12a49.56,49.56,0,0,1,5.13-8c.27-.33.56-.7.86-1.09a3.62,3.62,0,0,1,2.76,1.84c.84,1.57,3.68,11,5.47,17.19l-.84.31c-1.13.62-.75,1.75,1.75,2.87.47,1.7,1.51,5,2.78,8.88l-.28.62c-1.63,3.5-3.75,7.63-2.38,10s3.47,3.12,7.12,2.82c1.46,4.34,2.74,8.09,3.38,9.93,1.88,5.38,3.88,11.5,9.38,13.88s8.25.5,8.75.25S307.31,477.35,305.56,477ZM256.31,365.73c.25-4.63,4-4.88,4-4.88s4.13-.37,4.38,3.75-2.25,5.5-3.75,5.75S256.06,370.35,256.31,365.73Zm11.5,33.5c-4.37,0-5.5-4.25-3.75-8h0c.14.12.56.12,1.38-.13,2.87-.87,6,.63,6.37,2.63S272.19,399.23,267.81,399.23Zm14.9,32.35c.24-.13.45-.25.6-.35.75-.5,1.38-.63,1.38-.25a38.2,38.2,0,0,1-1.31,3.67C283.14,433.56,282.91,432.54,282.71,431.58Zm.85,18.9c-4,1-3.75-.38-3.75-1.38s.25-3,1.82-6.6c.83,2.52,1.72,5.2,2.59,7.8Z" transform="translate(-218.78 -298.8)"/><path d="M312.42,332.28c-1.66,1.23-2.74,3.69-3.23,7.31-1,7.76,1.43,10.33,1.54,10.43l.23.23.32,0c.2,0,4.84-.46,7.29-8a17.46,17.46,0,0,0,1-5.26,6.52,6.52,0,0,0-.84-3.44,4.34,4.34,0,0,0-6.29-1.26Zm-2.06,10.89a26,26,0,0,1,.24-3.39c.42-3.18,1.34-5.38,2.66-6.36a2.86,2.86,0,0,1,2.19-.53h0a2.88,2.88,0,0,1,2.05,1.38,5.16,5.16,0,0,1,.63,2.72,15.72,15.72,0,0,1-.91,4.81c-1.79,5.51-4.7,6.69-5.69,6.94C311.15,348.13,310.36,346.47,310.36,343.17Zm5.32-11.68Z" transform="translate(-218.78 -298.8)"/><path d="M350.37,478.42c-1.38.1-4.12.77-7,4.14a12.54,12.54,0,0,0-3.16,10.11l.06.28.24.16c1.52,1,5.65,0,9.68-3.38a11.34,11.34,0,0,0,4.38-8,3.19,3.19,0,0,0-.86-2.46A4.58,4.58,0,0,0,350.37,478.42Zm-8.88,12.64a11.65,11.65,0,0,1,2.94-7.58c2.56-3,4.88-3.56,6-3.65a3.22,3.22,0,0,1,2.29.56,1.84,1.84,0,0,1,.38,1.37,9.88,9.88,0,0,1-3.87,6.88c-3.74,3.15-6.8,3.63-7.74,3.34C341.51,491.75,341.49,491.44,341.49,491.06Z" transform="translate(-218.78 -298.8)"/><path d="M225.58,387.73l1.29.59c0-.05.7-1.36,2.94-1.1S233,392.14,233,396c0,4.07-1.48,8.86-2.19,9.83-.79-.49-3-2.26-4.08-7.64l-1.38.29c1.56,7.47,5.14,8.8,5.29,8.86l.11,0h.12c2.05,0,3.55-8,3.55-11.38,0-2.91-.44-9.73-4.46-10.2C226.67,385.43,225.63,387.63,225.58,387.73Z" transform="translate(-218.78 -298.8)"/><path d="M284.23,372.35s10.83-20.5,25.66-27.5c0,0-.16,4.17,1.34,4.67s4.66-2.83,5.66-5.17c0,0,8.17,12,13.17,38.75s.75,84-2,106.5a59.74,59.74,0,0,1,13.33-2.91s-1,4.16-.5,5.5,6-.67,7.34-1.67a165.24,165.24,0,0,1-.5,39.17H235.23s-9.67-1.5-9.5-9.34l.5-118.33.33-1.17s3,5.67,4.33,5.84,2.34-5.67,2.34-5.67a69.44,69.44,0,0,1,15.16,11.33s5,19.84,12.5,35.17,18.34,34.83,25,40.67l40-1.67-1.16-2s-13.33-19.33-20.17-36.17S286.89,405.52,284.23,372.35Z" transform="translate(-218.78 -298.8)"/><path d="M283.26,367.32a.72.72,0,0,0-.07,1l2.34,2.67a.71.71,0,0,0,1.06-.94l-2.33-2.66A.7.7,0,0,0,283.26,367.32Z" transform="translate(-218.78 -298.8)"/><path d="M283.07,358.06a.71.71,0,0,0-.31.95l5,9.83a.71.71,0,0,0,1.27-.64l-5-9.83A.71.71,0,0,0,283.07,358.06Z" transform="translate(-218.78 -298.8)"/><path d="M285.8,353.53a.71.71,0,0,0-.4.92l4.5,11.5a.71.71,0,0,0,1.32-.52l-4.5-11.5A.7.7,0,0,0,285.8,353.53Z" transform="translate(-218.78 -298.8)"/><path d="M288.1,350.87a.71.71,0,0,0-.35.94l4.5,10a.71.71,0,1,0,1.29-.58l-4.5-10A.71.71,0,0,0,288.1,350.87Z" transform="translate(-218.78 -298.8)"/><path d="M290.65,347.86a.7.7,0,0,0-.42.91l4.67,12.66a.7.7,0,0,0,.91.42.72.72,0,0,0,.42-.91l-4.67-12.66A.7.7,0,0,0,290.65,347.86Z" transform="translate(-218.78 -298.8)"/><path d="M293.14,345a.7.7,0,0,0-.41.91l4.67,12a.71.71,0,1,0,1.32-.51l-4.66-12A.72.72,0,0,0,293.14,345Z" transform="translate(-218.78 -298.8)"/><path d="M296.35,343.84a.72.72,0,0,0-.47.89l3.67,12a.71.71,0,0,0,1.36-.42l-3.67-12A.72.72,0,0,0,296.35,343.84Z" transform="translate(-218.78 -298.8)"/><path d="M298.85,341.18a.7.7,0,0,0-.46.89l3.83,12.16a.71.71,0,1,0,1.35-.42l-3.83-12.17A.71.71,0,0,0,298.85,341.18Z" transform="translate(-218.78 -298.8)"/><path d="M302.69,339a.71.71,0,0,0-.48.88l3.34,11.33a.7.7,0,0,0,.88.48.71.71,0,0,0,.48-.88l-3.34-11.33A.7.7,0,0,0,302.69,339Z" transform="translate(-218.78 -298.8)"/><path d="M305,336.34a.71.71,0,0,0-.47.88l3.5,11.67a.71.71,0,0,0,.88.48.72.72,0,0,0,.48-.89l-3.5-11.66A.72.72,0,0,0,305,336.34Z" transform="translate(-218.78 -298.8)"/><path d="M322.15,339.28l-6.5,9.34a.69.69,0,0,0,.17,1,.71.71,0,0,0,1-.17l6.5-9.34a.71.71,0,0,0-.18-1A.69.69,0,0,0,322.15,339.28Z" transform="translate(-218.78 -298.8)"/><path d="M324.74,343.34l-8,7.5a.71.71,0,1,0,1,1l8-7.5a.71.71,0,1,0-1-1Z" transform="translate(-218.78 -298.8)"/><path d="M326.93,345.82l-9.67,8.5a.71.71,0,0,0,.94,1.07l9.66-8.5a.71.71,0,1,0-.93-1.07Z" transform="translate(-218.78 -298.8)"/><path d="M328.75,348.84l-9.67,9a.7.7,0,1,0,1,1l9.67-9a.71.71,0,0,0,0-1A.7.7,0,0,0,328.75,348.84Z" transform="translate(-218.78 -298.8)"/><path d="M330.26,353l-8.5,7.5a.71.71,0,1,0,.94,1.06l8.5-7.5a.71.71,0,0,0-.94-1.06Z" transform="translate(-218.78 -298.8)"/><path d="M332.1,356l-8.84,7.66a.72.72,0,0,0-.07,1,.7.7,0,0,0,1,.07l8.84-7.66a.72.72,0,0,0,.07-1A.7.7,0,0,0,332.1,356Z" transform="translate(-218.78 -298.8)"/><path d="M333.6,359.82l-10.33,8.83a.71.71,0,1,0,.92,1.08l10.33-8.84a.71.71,0,1,0-.92-1.07Z" transform="translate(-218.78 -298.8)"/><path d="M335.44,364.48l-10.33,8.66a.71.71,0,1,0,.91,1.09l10.33-8.67a.7.7,0,0,0,.09-1A.71.71,0,0,0,335.44,364.48Z" transform="translate(-218.78 -298.8)"/><path d="M335.76,368.16l-10.34,9.16a.71.71,0,1,0,.95,1.06l10.33-9.16a.71.71,0,0,0,.06-1A.7.7,0,0,0,335.76,368.16Z" transform="translate(-218.78 -298.8)"/><path d="M336.93,373l-10,8.67a.71.71,0,0,0,.93,1.07l10-8.66a.71.71,0,0,0-.93-1.08Z" transform="translate(-218.78 -298.8)"/><path d="M338.27,378.15l-11.83,10a.71.71,0,0,0-.09,1,.72.72,0,0,0,1,.08l11.84-10a.71.71,0,0,0,.08-1A.7.7,0,0,0,338.27,378.15Z" transform="translate(-218.78 -298.8)"/><path d="M339.43,382.48l-10.83,9.34a.71.71,0,1,0,.92,1.07l10.84-9.33a.71.71,0,0,0-.93-1.08Z" transform="translate(-218.78 -298.8)"/><path d="M339.93,385.82,327.1,397a.7.7,0,0,0-.07,1,.72.72,0,0,0,1,.07l12.83-11.17a.71.71,0,1,0-.93-1.07Z" transform="translate(-218.78 -298.8)"/><path d="M340.11,391l-11.33,9.34a.71.71,0,1,0,.9,1.09L341,392.07a.71.71,0,1,0-.9-1.1Z" transform="translate(-218.78 -298.8)"/><path d="M340.25,396.17l-10.84,10a.71.71,0,1,0,1,1l10.83-10a.71.71,0,0,0,0-1A.7.7,0,0,0,340.25,396.17Z" transform="translate(-218.78 -298.8)"/><path d="M341,401.12,329,410a.71.71,0,0,0-.15,1,.71.71,0,0,0,1,.15l12-8.83a.71.71,0,0,0-.84-1.14Z" transform="translate(-218.78 -298.8)"/><path d="M341.45,406.47l-13.5,11a.71.71,0,1,0,.89,1.1l13.5-11a.71.71,0,0,0-.89-1.1Z" transform="translate(-218.78 -298.8)"/><path d="M341.11,412.31l-13,10.66a.72.72,0,0,0-.1,1,.71.71,0,0,0,1,.1l13-10.67a.71.71,0,1,0-.9-1.09Z" transform="translate(-218.78 -298.8)"/><path d="M341.12,417.3,329,427.14a.7.7,0,0,0-.11,1,.71.71,0,0,0,1,.11L342,418.41a.71.71,0,0,0,.1-1A.7.7,0,0,0,341.12,417.3Z" transform="translate(-218.78 -298.8)"/><path d="M341.07,422.51l-11.16,10.66a.71.71,0,1,0,1,1l11.17-10.67a.71.71,0,0,0-1-1Z" transform="translate(-218.78 -298.8)"/><path d="M341.45,427.8l-14.34,11.67a.71.71,0,1,0,.9,1.1l14.33-11.67a.69.69,0,0,0,.1-1A.7.7,0,0,0,341.45,427.8Z" transform="translate(-218.78 -298.8)"/><path d="M341.44,433.48l-13.33,11.16a.71.71,0,1,0,.91,1.09l13.33-11.17a.7.7,0,0,0,.09-1A.71.71,0,0,0,341.44,433.48Z" transform="translate(-218.78 -298.8)"/><path d="M340.56,440.85l-12.83,12.67a.71.71,0,0,0,0,1,.72.72,0,0,0,1,0l12.83-12.67a.71.71,0,0,0,0-1A.72.72,0,0,0,340.56,440.85Z" transform="translate(-218.78 -298.8)"/><path d="M341.6,446.15l-14.67,12.67a.7.7,0,0,0-.07,1,.71.71,0,0,0,1,.07l14.66-12.67a.71.71,0,0,0,.08-1A.72.72,0,0,0,341.6,446.15Z" transform="translate(-218.78 -298.8)"/><path d="M340.28,452.3,327.12,463a.7.7,0,0,0-.11,1,.71.71,0,0,0,1,.1l13.16-10.66a.71.71,0,0,0,.11-1A.71.71,0,0,0,340.28,452.3Z" transform="translate(-218.78 -298.8)"/><path d="M338.91,458l-12.5,11.83a.71.71,0,1,0,1,1L339.88,459a.71.71,0,1,0-1-1Z" transform="translate(-218.78 -298.8)"/><path d="M338.23,464.52l-12.17,12a.71.71,0,0,0,1,1l12.17-12a.72.72,0,0,0,0-1A.71.71,0,0,0,338.23,464.52Z" transform="translate(-218.78 -298.8)"/><path d="M339.42,469l-13.17,12a.71.71,0,1,0,1,1l13.16-12a.71.71,0,0,0,.05-1A.7.7,0,0,0,339.42,469Z" transform="translate(-218.78 -298.8)"/><path d="M338.43,475.48l-13.16,11.34a.71.71,0,1,0,.92,1.07l12.25-10.54c.38,1.92,2.09,10.48,2.09,10.48a.71.71,0,0,0,.84.55.7.7,0,0,0,.55-.83l-2.57-12.86Z" transform="translate(-218.78 -298.8)"/><path d="M340.21,479l-11.83,12.5a.71.71,0,1,0,1,1L341.24,480a.71.71,0,0,0,0-1A.72.72,0,0,0,340.21,479Z" transform="translate(-218.78 -298.8)"/><path d="M342.85,480.23l-7.16,8.5a.7.7,0,0,0,.08,1,.71.71,0,0,0,1-.09l7.17-8.5a.71.71,0,0,0-1.09-.91Z" transform="translate(-218.78 -298.8)"/><path d="M331.33,479.18a.71.71,0,0,0-.44.9l3.67,10.67a.71.71,0,0,0,1.34-.46l-3.67-10.67A.72.72,0,0,0,331.33,479.18Z" transform="translate(-218.78 -298.8)"/><path d="M328.39,482.06a.72.72,0,0,0-.29,1l5,9.34a.72.72,0,0,0,1,.29.7.7,0,0,0,.29-1l-5-9.34A.72.72,0,0,0,328.39,482.06Z" transform="translate(-218.78 -298.8)"/><path d="M334.89,476.67a.7.7,0,0,0-.51.86l2.83,11.17a.71.71,0,1,0,1.37-.35l-2.83-11.17A.7.7,0,0,0,334.89,476.67Z" transform="translate(-218.78 -298.8)"/><path d="M353.8,487.79l-7,5.33a.73.73,0,0,0-.14,1,.72.72,0,0,0,1,.13l7-5.33a.71.71,0,0,0,.13-1A.7.7,0,0,0,353.8,487.79Z" transform="translate(-218.78 -298.8)"/><path d="M354.1,492.15l-7.33,6.34a.7.7,0,0,0-.08,1,.71.71,0,0,0,1,.08l7.33-6.34a.71.71,0,0,0,.08-1A.72.72,0,0,0,354.1,492.15Z" transform="translate(-218.78 -298.8)"/><path d="M355.29,495.79l-9,7a.71.71,0,0,0-.12,1,.7.7,0,0,0,1,.12l9-7a.7.7,0,0,0,.13-1A.72.72,0,0,0,355.29,495.79Z" transform="translate(-218.78 -298.8)"/><path d="M355.45,501.63l-8.33,6.67a.71.71,0,0,0,.88,1.11l8.34-6.67a.71.71,0,0,0-.89-1.11Z" transform="translate(-218.78 -298.8)"/><path d="M355.1,507.15l-9.5,8.17a.71.71,0,1,0,.92,1.07l9.5-8.17a.7.7,0,0,0,.08-1A.71.71,0,0,0,355.1,507.15Z" transform="translate(-218.78 -298.8)"/><path d="M355.3,513l-10.5,7.84a.71.71,0,0,0-.14,1,.7.7,0,0,0,1,.14l10.5-7.83a.71.71,0,0,0,.15-1A.72.72,0,0,0,355.3,513Z" transform="translate(-218.78 -298.8)"/><path d="M354.57,518.17,345.24,527a.71.71,0,0,0,0,1,.72.72,0,0,0,1,0l9.33-8.84a.71.71,0,0,0,0-1A.72.72,0,0,0,354.57,518.17Z" transform="translate(-218.78 -298.8)"/><path d="M353.25,524.5l-5,4.67a.7.7,0,0,0,0,1,.71.71,0,0,0,1,0l5-4.67a.71.71,0,1,0-1-1Z" transform="translate(-218.78 -298.8)"/><path d="M237.54,393.57,233,404a.71.71,0,0,0,.36.93.72.72,0,0,0,.94-.37l4.5-10.37a.72.72,0,0,0-.37-.94A.71.71,0,0,0,237.54,393.57Z" transform="translate(-218.78 -298.8)"/><path d="M239.9,395.6l-4.37,11.25a.69.69,0,0,0,.4.91.7.7,0,0,0,.92-.4l4.37-11.25a.72.72,0,0,0-.4-.92A.71.71,0,0,0,239.9,395.6Z" transform="translate(-218.78 -298.8)"/><path d="M243.7,398.5l-6,10.37a.7.7,0,0,0,.26,1,.7.7,0,0,0,1-.26l6-10.37a.71.71,0,0,0-.25-1A.7.7,0,0,0,243.7,398.5Z" transform="translate(-218.78 -298.8)"/><path d="M245.35,404.08l-4.38,6.5a.71.71,0,0,0,.2,1,.7.7,0,0,0,1-.2l4.37-6.5a.7.7,0,0,0-.19-1A.71.71,0,0,0,245.35,404.08Z" transform="translate(-218.78 -298.8)"/></svg>