<svg id="_1_3" xmlns="http://www.w3.org/2000/svg" viewBox="0 0 153.07 238.11"><defs><style>.cls-1{fill:#ed1c24;}.cls-2{fill:#fff;}.cls-3{fill:#ffcb05;}</style></defs><title>_1_3</title><rect class="cls-1" width="153.07" height="238.11"/><path class="cls-2" d="M227.29,331.69V316.52s1-8.17,9.33-8.83l118.17.16s9,.5,9.83,10v97.84L344.46,441l-12.67,46.5-13,8.33-19-3.5-47.5-25.83-7-69.17-17.84-50.83Z" transform="translate(-219.38 -300.8)"/><path class="cls-3" d="M230.79,348.19s-3.33-2.67-3.5-5,0-12,0-12a5.28,5.28,0,0,1,4.5.33C234,332.85,234.62,343.69,230.79,348.19Z" transform="translate(-219.38 -300.8)"/><path class="cls-3" d="M282.62,421s-4.66-.67-4.83,6.17,4.83,15.5,4.83,15.5l2.5-1,2.17-6.5s.67-7.17,0-10A5.14,5.14,0,0,0,282.62,421Z" transform="translate(-219.38 -300.8)"/><path class="cls-3" d="M349.12,382.85s-3.66.34-4.5,5.17,4,13.67,4,13.67l1,.5,2-4a24.64,24.64,0,0,0,1.67-9.67C353,383.69,350.29,382.52,349.12,382.85Z" transform="translate(-219.38 -300.8)"/><path d="M237.21,307.15a10.64,10.64,0,0,0-10.63,10.63V521.93a10.64,10.64,0,0,0,10.63,10.63H354.7a10.64,10.64,0,0,0,10.63-10.63V317.78a10.64,10.64,0,0,0-10.63-10.63ZM228,521.93V317.78a9.23,9.23,0,0,1,9.21-9.22H354.7a9.23,9.23,0,0,1,9.21,9.22V521.93a9.23,9.23,0,0,1-9.21,9.22H237.21A9.23,9.23,0,0,1,228,521.93Z" transform="translate(-219.38 -300.8)"/><path d="M227.09,330.75l.73,1.21a3.29,3.29,0,0,1,3.67.18c.75.65,1.38,2.75,1.38,5.57a22.21,22.21,0,0,1-2.37,9.66,10.28,10.28,0,0,1-2.6-4.63l-1.39.23c.53,3.2,3.59,6,3.72,6.16l.66.61.44-.79c4.06-7.37,3.47-15.8,1.09-17.88S227.21,330.67,227.09,330.75Z" transform="translate(-219.38 -300.8)"/><path d="M279,421.72c-1.55,1.47-2.22,4-2,7.43.51,7.7,4.8,11.57,5,11.74l.2.17h.26c1.82,0,5.66-2.67,6-10.93s-3.84-9.57-5.12-9.73A5.32,5.32,0,0,0,279,421.72Zm-.58,7.34c0-.41,0-.8,0-1.17,0-2.39.55-4.15,1.6-5.14a3.89,3.89,0,0,1,3.15-.94c.94.11,3.89,1,3.89,7.43,0,.27,0,.55,0,.84-.26,6.87-3,9.25-4.31,9.51A16.9,16.9,0,0,1,278.41,429.06Z" transform="translate(-219.38 -300.8)"/><path d="M345.89,384c-1.05,1.19-2.19,3.52-1.64,7.9a20.89,20.89,0,0,0,4.42,10.38l.36.41.49-.24c1.36-.68,4.14-5.83,4.39-11.1.18-3.81-.4-6.45-1.74-7.86a3.61,3.61,0,0,0-2.71-1.13A4.72,4.72,0,0,0,345.89,384Zm-.23,7.73a15.1,15.1,0,0,1-.13-2A7.26,7.26,0,0,1,347,385a3.26,3.26,0,0,1,2.5-1.16,2.21,2.21,0,0,1,1.68.7c.66.69,1.39,2.21,1.39,5.56,0,.39,0,.81,0,1.25a18.37,18.37,0,0,1-3.21,9.49A20,20,0,0,1,345.66,391.77Z" transform="translate(-219.38 -300.8)"/><path d="M228,345s1.84,3,2.75,3.58a54.49,54.49,0,0,0,2.09-5.25s11.91,12.5,20.66,36.75S270,444.35,270,444.35l9-8.66s1.84,3.5,3.5,4.16,4.34-1.33,5-5.83c0,0,15.34,13,25.17,52.67,0,0,7.5-59.34,34.17-88.84,0,0,1.83,2.67,2.5,3.34s3-4.34,3-4.34,9,7.17,12.17,17.84L364.62,523s-1,8.5-9.5,8.67l-118.5.33s-9-.33-9.5-10.67V346.69Z" transform="translate(-219.38 -300.8)"/><path d="M238.32,337.53l-4.66,9.17a.71.71,0,0,0,1.26.64l4.67-9.16a.73.73,0,0,0-.31-1A.71.71,0,0,0,238.32,337.53Z" transform="translate(-219.38 -300.8)"/><path d="M241.16,340c-2,3.85-5.21,9.72-5.46,10.11a.7.7,0,0,0,.2,1,.71.71,0,0,0,1-.2c.34-.51,5-9.23,5.53-10.22a.71.71,0,0,0-1.25-.67Z" transform="translate(-219.38 -300.8)"/><path d="M243.32,343.38l-4.84,10a.71.71,0,1,0,1.28.62l4.83-10a.71.71,0,1,0-1.27-.62Z" transform="translate(-219.38 -300.8)"/><path d="M246.16,346.85l-5.66,10.5a.7.7,0,1,0,1.24.67l5.67-10.5a.7.7,0,0,0-.29-1A.72.72,0,0,0,246.16,346.85Z" transform="translate(-219.38 -300.8)"/><path d="M248,350.86l-6,11.67a.71.71,0,0,0,1.26.65l6-11.67a.71.71,0,0,0-.3-.95A.72.72,0,0,0,248,350.86Z" transform="translate(-219.38 -300.8)"/><path d="M250.49,355l-5.33,10.17a.71.71,0,1,0,1.26.66l5.33-10.17a.7.7,0,0,0-.3-.95A.71.71,0,0,0,250.49,355Z" transform="translate(-219.38 -300.8)"/><path d="M252.83,359.68l-6.66,12.17a.7.7,0,0,0,.28,1,.71.71,0,0,0,1-.28l6.67-12.17a.71.71,0,0,0-1.25-.68Z" transform="translate(-219.38 -300.8)"/><path d="M254.51,364l-6.33,10.5a.71.71,0,0,0,.24,1,.72.72,0,0,0,1-.24l6.33-10.5a.71.71,0,0,0-1.22-.73Z" transform="translate(-219.38 -300.8)"/><path d="M256.19,367.64l-6.33,10a.71.71,0,0,0,.22,1,.7.7,0,0,0,1-.22l6.34-10a.71.71,0,1,0-1.2-.76Z" transform="translate(-219.38 -300.8)"/><path d="M258.51,371.65l-8.33,13.84a.71.71,0,0,0,.24,1,.72.72,0,0,0,1-.24l8.33-13.83a.71.71,0,0,0-1.22-.74Z" transform="translate(-219.38 -300.8)"/><path d="M259.51,376.32l-7.16,12a.72.72,0,0,0,.24,1,.7.7,0,0,0,1-.25l7.17-12a.7.7,0,0,0-.25-1A.71.71,0,0,0,259.51,376.32Z" transform="translate(-219.38 -300.8)"/><path d="M261.34,380.16,253.84,393a.71.71,0,0,0,1.23.71l7.5-12.83a.72.72,0,0,0-.26-1A.7.7,0,0,0,261.34,380.16Z" transform="translate(-219.38 -300.8)"/><path d="M263.21,386.11l-8.67,12.34a.71.71,0,0,0,1.16.81l8.67-12.33a.71.71,0,1,0-1.16-.82Z" transform="translate(-219.38 -300.8)"/><path d="M264.86,390.64l-8.5,13.16a.71.71,0,0,0,.21,1,.7.7,0,0,0,1-.21l8.5-13.17a.71.71,0,0,0-1.19-.76Z" transform="translate(-219.38 -300.8)"/><path d="M265.87,396.12l-8,11.67a.71.71,0,0,0,.18,1,.72.72,0,0,0,1-.18l8-11.67a.71.71,0,0,0-1.17-.8Z" transform="translate(-219.38 -300.8)"/><path d="M267.38,401.1l-9.33,12.84a.71.71,0,0,0,.15,1,.71.71,0,0,0,1-.16l9.34-12.83a.71.71,0,0,0-.16-1A.71.71,0,0,0,267.38,401.1Z" transform="translate(-219.38 -300.8)"/><path d="M267.86,408l-7.67,11.83a.71.71,0,0,0,1.19.77l7.67-11.83a.71.71,0,0,0-1.19-.77Z" transform="translate(-219.38 -300.8)"/><path d="M269.56,411.76l-8.17,10.66a.71.71,0,0,0,1.13.87l8.16-10.67a.71.71,0,0,0-1.12-.86Z" transform="translate(-219.38 -300.8)"/><path d="M270.52,417.14,261.69,431a.71.71,0,0,0,1.2.77l8.83-13.84a.71.71,0,1,0-1.2-.76Z" transform="translate(-219.38 -300.8)"/><path d="M271.53,422.3l-8,12.16a.71.71,0,1,0,1.18.78l8-12.16a.71.71,0,1,0-1.18-.78Z" transform="translate(-219.38 -300.8)"/><path d="M272.55,428.11l-7.34,10.16a.72.72,0,0,0,.16,1,.71.71,0,0,0,1-.16l7.34-10.16a.72.72,0,0,0-.16-1A.71.71,0,0,0,272.55,428.11Z" transform="translate(-219.38 -300.8)"/><path d="M274.74,432.4l-9.66,11.67a.71.71,0,0,0,.09,1,.7.7,0,0,0,1-.1l9.66-11.66a.71.71,0,1,0-1.09-.91Z" transform="translate(-219.38 -300.8)"/><path d="M273.38,427.19a.7.7,0,0,0-.42.91l4,10.83a.7.7,0,0,0,.91.42.72.72,0,0,0,.42-.91l-4-10.83A.71.71,0,0,0,273.38,427.19Z" transform="translate(-219.38 -300.8)"/><path d="M270.5,428.38a.7.7,0,0,0-.36.93l5.67,12.5a.71.71,0,0,0,.94.36.72.72,0,0,0,.35-.94l-5.67-12.5A.69.69,0,0,0,270.5,428.38Z" transform="translate(-219.38 -300.8)"/><path d="M268.89,430.68a.72.72,0,0,0-.44.91l4.34,12.5a.71.71,0,1,0,1.33-.47l-4.33-12.5A.72.72,0,0,0,268.89,430.68Z" transform="translate(-219.38 -300.8)"/><path d="M291.53,428l-4.83,7.34a.7.7,0,0,0,.2,1,.72.72,0,0,0,1-.2l4.83-7.34a.7.7,0,0,0-.2-1A.72.72,0,0,0,291.53,428Z" transform="translate(-219.38 -300.8)"/><path d="M294.21,429.62l-5.67,8.16a.72.72,0,0,0,.18,1,.71.71,0,0,0,1-.18l5.67-8.16a.72.72,0,0,0-.18-1A.71.71,0,0,0,294.21,429.62Z" transform="translate(-219.38 -300.8)"/><path d="M296.16,431.69l-6,11.33a.71.71,0,0,0,1.25.67l6-11.34a.69.69,0,0,0-.29-1A.7.7,0,0,0,296.16,431.69Z" transform="translate(-219.38 -300.8)"/><path d="M299,434.13,291.7,445.3a.7.7,0,0,0,.2,1,.71.71,0,0,0,1-.2l7.33-11.17a.7.7,0,0,0-.2-1A.71.71,0,0,0,299,434.13Z" transform="translate(-219.38 -300.8)"/><path d="M301.53,437.13,294.36,448a.71.71,0,0,0,1.19.79l7.16-10.84a.71.71,0,1,0-1.18-.78Z" transform="translate(-219.38 -300.8)"/><path d="M303.35,439.49,296,451.66a.71.71,0,0,0,1.22.73l7.33-12.17a.71.71,0,0,0-1.21-.73Z" transform="translate(-219.38 -300.8)"/><path d="M305.72,442.43l-9,11.83a.71.71,0,0,0,.14,1,.7.7,0,0,0,1-.13l9-11.84a.71.71,0,1,0-1.13-.85Z" transform="translate(-219.38 -300.8)"/><path d="M307.68,444.83l-8.83,14.83a.7.7,0,1,0,1.21.72l8.84-14.83a.71.71,0,0,0-1.22-.72Z" transform="translate(-219.38 -300.8)"/><path d="M308.68,449.16,301,462a.7.7,0,0,0,.25,1,.71.71,0,0,0,1-.24l7.67-12.84a.71.71,0,0,0-1.22-.72Z" transform="translate(-219.38 -300.8)"/><path d="M310.88,453.1l-10,13.67a.71.71,0,0,0,.16,1,.71.71,0,0,0,1-.15l10-13.67a.71.71,0,0,0-.16-1A.71.71,0,0,0,310.88,453.1Z" transform="translate(-219.38 -300.8)"/><path d="M312.54,457.12l-9.34,13.67a.71.71,0,0,0,1.17.8l9.34-13.67a.71.71,0,0,0-1.17-.8Z" transform="translate(-219.38 -300.8)"/><path d="M314.2,461.12l-9.66,14.17a.71.71,0,0,0,.18,1,.72.72,0,0,0,1-.18l9.66-14.17a.71.71,0,0,0-.18-1A.72.72,0,0,0,314.2,461.12Z" transform="translate(-219.38 -300.8)"/><path d="M315.07,467.25l-9.84,12.33a.71.71,0,0,0,.12,1,.7.7,0,0,0,1-.12l9.84-12.33a.71.71,0,0,0-.12-1A.7.7,0,0,0,315.07,467.25Z" transform="translate(-219.38 -300.8)"/><path d="M308.25,477.23a.7.7,0,0,0,.08,1l5.33,4.5a.71.71,0,0,0,1-.09.69.69,0,0,0-.08-1l-5.33-4.5A.7.7,0,0,0,308.25,477.23Z" transform="translate(-219.38 -300.8)"/><path d="M304.81,466a.7.7,0,0,0,0,1l10,10.83a.7.7,0,0,0,1,0,.71.71,0,0,0,0-1l-10-10.83A.71.71,0,0,0,304.81,466Z" transform="translate(-219.38 -300.8)"/><path d="M305.2,460a.72.72,0,0,0-.29.57.76.76,0,0,0,.14.43l9.68,12.89-5.5,6.91a.71.71,0,0,0-.15.44.69.69,0,0,0,.27.55.7.7,0,0,0,1-.11l6.18-7.76L306.19,460.1A.71.71,0,0,0,305.2,460Z" transform="translate(-219.38 -300.8)"/><path d="M307,454.3a.7.7,0,0,0-.12,1l12.16,15.5a.71.71,0,0,0,1,.12.7.7,0,0,0,.12-1L308,454.42A.7.7,0,0,0,307,454.3Z" transform="translate(-219.38 -300.8)"/><path d="M308.37,449.45a.7.7,0,0,0-.15,1l10.33,14.17a.71.71,0,0,0,1,.15.7.7,0,0,0,.15-1L309.36,449.6A.71.71,0,0,0,308.37,449.45Z" transform="translate(-219.38 -300.8)"/><path d="M308.65,445.33a.7.7,0,0,0,0,1l10.66,11.83a.71.71,0,0,0,1.05-1l-10.66-11.83A.71.71,0,0,0,308.65,445.33Z" transform="translate(-219.38 -300.8)"/><path d="M310.52,441.47a.7.7,0,0,0-.12,1l9.5,12a.7.7,0,0,0,1,.12.71.71,0,0,0,.12-1l-9.5-12A.69.69,0,0,0,310.52,441.47Z" transform="translate(-219.38 -300.8)"/><path d="M312,437.28a.7.7,0,0,0-.16,1l9.5,13.33a.71.71,0,0,0,1.15-.82L313,437.44A.71.71,0,0,0,312,437.28Z" transform="translate(-219.38 -300.8)"/><path d="M312.85,433a.71.71,0,0,0-.12,1l12.5,15.83a.71.71,0,0,0,1,.12.7.7,0,0,0,.11-1l-12.5-15.84A.71.71,0,0,0,312.85,433Z" transform="translate(-219.38 -300.8)"/><path d="M315,428.61a.71.71,0,0,0-.16,1L326,445.27a.71.71,0,0,0,1.16-.83L316,428.78A.71.71,0,0,0,315,428.61Z" transform="translate(-219.38 -300.8)"/><path d="M317.19,425.46a.72.72,0,0,0-.13,1l11.17,14.33a.71.71,0,0,0,1.12-.87l-11.17-14.33A.7.7,0,0,0,317.19,425.46Z" transform="translate(-219.38 -300.8)"/><path d="M318.61,420.07a.71.71,0,0,0-.27,1l9.83,17.5a.7.7,0,0,0,1,.28.71.71,0,0,0,.28-1l-9.84-17.5A.71.71,0,0,0,318.61,420.07Z" transform="translate(-219.38 -300.8)"/><path d="M320.16,417.32a.71.71,0,0,0-.08,1l9.84,11.5a.71.71,0,1,0,1.07-.93l-9.83-11.5A.71.71,0,0,0,320.16,417.32Z" transform="translate(-219.38 -300.8)"/><path d="M322.36,413.63a.7.7,0,0,0-.13,1l10,13a.71.71,0,1,0,1.12-.86l-10-13A.7.7,0,0,0,322.36,413.63Z" transform="translate(-219.38 -300.8)"/><path d="M324.2,410.62a.71.71,0,0,0-.15,1l9,12.17a.71.71,0,0,0,1.14-.85l-9-12.16A.7.7,0,0,0,324.2,410.62Z" transform="translate(-219.38 -300.8)"/><path d="M326.92,407.75a.71.71,0,0,0-.24,1l7.67,12.83a.7.7,0,0,0,1,.25.72.72,0,0,0,.24-1L327.9,408A.7.7,0,0,0,326.92,407.75Z" transform="translate(-219.38 -300.8)"/><path d="M328.71,405.45a.71.71,0,0,0-.16,1l8.33,11.5a.71.71,0,0,0,1,.15.71.71,0,0,0,.16-1l-8.33-11.5A.71.71,0,0,0,328.71,405.45Z" transform="translate(-219.38 -300.8)"/><path d="M330.51,401.63a.72.72,0,0,0-.11,1l8.5,10.67a.71.71,0,0,0,1.11-.89l-8.5-10.66A.71.71,0,0,0,330.51,401.63Z" transform="translate(-219.38 -300.8)"/><path d="M333.73,398.43a.71.71,0,0,0-.2,1l7.17,10.84a.71.71,0,0,0,1.18-.79l-7.17-10.83A.7.7,0,0,0,333.73,398.43Z" transform="translate(-219.38 -300.8)"/><path d="M336.88,395.44a.69.69,0,0,0-.17,1l6.33,9.17a.71.71,0,0,0,1.17-.81l-6.34-9.16A.71.71,0,0,0,336.88,395.44Z" transform="translate(-219.38 -300.8)"/><path d="M339.45,393.23a.7.7,0,0,0-.28,1l5.66,10.34a.71.71,0,0,0,1.25-.68l-5.67-10.34A.71.71,0,0,0,339.45,393.23Z" transform="translate(-219.38 -300.8)"/><path d="M341.2,391.45a.72.72,0,0,0,.19,1l3.67,2.5a.71.71,0,0,0,.79-1.17l-3.66-2.5A.72.72,0,0,0,341.2,391.45Z" transform="translate(-219.38 -300.8)"/><path d="M356,391.8l-4.5,6.83a.72.72,0,0,0,.2,1,.7.7,0,0,0,1-.2l4.5-6.83a.71.71,0,1,0-1.18-.78Z" transform="translate(-219.38 -300.8)"/><path d="M358,393.82l-4.5,7.5a.72.72,0,0,0,.25,1,.71.71,0,0,0,1-.25l4.5-7.5a.71.71,0,0,0-.24-1A.72.72,0,0,0,358,393.82Z" transform="translate(-219.38 -300.8)"/><path d="M360.76,397.39l-6.17,7a.71.71,0,1,0,1.06.93l6.17-7a.71.71,0,0,0-.06-1A.7.7,0,0,0,360.76,397.39Z" transform="translate(-219.38 -300.8)"/><path d="M363.57,399.74l-7.66,9.33a.71.71,0,1,0,1.09.9l7.67-9.33a.71.71,0,0,0-1.1-.9Z" transform="translate(-219.38 -300.8)"/><path d="M364.13,405.51l-4.83,4.67a.7.7,0,0,0,0,1,.71.71,0,0,0,1,0l4.83-4.67a.7.7,0,0,0,0-1A.71.71,0,0,0,364.13,405.51Z" transform="translate(-219.38 -300.8)"/></svg>