<svg id="_1_4" xmlns="http://www.w3.org/2000/svg" viewBox="0 0 153.07 238.11"><defs><style>.cls-1{fill:#ed1c24;}.cls-2{fill:#fff;}.cls-3{fill:#ffcb05;}</style></defs><title>_1_4</title><rect class="cls-1" width="153.07" height="238.11"/><path class="cls-2" d="M229.06,316.8l-.33,87.5L250.06,457l10.67,40.33,6.66,6s28.34-10,29-9.83,11.67,0,11.67,0l37.67-55,21-40.83-.17-82.17s-1.17-9.5-10.67-9.17H238.73S230.06,306.47,229.06,316.8Z" transform="translate(-221.28 -299.52)"/><path class="cls-3" d="M229.06,388.76s1.88-2.75,4.63-2.37,4,5,1.75,11.5-6.25,6.25-6.25,6.25Z" transform="translate(-221.28 -299.52)"/><path class="cls-3" d="M264.31,479.14a11.41,11.41,0,0,1-.12-7.25,19.27,19.27,0,0,1,6.62-9.25c2.25-1.5,4.63-.75,5.25,2.25s-1,5.87-2.75,8.75-6.62,5.87-7.87,6.12S264.31,479.14,264.31,479.14Z" transform="translate(-221.28 -299.52)"/><path class="cls-3" d="M280.44,464.39s-2.88.75-2.88,6.5,4.13,11,5.13,12.25a6.39,6.39,0,0,0,3,1.75l.87-5.75a41.62,41.62,0,0,0,0-9.38C285.94,465.64,282.56,463.39,280.44,464.39Z" transform="translate(-221.28 -299.52)"/><path class="cls-3" d="M325.31,322.64s-2.12-1.13-3.37,3.12,1.12,10.38,2.37,11.88a25.4,25.4,0,0,1,2.5,4l4-1.13.38-6.5a58.42,58.42,0,0,0-1.38-8.37C328.94,322.64,326.56,322.26,325.31,322.64Z" transform="translate(-221.28 -299.52)"/><path d="M239,305.79a10.64,10.64,0,0,0-10.63,10.63V520.73A10.64,10.64,0,0,0,239,531.36H356.64a10.64,10.64,0,0,0,10.63-10.63V316.42a10.64,10.64,0,0,0-10.63-10.63Zm-9.21,214.94V316.42A9.23,9.23,0,0,1,239,307.2H356.64a9.23,9.23,0,0,1,9.21,9.22V520.73a9.22,9.22,0,0,1-9.21,9.21H239A9.22,9.22,0,0,1,229.77,520.73Z" transform="translate(-221.28 -299.52)"/><path d="M228.47,388.58l1.18.79a4.76,4.76,0,0,1,4.61-2,1.69,1.69,0,0,1,1.18,1.07c1.08,2.32.25,7.31-1.17,9.9s-3.46,4.35-5.16,4.64l.23,1.4c2.14-.36,4.62-2.51,6.18-5.36,1.63-3,2.5-8.42,1.21-11.18a3.1,3.1,0,0,0-2.2-1.86C230.78,385.19,228.56,388.44,228.47,388.58Z" transform="translate(-221.28 -299.52)"/><path d="M271.83,461.55c-1.49.41-4.36,1.86-6.9,6.94-3.65,7.29-1.22,10.9-1.12,11.05l.05.07.06.05a2.28,2.28,0,0,0,1.86.52c2.35-.25,6.08-3.17,8.69-6.8a11.94,11.94,0,0,0,2.2-8.76,3.5,3.5,0,0,0-4.84-3.07Zm-7.48,14.25a15,15,0,0,1,1.85-6.68c1.67-3.35,3.86-5.62,6-6.21a2.72,2.72,0,0,1,2.14.16,2.76,2.76,0,0,1,.93,1.82,10.5,10.5,0,0,1-2,7.67c-2.32,3.22-5.77,6-7.69,6.21a1,1,0,0,1-.71-.14A6,6,0,0,1,264.35,475.8Z" transform="translate(-221.28 -299.52)"/><path d="M280.79,463.77a4.26,4.26,0,0,0-2.69,1.83c-.92,1.31-1.83,3.85-.9,8.51,1.56,7.8,6.42,9.62,6.62,9.69l.14.05h.16c2.79-.21,3.83-3.62,3.48-11.4-.15-3.41-1.14-5.89-2.93-7.38A5.33,5.33,0,0,0,280.79,463.77Zm-2.2,10.06a17.21,17.21,0,0,1-.37-3.35,6.86,6.86,0,0,1,1-4.06,2.87,2.87,0,0,1,1.74-1.25,4,4,0,0,1,2.77,1c1.45,1.2,2.29,3.4,2.42,6.35,0,.91.06,1.76.06,2.54,0,4.68-.73,7.12-2.15,7.34C283.25,482,279.83,480.05,278.59,473.83Z" transform="translate(-221.28 -299.52)"/><path d="M325.45,321.77a4.49,4.49,0,0,0-3.13,1.78c-1.2,1.65-1.45,4.38-.79,8.37,1.23,7.36,5.65,8.68,5.84,8.73h0a2.11,2.11,0,0,0,1.81-.49c1.54-1.27,2.33-4.48,2.22-9.05-.1-3.92-1.14-6.9-2.94-8.4A3.84,3.84,0,0,0,325.45,321.77Zm-2.52,9.92a21.83,21.83,0,0,1-.34-3.59,6.4,6.4,0,0,1,.87-3.72,3.06,3.06,0,0,1,2.21-1.21,2.44,2.44,0,0,1,1.93.64c.85.71,2.3,2.62,2.42,7.34s-.8,7.19-1.7,7.93a.73.73,0,0,1-.59.2C327.49,339.2,324,338,322.93,331.69Z" transform="translate(-221.28 -299.52)"/><path d="M366.23,396.8s-23-56.83-35.5-64c0,0-.17,7-2.5,7.34s-5.5-5.34-6-7.5c0,0-30.67,55.5-23.67,155.75,0,0-6.33-7.59-11.67-10.42,0,0-.83,5.33-2.33,5.33s-3.17-2-3.17-2a98.42,98.42,0,0,0-12.66,15.17s-1.5-12.5-2.5-17c0,0-3.5,2-2.17-7.67,0,0-10-56.5-28.33-75,0,0-1.34,5.84-6.34,6.34a6.39,6.39,0,0,0-.5,1.83V521.14s-.15,9,10.09,9.51H356.64s9.92-1,9.92-9.92Z" transform="translate(-221.28 -299.52)"/><path d="M365.75,385.18,363.08,391a.71.71,0,1,0,1.29.59l2.67-5.84a.71.71,0,0,0-.35-.93A.7.7,0,0,0,365.75,385.18Z" transform="translate(-221.28 -299.52)"/><path d="M364.74,376.71l-4.5,11.16a.71.71,0,0,0,1.31.53l4.5-11.16a.71.71,0,1,0-1.31-.53Z" transform="translate(-221.28 -299.52)"/><path d="M363.22,372.07l-4.33,12.5a.71.71,0,0,0,1.34.47l4.33-12.5a.71.71,0,0,0-.43-.91A.73.73,0,0,0,363.22,372.07Z" transform="translate(-221.28 -299.52)"/><path d="M361.23,367.72l-4.66,12.33a.71.71,0,1,0,1.32.5l4.67-12.33a.71.71,0,0,0-1.33-.5Z" transform="translate(-221.28 -299.52)"/><path d="M358.73,363.72l-4,10.84a.71.71,0,0,0,1.33.49l4-10.83a.71.71,0,0,0-1.33-.5Z" transform="translate(-221.28 -299.52)"/><path d="M356.91,359.37l-4.67,11.5a.71.71,0,0,0,1.31.53l4.67-11.5a.71.71,0,0,0-1.31-.53Z" transform="translate(-221.28 -299.52)"/><path d="M354.23,355.56l-3.67,10a.71.71,0,1,0,1.33.49l3.67-10a.71.71,0,0,0-.42-.91A.7.7,0,0,0,354.23,355.56Z" transform="translate(-221.28 -299.52)"/><path d="M352.05,350.61l-3.17,11a.71.71,0,0,0,1.36.39l3.17-11a.71.71,0,1,0-1.36-.39Z" transform="translate(-221.28 -299.52)"/><path d="M350.08,346.19l-4.84,11.17a.71.71,0,1,0,1.3.56l4.84-11.17a.71.71,0,0,0-.37-.93A.7.7,0,0,0,350.08,346.19Z" transform="translate(-221.28 -299.52)"/><path d="M347.9,342.39l-4.33,11.5a.7.7,0,0,0,.41.91.71.71,0,0,0,.91-.41l4.33-11.5a.71.71,0,1,0-1.32-.5Z" transform="translate(-221.28 -299.52)"/><path d="M345.72,339.25l-3.5,10.84a.7.7,0,0,0,.46.89.71.71,0,0,0,.89-.46l3.5-10.83a.71.71,0,0,0-1.35-.44Z" transform="translate(-221.28 -299.52)"/><path d="M343.07,335.87l-4.67,11.67a.71.71,0,0,0,1.32.53l4.67-11.67a.71.71,0,0,0-1.32-.53Z" transform="translate(-221.28 -299.52)"/><path d="M341.05,332.59l-3.33,10.33a.71.71,0,1,0,1.35.43L342.4,333a.71.71,0,1,0-1.35-.43Z" transform="translate(-221.28 -299.52)"/><path d="M338.72,330.09l-3.34,10.67a.73.73,0,0,0,.47.89.72.72,0,0,0,.89-.47l3.33-10.67a.7.7,0,0,0-.46-.88A.71.71,0,0,0,338.72,330.09Z" transform="translate(-221.28 -299.52)"/><path d="M335,328.31l-1.84,8a.71.71,0,0,0,1.39.32l1.83-8a.71.71,0,0,0-1.38-.32Z" transform="translate(-221.28 -299.52)"/><path d="M332.7,325.67l-1.83,9.5a.7.7,0,0,0,.56.83.72.72,0,0,0,.83-.56l1.83-9.5a.71.71,0,0,0-.56-.83A.69.69,0,0,0,332.7,325.67Z" transform="translate(-221.28 -299.52)"/><path d="M319.3,323.57a.71.71,0,0,0-.14,1l2,2.67a.71.71,0,0,0,1.14-.85l-2-2.67A.72.72,0,0,0,319.3,323.57Z" transform="translate(-221.28 -299.52)"/><path d="M316,325.37a.72.72,0,0,0-.23,1l5.84,9.33a.7.7,0,0,0,1,.22.69.69,0,0,0,.23-1L317,325.59A.71.71,0,0,0,316,325.37Z" transform="translate(-221.28 -299.52)"/><path d="M314.29,328.41a.71.71,0,0,0-.12,1l7.67,9.83a.71.71,0,1,0,1.11-.87l-7.66-9.84A.72.72,0,0,0,314.29,328.41Z" transform="translate(-221.28 -299.52)"/><path d="M312.84,332.71a.71.71,0,0,0-.21,1l5.84,9a.71.71,0,1,0,1.19-.77l-5.84-9A.71.71,0,0,0,312.84,332.71Z" transform="translate(-221.28 -299.52)"/><path d="M309.45,335.59a.7.7,0,0,0-.1,1l8.16,10a.72.72,0,0,0,1,.1.71.71,0,0,0,.1-1l-8.17-10A.7.7,0,0,0,309.45,335.59Z" transform="translate(-221.28 -299.52)"/><path d="M307.28,339.92a.71.71,0,0,0-.1,1L316,351.59a.71.71,0,0,0,1.09-.91L308.27,340A.7.7,0,0,0,307.28,339.92Z" transform="translate(-221.28 -299.52)"/><path d="M305.29,343.75a.71.71,0,0,0-.12,1L315,357.08a.7.7,0,0,0,1,.11.71.71,0,0,0,.12-1l-9.84-12.33A.7.7,0,0,0,305.29,343.75Z" transform="translate(-221.28 -299.52)"/><path d="M303.46,347.91a.7.7,0,0,0-.13,1l10.34,13.5a.71.71,0,0,0,1.12-.86L304.46,348A.72.72,0,0,0,303.46,347.91Z" transform="translate(-221.28 -299.52)"/><path d="M301.46,351.91a.7.7,0,0,0-.13,1l10.34,13.5a.71.71,0,0,0,1.12-.86L302.46,352A.72.72,0,0,0,301.46,351.91Z" transform="translate(-221.28 -299.52)"/><path d="M300.12,356.42a.7.7,0,0,0-.11,1l11.33,14a.71.71,0,0,0,1,.1.72.72,0,0,0,.11-1l-11.34-14A.7.7,0,0,0,300.12,356.42Z" transform="translate(-221.28 -299.52)"/><path d="M299,361.57a.71.71,0,0,0-.14,1l10.67,14.17a.7.7,0,0,0,1,.14.71.71,0,0,0,.14-1L300,361.71A.71.71,0,0,0,299,361.57Z" transform="translate(-221.28 -299.52)"/><path d="M297.78,367.42a.71.71,0,0,0-.1,1l11,13.33a.7.7,0,0,0,1,.1.72.72,0,0,0,.1-1l-11-13.33A.71.71,0,0,0,297.78,367.42Z" transform="translate(-221.28 -299.52)"/><path d="M296.1,372.93a.71.71,0,0,0-.08,1l11.5,13.5a.71.71,0,0,0,1.08-.92L297.1,373A.71.71,0,0,0,296.1,372.93Z" transform="translate(-221.28 -299.52)"/><path d="M295.31,377.9a.7.7,0,0,0-.15,1l9.16,12.5a.71.71,0,0,0,1.15-.84l-9.17-12.5A.71.71,0,0,0,295.31,377.9Z" transform="translate(-221.28 -299.52)"/><path d="M294.63,383.24a.72.72,0,0,0-.13,1l10.17,13.16a.71.71,0,0,0,1.12-.86l-10.17-13.17A.7.7,0,0,0,294.63,383.24Z" transform="translate(-221.28 -299.52)"/><path d="M293.11,388.76a.71.71,0,0,0-.09,1l11.5,13.67a.71.71,0,0,0,1,.08.7.7,0,0,0,.08-1l-11.5-13.66A.7.7,0,0,0,293.11,388.76Z" transform="translate(-221.28 -299.52)"/><path d="M291.8,393.74a.71.71,0,0,0-.14,1l12,16a.71.71,0,0,0,1.14-.85l-12-16A.7.7,0,0,0,291.8,393.74Z" transform="translate(-221.28 -299.52)"/><path d="M290.47,398.9a.72.72,0,0,0-.14,1l14,18.66a.7.7,0,0,0,1,.14.7.7,0,0,0,.14-1l-14-18.67A.71.71,0,0,0,290.47,398.9Z" transform="translate(-221.28 -299.52)"/><path d="M290,405.23a.72.72,0,0,0-.14,1l11.66,15.66a.71.71,0,1,0,1.14-.84L291,405.38A.71.71,0,0,0,290,405.23Z" transform="translate(-221.28 -299.52)"/><path d="M289.79,411.08a.7.7,0,0,0-.12,1l12.5,16.17a.71.71,0,0,0,1.12-.87l-12.5-16.17A.71.71,0,0,0,289.79,411.08Z" transform="translate(-221.28 -299.52)"/><path d="M288.43,416.77a.71.71,0,0,0-.07,1l14.67,17a.7.7,0,0,0,1,.07.71.71,0,0,0,.08-1l-14.67-17A.7.7,0,0,0,288.43,416.77Z" transform="translate(-221.28 -299.52)"/><path d="M288.65,423.06a.7.7,0,0,0-.17,1l12.17,17.34a.71.71,0,0,0,1.16-.82l-12.17-17.33A.71.71,0,0,0,288.65,423.06Z" transform="translate(-221.28 -299.52)"/><path d="M287.79,428.91a.7.7,0,0,0-.12,1l13.66,17.67a.72.72,0,0,0,1,.13.72.72,0,0,0,.13-1L288.79,429A.72.72,0,0,0,287.79,428.91Z" transform="translate(-221.28 -299.52)"/><path d="M286.45,434.42a.71.71,0,0,0-.11,1l15.33,19.17a.72.72,0,0,0,1,.11.7.7,0,0,0,.11-1l-15.33-19.16A.7.7,0,0,0,286.45,434.42Z" transform="translate(-221.28 -299.52)"/><path d="M286.29,441.08a.7.7,0,0,0-.12,1l14.33,18.5a.72.72,0,0,0,1,.13.72.72,0,0,0,.12-1l-14.33-18.5A.71.71,0,0,0,286.29,441.08Z" transform="translate(-221.28 -299.52)"/><path d="M286.35,448.72a.72.72,0,0,0,.1,1c.63.55,9.76,11,15.74,17.91a.71.71,0,1,0,1.07-.93c-5.75-6.62-15.47-17.79-16-18.12A.69.69,0,0,0,286.35,448.72Z" transform="translate(-221.28 -299.52)"/><path d="M287.6,455.09a.72.72,0,0,0-.08,1l16.83,20a.71.71,0,0,0,1.09-.91l-16.84-20A.71.71,0,0,0,287.6,455.09Z" transform="translate(-221.28 -299.52)"/><path d="M287.27,460.93a.7.7,0,0,0-.08,1L302,479.59a.71.71,0,0,0,1,.09.7.7,0,0,0,.08-1L288.27,461A.71.71,0,0,0,287.27,460.93Z" transform="translate(-221.28 -299.52)"/><path d="M286.62,467.25a.71.71,0,0,0-.12,1l16,20.34a.71.71,0,0,0,1,.11.7.7,0,0,0,.12-1l-16-20.33A.7.7,0,0,0,286.62,467.25Z" transform="translate(-221.28 -299.52)"/><path d="M287.55,473.51a.73.73,0,0,0-.28,1l11.67,21.33a.71.71,0,0,0,1,.28.7.7,0,0,0,.28-1L288.52,473.8A.72.72,0,0,0,287.55,473.51Z" transform="translate(-221.28 -299.52)"/><path d="M300.26,480.94l-6,5.33a.71.71,0,1,0,.94,1.06l6-5.33a.71.71,0,0,0-.94-1.06Z" transform="translate(-221.28 -299.52)"/><path d="M299.65,472.56l-7.16,10a.71.71,0,0,0,.16,1,.72.72,0,0,0,1-.17l7.16-10a.71.71,0,0,0-.16-1A.72.72,0,0,0,299.65,472.56Z" transform="translate(-221.28 -299.52)"/><path d="M296.13,470.1l-7,11.33a.71.71,0,1,0,1.2.75l7-11.34a.7.7,0,0,0-.23-1A.69.69,0,0,0,296.13,470.1Z" transform="translate(-221.28 -299.52)"/><path d="M290.37,469l-2.5,12a.71.71,0,1,0,1.38.29l2.5-12a.7.7,0,0,0-.54-.84A.71.71,0,0,0,290.37,469Z" transform="translate(-221.28 -299.52)"/><path d="M275,478.75l-8.17,12.67a.71.71,0,1,0,1.19.77l8.17-12.67a.72.72,0,0,0-.21-1A.71.71,0,0,0,275,478.75Z" transform="translate(-221.28 -299.52)"/><path d="M276.77,482.63l-8,14.5a.72.72,0,0,0,.28,1,.71.71,0,0,0,1-.28l8-14.5a.72.72,0,0,0-.28-1A.71.71,0,0,0,276.77,482.63Z" transform="translate(-221.28 -299.52)"/><path d="M274.14,474.08l-8.34,12.5a.72.72,0,0,0,.2,1,.7.7,0,0,0,1-.2l8.34-12.5a.71.71,0,0,0-.2-1A.7.7,0,0,0,274.14,474.08Z" transform="translate(-221.28 -299.52)"/><path d="M272.49,475.72a.71.71,0,0,0-.17,1l8.33,11.83a.71.71,0,0,0,1,.18.72.72,0,0,0,.17-1l-8.34-11.83A.71.71,0,0,0,272.49,475.72Z" transform="translate(-221.28 -299.52)"/><path d="M270.65,478.73a.71.71,0,0,0-.17,1l8.67,12.17a.72.72,0,0,0,1,.17.71.71,0,0,0,.16-1l-8.66-12.17A.71.71,0,0,0,270.65,478.73Z" transform="translate(-221.28 -299.52)"/><path d="M267.31,480.57a.7.7,0,0,0-.15,1l7.17,9.67a.71.71,0,1,0,1.13-.85l-7.16-9.67A.71.71,0,0,0,267.31,480.57Z" transform="translate(-221.28 -299.52)"/><path d="M267,487.69a.67.67,0,0,0-.39.84c.05.16.21.64,6.31,7.25a.71.71,0,1,0,1-1c-2.72-2.95-5.77-6.34-6-6.82A.74.74,0,0,0,267,487.69Z" transform="translate(-221.28 -299.52)"/><path d="M270.25,457l-4,9a.71.71,0,1,0,1.29.57l4-9a.71.71,0,0,0-1.29-.57Z" transform="translate(-221.28 -299.52)"/><path d="M269.12,452.28l-7.84,13.5a.72.72,0,0,0,.26,1,.71.71,0,0,0,1-.26l7.83-13.5a.71.71,0,1,0-1.22-.71Z" transform="translate(-221.28 -299.52)"/><path d="M267.81,447.91l-8,11.83a.71.71,0,0,0,1.17.79l8-11.83a.71.71,0,0,0-1.17-.79Z" transform="translate(-221.28 -299.52)"/><path d="M266,444.57l-8.17,11.83a.71.71,0,1,0,1.17.81l8.16-11.84a.69.69,0,0,0-.18-1A.7.7,0,0,0,266,444.57Z" transform="translate(-221.28 -299.52)"/><path d="M265.34,439,255.5,451.7a.72.72,0,0,0,.13,1,.7.7,0,0,0,1-.13l9.83-12.67a.7.7,0,1,0-1.11-.86Z" transform="translate(-221.28 -299.52)"/><path d="M264,435.58l-8.17,12.33a.71.71,0,0,0,1.19.79l8.16-12.34a.71.71,0,1,0-1.18-.78Z" transform="translate(-221.28 -299.52)"/><path d="M262.48,431.39,253,444.73a.71.71,0,0,0,1.16.82l9.5-13.34a.7.7,0,0,0-.17-1A.71.71,0,0,0,262.48,431.39Z" transform="translate(-221.28 -299.52)"/><path d="M260.63,426.93l-7.84,12.67a.71.71,0,0,0,1.21.74l7.83-12.66a.71.71,0,1,0-1.2-.75Z" transform="translate(-221.28 -299.52)"/><path d="M259.82,423.56l-8,11.16a.71.71,0,1,0,1.15.83l8-11.17a.71.71,0,0,0-.16-1A.72.72,0,0,0,259.82,423.56Z" transform="translate(-221.28 -299.52)"/><path d="M258.47,418.92l-7.84,12a.71.71,0,1,0,1.19.77l7.83-12a.7.7,0,0,0-.2-1A.71.71,0,0,0,258.47,418.92Z" transform="translate(-221.28 -299.52)"/><path d="M257,416.43l-7.5,12.17a.7.7,0,0,0,1.2.74l7.5-12.16a.71.71,0,1,0-1.2-.75Z" transform="translate(-221.28 -299.52)"/><path d="M254.76,411.82l-6,11.83a.71.71,0,0,0,1.27.64l6-11.83a.71.71,0,1,0-1.27-.64Z" transform="translate(-221.28 -299.52)"/><path d="M253.47,409.25l-8,12.33a.7.7,0,0,0,.21,1,.71.71,0,0,0,1-.2l8-12.34a.71.71,0,0,0-1.19-.77Z" transform="translate(-221.28 -299.52)"/><path d="M251.78,406.29l-6.5,11.5a.71.71,0,0,0,.27,1,.69.69,0,0,0,1-.26L253,407a.71.71,0,0,0-.27-1A.71.71,0,0,0,251.78,406.29Z" transform="translate(-221.28 -299.52)"/><path d="M250.1,403.15l-6.67,13a.71.71,0,1,0,1.26.64l6.67-13a.71.71,0,0,0-1.26-.64Z" transform="translate(-221.28 -299.52)"/><path d="M248,400.76l-7.33,11.5a.7.7,0,0,0,.22,1,.71.71,0,0,0,1-.21l7.33-11.5a.71.71,0,1,0-1.2-.76Z" transform="translate(-221.28 -299.52)"/><path d="M246.3,397.24l-7.66,11.5a.71.71,0,1,0,1.18.79l7.66-11.5a.7.7,0,0,0-.19-1A.72.72,0,0,0,246.3,397.24Z" transform="translate(-221.28 -299.52)"/><path d="M244.46,394.76l-7.17,11.5a.72.72,0,0,0,.23,1,.71.71,0,0,0,1-.23l7.16-11.5a.7.7,0,0,0-.22-1A.71.71,0,0,0,244.46,394.76Z" transform="translate(-221.28 -299.52)"/><path d="M242.29,392.1,236,402.26a.71.71,0,1,0,1.2.75l6.34-10.17a.71.71,0,0,0-1.21-.74Z" transform="translate(-221.28 -299.52)"/><path d="M239.79,390.27l-6.5,10.84a.71.71,0,0,0,1.21.73L241,391a.71.71,0,1,0-1.21-.73Z" transform="translate(-221.28 -299.52)"/></svg>