<svg id="_2_1" xmlns="http://www.w3.org/2000/svg" viewBox="0 0 153.07 238.11"><defs><style>.cls-1{fill:#ed1c24;}.cls-2{fill:#fff;}.cls-3{fill:#007b85;}.cls-4{fill:#ffcb05;}</style></defs><title>_2_1</title><rect class="cls-1" width="153.07" height="238.11"/><path class="cls-2" d="M225,315.82V497.15l-.33,8s2.16,8.33,9.83,8.33l11.67.17,78.83-3.5,37.33-7L362.13,439l.16-123-14.5-12.16-65.5-12.17-19,.17-29.83,9.33Z" transform="translate(-217.01 -283.59)"/><path class="cls-1" d="M243.46,513.32s-4.5-2.17-6.5-6a8.35,8.35,0,0,1-6.67,4.66c-3.83.34-5.5-6.83-5.5-8.16s.17-6.67.17-6.67a7,7,0,0,1,5.67-2.5c3.66.17,6.33,3.83,6.33,3.83s1.5-3.83,3-4.83c0,0-6.17-2.34-6.17-10.67s9.17-11,14.5-8,5.67,7.67,5.67,7.67a12.82,12.82,0,0,1,8.83-3.5c5.84-.17,10.84,3.33,11.5,9.5a17.47,17.47,0,0,1,11.17.83c6,2.5,5.5,13.17,4.5,15.84s5.5,5,5.5,5L296,514l-48-.16Z" transform="translate(-217.01 -283.59)"/><path class="cls-1" d="M297,458s-2-9.17,2.67-15,12.83-4.66,12.83-4.66a11.61,11.61,0,0,1,6.33-9.5,20.4,20.4,0,0,1,12.5-2.34l10.17,5.34s.5,4.5-.5,6.5c0,0,7-1,12.5,6s2.67,12.66,1.67,14.83-4,6.33-10.84,5.33a7.37,7.37,0,0,1-6.33,6c-5.5.67-9-4.16-9-5.33,0,0,.33,7.5-10.17,6.5S297,458,297,458Z" transform="translate(-217.01 -283.59)"/><path class="cls-1" d="M308.29,362.65s-4.66,1.33-7.83-2.17-3-9.66,3-11.66c0,0-1.33-4.67,1-8.34s9.34-3.83,11.5-2,3.67,5.67,3.67,5.67a16.51,16.51,0,0,1,9-6.5c5.83-1.5,15.5-1,19.5,10.67a11.94,11.94,0,0,1,8.33-.5,11.77,11.77,0,0,1,6,4.83v14.67l-17.17,12-16.16,6.33-2.84-1.17s-5.16-1.66-7.5-5l-.5,1.17s.67,6-1.83,10.33l-.67,2.67-16.33-14.5s2.17-8,12.83-6.17C312.29,373,306.63,367.82,308.29,362.65Z" transform="translate(-217.01 -283.59)"/><path class="cls-3" d="M244.63,342.32a11.68,11.68,0,0,1,6.16-8.34c5.5-2.83,13.67-1.33,18.5,3.17s10.17,15.83,10.34,16.33,12.5,17,16.16,20.84,17.34,15.83,19.67,18.16,9,8.17,9,8.17a36.16,36.16,0,0,0,12.67,7.67c8.16,3,25,6.83,25,6.83V439s-25.34-2.5-44.34-23.16l-8.66.66H296.29l-9.83-5.33L273,406l-5.17-7.16-6-8-4.16-13-3-23.5Z" transform="translate(-217.01 -283.59)"/><path class="cls-4" d="M245.63,342.15S272.46,336,271.13,366c0,0-7.17,1.34-9.67,6.5s.5,18.5,11,28.34,25.67,12.66,29.83,14.16c0,0,10.67.83,14,1,0,0,.5.67-1.16,1s-10.84.84-10.84.84a5.43,5.43,0,0,1,1,4c-.5,2-1.66,2.66-3.16,2.5a55.84,55.84,0,0,0-6.84-.5c-.66.16-2.5-1.34-2-2.34S282,414.15,282,414.15a71.79,71.79,0,0,1-19.83-14.5c-8.67-9.33-10.83-25.83-10-33.83a60.11,60.11,0,0,0-2.84-8c-1.33-2.67-3-6-3.33-6.84,0,0-5.16-1.83-6.83-2.33a19.78,19.78,0,0,0-7,0c-1.17.33-.17-1.17,2-3s5.83-3.17,10.5-3.33Z" transform="translate(-217.01 -283.59)"/><path class="cls-1" d="M225,315.82s19.84,1.33,22.17,1.16,6.5-.5,7.16-5-5.16-6.5-5.16-6.5a59.72,59.72,0,0,0,9.5-1.83c4.5-1.33,7.66-2.83,8.16-6.33s-1.66-5.17-3.5-5.5h-30s-8.5,1.16-8.5,9Z" transform="translate(-217.01 -283.59)"/><path class="cls-1" d="M274.63,291.65a11.46,11.46,0,0,0-1.84,5.33c-.33,3.34,2.84,9.17,14.34,7.67,0,0-.5,5.67,10.66,9.17s26.84,2.16,30,1.66c0,0,2.17,4.17,12.17,5s20.17-.66,22.33-2v-18s-1.83-8.83-10.16-9Z" transform="translate(-217.01 -283.59)"/><path class="cls-1" d="M289.13,333.48a8,8,0,0,0-7.84,2.84c-3.16,4-.33,9.83,5,10.83s9.17-5.5,9.17-5.5,6.33-.5,8.67-5.33-1.67-9.67-5.84-10.17S289.3,328.32,289.13,333.48Z" transform="translate(-217.01 -283.59)"/><path class="cls-1" d="M277.46,349.15s6.67-3.5,9.83,2.33-1,10.84-1,10.84S279,352.65,277.46,349.15Z" transform="translate(-217.01 -283.59)"/><path class="cls-4" d="M327.79,367.65s-1.33-4.5,3.67-6.67,8.5,1.17,7.83,3.34c0,0-3.49,1.33-4.33,4.5C335,368.82,329.46,366.65,327.79,367.65Z" transform="translate(-217.01 -283.59)"/><path class="cls-4" d="M322.46,456.32a4.17,4.17,0,0,1,1.83-3.67c2-1.17,7.17-.33,8.84,3,0,0-3.34,2.17-4,4.5C329.13,460.15,326,456.32,322.46,456.32Z" transform="translate(-217.01 -283.59)"/><path class="cls-4" d="M257.29,508.65a7.1,7.1,0,0,1,3.84-4.5c3.33-1.5,8.83-.84,10,3.33,0,0-5.17,2.67-7,6.17h-1S262.63,509.65,257.29,508.65Z" transform="translate(-217.01 -283.59)"/><path class="cls-1" d="M337,390.82s-2,3.66-.67,9.5,7.67,7.16,14,6.16,9.84-4.66,9.17-13.5-7.67-9.16-11.67-9.33S337,390.82,337,390.82Z" transform="translate(-217.01 -283.59)"/><path class="cls-1" d="M352.13,467.48s-6.5-.5-8.5,4.17.17,10,6.33,10.67,7.67-2.67,8.33-6.67A6.89,6.89,0,0,0,352.13,467.48Z" transform="translate(-217.01 -283.59)"/><path class="cls-1" d="M310.13,496.82a12.67,12.67,0,0,0-9.84-1.5c-5.5,1.5-5.5,6.33-4.83,8.66a18.69,18.69,0,0,0,3,5.67c.5.5,4,2.67,4.67,2.67s8.66.83,8.66.83,5-3.5,5-4.83-1.16-7.67-1.16-7.67Z" transform="translate(-217.01 -283.59)"/><path class="cls-1" d="M224.79,454.82s1.67-2.34,6.17-.17a9.84,9.84,0,0,1,5.17,7l-2,4.17s-3.5,5.66-9.34,3.83Z" transform="translate(-217.01 -283.59)"/><path class="cls-1" d="M231,431.48a7.66,7.66,0,0,1,4.67-5.5c4.16-1.83,7.66.67,8.83,4.34s.67,8.49-4.5,9.16S229.79,437.15,231,431.48Z" transform="translate(-217.01 -283.59)"/><path d="M234.72,290.94a10.64,10.64,0,0,0-10.63,10.63V503.73a10.64,10.64,0,0,0,10.63,10.63H352.37A10.64,10.64,0,0,0,363,503.73V301.57a10.64,10.64,0,0,0-10.63-10.63ZM225.5,503.73V301.57a9.23,9.23,0,0,1,9.22-9.21H352.37a9.23,9.23,0,0,1,9.22,9.21V503.73a9.23,9.23,0,0,1-9.22,9.21H234.72A9.23,9.23,0,0,1,225.5,503.73Z" transform="translate(-217.01 -283.59)"/><path d="M249.86,333.72c-3.3,2-5.72,5.44-6,8.61a10.56,10.56,0,0,0-.05,1.13c0,6.21,4.37,13.89,4.89,14.8a15.76,15.76,0,0,1,2.69,9.08c0,.41,0,.83,0,1.27s-.05,1.25-.05,2c0,10.71,3.85,37.46,40.57,47.47a5.34,5.34,0,0,1,2.51,1.3.12.12,0,0,1,0,.09.8.8,0,0,1-.11.32,2.44,2.44,0,0,1-1.5,1.15,39,39,0,0,0-12,1.78,24.9,24.9,0,0,0-8.52-1.78c-5.22-.17-8.82,2.6-10,4.51-1.32,2.2-1.56,3-1.1,3.49a.94.94,0,0,0,1.14.2l.68-.46c1.25-1,4.54-3.57,13.95-1.69a5.73,5.73,0,0,1,2.26,2.53,27.58,27.58,0,0,0,1.55,4,1.22,1.22,0,0,0,1.28.64,2.81,2.81,0,0,0,2.21-2.12,9.49,9.49,0,0,0,.16-2c0-1,0-2.37.48-2.81.77-.75,8.85-2.95,13.57-2.3,4.93.68,6.56.19,7.59-2.26.95-2.3-2.58-6.44-3.3-7.25l-1.05,1c1.49,1.68,3.49,4.67,3,5.75-.6,1.44-1.11,2.09-6.08,1.41s-13.56,1.49-14.77,2.7c-.84.84-.87,2.34-.9,3.79a8.8,8.8,0,0,1-.12,1.7,1.37,1.37,0,0,1-.92,1,24.76,24.76,0,0,1-1.38-3.55c-.57-1.9-2.88-3.34-3-3.4l-.11-.06-.12,0c-8.37-1.7-12.34,0-14.26,1.23l.39-.67c.93-1.56,4.13-4,8.7-3.82a23.17,23.17,0,0,1,8.22,1.76l.27.13.28-.1a37,37,0,0,1,11.75-1.79,3.71,3.71,0,0,0,2.75-1.9,1.75,1.75,0,0,0,0-1.87c-.79-1.19-3.07-1.81-3.33-1.88-38.25-10.43-39.88-39.4-39.47-48a17.44,17.44,0,0,0-2.84-11.14c-1.95-3.33-5.12-10.26-4.66-15.07a10.71,10.71,0,0,1,5.34-7.53c2.5-1.5,6.69-2.79,12.43-.39,6.82,2.86,8.52,5.86,11.9,11.85a124.08,124.08,0,0,0,7.8,12.41c10,14,14.39,17.88,22.31,24.92l3.29,2.95c2.93,2.64,5.44,5.13,7.87,7.55,5.71,5.68,10.64,10.59,17.81,13.81,10,4.49,27.49,7.77,27.67,7.8l.25-1.39c-.17,0-17.53-3.28-27.33-7.7-6.94-3.12-11.79-7.94-17.4-13.53-2.44-2.42-5-4.93-7.92-7.6l-3.3-2.94c-7.84-7-12.16-10.83-22.1-24.69a124.75,124.75,0,0,1-7.72-12.29c-3.43-6.07-5.32-9.41-12.58-12.46C258.67,331.19,253.8,331.36,249.86,333.72Z" transform="translate(-217.01 -283.59)"/><path d="M304,417.11l-.06,1.41c.48,0,11.93.47,18.68-2.9l-.63-1.27C315.55,417.56,304.11,417.11,304,417.11Z" transform="translate(-217.01 -283.59)"/><path d="M331.72,411.23c.38.26,9.55,6.47,30.46,9.79l.23-1.4c-20.56-3.27-29.79-9.49-29.88-9.55Z" transform="translate(-217.01 -283.59)"/><path d="M328.81,413.83c.37.35,9.43,8.69,33.21,12.35l.22-1.4c-23.29-3.58-32.37-11.9-32.46-12Z" transform="translate(-217.01 -283.59)"/><path d="M324,414.5c.34.58,8.52,14.18,38,17.69l.17-1.41c-28.73-3.41-36.89-16.85-37-17Z" transform="translate(-217.01 -283.59)"/><path d="M317.75,417.1c.13.16,13.51,16.1,44.39,22.91l.31-1.39c-30.37-6.69-43.48-22.27-43.61-22.42Z" transform="translate(-217.01 -283.59)"/><path d="M265.94,346c4.33,6.9,5.28,12.31,5.28,15.73a13.32,13.32,0,0,1-.48,3.82c-3.41,1-7.43,2.52-9.29,5.45a12.56,12.56,0,0,0-1.25,6.23c0,5.65,2.07,13.87,9.08,21.38,10.58,11.34,28.22,18.23,46,18s20.33-8.42,20.43-8.77l-1.37-.39c0,.08-2.42,7.5-19.07,7.74-17.42.25-34.66-6.47-45-17.52-10.61-11.37-9-23.75-7.67-25.89,1.69-2.65,5.86-4.1,8.85-4.95l.33-.09.13-.32c.14-.33,3.3-8.23-4.8-21.15Z" transform="translate(-217.01 -283.59)"/><path d="M229.09,348.69a.69.69,0,0,0-.05.85.71.71,0,0,0,.82.28,20.5,20.5,0,0,1,15.74,2.27l.72-1.22a22,22,0,0,0-14.39-2.93c5.19-4.29,12.58-4.83,12.66-4.83l-.09-1.42C244.1,341.72,234.56,342.37,229.09,348.69Z" transform="translate(-217.01 -283.59)"/><path d="M231,347.49l.51,1.32a29.85,29.85,0,0,1,13.14-1.46l.21-1.4A30.52,30.52,0,0,0,231,347.49Z" transform="translate(-217.01 -283.59)"/><path d="M278.89,374.57a.71.71,0,0,0-.18,1c.16.22,3.92,5.56,14.66,9.76a.71.71,0,0,0,.52-1.32c-10.3-4-14-9.19-14-9.24A.7.7,0,0,0,278.89,374.57Z" transform="translate(-217.01 -283.59)"/><path d="M275.21,377.91a.71.71,0,0,0-.15,1A37.32,37.32,0,0,0,289.69,390a.71.71,0,0,0,.93-.39.71.71,0,0,0-.39-.92,36.66,36.66,0,0,1-14-10.6A.72.72,0,0,0,275.21,377.91Z" transform="translate(-217.01 -283.59)"/><path d="M273.11,380.8a.71.71,0,0,0-.5.86c.07.27,1.86,6.7,11.37,11.46a.71.71,0,1,0,.63-1.27C275.72,387.4,274,381.36,274,381.3A.71.71,0,0,0,273.11,380.8Z" transform="translate(-217.01 -283.59)"/><path d="M268.33,380a.72.72,0,0,0-.57.83c.09.45,2.21,11.07,14.69,18.15a.71.71,0,0,0,.69-1.23c-11.87-6.74-14-17.08-14-17.18A.72.72,0,0,0,268.33,380Z" transform="translate(-217.01 -283.59)"/><path d="M298.88,387.91a.72.72,0,0,0,.18,1A30.75,30.75,0,0,0,309.65,393a.71.71,0,1,0,.29-1.39,29.37,29.37,0,0,1-10.07-3.89A.72.72,0,0,0,298.88,387.91Z" transform="translate(-217.01 -283.59)"/><path d="M297.24,392.38a.7.7,0,0,0,.12,1c.23.18,5.82,4.49,16.61,4.32a.71.71,0,1,0,0-1.42c-10.25.16-15.66-4-15.72-4A.7.7,0,0,0,297.24,392.38Z" transform="translate(-217.01 -283.59)"/><path d="M295.56,397.22a.71.71,0,0,0,.14,1c.29.23,7.34,5.48,19.95,5.15a.71.71,0,0,0,0-1.42c-12.07.32-19-4.8-19.05-4.86A.73.73,0,0,0,295.56,397.22Z" transform="translate(-217.01 -283.59)"/><path d="M288,398.94a.71.71,0,0,0-.08,1c.32.38,8.14,9.25,30.87,9.25a.71.71,0,1,0,0-1.42c-22,0-29.71-8.66-29.79-8.75A.72.72,0,0,0,288,398.94Z" transform="translate(-217.01 -283.59)"/><path class="cls-1" d="M256.42,347.15a3.28,3.28,0,0,1,3.12-2.83,3.51,3.51,0,0,1,3.67,3.41,3,3,0,0,1-3.42,3A3.23,3.23,0,0,1,256.42,347.15Z" transform="translate(-217.01 -283.59)"/><path d="M258.29,345.52s-1.75.13-1.87,1.63a2.06,2.06,0,0,0,4.12,0A2.4,2.4,0,0,0,258.29,345.52Z" transform="translate(-217.01 -283.59)"/><path d="M314.46,391.32S345,373,362.29,364.65v12S337.8,390.15,325,401C325,401,317.63,395.48,314.46,391.32Z" transform="translate(-217.01 -283.59)"/><path d="M281.63,413.82l-10,7.66a54.56,54.56,0,0,1,9.16,2,28.56,28.56,0,0,1,12-1.83,4.22,4.22,0,0,0,2.17-2c.5-1.33-.5-1.5-2.33-2S283.13,414.48,281.63,413.82Z" transform="translate(-217.01 -283.59)"/><path d="M275.79,443.48c-1.68-1.11-1.66-2-1.66-2l19.66-17.16s-6.33.66-9.33,2.33a3.82,3.82,0,0,0-.83,2.17c-.17,1.5,0,5-1.67,4.33s-1.67-3.33-1.67-3.33-1.5-2.84-3-3.5-8.66-1.84-12.83.83l-7.5,5.17s-.5-1.17-4.5-1.84-5.67,3.84-5.67,6.17,2.34,4,2.34,5.17a4.52,4.52,0,0,1-.5,2.5c-.5,1.16-1.84,3.83-1.67,6.33a4.42,4.42,0,0,0,3.5,3.83c1,.17,1.83,0,2.33.67s1.5,3.5,2.5,5.17,3,1.16,4.17,1.16,2.34-.16,3.17.67,2.17,3.33,3,4.17,2.83,3.16,3.66,3.5,5.67.83,7.84,1.5,4.16,4,5.66,4.83,2.67,2.67,4,3.17,3.67.16,4.5.5,3,2.66,4.17,3,3.33-.84,4.83.16,4.67,3,5.5,4.5,2.17,7.5,2.67,8.67,3.5,5.5,2.17,9.83-5.17,4.5-8.5,3.5-6-2.33-6.67-2.5-6.17-2.83-6.17-2.83-4,4.33-6.66,5.5l1,1.67a7.42,7.42,0,0,1,9.83,2.33l58.33.17s10,1.16,10.5-11.17c0,0-10.33-8.83-13.66-11.33s-34.67-24-35.84-24.67S281.63,447.31,275.79,443.48Z" transform="translate(-217.01 -283.59)"/><path d="M236.65,425.12h0c-.22.06-5.42,1.49-6.34,5.53a8.3,8.3,0,0,0,1.76,6.91,8.11,8.11,0,0,0,7,2.79,6.84,6.84,0,0,0,5-2.07c1.8-2.08,1.49-5.27,1.29-7.38a6.1,6.1,0,0,0-2.63-4.3A7.84,7.84,0,0,0,236.65,425.12Zm5.21,2.63a4.71,4.71,0,0,1,2.06,3.3c.24,2.47.34,4.82-.95,6.32a5.45,5.45,0,0,1-4.05,1.57,6.73,6.73,0,0,1-5.8-2.28,7,7,0,0,1-1.61-4.4,6.14,6.14,0,0,1,.14-1.29c.72-3.15,5.13-4.41,5.3-4.46A6.51,6.51,0,0,1,241.86,427.75Z" transform="translate(-217.01 -283.59)"/><path d="M224.18,454.43l.9,1.1a4.62,4.62,0,0,1,5.49,0,8.24,8.24,0,0,1,3.4,5.54,6.55,6.55,0,0,1-1.39,5.25c-2.86,3.46-7.46,2.76-7.5,2.76l-.24,1.39c.23,0,5.45.86,8.83-3.24a8,8,0,0,0,1.7-6.36,9.66,9.66,0,0,0-4-6.52A6.06,6.06,0,0,0,224.18,454.43Z" transform="translate(-217.01 -283.59)"/><path d="M229.91,469.09l1.11-.88c-.06-.07-5.06-6.47-2.55-13.83l-1.35-.46C224.36,462,229.68,468.81,229.91,469.09Z" transform="translate(-217.01 -283.59)"/><rect x="224.69" y="461.94" width="2.54" height="1.42" transform="translate(-381.05 -157.1) rotate(-23.21)"/><path d="M301.5,494.43c-3.33.55-5.77,2.36-6.55,4.84-1.78,5.71,2.53,9.58,2.71,9.74l.94-1.06a8.18,8.18,0,0,1-2.3-8.26c.62-2,2.65-3.4,5.43-3.86,3.27-.55,6.56.44,8,2.4l1.15-.83C308.83,494.61,304.69,493.9,301.5,494.43Z" transform="translate(-217.01 -283.59)"/><path d="M255.8,480.94c-3.26,2.22-5.45,5.55-5.76,8.51-2.21,0-10.36.73-13.08,8.29a15.85,15.85,0,0,0-1,5.38,12.11,12.11,0,0,0,1.79,6.46,9.92,9.92,0,0,0,7.28,4.77l.16-1.41a8.5,8.5,0,0,1-6.24-4.11c-1.84-2.95-2.07-6.72-.67-10.61,2.78-7.73,11.91-7.38,12.29-7.36l.75,0v-.74c0-2.63,2.16-5.93,5.26-8a10.79,10.79,0,0,1,10.1-1.48c7.33,2.9,6.76,7.7,6.73,7.91l-.14,1,1-.22c3.27-.73,13-1.3,14.83,5.33,1.73,6.3-.27,10.63-.29,10.67l1.28.62c.09-.2,2.26-4.82.38-11.67-1.8-6.52-10.19-7.42-15.64-6.47-.09-1.82-1.07-5.9-7.62-8.5A12.22,12.22,0,0,0,255.8,480.94Z" transform="translate(-217.01 -283.59)"/><path d="M255.61,507.94c-7.49.17-10.16,5-10.27,5.21l1.24.67c.1-.18,2.43-4.31,9.07-4.46,6.36-.15,6.76,4.31,6.77,4.5l1.42-.09C263.83,513.71,263.37,507.76,255.61,507.94Z" transform="translate(-217.01 -283.59)"/><path d="M263.5,513.33l1.26.64a11,11,0,0,1,9.68-5.61c3.64.08,5.64,1.47,6.68,2.62a4.69,4.69,0,0,1,1.31,2.55l1.39.26a5.07,5.07,0,0,0-1.34-3.4c-1.22-1.52-3.59-3.35-8-3.45A12.36,12.36,0,0,0,263.5,513.33Z" transform="translate(-217.01 -283.59)"/><path d="M250.61,505.12a.73.73,0,0,0,.49.88l4.17,1.16a.71.71,0,1,0,.38-1.36l-4.16-1.17A.73.73,0,0,0,250.61,505.12Z" transform="translate(-217.01 -283.59)"/><path d="M252.34,502.32a.69.69,0,0,0,.29.95l2.83,1.5a.7.7,0,0,0,1-.29.72.72,0,0,0-.29-1l-2.84-1.5A.7.7,0,0,0,252.34,502.32Z" transform="translate(-217.01 -283.59)"/><path d="M255.17,498.94a.71.71,0,0,0-.09,1l2.5,3a.71.71,0,1,0,1.09-.91l-2.5-3A.71.71,0,0,0,255.17,498.94Z" transform="translate(-217.01 -283.59)"/><path d="M258.07,497.14a.72.72,0,0,0-.45.9l1.17,3.5a.71.71,0,1,0,1.34-.45l-1.16-3.5A.72.72,0,0,0,258.07,497.14Z" transform="translate(-217.01 -283.59)"/><path d="M261.19,496.78a.72.72,0,0,0-.6.81l.5,3.33a.71.71,0,0,0,1.41-.21l-.5-3.33A.71.71,0,0,0,261.19,496.78Z" transform="translate(-217.01 -283.59)"/><path d="M265.09,496.77a.71.71,0,0,0-.67.75l.17,3.33a.71.71,0,0,0,1.41-.07l-.16-3.33A.72.72,0,0,0,265.09,496.77Z" transform="translate(-217.01 -283.59)"/><path d="M267.09,497.65v3a.71.71,0,1,0,1.41,0v-3a.71.71,0,1,0-1.41,0Z" transform="translate(-217.01 -283.59)"/><path d="M271.08,498.7l-2.17,2.67a.71.71,0,1,0,1.1.89l2.17-2.66a.71.71,0,1,0-1.1-.9Z" transform="translate(-217.01 -283.59)"/><path d="M273.91,501.22l-2.83,1.83a.71.71,0,0,0,.77,1.19l2.83-1.83a.71.71,0,1,0-.77-1.19Z" transform="translate(-217.01 -283.59)"/><path d="M276.25,504.61l-2.67.16a.71.71,0,0,0,.09,1.42l2.67-.17a.71.71,0,0,0-.09-1.41Z" transform="translate(-217.01 -283.59)"/><path d="M236.44,476.12a9.31,9.31,0,0,0-3.35,7.91,12.9,12.9,0,0,0,6.55,10.42.71.71,0,0,0,1-.32.7.7,0,0,0-.31-.95,11.48,11.48,0,0,1-5.78-9.25,7.94,7.94,0,0,1,2.86-6.73,10.33,10.33,0,0,1,8.77-2.2c5.33,1.26,7.27,5.57,7.12,7.6a.71.71,0,1,0,1.42.1c.17-2.45-2.06-7.63-8.21-9.07A11.77,11.77,0,0,0,236.44,476.12Z" transform="translate(-217.01 -283.59)"/><path d="M234.51,488.79a.72.72,0,0,0,.26,1,.71.71,0,0,0,1-.26c0-.07,4.35-7.12,18.2-6.64a.71.71,0,0,0,.73-.69.7.7,0,0,0-.68-.73C239.23,480.93,234.7,488.47,234.51,488.79Z" transform="translate(-217.01 -283.59)"/><path d="M239.79,474.48a.72.72,0,0,0,0,1,14.66,14.66,0,0,1,3.8,7.91.71.71,0,0,0,1.41-.15,15.92,15.92,0,0,0-4.2-8.76A.71.71,0,0,0,239.79,474.48Z" transform="translate(-217.01 -283.59)"/><path d="M224.6,496.68a.71.71,0,1,0,1.06.94,7.21,7.21,0,0,1,6.05-2.1,5.36,5.36,0,0,1,4.57,3.65.69.69,0,0,0,.87.49.71.71,0,0,0,.5-.87,6.78,6.78,0,0,0-5.77-4.68A8.67,8.67,0,0,0,224.6,496.68Z" transform="translate(-217.01 -283.59)"/><path d="M236.43,506.51c0,.18-1,4.46-6.84,4.76a.71.71,0,0,0-.67.75.71.71,0,0,0,.74.67c7-.36,8.15-5.85,8.16-5.9a.7.7,0,0,0-.55-.83A.71.71,0,0,0,236.43,506.51Z" transform="translate(-217.01 -283.59)"/><path d="M236.46,477a23.81,23.81,0,0,0-11.67-4.83L225,476s5.5,1,9,4.34Z" transform="translate(-217.01 -283.59)"/><path d="M238.46,475.15s-4.33-7.34-5-8.67a6.5,6.5,0,0,0,.83-7.16,11.22,11.22,0,0,0-5.83-5.5s-2.5-9.5-3.33-15.67-.17-38.33-.17-38.33a7.06,7.06,0,0,1,2.5,4.16c.33,2.5,0,23.84.33,25.34s2.67,1.66,2.67,1.66l1,4.67-2.67-.5s4.51,20.5,15.34,38.5C244.13,473.65,240.13,473.82,238.46,475.15Z" transform="translate(-217.01 -283.59)"/><path d="M315,458.49a8.81,8.81,0,0,0-1.62,9.82l1.26-.65a7.28,7.28,0,0,1,1.38-8.19,8.19,8.19,0,0,1,7.49-2.3,5.89,5.89,0,0,1,4.51,3.56,8.66,8.66,0,0,1-1.91,8.39c-1.31,1.4-3.65,2.83-7.39,1.68l-.42,1.36c3.47,1.06,6.61.33,8.85-2.07a10.14,10.14,0,0,0,2.19-9.86,7.25,7.25,0,0,0-5.55-4.45A9.62,9.62,0,0,0,315,458.49Z" transform="translate(-217.01 -283.59)"/><path d="M336.39,454.44c-7.33.72-8,6.58-8,6.64l1.41.14c0-.2.56-4.77,6.7-5.37a5.91,5.91,0,0,1,4.87,1.37c1.66,1.6,2.13,4.35,2,6.39-.13,2.39-2.1,6-7,6.16-4.5.15-6.48-4.55-6.62-5.26l-1.39.28c.21,1,2.57,6.58,8.06,6.4,5.21-.17,8.15-3.91,8.35-7.5.06-1.15.07-5.07-2.46-7.49A7.25,7.25,0,0,0,336.39,454.44Z" transform="translate(-217.01 -283.59)"/><path d="M351.46,466.77h0Zm-9,8c0,.17,0,.34,0,.51a7.16,7.16,0,0,0,2.2,5.5c3.06,2.83,8.05,2.3,8.61,2.23,3.28-.41,5.62-3.81,5.95-8.66,0-.15,0-.31,0-.46a6.25,6.25,0,0,0-1.74-4.34,9.21,9.21,0,0,0-6-2.79C351.19,466.77,342.77,466.86,342.42,474.78Zm3.15,5a5.94,5.94,0,0,1-1.73-4.9c.29-6.64,7.32-6.66,7.62-6.66h0a7.87,7.87,0,0,1,5,2.33,4.81,4.81,0,0,1,1.34,3.75c-.28,4.07-2.17,7-4.71,7.34C351.26,481.84,347.68,481.69,345.57,479.75Z" transform="translate(-217.01 -283.59)"/><path d="M314.89,431.1a11,11,0,0,0-2.94,6.72,13.61,13.61,0,0,0-13.24,5.94c-5.17,7.74-2,14.42-1.89,14.7l1.28-.62c-.12-.25-2.91-6.25,1.78-13.3a12.13,12.13,0,0,1,12.58-5.2l.94.22-.06-1A9.61,9.61,0,0,1,316,432c2.85-3.09,7.68-4.72,14.35-4.84l0-1.42C323.19,425.9,318,427.69,314.89,431.1Z" transform="translate(-217.01 -283.59)"/><path d="M340.61,432.67a7.51,7.51,0,0,1-.76,5.29l-.8,1.35,1.55-.3c.32-.06,7.93-1.42,13.42,8,2.57,4.41,2.58,9.19,0,12.79a9.68,9.68,0,0,1-9.79,4l-.27,1.39a11.08,11.08,0,0,0,11.22-4.56c2.88-4.07,2.89-9.42,0-14.33-4.65-8-10.94-8.81-13.61-8.77a8.82,8.82,0,0,0,.58-3.18,8.42,8.42,0,0,0-.23-2Z" transform="translate(-217.01 -283.59)"/><path d="M315.15,453.53a.7.7,0,0,0,.36.93l5.33,2.34a.72.72,0,0,0,.94-.37.71.71,0,0,0-.37-.93l-5.33-2.33A.7.7,0,0,0,315.15,453.53Z" transform="translate(-217.01 -283.59)"/><path d="M316.61,451.29a.71.71,0,0,0,.49.87l3.5,1a.71.71,0,1,0,.39-1.36l-3.5-1A.71.71,0,0,0,316.61,451.29Z" transform="translate(-217.01 -283.59)"/><path d="M318.69,447.92a.71.71,0,0,0-.12,1l2.5,3.17a.72.72,0,0,0,1,.12.71.71,0,0,0,.11-1l-2.5-3.17A.71.71,0,0,0,318.69,447.92Z" transform="translate(-217.01 -283.59)"/><path d="M322,446a.7.7,0,0,0-.53.85l.83,3.66a.72.72,0,0,0,.85.54.71.71,0,0,0,.53-.85l-.83-3.67A.71.71,0,0,0,322,446Z" transform="translate(-217.01 -283.59)"/><path d="M325.09,445.15v5a.71.71,0,1,0,1.41,0v-5a.71.71,0,1,0-1.41,0Z" transform="translate(-217.01 -283.59)"/><path d="M328.93,446.37l-.67,4.17a.71.71,0,1,0,1.4.22l.67-4.17a.71.71,0,1,0-1.4-.22Z" transform="translate(-217.01 -283.59)"/><path d="M334,446.43l-3.17,4.83a.71.71,0,1,0,1.18.78l3.17-4.84a.7.7,0,1,0-1.18-.77Z" transform="translate(-217.01 -283.59)"/><path d="M337.39,448.9l-4.33,3a.71.71,0,0,0-.18,1,.7.7,0,0,0,1,.18l4.33-3a.71.71,0,0,0,.18-1A.72.72,0,0,0,337.39,448.9Z" transform="translate(-217.01 -283.59)"/><path d="M339,453l-3.84.5a.71.71,0,1,0,.19,1.4l3.83-.5A.71.71,0,0,0,339,453Z" transform="translate(-217.01 -283.59)"/><path d="M348.25,382.94a.71.71,0,0,0-.66.75.71.71,0,0,0,.75.67,9.28,9.28,0,0,1,9.24,5.53c2.07,4.25,1.66,9.49-1,12.45s-7.14,4.41-11.59,3.8c-3.46-.48-6.1-2.11-7.24-4.47a10.51,10.51,0,0,1,.28-10.29.71.71,0,0,0-1.17-.8,12,12,0,0,0-.39,11.71c1.36,2.8,4.39,4.71,8.33,5.25,4.9.68,9.94-1,12.84-4.25s3.5-9.28,1.2-14A10.68,10.68,0,0,0,348.25,382.94Z" transform="translate(-217.01 -283.59)"/><path d="M347.9,383.71c-.1.13-2.44,3.2-4,9.61s2.57,13.72,2.74,14a.71.71,0,0,0,1.23-.71c0-.07-4-7-2.59-13s3.68-9,3.7-9.07a.71.71,0,0,0-1.12-.87Z" transform="translate(-217.01 -283.59)"/><path d="M344,395.68a.71.71,0,0,0,.63,1.27,20.75,20.75,0,0,1,14.63-.46.71.71,0,0,0,.45-1.35A21.79,21.79,0,0,0,344,395.68Z" transform="translate(-217.01 -283.59)"/><path d="M336.09,365.93a7.1,7.1,0,0,0-2,6.72,6.79,6.79,0,0,0,6.35,5.37.7.7,0,0,0,.71-.7.71.71,0,0,0-.71-.71,5.3,5.3,0,0,1-5-4.29,5.65,5.65,0,0,1,1.61-5.39,6.48,6.48,0,0,1,6-1.76,5.76,5.76,0,0,1,3.81,2.6,6.4,6.4,0,0,1,.51,4.86.7.7,0,1,0,1.36.37,7.7,7.7,0,0,0-.65-5.95,7.23,7.23,0,0,0-4.7-3.26A7.9,7.9,0,0,0,336.09,365.93Z" transform="translate(-217.01 -283.59)"/><path d="M322.21,369.51a10.77,10.77,0,0,0-3.78,9.61c1.1,5.48,8.68,5.89,9,5.9a.71.71,0,0,0,.07-1.41c-.07,0-6.8-.37-7.68-4.77a9.4,9.4,0,0,1,3.3-8.25c2-1.71,5.64-3.29,11.42-1.11a.71.71,0,1,0,.5-1.33C330,366.26,325.46,366.74,322.21,369.51Z" transform="translate(-217.01 -283.59)"/><path d="M299.14,377.88l1.31.54c.09-.21,2.27-5.2,9.31-4.9a8.18,8.18,0,0,1,6.95,4.71,11.83,11.83,0,0,1-.68,11.7l1.19.77a13.28,13.28,0,0,0,.76-13.11,9.56,9.56,0,0,0-8.15-5.48C301.75,371.76,299.16,377.82,299.14,377.88Z" transform="translate(-217.01 -283.59)"/><path d="M316,391.64l1-1c-8.49-8.82-8.3-17.57-8.3-17.65l-1.42-.05C307.24,373.34,307,382.36,316,391.64Z" transform="translate(-217.01 -283.59)"/><rect x="306.18" y="382.11" width="3.9" height="1.42" transform="translate(-329.28 -155.25) rotate(-19.98)"/><path d="M331.23,336.78c-4.51.4-8,2.09-10.39,5-3,3.72-3.48,8.44-3.48,10.8,0,.29,0,.49,0,.71a10.38,10.38,0,0,0-9.42,7.12,12.6,12.6,0,0,0-.69,4,12.12,12.12,0,0,0,5,9.45l.78-1.19a10.23,10.23,0,0,1-3.72-11.85,9,9,0,0,1,8.8-6.18l.82,0-.09-.81c0-.07-.66-6.63,3.11-11.23,2.14-2.61,5.31-4.12,9.42-4.49,14-1.26,15.83,10.08,15.9,10.56l.15,1,.9-.5c.34-.19,8.31-4.54,13.38,3.91l1.21-.73c-4.78-8-12-5.83-14.44-4.81C347.67,344.71,344.19,335.61,331.23,336.78Z" transform="translate(-217.01 -283.59)"/><path d="M325.23,365.28l-3.83.33a.71.71,0,0,0,.12,1.41l3.84-.33a.71.71,0,0,0-.13-1.41Z" transform="translate(-217.01 -283.59)"/><path d="M320.94,363.3a.72.72,0,0,0,.5.87l3.67,1a.71.71,0,1,0,.37-1.37l-3.67-1A.72.72,0,0,0,320.94,363.3Z" transform="translate(-217.01 -283.59)"/><path d="M322.52,360.45a.71.71,0,0,0,.24,1l2.5,1.5a.72.72,0,0,0,1-.24.7.7,0,0,0-.25-1l-2.5-1.5A.7.7,0,0,0,322.52,360.45Z" transform="translate(-217.01 -283.59)"/><path d="M325.28,357.36a.72.72,0,0,0-.27,1l1.5,2.67a.71.71,0,1,0,1.24-.7l-1.5-2.67A.72.72,0,0,0,325.28,357.36Z" transform="translate(-217.01 -283.59)"/><path d="M328.66,355.62a.7.7,0,0,0-.56.83l.67,3.34a.7.7,0,0,0,.83.55.71.71,0,0,0,.56-.83l-.67-3.33A.7.7,0,0,0,328.66,355.62Z" transform="translate(-217.01 -283.59)"/><path d="M331.32,354.62a.71.71,0,0,0-.55.84l.66,3.17a.71.71,0,0,0,1.39-.29l-.66-3.17A.71.71,0,0,0,331.32,354.62Z" transform="translate(-217.01 -283.59)"/><path d="M334.27,354.34l-.67,3.34A.71.71,0,1,0,335,358l.67-3.33a.71.71,0,0,0-.56-.83A.7.7,0,0,0,334.27,354.34Z" transform="translate(-217.01 -283.59)"/><path d="M337.88,354.74l-2,2.83a.72.72,0,0,0,.17,1,.71.71,0,0,0,1-.17l2-2.83a.71.71,0,1,0-1.16-.82Z" transform="translate(-217.01 -283.59)"/><path d="M339.84,356.44l-2.17,1.83a.7.7,0,0,0-.08,1,.71.71,0,0,0,1,.09l2.16-1.84a.71.71,0,0,0,.09-1A.72.72,0,0,0,339.84,356.44Z" transform="translate(-217.01 -283.59)"/><path d="M342.68,359.12l-3,.5a.7.7,0,1,0,.23,1.39l3-.5a.7.7,0,0,0-.23-1.39Z" transform="translate(-217.01 -283.59)"/><path d="M344.4,360.94l-3.83.34a.71.71,0,0,0-.65.76.72.72,0,0,0,.77.65l3.83-.34a.71.71,0,0,0,.65-.76A.72.72,0,0,0,344.4,360.94Z" transform="translate(-217.01 -283.59)"/><path d="M302,348.85a7.67,7.67,0,0,0-2,12.3,8.42,8.42,0,0,0,8.22,2.17l-.43-1.35a7,7,0,0,1-6.79-1.82,6.26,6.26,0,0,1,1.65-10,7.24,7.24,0,0,1,6.8.35,5.48,5.48,0,0,1,2.84,4.54l1.42-.05a6.88,6.88,0,0,0-3.53-5.71A8.7,8.7,0,0,0,302,348.85Z" transform="translate(-217.01 -283.59)"/><path d="M305.68,338.6a9.27,9.27,0,0,0-2.87,10.67l1.3-.57A7.7,7.7,0,0,1,314.88,339c2.46,1.22,3.94,3.37,3.87,5.6l1.42,0c.08-2.79-1.7-5.44-4.66-6.9A9.1,9.1,0,0,0,305.68,338.6Z" transform="translate(-217.01 -283.59)"/><path d="M277.14,348.68l.64,1.27c.22-.11,5.35-2.66,8.61,1.78s-.48,10.47-.52,10.53l1.18.78c.18-.28,4.4-6.81.48-12.14S277.2,348.65,277.14,348.68Z" transform="translate(-217.01 -283.59)"/><path d="M292.68,326.86a7.89,7.89,0,0,0-4.13,5.85c-1.6-.14-5.7-.1-8.17,3.54a6.61,6.61,0,0,0-.83,6.1,8.9,8.9,0,0,0,5.88,5.31,8,8,0,0,0,6.23-1,10.5,10.5,0,0,0,4.26-4.46c1.4-.1,5.71-.7,8-4.49a8.74,8.74,0,0,0,1.34-4.51,7,7,0,0,0-.26-1.93,8,8,0,0,0-4-4.88C298.77,325.16,295.36,325.36,292.68,326.86Zm-2.84,6.66a6.53,6.53,0,0,1,3.53-5.42c2.28-1.27,5.12-1.48,6.92-.5a6.67,6.67,0,0,1,3.33,4,6.82,6.82,0,0,1-.93,5.34c-2.26,3.76-7.18,3.82-7.23,3.82h-.56l-.13.54A8.63,8.63,0,0,1,291,345.4a6.61,6.61,0,0,1-5.12.9,7.48,7.48,0,0,1-4.95-4.43,5.16,5.16,0,0,1,.67-4.82c2.53-3.72,7.25-2.91,7.45-2.87l.79.14Z" transform="translate(-217.01 -283.59)"/><path d="M263.55,292.56a5.12,5.12,0,0,1,2.42,3.87c.17,1.8-.8,3.4-2.79,4.61-5.52,3.36-14.81,3.65-14.9,3.65l-.15,1.4c.06,0,5.89,1.42,5.46,5.48-.45,4.29-5.89,4.62-7.55,4.62-1.95,0-20.77-1-21-1l-.07,1.42c.77,0,19,1,21,1,4,0,8.5-1.55,9-5.89a5.63,5.63,0,0,0,0-.58c0-2.49-1.76-4.21-3.64-5.27,3.33-.36,8.67-1.27,12.52-3.62,2.82-1.71,3.49-3.79,3.49-5.41,0-.19,0-.37,0-.55a6.43,6.43,0,0,0-3.34-5.06Z" transform="translate(-217.01 -283.59)"/><path d="M273.69,301.52c3,4.81,10.45,4.24,12.76,3.93.49,2.28,3.19,8.89,18.27,10.4,18.26,1.83,23.08.61,27.09-1.05l-.53-1.31c-3.84,1.58-8.48,2.75-26.41.95-16.58-1.65-17.11-9.74-17.12-9.82l0-.81-.8.14c-.09,0-9.07,1.6-12-3.17s-.19-8-.07-8.17l-1.07-.93C273.72,291.73,270.21,295.89,273.69,301.52Z" transform="translate(-217.01 -283.59)"/><path d="M327.79,317c1.53,2.06,6.61,3.49,14.7,4.15,15.32,1.26,20-1.73,20.2-1.86l-.78-1.18c-.05,0-4.61,2.84-19.31,1.63-13.43-1.1-13.85-3.93-13.85-4l-1.4-.23A1.86,1.86,0,0,0,327.79,317Z" transform="translate(-217.01 -283.59)"/></svg>