<svg id="_2_2" xmlns="http://www.w3.org/2000/svg" viewBox="0 0 153.07 238.11"><defs><style>.cls-1{fill:#ed1c24;}.cls-2{fill:#fff;}.cls-3{fill:#ffcb05;}</style></defs><title>_2_2</title><rect class="cls-1" width="153.07" height="238.11"/><path class="cls-2" d="M232,326.5V515.17s.84,8.66,9.5,9.16l117.67-.16s9.17,0,9.83-10l.17-204.67s-1-8-10.33-9H241.48s-8.83,1.17-9.5,8.67Z" transform="translate(-223.95 -293.36)"/><path class="cls-1" d="M253.36,340.17a19.72,19.72,0,0,1-2.13-10.88c.75-6.37,7.88-11,14.25-10.62,0,0,3.63-6.13,9.88-8.25s18.25-2.25,22.5,7.62c0,0,6.87-2.37,12.37,2.38s3.38,17,3.25,17.5-1.37,4-1.37,4L309.86,344a36.83,36.83,0,0,1-10.38,8.25s2.17,20.88,4.84,32.54c0,0,2.54-5.91,10.54-6,7.5-.12,9.87,4,9.87,4s4.38-10.5,13.88-11.25,18.87,7.38,14.12,20.25c0,0,10-1.62,14.13,6.38s-.88,18.25-13,19.87c0,0,.5,7.75-8,9.13S333,424.42,333,424.42l-8.25,4.87,8.88,27.13,5.62,16.25S350,490.92,357.73,500l.5,1.38s3,2.37,2.88,8.5-5.38,10.12-11.38,9.62-16.62-6-9.5-18.5l-6.37.13a7.21,7.21,0,0,1-1.13,6.5c-2.37,3.25-8,5.37-12.12,4.62s-8.5-4.87-7.38-10.25l-10.75,1.63-2.37-16.13s-10.25-16.37-13.25-21.25c0,0,.12,6.25-5.88,7a12.25,12.25,0,0,1-9.62-2.75s-.63,5.25-5.63,6.25-11.5-1.37-12.25-7.75c0,0-11.62.38-14-9a12.34,12.34,0,0,1,4.88-13.75s-3.88-7.37.12-12.5,6-5.25,6-5.25-.87-14.12,15.5-16.5c0,0-3.75-14.62-4.12-18.5,0,0-4,4.38-8.25,5s-12.63-1.87-14.38-9.62,1.5-16.5,13.38-18.25Z" transform="translate(-223.95 -293.36)"/><path class="cls-3" d="M276.36,339.17a9.33,9.33,0,0,1,3-6.75c3.12-2.75,12.75-1.88,12.75,7.25,0,0-7,.62-8.75,4.62A9.61,9.61,0,0,0,276.36,339.17Z" transform="translate(-223.95 -293.36)"/><path class="cls-3" d="M326,407.67s.63-2.88,5.13-4.38,11.37,1.13,12.37,6.63c0,0-8.25-1.25-11.75,4.87C331.73,414.79,330,408.67,326,407.67Z" transform="translate(-223.95 -293.36)"/><path class="cls-3" d="M263.11,461.54a8,8,0,0,1,4.87-6.75c4.88-2.37,8.5,2.13,8.63,3.13,0,0-5.88,2-6,7.75l-.88-.25S267.11,461.92,263.11,461.54Z" transform="translate(-223.95 -293.36)"/><path class="cls-1" d="M232.23,310.92s1.88-3,6.75-3.38,8.5,3.25,9.13,7.75-.88,11.38-7,12.75-8.63-.62-8.88-4.12S232.23,310.92,232.23,310.92Z" transform="translate(-223.95 -293.36)"/><path class="cls-1" d="M311.82,351s-2,6,.5,10.83,11,8.5,18,5.5,10.16-11,7.16-20.33-22.5-7.83-26.5,1.5Z" transform="translate(-223.95 -293.36)"/><path class="cls-1" d="M270.36,483.54s-5.88-1.37-8.25,3.88.87,9.12,5.5,9.87,7.5-1.87,7.62-6.12S273.11,484.54,270.36,483.54Z" transform="translate(-223.95 -293.36)"/><path class="cls-1" d="M285.73,474.79s-5.5.5-6.12,5,3.62,6.38,6.62,6.25,5.63-1.87,5.5-6S288.86,474.67,285.73,474.79Z" transform="translate(-223.95 -293.36)"/><path class="cls-1" d="M264.48,507s-6.25-.25-9.25,4-1.5,10.63,2.13,13l13.25.13,4.75-2.88.62-5.12S274.36,506.92,264.48,507Z" transform="translate(-223.95 -293.36)"/><path d="M241.9,300a10.64,10.64,0,0,0-10.63,10.63V514.25a10.64,10.64,0,0,0,10.63,10.62H359.06a10.64,10.64,0,0,0,10.63-10.62V310.59A10.64,10.64,0,0,0,359.06,300Zm-9.21,214.29V310.59a9.23,9.23,0,0,1,9.21-9.22H359.06a9.23,9.23,0,0,1,9.21,9.22V514.25a9.22,9.22,0,0,1-9.21,9.21H241.9A9.22,9.22,0,0,1,232.69,514.25Z" transform="translate(-223.95 -293.36)"/><path d="M258.65,351.79H258v.7c-1,87.92,51.31,149.2,51.84,149.81l.22.25,49.75-1.38-.88-1.11c-56.18-70.64-58.49-146.81-58.51-147.58l0-.69H258.65ZM299,353.21c.34,7.52,5,79.36,57.94,146.62l-46.27,1.29c-3.59-4.28-51.3-62.92-51.3-146.16,0-.58,0-1.17,0-1.75Z" transform="translate(-223.95 -293.36)"/><path d="M294.86,406.54c-2.36-3-6.12-3-8.17-2.66a35.57,35.57,0,0,1,3.29-3.46,44,44,0,0,1,4.88-3.38c.87-.62,1.62-1.62,1.25-1.87a26.57,26.57,0,0,0-6-1.63c-1.75-.12-2.25.5-2.25.5-3.25,2.38-9,4.75-10.25,4.88s-.88-.63-.5-1.25,5-6.13,8.12-8.13,5.13-8.62,2.25-12a8,8,0,0,0-5.55-2.77,20.17,20.17,0,0,1,2.22-2.1s4.67-2.17,6.17-2.34,1.66-2.33,1-2.33-2.84-1.17-3.67-1.17a2,2,0,0,0-1.42.34c-.66.33-5.58,1.5-5.58,1.5l.17-6.5s-2.17-1.67-3.17-2.5-1.83-1-2.5-.67.17,2,.33,3.17,1.84,8.16,1.84,8.16a12.14,12.14,0,0,1-4.84,2.09,6.34,6.34,0,0,1-3.12-.38c-1-.37-1.13.25-.63.88a6.91,6.91,0,0,0,4.88,1.87,29.05,29.05,0,0,0,6.12-1s-5.25,5.88-4.75,11,5.63,5.75,5.63,5.75-3.75,4-5,5.75-2.75,3.5-2,4.88a5.09,5.09,0,0,0,5,2.37,48.27,48.27,0,0,0,6.5-2.12s-5.38,5.25-5.5,10c-.16,6,5.25,9.12,10.75,7.87S298.23,410.79,294.86,406.54Zm-16-26.75a10.42,10.42,0,0,1,1.25-2.66,3.86,3.86,0,0,1,4.75,2.54c1.37,3.62-.38,5.87-2.5,6.12S277.73,383.67,278.86,379.79ZM288.73,415a4.43,4.43,0,0,1-5.25-6,15,15,0,0,1,1.78-3.3c1.93-.36,5.75-.42,6.85,1.68C293.48,410,292.61,414.29,288.73,415Z" transform="translate(-223.95 -293.36)"/><path d="M337.86,491c-1,.13-2.13.38-4.5-1.12s-8.38-8.5-12.88-14.5a52.16,52.16,0,0,1-5-8.89c3.39-1.84,6.18-5.69,5.54-6.11s-7.87-3.25-8.5-1.25c0,.08-.06.16-.09.25-.81-2-1.5-3.76-2-5-.79-1.84-2.06-4.71-3.31-7.66a34.8,34.8,0,0,1,3.31-6.59c.25-.38.87.12,1.12-1s-2-2-4.5-1.63a15.84,15.84,0,0,0-3.18,1,19.13,19.13,0,0,1-.57-2c-.62-3.25-1.62-9-2.12-10.75-.46-1.59-5.23-4-7.88-3.77a35.8,35.8,0,0,0,2.88-8.73s-5.38,2.88-7.38,4.13-1.75,1.75.13,2,1.87.87,1.5,2.37-2.75,5.5-3.75,7.63-3.5,6.87-4,8.5,2.37,2.37,3.25,2.37,1.5.38,1.25,1-2.88,3.63-3,4.88,1.37,1.37,2.87,2.75,2.13,5.62,2.88,8.5,1.37,4.62,2.75,5.12,4.37-.37,6-1.25,2.37-3.75,2.5-5.62.25-6,.37-7.25-.75-2.5-1.25-2.25-.62,1.37-.62,1.37c-1.75,5-3.75,9.25-4.25,9.75a4.09,4.09,0,0,1-1.63.75,66.87,66.87,0,0,0-2.87-8.25,8.91,8.91,0,0,0-4-3.87c-.5-.25-.75-.88-.13-1.63a46,46,0,0,1,5.63-4.62c1.37-.88,3.62-3,3.87-3.88s-.12-1.37-.87-1.37-4.25.25-4.88.37a24.94,24.94,0,0,0-3.12,1.5c-.75.38-2.13.13-1.5-1.25s3.18-5.56,6.05-10.56c.68,0,1.68,0,2.07.69s4.1,8.86,6.67,14.83c-.49.25-.79.42-.79.42-.25.62.57,1,1.47,1.15.57,1.34,1.06,2.5,1.4,3.35s.95,2.27,1.66,3.94c-1.3,5.2-2.3,12.18-1.53,14.68.93,3,5.84,4.63,9.84,3.95.82,1.76,1.53,3.22,2,4.18,2.5,4.75,9.63,12.75,11.88,15.5s5.25,5.12,6.75,5.62a10.21,10.21,0,0,0,5.62-.37C339.73,491.92,338.86,490.92,337.86,491ZM307,463.17c-2-.5-2.62-4.13-1.5-10.75,0-.24.1-.48.14-.72,1.4,3.21,3.05,7,4.61,10.42A4.1,4.1,0,0,1,307,463.17Z" transform="translate(-223.95 -293.36)"/><path d="M269.76,340.41a7.55,7.55,0,0,0-3.47,5,8.47,8.47,0,0,0,1.86,7.46l1-1a7.07,7.07,0,0,1-1.47-6.2,6.13,6.13,0,0,1,2.84-4,10.18,10.18,0,0,1,8-.92c2.94.75,4.2,3.62,4.38,5.85.22,2.56-.76,4.71-2.49,5.48l.58,1.29c2.28-1,3.59-3.72,3.33-6.89-.3-3.54-2.44-6.33-5.44-7.11A11.63,11.63,0,0,0,269.76,340.41Z" transform="translate(-223.95 -293.36)"/><path d="M289.75,339.29a8,8,0,0,0-6.95,5.53l1.37.36a6.42,6.42,0,0,1,5.71-4.47,7.63,7.63,0,0,1,6,1.93,5.32,5.32,0,0,1,1.91,3.53c0,2.3-3.37,5.45-5.29,5.45V353c2.65,0,6.71-3.69,6.71-6.87a6.67,6.67,0,0,0-2.37-4.58A9.12,9.12,0,0,0,289.75,339.29Z" transform="translate(-223.95 -293.36)"/><path d="M280.92,308.79c-11.71,1-14.73,7.22-15.44,9.36-1.62-.31-5.71-.55-10.13,3.32-5.62,4.92-6.47,12.1-2.32,19.7s12.46,11.63,12.81,11.8l.62-1.28c-.09,0-8.27-4-12.19-11.2-3.8-7-3.07-13.51,2-18s9.29-2.92,9.47-2.86l.78.26.15-.8c.06-.32,1.62-7.82,14.36-8.92,14-1.21,15.89,7.94,15.91,8l.1,1,.9-.42c.24-.12,6-2.73,11.91,2.23,2.95,2.49,4.34,8.14,3.38,13.75-1.33,7.72-6.67,13.87-14.67,16.88l.5,1.33c8.48-3.19,14.15-9.74,15.57-18,1-6.08-.55-12.28-3.87-15.07a12.82,12.82,0,0,0-12.61-2.73C297.25,314.25,293,307.75,280.92,308.79Z" transform="translate(-223.95 -293.36)"/><path d="M269.44,337.92a.71.71,0,0,0,.63.78l3,.34a.71.71,0,0,0,.78-.63.69.69,0,0,0-.62-.78l-3-.33A.71.71,0,0,0,269.44,337.92Z" transform="translate(-223.95 -293.36)"/><path d="M269.67,335.22a.71.71,0,0,0,.36.93l3.84,1.67a.71.71,0,0,0,.93-.37.7.7,0,0,0-.37-.93l-3.83-1.67A.7.7,0,0,0,269.67,335.22Z" transform="translate(-223.95 -293.36)"/><path d="M271.43,331.56a.71.71,0,0,0,.11,1l3.17,2.5a.71.71,0,0,0,.88-1.12l-3.17-2.5A.7.7,0,0,0,271.43,331.56Z" transform="translate(-223.95 -293.36)"/><path d="M273.85,329a.72.72,0,0,0-.07,1l2.34,2.66a.7.7,0,0,0,1,.07.71.71,0,0,0,.06-1L274.85,329A.71.71,0,0,0,273.85,329Z" transform="translate(-223.95 -293.36)"/><path d="M277.61,326.49a.71.71,0,0,0-.47.88l1,3.33a.71.71,0,0,0,1.36-.4l-1-3.34A.72.72,0,0,0,277.61,326.49Z" transform="translate(-223.95 -293.36)"/><path d="M281.11,326.17v3a.71.71,0,0,0,1.41,0v-3a.71.71,0,1,0-1.41,0Z" transform="translate(-223.95 -293.36)"/><path d="M284.78,326.09l-.33,3a.69.69,0,0,0,.62.78.71.71,0,0,0,.78-.63l.34-3a.71.71,0,0,0-1.41-.15Z" transform="translate(-223.95 -293.36)"/><path d="M288.37,327.15,287,329.48a.72.72,0,0,0,.27,1,.71.71,0,0,0,1-.27l1.34-2.33a.72.72,0,0,0-.27-1A.71.71,0,0,0,288.37,327.15Z" transform="translate(-223.95 -293.36)"/><path d="M293.71,328.85l-4,1.66a.71.71,0,1,0,.55,1.31l4-1.67a.71.71,0,1,0-.55-1.3Z" transform="translate(-223.95 -293.36)"/><path d="M295.83,331.81l-3.83.83a.7.7,0,0,0-.54.84.69.69,0,0,0,.84.54l3.83-.83a.71.71,0,0,0,.55-.84A.72.72,0,0,0,295.83,331.81Z" transform="translate(-223.95 -293.36)"/><path d="M296.58,334.79l-3.33.34a.71.71,0,0,0-.64.77.72.72,0,0,0,.78.64l3.33-.34a.69.69,0,0,0,.63-.77A.71.71,0,0,0,296.58,334.79Z" transform="translate(-223.95 -293.36)"/><path d="M292.78,337.89a.71.71,0,0,0,.6.81l3.33.5a.71.71,0,1,0,.21-1.4l-3.33-.5A.71.71,0,0,0,292.78,337.89Z" transform="translate(-223.95 -293.36)"/><path d="M231.34,310.86l1.28.62c.07-.14,1.77-3.41,7.83-3.11a6.87,6.87,0,0,1,5.37,2.91,11.77,11.77,0,0,1,1.48,9.53,9.74,9.74,0,0,1-10.54,7c-3.63-.56-3.73-2.72-3.74-2.81h-1.41c0,.14,0,3.45,4.93,4.2a11.2,11.2,0,0,0,12.13-8,13.08,13.08,0,0,0-1.7-10.74,8.23,8.23,0,0,0-6.45-3.49C233.46,306.61,231.43,310.69,231.34,310.86Z" transform="translate(-223.95 -293.36)"/><path d="M231.58,320.58l.8,1.17c.29-.2,7.13-4.74,14,1.76l1-1A12.6,12.6,0,0,0,231.58,320.58Z" transform="translate(-223.95 -293.36)"/><path d="M236.11,319.24l1.41.19c0-.24.9-6,8.22-8.77l-.51-1.32C237.1,312.45,236.15,319,236.11,319.24Z" transform="translate(-223.95 -293.36)"/><path d="M312.86,347l0-.05a17.41,17.41,0,0,0-2.44,11.51,12.34,12.34,0,0,0,5.34,7.92,15.29,15.29,0,0,0,11.83,2.32,13.87,13.87,0,0,0,9.07-6.53,18.25,18.25,0,0,0,2-14.18c-1.13-4.11-5.43-7.2-10.95-7.87C322.73,339.51,316.2,341,312.86,347Zm3.73,18.22a10.92,10.92,0,0,1-4.74-7,16.22,16.22,0,0,1,2.22-10.49l0-.05c3-5.38,8.92-6.71,13.45-6.16,4.95.6,8.77,3.28,9.75,6.83a16.84,16.84,0,0,1-1.81,13.07,12.48,12.48,0,0,1-8.15,5.88A13.91,13.91,0,0,1,316.59,365.21Z" transform="translate(-223.95 -293.36)"/><path d="M314.14,345.65l.35,1.37c.25-.06,6-1.46,11.64,4.63s3.52,14.92,3.5,15L331,367c.1-.39,2.36-9.62-3.83-16.32S314.41,345.57,314.14,345.65Z" transform="translate(-223.95 -293.36)"/><path d="M327.18,351.52l.6,1.29a10.45,10.45,0,0,1,10.28,1.59l.84-1.14A11.92,11.92,0,0,0,327.18,351.52Z" transform="translate(-223.95 -293.36)"/><path d="M242.26,374.8a14.36,14.36,0,0,0-4.15,11.11c.86,7.55,5.46,12.4,12.62,13.29a11.72,11.72,0,0,0,8.87-2.41c1.54-1.22,2.64-2.79,2.75-3.89l-1.41-.14a5.79,5.79,0,0,1-2.23,2.92,10.31,10.31,0,0,1-7.81,2.12c-6.45-.81-10.6-5.2-11.38-12.05a12.9,12.9,0,0,1,3.77-10c2.43-2.58,5.48-4,8.16-3.9,5.75.31,7.15,3.59,7.21,3.73l1.32-.53c-.07-.17-1.75-4.26-8.46-4.61C248.43,370.3,245,371.92,242.26,374.8Z" transform="translate(-223.95 -293.36)"/><path d="M238.62,383.06l.73,1.21s3.62-2.07,11.48,1.86a22.85,22.85,0,0,1,9,8.86l1.26-.65a23.91,23.91,0,0,0-9.64-9.47C242.91,380.59,238.79,383,238.62,383.06Z" transform="translate(-223.95 -293.36)"/><path d="M250.45,385.59l1.4-.18c0-.08-.93-7.7,2.1-13.76l-1.27-.63C249.46,377.47,250.4,385.26,250.45,385.59Z" transform="translate(-223.95 -293.36)"/><path d="M319.87,406.47c-8.68,1.41-8.6,7.49-8.59,7.55l1.41,0c0-.2,0-4.91,7.41-6.11a9.35,9.35,0,0,1,7.55,1.52,9.15,9.15,0,0,1,3.29,6.33c.32,3.76-1.27,8.52-6.76,9.58a8.78,8.78,0,0,1-8.62-3.21l-1.15.82a10.17,10.17,0,0,0,10,3.79c6.41-1.25,8.27-6.76,7.91-11.09a10.55,10.55,0,0,0-3.84-7.34C326.26,406.51,323.35,405.9,319.87,406.47Z" transform="translate(-223.95 -293.36)"/><path d="M338.91,409.29a9.15,9.15,0,0,0-7.94,6.19l1.36.38a7.64,7.64,0,0,1,6.73-5.16c6-.63,12.05,2.68,13.43,6.07a6.51,6.51,0,0,1-.39,5.41,9.18,9.18,0,0,1-6.44,4.46,14.3,14.3,0,0,1-10.91-2.27c-1.68-1.18-2.74-2.56-2.9-3.8l-1.4.19c.21,1.65,1.45,3.34,3.48,4.77a15.83,15.83,0,0,0,12,2.5,10.6,10.6,0,0,0,7.39-5.2,8,8,0,0,0,.45-6.6C352.23,412.37,345.72,408.58,338.91,409.29Z" transform="translate(-223.95 -293.36)"/><path d="M324.75,382a12.9,12.9,0,0,0-11.19-3.7c-7.86,1.05-9.84,7.23-9.92,7.49l1.35.42c.07-.23,1.82-5.58,8.75-6.51a11.41,11.41,0,0,1,10.67,4.05l.81,1.12.44-1.32c0-.11,4-11.64,14.47-11.34a13.23,13.23,0,0,1,11.34,6.69,13.39,13.39,0,0,1,.56,12.76l-.82,1.5,1.64-.48a13.15,13.15,0,0,1,10.08,2.08c3.34,2.16,5.1,7.32,4.11,12-.7,3.31-3.39,9.11-13.5,10.7l.22,1.4c8-1.26,13.34-5.56,14.67-11.81,1.11-5.23-.93-11-4.73-13.49a14.87,14.87,0,0,0-9.95-2.49A13.48,13.48,0,0,0,354.8,386a15.77,15.77,0,0,0-2.1-7.82,14.62,14.62,0,0,0-12.53-7.4C330.66,370.52,326.1,378.93,324.75,382Z" transform="translate(-223.95 -293.36)"/><path d="M319.68,404.18a.71.71,0,0,0,.32.95l3.33,1.67a.71.71,0,0,0,.64-1.27l-3.34-1.66A.7.7,0,0,0,319.68,404.18Z" transform="translate(-223.95 -293.36)"/><path d="M321,401.13a.72.72,0,0,0,.25,1l3.33,2a.71.71,0,0,0,.73-1.22l-3.34-2A.71.71,0,0,0,321,401.13Z" transform="translate(-223.95 -293.36)"/><path d="M323.73,398.93a.71.71,0,0,0-.15,1l2,2.67a.71.71,0,0,0,1.14-.85l-2-2.67A.71.71,0,0,0,323.73,398.93Z" transform="translate(-223.95 -293.36)"/><path d="M326.31,397.38a.7.7,0,0,0-.28,1l1.67,3a.7.7,0,0,0,1,.28.71.71,0,0,0,.28-1l-1.67-3A.7.7,0,0,0,326.31,397.38Z" transform="translate(-223.95 -293.36)"/><path d="M329,395.87a.71.71,0,0,0-.3,1l2,3.83a.71.71,0,1,0,1.25-.66l-2-3.83A.7.7,0,0,0,329,395.87Z" transform="translate(-223.95 -293.36)"/><path d="M333.61,396.83v3a.71.71,0,1,0,1.42,0v-3a.71.71,0,0,0-1.42,0Z" transform="translate(-223.95 -293.36)"/><path d="M337.28,396.22l-.5,3.17a.71.71,0,0,0,.59.81.7.7,0,0,0,.81-.59l.5-3.17a.71.71,0,0,0-.59-.81A.72.72,0,0,0,337.28,396.22Z" transform="translate(-223.95 -293.36)"/><path d="M341.3,398l-2.17,2.33a.71.71,0,1,0,1,1l2.17-2.33a.71.71,0,0,0,0-1A.7.7,0,0,0,341.3,398Z" transform="translate(-223.95 -293.36)"/><path d="M344.86,399.69l-3,1.33a.7.7,0,0,0-.36.93.71.71,0,0,0,.94.36l3-1.33a.71.71,0,1,0-.58-1.29Z" transform="translate(-223.95 -293.36)"/><path d="M348,403.46l-3.33.17a.7.7,0,0,0-.68.74.71.71,0,0,0,.75.67l3.33-.17a.71.71,0,0,0-.07-1.41Z" transform="translate(-223.95 -293.36)"/><path d="M345.65,406.79a.71.71,0,0,0,0,1.42H349a.71.71,0,0,0,0-1.42Z" transform="translate(-223.95 -293.36)"/><path d="M349.55,409.46l-3.5.5a.71.71,0,0,0,.2,1.41l3.5-.5a.71.71,0,0,0-.2-1.41Z" transform="translate(-223.95 -293.36)"/><path d="M257.14,426.46A16.21,16.21,0,0,0,243.83,434a12,12,0,0,0-1.69,6.12,13.62,13.62,0,0,0,1.48,5.91A13.39,13.39,0,0,0,238.26,457c0,.23,0,.45,0,.69a11.63,11.63,0,0,0,4.12,8.56,15.23,15.23,0,0,0,11.67,3.28.71.71,0,1,0-.16-1.41,14.06,14.06,0,0,1-10.59-2.94,10.27,10.27,0,0,1-3.62-7.55,12,12,0,0,1,5.16-10.7l.57-.35-.31-.59c-2.62-4.92-1.48-8.83-.06-11.24a14.75,14.75,0,0,1,12.11-6.89c8.2-.15,10.57,5.49,10.66,5.73l.59,1.46.71-1.41c.21-.43,1.67-1.11,2.9-1.47a.72.72,0,0,0,.48-.88.71.71,0,0,0-.88-.48,10.84,10.84,0,0,0-3,1.34C267.59,430.32,264.42,426.32,257.14,426.46Z" transform="translate(-223.95 -293.36)"/><path d="M261.5,461.14l.13,0a9.67,9.67,0,0,0-8.3,5.77,6.62,6.62,0,0,0,.87,6.48A11.08,11.08,0,0,0,263,478c5.47-.19,8.84-3,9-7.51a9.5,9.5,0,0,0-3.55-7.34A8.24,8.24,0,0,0,261.5,461.14Zm-6.14,11.42a5.25,5.25,0,0,1-.72-5.12,8.23,8.23,0,0,1,7-4.9h.13a6.86,6.86,0,0,1,5.76,1.74,8.1,8.1,0,0,1,3.05,6.2c-.15,3.75-2.93,6-7.65,6.15A9.71,9.71,0,0,1,255.36,472.56Z" transform="translate(-223.95 -293.36)"/><path d="M273.55,458.77A8.68,8.68,0,0,0,270,467a.71.71,0,0,0,1.4-.27,7.22,7.22,0,0,1,3.06-6.8,7.56,7.56,0,0,1,6-1.67,4,4,0,0,1,2.68,1.48.71.71,0,1,0,1.19-.76,5.38,5.38,0,0,0-3.62-2.11A9,9,0,0,0,273.55,458.77Z" transform="translate(-223.95 -293.36)"/><path d="M286.44,464.79a.7.7,0,0,0-.66.75c.09,1.53-.13,6.56-6.7,7.25-5.64.6-6.87-2.86-6.92-3a.72.72,0,0,0-.9-.45.7.7,0,0,0-.45.88c0,.05,1.59,4.71,8.41,4,6.22-.66,8.19-4.95,8-8.75A.71.71,0,0,0,286.44,464.79Z" transform="translate(-223.95 -293.36)"/><path d="M257.13,458.81a.71.71,0,0,0,.5.87l3,.84a.71.71,0,0,0,.38-1.37l-3-.83A.71.71,0,0,0,257.13,458.81Z" transform="translate(-223.95 -293.36)"/><path d="M258.45,456.42a.7.7,0,0,0,.62.78l2.83.34a.71.71,0,1,0,.17-1.41l-2.84-.34A.71.71,0,0,0,258.45,456.42Z" transform="translate(-223.95 -293.36)"/><path d="M259.53,453.82a.71.71,0,0,0,.28,1l3,1.66a.71.71,0,1,0,.68-1.24l-3-1.66A.71.71,0,0,0,259.53,453.82Z" transform="translate(-223.95 -293.36)"/><path d="M262.73,450.6a.7.7,0,0,0-.15,1l1.83,2.5a.71.71,0,0,0,1,.15.7.7,0,0,0,.15-1l-1.83-2.5A.7.7,0,0,0,262.73,450.6Z" transform="translate(-223.95 -293.36)"/><path d="M264.82,448.37a.71.71,0,0,0-.3,1l1.67,3.17a.71.71,0,0,0,1,.29.7.7,0,0,0,.29-1l-1.66-3.17A.71.71,0,0,0,264.82,448.37Z" transform="translate(-223.95 -293.36)"/><path d="M268.21,447.3a.7.7,0,0,0-.59.81l.5,3.33a.7.7,0,0,0,.8.6.71.71,0,0,0,.6-.81l-.5-3.34A.71.71,0,0,0,268.21,447.3Z" transform="translate(-223.95 -293.36)"/><path d="M270.77,448.5v2.67a.71.71,0,0,0,1.42,0V448.5a.71.71,0,0,0-1.42,0Z" transform="translate(-223.95 -293.36)"/><path d="M274.78,448.87,272.94,451a.72.72,0,0,0,.08,1,.71.71,0,0,0,1-.08l1.84-2.17a.71.71,0,0,0-1.08-.92Z" transform="translate(-223.95 -293.36)"/><path d="M279.24,450.83l-3.67,1.34a.71.71,0,1,0,.49,1.33l3.67-1.33a.72.72,0,0,0,.42-.91A.71.71,0,0,0,279.24,450.83Z" transform="translate(-223.95 -293.36)"/><path d="M281.07,453.5l-3.17,1.17a.71.71,0,1,0,.49,1.33l3.17-1.17a.7.7,0,0,0,.42-.91A.71.71,0,0,0,281.07,453.5Z" transform="translate(-223.95 -293.36)"/><path d="M268.28,482.79c-.17,0-6.06.3-7.32,6.06a7.92,7.92,0,0,0-.2,1.79,7.1,7.1,0,0,0,1.49,4.39,8.86,8.86,0,0,0,6.37,3.34,6.58,6.58,0,0,0,5.05-1.81c1.52-1.49,2.27-3.76,2.19-6.58a7.2,7.2,0,0,0-2.32-5.34A7.62,7.62,0,0,0,268.28,482.79Zm.4,14.17a7.55,7.55,0,0,1-5.31-2.79,5.94,5.94,0,0,1-1-5c1-4.71,5.8-4.94,6-4.94h0a6.14,6.14,0,0,1,4.22,1.49,5.71,5.71,0,0,1,1.84,4.32,7.26,7.26,0,0,1-1.76,5.53A5.25,5.25,0,0,1,268.68,497Zm-.43-14.17h0Z" transform="translate(-223.95 -293.36)"/><path d="M285.26,474.33l.2,0c-2.13.07-6.2,1.37-6.35,5.85a6.18,6.18,0,0,0,1.52,4.71c1.19,1.23,3.05,1.86,5.52,1.86a6.77,6.77,0,0,0,5.13-2.12,6.82,6.82,0,0,0-1.52-9.56A5.73,5.73,0,0,0,285.26,474.33Zm-3.61,9.54a4.9,4.9,0,0,1-1.13-3.68c.15-4.26,4.79-4.48,5-4.48h.1l.1,0a4.39,4.39,0,0,1,3.3.56,5.45,5.45,0,0,1,1.2,7.43,5.37,5.37,0,0,1-4.06,1.63C284.08,485.29,282.56,484.81,281.65,483.87Z" transform="translate(-223.95 -293.36)"/><path d="M256.42,509a9.14,9.14,0,0,0-3.31,6.09c-.37,4.79,1.36,9,4,9.74a.71.71,0,0,0,.39-1.37c-1.95-.55-3.29-4.26-3-8.26a7.69,7.69,0,0,1,2.82-5.12,10.46,10.46,0,0,1,7.75-2.39,11.78,11.78,0,0,1,8,4.06,7.44,7.44,0,0,1,2,5.17c-.3,3.76-4.46,6.43-4.51,6.46a.72.72,0,0,0-.22,1,.71.71,0,0,0,1,.22c.2-.12,4.81-3.07,5.16-7.54a8.84,8.84,0,0,0-2.36-6.21,13.26,13.26,0,0,0-9-4.56A11.94,11.94,0,0,0,256.42,509Z" transform="translate(-223.95 -293.36)"/><path d="M269.3,508.31c-3,10.79-13.72,13.64-13.83,13.67a.72.72,0,0,0-.51.86.7.7,0,0,0,.86.51c.48-.12,11.61-3.06,14.85-14.66a.71.71,0,0,0-1.37-.38Z" transform="translate(-223.95 -293.36)"/><path d="M263.85,517a.7.7,0,0,0-.06,1c.16.18,4,4.47,7.58,6a.71.71,0,1,0,.56-1.3c-3.31-1.42-7.05-5.61-7.08-5.65A.71.71,0,0,0,263.85,517Z" transform="translate(-223.95 -293.36)"/><path d="M333.52,500.52a.71.71,0,0,0-.35.94c.9,2,.05,4.71-2.17,7-2.46,2.5-7,4.68-11.73,2.61-2.68-1.18-4.39-2.73-5.09-4.61a6,6,0,0,1,.11-4.27.7.7,0,0,0-.33-.94.71.71,0,0,0-.95.32,7.31,7.31,0,0,0-.16,5.36c.83,2.26,2.8,4.09,5.85,5.43,5.37,2.37,10.53-.08,13.31-2.9s3.61-6,2.45-8.54A.71.71,0,0,0,333.52,500.52Z" transform="translate(-223.95 -293.36)"/><path d="M324.47,501a19.19,19.19,0,0,0-4.67,10l-.17.8a.66.66,0,0,1,.37-.29.71.71,0,0,1,.87.43.74.74,0,0,1,.05.25.62.62,0,0,1-.09.27,3.53,3.53,0,0,0,.37-1.2,17.64,17.64,0,0,1,4.3-9.27.68.68,0,0,0,.19-.48.7.7,0,0,0-1.22-.48Zm-4,11.81a.67.67,0,0,0,.34-.38A.75.75,0,0,1,320.49,512.83Z" transform="translate(-223.95 -293.36)"/><path d="M357.17,500.15a.71.71,0,0,0,0,1,10.8,10.8,0,0,1,2.63,11.22,9.22,9.22,0,0,1-7,6.26c-6.65,1-13.29-2.9-14.21-8.25a9.7,9.7,0,0,1,2.3-8.53.72.72,0,0,0,0-1,.71.71,0,0,0-1,0,11.16,11.16,0,0,0-2.71,9.8c1.06,6.17,8.29,10.49,15.8,9.42a10.62,10.62,0,0,0,8.17-7.2,12.19,12.19,0,0,0-2.92-12.66A.71.71,0,0,0,357.17,500.15Z" transform="translate(-223.95 -293.36)"/><path d="M355.34,500.14a31.65,31.65,0,0,0-9.73,18.63.71.71,0,0,0,1.41.13,30.76,30.76,0,0,1,9.28-17.71.72.72,0,0,0,0-1A.71.71,0,0,0,355.34,500.14Z" transform="translate(-223.95 -293.36)"/><path d="M338.14,504a.71.71,0,0,0,0,1c.2.19,4.95,4.7,11.51,4.53a.71.71,0,0,0,.69-.73.72.72,0,0,0-.73-.69c-5.95.16-10.44-4.09-10.49-4.13A.71.71,0,0,0,338.14,504Z" transform="translate(-223.95 -293.36)"/><path d="M265.89,411.46c-16.1,2.06-16.12,17.06-16.12,17.21a.71.71,0,0,0,1.42,0c0-.57.05-13.9,14.88-15.79a.71.71,0,1,0-.18-1.41Z" transform="translate(-223.95 -293.36)"/><path d="M264.73,412.1c-3.38,4.9-5.2,14.53-5.28,14.94a.7.7,0,0,0,.57.82.71.71,0,0,0,.83-.56c0-.1,1.84-9.75,5-14.4a.71.71,0,0,0-1.17-.8Z" transform="translate(-223.95 -293.36)"/><path d="M252.25,420.83a.72.72,0,0,0-.44.9.71.71,0,0,0,.9.44s4.61-1.54,8.29.3a.71.71,0,0,0,.95-.32.71.71,0,0,0-.32-.95C257.42,419.09,252.46,420.76,252.25,420.83Z" transform="translate(-223.95 -293.36)"/><path d="M302.48,375.83l-2-11.5a140.89,140.89,0,0,0,12.34-25.16,277,277,0,0,0,9.5-29c.16-1.17,2.5-3.17,4.16-3.34a2.73,2.73,0,0,1,2.5,3.84c-1,1.83-7.66,21.83-11.33,32a16.77,16.77,0,0,0-6.83,15S305.65,369.17,302.48,375.83Z" transform="translate(-223.95 -293.36)"/><path d="M259.82,375s-4.67-5.67-10.67-3.67c0,0-4.5-8.16-5.67-9.33s-1.83-5.33-.16-8.5,9-11.83,9.33-14.67c0,0,6,11.17,14.67,13.84l-8.67-.17-.17,2.67S259,369.67,259.82,375Z" transform="translate(-223.95 -293.36)"/><path d="M264,318.67l2,.33s2-6.83,9.17-8.5c0,0,0-6.67,3.33-9.83h-6A186.79,186.79,0,0,1,264,318.67Z" transform="translate(-223.95 -293.36)"/><path d="M315.48,423.83a10.94,10.94,0,0,0,7.84,2.5c5.16-.16,7.66-5,7.66-5a14,14,0,0,0,9.5,6.17s1.17,3.83,6.34,7.33,11.16,4,14.83,6,4.5,3.67,3.67,8a18.94,18.94,0,0,0,0,8.84c.5,2-1.67,5.16-3.84,7.16s-7,.67-10.66,1.17-11.5,2-11.17,8.17C339.65,474.17,319.82,439.83,315.48,423.83Z" transform="translate(-223.95 -293.36)"/><path d="M276,515.83s-.16,6.34-5.83,8.34l30.33-.17,13.17-16.5s-1.17-3.67-.5-5.67l-2.5.17L299,486.67A99,99,0,0,1,276,515.83Z" transform="translate(-223.95 -293.36)"/><path d="M254.15,513.67s1.33-3.67,3.33-4.67c0,0-8.66-5.83-12-14.33s-2.66-21.5-4.83-28.34-5.67-10.5-8.5-12v6s3.5,3,4.67,12.5S239.15,504.5,254.15,513.67Z" transform="translate(-223.95 -293.36)"/></svg>