<svg id="_2_3" xmlns="http://www.w3.org/2000/svg" viewBox="0 0 153.07 238.11"><defs><style>.cls-1{fill:#ed1c24;}.cls-2{fill:#fff;}.cls-3{fill:#ffcb05;}</style></defs><title>_2_3</title><rect class="cls-1" width="153.07" height="238.11"/><path class="cls-2" d="M224.12,295.68l-.34,206s.84,8.66,8.5,9.16,26,.17,26,.17h92.84s8.66-1.33,8.83-9.83l.17-204.84a10,10,0,0,0-9.34-8.83l-118-.17S226,287.84,224.12,295.68Z" transform="translate(-215.41 -280.21)"/><path class="cls-1" d="M252.45,428.84s2.5-7.66,12.33-7.66,17.67,6.67,12.5,20.17a17.54,17.54,0,0,1,6.34,10.16l4.83-3.5s-4.67-4.83-2.17-11,6.67-6.67,6.67-6.67-7.67-2.66-6.33-10.66,8.66-11.67,17.5-10.84,11.16,9.67,8.5,16.84c0,0-2,6-8,5.83l4.33,3.84a26.33,26.33,0,0,1,8.33-3.34s-2.33-4.83-.16-9.5,8.16-6,8.16-6a14.25,14.25,0,0,1,7.34,2c3.5,2.17,7.33,7.5,5.5,12.5s-6.84,8-7.5,8c0,0,1.5,6.17-.84,9.33a11.29,11.29,0,0,1,9.67,7.17c2.83,7-.83,10.33-.83,10.33s6.16-.49,9.33,4.34,3.33,12.5-3.83,17a20.11,20.11,0,0,1-14.67,2.5l2.5-4s-4.83-2.67-5.17-6.17a10.84,10.84,0,0,1-7.83,7.17,133.65,133.65,0,0,0-15,4.66l-1.67,3.84s1.84,9-2.5,12.33-20.83,5.17-19.66-10.67l-21.5-6.66-6.17-2.84a28.77,28.77,0,0,1-6.17-2.66s-1.66,8.5-10.5,8.66-11.66-4.16-11.66-7-.34-12.66-.34-12.66,1.34-4.83,9.34-4.5c0,0-2.5-9.17,4.16-14.84,0,0,4-4.33,12.84-3.66Z" transform="translate(-215.41 -280.21)"/><path class="cls-3" d="M255.12,472.84a7.26,7.26,0,0,1,4.5-6.5c4.66-2.16,10.16,2.17,11,6,0,0-6.67,1.34-7.17,6s-.67-.33-.67-.33S260.28,472.68,255.12,472.84Z" transform="translate(-215.41 -280.21)"/><path class="cls-3" d="M291.62,472.68s2.83-2.67,8.33-2,5.5,4.16,5.5,4.16a7.16,7.16,0,0,0-6.83,5c-1.67,5.17.33.67-1-2S293.12,472.85,291.62,472.68Z" transform="translate(-215.41 -280.21)"/><path class="cls-3" d="M307.28,453s1.84,2.67,1.5,5.17a23.52,23.52,0,0,1,10.84,1.66S315.62,451.68,307.28,453Z" transform="translate(-215.41 -280.21)"/><path class="cls-1" d="M249.28,410.51S247,405.84,239,405.68s-11.17,8.16-10,14,5.83,8.83,11,8.83a10.36,10.36,0,0,0,10-6.83C251.28,418,251.12,412.18,249.28,410.51Z" transform="translate(-215.41 -280.21)"/><path class="cls-1" d="M255,399s2.66-6.17,11.33-5.17,10,9.17,8.34,14.84-7.34,10-13.67,8.16-8.67-7.66-8.67-10.16S255,399,255,399Z" transform="translate(-215.41 -280.21)"/><path class="cls-1" d="M322.28,358.84a13,13,0,0,0-8.33-4,9.21,9.21,0,0,0-9.83,7.84c-.84,4.66,3.33,8.5,9.33,9.83s8.67-3.67,9.5-6S323.78,360.84,322.28,358.84Z" transform="translate(-215.41 -280.21)"/><path class="cls-1" d="M326.78,384.84l.67,14.17s4,2.67,10.83.67,7.5-6.67,6.34-12.17-7.67-7.83-11.84-6.83C332.78,380.68,328.78,382.18,326.78,384.84Z" transform="translate(-215.41 -280.21)"/><path d="M233.87,286.8a10.64,10.64,0,0,0-10.63,10.63V501.09a10.64,10.64,0,0,0,10.63,10.63H350a10.64,10.64,0,0,0,10.63-10.63V297.43A10.64,10.64,0,0,0,350,286.8Zm-9.21,214.29V297.43a9.22,9.22,0,0,1,9.21-9.21H350a9.22,9.22,0,0,1,9.21,9.21V501.09A9.22,9.22,0,0,1,350,510.3H233.87A9.22,9.22,0,0,1,224.66,501.09Z" transform="translate(-215.41 -280.21)"/><path d="M253.64,472c-.32,0-4.37-.27-7.13,2.11a7.22,7.22,0,0,0-2.43,5.22c-.25,3.58,1.17,8,9.34,8.74h.13c3,.27,8.95-.89,9.77-7.28a6.71,6.71,0,0,0-2.15-6A11.22,11.22,0,0,0,253.64,472Zm.11,1.4a10,10,0,0,1,6.45,2.45,5.29,5.29,0,0,1,1.71,4.77c-.85,6.64-7.93,6.08-8.23,6.05h-.13c-5.72-.51-8.36-2.88-8.06-7.24a5.84,5.84,0,0,1,1.94-4.23c2.36-2,6.09-1.78,6.13-1.78h.1Z" transform="translate(-215.41 -280.21)"/><path d="M270.94,471.8c-3,.06-5.22.95-6.67,2.63a8.07,8.07,0,0,0-1.69,5.84v-.09c0,1.61,1.57,6.21,8.55,6.21,7.91,0,8.37-6.77,8.37-6.84a7.42,7.42,0,0,0-1.73-5.37C276.28,472.54,274,471.74,270.94,471.8ZM264,480.18v-.09a6.72,6.72,0,0,1,1.38-4.74c1.17-1.37,3.06-2.08,5.6-2.13s4.55.59,5.74,1.9a6.1,6.1,0,0,1,1.38,4.31c0,.27-.42,5.54-7,5.54C265.3,485,264,481.42,264,480.18Z" transform="translate(-215.41 -280.21)"/><path d="M223.6,473.14a.71.71,0,0,0,1.36.41c0-.16,1.35-4,9-3.66,7.81.31,10.41,5.24,10.41,6.54a.71.71,0,0,0,1.42,0c0-1.65-2.82-7.6-11.77-8C225.19,468.12,223.66,472.94,223.6,473.14Z" transform="translate(-215.41 -280.21)"/><path d="M246.05,483.82a.72.72,0,0,0-.64.78,9.79,9.79,0,0,1-2.81,4.84,11.07,11.07,0,0,1-8.78,3.36c-8.1-.45-9-5.83-9-6.05a.71.71,0,1,0-1.41.19c0,.07,1,6.75,10.33,7.28a12.46,12.46,0,0,0,10.09-4c2.11-2.26,3.1-4.85,3-5.78A.69.69,0,0,0,246.05,483.82Z" transform="translate(-215.41 -280.21)"/><path d="M223.47,483.32a.71.71,0,0,0,0,1,.7.7,0,0,0,1,.05c.05,0,4.6-3.87,20.4-1a.7.7,0,0,0,.83-.57.71.71,0,0,0-.57-.82C228.42,479,223.66,483.14,223.47,483.32Z" transform="translate(-215.41 -280.21)"/><path d="M226.83,470.89c4.31,3.51,7.6,11.15,7.63,11.23l1.31-.55c-.14-.33-3.46-8-8-11.78Z" transform="translate(-215.41 -280.21)"/><path d="M263.7,440c-8.17,3.07-10.89,8.42-11.56,10.1l-.4,0c-3.91-.23-11.18-.65-16.33,5.46a14.3,14.3,0,0,0-2.62,14.06l1.32-.53a12.86,12.86,0,0,1,2.38-12.61c4.7-5.58,11.25-5.19,15.17-5l1.48.08.15-.53c0-.06,2.05-6.39,10.91-9.71A14.32,14.32,0,0,1,278,443.19c3.91,3.08,5.65,8.25,4.88,14.57l-.1.83.84,0c.26,0,6.34-.22,8.3,5.36s-1.64,8.76-1.79,8.89l.91,1.09a9.36,9.36,0,0,0,2.87-6.77,10.83,10.83,0,0,0-.66-3.68c-1.86-5.3-6.95-6.15-8.91-6.28.07-.76.14-1.53.14-2.25,0-5.47-1.94-10-5.6-12.83A15.75,15.75,0,0,0,263.7,440Z" transform="translate(-215.41 -280.21)"/><path d="M289.29,472.13c-.25,0-9,0-9.71,7.48a8.13,8.13,0,0,0,2.2,6.7c2.54,2.59,6.47,3.27,9.06,3.07a9.35,9.35,0,0,0,6.66-3.3A7.74,7.74,0,0,0,299,479.9C298.09,474.22,292.18,471.82,289.29,472.13Zm.09,1.42c2.1-.28,7.43,1.61,8.2,6.57a6.38,6.38,0,0,1-1.19,5.08,8,8,0,0,1-5.66,2.77,10.58,10.58,0,0,1-7.94-2.66,6.64,6.64,0,0,1-1.8-5.56c.59-6.26,8-6.2,8.28-6.2h.11Z" transform="translate(-215.41 -280.21)"/><path d="M289.62,488.14c-.42,0-8.83-.41-10,9.62-.42,3.45.3,6.3,2.14,8.47,3,3.59,8.06,4.09,9.53,4.16s6,.27,9.1-2.62c2-1.9,3.08-4.79,3.14-8.58a9.85,9.85,0,0,0-3.19-7.9C297,488.31,291.72,487.88,289.62,488.14Zm.09,1.41c1.19-.16,6.32-.15,9.65,2.8a8.49,8.49,0,0,1,2.71,6.82c-.05,3.39-1,5.94-2.69,7.56-2.64,2.49-6.72,2.3-8.07,2.24-2.72-.12-6.38-1.15-8.51-3.66a9.3,9.3,0,0,1-1.82-7.38c1.07-8.85,8.27-8.4,8.58-8.38h.15Z" transform="translate(-215.41 -280.21)"/><path d="M281.55,493l.13,1.41c.1,0,9.75-.78,18.71,10.9l1.12-.87C292.05,492.07,282,492.93,281.55,493Z" transform="translate(-215.41 -280.21)"/><path d="M290.06,495.41l1.12.87a22.1,22.1,0,0,1,6.1-5.31l-.66-1.25A23.16,23.16,0,0,0,290.06,495.41Z" transform="translate(-215.41 -280.21)"/><path d="M305.6,474.3c-7.61.18-7.69,6.81-7.69,6.88l0-.22a6.81,6.81,0,0,0,1.25,5.68c1,1.35,3,2.93,6.79,2.75,8.07-.4,8.93-6.15,9-6.8a8.2,8.2,0,0,0-2.29-5.48A8.94,8.94,0,0,0,305.6,474.3Zm-5.28,11.48a5.45,5.45,0,0,1-1-4.38l0-.11v-.11c0-.22.1-5.31,6.3-5.46a7.57,7.57,0,0,1,6,2.35,7,7,0,0,1,1.92,4.36c-.1.87-.92,5.21-7.67,5.54C303.43,488.09,301.5,487.34,300.32,485.78Z" transform="translate(-215.41 -280.21)"/><path d="M283.19,451.46l1.18.77c.15-.22,3.74-5.46,12.18-4.68s11.38,7.45,11.69,10.86l.07.7.7-.06c.11,0,11.66-.88,16.53,5.88a12.87,12.87,0,0,1,2,10c-.72,3.84-2.88,7.62-5.27,9.18-3.93,2.56-8.59.31-8.63.29l-.64,1.26c.22.11,5.42,2.65,10-.37,2.73-1.78,5.1-5.84,5.89-10.11a14.17,14.17,0,0,0-2.2-11.06c-4.71-6.54-14.55-6.6-17.15-6.5-.62-4-3.9-10.63-12.86-11.46C287.36,445.28,283.36,451.2,283.19,451.46Z" transform="translate(-215.41 -280.21)"/><path d="M338.6,465.3c-9.64.18-10.84,6.86-10.85,6.93l1.4.23c0-.23,1.06-5.59,9.48-5.74a10.07,10.07,0,0,1,7.78,2.87,10.45,10.45,0,0,1,2.83,7.22c-.16,3.21-3.42,8.32-6.67,9.36-3.42,1.09-7.73,0-7.78,0-.31-.06-6.54-1.33-7.14-6.73l-1.4.16c.71,6.45,8.16,7.94,8.23,8a17.74,17.74,0,0,0,8.52,0c3.9-1.24,7.47-6.89,7.66-10.64a11.89,11.89,0,0,0-3.23-8.28A11.53,11.53,0,0,0,338.6,465.3Z" transform="translate(-215.41 -280.21)"/><path d="M338.41,487.41l1.41-.13c0-.11-.88-11.3,5.83-19l-1.07-.93C337.47,475.51,338.37,486.92,338.41,487.41Z" transform="translate(-215.41 -280.21)"/><path d="M328.6,472.36a16.61,16.61,0,0,1,10.18,10.39l1.34-.48A17.72,17.72,0,0,0,329,471Z" transform="translate(-215.41 -280.21)"/><path d="M249.25,469.58a.71.71,0,0,0,.6.8l3.5.5a.71.71,0,1,0,.2-1.4l-3.5-.5A.7.7,0,0,0,249.25,469.58Z" transform="translate(-215.41 -280.21)"/><path d="M249.43,466.83a.71.71,0,0,0,.5.87l4.33,1.16a.71.71,0,1,0,.37-1.37l-4.33-1.16A.7.7,0,0,0,249.43,466.83Z" transform="translate(-215.41 -280.21)"/><path d="M252.43,463.53a.7.7,0,0,0,0,1l2.5,2.33a.7.7,0,1,0,1-1l-2.5-2.34A.71.71,0,0,0,252.43,463.53Z" transform="translate(-215.41 -280.21)"/><path d="M255.58,461.24a.71.71,0,0,0-.24,1l1.84,3a.7.7,0,0,0,1,.24.72.72,0,0,0,.24-1l-1.84-3A.71.71,0,0,0,255.58,461.24Z" transform="translate(-215.41 -280.21)"/><path d="M258.52,459.69a.71.71,0,0,0-.4.92l1.34,3.33a.72.72,0,0,0,.92.4.71.71,0,0,0,.39-.92l-1.33-3.34A.71.71,0,0,0,258.52,459.69Z" transform="translate(-215.41 -280.21)"/><path d="M262.41,459l-.17,3.83a.71.71,0,0,0,1.42.06l.16-3.83a.71.71,0,1,0-1.41-.06Z" transform="translate(-215.41 -280.21)"/><path d="M265.93,459.32l-1,3.67a.71.71,0,0,0,1.37.38l1-3.67a.71.71,0,0,0-1.37-.38Z" transform="translate(-215.41 -280.21)"/><path d="M270.61,460l-3.16,3.17a.71.71,0,0,0,1,1l3.17-3.17a.71.71,0,0,0-1-1Z" transform="translate(-215.41 -280.21)"/><path d="M273.42,462.9l-4,2.33a.71.71,0,0,0,.72,1.23l4-2.34a.7.7,0,0,0,.25-1A.71.71,0,0,0,273.42,462.9Z" transform="translate(-215.41 -280.21)"/><path d="M275.25,467.14l-3.67.16a.71.71,0,0,0-.67.74.71.71,0,0,0,.74.68l3.66-.17a.71.71,0,1,0-.06-1.41Z" transform="translate(-215.41 -280.21)"/><path d="M271.41,470.15a.71.71,0,0,0,.68.74l3.83.16a.71.71,0,1,0,.06-1.41l-3.83-.17A.71.71,0,0,0,271.41,470.15Z" transform="translate(-215.41 -280.21)"/><path d="M293.2,465.85a.69.69,0,0,0-.41.91l1,2.67a.71.71,0,1,0,1.32-.5l-1-2.67A.7.7,0,0,0,293.2,465.85Z" transform="translate(-215.41 -280.21)"/><path d="M294.42,466.24a.7.7,0,0,0-.25,1l1.5,2.5a.72.72,0,0,0,1,.24.71.71,0,0,0,.24-1l-1.5-2.5A.7.7,0,0,0,294.42,466.24Z" transform="translate(-215.41 -280.21)"/><path d="M297.24,465.33a.72.72,0,0,0-.47.89l.83,2.67a.73.73,0,0,0,.89.47.71.71,0,0,0,.47-.89l-.83-2.67A.73.73,0,0,0,297.24,465.33Z" transform="translate(-215.41 -280.21)"/><path d="M299.91,464.64a.71.71,0,0,0-.67.74l.17,3a.7.7,0,0,0,.75.67.69.69,0,0,0,.66-.75l-.16-3A.71.71,0,0,0,299.91,464.64Z" transform="translate(-215.41 -280.21)"/><path d="M302.42,465.19l-.66,3a.71.71,0,1,0,1.38.31l.67-3a.71.71,0,0,0-1.39-.31Z" transform="translate(-215.41 -280.21)"/><path d="M305.48,466.19l-1.16,2.34a.7.7,0,0,0,.31,1,.71.71,0,0,0,.95-.32l1.17-2.33a.71.71,0,0,0-.32-.95A.7.7,0,0,0,305.48,466.19Z" transform="translate(-215.41 -280.21)"/><path d="M308.76,467.37l-1.83,2a.7.7,0,0,0,0,1,.71.71,0,0,0,1-.05l1.83-2a.7.7,0,0,0,0-1A.71.71,0,0,0,308.76,467.37Z" transform="translate(-215.41 -280.21)"/><path d="M312.83,469.53,309,471.19a.72.72,0,0,0-.37.94.7.7,0,0,0,.93.36l3.84-1.66a.71.71,0,1,0-.57-1.3Z" transform="translate(-215.41 -280.21)"/><path d="M314.37,472l-3,.34a.7.7,0,1,0,.16,1.4l3-.33a.69.69,0,0,0,.62-.78A.71.71,0,0,0,314.37,472Z" transform="translate(-215.41 -280.21)"/><path d="M311.74,475.61a.71.71,0,0,0,.64.77l3.33.34a.72.72,0,0,0,.78-.64.71.71,0,0,0-.64-.77l-3.33-.34A.72.72,0,0,0,311.74,475.61Z" transform="translate(-215.41 -280.21)"/><path d="M296.89,429a12.29,12.29,0,0,0-10.57,6.18c-4.38,8.24,1.77,13.65,1.83,13.7l.93-1.07c-.22-.19-5.34-4.75-1.51-12a10.89,10.89,0,0,1,9.38-5.42,12.85,12.85,0,0,1,11.41,5.48l.41.63.6-.45c.09-.06,8.71-6.3,16.35-1.15s3.6,12.92,3.43,13.26l-.54,1.05,1.19,0a9.7,9.7,0,0,1,8.83,6.07c2.62,6.17-.44,10.11-.57,10.28l1.11.89a10.54,10.54,0,0,0,1.94-6.3,13.76,13.76,0,0,0-1.18-5.43,11.11,11.11,0,0,0-9.12-6.84,14.24,14.24,0,0,0,.9-4.84,10.79,10.79,0,0,0-5.2-9.29c-7.36-5-15.38-.49-17.44.82A14.32,14.32,0,0,0,296.89,429Z" transform="translate(-215.41 -280.21)"/><path d="M303.41,447.88a.71.71,0,0,0,.08,1l3.5,3a.71.71,0,1,0,.92-1.07l-3.5-3A.71.71,0,0,0,303.41,447.88Z" transform="translate(-215.41 -280.21)"/><path d="M307.3,446.15a.7.7,0,0,0-.54.84l.83,3.84a.71.71,0,0,0,.84.54.69.69,0,0,0,.54-.84l-.83-3.84A.71.71,0,0,0,307.3,446.15Z" transform="translate(-215.41 -280.21)"/><path d="M309.57,447v3.67a.71.71,0,1,0,1.42,0V447a.71.71,0,1,0-1.42,0Z" transform="translate(-215.41 -280.21)"/><path d="M312.92,447.54l-.67,3.33a.72.72,0,0,0,.56.84.71.71,0,0,0,.83-.56l.67-3.33a.71.71,0,0,0-.56-.84A.72.72,0,0,0,312.92,447.54Z" transform="translate(-215.41 -280.21)"/><path d="M315.8,449.06l-1.17,2.67a.71.71,0,0,0,.37.93.7.7,0,0,0,.93-.37l1.17-2.66a.71.71,0,0,0-1.3-.57Z" transform="translate(-215.41 -280.21)"/><path d="M319.3,450.66,316.8,453a.71.71,0,1,0,1,1l2.5-2.33a.71.71,0,0,0,0-1A.7.7,0,0,0,319.3,450.66Z" transform="translate(-215.41 -280.21)"/><path d="M321.87,452.68l-3.17,1.17a.72.72,0,0,0-.42.91.72.72,0,0,0,.91.42l3.17-1.17a.71.71,0,0,0-.49-1.33Z" transform="translate(-215.41 -280.21)"/><path d="M324.07,455.3l-2.83.17a.7.7,0,0,0-.66.75.69.69,0,0,0,.74.66l2.84-.16a.7.7,0,0,0,.66-.75A.71.71,0,0,0,324.07,455.3Z" transform="translate(-215.41 -280.21)"/><path d="M321.58,458.93a.71.71,0,0,0,.62.78l3,.34a.72.72,0,0,0,.79-.63.71.71,0,0,0-.63-.78l-3-.33A.69.69,0,0,0,321.58,458.93Z" transform="translate(-215.41 -280.21)"/><path d="M322.83,416.76c-3.59,1.19-6.24,3.84-6.91,6.94-1.4,6.5,1.28,8.91,1.4,9l.93-1.06s-2.15-2-.94-7.66c.56-2.6,2.85-4.85,6-5.88a11.07,11.07,0,0,1,10.88,2.27,9.93,9.93,0,0,1,3.21,9.77,11.08,11.08,0,0,1-7.45,8.35l.42,1.35a12.51,12.51,0,0,0,8.42-9.4,11.34,11.34,0,0,0-3.67-11.14A12.49,12.49,0,0,0,322.83,416.76Z" transform="translate(-215.41 -280.21)"/><path d="M289.59,412.35a11.46,11.46,0,0,0-3.68,8.49A10.56,10.56,0,0,0,292.73,431l.43-1.35a9,9,0,0,1-5.84-8.83,10,10,0,0,1,3.25-7.46c2.95-2.81,7.63-4.26,12.84-4a9.63,9.63,0,0,1,7.07,3c2.62,3,2.57,7.45,2.43,9.23-.26,3.19-2.31,9.18-8.27,9l0,1.41c6.1.17,9.31-5.23,9.72-10.32.16-2,.2-6.88-2.78-10.27a11,11,0,0,0-8.05-3.49C297.89,407.68,292.82,409.28,289.59,412.35Z" transform="translate(-215.41 -280.21)"/><path d="M321.31,418.65c8.73,4.21,6.47,17.1,6.44,17.23l1.4.26c.1-.57,2.48-14.09-7.23-18.77Z" transform="translate(-215.41 -280.21)"/><path d="M328.09,428.07l.72,1.22a10.56,10.56,0,0,1,8.86-.46l.56-1.3A11.78,11.78,0,0,0,328.09,428.07Z" transform="translate(-215.41 -280.21)"/><path d="M300.6,425a19.15,19.15,0,0,1-2.55,4.28l1.13.86a21,21,0,0,0,2.78-4.73c.49-1.64,4.88-10.09,10.13-11.17l-.28-1.39C305.85,414,301.16,423.12,300.6,425Z" transform="translate(-215.41 -280.21)"/><path d="M291.6,412.39c8.37.15,11.06,8.48,11.17,8.83l1.36-.42c0-.09-3.1-9.66-12.5-9.83Z" transform="translate(-215.41 -280.21)"/><path d="M251.12,440.76c1.61,4.31,4.87,5.08,5,5.11l.31-1.38c-.11,0-2.66-.67-4-4.23Z" transform="translate(-215.41 -280.21)"/><path d="M263.88,420.47c-10.61,1-11.63,8.55-11.63,8.62l1.4.17c0-.26.93-6.45,10.37-7.38a12.19,12.19,0,0,1,14.22,11.2c.54,5.94-1.88,8-1.91,8.05l.89,1.1c.13-.1,3-2.51,2.43-9.28a13.59,13.59,0,0,0-15.77-12.48Z" transform="translate(-215.41 -280.21)"/><path d="M261,441.51l1.25.67c.06-.12,6.36-11.84,11.92-18.38l-1.08-.91C267.43,429.53,261.05,441.39,261,441.51Z" transform="translate(-215.41 -280.21)"/><path d="M254.36,425l.17,1.41c.27,0,6.56-.62,10.61,8.1l1.28-.6C261.93,424.19,254.67,424.94,254.36,425Z" transform="translate(-215.41 -280.21)"/><path d="M232.29,407.49c-3.67,2.91-4.28,7.6-4.38,9a12.88,12.88,0,0,0,3.32,9.14,10.91,10.91,0,0,0,8,3.62c6.77.15,11.09-4.52,11.55-12.49a7,7,0,0,0,0-.87c0-2.45-.79-9.09-9.14-10.38C237.89,404.88,234.72,405.56,232.29,407.49Zm7,20.31a9.53,9.53,0,0,1-7-3.15,11.62,11.62,0,0,1-3-8.09c.09-1.22.64-5.4,3.85-8,2.11-1.67,4.91-2.25,8.34-1.72,8.85,1.37,8,9.37,7.9,9.71v.05C249.21,420.06,247.84,428,239.3,427.8Zm11.52-11.07v0Z" transform="translate(-215.41 -280.21)"/><path d="M238.08,428.62l1.41.12c0-.11,1.07-11.23,8-19.78l-1.1-.89C239.18,417,238.12,428.14,238.08,428.62Z" transform="translate(-215.41 -280.21)"/><path d="M230.2,412.05a12.41,12.41,0,0,1,9.75,8.36l1.33-.47a13.83,13.83,0,0,0-10.92-9.3Z" transform="translate(-215.41 -280.21)"/><path d="M257.55,395.25c-2.78,2-4.56,5.24-5.14,9.33-1.4,10,9.23,13.25,9.34,13.28l-.07,0c1.43.6,4.78.3,7.72-1.23a11.48,11.48,0,0,0,6.07-7.94c1-4.5.5-8.41-1.43-11.32a9.61,9.61,0,0,0-6.46-4.19A13.15,13.15,0,0,0,257.55,395.25Zm4.67,21.27h-.07c-.39-.12-9.56-2.95-8.33-11.72.52-3.76,2.06-6.58,4.56-8.39a11.75,11.75,0,0,1,8.94-1.85,8.29,8.29,0,0,1,5.54,3.59c1.71,2.57,2.14,6.11,1.23,10.23a10.07,10.07,0,0,1-5.35,7C266,416.78,263.07,416.88,262.22,416.52Z" transform="translate(-215.41 -280.21)"/><path d="M257.6,415.15l1.36.39c0-.11,3.56-11.76,14.79-17.05l-.6-1.29C261.33,402.78,257.75,414.64,257.6,415.15Z" transform="translate(-215.41 -280.21)"/><path d="M256.36,398.05c.2,0,4.9.73,6.74,7.16l1.36-.39c-2.1-7.37-7.69-8.15-7.92-8.18Z" transform="translate(-215.41 -280.21)"/><path d="M326.28,385.27l1.33.49c.08-.21,1.94-4.95,9-4.54,3.43.2,6.16,2.54,7.3,6.28s.26,7.76-2.19,9.61c-5.18,3.93-12.45,2.49-13.17,1.65l-1.15.83c.61.85,2.59,1.24,3.42,1.36,1.6.25,7.16.77,11.75-2.71,2.92-2.2,4-6.79,2.69-11.16s-4.52-7-8.57-7.28C328.54,379.34,326.3,385.21,326.28,385.27Z" transform="translate(-215.41 -280.21)"/><path d="M329,383.37c.49.11,12,3,12.12,14.48h1.42c-.17-12.58-13.08-15.82-13.21-15.85Z" transform="translate(-215.41 -280.21)"/><path d="M326.54,399.18l.48,1.33c8-2.9,11.91-11.18,12.07-11.54l-1.28-.59C337.77,388.46,334,396.48,326.54,399.18Z" transform="translate(-215.41 -280.21)"/><path d="M313.42,354.14c-.09,0-8.77.44-9.84,8.11a8.44,8.44,0,0,0,2,6.92,12.88,12.88,0,0,0,9.06,4.05c2.65,0,8.83-.93,9-9.53.17-7.08-6.32-9.34-10.17-9.55h-.07Zm-6.79,14.1a6.84,6.84,0,0,1-1.73-4.62,9.61,9.61,0,0,1,.08-1.18c.9-6.42,8-6.86,8.47-6.88,1,.05,8.79.74,8.79,7.86v.24c-.16,6.73-4.23,8.14-7.62,8.14A11.51,11.51,0,0,1,306.63,368.24Z" transform="translate(-215.41 -280.21)"/><path d="M306.05,358.68c.28.1,6.72,2.49,4.7,13l1.4.27c2.25-11.8-5.56-14.61-5.64-14.64Z" transform="translate(-215.41 -280.21)"/><path d="M311.18,364.45l.87,1.12c.29-.23,7-5.53,8.71-7l-.95-1.06C318.18,359,311.25,364.4,311.18,364.45Z" transform="translate(-215.41 -280.21)"/><path d="M321.62,418l-.5-48.5a13,13,0,0,0,1.83-6.83c0-4.17-2.83-5.5-2.83-5.5s-1-18.84-1.67-25.5-2-16.84-2.33-18.34.5-2,1.83-2.33,2.5,1.83,2.67,3.5S324,338.34,325,346.34s2.67,37.34,2.67,37.34,1.5,24,1.66,26,.34,7.33.34,7.33A22.87,22.87,0,0,0,321.62,418Z" transform="translate(-215.41 -280.21)"/><path d="M254.28,444s-.83-16.17-.83-21.5.5-11.5.5-11.5a14.65,14.65,0,0,1-.67-6.83c.5-4,3.17-6.34,3.17-8.34a171.92,171.92,0,0,0,.33-30.5,136.88,136.88,0,0,0-8-36,5.39,5.39,0,0,0-3.16-1.66c-1.67-.34-1.17.83-.84,2.5s4.44,14.72,5.67,25.5c1.33,11.66,2.33,20.66-.5,43.5,0,0-1.5,9.33-1.5,10.66,0,0,2,2.5,1.5,8s-2.83,7.34-2.83,7.34,0,16.5,1.16,25.5l4.34.16a40.88,40.88,0,0,1,2.66-4.16C256,446,257.12,444.85,254.28,444Z" transform="translate(-215.41 -280.21)"/><path d="M230.45,510.34a79.6,79.6,0,0,0,12-10.83,71.17,71.17,0,0,0,8.83-12s8.83.83,11.34-6a1.24,1.24,0,0,1,1.33.67c.33.83,3,3.67,7.17,3.5s7-3.17,7.33-4.67,1.66-1.5,1.83.17.17,6.66,7.5,7.33c0,0-7.16,2-7.66,9.67a40.08,40.08,0,0,0-9.5,2,24.73,24.73,0,0,0-12,10.5l-17.5.5Z" transform="translate(-215.41 -280.21)"/><path d="M292.62,488.51s5.16-3.67,5.5-4.17.66.34,1,1,2,3,6.33,3.17a11.08,11.08,0,0,0,7.5-3,5.13,5.13,0,0,1,2.67.17c.83.5,5,0,5,0s8.83,0,10.33.16,2,1,6.83,1.5a10.55,10.55,0,0,0,8-2.33c.5-.33,13.84-5,13.84-5l.5,7.5a218.46,218.46,0,0,1-21.34,5.17c-9.66,1.66-18.66.83-22.5,1.16s-13.66,1.84-13.66,1.84S299.45,489.34,292.62,488.51Z" transform="translate(-215.41 -280.21)"/></svg>