<svg id="_2_4" xmlns="http://www.w3.org/2000/svg" viewBox="0 0 153.07 238.11"><defs><style>.cls-1{fill:#ed1c24;}.cls-2{fill:#fff;}.cls-3{fill:#ffcb05;}</style></defs><title>_2_4</title><rect class="cls-1" width="153.07" height="238.11"/><path class="cls-2" d="M225.69,275.09V480.75s.17,8.34,10.33,9.17l118.5.17s8.17-2.5,8.17-10.17V275.42s-.83-8-9.33-8.67H235.52S227.19,266.92,225.69,275.09Z" transform="translate(-217.59 -259.37)"/><path class="cls-1" d="M243.94,385.92a12.86,12.86,0,0,0-7.75-6.12c-5.38-1.38-10.13,1.75-10.38,4.62s-.12,10.38-.12,10.38-.25,3.25,5.5,4.37c0,0-3.38,2.13-2.5,9.75s6.37,10,6.37,10-1.25,5.13,1.25,7.88a17.85,17.85,0,0,0,6.38,4.12s-3.75,4.25-4.63,6.63c0,0-4.12-1.13-7.25-.13s-5.12,4.38-5.12,4.38l-.13,18.75s1.5,1.87,5.38,3.12a40.09,40.09,0,0,0-1.5,8.88c-.25,4.87,2.87,9.87,8.87,11.62s13.25-.75,14.63-1.87a16.76,16.76,0,0,0,13.62,2.87,13.37,13.37,0,0,0,10.13-8.37,16.19,16.19,0,0,0-1.75-12.13s4.25-1,5.62-2.62c0,0,.5,8.37,8,11.5l4.25,7.75,9.13,3.25,14.25-3.88s3.25-1,3.87-1.25c0,0,.88,6,8,7.75s11.13-1.75,11.5-2.5a16.07,16.07,0,0,0,8.5,4c4.88.5,9.5-4,9.5-8.37s-1.25-8.63-7.37-10.13c0,0,2-4.62-1.25-8.25s-9.38-1.87-11.88.5a13.24,13.24,0,0,0-3.37-11.12c-4.75-5.5-14.5-5.88-14.5-5.88s-1.75-4.75-5.88-7a13.37,13.37,0,0,0-7.62-1.75,8.17,8.17,0,0,0,.25-9.37c-3.25-5-9.88-6.88-16.25-2.75a10.4,10.4,0,0,0-3.38,14.37,12,12,0,0,0,6.88,4.38,36.09,36.09,0,0,0-2.13,5.25,9.52,9.52,0,0,0-7.12,2.87s-.5-10.75-13.5-12c0,0-1.38-7.25-6.13-9.87,0,0,3.75-2.63,4.25-4.63,0,0,9.5-.37,14.25-8.25a11.65,11.65,0,0,0,10.63,2.38c6.25-1.75,9.62-6.13,8.75-13s-8.13-9.13-9.88-9.38-8.12.75-10,5.75a14.81,14.81,0,0,0-9.5-3.37,11.79,11.79,0,0,0-7.37-10c-7.13-2.88-16.5-1.5-19.63,4.37Z" transform="translate(-217.59 -259.37)"/><path class="cls-3" d="M252.81,449.05s-3.12-.63-5.25,2.87-.74,8.62,2.38,10c3.37,1.5,9.87.75,10-5.87S254.31,448.8,252.81,449.05Z" transform="translate(-217.59 -259.37)"/><path class="cls-3" d="M249.31,415.05s-.12-4.5,3.5-6.13,10.13.25,10,6.5a11.8,11.8,0,0,0-10.37,4.13Z" transform="translate(-217.59 -259.37)"/><path class="cls-3" d="M302.94,466.42a7.59,7.59,0,0,1,4.5-5.75c4-1.62,9,1,9,4.25,0,0-7,.75-7.25,7l-1.25-1.25A7.42,7.42,0,0,0,302.94,466.42Z" transform="translate(-217.59 -259.37)"/><path class="cls-1" d="M225.69,337.67l-.13,10.75s2.38,6.13,8,6.5,13-2.25,14.88-8.5-1.5-9.62-1.5-9.62a12.88,12.88,0,0,0-9.25-5.88A11,11,0,0,0,225.69,337.67Z" transform="translate(-217.59 -259.37)"/><path class="cls-1" d="M264.31,343.67a10.9,10.9,0,0,0-10.75,4.75c-4.25,6.13-2.37,9.75-2.37,9.75s1.12,2.63,5.12,4.75,14.25.5,16.5-6.37S267.56,344.17,264.31,343.67Z" transform="translate(-217.59 -259.37)"/><path class="cls-1" d="M317.31,385.55s-8.12.5-10.12,6.62,1.5,12.75,8.37,14.88,11.5-3,13-8.38S326.81,385.05,317.31,385.55Z" transform="translate(-217.59 -259.37)"/><path class="cls-1" d="M347.44,370.3a8.8,8.8,0,0,0-8.88,4.25c-3.37,5.37-.87,10.37,2.25,12.25s11.25.87,13.63-4.25A8.74,8.74,0,0,0,347.44,370.3Z" transform="translate(-217.59 -259.37)"/><path class="cls-1" d="M339.19,401.3l-5.13,13.62a10.45,10.45,0,0,0,8.75,5.63c6.25.25,12.63-3.25,13.13-10s-5.13-13.25-14.5-9.88Z" transform="translate(-217.59 -259.37)"/><path class="cls-1" d="M350.19,441.92s-6,.38-7.88,5.13,1.63,10.25,8,11.12a7.54,7.54,0,0,0,9-7.62C359.19,447.17,357.69,441.8,350.19,441.92Z" transform="translate(-217.59 -259.37)"/><path d="M235.61,266.21A10.64,10.64,0,0,0,225,276.84V480a10.64,10.64,0,0,0,10.63,10.63H352.77A10.64,10.64,0,0,0,363.4,480V276.84a10.64,10.64,0,0,0-10.63-10.63ZM226.4,480V276.84a9.22,9.22,0,0,1,9.21-9.21H352.77a9.22,9.22,0,0,1,9.21,9.21V480a9.22,9.22,0,0,1-9.21,9.21H235.61A9.22,9.22,0,0,1,226.4,480Z" transform="translate(-217.59 -259.37)"/><path d="M237.78,436.86c-10-2.42-12.73,5-12.76,5.08l1.34.46c.09-.27,2.44-6.58,11.64-4l.61.17.24-.58c.19-.48,5-11.76,16.53-10.81C266,428,269,435.44,269.74,439.8l.11.6.61,0c.45,0,11-.22,12.53,10.89.53,3.82-.09,6.86-1.85,9a10.16,10.16,0,0,1-6.5,3.4l-1.28.1.76,1a14.24,14.24,0,0,1,1.4,12.59c-1.19,3.26-4.78,5.94-9.37,7-5,1.14-9.73.11-12.72-2.77l-.39-.38-.47.29c-.09.05-8.78,5.22-17.54.48-8.58-4.64-3.24-17.72-3.19-17.86l.28-.65-.66-.27c-1.73-.73-4.66-2.3-5.12-3.38l-1.3.56c.69,1.62,3.8,3.19,5.25,3.85a26.8,26.8,0,0,0-1.54,8.46c0,3.93,1.21,8.16,5.6,10.53,8.5,4.6,16.64.75,18.53-.27,3.35,2.93,8.36,4,13.59,2.79,5-1.17,9-4.19,10.39-7.89a15.86,15.86,0,0,0,1-5.41,15.57,15.57,0,0,0-2-7.56,11.16,11.16,0,0,0,6.39-3.74,11.46,11.46,0,0,0,2.35-7.41,20.42,20.42,0,0,0-.2-2.73c-1.51-10.81-10.91-12-13.37-12.09-.87-4.08-4-12.33-15.52-13.27C244.39,424.81,239,434.45,237.78,436.86Z" transform="translate(-217.59 -259.37)"/><path d="M252,442.55a.69.69,0,0,0-.68.73l.16,4.17a.71.71,0,0,0,1.42-.06l-.17-4.16A.69.69,0,0,0,252,442.55Z" transform="translate(-217.59 -259.37)"/><path d="M247.83,443.57a.71.71,0,0,0-.49.88l1,3.5a.71.71,0,1,0,1.36-.39l-1-3.5A.69.69,0,0,0,247.83,443.57Z" transform="translate(-217.59 -259.37)"/><path d="M243.26,446.54a.71.71,0,0,0,.21,1l2.83,1.83a.71.71,0,0,0,1-.21.7.7,0,0,0-.21-1l-2.83-1.83A.7.7,0,0,0,243.26,446.54Z" transform="translate(-217.59 -259.37)"/><path d="M240.37,450.47a.72.72,0,0,0,.37.94l4.67,2a.71.71,0,0,0,.93-.38.7.7,0,0,0-.37-.93l-4.67-2A.72.72,0,0,0,240.37,450.47Z" transform="translate(-217.59 -259.37)"/><path d="M244.24,454.22l-5,.84a.7.7,0,1,0,.23,1.39l5-.83a.71.71,0,1,0-.23-1.4Z" transform="translate(-217.59 -259.37)"/><path d="M244.29,457.84l-2.67,1.83a.72.72,0,0,0-.18,1,.71.71,0,0,0,1,.18l2.67-1.84a.7.7,0,0,0,.18-1A.71.71,0,0,0,244.29,457.84Z" transform="translate(-217.59 -259.37)"/><path d="M246.05,460.89l-2.83,2.5a.71.71,0,1,0,.94,1.06L247,462a.7.7,0,0,0,.06-1A.71.71,0,0,0,246.05,460.89Z" transform="translate(-217.59 -259.37)"/><path d="M247.5,464.12l-.67,3.33a.7.7,0,0,0,.55.83.71.71,0,0,0,.84-.55l.66-3.34a.7.7,0,1,0-1.38-.27Z" transform="translate(-217.59 -259.37)"/><path d="M251.31,464.75v3.34a.71.71,0,0,0,1.42,0v-3.34a.71.71,0,0,0-1.42,0Z" transform="translate(-217.59 -259.37)"/><path d="M254.53,463.63a.7.7,0,0,0-.3.95l1.67,3.17a.7.7,0,0,0,1,.3.71.71,0,0,0,.3-1l-1.67-3.17A.7.7,0,0,0,254.53,463.63Z" transform="translate(-217.59 -259.37)"/><path d="M256.76,462.87a.71.71,0,0,0,.21,1,39.21,39.21,0,0,1,3.22,2.24.71.71,0,0,0,1-1,39.29,39.29,0,0,0-3.45-2.43A.71.71,0,0,0,256.76,462.87Z" transform="translate(-217.59 -259.37)"/><path d="M259.22,460.78a.71.71,0,0,0,.33,1l3.5,1.66a.71.71,0,0,0,.95-.33.73.73,0,0,0-.34-.95l-3.5-1.66A.7.7,0,0,0,259.22,460.78Z" transform="translate(-217.59 -259.37)"/><path d="M260.33,458.44a.71.71,0,0,0,.55.84l4,.83a.71.71,0,1,0,.29-1.38l-4-.84A.71.71,0,0,0,260.33,458.44Z" transform="translate(-217.59 -259.37)"/><path d="M261.78,455.55a.71.71,0,0,0,.15,1.41,14.3,14.3,0,0,1,3.26-.08.76.76,0,0,0,.92-.33.68.68,0,0,0-.19-.89C265.44,455.35,264.05,455.31,261.78,455.55Z" transform="translate(-217.59 -259.37)"/><path d="M265,451.06l-3.5.84a.7.7,0,0,0-.53.85.71.71,0,0,0,.85.53l3.5-.84a.71.71,0,1,0-.32-1.38Z" transform="translate(-217.59 -259.37)"/><path d="M263.25,448.43l-2.83,1.17a.71.71,0,1,0,.54,1.31l2.83-1.17a.7.7,0,0,0,.39-.92A.71.71,0,0,0,263.25,448.43Z" transform="translate(-217.59 -259.37)"/><path d="M260.87,445.07l-2.66,2.5a.71.71,0,0,0,0,1,.7.7,0,0,0,1,0l2.67-2.5a.7.7,0,0,0,0-1A.71.71,0,0,0,260.87,445.07Z" transform="translate(-217.59 -259.37)"/><path d="M255.48,444l-.33,3.67a.71.71,0,0,0,.64.77.7.7,0,0,0,.77-.64l.34-3.67a.72.72,0,0,0-.65-.77A.71.71,0,0,0,255.48,444Z" transform="translate(-217.59 -259.37)"/><path d="M291.5,469.23a8,8,0,0,0-1,7.62c2.28,5.78,8.65,5.63,9,5.61a9.79,9.79,0,0,0,7.68-2.06,7.25,7.25,0,0,0,2.53-5.65c0-5.34-4.35-9.35-10.35-9.54A9.44,9.44,0,0,0,291.5,469.23Zm.35,7.1a6.49,6.49,0,0,1,.81-6.29,8.08,8.08,0,0,1,6.67-3.41c5.21.16,9,3.58,9,8.12a5.83,5.83,0,0,1-2,4.57,8.45,8.45,0,0,1-6.64,1.73h-.14C299.25,481.06,293.8,481.27,291.85,476.33Z" transform="translate(-217.59 -259.37)"/><path d="M313.58,464.93a7.86,7.86,0,0,0-4.95,7.47,4.78,4.78,0,0,0,0,.53,4.73,4.73,0,0,0-.13,1.06,7.28,7.28,0,0,0,2.65,5.32,7.16,7.16,0,0,0,7.45,1.44c5-2,7-5.12,6.44-10.08a7.22,7.22,0,0,0-3.6-5.41A8.8,8.8,0,0,0,313.58,464.93Zm-1.48,13.31a5.51,5.51,0,0,1-2.06-5.15l0-.13,0-.13a6.43,6.43,0,0,1,4.07-6.59,7.41,7.41,0,0,1,6.62.24,5.84,5.84,0,0,1,2.9,4.35c.5,4.33-1.11,6.82-5.56,8.6A5.75,5.75,0,0,1,312.1,478.24Z" transform="translate(-217.59 -259.37)"/><path d="M290.64,474.46l.1-1.41c-9.36-.62-9.19-10.84-9.18-11.28l-1.41,0C280.14,461.85,279.92,473.76,290.64,474.46Z" transform="translate(-217.59 -259.37)"/><path d="M303.92,436.55c-10.84,1.64-13.09,9.39-13.51,11.56-5.67.51-7,3.24-7,3.36l1.3.58s1.16-2.29,6.39-2.59l.61,0,.06-.61c0-.38,1-9.14,12.4-10.86s14.26,7.44,14.38,7.83l.14.47.5,0c.11,0,11.5.75,15.59,8a12.53,12.53,0,0,1,0,12.51c-2,3.18-5.58,4.76-10,4.43l-.1,1.42c5,.36,9-1.45,11.33-5.09a12.72,12.72,0,0,0,1.87-6.81,14.64,14.64,0,0,0-1.87-7.16c-4-7.15-14-8.45-16.27-8.65C318.9,442.88,315,434.88,303.92,436.55Z" transform="translate(-217.59 -259.37)"/><path d="M297,463.17a.7.7,0,0,0,.41.91l3.5,1.34a.71.71,0,0,0,.5-1.33l-3.5-1.33A.7.7,0,0,0,297,463.17Z" transform="translate(-217.59 -259.37)"/><path d="M298.62,460a.7.7,0,0,0,.15,1l3.17,2.33a.7.7,0,0,0,1-.15.72.72,0,0,0-.15-1l-3.17-2.33A.71.71,0,0,0,298.62,460Z" transform="translate(-217.59 -259.37)"/><path d="M300.87,457.57a.71.71,0,0,0,0,1l2.33,2.5a.71.71,0,0,0,1,0,.72.72,0,0,0,0-1l-2.33-2.5A.72.72,0,0,0,300.87,457.57Z" transform="translate(-217.59 -259.37)"/><path d="M304,456a.71.71,0,0,0-.32.95l1.34,2.67a.71.71,0,0,0,.95.32.7.7,0,0,0,.31-.95L305,456.27A.71.71,0,0,0,304,456Z" transform="translate(-217.59 -259.37)"/><path d="M307.78,454.38a.71.71,0,0,0-.63.78l.33,3.17a.71.71,0,0,0,.78.63.7.7,0,0,0,.63-.78l-.33-3.17A.71.71,0,0,0,307.78,454.38Z" transform="translate(-217.59 -259.37)"/><path d="M310.31,454.75v3.5a.71.71,0,1,0,1.42,0v-3.5a.71.71,0,0,0-1.42,0Z" transform="translate(-217.59 -259.37)"/><path d="M313.33,455l-.67,3.5a.71.71,0,0,0,1.39.26l.67-3.5a.71.71,0,1,0-1.39-.26Z" transform="translate(-217.59 -259.37)"/><path d="M317.17,456.61l-2,2.16a.71.71,0,1,0,1,1l2-2.16a.71.71,0,0,0-1-1Z" transform="translate(-217.59 -259.37)"/><path d="M319.89,459.28l-2.84,1.33a.71.71,0,1,0,.61,1.29l2.83-1.34a.71.71,0,0,0-.6-1.28Z" transform="translate(-217.59 -259.37)"/><path d="M320.75,462.1l-2.83,1.17a.7.7,0,0,0-.39.92.73.73,0,0,0,.93.39l2.83-1.17a.71.71,0,1,0-.54-1.31Z" transform="translate(-217.59 -259.37)"/><path d="M341.79,471.77a9.79,9.79,0,0,0-4,8.32c0,9.09,10.59,9.37,10.7,9.37h.07c3.71-.32,7.46-1.11,9.12-6.84,1.61-5.54-.95-10.93-6-12.54A11.64,11.64,0,0,0,341.79,471.77Zm-2.56,8.32a8.47,8.47,0,0,1,3.4-7.17,10.31,10.31,0,0,1,8.68-1.49,8,8,0,0,1,5.45,7.91,10,10,0,0,1-.42,2.88c-1.41,4.86-4.38,5.52-7.84,5.82C347.89,488,339.23,487.67,339.23,480.09Z" transform="translate(-217.59 -259.37)"/><path d="M347,477.4c-5.5,1.53-7.57.28-7.59.26l-.79,1.18c.25.17,2.62,1.64,8.76-.07s7.89-5.24,8-5.39l-1.3-.59S352.55,475.86,347,477.4Z" transform="translate(-217.59 -259.37)"/><path d="M352,488.68l.78-1.18c-5.88-3.87-5.54-8.81-5.52-9l-1.41-.12C345.79,478.6,345.36,484.33,352,488.68Z" transform="translate(-217.59 -259.37)"/><path d="M327.3,487.59a13.12,13.12,0,0,0,13.22-2.5l-1-1a11.72,11.72,0,0,1-11.78,2.17c-7-2.29-6.85-6.77-6.84-7l-1.42-.08C319.47,479.44,319.21,485,327.3,487.59Z" transform="translate(-217.59 -259.37)"/><path d="M333.34,469.77c.05,0,4.79,1.28,5.67,4.5l1.36-.37c-1.09-4-6.44-5.44-6.67-5.5Z" transform="translate(-217.59 -259.37)"/><path d="M323.25,476.64c.2.16,5,3.84,15.19,2.65l-.17-1.41c-9.54,1.12-14.1-2.32-14.14-2.35Z" transform="translate(-217.59 -259.37)"/><path d="M328.48,487.37l1.42.1a85.93,85.93,0,0,1,1.15-8.75l-1.39-.27A87.91,87.91,0,0,0,328.48,487.37Z" transform="translate(-217.59 -259.37)"/><path d="M336.27,462.69l1.17.8c.11-.15,2.68-3.73,8.74-2.22a4.57,4.57,0,0,1,3.15,2.28c1.35,2.61-.12,6.41-.13,6.44l1.32.52c.07-.17,1.71-4.42.07-7.61a5.89,5.89,0,0,0-4.06-3C339.46,458.13,336.4,462.5,336.27,462.69Z" transform="translate(-217.59 -259.37)"/><path d="M342.32,471.82l1.41-.13c-.23-2.31-.56-8.77.59-10.94l-1.26-.66C341.48,463.08,342.28,471.47,342.32,471.82Z" transform="translate(-217.59 -259.37)"/><rect x="338.81" y="462.42" width="1.42" height="7.5" transform="translate(-454.71 198.72) rotate(-53.13)"/><path d="M343.74,443.94a9.15,9.15,0,0,0-2.25,7.74c.9,6.49,9.45,7.25,9.81,7.28h0a8,8,0,0,0,6.13-2.25,8.46,8.46,0,0,0,2.26-6.16c-.11-2-1-8.72-8.15-9.34A9.55,9.55,0,0,0,343.74,443.94Zm-.85,7.55a10.43,10.43,0,0,1-.09-1.35,7.44,7.44,0,0,1,2-5.23,8.07,8.07,0,0,1,6.7-2.28c5.83.5,6.74,5.76,6.85,8a7,7,0,0,1-1.85,5.1,6.54,6.54,0,0,1-5.06,1.83C351.25,457.53,343.63,456.82,342.89,451.49Z" transform="translate(-217.59 -259.37)"/><path d="M349.86,450.73c-5,1.21-7.22-1.18-7.31-1.28l-1.06.94c.11.13,2.85,3.14,8.7,1.72a9.68,9.68,0,0,0,7.19-6.69l-1.38-.33A8.23,8.23,0,0,1,349.86,450.73Z" transform="translate(-217.59 -259.37)"/><path d="M353.75,458.24l.55-1.31a5.67,5.67,0,0,1-3.57-5.46l-1.41-.1A7.17,7.17,0,0,0,353.75,458.24Z" transform="translate(-217.59 -259.37)"/><path d="M287.66,425.24A10.49,10.49,0,0,0,284,434c.91,9.1,8.91,9.8,9,9.8l.11-1.41c-.28,0-6.9-.64-7.69-8.53a9,9,0,0,1,3.22-7.55,12.37,12.37,0,0,1,10.77-2.85,8.35,8.35,0,0,1,6.54,5.84c.95,3,.33,5.84-.75,7l1,1c1.61-1.71,2.06-5.24,1.06-8.38a9.72,9.72,0,0,0-7.61-6.8A13.84,13.84,0,0,0,287.66,425.24Z" transform="translate(-217.59 -259.37)"/><path d="M293.66,442l1.4-.2c0-.11-1.51-11.21,6.42-18l-.92-1.07C292,430.05,293.59,441.54,293.66,442Z" transform="translate(-217.59 -259.37)"/><path d="M285.24,429.22l.24,1.4s5.73-1,10.18.32l.39-1.37C291.29,428.21,285.48,429.18,285.24,429.22Z" transform="translate(-217.59 -259.37)"/><path d="M235.81,416.31a8.67,8.67,0,0,0-.89,8.89,9.76,9.76,0,0,0,8.21,6.09l.12-1.41a8.38,8.38,0,0,1-7-5.23,7.28,7.28,0,0,1,.69-7.45,8.41,8.41,0,0,1,7-2.9,8.21,8.21,0,0,1,6.51,3.51c2.9,4.42,1.35,8,1.28,8.15l1.29.59c.08-.18,2-4.42-1.38-9.52a9.68,9.68,0,0,0-7.63-4.15A9.85,9.85,0,0,0,235.81,416.31Z" transform="translate(-217.59 -259.37)"/><path d="M251.89,419.6l1.27.64c.08-.16,2.07-3.94,7.53-3.94a7.14,7.14,0,0,1,5.73,2.37,6.6,6.6,0,0,1,1.41,5.3,6.84,6.84,0,0,1-3.75,4.8l.56,1.3a8.25,8.25,0,0,0,4.58-5.86,8,8,0,0,0-1.72-6.45,8.47,8.47,0,0,0-6.81-2.88C254.33,414.88,252,419.41,251.89,419.6Z" transform="translate(-217.59 -259.37)"/><path d="M256.82,386.88A12.83,12.83,0,0,0,244.36,397a12.39,12.39,0,0,0-9.2-1.06c-4.53,1.27-8.52,6.55-7,13.82,1.56,7.43,6.19,9.73,6.39,9.83l.62-1.28s-4.22-2.14-5.62-8.84c-1.52-7.26,2.75-11.26,6-12.17a11.21,11.21,0,0,1,8.89,1.39l1,.7.14-1.19a11.46,11.46,0,0,1,11.33-9.88c6.59-.3,11.31,2.76,13.53,5.73,1.31,1.76,1.86,3.61,1.43,4.83l-.33,1h1c.1,0,9.94-.07,11.47,6.94a13.31,13.31,0,0,1-2.28,10.54c-2,2.75-5.89,6.22-13.45,7.1l.17,1.41c6.29-.74,11.42-3.46,14.44-7.68a15,15,0,0,0,2.82-8.69,13.6,13.6,0,0,0-.32-3c-1.48-6.84-9.45-7.87-12-8,0-.16.07-.29.07-.45a8.34,8.34,0,0,0-1.86-4.78C269.12,389.92,264,386.55,256.82,386.88Z" transform="translate(-217.59 -259.37)"/><path d="M243.36,412.71a.71.71,0,0,0,0,1.42h4.33a.71.71,0,0,0,0-1.42Z" transform="translate(-217.59 -259.37)"/><path d="M243.17,411.07a.71.71,0,0,0,.5.87l4.34,1.17a.71.71,0,0,0,.86-.51.69.69,0,0,0-.5-.86L244,410.57A.71.71,0,0,0,243.17,411.07Z" transform="translate(-217.59 -259.37)"/><path d="M244.73,408.43a.7.7,0,0,0,.3.95l3.5,1.83a.7.7,0,0,0,.95-.29.71.71,0,0,0-.3-1l-3.5-1.83A.7.7,0,0,0,244.73,408.43Z" transform="translate(-217.59 -259.37)"/><path d="M246.59,404.86a.72.72,0,0,0-.13,1l2.34,3a.71.71,0,0,0,1.12-.87l-2.34-3A.7.7,0,0,0,246.59,404.86Z" transform="translate(-217.59 -259.37)"/><path d="M250,402.25a.72.72,0,0,0-.43.91l1.34,3.67a.7.7,0,0,0,.91.42.72.72,0,0,0,.42-.91l-1.33-3.66A.72.72,0,0,0,250,402.25Z" transform="translate(-217.59 -259.37)"/><path d="M253.57,401.22a.71.71,0,0,0-.58.82l.67,3.84a.71.71,0,1,0,1.39-.25l-.66-3.83A.72.72,0,0,0,253.57,401.22Z" transform="translate(-217.59 -259.37)"/><path d="M256.82,402l-.34,4a.71.71,0,0,0,1.42.12l.33-4a.72.72,0,0,0-.65-.77A.71.71,0,0,0,256.82,402Z" transform="translate(-217.59 -259.37)"/><path d="M261.89,404.05l-2.33,2a.71.71,0,0,0,.92,1.08l2.34-2a.71.71,0,0,0,.07-1A.7.7,0,0,0,261.89,404.05Z" transform="translate(-217.59 -259.37)"/><path d="M265.86,406.29l-3.5,1.84a.7.7,0,0,0-.3.95.71.71,0,0,0,1,.3l3.5-1.83a.71.71,0,0,0,.3-1A.72.72,0,0,0,265.86,406.29Z" transform="translate(-217.59 -259.37)"/><path d="M263.32,411.22a.7.7,0,0,0,.67.74l3.84.17a.71.71,0,0,0,.06-1.42l-3.84-.16A.69.69,0,0,0,263.32,411.22Z" transform="translate(-217.59 -259.37)"/><path d="M264.32,414.67a.71.71,0,0,0,.62.79l4,.5a.71.71,0,0,0,.17-1.41l-4-.5A.71.71,0,0,0,264.32,414.67Z" transform="translate(-217.59 -259.37)"/><path d="M225.65,394.08a.71.71,0,0,0-.47.88,5.89,5.89,0,0,0,6.83,4.49.71.71,0,0,0-.3-1.39c-.16,0-3.89.78-5.17-3.51A.71.71,0,0,0,225.65,394.08Z" transform="translate(-217.59 -259.37)"/><path d="M225.16,384.43a.71.71,0,0,0,1.39.32c0-.21,1.32-5.2,8.38-4.29a9.19,9.19,0,0,1,8.38,8.29.71.71,0,1,0,1.42,0,10.57,10.57,0,0,0-9.62-9.7C226.74,378,225.18,384.36,225.16,384.43Z" transform="translate(-217.59 -259.37)"/><path d="M226,388.79c7.16.63,10.55,7.69,10.59,7.76l1.28-.6c-.15-.32-3.76-7.87-11.74-8.57Z" transform="translate(-217.59 -259.37)"/><path d="M231,389.76l1.38.32c0-.07,1.65-7,6.36-8.49l-.43-1.34C232.82,382,231.07,389.45,231,389.76Z" transform="translate(-217.59 -259.37)"/><path d="M290.25,396.22c-6.86,1-8.5,5.94-8.57,6.15l1.35.44c.06-.18,1.48-4.27,7.43-5.19A9,9,0,0,1,298,400a11.08,11.08,0,0,1,3.68,8.68c-.33,6.51-6.2,9.28-9.25,9.84-3.45.62-7.51-1-8.68-2.28l-1.06.94c1.45,1.64,5.95,3.46,10,2.73,3.44-.62,10-3.76,10.41-11.16a12.47,12.47,0,0,0-4.14-9.8A10.56,10.56,0,0,0,290.25,396.22Z" transform="translate(-217.59 -259.37)"/><path d="M286.76,398.48c8.85,6.8,5.61,20.13,5.58,20.27l1.37.34c.15-.58,3.5-14.37-6.09-21.73Z" transform="translate(-217.59 -259.37)"/><path d="M293.43,410.08a18.73,18.73,0,0,0,8.7.88l-.21-1.41a17.52,17.52,0,0,1-8-.79Z" transform="translate(-217.59 -259.37)"/><path d="M317.37,384.88c-.12,0-11.05-.05-11.22,10.7a11.6,11.6,0,0,0,3.76,9.21,14,14,0,0,0,9.7,3.5c2.92-.34,10.69-4.09,9.78-13.11a11.19,11.19,0,0,0-4.46-8.29A10.36,10.36,0,0,0,317.37,384.88Zm.13,1.4a9,9,0,0,1,6.59,1.75,9.91,9.91,0,0,1,3.89,7.29c.79,7.87-6.08,11.27-8.54,11.56a12.62,12.62,0,0,1-8.58-3.15,10.2,10.2,0,0,1-3.29-8.13c.15-9.33,9.38-9.31,9.78-9.3h.07Z" transform="translate(-217.59 -259.37)"/><path d="M313.82,406.85l1.41.14c1.44-14.38,9.69-18.73,9.78-18.77l-.64-1.27C324,387.14,315.34,391.64,313.82,406.85Z" transform="translate(-217.59 -259.37)"/><path d="M307.3,393.13c.06,0,6.13.52,9.23,3.47l1-1c-3.48-3.3-9.83-3.83-10.1-3.86Z" transform="translate(-217.59 -259.37)"/><path d="M338.42,401.53l.87,1.12a10.78,10.78,0,0,1,12.19-.46,7.79,7.79,0,0,1,3.62,7.35,11.09,11.09,0,0,1-5.72,9.08,12.21,12.21,0,0,1-10.59,0,6.92,6.92,0,0,1-3.9-5l-1.4.23a8.28,8.28,0,0,0,4.65,6,13.66,13.66,0,0,0,11.86,0,12.53,12.53,0,0,0,6.51-10.27,9.27,9.27,0,0,0-4.27-8.63C345.06,396.44,338.48,401.48,338.42,401.53Z" transform="translate(-217.59 -259.37)"/><path d="M338.57,406.79A24.93,24.93,0,0,1,353.12,416l1.14-.83a25.87,25.87,0,0,0-15.46-9.78Z" transform="translate(-217.59 -259.37)"/><path d="M344.46,407.83l1.13.85a12.81,12.81,0,0,1,8.49-4.39l-.12-1.41A14,14,0,0,0,344.46,407.83Z" transform="translate(-217.59 -259.37)"/><path d="M345.11,369.55c-7.48.89-8.45,9.05-8.46,9.13h0c-.32,3.18.49,5.78,2.34,7.54a9.42,9.42,0,0,0,8,2.07c5.18-.79,8.4-4.09,8.6-8.84a10.36,10.36,0,0,0-3.15-7.72A8.85,8.85,0,0,0,345.11,369.55Zm.16,1.41a7.35,7.35,0,0,1,6.17,1.81,9,9,0,0,1,2.71,6.62c-.18,4.08-2.88,6.81-7.4,7.5a8,8,0,0,1-6.78-1.7,6.91,6.91,0,0,1-2-5.2,11.56,11.56,0,0,1,.06-1.16C338.1,378.52,338.94,371.71,345.27,371Z" transform="translate(-217.59 -259.37)"/><path d="M337.94,375.72l.16,1.41c.1,0,9.86-1,15.37,5.9l1.11-.88C348.57,374.59,338.37,375.67,337.94,375.72Z" transform="translate(-217.59 -259.37)"/><path d="M344.23,376.59l1.25.67s2.24-4.08,5.72-5l-.36-1.37C346.76,372,344.33,376.4,344.23,376.59Z" transform="translate(-217.59 -259.37)"/><path d="M236,330.21a11.56,11.56,0,0,0-11.17,7.68l1.36.39c.08-.26,2-6.5,9.84-6.65a11.11,11.11,0,0,1,8.18,3,11.84,11.84,0,0,1,3.43,8.27c0,4.83-2.84,10.65-10.84,11.13-3.74.22-6.69-.66-8.53-2.54a6.63,6.63,0,0,1-1.88-5.2L225,346.2a8.1,8.1,0,0,0,2.28,6.3c1.5,1.53,4.38,3.28,9.64,3,9-.54,12.16-7.09,12.16-12.54a13.26,13.26,0,0,0-3.85-9.28A12.47,12.47,0,0,0,236,330.21Z" transform="translate(-217.59 -259.37)"/><path d="M239.21,354.22l1.29-.6c-5.92-12.8-.43-22.07-.37-22.16l-1.21-.74C238.67,331.12,233,340.7,239.21,354.22Z" transform="translate(-217.59 -259.37)"/><path d="M226.6,336.62c.07,0,7.45,1,9.76,6.89l1.32-.52c-2.62-6.64-10.56-7.73-10.9-7.77Z" transform="translate(-217.59 -259.37)"/><path d="M260,343.07c-8,1.92-8.69,10.64-8.7,10.8a11.07,11.07,0,0,0-.06,1.15,10.06,10.06,0,0,0,2.84,7.28c2,2,4.9,2.76,8.35,2.32,9.19-1.17,11.11-6.28,11.11-10.37a12.81,12.81,0,0,0-4.84-9.25A9.93,9.93,0,0,0,260,343.07Zm-4.94,18.22a9,9,0,0,1-2.35-7.3v0c0-.31.57-7.83,7.62-9.52a8.55,8.55,0,0,1,7.49,1.67,11.44,11.44,0,0,1,4.31,8.14c0,5.12-3.33,8.13-9.88,9C259.26,363.6,256.78,362.93,255.08,361.29Zm-3.76-7.41v0Z" transform="translate(-217.59 -259.37)"/><path d="M252.86,360.5l1.32.51c.15-.38,3.72-9.17,18.3-8.38l.08-1.42C256.89,350.36,253,360.09,252.86,360.5Z" transform="translate(-217.59 -259.37)"/><path d="M258.57,354.94l1.24-.7c0-.05-2.68-4.82-1.6-9.15l-1.37-.34C255.61,349.63,258.45,354.72,258.57,354.94Z" transform="translate(-217.59 -259.37)"/><path d="M239.36,396.09s7.58-15.92,8.08-49.17a12.8,12.8,0,0,0-.75-10.33s-2.33-41.67-17.5-61c0,0-1.67-3,.5-4.34s4.5.34,6,2.84,16.75,27.33,18.5,73.83c0,0-4,2.67-1.17,12a20.2,20.2,0,0,1,.34,2.17c0,.5-2.5,16.83-5.5,29,0,0-2.84,4-3,7Z" transform="translate(-217.59 -259.37)"/><path d="M314.52,386.09s1.84-23,3.34-27.67,6.66-2.5,5.5,1.83a148.79,148.79,0,0,0-3.5,25.34S316.36,385.25,314.52,386.09Z" transform="translate(-217.59 -259.37)"/><path d="M315,407.09s-.16,8.83,2.5,15.5c0,0-8,10.83-10.33,14.5a11.91,11.91,0,0,1,10,4.83s-.67-3.67,0-5.67,16.5-16.5,20-24.66a51.44,51.44,0,0,0,3.33-24.67s-6.33-3-1.33-13.33a76.28,76.28,0,0,1,1.33-30.5c4.17-16.34,11.17-21.34,12.17-22.34s1.67-2.5.5-4-5-.16-6.33,1.17a67.44,67.44,0,0,0-12,20.5c-3.84,10.67-3.17,28-2.17,35.5s6.83,29.83-9.17,42.5c0,0-3.16-4-3-8.67A13.19,13.19,0,0,1,315,407.09Z" transform="translate(-217.59 -259.37)"/><path d="M265.19,485.59s4,3.83,3.17,4.16H317s-2.33-4.66-.33-8.83c0,0-6.17-1.67-7.5-5,0,0-.33,5.33-7.83,5.83s-10.84-4.66-11.17-7.5L287,472.92a5.5,5.5,0,0,1-.33,3.5c-.83,1.33-1.5,4.17-1,5.5a12.18,12.18,0,0,0-4-3c-2.33-1-4.67-2-5-3C276.69,475.92,275,483.59,265.19,485.59Z" transform="translate(-217.59 -259.37)"/></svg>