<svg id="_3_1" xmlns="http://www.w3.org/2000/svg" viewBox="0 0 153.07 238.11"><defs><style>.cls-1{fill:#ed1c24;}.cls-2{fill:#fff;}.cls-3{fill:#f9aa8f;}.cls-4{fill:#0066b3;}</style></defs><title>_3_1</title><rect class="cls-1" width="153.07" height="238.11"/><path class="cls-2" d="M357.34,287.19l-118-.33s-8-.5-9.16,10.67L230,485.36l.33,17s.34,9.33,12,9.33l113.84.17s9.33,0,10.33-10l.17-5.33-.5-199.67A9.78,9.78,0,0,0,357.34,287.19Z" transform="translate(-221.81 -280.05)"/><path class="cls-3" d="M347.84,386.36s6.34-1.17,9.84-4.17c0,0-4.67-3.83-5.17-5.5l4.83-4.33s.5-5.17-12.16-4.17c0,0,1.33-8.16-4.17-12.5l-9.17-3.16a52.63,52.63,0,0,0-5-2.34c-1.16-.33-1.16-5.33-1.16-5.33l10.16-17.17,11.34-11.5,4-4.5-.5-4.16s1-3.84-11.67-5c0,0-.42-6.17-2.67-8.3,0,0-3.12,1.13-4.12,3.13,0,0-2.38-2.88-4.13-2.88a8.25,8.25,0,0,0-3.12.63l-2.88,4.37s-5.5,9.25-5.75,9.63-9.62,9.87-9.62,9.87l-9.13,4.25L287,324.73h-6.63l-9.62-7.25,2.5-8.25,4-2.5-1.13-6.37s-2-3.88-2.37-4.38-13.63-9.12-13.63-9.12h-9.37l-13,4.12-3,4.75.75,5.5-.63,2,3,9.88L243,335.73l.62,7.13s-5.25-.5-8.25,1.12a11.86,11.86,0,0,0,.13,4.25L231.59,350s-.25,5.25,5,10.75a14.22,14.22,0,0,0-5.5,9.5c-.62,6.13,1,6,1,6l8.13,5.63,3.12-.25,4.13-4.13,1.87-2.75a20.54,20.54,0,0,0,10.88,6.38c6.62,1.25,18.12,2.87,18.12,2.87l27.5-3.87,32.75,5.37Z" transform="translate(-221.81 -280.05)"/><path class="cls-1" d="M345.84,296.36s2.84,3.83,8.84,2.5,6-4.67,6-5.5-1.84-4.33-8.34-2.83S345.84,295,345.84,296.36Z" transform="translate(-221.81 -280.05)"/><path class="cls-1" d="M350,328.36s4.62.62,8.12-1.88,3.38-6.12,0-7.62-8.37.5-8.37.5-1.38-3.13-3.5-4.25-8.38-.88-8.38-.88a2,2,0,0,1-.37-1.25c.12-.5,0-7.37-3.63-11.5,0,0-3.5,0-5.62,1.63a10.46,10.46,0,0,0-3.5-3.25s.25-5.38,3.87-5.13a4.58,4.58,0,0,0-3-4.87,17.18,17.18,0,0,0-4.5,2.5s-2-3.13-3.87-3.5a8.21,8.21,0,0,0-6.13,5.37c-1.5,4.63-.5,12-.5,12s-5.37.5-8,2.75a16,16,0,0,0,1.75,6.38,10.88,10.88,0,0,0-3.87,3.25s-8.63,1.87-11.13,3.62c0,0-.25-5.25-2.12-6.75a29.19,29.19,0,0,0-4-2.62L279,315.73,273.72,314l-1.38.38.63-3.75-2-1s-3.75-.75-5.88-.13c0,0-2-6.5-5.75-9,0,0-3.5,2.5-4.5,4.88,0,0-.5-4.13-2.5-5.13,0,0-5.12,2.13-5.62,7.25,0,0-5.88-1.5-8.88-.75l-3,.75,1.5,3.63V313s-4.25,1.63-5.62,3.25l-.63,1.75s3.88,4.63,7.75,6.75a14.71,14.71,0,0,0-3.62,12,5.47,5.47,0,0,0,4.75-1.87l5,6.87s3.62-4.75,5.37-5.87l3.13,3.62,5.62-3a12.87,12.87,0,0,1,7.38,9.38s7.62,1,9.5,4.75c0,0-.25,2.75-4.88,4.75l4.75,4s-1.37,4.75-7.37,7.75c0,0,1.62,5.87.62,9.25a30.4,30.4,0,0,1-6.75-.38,51.81,51.81,0,0,1-1.12,5.13,3.16,3.16,0,0,0,.25,2.62l2,5,6-.5.62,6.13s5.75.62,10-1.88a8.86,8.86,0,0,0,5.38,7.38s4.5-3.25,5.37-5a15,15,0,0,0,5.63,4.37s3.62-2,6.12-8.75l2.75,2.75s-1.75,8.25-1.75,8.88,5.5-1.5,5.5-1.5.5,5.12.5,5.75,5.63.62,11.63-2.88l1.12.63s3,4.75,7.88,6.25l2.87-5.13a29.83,29.83,0,0,0,7.63.25,17.35,17.35,0,0,0,.12-11.62s5.5-4.38,7.38-7.75a12.87,12.87,0,0,0-5.5-2.75l.37-.63a32.16,32.16,0,0,0,2.13-3.75,27.37,27.37,0,0,0-8.38-2.87s-3.62-6.88-9.25-9.38l-2.12,1.63.75,6.75L317,375l-1.63,6L308,376.36l-1.25-1A34.81,34.81,0,0,1,296,378.48s-.13-3.62.62-5.12c0,0,.13-.5-1-.5s-6-1-6-1,2.88-6.13,5.25-9c0,0-3.87-7.88-4.5-12.13a9.75,9.75,0,0,1,4.88-1.75s-.63-4.37-.13-6.62c0,0,4.75-2.75,12.63.87,0,0,2.62-5,6.87-6.62L317,341a25.48,25.48,0,0,1,4.87-2.62c1.5-.38,1.38,6.12,1.38,6.12l2.12,2.88,2.38.12A36.35,36.35,0,0,0,331,343l5.62,1.25s1.5-2.5,1-10.37l3-.88,3.38-1.37Z" transform="translate(-221.81 -280.05)"/><path class="cls-1" d="M280,299s3.62-3.87,3.87-4.25-1.37-1.25-1.37-1.25l-2.38-1.75,2.63-4.62-44.25-.25s-5.75,1.25-7.13,5.37-1.12,6-1.12,6a8.1,8.1,0,0,0,6.37,3.25l3.63-2.37L239,295s2.62-3.5,8.62-1.75c0,0,1.25-4,4.5-5.25l.88.5,2.75,2.63a13.06,13.06,0,0,1,2.5-2.13,18.42,18.42,0,0,1,2.12-1,17.44,17.44,0,0,1,3.75,4.25,15.81,15.81,0,0,1,1.75,5.13s6.13-.75,8.63,2.87S280,299,280,299Z" transform="translate(-221.81 -280.05)"/><path class="cls-1" d="M238.47,372.36a52.22,52.22,0,0,0,2.25,6.75,3.36,3.36,0,0,1,.12,2.75l-2.75,1.37a5.37,5.37,0,0,1-5.12.25c-2.63-1.37-2.5-3.87-2.38-5.37s1.88-4.38,1.88-4.38A15.47,15.47,0,0,1,238.47,372.36Z" transform="translate(-221.81 -280.05)"/><path class="cls-1" d="M349.84,400.86a7.27,7.27,0,0,0,3.25,7.75c4.5,2.75,7.25.5,7.88-1s.5-4.5-3.63-6.75S350,399.73,349.84,400.86Z" transform="translate(-221.81 -280.05)"/><path class="cls-1" d="M349,368s4,.25,5.5,1.13c0,0,2.87-1.63,4.25-6.38s-2.13-7.25-4.88-7.62-5.75,1.37-5.75,5.62A28.34,28.34,0,0,0,349,368Z" transform="translate(-221.81 -280.05)"/><path class="cls-1" d="M310.84,363s3.5-.62,3.63-3.87a4.15,4.15,0,0,0-4.25-4.38c-1.63,0-3.15,1.6-2.88,4.63A4,4,0,0,0,310.84,363Z" transform="translate(-221.81 -280.05)"/><path class="cls-1" d="M252.59,362.23s3.88-.62,4-4.37a4.21,4.21,0,0,0-4.62-4.63c-1.75.13-4.38,1.5-3.63,5.13S251.47,362.11,252.59,362.23Z" transform="translate(-221.81 -280.05)"/><path d="M366.34,407.69s-17.83,6.5-54.16,4.67-73.34-17.75-81.34-21l-.5,67.5-.16,44s1,8,10.33,8.67l117.17-.17s8.16-1.5,8.83-9.83Z" transform="translate(-221.81 -280.05)"/><path class="cls-4" d="M350.09,421.48V413a.85.85,0,0,0-1-1c-1.12.13-7.62,1-7.62,1s-.5.13-.38,1l-.25,6.88s.88,1.25,1.5,1.5a1.54,1.54,0,0,0,1,.12l5.5-.62Z" transform="translate(-221.81 -280.05)"/><path class="cls-4" d="M321.84,422.61v-7.88a1,1,0,0,0-1.12-1c-1.13,0-7.25-.37-7.25-.37s-1-.25-1,.62l.25,7.63s-.25.5.75.75,6.62.37,6.62.37Z" transform="translate(-221.81 -280.05)"/><path class="cls-4" d="M294.59,420l.25-7.37a1.35,1.35,0,0,0-.75-1.38l-8.5-1.75a.86.86,0,0,0-1,.88V417s-.5.63.63,1l8.12,2S294.59,420.36,294.59,420Z" transform="translate(-221.81 -280.05)"/><path class="cls-4" d="M269,413.23l-.38-6.5a2.23,2.23,0,0,0-1.37-1.75l-6-1.87s-1-.5-.88.75l.25,6.87a1.11,1.11,0,0,0,.63,1.13l6.25,1.75S269,414.23,269,413.23Z" transform="translate(-221.81 -280.05)"/><path class="cls-4" d="M240.47,404.61l-.13-7.25a1.24,1.24,0,0,0-.62-1.25c-.75-.38-6.5-2.38-6.5-2.38a3.8,3.8,0,0,0,0,1.38c.12.87-.13,6.5-.13,6.5s-.12.37.5.87,5.63,1.88,5.63,1.88Z" transform="translate(-221.81 -280.05)"/><path class="cls-2" d="M256.34,412s-11-3.75-11.75-4.12-1.5-.5-1.25.87,3.25,3.38,6.13,4.25,6.12.75,6.87.13A.65.65,0,0,0,256.34,412Z" transform="translate(-221.81 -280.05)"/><path class="cls-2" d="M272.34,417.36a17.29,17.29,0,0,1,4.75.25c2.75.5,4.13,1,3.75,2s-1.37,1.37-5.12.12S271.09,417.48,272.34,417.36Z" transform="translate(-221.81 -280.05)"/><path class="cls-2" d="M298.72,422.11s7,.87,8.75,1,.12,3.25-4.25,2.5S296.47,421.86,298.72,422.11Z" transform="translate(-221.81 -280.05)"/><path class="cls-2" d="M325.59,424.36s9.5-.13,10.5-.25.38,3.12-4.75,3.12S323.34,424.61,325.59,424.36Z" transform="translate(-221.81 -280.05)"/><path class="cls-2" d="M353.47,422s11.25-2.12,11.87-2.12.63,2.75-4.87,3.75S352.59,422.86,353.47,422Z" transform="translate(-221.81 -280.05)"/><path class="cls-1" d="M265.59,421s-.87.63-.37,1.25a36.67,36.67,0,0,1,1.87,3.38s1,.5,1.13-.38.12-4.87.12-4.87.38-1.75-.62-1.25A8.72,8.72,0,0,0,265.59,421Z" transform="translate(-221.81 -280.05)"/><path class="cls-1" d="M264.22,423.36l2.75,3.37c.5.63,1,2.13,0,1.88s-6.13-2.13-6.13-2.13-.62-.5-.12-.87a26.59,26.59,0,0,0,2-2.13S263.72,422.73,264.22,423.36Z" transform="translate(-221.81 -280.05)"/><path class="cls-1" d="M260.09,424.48a26.58,26.58,0,0,1,2.63-2.5c.5-.25.37-1-.13-1.62s-2.25-3.75-2.25-3.75-.5-1.25-.62.25,0,7,0,7S259.72,424.86,260.09,424.48Z" transform="translate(-221.81 -280.05)"/><path class="cls-1" d="M345.18,429.36l4.29,4.62a1,1,0,0,0,.62-1.12c-.12-.88-.25-7.75-.25-7.75s-.25-1.25-.62-.88-3.63,4.38-3.63,4.38Z" transform="translate(-221.81 -280.05)"/><path class="cls-1" d="M344.59,428l3-3.62s.38-.5-.5-.5-6.25.62-6.25.62l3,3.63Z" transform="translate(-221.81 -280.05)"/><path class="cls-1" d="M344.84,430.86l3,3.62s.38.63,0,.75-6.37.25-6.37.25-.63,0-.38-.5,2.63-3.62,2.63-3.62S344.34,430.61,344.84,430.86Z" transform="translate(-221.81 -280.05)"/><path class="cls-1" d="M340.59,433.44l2.34-3.41a.69.69,0,0,0,0-.84c-.34-.41-2.59-3-2.59-3s-.41-.5-.41.42.25,6.67.25,6.67S340.43,433.78,340.59,433.44Z" transform="translate(-221.81 -280.05)"/><path class="cls-1" d="M317.72,430.73l3,3.25s.5.13.5-.5-.13-6.12-.13-6.12.13-.38-.5,0a24.47,24.47,0,0,0-2.5,2.37S317.34,430.23,317.72,430.73Z" transform="translate(-221.81 -280.05)"/><path class="cls-1" d="M316.72,431.73s2.75,3,3.12,3.38.88,1.12.25,1.25-6-.63-6-.63-.87-.25-.62-.75A39.57,39.57,0,0,1,316.72,431.73Z" transform="translate(-221.81 -280.05)"/><path class="cls-1" d="M312.59,433.61l3-3.25a.71.71,0,0,0-.25-.88,35.55,35.55,0,0,1-2.5-2.87s-.75-.63-.75.5.13,5.62.13,5.62S312.09,434.36,312.59,433.61Z" transform="translate(-221.81 -280.05)"/><path class="cls-1" d="M317,429.11s2.87-2.5,3.12-2.88.38-.62-.37-.75-5.88-.5-5.88-.5-.87,0-.37.63,2.75,2.87,2.75,2.87Z" transform="translate(-221.81 -280.05)"/><path class="cls-1" d="M291,426.86l2.25,3.87s.62.5.87-.12a57,57,0,0,0,.13-6.38s.25-1.5-.5-.87A31.17,31.17,0,0,0,291,426.86Z" transform="translate(-221.81 -280.05)"/><path class="cls-1" d="M289.47,428.23s2.62,3.13,3,3.88.75,1.62.12,1.37-6.25-1.25-6.25-1.25-1.25-.25-1-.75a38.92,38.92,0,0,1,3.38-3.25A.7.7,0,0,1,289.47,428.23Z" transform="translate(-221.81 -280.05)"/><path class="cls-1" d="M284.72,430.36l3.12-3.5s.38-.38-.25-1.13-2.87-3.62-2.87-3.62-.38-.5-.5-.13-.25,7.5-.25,7.5S284.09,430.61,284.72,430.36Z" transform="translate(-221.81 -280.05)"/><path class="cls-1" d="M289.72,425.36l2.87-2.5s.75-.38-.62-.75-5.63-.88-5.63-.88-.5.13.13.75a20.23,20.23,0,0,1,1.75,2.5S289.34,425.73,289.72,425.36Z" transform="translate(-221.81 -280.05)"/><path class="cls-1" d="M264.34,420.23a30.24,30.24,0,0,0,3-2.25c.25-.37,1-.62-.37-1.25a39.08,39.08,0,0,0-5.63-1.37s-.5.37.13,1a31.16,31.16,0,0,1,2.25,3.37Z" transform="translate(-221.81 -280.05)"/><path class="cls-1" d="M236,413.36s2.87,4.12,3,4.5.37.87-.38.62-5.5-1.87-6-2-.62-.37-.12-.87,2.25-2.5,2.25-2.5S235.59,412.73,236,413.36Z" transform="translate(-221.81 -280.05)"/><path class="cls-1" d="M236.47,412.23s2.5,3,2.75,3.5.75.13.62-.5.13-4.37.13-4.37,0-1.38-.63-1.13a17.37,17.37,0,0,0-2.25,1.5S236.09,411.61,236.47,412.23Z" transform="translate(-221.81 -280.05)"/><path class="cls-1" d="M231.34,414.48a11.69,11.69,0,0,1,2.5-2.25.81.81,0,0,0,.38-1.37c-.38-.38-3.25-4.75-3.25-4.75s-.5.25-.5.62.12,5.38.12,5.38Z" transform="translate(-221.81 -280.05)"/><path class="cls-1" d="M235.84,410.44a25.47,25.47,0,0,0,2.92-1.75c.42-.41,1-.5.17-.83s-6.75-3-6.75-3-.59.08-.09.83l2.67,4S235.68,410.94,235.84,410.44Z" transform="translate(-221.81 -280.05)"/><path d="M356.42,512.07a10.64,10.64,0,0,0,10.63-10.63V296.78a10.64,10.64,0,0,0-10.63-10.63H240.27a10.64,10.64,0,0,0-10.63,10.63V501.44a10.64,10.64,0,0,0,10.63,10.63Zm9.22-215.29V501.44a9.23,9.23,0,0,1-9.22,9.21H240.27a9.23,9.23,0,0,1-9.22-9.21V296.78a9.23,9.23,0,0,1,9.22-9.21H356.42A9.23,9.23,0,0,1,365.64,296.78Z" transform="translate(-221.81 -280.05)"/><path d="M316.2,381.53l1.36-5.6a60.3,60.3,0,0,0,8.05,0l.7-.1-1-7.28c1.31-1,6.06-4.61,8.39-6.8l.48-.44-.4-.52a31.05,31.05,0,0,0-4.11-4.07,17,17,0,0,0,3-3.27l.29-.47-.37-.4c-.1-.1-2.44-2.5-8.15-3.29,0-1.83-.24-7.55-1.53-11.29l-.23-.67-.67.23a16.82,16.82,0,0,0-4.81,2.68,32.68,32.68,0,0,0-1.84-4.34l-.35-.66-.64.39c-.21.12-4.8,3-7,6.66a15.31,15.31,0,0,0-12.7-.55l-.42.18v.45c0,.06,0,.44,0,1a23.75,23.75,0,0,0,.49,5.1,17.86,17.86,0,0,0-4.94,1.3l-.48.26.13.54a46.15,46.15,0,0,0,5,11.77,47.73,47.73,0,0,0-5.78,9.42l-.36.79.85.2a40.82,40.82,0,0,0,6.65.82,13.6,13.6,0,0,0-.75,4.21,9,9,0,0,0,.05,1l.08.64.65,0a25.78,25.78,0,0,0,10.91-3.2,88.92,88.92,0,0,0,8.54,5.77l.82.48Zm.12-6.5s-.94,3.88-1.27,5.22a88.31,88.31,0,0,1-7.93-5.45l-.39-.3-.42.25a24.07,24.07,0,0,1-10,3.18c0-.06,0-.12,0-.18a12.73,12.73,0,0,1,1-4.6l.44-1h-1.09a37.19,37.19,0,0,1-6.46-.64,48.45,48.45,0,0,1,5.5-8.7l.35-.41-.31-.44a41.72,41.72,0,0,1-4.89-11.18,24.39,24.39,0,0,1,4.73-1l.92-.12-.36-.86a18.25,18.25,0,0,1-.62-5.44v-.42a14.27,14.27,0,0,1,11.59.9l.65.41.36-.68c1.49-2.85,4.87-5.35,6.26-6.3a41.31,41.31,0,0,1,1.77,4.52l.41,1.31.83-1.1a11.24,11.24,0,0,1,4.3-2.81A48.22,48.22,0,0,1,323,349.86v.63l.63.07a15,15,0,0,1,7.46,2.58,19.58,19.58,0,0,1-3,3l-.71.56.72.56a28.56,28.56,0,0,1,4.11,3.86c-2.78,2.51-8.05,6.46-8.1,6.51l-.34.25s.79,5.5.95,6.67c-2.57.2-7.59-.06-7.65-.06l-.59,0Z" transform="translate(-221.81 -280.05)"/><path d="M330,410.72a45.84,45.84,0,0,1,2.36-4.9,20.13,20.13,0,0,0,7.59.4l.38-.07.14-.36a16.08,16.08,0,0,0,1.17-6.09,17.52,17.52,0,0,0-1-5.76A26,26,0,0,0,348,386.2l.3-.53-.48-.37a26.65,26.65,0,0,0-5.34-2.56,27,27,0,0,0,2.52-3.52l.33-.57-.54-.38c-2.82-1.92-7.25-2.58-8.6-2.74A17.11,17.11,0,0,0,326.4,366l-.45,1.34c.07,0,6.71,2.33,9.06,9.07l.15.43.45,0a23.09,23.09,0,0,1,7.75,2.21,18.58,18.58,0,0,1-2.65,3.39l-.9.79,1.13.4a38.42,38.42,0,0,1,5.42,2.4,25,25,0,0,1-6.91,7l-.49.33.24.55a16,16,0,0,1,1,5.75,14.79,14.79,0,0,1-.95,5.16,19.4,19.4,0,0,1-7.1-.55l-.54-.14-.26.49c-.21.38-1.78,3.31-2.46,4.92a17,17,0,0,1-7.81-6.95l-.43-.71-.64.53a19.93,19.93,0,0,1-10.93,3.61c.1-1.19.21-2.82.21-4.09a6,6,0,0,0-.16-1.74l-.25-.63-.64.23s-2.78,1-4.89,1.54a82.88,82.88,0,0,1,1.8-8.18l.15-.51-.45-.28a24.22,24.22,0,0,1-5.54-5.25c1.81-1.3,7.24-5.54,8.84-10.78l-1.36-.41c-1.73,5.68-8.8,10.4-8.88,10.44l-.6.4.41.59a24.51,24.51,0,0,0,5.93,5.91c-1.09,3.92-1.85,8.71-1.88,8.92l-.16,1,1-.24c1.59-.37,4-1.15,5.24-1.57,0,.11,0,.19,0,.32,0,1.21-.12,3.23-.28,5l-.07.8.79,0a21.9,21.9,0,0,0,12-3.55,17.79,17.79,0,0,0,8.8,7.19l.68.19Z" transform="translate(-221.81 -280.05)"/><path d="M284.94,400.42a49.4,49.4,0,0,0,5-4.77c2.65,3.83,5.34,4.39,5.46,4.41l.29.05.24-.18c4.31-3.1,6.19-8.78,6.27-9l-1.35-.44c0,.06-1.75,5.23-5.49,8.1-.72-.25-2.76-1.2-4.74-4.42l-.49-.8-.63.7a63.7,63.7,0,0,1-5.06,5c-.92-.55-3.38-2.37-4.39-6.81l-.25-1.05-.87.64s-3.08,2.19-9.58,2c-.06-.88-.17-2.58-.17-4.17,0-.56,0-1.11.05-1.59l.06-.92-.91.18s-3.51.7-5.7.93a42.3,42.3,0,0,1-1.95-7.29l-1.42.11c.18,2.4,2.13,7.95,2.21,8.18l.18.51.54,0c1.6-.12,4.2-.59,5.55-.84,0,.26,0,.51,0,.78,0,2.29.2,4.78.21,4.91l0,.63.63,0c5.53.25,8.85-1.05,10.28-1.81,1.57,5.35,5.14,7,5.3,7.09l.38.17Z" transform="translate(-221.81 -280.05)"/><path d="M261.2,381.37a23.84,23.84,0,0,0,.69-4.52,49.26,49.26,0,0,0,6.29.38h.63l.07-.62a26.58,26.58,0,0,0,.14-2.77,19,19,0,0,0-1-6.26c1.7-.78,6.46-3.31,7.64-7.88l.1-.4-.3-.29a40,40,0,0,0-4.25-3.43c1.65-.94,4.52-2.86,4.8-5l0-.3-.19-.23c-.12-.16-3.13-3.84-9.92-4.68a12.69,12.69,0,0,0-7.68-9.7l-.34-.15-.33.2c-1.3.82-3.72,2.32-4.91,3a44.62,44.62,0,0,0-2.87-3.75l-.43-.42-.49.35a20.36,20.36,0,0,0-5.65,7,14.94,14.94,0,0,0-8.44,1.31l-.35.19,0,.39s0,.49,0,1.12a14.08,14.08,0,0,0,.28,2.81L231.58,349a1.17,1.17,0,0,0-.66,1,3.83,3.83,0,0,0,0,.63c0,2.19,1.43,6.65,4.71,10-1.56,1.16-5,4.51-5,11.73q0,.76.06,1.59l.06.89.85-.26A55.1,55.1,0,0,1,238,373a33.77,33.77,0,0,0,3.1,8.26l.28.49.54-.16c.16-.05,3.76-1.23,7.64-5.93a20.12,20.12,0,0,0,10.87,6.28l.64.11Zm-.73-5.29a4.43,4.43,0,0,1,0,.52,19.38,19.38,0,0,1-.5,3.73,19.88,19.88,0,0,1-9.92-6.24l-.56-.71-.56.71A19,19,0,0,1,242,380a35,35,0,0,1-2.8-7.91l-.12-.57h-.58a36.31,36.31,0,0,0-6.49,1.44c0-.2,0-.41,0-.6,0-8.21,4.79-10.89,5-11l.89-.48-.75-.68a15.1,15.1,0,0,1-4.88-9.51,1.27,1.27,0,0,1,0-.39l4.08-1.66-.22-.63a11.33,11.33,0,0,1-.32-3.06c0-.24,0-.39,0-.58a14.75,14.75,0,0,1,7.69-.94l.53.09.23-.49a19.54,19.54,0,0,1,4.93-6.48c.8,1,2.14,2.82,2.68,3.59l.35.5.55-.27c.87-.44,4.13-2.47,5.2-3.15a11.28,11.28,0,0,1,6.61,8.88l0,.61.61.06c5.58.53,8.49,3.16,9.27,4-.49,1.5-3.26,3.33-5,4.18l-1.21.58,1.16.67a32.16,32.16,0,0,1,4.69,3.58c-1.45,4.49-7.2,6.79-7.26,6.81l-.7.27.31.69a16.36,16.36,0,0,1,1.07,6.35c0,.83,0,1.5-.07,2a45.51,45.51,0,0,1-6.23-.48l-.9-.16Z" transform="translate(-221.81 -280.05)"/><path d="M236.56,384.53c4-1.28,4.79-5.54,4.82-5.72l-1.4-.24c0,.15-.65,3.6-3.85,4.61a3.45,3.45,0,0,1-3.11-.26,4.17,4.17,0,0,1-1.64-3.11c-.18-2.64.56-4.56,2.2-5.7l-.81-1.17c-2.05,1.43-3,3.84-2.8,7a5.63,5.63,0,0,0,2.25,4.18A4.81,4.81,0,0,0,236.56,384.53Z" transform="translate(-221.81 -280.05)"/><path d="M295.58,362.77a22.64,22.64,0,0,0-9.48-6.9l-.41-.17-.33.31a26.79,26.79,0,0,0-2.64,2.87,8.43,8.43,0,0,0-2.65-3.94c-1.22-.82-2.75.94-4.36,2.79L274.56,359l.9,1.09,1.32-1.41c.62-.71,2-2.33,2.58-2.47,1.31,1,2.22,3.56,2.46,4.51l.51,2,.83-1.87a15.65,15.65,0,0,1,2.84-3.44,21.82,21.82,0,0,1,8.44,6.24Z" transform="translate(-221.81 -280.05)"/><path d="M358.66,410.31a4.11,4.11,0,0,0,2.68-2.19,6,6,0,0,0-.14-4.65,7.31,7.31,0,0,0-4.82-3.62c-6-1.81-7.09.8-7.2,1.1l0,.09v.08c0,.21-.5,5.28,3.47,8A6.94,6.94,0,0,0,358.66,410.31ZM356,401.2a6.05,6.05,0,0,1,4,2.88,4.54,4.54,0,0,1,.09,3.52,2.79,2.79,0,0,1-1.77,1.36,5.58,5.58,0,0,1-4.84-1c-2.61-1.78-2.88-5-2.88-6.18,0-.15,0-.27,0-.36S351.65,399.89,356,401.2Z" transform="translate(-221.81 -280.05)"/><path d="M350.13,400.54c-2.05-.91-7.71-3.57-9.14-4.87l-1,1.05c1.9,1.72,9.22,5,9.53,5.12Z" transform="translate(-221.81 -280.05)"/><path d="M358.22,382.31l.48-.57-.59-.44a40.47,40.47,0,0,1-4.81-4.41,52.62,52.62,0,0,1,4.8-4.46l.38-.29-.11-.45c-.06-.21-1.43-4.95-12.22-4.24,0-.39.06-.87.06-1.46,0-2.74-.64-7.33-4.41-10.51l-.91,1.09c4.95,4.17,3.77,11.43,3.76,11.5l-.16.91.92-.08c8.43-.76,10.79,1.79,11.38,2.76-2,1.64-4.83,4.58-5,4.71l-.42.44.38.49a33.31,33.31,0,0,0,4.81,4.61c-3.25,3.15-9.19,3.24-9.26,3.24v1.42C347.64,386.57,354.72,386.52,358.22,382.31Z" transform="translate(-221.81 -280.05)"/><path d="M359.38,362.15a6.87,6.87,0,0,0-1-5.45,6.18,6.18,0,0,0-4.3-2.38,5.55,5.55,0,0,0-4.34,1.22c-1,.84-2.18,2.53-2.29,5.8-.17,5.18.81,6.58,1,6.81l1.1-.89s-.83-1.23-.68-5.88a6.4,6.4,0,0,1,1.79-4.77,4.12,4.12,0,0,1,3.24-.88,4.84,4.84,0,0,1,3.34,1.81,5.52,5.52,0,0,1,.72,4.36,10.13,10.13,0,0,1-3.86,6.37l.78,1.18A11.41,11.41,0,0,0,359.38,362.15Z" transform="translate(-221.81 -280.05)"/><path d="M327.69,348.34a33.08,33.08,0,0,0,3.66-4.67l6.21,1.56.15-.73a39.45,39.45,0,0,0,.72-7,18.33,18.33,0,0,0-.29-3.27c1.67-.53,6.49-2.3,9-5.93l.25-.37-.23-.39a19.34,19.34,0,0,0-2.92-3.73,30.54,30.54,0,0,0,5.69-4.46l.22-.27-.07-.34c-.06-.25-1.57-6.05-11.9-5.26,0-.34.05-.75.05-1.25a19.92,19.92,0,0,0-3.77-11.58l-.25-.34-.42.05a14.7,14.7,0,0,0-5.43,1.89,11.63,11.63,0,0,0-4-3.34l-.29-.12-.29.14c-.15.07-3.54,1.76-6.85,7.31-2-.53-9.78-2.15-15,2.29l-.23.19V309s0,.08,0,.2a12.69,12.69,0,0,0,1.81,6l-2.85,2.14.85,1.14,3.86-2.9-.36-.56a11.19,11.19,0,0,1-1.88-5.58c5.32-4.23,13.82-1.71,13.91-1.69l.54.17.28-.49c2.65-4.64,5.39-6.54,6.24-7.05a11.68,11.68,0,0,1,3.56,3.26l.46.67.61-.54c1.3-1.19,3.81-1.74,4.82-1.92a18.85,18.85,0,0,1,3.28,10.46,13.06,13.06,0,0,1-.11,1.81l-.16.93.93-.1c8.51-.93,10.65,2.66,11.11,3.79a40.79,40.79,0,0,1-5.89,4.4l-.9.56.85.62a14.5,14.5,0,0,1,3.05,3.53c-2.76,3.64-8.42,5.19-8.48,5.21l-.66.17.16.68a16.14,16.14,0,0,1,.35,3.57,38.21,38.21,0,0,1-.56,6.06l-5.8-1.45-.26.48a27.76,27.76,0,0,1-3.27,4.35c-1.09-1-3.08-3-3.11-3l-1,1c.12.12,2.87,2.87,3.73,3.55l.51.41Z" transform="translate(-221.81 -280.05)"/><path d="M309.86,340c0-.09-.75-2.15-4.44-3.2a16.54,16.54,0,0,0,3.46-8.54l0-.51-.47-.19a25.91,25.91,0,0,0-7.3-1.67c1.12-1.69,3.1-4.93,3.23-6.79l.05-.61-.59-.13c-.26-.06-6.17-1.35-14.52,3.26a2.64,2.64,0,0,0,0-.29,9.49,9.49,0,0,0-6.23-9.28l-.4-.15-3.7,3.18-6.16-1.93-.18.69a25.47,25.47,0,0,0-.81,6.92c0,1,.06,2.05.16,3.19a11.31,11.31,0,0,0-9.8.28l-.39.18,0,.43s0,.21,0,.5a15,15,0,0,0,.74,4.61,36.78,36.78,0,0,0-5.5,1l-.46.23.74,5.34,1.4-.2-.58-4.21c1-.22,3.3-.56,5.47-.82l1-.12-.44-.9a12,12,0,0,1-.94-4.85c5.44-2.28,9.05.28,9.21.4l1.33,1-.2-1.64a34.57,34.57,0,0,1-.27-4.32,27,27,0,0,1,.58-5.86l5.47,1.72.31-.25,3.31-2.86a8,8,0,0,1,5,7.66,9.29,9.29,0,0,1-.12,1.52l-.32,1.58,1.38-.83c6.85-4.14,12.16-4,14-3.85a29.15,29.15,0,0,1-3.57,6.5l-.8,1.11h1.37a23.41,23.41,0,0,1,7.56,1.43,16.57,16.57,0,0,1-3.74,8l-.86.94,1.24.24c3.79.73,4.46,2.51,4.46,2.53Z" transform="translate(-221.81 -280.05)"/><path d="M273.19,318.14a7.43,7.43,0,0,0-3.32-4.05,18.29,18.29,0,0,0,3.59-3.38l.42-.73-.79-.29c-.2-.07-4.57-1.63-7.76-1a20.78,20.78,0,0,0-5.52-8.86l-.47-.42-.47.42a33,33,0,0,0-3.66,4,10.12,10.12,0,0,0-2.18-4.41l-.3-.33-.43.13c-.16.05-3.76,1.32-6,7.62a20.82,20.82,0,0,0-9.19-.64l-.42.06-.14.4a14.28,14.28,0,0,0-.68,4.39,13,13,0,0,0,.1,1.36c-1.38.51-5,2-6.19,3.95l1.21.74c1-1.59,4.63-3.09,6-3.53l.57-.19-.09-.59a10.27,10.27,0,0,1-.13-1.72,13.69,13.69,0,0,1,.47-3.5,19.55,19.55,0,0,1,8.69.82l.71.28.23-.72c1.59-4.9,4-6.64,5-7.16a11.42,11.42,0,0,1,1.84,5l.24,2.62,1.11-2.39a20.38,20.38,0,0,1,3.84-4.64,20.91,20.91,0,0,1,4.83,8.36l.19.73.72-.24c2-.66,5,.06,6.55.51a37.52,37.52,0,0,1-3.7,3.08l-1.45,1.07,1.8.2c2.49.28,3.56,3.48,3.57,3.52Z" transform="translate(-221.81 -280.05)"/><path d="M244.55,342.09c-.18-1.23-3.58-6.4-4.62-8l-.54-.82-.6.78a4.85,4.85,0,0,1-3.94,2.12c0-.5-.07-1-.07-1.47,0-6.67,3.36-9.54,3.51-9.67l.82-.67-.93-.5a16.28,16.28,0,0,1-6.86-6.35l-1.28.62a17.35,17.35,0,0,0,6.66,6.5c-1.15,1.31-3.33,4.51-3.33,10.07,0,.69,0,1.42.1,2.19l.05.5.5.12a6,6,0,0,0,5.21-1.91,45.92,45.92,0,0,1,3.91,6.65Z" transform="translate(-221.81 -280.05)"/><path d="M276,305.8l.21-.51-3.27-2.45,2.16-3.65-.47-.38c-.12-.09-2.73-2.16-8.58-2.17-.08-1.58-.74-5.36-5.07-9.15l-.28-.24-.36.09a9.64,9.64,0,0,0-4.63,2.82,10.28,10.28,0,0,1-2.52-2.66l-.2-.7-.68.21a8.38,8.38,0,0,0-5.09,5.33,11.65,11.65,0,0,0-8.75,1.75l-.48.3s1.24,3.57,1.51,4.36l-4.89,3.36.8,1.17,5.78-4L239.71,295c4.22-2.37,7.58-1.24,7.72-1.18l.76.27.18-.78a6.85,6.85,0,0,1,3.82-4.76,17,17,0,0,0,3.22,3.16l.64.5.41-.71a7.15,7.15,0,0,1,3.86-2.71c4,3.64,4.33,7.13,4.33,8.16,0,.17,0,.27,0,.3l-.08.8.8,0a15.3,15.3,0,0,1,7.86,1.52l-2.14,3.62,3.3,2.48a11.62,11.62,0,0,1-4.17,3.36l.61,1.28C271,310.25,274.9,308.35,276,305.8Z" transform="translate(-221.81 -280.05)"/><path d="M284.62,294.55,285,294l-3.83-2.66,2.16-3.76-1.21-.74-2.84,4.93.54.36,3.26,2.26a27.19,27.19,0,0,1-4,3.94l.88,1.1C280.09,299.3,283.4,296.64,284.62,294.55Z" transform="translate(-221.81 -280.05)"/><path d="M351.48,311.84l.29-.57-.55-.35a32.83,32.83,0,0,0-3.28-1.76,19,19,0,0,0,2.79-2.69l.36-.44-.36-.44c-.1-.14-2.71-3.22-11.31-3.56v-.22a13.79,13.79,0,0,0-2.51-8l-.32-.43-.5.19a11.29,11.29,0,0,0-4,2.77c-1-.84-2.82-2.36-4.07-2.63l-.15,0-.15,0c-.29.06-2.83.75-3.72,5.9l1.4.24c.6-3.51,2-4.46,2.47-4.69a14.85,14.85,0,0,1,3.84,2.76l.65.61.45-.77a7.89,7.89,0,0,1,3.26-2.62,12.82,12.82,0,0,1,1.95,6.77c0,.46,0,.74,0,.75l-.08.77h.77c6.56.12,9.5,1.87,10.51,2.67a22.72,22.72,0,0,1-3.06,2.71l-1.21.84,1.41.42a20.39,20.39,0,0,1,3.57,1.73,19.42,19.42,0,0,1-3.32,3.54l.9,1.1A18.63,18.63,0,0,0,351.48,311.84Z" transform="translate(-221.81 -280.05)"/><path d="M321.67,293c.37-.93,2.4-2,3.78-2.48a6.65,6.65,0,0,1,2.87,4l1.39-.28a7.8,7.8,0,0,0-3.9-5.17l-.26-.12-.27.09a13,13,0,0,0-4.16,2.36,8.38,8.38,0,0,0-3.48-3.33l-.26-.12-.28.1c-.22.08-5.3,2-6.9,5.54l1.29.58c1.17-2.59,4.77-4.24,5.8-4.67a8,8,0,0,1,3.07,3.48l.66,1.61Z" transform="translate(-221.81 -280.05)"/><path d="M354.65,328.72c4.38-.87,7-4.75,6.73-6.93s-2-4.15-6.56-4a17.6,17.6,0,0,0-6.79,1.41l.63,1.26a16.9,16.9,0,0,1,6.21-1.26c3-.12,4.92.89,5.1,2.7.12,1.22-1.69,4.62-5.6,5.4a19.32,19.32,0,0,1-7.68-.16l-.36,1.37A20.22,20.22,0,0,0,354.65,328.72Z" transform="translate(-221.81 -280.05)"/><path d="M354.09,299.9c3.89-.45,5.71-2.45,6.45-3.61a4.5,4.5,0,0,0,.81-3.32c-.07-.21-1.76-5-9.68-3-3,.77-5,2-6,3.58a4.19,4.19,0,0,0-.38,3.3l0,.11.07.09C345.52,297.24,347.91,300.6,354.09,299.9Zm5.92-6.48a3.62,3.62,0,0,1-.69,2.15c-.74,1.13-2.27,2.56-5.39,2.92-4.79.55-6.84-1.6-7.25-2.09a2.73,2.73,0,0,1-.11-.73,2.77,2.77,0,0,1,.37-1.37c.71-1.24,2.47-2.25,5.08-2.92C358.67,289.67,360,293.26,360,293.42Z" transform="translate(-221.81 -280.05)"/><rect x="337.8" y="298.4" width="8.92" height="1.42" transform="translate(-329.26 -47.02) rotate(-32.79)"/><path d="M324.74,317.59l.5-4.33a.57.57,0,0,0-.5-.63.56.56,0,0,0-.62.5l-.5,4.33a.56.56,0,1,0,1.12.13Z" transform="translate(-221.81 -280.05)"/><path d="M326.49,317.83l2.5-1.67a.56.56,0,0,0,.16-.78.58.58,0,0,0-.79-.16l-2.5,1.67a.55.55,0,0,0-.15.78A.56.56,0,0,0,326.49,317.83Z" transform="translate(-221.81 -280.05)"/><path d="M327.73,319.76l3.5-.34a.57.57,0,0,0-.11-1.13l-3.5.34a.56.56,0,0,0-.51.62A.57.57,0,0,0,327.73,319.76Z" transform="translate(-221.81 -280.05)"/><path d="M332.41,322.09a.57.57,0,0,0-.51-.63l-3.16-.33a.58.58,0,0,0-.63.5.59.59,0,0,0,.51.63l3.17.33A.56.56,0,0,0,332.41,322.09Z" transform="translate(-221.81 -280.05)"/><path d="M332.05,325.37a.56.56,0,0,0-.36-.71l-3-1a.56.56,0,1,0-.36,1.07l3,1A.57.57,0,0,0,332.05,325.37Z" transform="translate(-221.81 -280.05)"/><path d="M330.57,329.77a.57.57,0,0,0,0-.8l-2.33-2.5a.57.57,0,0,0-.8,0,.58.58,0,0,0,0,.81l2.33,2.5A.58.58,0,0,0,330.57,329.77Z" transform="translate(-221.81 -280.05)"/><path d="M328.16,332.66a.57.57,0,0,0,.15-.79l-2.16-3.16a.57.57,0,1,0-.94.64l2.17,3.16A.55.55,0,0,0,328.16,332.66Z" transform="translate(-221.81 -280.05)"/><path d="M324.36,334.06a.57.57,0,0,0,.36-.71l-1-3a.57.57,0,1,0-1.08.36l1,3A.57.57,0,0,0,324.36,334.06Z" transform="translate(-221.81 -280.05)"/><path d="M320,333.27l1.34-2.84a.57.57,0,0,0-.27-.75.58.58,0,0,0-.76.27L319,332.78a.57.57,0,1,0,1,.49Z" transform="translate(-221.81 -280.05)"/><path d="M314.75,331.21l3.17-1.5a.58.58,0,0,0,.27-.76.57.57,0,0,0-.75-.27l-3.17,1.5a.57.57,0,0,0,.48,1Z" transform="translate(-221.81 -280.05)"/><path d="M312.82,328.07l3.17-.83a.57.57,0,0,0,.4-.69.57.57,0,0,0-.69-.41l-3.17.84a.56.56,0,1,0,.29,1.09Z" transform="translate(-221.81 -280.05)"/><path d="M316.21,323.73a.56.56,0,0,0-.33-.73l-3.83-1.5a.56.56,0,1,0-.41,1.05l3.83,1.5A.57.57,0,0,0,316.21,323.73Z" transform="translate(-221.81 -280.05)"/><path d="M317.43,321.41a.57.57,0,0,0,0-.8l-2.34-2.17a.57.57,0,0,0-.77.83l2.34,2.17A.57.57,0,0,0,317.43,321.41Z" transform="translate(-221.81 -280.05)"/><path d="M319.5,318.66a.57.57,0,0,0,.15-.79l-2.17-3.16a.57.57,0,0,0-.79-.15.57.57,0,0,0-.15.79l2.17,3.16A.57.57,0,0,0,319.5,318.66Z" transform="translate(-221.81 -280.05)"/><path d="M321.9,317.76a.57.57,0,0,0,.51-.62l-.33-3.34a.58.58,0,0,0-.63-.51.57.57,0,0,0-.5.63l.33,3.33A.57.57,0,0,0,321.9,317.76Z" transform="translate(-221.81 -280.05)"/><path d="M256.07,314.61l2.66-2.5a.58.58,0,0,0,0-.81.57.57,0,0,0-.8,0l-2.67,2.5a.57.57,0,0,0,0,.8A.58.58,0,0,0,256.07,314.61Z" transform="translate(-221.81 -280.05)"/><path d="M254.54,313.76a.57.57,0,0,0,.54-.59l-.17-3.5a.57.57,0,1,0-1.13.05l.17,3.5A.57.57,0,0,0,254.54,313.76Z" transform="translate(-221.81 -280.05)"/><path d="M252,313.18a.56.56,0,0,0,.21-.77l-1.83-3.17a.57.57,0,0,0-1,.57l1.84,3.17A.56.56,0,0,0,252,313.18Z" transform="translate(-221.81 -280.05)"/><path d="M248.62,314.38a.57.57,0,0,0-.09-.8l-2.33-1.83a.57.57,0,0,0-.8.09.58.58,0,0,0,.09.8l2.34,1.83A.56.56,0,0,0,248.62,314.38Z" transform="translate(-221.81 -280.05)"/><path d="M246.55,316.87a.56.56,0,0,0-.36-.71l-3-1a.57.57,0,0,0-.72.35.58.58,0,0,0,.36.72l3,1A.57.57,0,0,0,246.55,316.87Z" transform="translate(-221.81 -280.05)"/><path d="M245.18,320.09a.57.57,0,1,0,0-1.13h-3.67a.57.57,0,1,0,0,1.13Z" transform="translate(-221.81 -280.05)"/><path d="M243.41,324l2.66-1.16a.56.56,0,0,0,.29-.75.55.55,0,0,0-.74-.29L243,323a.55.55,0,0,0-.29.74A.56.56,0,0,0,243.41,324Z" transform="translate(-221.81 -280.05)"/><path d="M246.57,327.6l3-2.83a.58.58,0,0,0,0-.8.56.56,0,0,0-.8,0l-3,2.83a.57.57,0,0,0,.78.82Z" transform="translate(-221.81 -280.05)"/><path d="M250.88,328.26a.57.57,0,0,0,.53-.6l-.17-2.67a.56.56,0,0,0-.6-.53.57.57,0,0,0-.53.6l.17,2.67A.57.57,0,0,0,250.88,328.26Z" transform="translate(-221.81 -280.05)"/><path d="M254.53,327.73a.58.58,0,0,0,.35-.73l-1-2.83a.57.57,0,1,0-1.07.38l1,2.83A.57.57,0,0,0,254.53,327.73Z" transform="translate(-221.81 -280.05)"/><path d="M258.63,326.87a.57.57,0,0,0-.11-.8l-2.67-2a.57.57,0,0,0-.68.91l2.67,2A.56.56,0,0,0,258.63,326.87Z" transform="translate(-221.81 -280.05)"/><path d="M259.35,324a.56.56,0,0,0-.25-.76l-1.67-.84a.57.57,0,0,0-.51,1l1.67.83A.56.56,0,0,0,259.35,324Z" transform="translate(-221.81 -280.05)"/><path d="M261.18,321.59a.57.57,0,1,0,0-1.13h-3a.57.57,0,1,0,0,1.13Z" transform="translate(-221.81 -280.05)"/><path d="M258.83,319.4l2.34-.66a.57.57,0,0,0,.39-.7.57.57,0,0,0-.7-.39l-2.34.66a.57.57,0,0,0-.39.7A.56.56,0,0,0,258.83,319.4Z" transform="translate(-221.81 -280.05)"/><path d="M257.56,316.55l3.67-1.5a.57.57,0,1,0-.43-1.05l-3.67,1.5a.57.57,0,0,0,.43,1.05Z" transform="translate(-221.81 -280.05)"/><path d="M284.24,329.89l.17-2.66a.57.57,0,0,0-.53-.6.56.56,0,0,0-.6.53l-.17,2.66a.57.57,0,1,0,1.13.07Z" transform="translate(-221.81 -280.05)"/><path d="M281.37,331.06a.56.56,0,0,0,.34-.72l-1-2.84a.57.57,0,0,0-1.07.38l1,2.83A.58.58,0,0,0,281.37,331.06Z" transform="translate(-221.81 -280.05)"/><path d="M279.23,331.61a.57.57,0,0,0,0-.8l-1.83-2a.57.57,0,0,0-.8,0,.58.58,0,0,0,0,.81l1.84,2A.57.57,0,0,0,279.23,331.61Z" transform="translate(-221.81 -280.05)"/><path d="M277.34,333.48a.58.58,0,0,0-.21-.78L274,330.87a.55.55,0,0,0-.77.21.56.56,0,0,0,.2.77l3.17,1.83A.57.57,0,0,0,277.34,333.48Z" transform="translate(-221.81 -280.05)"/><path d="M276.24,335.42a.58.58,0,0,0-.5-.63l-3.17-.33a.57.57,0,0,0-.62.51.56.56,0,0,0,.5.62l3.17.33A.56.56,0,0,0,276.24,335.42Z" transform="translate(-221.81 -280.05)"/><path d="M272.44,339.25l2.84-.5a.57.57,0,0,0,.46-.66.58.58,0,0,0-.66-.46l-2.83.5a.57.57,0,0,0-.46.66A.55.55,0,0,0,272.44,339.25Z" transform="translate(-221.81 -280.05)"/><path d="M273.5,342.33l2.67-1.84a.57.57,0,1,0-.65-.93l-2.66,1.83a.57.57,0,0,0-.15.79A.57.57,0,0,0,273.5,342.33Z" transform="translate(-221.81 -280.05)"/><path d="M276,344.79l3-2.5a.56.56,0,0,0-.72-.87l-3,2.5a.56.56,0,1,0,.72.87Z" transform="translate(-221.81 -280.05)"/><path d="M279.2,346.9l1.34-3.33a.57.57,0,0,0-1.06-.42l-1.33,3.33a.58.58,0,0,0,.32.74A.56.56,0,0,0,279.2,346.9Z" transform="translate(-221.81 -280.05)"/><path d="M284,347.9a.56.56,0,0,0,.39-.7l-1-3.5a.57.57,0,0,0-.7-.39.57.57,0,0,0-.39.7l1,3.5A.56.56,0,0,0,284,347.9Z" transform="translate(-221.81 -280.05)"/><path d="M287.76,345.57a.57.57,0,0,0,0-.8l-1.84-1.66a.57.57,0,0,0-.8,0,.58.58,0,0,0,0,.81l1.83,1.66A.56.56,0,0,0,287.76,345.57Z" transform="translate(-221.81 -280.05)"/><path d="M289.7,342.25a.58.58,0,0,0-.3-.75l-2.33-1a.57.57,0,1,0-.45,1.05l2.34,1A.57.57,0,0,0,289.7,342.25Z" transform="translate(-221.81 -280.05)"/><path d="M291.41,338.73a.57.57,0,0,0-.53-.6l-2.67-.17a.57.57,0,0,0-.07,1.13l2.67.17A.57.57,0,0,0,291.41,338.73Z" transform="translate(-221.81 -280.05)"/><path d="M287.87,336.09l3.83-.16a.57.57,0,0,0-.05-1.14l-3.83.17a.57.57,0,1,0,.05,1.13Z" transform="translate(-221.81 -280.05)"/><path d="M286.91,333.25l4-.5a.56.56,0,0,0,.5-.63.57.57,0,0,0-.64-.49l-4,.5a.56.56,0,0,0,.14,1.12Z" transform="translate(-221.81 -280.05)"/><path d="M286.06,330.94l2.17-2a.57.57,0,0,0-.77-.83l-2.17,2a.57.57,0,0,0,.77.83Z" transform="translate(-221.81 -280.05)"/><path d="M314.08,354.59l2.33-2.33a.57.57,0,0,0-.8-.8l-2.33,2.33a.57.57,0,0,0,0,.8A.56.56,0,0,0,314.08,354.59Z" transform="translate(-221.81 -280.05)"/><path d="M311.9,353.49l.83-3.5a.57.57,0,0,0-.42-.68.56.56,0,0,0-.68.42l-.84,3.5a.57.57,0,0,0,.42.68A.58.58,0,0,0,311.9,353.49Z" transform="translate(-221.81 -280.05)"/><path d="M308.89,353.42a.56.56,0,0,0,.52-.61l-.33-4a.58.58,0,0,0-.62-.52.56.56,0,0,0-.51.62l.33,4A.56.56,0,0,0,308.89,353.42Z" transform="translate(-221.81 -280.05)"/><path d="M307.32,354.83a.56.56,0,0,0-.17-.78l-3.17-2a.57.57,0,0,0-.78.17.56.56,0,0,0,.18.78l3.16,2A.56.56,0,0,0,307.32,354.83Z" transform="translate(-221.81 -280.05)"/><path d="M306.23,357.65a.57.57,0,0,0-.42-.68l-2.17-.5a.56.56,0,0,0-.68.43.57.57,0,0,0,.42.68l2.17.5A.56.56,0,0,0,306.23,357.65Z" transform="translate(-221.81 -280.05)"/><path d="M303.42,362.87l3.17-1.5a.57.57,0,1,0-.49-1l-3.16,1.5a.55.55,0,0,0-.27.75A.56.56,0,0,0,303.42,362.87Z" transform="translate(-221.81 -280.05)"/><path d="M305.75,365.93l2-2a.57.57,0,0,0,0-.8.56.56,0,0,0-.81,0l-2,2a.57.57,0,0,0,0,.8A.58.58,0,0,0,305.75,365.93Z" transform="translate(-221.81 -280.05)"/><path d="M309.39,367l.67-2.5a.57.57,0,0,0-.4-.69.57.57,0,0,0-.7.4l-.66,2.5a.57.57,0,0,0,.4.7A.56.56,0,0,0,309.39,367Z" transform="translate(-221.81 -280.05)"/><path d="M313.39,367.39a.57.57,0,0,0,.31-.74l-1-2.5a.57.57,0,0,0-.73-.32.58.58,0,0,0-.32.74l1,2.5A.58.58,0,0,0,313.39,367.39Z" transform="translate(-221.81 -280.05)"/><path d="M316.33,364.49a.57.57,0,0,0-.19-.78L314,362.38a.57.57,0,0,0-.6,1l2.17,1.34A.57.57,0,0,0,316.33,364.49Z" transform="translate(-221.81 -280.05)"/><path d="M318.55,362a.57.57,0,0,0-.37-.71l-2.17-.67a.57.57,0,0,0-.71.38.56.56,0,0,0,.38.7l2.16.67A.57.57,0,0,0,318.55,362Z" transform="translate(-221.81 -280.05)"/><path d="M319,359.09a.57.57,0,1,0,0-1.13h-3a.57.57,0,1,0,0,1.13Z" transform="translate(-221.81 -280.05)"/><path d="M315.75,356.21l2.5-1.17a.57.57,0,0,0-.48-1l-2.5,1.17a.57.57,0,0,0,.48,1Z" transform="translate(-221.81 -280.05)"/><path d="M326.85,384.12l1.5-2.83a.57.57,0,1,0-1-.53l-1.5,2.83a.58.58,0,0,0,.24.77A.57.57,0,0,0,326.85,384.12Z" transform="translate(-221.81 -280.05)"/><path d="M324.07,384.26a.57.57,0,0,0,.51-.62l-.34-3.5a.57.57,0,1,0-1.13.11l.34,3.5A.56.56,0,0,0,324.07,384.26Z" transform="translate(-221.81 -280.05)"/><path d="M322.2,384.73a.58.58,0,0,0,.35-.72l-1.17-3.34a.57.57,0,1,0-1.07.38l1.17,3.33A.56.56,0,0,0,322.2,384.73Z" transform="translate(-221.81 -280.05)"/><path d="M319.88,386a.56.56,0,0,0,.06-.8l-2-2.34a.58.58,0,0,0-.8-.06.57.57,0,0,0-.06.8l2,2.33A.57.57,0,0,0,319.88,386Z" transform="translate(-221.81 -280.05)"/><path d="M317.69,388.77a.58.58,0,0,0-.27-.76l-2.83-1.33a.57.57,0,0,0-.49,1l2.84,1.33A.57.57,0,0,0,317.69,388.77Z" transform="translate(-221.81 -280.05)"/><path d="M317.08,390.92a.59.59,0,0,0-.51-.63L313.4,390a.57.57,0,0,0-.62.51.56.56,0,0,0,.51.62l3.16.33A.57.57,0,0,0,317.08,390.92Z" transform="translate(-221.81 -280.05)"/><path d="M315.86,394.73l3-1a.58.58,0,0,0,.36-.72.57.57,0,0,0-.72-.35l-3,1a.56.56,0,0,0-.36.71A.57.57,0,0,0,315.86,394.73Z" transform="translate(-221.81 -280.05)"/><path d="M319.88,396.55l.83-2.33a.57.57,0,1,0-1.07-.38l-.83,2.33a.57.57,0,0,0,1.07.38Z" transform="translate(-221.81 -280.05)"/><path d="M324,397.74a.57.57,0,0,0,.39-.7l-.67-2.34a.57.57,0,0,0-1.09.31l.67,2.34A.57.57,0,0,0,324,397.74Z" transform="translate(-221.81 -280.05)"/><path d="M327.94,396.9a.57.57,0,0,0-.06-.8l-2.5-2.17a.57.57,0,0,0-.74.86l2.5,2.16A.57.57,0,0,0,327.94,396.9Z" transform="translate(-221.81 -280.05)"/><path d="M330.7,394.76a.58.58,0,0,0-.29-.75l-3-1.34a.58.58,0,0,0-.75.29.56.56,0,0,0,.29.75l3,1.33A.57.57,0,0,0,330.7,394.76Z" transform="translate(-221.81 -280.05)"/><path d="M332.74,391.58a.56.56,0,0,0-.51-.62l-3.67-.33a.56.56,0,0,0-.61.51.57.57,0,0,0,.51.62l3.67.33A.56.56,0,0,0,332.74,391.58Z" transform="translate(-221.81 -280.05)"/><path d="M329.13,389.58l3-.67a.56.56,0,1,0-.24-1.1l-3,.66a.57.57,0,0,0,.24,1.11Z" transform="translate(-221.81 -280.05)"/><path d="M329,386.65l2.5-1.83a.58.58,0,0,0,.13-.8.58.58,0,0,0-.8-.12l-2.5,1.84a.57.57,0,0,0-.12.79A.56.56,0,0,0,329,386.65Z" transform="translate(-221.81 -280.05)"/><path d="M285.32,370.84l2.33-1.5a.58.58,0,0,0,.17-.79.57.57,0,0,0-.78-.17l-2.34,1.5a.57.57,0,0,0,.62,1Z" transform="translate(-221.81 -280.05)"/><path d="M283.38,369.38l1-2.83a.57.57,0,1,0-1.07-.38l-1,2.83a.58.58,0,0,0,.35.73A.57.57,0,0,0,283.38,369.38Z" transform="translate(-221.81 -280.05)"/><path d="M279.75,369.92a.57.57,0,0,0,.49-.64l-.33-2.5a.57.57,0,0,0-1.13.15l.34,2.5A.56.56,0,0,0,279.75,369.92Z" transform="translate(-221.81 -280.05)"/><path d="M278,371.47a.56.56,0,0,0,.11-.79l-1.67-2.17a.57.57,0,0,0-.9.7l1.67,2.16A.55.55,0,0,0,278,371.47Z" transform="translate(-221.81 -280.05)"/><path d="M276.51,373.12a.56.56,0,0,0-.23-.76l-2.84-1.5a.56.56,0,0,0-.76.23.57.57,0,0,0,.23.77l2.84,1.5A.56.56,0,0,0,276.51,373.12Z" transform="translate(-221.81 -280.05)"/><path d="M276.41,375.42a.59.59,0,0,0-.51-.63l-3.16-.33a.59.59,0,0,0-.63.51.57.57,0,0,0,.51.62l3.17.33A.56.56,0,0,0,276.41,375.42Z" transform="translate(-221.81 -280.05)"/><path d="M273.17,379.07l3.5-1a.57.57,0,0,0,.39-.7.57.57,0,0,0-.7-.39l-3.5,1a.57.57,0,1,0,.31,1.09Z" transform="translate(-221.81 -280.05)"/><path d="M275.89,381.61l1.84-1.66a.58.58,0,0,0,0-.81.57.57,0,0,0-.8,0l-1.83,1.66a.57.57,0,0,0,0,.8A.56.56,0,0,0,275.89,381.61Z" transform="translate(-221.81 -280.05)"/><path d="M278.33,383.83l1.66-2.67a.57.57,0,0,0-1-.6l-1.67,2.67a.58.58,0,0,0,.18.78A.59.59,0,0,0,278.33,383.83Z" transform="translate(-221.81 -280.05)"/><path d="M282.13,384.25a.58.58,0,0,0,.44-.68l-.5-2.33a.58.58,0,0,0-.68-.44.57.57,0,0,0-.43.68l.5,2.33A.56.56,0,0,0,282.13,384.25Z" transform="translate(-221.81 -280.05)"/><path d="M286.71,383.8a.57.57,0,0,0,.07-.8l-2.33-2.83a.56.56,0,0,0-.8-.08.57.57,0,0,0-.08.8l2.34,2.83A.57.57,0,0,0,286.71,383.8Z" transform="translate(-221.81 -280.05)"/><path d="M288.49,381a.56.56,0,0,0-.18-.78l-2.17-1.33a.56.56,0,0,0-.78.18.57.57,0,0,0,.19.78l2.16,1.34A.57.57,0,0,0,288.49,381Z" transform="translate(-221.81 -280.05)"/><path d="M290.56,378.48a.55.55,0,0,0-.43-.67l-3-.67a.57.57,0,0,0-.24,1.11l3,.66A.55.55,0,0,0,290.56,378.48Z" transform="translate(-221.81 -280.05)"/><path d="M290.34,376.26a.57.57,0,1,0,0-1.13h-2.66a.57.57,0,1,0,0,1.13Z" transform="translate(-221.81 -280.05)"/><path d="M287.15,373.41l2.67-.67a.56.56,0,0,0,.41-.68.58.58,0,0,0-.69-.42l-2.67.67a.57.57,0,1,0,.28,1.1Z" transform="translate(-221.81 -280.05)"/><path d="M260.16,363.48a.55.55,0,0,0-.19-.77l-2.5-1.5a.56.56,0,0,0-.78.19.57.57,0,0,0,.2.78l2.5,1.5A.56.56,0,0,0,260.16,363.48Z" transform="translate(-221.81 -280.05)"/><path d="M256.77,366.87a.56.56,0,0,0,.25-.76l-1.34-2.67a.57.57,0,0,0-1,.51l1.33,2.66A.58.58,0,0,0,256.77,366.87Z" transform="translate(-221.81 -280.05)"/><path d="M253.41,367.26a.58.58,0,0,0,.5-.63l-.33-2.84a.56.56,0,0,0-.63-.49.55.55,0,0,0-.5.63l.33,2.83A.58.58,0,0,0,253.41,367.26Z" transform="translate(-221.81 -280.05)"/><path d="M249.86,366.27l1.33-2.84a.57.57,0,0,0-.27-.75.58.58,0,0,0-.76.27l-1.33,2.83a.57.57,0,1,0,1,.49Z" transform="translate(-221.81 -280.05)"/><path d="M246,364l2.5-1.67a.57.57,0,0,0,.16-.79.56.56,0,0,0-.79-.15l-2.5,1.66a.57.57,0,0,0,.63.95Z" transform="translate(-221.81 -280.05)"/><path d="M247.19,360.73a.57.57,0,0,0,.36-.72.58.58,0,0,0-.72-.36,15,15,0,0,1-2.49.14.57.57,0,0,0,0,1.14A15.19,15.19,0,0,0,247.19,360.73Z" transform="translate(-221.81 -280.05)"/><path d="M247.07,358.3a.56.56,0,0,0-.45-.66l-3.5-.67a.56.56,0,1,0-.21,1.11l3.5.67A.57.57,0,0,0,247.07,358.3Z" transform="translate(-221.81 -280.05)"/><path d="M246.12,356a.56.56,0,0,0-.09-.79l-2.33-1.84a.57.57,0,0,0-.71.89l2.34,1.84A.56.56,0,0,0,246.12,356Z" transform="translate(-221.81 -280.05)"/><path d="M247.7,353.64a.58.58,0,0,0,.09-.8L246,350.51a.57.57,0,0,0-.8-.1.56.56,0,0,0-.09.8l1.83,2.33A.57.57,0,0,0,247.7,353.64Z" transform="translate(-221.81 -280.05)"/><path d="M250.15,352.91a.57.57,0,0,0,.41-.69l-.83-3.33a.56.56,0,0,0-.69-.41.56.56,0,0,0-.41.68l.83,3.34A.57.57,0,0,0,250.15,352.91Z" transform="translate(-221.81 -280.05)"/><path d="M253.07,351.76a.57.57,0,0,0,.51-.62l-.34-3.34a.57.57,0,0,0-.62-.51.58.58,0,0,0-.51.63l.34,3.33A.57.57,0,0,0,253.07,351.76Z" transform="translate(-221.81 -280.05)"/><path d="M255.88,352.79l2.33-2a.57.57,0,0,0,.07-.8.56.56,0,0,0-.8-.06l-2.34,2a.58.58,0,0,0-.06.8A.57.57,0,0,0,255.88,352.79Z" transform="translate(-221.81 -280.05)"/><path d="M257.85,354.57l3.17-1a.59.59,0,0,0,.37-.72.58.58,0,0,0-.72-.36l-3.16,1a.56.56,0,0,0-.37.71A.57.57,0,0,0,257.85,354.57Z" transform="translate(-221.81 -280.05)"/><path d="M261.91,356.92a.58.58,0,0,0-.51-.63l-3.16-.33a.59.59,0,0,0-.63.51.57.57,0,0,0,.51.62l3.17.33A.56.56,0,0,0,261.91,356.92Z" transform="translate(-221.81 -280.05)"/><path d="M261.72,360.37a.57.57,0,0,0-.36-.71l-3-1a.56.56,0,1,0-.36,1.07l3,1A.57.57,0,0,0,261.72,360.37Z" transform="translate(-221.81 -280.05)"/><path d="M343.34,390.86a9.89,9.89,0,0,0,5.75,4.5c4.13,1.25,10,.75,10,.75a14.45,14.45,0,0,1-1.5-3.63c-.37-1.75-2.12-5.62-4.87-7l-5.5.13A26.27,26.27,0,0,1,343.34,390.86Z" transform="translate(-221.81 -280.05)"/><path d="M333.59,361.36a12.5,12.5,0,0,0,6.13-2.75c3.12-2.5,6.25-8.63,8-10.13,0,0,.5-.75-.5-.87a46,46,0,0,0-9.5.5c-3.38.62-6.13,2.5-6.88,3.75l1,1.37-3.12,3.13S333.09,360.36,333.59,361.36Z" transform="translate(-221.81 -280.05)"/><path d="M328.09,350.73s.88-3.87.88-4.37l-1.75,1.12-3.75-2.62.25,4.75Z" transform="translate(-221.81 -280.05)"/><path d="M350,328.36s4,5.12,4.5,9.75.75,10.5.75,10.5L349,344.36c-2.75-1.88-7.5-7.25-8.75-11.38,0,0,5.12-2.25,6.12-4.87C346.34,328.11,350.47,328.73,350,328.36Z" transform="translate(-221.81 -280.05)"/><path d="M350.09,313.11a10.61,10.61,0,0,0,6.63-1,37,37,0,0,0,6.5-3.75,20.8,20.8,0,0,0-3.13-1.25c-2.5-.88-6.37-2.5-10.12-1.13l-3.38,3.13s2.38,1.25,3.38,1.75S350.09,313.11,350.09,313.11Z" transform="translate(-221.81 -280.05)"/><path d="M321.47,301.48s-1.75-4.87-8.38-7.37-13.62-4.5-16.87-7.13c0,0-1.5-.75.12.88a18.11,18.11,0,0,1,4.75,6.5c1.25,3.12,4.25,9.75,10,11.75l6.13.62Z" transform="translate(-221.81 -280.05)"/><path d="M291.72,320.86a22.65,22.65,0,0,0,3-7.63c1-4.75,1.25-10.37,2.25-12.37,0,0,.25-.63-.75.12s-2.88,2.88-5.13,4.5-5,3.88-6.12,8.13c0,0,4.5,4.87,4,8.62Z" transform="translate(-221.81 -280.05)"/><path d="M272.72,310a12.13,12.13,0,0,0,9,.38c4.87-1.75,9.37-6.88,9.37-6.88a52.67,52.67,0,0,0-7-4.12c-2.87-1.25-7.12-1.5-10,.12l-2,3.38,3,2.62a7.58,7.58,0,0,1-2,2.63,11.71,11.71,0,0,0-1.62,1.25Z" transform="translate(-221.81 -280.05)"/><path d="M274.84,314.36l1.63-4.13-2.38-.87s-1-.75-1.5-.63-1.5,1.25-1.5,1.25l1.25.88-3.75,3.25,1.88,1.12,2.5,2.63.62-3.75Z" transform="translate(-221.81 -280.05)"/><path d="M239.72,306.23a9.15,9.15,0,0,0-5-4c-3.38-1-4.38,1.38-4.38,1.38l-.12,2.12s-.13,4.5,5.87,6.13l1.13-4.88Z" transform="translate(-221.81 -280.05)"/><path d="M248.72,375.23s2.25,5-.5,9.63-6,7.87-6.38,9.12c0,0-3.5-6.75-3.5-10.37l2-3.88,1.25.88A15.76,15.76,0,0,0,248.72,375.23Z" transform="translate(-221.81 -280.05)"/><path d="M237.31,301.89l-.26-1.39a5.92,5.92,0,0,1-6.08-3.14l-1.25.67A7.42,7.42,0,0,0,237.31,301.89Z" transform="translate(-221.81 -280.05)"/><path class="cls-1" d="M287.84,478.78A23.83,23.83,0,1,1,264,454.94,23.83,23.83,0,0,1,287.84,478.78Z" transform="translate(-221.81 -280.05)"/><path class="cls-2" d="M257.2,468.39a11.25,11.25,0,0,1-1.7-.85,4.55,4.55,0,0,0-2-.68,13.58,13.58,0,0,1,.29,2.47c0,1.15.39,2.17,1.41,1.78S257.2,468.39,257.2,468.39Z" transform="translate(-221.81 -280.05)"/><path class="cls-2" d="M260,471.75s-1.15,1-1.79,1.66-.63.77.9.39c0,0,2-.22,2.34-.73s.09-1.36-.51-1.36-1.45-.42-1.11-1l1.7-1.53a1.49,1.49,0,0,0,.17-.77c0-.51.35-7.23.26-7.75s-.42-1.87-.51-2.29.25-.6.77-.34a8.85,8.85,0,0,1,1.53,1.36,1.51,1.51,0,0,1,.34,1c-.09.51-.34,4.6-.34,4.85s.51.94.76.68,4.43-4.51,4.68-4.76.34-.69.69-.94.68-.34,1.19.42,1,1.62,1,1.62-.09.94-.6,1.19-7.83,6.13-8.08,6.39-.6.59-.51,1,.17,1.36.17,1.36.51.51.93.17,3.66-2.13,4-2.3.17-.51.94-.25a3.59,3.59,0,0,1,1.7,2c.17.6-.08.68-.59.85s-3.58,2-3.58,2-.34.17.09.34a8.21,8.21,0,0,1,1.19.77s1.1.17.76.94a25.49,25.49,0,0,0-1.7,3.23,32.26,32.26,0,0,0-.85,6.47c0,.94.68,1.45,1.79,1.53a27.73,27.73,0,0,0,6.47-.08c1.7-.43,3.66-2.81,3.83-3.24a4.19,4.19,0,0,0,.25-1.36c0-.34.51-.25.94.17a38.72,38.72,0,0,1,2.21,4.51,1.6,1.6,0,0,1-.59,2,21.7,21.7,0,0,1-3.58,1.19c-1,.34-8.68.17-10.72-.17s-2.64-.85-2.73-2.89.17-7.83.17-7.83-.08-.85-.51-.68-3.15,3.32-3.91,4-6.47,6.21-7.07,6.47a15.44,15.44,0,0,1-3.4,0c-.43,0-.51-.6.17-.85a9,9,0,0,0,1.61-.86c.43-.25,9.79-10.81,10-11.4a4,4,0,0,0,.34-1.45.8.8,0,0,0-1.19-.51c-.6.34-3.66,2.47-4.35,2.81a3.47,3.47,0,0,1-2.29-.17c-.51-.17-.51-.68-.09-1.11s5.28-4.59,5.54-4.77S260.69,470.69,260,471.75Z" transform="translate(-221.81 -280.05)"/><path class="cls-1" d="M230.34,486.86c3.67,2.33,11.5,5.17,11.5,5.17-8.33-15.67.34-27.34.34-27.34a110.37,110.37,0,0,1-11.67-5Z" transform="translate(-221.81 -280.05)"/><path class="cls-1" d="M311.68,511a329.14,329.14,0,0,1-37-8.34,26.78,26.78,0,0,0,16-22s34.41,9.92,75.66,2.67L366.18,503s-.34,7.66-10.34,8.33Z" transform="translate(-221.81 -280.05)"/></svg>