<svg id="_3_2" xmlns="http://www.w3.org/2000/svg" viewBox="0 0 153.07 238.11"><defs><style>.cls-1{fill:#ed1c24;}.cls-2{fill:#fff;}.cls-3{fill:#f9aa8f;}</style></defs><title>_3_2</title><rect class="cls-1" width="153.07" height="238.11"/><path class="cls-2" d="M226.62,309V515.86s.5,8.33,9.33,9.16H353.62s9.17-1.33,9-10.16v-206a10.38,10.38,0,0,0-10-8.67L236,300.52S227.29,301,226.62,309Z" transform="translate(-218.02 -293.64)"/><path class="cls-3" d="M262.79,373.61,260.54,372s-3.75,5.13-7.75,6.63l-3.5-4.5a42.45,42.45,0,0,1-4.38,2.75,72.73,72.73,0,0,1-1.75-7.38,6.57,6.57,0,0,0-1.12-2.75l-4.13-3.5s-3.87-1.37-5.12-3.25l5.87-7.5-5.75-5.12a15.74,15.74,0,0,1,8.88-4.63c6-1.12,8.5-7.12,8.5-7.12l1.25-.75-2.88-3.75,3.88-4.25-2.5-4.5s0-.25,1.25-.63,5.87-1.12,5.87-1.12l6-2.5s3.88-4.38,6.63-5.5l2.5,3.75,4.5-3.75s4.25,1.25,6.75,11.12l3,5.13,8.75-5s-1.88-10.63,2.37-16.75a24.35,24.35,0,0,1,6.63,3.37,40.32,40.32,0,0,1,1.87-5.62s5,2.12,7.38,4.75,3.87,2.87,3.87,2.87l5,2.5a49.12,49.12,0,0,1,5.88,2.88s-.75,1.87-1.25,2.87,3.75,5.5,3.75,5.5l.62,3s-5.25,5.13-7.87,6.13c0,0,2.25,10.5-1.5,14a25.13,25.13,0,0,1-8.5,5L280,373.23l-6.75,6.13H266Z" transform="translate(-218.02 -293.64)"/><path class="cls-3" d="M226.62,425.69l1.33-.5s-.66-8.67,2.17-12a39.27,39.27,0,0,1,5,1.67l3-5.17a12.83,12.83,0,0,1,8.83,4.5s4-5.33,8-6.33a9.27,9.27,0,0,1,2,4.83l4.84-2.33,3.5.83,1.16,5,.67,11.33-3.83,14.34s-6.5,1.16-7.34,1l-12.5-2.67-15,1.67-2-1.67Z" transform="translate(-218.02 -293.64)"/><path class="cls-3" d="M299.91,444.36a11.59,11.59,0,0,1,8.55,1.5,16.5,16.5,0,0,1,10.83-9,11.17,11.17,0,0,1,.33,5.5,56.75,56.75,0,0,0,6.17-2.17,31,31,0,0,1,.37,12.17s7.13,3.25,8,7.62,1,5.88,1,5.88l-2.37,2.5s-8.75,3.5-10.25,3.87-9.13,1.88-9.5,1.75-10-5.5-10-5.5l-6.63-3-3-3.75.75-6.25Z" transform="translate(-218.02 -293.64)"/><path class="cls-3" d="M243.41,481.11s-9.5-1-15,7.25c0,0,3.63,3.37,4,3.75,0,0-3.12,5-3.37,5.87s.62,3,4.12,4.13a57.7,57.7,0,0,0,7.75,1.75l3.75,8.37a40,40,0,0,0,2.5,5.5s3.25-1.37,4.63-3.5l4.87,3.88,2.75,1.12.88-6,.5-4.25s5.75.75,10-.5a20,20,0,0,0-.63-5.5s5.13-1.75,6.38-3.87c0,0-1.25-5.88-4.13-7.88s-15-9.62-15-9.62Z" transform="translate(-218.02 -293.64)"/><path class="cls-1" d="M269.45,337.69l12-.33s-1.5-9.34,1-14a15.67,15.67,0,0,1,5,3.62l4.13-4.75s3.62.75,7.62,6.75c0,0,3-5.25,14.38-2.12a18.76,18.76,0,0,1-1.88,5.25,54.84,54.84,0,0,0,5.75-.38s.75,6.13-3.12,10.88a18.09,18.09,0,0,1,8.87,8.87s7.13-4,10-2.75a19.42,19.42,0,0,1,5,3.25l1.63,3.88a24.22,24.22,0,0,1-5.13,9.25,21.63,21.63,0,0,1,4.63,7.37l-.25,4.25a47.06,47.06,0,0,1-.5,10.13,13.25,13.25,0,0,1,5.25,5.25,15.58,15.58,0,0,1,1.62,6.12l-5.62,1,1,7.5s-2.63-.12-4-.12-13.63,2-13.63,2-1.5,5.25-3.75,5.75a18.21,18.21,0,0,1-4.87.25l-3.5-2.13-2.5-3.87s-3,14.25-3.75,18.5-4.88,17.25-4.88,17.25l-4.75,14.37,4,2.63,3.13-2.75s1,0,1.25.37,4.5,4.75,4.5,4.75a27.8,27.8,0,0,1,9-.87c4,.5,4.62,1,4.62,1l-3.25,5.37,4.13,3.38a1.84,1.84,0,0,1,.12,1c-.12.37-1.62,2.75-1.62,2.75l-3.5,7.37a18.29,18.29,0,0,1,1.75,6.13,24.35,24.35,0,0,1-1.38,7.12l-8.75,3s-8.12-2.62-10.25-5.25c0,0-4.37,8.38-12,6l-1.5-3.37,1.63-4.88s-4.63-.37-6.38-1.37l-41.87-.88s-.63-.5.12-1.25,5.63-10,7.38-13.87c0,0-4.5-3.38-5.25-4.25,0,0-3.38,3.37-6,3.87,0,0-2.63-4.12-1-10.37,0,0-6.5-1.75-7.38-5.63l.25-7.5a9.13,9.13,0,0,1,2.63-3s-3-2.62-2.88-5l.13-4.25a25.9,25.9,0,0,1,9.75-3.25l5-8.62.62.25,3.38,3.87.87-.5a41.88,41.88,0,0,1,4-1.62,24.42,24.42,0,0,1,5.75,9.25l3.75.25a227.15,227.15,0,0,0,8.71-40.92C271.29,374.86,271.62,354.86,269.45,337.69Z" transform="translate(-218.02 -293.64)"/><path class="cls-1" d="M241.29,317.19s.33-5-3-8-9.67-3.33-10.67.5,2.5,6.67,5.33,8S240.62,317.86,241.29,317.19Z" transform="translate(-218.02 -293.64)"/><path class="cls-1" d="M340,310s.66-3.83,5.5-5.16,7,1.5,7.33,2.66.17,3.67-5,4.84S340.46,310.52,340,310Z" transform="translate(-218.02 -293.64)"/><path class="cls-1" d="M339.91,447.11a10.16,10.16,0,0,1,7.63-5.75c5.87-1.13,7.37.87,7.87,2.87s.5,4.5-1.87,5.5S342.16,451.36,339.91,447.11Z" transform="translate(-218.02 -293.64)"/><path class="cls-1" d="M297.41,505.36a7.56,7.56,0,0,0-4.87,5.25C291.16,515,293.79,519,297,519s4.5-2.5,4.75-6.37S299.54,506,297.41,505.36Z" transform="translate(-218.02 -293.64)"/><path class="cls-1" d="M253.66,515.61a10.42,10.42,0,0,0,.63,5.37c1.12,2.63,5.12,3.88,5.5,4s5,0,5,0a6.76,6.76,0,0,0,1.25-6.87,7.2,7.2,0,0,0-5.75-4.88s-1.13,4-2.38,4.63Z" transform="translate(-218.02 -293.64)"/><path class="cls-1" d="M239.79,400.73s-5.5-2.37-6.5-6.12,1.25-8.38,4.12-8.75,5.88,2.37,5.88,6.62S241.29,400.23,239.79,400.73Z" transform="translate(-218.02 -293.64)"/><path class="cls-1" d="M257.45,351.61a5.09,5.09,0,0,0-4.25,4.5c-.33,3.91,3.42,5.41,5.75,5.16a5,5,0,0,0,4.25-5.91C262.7,351.94,258.54,351.19,257.45,351.61Z" transform="translate(-218.02 -293.64)"/><path class="cls-1" d="M266.62,337.27a8,8,0,0,1,5.42-5c4.33-1.25,7.75.34,8.41,1.42a17,17,0,0,1,1.25,3.83l-12,.5-.08,2.34Z" transform="translate(-218.02 -293.64)"/><path class="cls-1" d="M306.71,326s1.41-1.49,4.66-1.33,5.84,2.83,4.17,7.42l-3.75-.42Z" transform="translate(-218.02 -293.64)"/><path class="cls-1" d="M304.54,459.61a8.65,8.65,0,0,1,4.5-4.38c3.12-1.12,9.5.63,8.5,7.38l-4.13,4.5-6.37-.25L304.41,463Z" transform="translate(-218.02 -293.64)"/><path class="cls-1" d="M246.29,490.86a7.73,7.73,0,0,0,7.62,6.75c7,.37,9.25-6.38,9.25-6.38Z" transform="translate(-218.02 -293.64)"/><path class="cls-1" d="M239.41,430.48s-2.42-.33-1.37-3.37c1.12-3.25,6.37-3.75,9.12-1.88s2.13,4,2.13,4L245,434.11Z" transform="translate(-218.02 -293.64)"/><path d="M236.54,299.65a10.64,10.64,0,0,0-10.63,10.63V515.1a10.64,10.64,0,0,0,10.63,10.63H352.7a10.64,10.64,0,0,0,10.63-10.63V310.28a10.64,10.64,0,0,0-10.63-10.63ZM227.33,515.1V310.28a9.22,9.22,0,0,1,9.21-9.21H352.7a9.22,9.22,0,0,1,9.21,9.21V515.1a9.23,9.23,0,0,1-9.21,9.22H236.54A9.23,9.23,0,0,1,227.33,515.1Z" transform="translate(-218.02 -293.64)"/><path d="M309.26,335.65l-40.76,1.53.08.76c9.86,85.9-30.48,151.39-30.89,152L237,491l44.19,1,.21-.4c43.12-82.76,28.71-154.75,28.56-155.47l-.12-.58Zm-.55,1.44A180.07,180.07,0,0,1,311,367.77c0,28.59-5.18,73.79-30.65,122.87l-40.83-1c4.49-7.66,32-57.46,32-124.5a242.28,242.28,0,0,0-1.49-26.64Z" transform="translate(-218.02 -293.64)"/><path d="M261.79,333c-.19,0-1.83,0-2.33,1.28a50.3,50.3,0,0,1-2.83,4.19l-.09.13c-1.12-1.16-3.54-3.64-4.46-4.43l-.57-.49-.46.61a29.32,29.32,0,0,0-4.1,8.14c-2.1-.24-9.26-.64-14.32,4.27l-.53.51.53.51c1.4,1.35,4,3.91,5.09,5.05a22.41,22.41,0,0,1-2.73,3.4,25.12,25.12,0,0,0-3,3.46l-.32.46.37.42a11.58,11.58,0,0,0,5.37,3.39,12.51,12.51,0,0,0,5.75-.35,50.05,50.05,0,0,0-.63,6.13c0,.21,0,.42,0,.63a17.83,17.83,0,0,0,1.58,7.22l.34.66.64-.36a28.79,28.79,0,0,0,4.17-2.75,22.7,22.7,0,0,0,3,4.3l.34.35.45-.21a20.77,20.77,0,0,0,7.86-6.59c1.45,1.19,5.33,4.09,9.25,4.65l.2-1.4c-4.4-.63-9.08-4.79-9.13-4.83l-.66-.59-.43.77c-2,3.54-5.91,5.79-7.22,6.47a31.12,31.12,0,0,1-2.87-4.45l-.64-1.22-.62,1.23a16,16,0,0,1-3.7,2.63,16.61,16.61,0,0,1-1.14-5.89c0-.19,0-.37,0-.56a45.74,45.74,0,0,1,.81-7l.28-1.26-1.21.44s-3.51,1.25-6.1.64a9.73,9.73,0,0,1-4.23-2.54,19.6,19.6,0,0,1,2.37-2.73,28.53,28.53,0,0,0,3.29-4.14l.29-.44-.33-.41c-.69-.82-3.73-3.79-5-5,5.33-4.59,13.07-3.35,13.15-3.34l.65.11.16-.63a26.66,26.66,0,0,1,3.6-7.61c1.49,1.42,4.34,4.39,4.37,4.42l.59.62,1.09-1.52a41.31,41.31,0,0,0,3-4.49c.09-.23.52-.33.84-.36,2.88,1.72,7.91,7.66,8,7.72l1.08-.91c-.22-.27-5.45-6.46-8.53-8.17L262,333Z" transform="translate(-218.02 -293.64)"/><path d="M253.73,347.84a.57.57,0,0,0-.3.74l1.34,3.17a.57.57,0,1,0,1-.45l-1.33-3.16A.57.57,0,0,0,253.73,347.84Z" transform="translate(-218.02 -293.64)"/><path d="M257,347a.56.56,0,0,0-.43.67l.66,3.17a.57.57,0,0,0,.67.44.57.57,0,0,0,.44-.67l-.66-3.17A.58.58,0,0,0,257,347Z" transform="translate(-218.02 -293.64)"/><path d="M260.05,347.13a.56.56,0,0,0-.49.63l.33,2.83a.57.57,0,1,0,1.13-.13l-.34-2.83A.56.56,0,0,0,260.05,347.13Z" transform="translate(-218.02 -293.64)"/><path d="M263.92,349.1l-2.5,2.16a.57.57,0,0,0,.74.86l2.5-2.17a.56.56,0,1,0-.74-.85Z" transform="translate(-218.02 -293.64)"/><path d="M266.79,352.15l-3.33,1a.56.56,0,1,0,.32,1.08l3.34-1a.56.56,0,0,0,.38-.7A.57.57,0,0,0,266.79,352.15Z" transform="translate(-218.02 -293.64)"/><path d="M264.29,356.29a.57.57,0,1,0,0,1.14h2.83a.57.57,0,0,0,0-1.14Z" transform="translate(-218.02 -293.64)"/><path d="M263.19,359.16a.56.56,0,0,0,.07.8l2,1.67a.56.56,0,1,0,.72-.87l-2-1.67A.56.56,0,0,0,263.19,359.16Z" transform="translate(-218.02 -293.64)"/><path d="M260.86,360.69a.57.57,0,0,0-.24.77l1.5,2.83a.57.57,0,1,0,1-.53l-1.5-2.83A.56.56,0,0,0,260.86,360.69Z" transform="translate(-218.02 -293.64)"/><path d="M257.72,362.14l-.33,3.5a.57.57,0,1,0,1.13.11l.33-3.5a.56.56,0,0,0-.51-.62A.57.57,0,0,0,257.72,362.14Z" transform="translate(-218.02 -293.64)"/><path d="M254.84,361.17,253,363.51a.56.56,0,0,0,.09.79.57.57,0,0,0,.8-.09l1.83-2.33a.57.57,0,0,0-.09-.8A.58.58,0,0,0,254.84,361.17Z" transform="translate(-218.02 -293.64)"/><path d="M253.06,359.34l-2.67,1.17a.57.57,0,0,0-.29.74.56.56,0,0,0,.75.29l2.66-1.16a.58.58,0,0,0,.3-.75A.56.56,0,0,0,253.06,359.34Z" transform="translate(-218.02 -293.64)"/><path d="M248.72,356.64a.57.57,0,0,0,.51.62l3.33.33a.58.58,0,0,0,.63-.51.57.57,0,0,0-.51-.62l-3.34-.33A.56.56,0,0,0,248.72,356.64Z" transform="translate(-218.02 -293.64)"/><path d="M248.47,352.24a.56.56,0,0,0,.2.77l2.83,1.67a.57.57,0,1,0,.58-1L249.24,352A.56.56,0,0,0,248.47,352.24Z" transform="translate(-218.02 -293.64)"/><path d="M251.2,350a.57.57,0,0,0,0,.8l2,1.83a.57.57,0,0,0,.8,0,.58.58,0,0,0,0-.81l-2-1.83A.56.56,0,0,0,251.2,350Z" transform="translate(-218.02 -293.64)"/><path d="M269.81,311.89a21.19,21.19,0,0,0-8.75,8.54,22.8,22.8,0,0,0-11.73,1.12l-.81.36.54.71a26.18,26.18,0,0,1,2.82,4.3,42.86,42.86,0,0,1-3.89,3.74l-.54.47,3.65,4,1.05-.95-2.69-3c2.38-2.12,3.71-3.5,3.85-4a1,1,0,0,0,0-.21c0-.41-.34-1.42-2.58-4.46a22.92,22.92,0,0,1,10.58-.64l.52.09.23-.48a20.72,20.72,0,0,1,7.76-8c.5.88,2.41,4.29,2.41,4.29l.66-.57c1-.85,3.31-2.9,4.35-3.77A19.12,19.12,0,0,1,282.76,324l1.39-.26c-1.53-8-6.24-11.62-6.44-11.77l-.42-.32-.43.32c-.52.39-3,2.57-4.22,3.62-.57-1-2.24-4-2.24-4Z" transform="translate(-218.02 -293.64)"/><path d="M291.2,321.63c-.44.66-2.57,2.95-3.85,4.3a15.94,15.94,0,0,0-4.59-3.38l-.64-.3-.3.63c-2.74,5.65-1.13,14.41-1.06,14.78l1.39-.27a36.07,36.07,0,0,1-.5-6,20,20,0,0,1,1.18-7.23,11.3,11.3,0,0,1,3.85,3.21l.48.78.64-.66c.34-.36,3-3.14,4.15-4.55a21.19,21.19,0,0,1,6.56,6.74l.63,1.12.61-1.15s2.45-4.24,13-2.4a16.29,16.29,0,0,1-1.58,4.36l-.66,1.05,1.23,0a32.68,32.68,0,0,0,4.93-.15c-.18,2.37-1.13,9.28-6.32,13l.83,1.15c6.88-5,7-14.67,7-15.08v-1l-1,.36a17.9,17.9,0,0,1-4.27.31,24.25,24.25,0,0,0,1.38-4.52l.13-.69-.69-.13c-9.36-1.82-13.2.7-14.58,2.15a23.36,23.36,0,0,0-7-6.74l-.58-.33Z" transform="translate(-218.02 -293.64)"/><path d="M305.31,304.4a32.48,32.48,0,0,0-1.63,5.07,30.27,30.27,0,0,0-6-3.27l-.6-.24-.29.58c-4.06,8.12-2.3,17.4-2.23,17.79l1.39-.27a31.72,31.72,0,0,1-.39-5.09,27.25,27.25,0,0,1,2.25-11.18,26.76,26.76,0,0,1,5.83,3.45l.9.74.24-1.14a42.16,42.16,0,0,1,1.55-5.28c1.55.51,6.27,2.57,9.28,9.26l.25.55.59-.16s4.31-1,11.09,3a8.43,8.43,0,0,1-3.62,3.88l-.92.51.81.66c2.08,1.7,4.55,3.67,5.78,4.45a11.61,11.61,0,0,1-6.6,7.18l-.67.28.29.66a15.65,15.65,0,0,1,1,5.53,15,15,0,0,1-1.78,7.18l1.25.67a16.48,16.48,0,0,0,2-7.86,17.35,17.35,0,0,0-.88-5.47,13,13,0,0,0,7-8.36l.12-.57-.6-.25a59.85,59.85,0,0,1-5.18-3.92,9.54,9.54,0,0,0,3.65-4.71l.14-.51-.45-.28c-6.28-3.91-10.66-3.75-12.17-3.53-4-8.24-10.29-9.68-10.56-9.73l-.55-.12Z" transform="translate(-218.02 -293.64)"/><path d="M330.36,368.32c-7.28.95-10.84,4.38-12.1,5.91a21.69,21.69,0,0,0-6.33-5l-.62,1.28a20.23,20.23,0,0,1,6.42,5.29l.62.81.54-.87c0-.05,3-4.56,10.9-5.86,0,.63.06,1.54.06,2.56a21.76,21.76,0,0,1-.26,3.79l-.19,1,1-.14a30.83,30.83,0,0,0,7.49-2,20.65,20.65,0,0,1,.72,5.56,24,24,0,0,1-.82,6.19l-.14.52.46.27c.05,0,4.31,2.59,5.37,5.16a22.63,22.63,0,0,1,1.35,5.08,42.1,42.1,0,0,0-5.75.65l-.58.19,1.3,7.3a28.56,28.56,0,0,1-14-4.26l-.78-.47-.26.88c0,.08-2.06,7.08-4.68,10.56l-4-4.82-.54.38c-.35.26-3,2.15-4.28,3.2-1.07-1.57-2.1-3.36-2.1-4h-1.41c0,1.49,2.33,4.78,2.8,5.42l.49.67.58-.58c.42-.42,2.58-2,4.21-3.21l4.27,5.12.55-.61c2.55-2.83,4.56-8.78,5.23-10.94,8.21,4.57,14.54,4,14.81,4l.76-.08s-1.15-6.45-1.34-7.57c1.24-.2,3.88-.41,5.55-.52l.74,0-.07-.74a25.93,25.93,0,0,0-1.55-6.2c-1-2.53-4.37-4.82-5.54-5.57a25.63,25.63,0,0,0,.78-6.07,20.06,20.06,0,0,0-1.07-6.84l-.34-.87-.75.56c-1.29,1-4.76,1.71-6.76,2.05a28.14,28.14,0,0,0,.17-3.1c0-1.78-.1-3.32-.11-3.43l-.05-.75Z" transform="translate(-218.02 -293.64)"/><path d="M314.18,343.68c8.08,3.42,8.39,8.17,8.4,8.37l.06,1.34,1.07-.8a20.5,20.5,0,0,1,7.54-3.37v5.62l.68.06c.4,0,3.69.84,6.82,1.64a21.44,21.44,0,0,1-4.64,8.33l-.59.62.72.46c2.09,1.36,3.12,6.35,3.34,8.16l1.41-.17c0-.27-.81-6.18-3.38-8.63a21.31,21.31,0,0,0,4.71-9.15l.12-.66-.64-.16c-2.21-.57-5.65-1.43-7.14-1.74v-6.06l-.81.12a22,22,0,0,0-8.07,3.18c-.54-1.88-2.4-5.66-9-8.47Z" transform="translate(-218.02 -293.64)"/><path d="M312.45,366.27a.56.56,0,0,0,.25.76l2.67,1.34a.57.57,0,0,0,.51-1L313.21,366A.56.56,0,0,0,312.45,366.27Z" transform="translate(-218.02 -293.64)"/><path d="M315.26,363.42a.56.56,0,0,0-.07.8l1.66,2a.57.57,0,0,0,.8.07.56.56,0,0,0,.07-.79l-1.66-2A.56.56,0,0,0,315.26,363.42Z" transform="translate(-218.02 -293.64)"/><path d="M318.08,361a.56.56,0,0,0-.32.74l1,2.5a.57.57,0,0,0,.74.31.56.56,0,0,0,.31-.74l-1-2.5A.55.55,0,0,0,318.08,361Z" transform="translate(-218.02 -293.64)"/><path d="M321.72,359.29a.58.58,0,0,0-.5.63l.34,3a.56.56,0,0,0,1.12-.12l-.33-3A.57.57,0,0,0,321.72,359.29Z" transform="translate(-218.02 -293.64)"/><path d="M324.72,360l-.33,3a.57.57,0,0,0,1.13.13l.33-3a.57.57,0,1,0-1.13-.13Z" transform="translate(-218.02 -293.64)"/><path d="M329.2,360.82l-2.5,2.83a.56.56,0,1,0,.84.75l2.5-2.83a.57.57,0,0,0,0-.8A.56.56,0,0,0,329.2,360.82Z" transform="translate(-218.02 -293.64)"/><path d="M332.42,363.49l-3.16,1.17a.56.56,0,0,0-.34.73.57.57,0,0,0,.73.33l3.17-1.16a.57.57,0,0,0-.4-1.07Z" transform="translate(-218.02 -293.64)"/><path d="M323.24,380.63a.57.57,0,0,0-.52.61l.17,2a.57.57,0,1,0,1.13-.1l-.17-2A.56.56,0,0,0,323.24,380.63Z" transform="translate(-218.02 -293.64)"/><path d="M319.62,380.32a.56.56,0,0,0-.37.71l.83,2.66a.56.56,0,1,0,1.08-.33l-.83-2.67A.56.56,0,0,0,319.62,380.32Z" transform="translate(-218.02 -293.64)"/><path d="M315.33,383a.57.57,0,0,0,.12.8l2.5,1.83a.57.57,0,0,0,.67-.92l-2.5-1.83A.57.57,0,0,0,315.33,383Z" transform="translate(-218.02 -293.64)"/><path d="M313.74,386.88a.57.57,0,0,0,.4.69l2.5.67a.58.58,0,0,0,.7-.4.57.57,0,0,0-.41-.7l-2.5-.66A.57.57,0,0,0,313.74,386.88Z" transform="translate(-218.02 -293.64)"/><path d="M313.23,390.1a.57.57,0,0,0,.47.65l3.17.5a.56.56,0,0,0,.64-.47.57.57,0,0,0-.47-.65l-3.16-.5A.57.57,0,0,0,313.23,390.1Z" transform="translate(-218.02 -293.64)"/><path d="M316.27,392.08l-1.67,1.34a.57.57,0,0,0-.09.79.56.56,0,0,0,.8.09L317,393a.56.56,0,0,0,.09-.8A.57.57,0,0,0,316.27,392.08Z" transform="translate(-218.02 -293.64)"/><path d="M318,393.68l-1.67,2.17a.56.56,0,0,0,.1.79.57.57,0,0,0,.8-.1l1.66-2.17a.56.56,0,1,0-.89-.69Z" transform="translate(-218.02 -293.64)"/><path d="M320.25,395a.57.57,0,0,0-.53.6l.17,2.67a.57.57,0,1,0,1.13-.07l-.17-2.67A.57.57,0,0,0,320.25,395Z" transform="translate(-218.02 -293.64)"/><path d="M322.65,394.64a.57.57,0,0,0-.41.69l.66,2.67a.58.58,0,0,0,.69.41.56.56,0,0,0,.41-.69l-.66-2.67A.58.58,0,0,0,322.65,394.64Z" transform="translate(-218.02 -293.64)"/><path d="M324.84,393.84a.57.57,0,0,0,.1.8l2.33,1.83a.58.58,0,0,0,.8-.09.57.57,0,0,0-.1-.8l-2.33-1.83A.57.57,0,0,0,324.84,393.84Z" transform="translate(-218.02 -293.64)"/><path d="M326.78,392.12a.55.55,0,0,0,.27.75l2.83,1.34a.56.56,0,0,0,.75-.28.55.55,0,0,0-.27-.75l-2.83-1.33A.55.55,0,0,0,326.78,392.12Z" transform="translate(-218.02 -293.64)"/><path d="M327.57,389.58a.57.57,0,0,0,.43.67l3.17.66a.56.56,0,0,0,.67-.43.57.57,0,0,0-.44-.68l-3.16-.66A.56.56,0,0,0,327.57,389.58Z" transform="translate(-218.02 -293.64)"/><path d="M327.9,387.08a.57.57,0,0,0,.44.67l3.16.66a.57.57,0,0,0,.68-.43.59.59,0,0,0-.44-.68l-3.17-.66A.56.56,0,0,0,327.9,387.08Z" transform="translate(-218.02 -293.64)"/><path d="M328.57,383.44l-2.17,2a.57.57,0,0,0,0,.8.56.56,0,0,0,.8,0l2.17-2a.57.57,0,1,0-.77-.83Z" transform="translate(-218.02 -293.64)"/><path d="M325.75,381.33l-.66,1.83a.56.56,0,0,0,.34.73.55.55,0,0,0,.72-.34l.67-1.83a.56.56,0,0,0-.34-.73A.58.58,0,0,0,325.75,381.33Z" transform="translate(-218.02 -293.64)"/><path d="M227.62,308.36a4,4,0,0,0-.77,3.55c.23,1.18,1.19,4.12,5.32,5.93,4.6,2,7.59.77,8.63.17l8.47,4.8a.72.72,0,0,0,1-.27.73.73,0,0,0,.09-.35.71.71,0,0,0-.36-.61l-8-4.56c0-.06.07-.1.07-.16,0-1-.21-6.29-4.35-8.78C232.61,305.06,229.41,306.56,227.62,308.36Zm5.12,8.18c-3.51-1.53-4.31-3.93-4.49-4.89a2.7,2.7,0,0,1,.37-2.29c2.09-2.09,4.88-2.11,8.3-.06,3.12,1.87,3.58,5.85,3.65,7.17l-.21.16C240.25,316.71,237.58,318.66,232.74,316.54Z" transform="translate(-218.02 -293.64)"/><path d="M344.22,304.69c-4.61,1.6-5.1,5-5.13,5.23a66.81,66.81,0,0,0-13.16,5.83.7.7,0,0,0-.25,1,.71.71,0,0,0,1,.25c.07,0,7.3-4.25,13.22-5.8.77.82,2.91,2.45,7.34,1.89,3.35-.42,4.89-1.88,5.58-3a4.07,4.07,0,0,0,.49-3.41C352.6,304.78,349,303,344.22,304.69Zm.47,1.34c4.27-1.48,6.93.17,7.27,1.08a2.74,2.74,0,0,1-.38,2.18c-.53.89-1.76,2-4.55,2.37-4.75.59-6.25-1.59-6.31-1.68l-.15-.22C340.79,309,341.62,307.09,344.69,306Z" transform="translate(-218.02 -293.64)"/><path d="M241.23,426.43A51.21,51.21,0,0,0,236,435c-1.47.18-6.58,1.05-9.88,4.5l1,1c3.43-3.58,9.32-4.11,9.38-4.11l.42,0,.17-.38a48.87,48.87,0,0,1,4.77-8,27.31,27.31,0,0,1,3.32,4.13l.56.9.62-.87c.74-1.07,2.85-2,4-2.4a37.86,37.86,0,0,1,5.08,8.91l.15.41,4.28.38L260,438l-3.4-.3a37.1,37.1,0,0,0-5.46-9.29l-.3-.36-.45.14a14.3,14.3,0,0,0-4.53,2.38,26.61,26.61,0,0,0-3.61-4.22l-.57-.53Z" transform="translate(-218.02 -293.64)"/><path d="M226.12,443.58a14.76,14.76,0,0,0,2.57,4.77,14.85,14.85,0,0,0-2.67,2.8l1.2.75a16.5,16.5,0,0,1,3-3l.8-.64-.88-.53c-1.05-.63-2.21-3.17-2.69-4.62Z" transform="translate(-218.02 -293.64)"/><path d="M225.77,458.56c.06.19,1.48,4.56,7.71,6.44a24.72,24.72,0,0,0-.37,4.27,16.23,16.23,0,0,0,1,6l.28.69.67-.31a22.93,22.93,0,0,0,5.76-3.82,42.88,42.88,0,0,0,5.07,3.77l.76-1.19a41.5,41.5,0,0,1-5.4-4.09l-.57-.53-.47.62c-1.14,1.48-3.71,2.92-5,3.58a15.63,15.63,0,0,1-.72-4.71,23.68,23.68,0,0,1,.45-4.62l.15-.67-.67-.17c-6-1.54-7.28-5.52-7.33-5.69Z" transform="translate(-218.02 -293.64)"/><path d="M302.13,457.68c-.59.56-2.23,2.12-3.09,3l-3-2.4-.9,1.1,4.1,3.31.44-.64c.18-.26,1.56-1.62,2.93-2.92a31.83,31.83,0,0,1,4.56,5.26l.28.43.5-.14a24.36,24.36,0,0,1,12.86-.29l-3.33,5.09,4.68,3.68c-2.36,4.12-7.51,6.84-7.56,6.87l-.89.46.73.69a15.69,15.69,0,0,1,3.8,6.51,9.57,9.57,0,0,1,.34,2.66,17.35,17.35,0,0,1-.91,5.23l-7.37-2.74-.08.92a41.83,41.83,0,0,1-1.27,5.49,29,29,0,0,1-9.55-5.11l-.62-.57-.46.71c-4.64,7.39-9.71,6.15-11,5.69a9.09,9.09,0,0,1-.3-2.41,25.29,25.29,0,0,1,.55-4.74l.19-.82-.83,0a26.31,26.31,0,0,1-6-1.29l-.47,1.34a29.94,29.94,0,0,0,5.56,1.29,23.2,23.2,0,0,0-.44,4.25,9.85,9.85,0,0,0,.45,3.19l.1.27.26.13c.07,0,6.78,3.12,12.61-5.44a30.82,30.82,0,0,0,10.16,5.15l.68.2.2-.68c.05-.16,1-3.45,1.4-5.56l7,2.6.27-.63a18.79,18.79,0,0,0,1.25-6.4,11.6,11.6,0,0,0-.39-3.07,17.2,17.2,0,0,0-3.55-6.47c1.7-1,5.74-3.68,7.66-7.52l.26-.51-4.61-3.63c.58-.87,3.63-5.52,3.63-5.52l-.82-.32a24.69,24.69,0,0,0-14.11-.12,30.4,30.4,0,0,0-5-5.6l-.48-.39Z" transform="translate(-218.02 -293.64)"/><path d="M227.72,487.93l-.37.49.44.44a34.65,34.65,0,0,0,4.13,3.49,26,26,0,0,0-3.63,5.77l-.06.17,0,.18c.1.56,1.33,5.41,15,6.21,0,.12,0,.21,0,.36,0,2.52.35,9,3.66,13.57l.42.57.57-.42a19.42,19.42,0,0,0,4-3.79,33.18,33.18,0,0,0,5.8,3.86l.36.17.34-.21c.12-.08,2.71-1.84,2.71-8.5,0-.25,0-.54,0-.81,1.52.37,4.82.84,10.07-.26l.61-.13,0-.63a29.7,29.7,0,0,0-1-5.33,26.17,26.17,0,0,0,6.53-3.38l.37-.28-.12-.46c-.05-.22-1.43-5.43-4.92-8.05l-.85,1.13c2.55,1.92,3.87,5.56,4.26,6.81a28.26,28.26,0,0,1-6.39,3.12l-.73.23.29.71a21.5,21.5,0,0,1,1.05,5c-6.36,1.2-9.58,0-9.62-.06l-1.05-.44.07,1.14c0,.62.06,1.19.06,1.73,0,4.49-1.24,6.39-1.8,7a35.24,35.24,0,0,1-5.75-4l-.83-.74-.32,1.07c-.27.9-2,2.44-3.3,3.49-2.7-4.22-3-10.06-3-12.23,0-.53,0-.84,0-.85l0-.72-.71,0c-11.79-.56-13.94-4.13-14.28-4.93a31.08,31.08,0,0,1,3.79-5.75L234,492l-.69-.42a29.64,29.64,0,0,1-4.07-3.27c6.1-7.49,13.76-6.48,14.09-6.43l.21-1.4C243.19,480.43,234.4,479.19,227.72,487.93Z" transform="translate(-218.02 -293.64)"/><path d="M264.52,493.49a.57.57,0,0,0,.07.8l2.16,1.83a.57.57,0,0,0,.74-.86l-2.17-1.84A.57.57,0,0,0,264.52,493.49Z" transform="translate(-218.02 -293.64)"/><path d="M261.76,495.09a.57.57,0,0,0-.08.8l2.34,2.83a.56.56,0,1,0,.87-.72l-2.33-2.83A.56.56,0,0,0,261.76,495.09Z" transform="translate(-218.02 -293.64)"/><path d="M260.24,497.17a.55.55,0,0,0-.31.73l1,2.5A.57.57,0,1,0,262,500l-1-2.5A.57.57,0,0,0,260.24,497.17Z" transform="translate(-218.02 -293.64)"/><path d="M257.52,498.47a.57.57,0,0,0-.46.66l.5,2.67a.57.57,0,0,0,1.12-.21l-.5-2.67A.57.57,0,0,0,257.52,498.47Z" transform="translate(-218.02 -293.64)"/><path d="M253.06,499l-.17,3.16a.57.57,0,0,0,.53.6.58.58,0,0,0,.6-.54l.17-3.16a.58.58,0,0,0-.54-.6A.56.56,0,0,0,253.06,499Z" transform="translate(-218.02 -293.64)"/><path d="M250.32,498.21l-1.67,2.5a.58.58,0,0,0,.16.79.56.56,0,0,0,.78-.16l1.67-2.5a.58.58,0,0,0-.16-.79A.56.56,0,0,0,250.32,498.21Z" transform="translate(-218.02 -293.64)"/><path d="M247.61,495.24l-2.83,2.17a.56.56,0,0,0-.11.79.57.57,0,0,0,.8.11l2.83-2.17a.57.57,0,0,0-.69-.9Z" transform="translate(-218.02 -293.64)"/><path d="M245.2,493.47,242,494a.55.55,0,0,0-.47.64.57.57,0,0,0,.65.47l3.17-.5a.55.55,0,0,0,.47-.64A.57.57,0,0,0,245.2,493.47Z" transform="translate(-218.02 -293.64)"/><path d="M294.06,484.29a.57.57,0,0,0-.5.63l.33,3a.57.57,0,0,0,.63.5.56.56,0,0,0,.5-.62l-.34-3A.56.56,0,0,0,294.06,484.29Z" transform="translate(-218.02 -293.64)"/><path d="M296.82,484.21a.56.56,0,0,0-.18.78l1.33,2.17a.58.58,0,0,0,.78.18.57.57,0,0,0,.19-.78l-1.34-2.17A.56.56,0,0,0,296.82,484.21Z" transform="translate(-218.02 -293.64)"/><path d="M299.37,482.81a.57.57,0,0,0,0,.8l2,1.83a.57.57,0,1,0,.77-.83l-2-1.84A.57.57,0,0,0,299.37,482.81Z" transform="translate(-218.02 -293.64)"/><path d="M301.44,481.62a.57.57,0,0,0,.27.75l2.5,1.17a.57.57,0,0,0,.49-1l-2.5-1.17A.57.57,0,0,0,301.44,481.62Z" transform="translate(-218.02 -293.64)"/><path d="M302.4,478.57a.58.58,0,0,0,.43.68l3,.66a.56.56,0,0,0,.68-.43.57.57,0,0,0-.43-.68l-3-.66A.56.56,0,0,0,302.4,478.57Z" transform="translate(-218.02 -293.64)"/><path d="M301.89,475.8a.56.56,0,0,0,.5.62l3.17.33a.56.56,0,1,0,.12-1.12l-3.17-.34A.57.57,0,0,0,301.89,475.8Z" transform="translate(-218.02 -293.64)"/><path d="M305.17,472.64l-3.17.66a.57.57,0,0,0-.43.68.56.56,0,0,0,.67.43l3.16-.66a.57.57,0,0,0,.44-.68A.56.56,0,0,0,305.17,472.64Z" transform="translate(-218.02 -293.64)"/><path d="M300.31,471.39a.59.59,0,0,0-.13.82.54.54,0,0,0,.76.12l2.37-1.87a.56.56,0,0,1-.8-.09.55.55,0,0,1,.09-.78Z" transform="translate(-218.02 -293.64)"/><path d="M298.22,468.14l-.16,2a.56.56,0,0,0,.51.62.59.59,0,0,0,.62-.52l.16-2a.57.57,0,0,0-1.13-.1Z" transform="translate(-218.02 -293.64)"/><path d="M295.05,467.29a.56.56,0,0,0-.49.63l.33,2.84a.57.57,0,0,0,1.13-.14l-.34-2.83A.57.57,0,0,0,295.05,467.29Z" transform="translate(-218.02 -293.64)"/><path d="M291,469.31a.57.57,0,0,0,0,.8l1.84,1.67a.57.57,0,0,0,.76-.84l-1.83-1.67A.58.58,0,0,0,291,469.31Z" transform="translate(-218.02 -293.64)"/><path d="M289.46,472.59a.57.57,0,0,0,.23.77l2.16,1.16a.56.56,0,0,0,.77-.23.55.55,0,0,0-.23-.76l-2.17-1.17A.55.55,0,0,0,289.46,472.59Z" transform="translate(-218.02 -293.64)"/><path d="M287.9,476.1a.55.55,0,0,0,.46.65l2,.33a.55.55,0,0,0,.65-.46.56.56,0,0,0-.46-.65l-2-.34A.57.57,0,0,0,287.9,476.1Z" transform="translate(-218.02 -293.64)"/><path d="M286,479.62a.57.57,0,0,0,0,1.14h3.5a.57.57,0,0,0,0-1.14Z" transform="translate(-218.02 -293.64)"/><path d="M289.17,482.37l-2,1.17a.56.56,0,1,0,.57,1l2-1.16a.57.57,0,0,0,.2-.78A.56.56,0,0,0,289.17,482.37Z" transform="translate(-218.02 -293.64)"/><path d="M291.24,483.89l-.67,2.66a.57.57,0,0,0,.41.69.56.56,0,0,0,.69-.41l.67-2.67a.56.56,0,0,0-.41-.68A.55.55,0,0,0,291.24,483.89Z" transform="translate(-218.02 -293.64)"/><path d="M246.76,442.79a.57.57,0,0,0-.54.6l.17,3a.56.56,0,0,0,.6.53.55.55,0,0,0,.53-.59l-.17-3A.56.56,0,0,0,246.76,442.79Z" transform="translate(-218.02 -293.64)"/><path d="M243.74,444a.57.57,0,0,0-.31.74l.83,2a.58.58,0,0,0,.75.31.57.57,0,0,0,.3-.74l-.83-2A.57.57,0,0,0,243.74,444Z" transform="translate(-218.02 -293.64)"/><path d="M240.18,445.17a.56.56,0,0,0,.08.79l1.84,1.5a.56.56,0,0,0,.71-.87l-1.83-1.5A.56.56,0,0,0,240.18,445.17Z" transform="translate(-218.02 -293.64)"/><path d="M238,447.1a.56.56,0,0,0,.25.76l2.33,1.17a.57.57,0,1,0,.51-1l-2.33-1.17A.57.57,0,0,0,238,447.1Z" transform="translate(-218.02 -293.64)"/><path d="M240.59,450l-2.84.16a.57.57,0,0,0-.53.6.58.58,0,0,0,.6.54l2.83-.17a.57.57,0,1,0-.06-1.13Z" transform="translate(-218.02 -293.64)"/><path d="M240.1,452.32l-2.34.84a.56.56,0,0,0-.34.72.57.57,0,0,0,.72.35l2.34-.84a.57.57,0,0,0-.38-1.07Z" transform="translate(-218.02 -293.64)"/><path d="M241.47,454.72l-2.5,1.67a.55.55,0,0,0-.15.78.56.56,0,0,0,.78.16l2.5-1.67a.56.56,0,0,0,.16-.78A.58.58,0,0,0,241.47,454.72Z" transform="translate(-218.02 -293.64)"/><path d="M242.46,457.41l-1.16,2a.56.56,0,0,0,.2.77.57.57,0,0,0,.78-.2l1.16-2a.57.57,0,1,0-1-.57Z" transform="translate(-218.02 -293.64)"/><path d="M244.89,458.19v3.17a.57.57,0,0,0,1.13,0v-3.17a.57.57,0,1,0-1.13,0Z" transform="translate(-218.02 -293.64)"/><path d="M247.08,458.17a.57.57,0,0,0-.32.73l1,2.5a.58.58,0,0,0,.74.32.57.57,0,0,0,.31-.74l-1-2.5A.55.55,0,0,0,247.08,458.17Z" transform="translate(-218.02 -293.64)"/><path d="M250.31,457.22a.56.56,0,0,0-.16.78l1.83,2.83a.56.56,0,0,0,.78.17.57.57,0,0,0,.17-.78l-1.83-2.84A.56.56,0,0,0,250.31,457.22Z" transform="translate(-218.02 -293.64)"/><path d="M251.56,454.1a.57.57,0,0,0,.47.65l2,.33a.55.55,0,0,0,.65-.46.57.57,0,0,0-.47-.65l-2-.34A.57.57,0,0,0,251.56,454.1Z" transform="translate(-218.02 -293.64)"/><path d="M255.84,450l-4,.83a.57.57,0,0,0-.44.67.56.56,0,0,0,.67.44l4-.83a.57.57,0,0,0-.23-1.11Z" transform="translate(-218.02 -293.64)"/><path d="M253.47,446.72l-2.5,1.67a.55.55,0,0,0-.15.78.56.56,0,0,0,.78.16l2.5-1.67a.56.56,0,0,0,.16-.78A.58.58,0,0,0,253.47,446.72Z" transform="translate(-218.02 -293.64)"/><path d="M251.07,444.61l-2.33,2.17a.56.56,0,0,0,0,.8.57.57,0,0,0,.8,0l2.33-2.17a.57.57,0,0,0-.77-.83Z" transform="translate(-218.02 -293.64)"/><path d="M300,457.5a.58.58,0,0,0,.09.8l.83.67a.58.58,0,0,0,.8-.09.56.56,0,0,0-.09-.8l-.83-.66A.57.57,0,0,0,300,457.5Z" transform="translate(-218.02 -293.64)"/><path d="M302.54,455.48a.56.56,0,0,0,0,.8l1.84,1.66a.56.56,0,0,0,.8,0,.57.57,0,0,0,0-.8l-1.83-1.67A.57.57,0,0,0,302.54,455.48Z" transform="translate(-218.02 -293.64)"/><path d="M303.66,452a.57.57,0,0,0-.19.78l2.33,3.83a.57.57,0,0,0,.78.19.56.56,0,0,0,.19-.78l-2.33-3.83A.57.57,0,0,0,303.66,452Z" transform="translate(-218.02 -293.64)"/><path d="M307.76,451.12a.58.58,0,0,0-.54.6l.17,3.17a.57.57,0,0,0,1.13-.06l-.17-3.17A.57.57,0,0,0,307.76,451.12Z" transform="translate(-218.02 -293.64)"/><path d="M309.55,450.66l-.16,2.66a.57.57,0,1,0,1.13.07l.17-2.66a.57.57,0,0,0-1.14-.07Z" transform="translate(-218.02 -293.64)"/><path d="M313.74,451l-.67,2.5a.57.57,0,0,0,1.1.3l.67-2.5a.57.57,0,0,0-1.1-.3Z" transform="translate(-218.02 -293.64)"/><path d="M317.54,452.31l-2.17,2.33a.57.57,0,1,0,.83.77l2.17-2.33a.57.57,0,0,0,0-.8A.56.56,0,0,0,317.54,452.31Z" transform="translate(-218.02 -293.64)"/><path d="M320.67,455.3l-3.84.84a.56.56,0,0,0-.43.67.57.57,0,0,0,.67.44l3.84-.84a.57.57,0,0,0-.24-1.11Z" transform="translate(-218.02 -293.64)"/><path d="M318.4,458.73a.56.56,0,0,0,.43.68l3.66.83a.57.57,0,1,0,.26-1.1l-3.67-.83A.57.57,0,0,0,318.4,458.73Z" transform="translate(-218.02 -293.64)"/><path d="M318.67,461.51a.56.56,0,0,0,.1.79l2.33,1.84a.57.57,0,0,0,.8-.1.56.56,0,0,0-.1-.79l-2.33-1.84A.57.57,0,0,0,318.67,461.51Z" transform="translate(-218.02 -293.64)"/><path d="M237.82,430.31l-3.34.83a.57.57,0,0,0-.41.69.57.57,0,0,0,.69.41l3.33-.83a.56.56,0,0,0,.41-.69A.56.56,0,0,0,237.82,430.31Z" transform="translate(-218.02 -293.64)"/><path d="M236.15,428.31l-2,.5a.56.56,0,0,0-.41.69.57.57,0,0,0,.69.41l2-.5a.58.58,0,0,0,.41-.69A.57.57,0,0,0,236.15,428.31Z" transform="translate(-218.02 -293.64)"/><path d="M233.42,425.49a.57.57,0,0,0,.33.73l2.67,1a.57.57,0,1,0,.4-1.06l-2.67-1A.57.57,0,0,0,233.42,425.49Z" transform="translate(-218.02 -293.64)"/><path d="M235.39,422.62a.57.57,0,0,0,0,.81l1.66,1.66a.57.57,0,0,0,.8,0,.55.55,0,0,0,0-.8l-1.66-1.67A.57.57,0,0,0,235.39,422.62Z" transform="translate(-218.02 -293.64)"/><path d="M239.42,420.46a.57.57,0,0,0-.53.6l.17,2.67a.56.56,0,0,0,.6.53.57.57,0,0,0,.53-.6L240,421A.57.57,0,0,0,239.42,420.46Z" transform="translate(-218.02 -293.64)"/><path d="M242.59,420a.57.57,0,0,0-.53.6l.16,2.83a.58.58,0,0,0,.6.54.57.57,0,0,0,.53-.6l-.16-2.84A.57.57,0,0,0,242.59,420Z" transform="translate(-218.02 -293.64)"/><path d="M245.73,419.91l-.66,3.16a.57.57,0,0,0,.43.68.58.58,0,0,0,.68-.44l.66-3.17a.56.56,0,0,0-.44-.67A.57.57,0,0,0,245.73,419.91Z" transform="translate(-218.02 -293.64)"/><path d="M249.44,421.74l-2.16,1.67a.57.57,0,0,0-.11.8.58.58,0,0,0,.8.1l2.16-1.67a.56.56,0,0,0,.11-.79A.57.57,0,0,0,249.44,421.74Z" transform="translate(-218.02 -293.64)"/><path d="M252.15,424l-3.33.83a.57.57,0,0,0-.42.69.58.58,0,0,0,.69.41l3.34-.83a.58.58,0,0,0,.41-.69A.56.56,0,0,0,252.15,424Z" transform="translate(-218.02 -293.64)"/><path d="M253.91,427l-2.17.17a.56.56,0,0,0-.52.6.58.58,0,0,0,.61.53l2.17-.17a.57.57,0,0,0-.09-1.13Z" transform="translate(-218.02 -293.64)"/><path d="M252.39,430.16a.57.57,0,0,0,.53.6l2.83.16a.56.56,0,0,0,.6-.53.57.57,0,0,0-.53-.6l-2.83-.16A.56.56,0,0,0,252.39,430.16Z" transform="translate(-218.02 -293.64)"/><path d="M289.65,335.71a.58.58,0,0,0,.16.79l1.5,1a.57.57,0,0,0,.63-.95l-1.5-1A.58.58,0,0,0,289.65,335.71Z" transform="translate(-218.02 -293.64)"/><path d="M292.54,332.85a.55.55,0,0,0-.26.75l1.5,3.17a.57.57,0,0,0,.75.27.58.58,0,0,0,.27-.76l-1.5-3.16A.56.56,0,0,0,292.54,332.85Z" transform="translate(-218.02 -293.64)"/><path d="M296.22,333.16l-.16,2.66a.56.56,0,0,0,.53.6.56.56,0,0,0,.6-.53l.16-2.66a.57.57,0,0,0-1.13-.07Z" transform="translate(-218.02 -293.64)"/><path d="M300.11,332.78l-1.5,3.17a.56.56,0,0,0,.27.75.55.55,0,0,0,.75-.27l1.5-3.16a.57.57,0,1,0-1-.49Z" transform="translate(-218.02 -293.64)"/><path d="M303.87,334,302,336a.56.56,0,0,0,0,.8.57.57,0,0,0,.8,0l1.84-2a.57.57,0,0,0,0-.8A.56.56,0,0,0,303.87,334Z" transform="translate(-218.02 -293.64)"/><path d="M263.57,332.11a.57.57,0,0,0,0,.8l2.17,2.33a.56.56,0,0,0,.8,0,.57.57,0,0,0,0-.8l-2.17-2.33A.57.57,0,0,0,263.57,332.11Z" transform="translate(-218.02 -293.64)"/><path d="M265.4,330.77a.58.58,0,0,0,0,.81l1.83,2a.57.57,0,0,0,.84-.77l-1.83-2A.58.58,0,0,0,265.4,330.77Z" transform="translate(-218.02 -293.64)"/><path d="M269,328.31a.57.57,0,0,0-.38.71l.83,2.83a.57.57,0,1,0,1.09-.32l-.84-2.83A.57.57,0,0,0,269,328.31Z" transform="translate(-218.02 -293.64)"/><path d="M271.89,327.69v2.83a.57.57,0,1,0,1.13,0v-2.83a.57.57,0,0,0-1.13,0Z" transform="translate(-218.02 -293.64)"/><path d="M276.06,327.09l-.66,3.5a.56.56,0,0,0,1.11.21l.67-3.5a.58.58,0,0,0-.45-.67A.58.58,0,0,0,276.06,327.09Z" transform="translate(-218.02 -293.64)"/><path d="M278.22,327.83l-.16,3.17a.56.56,0,0,0,.53.59.57.57,0,0,0,.6-.54l.16-3.16a.57.57,0,0,0-.53-.6A.58.58,0,0,0,278.22,327.83Z" transform="translate(-218.02 -293.64)"/><path d="M301.34,324a.57.57,0,0,0,.1.8l2.17,1.66a.56.56,0,1,0,.69-.89l-2.17-1.67A.56.56,0,0,0,301.34,324Z" transform="translate(-218.02 -293.64)"/><path d="M304.3,322.72a.58.58,0,0,0-.15.79l1.84,2.67a.56.56,0,1,0,.93-.64l-1.83-2.67A.57.57,0,0,0,304.3,322.72Z" transform="translate(-218.02 -293.64)"/><path d="M307.69,321a.56.56,0,0,0-.46.65l.5,2.84a.57.57,0,0,0,1.12-.2l-.5-2.83A.57.57,0,0,0,307.69,321Z" transform="translate(-218.02 -293.64)"/><path d="M310.59,320a.57.57,0,0,0-.54.59l.17,3.17a.58.58,0,0,0,.6.54.57.57,0,0,0,.53-.6l-.16-3.16A.57.57,0,0,0,310.59,320Z" transform="translate(-218.02 -293.64)"/><path d="M313.93,321.31l-1.5,3.67a.57.57,0,1,0,1.05.43l1.5-3.67a.57.57,0,0,0-1.05-.43Z" transform="translate(-218.02 -293.64)"/><path d="M318.76,324.83l-2.67,1a.56.56,0,0,0-.33.73.57.57,0,0,0,.73.33l2.66-1a.56.56,0,1,0-.39-1.06Z" transform="translate(-218.02 -293.64)"/><path d="M316.12,328.63a.57.57,0,0,0-.57.56.58.58,0,0,0,.57.57h3a.58.58,0,0,0,.57-.57.57.57,0,0,0-.57-.56Z" transform="translate(-218.02 -293.64)"/><path d="M254.88,407.19a15.67,15.67,0,0,0-7.65,5.76l-.33.39c-4.73-4.52-8.63-4.53-8.79-4.52h-.4l-3,5.22c-2.86-1.77-4.61-1.75-4.81-1.73l-.38,0-.18.34c-2.57,4.81-1.62,13.86-1.58,14.24l1.41-.15a41.48,41.48,0,0,1-.19-4.16c0-2.8.29-6.39,1.45-8.85a9.71,9.71,0,0,1,4.13,1.84l.64.43,3.32-5.77c1,.12,4.12.76,7.78,4.42l.7.27c.52,0,.84-.46,1.37-1.16a14.38,14.38,0,0,1,6.44-5,12.35,12.35,0,0,1,1.45,4.07v1.07l1-.42a21.65,21.65,0,0,1,5.58-1.59,19.13,19.13,0,0,1,1,6.4c0,.63,0,1.29-.09,2l1.41.13a20.24,20.24,0,0,0-1.23-9.52l-.17-.38-.41,0c-1.62-.14-4.41.83-5.83,1.38a19.88,19.88,0,0,0-1.78-4.35l-.29-.53Z" transform="translate(-218.02 -293.64)"/><path d="M319.09,436.18c-7.28,2.14-10.28,6.9-11.15,8.6-4.69-2-7.94-.8-8.08-.75l.52,1.32s3.14-1.17,7.6,1l.68.33L309,446c0-.06,2.4-5.66,9.86-8.16a11.67,11.67,0,0,1,.33,2.73,9.57,9.57,0,0,1-.21,2l-.28,1.27,1.22-.45c.16-.06,3.5-1.3,5.59-2.29a28.47,28.47,0,0,1,.49,5.61,41.41,41.41,0,0,1-.37,5.42l-.06.52.48.22a19.06,19.06,0,0,1,7.2,6.24L329,462.9l3.07,4.86c-1.67.88-6.39,3.25-9.79,3.9l.27,1.39c4.39-.84,10.61-4.26,10.87-4.4l.66-.37-3.25-5.13,4.15-3.82-.28-.49a19.52,19.52,0,0,0-7.7-7.07,43.51,43.51,0,0,0,.33-5.14,26,26,0,0,0-.74-6.81l-.25-.84-.76.42a54.5,54.5,0,0,1-5.18,2.22,11,11,0,0,0,.12-1.11,12.94,12.94,0,0,0-.6-3.89l-.23-.63Z" transform="translate(-218.02 -293.64)"/><path d="M349,440.33a14.15,14.15,0,0,0-9.83,6.17l-.14.24.06.27c.43,1.95,4.22,4.56,10.21,4.39,5.82-.17,7.35-3.48,7.35-5.21a6.36,6.36,0,0,0-2-4.69C353.36,440.35,351.44,440,349,440.33Zm.22,1.4c2-.31,3.53,0,4.55.85a5,5,0,0,1,1.47,3.61c0,.15-.07,3.62-6,3.79-5.25.15-8.14-2-8.68-3.05A13.11,13.11,0,0,1,349.23,441.73Z" transform="translate(-218.02 -293.64)"/><path d="M332.91,448.68,326,451l.49,1.34,6.8-2.33c3.17-1,6.7-2.51,6.74-2.52l-.56-1.3S336,447.7,332.91,448.68Z" transform="translate(-218.02 -293.64)"/><path d="M297.14,504.65l-.13.06a9.5,9.5,0,0,0-5.42,7.05,7.58,7.58,0,0,0,1.44,6.16,5.21,5.21,0,0,0,3.92,1.81c3.55,0,5.21-2.21,5.38-7.18a8.61,8.61,0,0,0-2.13-6.45,4.3,4.3,0,0,0-2.91-1.45Zm-3,12.34a5.63,5.63,0,0,1-1.21-3.73,8.41,8.41,0,0,1,.1-1.3,8.19,8.19,0,0,1,4.4-5.87,3,3,0,0,1,1.79,1,7,7,0,0,1,1.74,5c0,.13,0,.26,0,.39-.17,4.84-1.64,5.82-4,5.82A3.76,3.76,0,0,1,294.1,517Z" transform="translate(-218.02 -293.64)"/><path d="M296.59,505.22l1.39.28c0-.06,1.33-6.4,3.07-9.09l-1.19-.77C298,498.55,296.65,504.94,296.59,505.22Z" transform="translate(-218.02 -293.64)"/><path d="M259.6,525.54l.37-1.37a7.23,7.23,0,0,1-5.65-8.35l-1.4-.26C252.91,515.64,251.56,523.4,259.6,525.54Z" transform="translate(-218.02 -293.64)"/><path d="M260,513.52a10.32,10.32,0,0,1,5.11,5,5.06,5.06,0,0,1-.69,5.56l1,1a6.45,6.45,0,0,0,1-7.12,11.57,11.57,0,0,0-5.89-5.71Z" transform="translate(-218.02 -293.64)"/><path d="M237.17,385.16a5.37,5.37,0,0,0-3.25,2.33,8.72,8.72,0,0,0-1.33,6.66c.89,5,6.55,7.12,6.79,7.21l.12,0h.12a3,3,0,0,0,1.87-1.07c.62-.66,2.63-3.19,2.34-7.85-.22-3.43-1.64-5.25-2.8-6.17A5,5,0,0,0,237.17,385.16ZM234,393.9a8.37,8.37,0,0,1-.14-1.53,6.93,6.93,0,0,1,1.23-4.06,4,4,0,0,1,2.32-1.75,3.67,3.67,0,0,1,2.75.86c.93.74,2.08,2.24,2.26,5.15q0,.42,0,.81c0,4.15-2.06,6.36-2.76,6.57C238.84,399.6,234.66,397.69,234,393.9Z" transform="translate(-218.02 -293.64)"/><rect x="239.25" y="400.68" width="1.42" height="9.36" transform="translate(-246.28 -275.52) rotate(-4.08)"/><path d="M263.62,317.86l-2.17,3.33-6.66-.33s-3.34-13.67-5-17.67C249.79,303.19,258.62,310.19,263.62,317.86Z" transform="translate(-218.02 -293.64)"/><path d="M251.12,334.52a24.77,24.77,0,0,0-8.83-1.83c-4.67,0-11.17,0-12.5-.33,0,0,3.66,1.83,5.16,4.16a56.61,56.61,0,0,0,6,6.67l6.34-.17S250.29,335.52,251.12,334.52Z" transform="translate(-218.02 -293.64)"/><path d="M237.12,363.19s-5.33,4.83-6.67,6.83l-3.66,5.5-.34,2.67a28.39,28.39,0,0,1,5.5-2.83c2.5-.84,9.34-3.5,11.34-5.5l.66-7.17S239.12,364.53,237.12,363.19Z" transform="translate(-218.02 -293.64)"/><path d="M261.79,373.19a30.5,30.5,0,0,0-1.84,8.5,78.73,78.73,0,0,0,.67,12.33s1.33-1,2.17-1.66,6.83-6,7.5-8.5l.16-6.67S264.45,375,261.79,373.19Z" transform="translate(-218.02 -293.64)"/><path d="M257.29,412.36s1.83-9.17.5-15.17c0,0,7,4.34,8.66,14.5l-1.33,6.17-2-6.5-1.83.16Z" transform="translate(-218.02 -293.64)"/><path d="M240.62,503.86a16.09,16.09,0,0,0-5.5,5.16c-1.83,3.17-5.67,10.17-6.33,11s0,1.34,1.5.34a20.86,20.86,0,0,1,6.66-2.17c1.5-.17,7-2.5,7.84-5.17,0,0-1.34-7-1-8.66Z" transform="translate(-218.02 -293.64)"/><path d="M286.62,493.69a26.93,26.93,0,0,0-7.67,6.83c-3.16,4.34-5.66,15-5.66,15s5.83-3.66,9.5-6a14,14,0,0,0,5.83-8.33,3.65,3.65,0,0,1-2.17-2.67A32,32,0,0,1,286.62,493.69Z" transform="translate(-218.02 -293.64)"/><path d="M309.29,500.19a13.61,13.61,0,0,0,2.67,9.17,33.15,33.15,0,0,0,8,7.66,21.33,21.33,0,0,1-.84-4.83c0-2,3-7.83-.66-15.67l-7.5-2.33Z" transform="translate(-218.02 -293.64)"/><path d="M317,482.86a21.28,21.28,0,0,0,9,5,25.76,25.76,0,0,1,8.83,4.16,26.88,26.88,0,0,0-1.33-5.66,19.36,19.36,0,0,0-11.5-11s-4,4.16-6.84,5.16Z" transform="translate(-218.02 -293.64)"/><path d="M334.29,459.19a15.63,15.63,0,0,1,10.33,5c4.84,5,6.67,7.17,6.67,7.17s.67.33-.83.33-6-.33-8,.17-6.84-.5-10.5-2.67l1-1.5-2.84-4.33Z" transform="translate(-218.02 -293.64)"/><path d="M305.46,425.86s5.83,6.83,2.16,19.16l-1.33-.33s-4.33-1.17-5-4.5Z" transform="translate(-218.02 -293.64)"/><path d="M311,412.19a9.48,9.48,0,0,0-.5,7c1.16,4.17,2.5,8.17,2.33,9,0,0,2.83-3.66,4.17-5.16a12.92,12.92,0,0,0,3.16-9.51L316,409Z" transform="translate(-218.02 -293.64)"/><path d="M323.12,408.86s1.33,4.33,7.5,6.83,11.84,4.5,11.84,4.5-1-3.67-1.67-5.5-1.83-6.33-4-8c0,0-9.17-2.33-11.17-4.17Z" transform="translate(-218.02 -293.64)"/><path d="M336.29,366.69s7.33.17,11,.67a46.13,46.13,0,0,1,15,4.5l.17.83a24.82,24.82,0,0,0-6.84,1.67c-3,1.33-10.16,5.5-16.33,3.33l-1.17-3.17S337.46,369.19,336.29,366.69Z" transform="translate(-218.02 -293.64)"/><path d="M332.12,348.36a11.86,11.86,0,0,1,9.67-3.17,43.16,43.16,0,0,1,10.33,2.33,14,14,0,0,0-2.5,3c-.66,1.34-5.17,5.34-10,5.5l-7.16-1.83Z" transform="translate(-218.02 -293.64)"/><path d="M327.79,319.86a26.91,26.91,0,0,1,12,2.83,20.54,20.54,0,0,1,9.33,9s-.83-1.17-4.83-1.33-11.17,2-15.17.83l1-3.67-5.83-5A32.2,32.2,0,0,0,327.79,319.86Z" transform="translate(-218.02 -293.64)"/><path d="M312.62,309.52s3.84-4,5.84-5.16,5.5-3.84,5.5-3.84-.67,2.5-1,4,.5,8.5,0,10.5a59.41,59.41,0,0,0-6.67-.5A58.13,58.13,0,0,0,312.62,309.52Z" transform="translate(-218.02 -293.64)"/><path d="M300.62,362c-1-1.5-3.33-1.5-4.67-1.16a11.49,11.49,0,0,1-3.16.16,7.32,7.32,0,0,1,.16-3.83,5.9,5.9,0,0,0-.5-5.33c-1-1.5-5.83-4.17-5.83-4.17a.74.74,0,0,0-.17,1c.34.67,2.17,2.67,2.5,4.33s0,8.5,0,8.5a43.79,43.79,0,0,1-5.5.84c-1.5,0-2.83-.5-3.83-.5s-1.17.66-.5,1.33,3.33,2,7.83,2.33a16.25,16.25,0,0,0,7.17-.83,19.81,19.81,0,0,1-4.67,3.83c-2.83,1.67-7.16,5.67-5.5,10.5a6.67,6.67,0,0,0,6.29,4.51c-1.41,1.83-5,4.19-7.45,5.58-2.63,1.5-3.75,2.5-3.25,3a6.94,6.94,0,0,0,4.75,2.62,12.88,12.88,0,0,0,1.3,0,11.11,11.11,0,0,0-4.18,6.1c-1.36,4.92.53,9.16,4.32,10.28-2.16,2.65-6.68,3.29-8.94,4.72s-4.38,3-4.5,4.5,1.87,3.12,1.75,3.62-1.75.75-3.25,1.5.12,1.63,0,3.13-2,10.37-2.25,11.62.5,2.25,2.25,2,6.62-2.75,7.75-3.75a13.13,13.13,0,0,0,2.75-4.87c.12-.88-.13-1.88-.5-1.63a35.51,35.51,0,0,1-3.5,3.25,8.4,8.4,0,0,1-3.88,1.5c-.62.13-1.25.38-1.12-.12s1-5.38,1.12-6.25a6.78,6.78,0,0,0-.25-3.25.86.86,0,0,1,.63-1.25c.37,0,6.25-.38,8-.38s3.12-1.62,2.12-2.12-3.37-2.63-4.12-2.5a43.56,43.56,0,0,1-4.5.12c-1.88,0-1.38-1-.88-1.75a11.85,11.85,0,0,1,4.75-3.25,40,40,0,0,0,5.31-1.53c.46.88,1.69,3.2,2.19,3.91a2.13,2.13,0,0,1,.25,1.87s-1.2,4.56-2.48,9.56c-.61-.13-.89-.06-.89.57a3,3,0,0,0,.4,1.36c-.71,2.79-1.4,5.55-1.87,7.59-3,1.5-6.94,2.6-7.28,5.67A6,6,0,0,0,279,451.6a46.92,46.92,0,0,1-2,5.63c-1.25,2.63-8.25,14.88-17.5,21.75,0,0-.38.63.87.38s9-5.88,13.75-11a36.24,36.24,0,0,0,8.95-15.94,13.09,13.09,0,0,0,4.8-.31c1.5-.5,1.75-1.75.5-3a8.34,8.34,0,0,0-4.05-1.9c.6-2.47,1.32-5.39,2.05-8.29a69.2,69.2,0,0,1,7-2.06c.5,0,1.25-.38,1-1.13s.38-3.37-.5-3.62c-.65-.19-3.28-.8-5.45-1.3.69-2.7,1.24-4.72,1.45-5.33.75-2.12,2.63-4.37,1.88-6.12s-3.88-3.5-4.88-4.38a11,11,0,0,0-1.36-1c.4-.16.81-.34,1.24-.54a35.6,35.6,0,0,0,5.62-3.25s0,0,0-.06c4.79-3,3.2-10.37-.75-12.06a9.57,9.57,0,0,0-5.94-.26,12.2,12.2,0,0,1,5-3.56c2.81-.36,5.54-.8,6.39-.93,1.63-.25,1.38-1.75.75-2s-3.75-1.63-4.87-2-1.63.12-4.25.87a41.1,41.1,0,0,1-5.63,1.38c-.62,0-1.25-.63,0-1.38s7-3.87,9.63-5.25a16.42,16.42,0,0,0,4.46-3.68c3.93-3.13,1.71-8.54-.8-10.11a14.5,14.5,0,0,0-4.31-1.72,31.79,31.79,0,0,1,6.48-3.61C300.79,364.86,301.62,363.52,300.62,362Zm-23,84.21c-1-1.62-.5-3,1.88-3.75a15.6,15.6,0,0,0,2-.83s0,.06,0,.08c-.27,1.41-.75,3.42-1.31,5.54A3,3,0,0,1,277.66,446.23ZM290.54,401c.62,2.13,0,4.38-3,4.38s-4.75-2.12-2.93-5.77C286.89,398.42,290,399.13,290.54,401ZM295,374.19c.17,2.34-1.33,4.5-3.5,4.5s-5-1.33-2.66-5.5a11.59,11.59,0,0,1,2-2.53C292.91,370.77,294.81,372.17,295,374.19Z" transform="translate(-218.02 -293.64)"/></svg>