<svg id="_3_3" xmlns="http://www.w3.org/2000/svg" viewBox="0 0 153.07 238.11"><defs><style>.cls-1{fill:#ed1c24;}.cls-2{fill:#fff;}.cls-3{fill:#f9aa8f;}</style></defs><title>_3_3</title><rect class="cls-1" width="153.07" height="238.11"/><path class="cls-2" d="M220.56,315l-.17,184.84,18,31H348.73a10.57,10.57,0,0,0,9.33-10.34V315.68s0-7.83-9.67-9H229.06S221.56,307.68,220.56,315Z" transform="translate(-212.77 -299.63)"/><path class="cls-3" d="M301.89,339.18l-2.83,2s1.83,4,3,5.17c0,0-4.34,2.16-5.17,3.5s6.17,8,6.5,8.5,2.5,6.16,2.5,6.16l14.17,4,12.17-3.33,6.08-4.5s7.58-3.83,8.92-10.5l-4.84-2,2.5-4.67-2.5-1-2-1.5-5.83-5.83-7.33-3s-5.84-3.17-6.5-3.17-7.84,2-7.84,2Z" transform="translate(-212.77 -299.63)"/><path class="cls-3" d="M317.56,429.18s3.17,5,3,6.83a8.57,8.57,0,0,1,6-1.5c3.83.34,7.83,4,7.83,4a16.35,16.35,0,0,1-2.16,4.17,40.81,40.81,0,0,1,4.83,2.33c.5.5.5,5.67-2.67,9.34s-12.33,18.5-12.33,18.5l8.83,5.66s5.67,4.49,5.67,8.17c0,3.17-9.67,5.67-9.67,5.67l2.67,6,.17,5.66-2.84-1-6.16-1.16s-1,4.5-1.84,4.83-3.17-.5-4-1-11.66,1.17-11.66,1.17l-2-2.17-3.5-.33-2.34-5.5a16.59,16.59,0,0,1-4.33.66c-1.33-.16-1.5-3.66-1.5-3.66l-3-.34-11.33-.33-7.17-6.67-4.34-8.33,1.34-6.83a18.73,18.73,0,0,1-3.84-1c-.83-.5.17-9.34.17-9.34l21.5-19,12.84-9.16,3.66-7,7.5-2.34,6.34-.83,4.16-.17Z" transform="translate(-212.77 -299.63)"/><path class="cls-3" d="M246.06,331.68s1.33-4.33,9.5-5.33c0,0,.16-4,2.66-6.34a56.5,56.5,0,0,1,5.67-4.5l3.67,2,3.16,1.84,4.84,1.66,9.67,3,2.83,2.84L284.39,329l-.66,1.84s4.16,1.33,4.66,2.33-.33,5.83-6.33,10.83l4,4.17,1.17,5.17-3.5,7.33L282.39,363l-5.5-1-4.83-.33a16.92,16.92,0,0,1-4.17,1.83c-1.33.17-8,.34-9,0s-9.5-5.16-9.5-5.16-4.67-8-4.33-8.67,1.33-4,1.33-4Z" transform="translate(-212.77 -299.63)"/><path class="cls-1" d="M266.06,337.31s-3.5,1.37-3.5,4.37,2.5,3.88,4.62,3.38a4.22,4.22,0,0,0,3.25-4.75A3.55,3.55,0,0,0,266.06,337.31Z" transform="translate(-212.77 -299.63)"/><path class="cls-1" d="M229.06,325.43a12.64,12.64,0,0,0-3.13,8.75s-2.75-2.37-5.12-.75l-.38,27.88s3.63.62,5.63-.63c0,0-.13,5,2.62,6.88a1.16,1.16,0,0,0,.5,1.75c1.25.62,3.38,1.62,3.38,1.62s-2.5,6.5-1.63,8a7.87,7.87,0,0,0,2.25,2.38l6,1.25s-.12,5.62,1.5,7.12l3.38-.37s3.62,3.5,4.37,3.5,3.38-3.38,3.38-3.38l8-2.25,4.37-1.37s1-2.75,1.25-3.13,6.13-2.87,6.13-2.87-.38-5.63-3.38-9.5c0,0,3.63-4.38,4.75-7.5l1.13-3.13-4.63.88-3.5-.88a48.67,48.67,0,0,1,1.13-5s-4.63-1.25-11.25,3a31.6,31.6,0,0,0-4.63-5.75s8.5-1.87,10-6.75a32.91,32.91,0,0,0-3.87-4.75s2.87-3.25,2.87-5c0,0-5.75-4.75-12.12-1.25,0,0-4.88-9.37-10.5-11.5C237.56,322.68,230.18,323.18,229.06,325.43Z" transform="translate(-212.77 -299.63)"/><path class="cls-1" d="M244.31,403.81a12.82,12.82,0,0,0-4.63,9.5c-.37,6.5,3.88,9.25,6.13,9.25s5.12-2.63,4.37-8.63S245.68,404.56,244.31,403.81Z" transform="translate(-212.77 -299.63)"/><path class="cls-1" d="M301.18,340.18s-6.5-5-6.5-8.87a12.8,12.8,0,0,1,6.5-1.38,42.84,42.84,0,0,1-2-5.62c-.25-1.5,4-1.63,6.75-.75s10.75-4.25,10.75-4.25a19.23,19.23,0,0,1,2.75-2.63,1.84,1.84,0,0,1,2,.88c.25.62,2.63,1,2.63,1l5.37-2.25,1.38,3.87s2.25,6.25,2.37,7.38,2.5.75,2.5.75l6.5,3.12.63,2.25a4.24,4.24,0,0,1-2.75,2.38l4.37,2v.87l-2.62,3.38s-6.5-.13-8.63,1.87c0,0-.62-5.62-4-8.25a17.07,17.07,0,0,0-7.62,4.38s-.38-5.38-2.13-7.88a19,19,0,0,0-7.62,8.25S306.06,338.06,301.18,340.18Z" transform="translate(-212.77 -299.63)"/><path class="cls-1" d="M309.06,358.31s-7.75-2.13-13.75,1.62l4,5.75s-4.75,2.63-7,5c0,0,2.12,8,9.5,8.75l-2.38,8.13,2.5,3.87.5,1.63s4.38-1.63,5.38-3.5c0,0,.37,5.5,2.37,6s6.63-2.75,8.75-6.63c0,0,4.75,4.5,6.13,4.63s2.75-2.5,2.75-2.5l7.37-2s1.75-.75.25-6,4-3.75,4-3.75l1.5-5.63-.12-1.37a13.27,13.27,0,0,0-3.38-4s4.88-2.75,5.13-4-3.25-2.88-4.25-3.63-6.88-2.25-9.5-2.62c0,0-.63-6.5-4-9.88,0,0-4.13,2.13-5.75,4,0,0-.13.88-.5-.75a27.16,27.16,0,0,0-1.88-4.5S310.18,347.68,309.06,358.31Z" transform="translate(-212.77 -299.63)"/><path class="cls-1" d="M244.89,455.35s-2.17-6.5-9.17-6.34-8.83,3.34-9.33,5,0,7.17,9,6S244.89,455.35,244.89,455.35Z" transform="translate(-212.77 -299.63)"/><path class="cls-1" d="M280.93,467.56s1.63,2.12,6.63,2.37,7.5-2.12,7.5-2.12l2.37.87s-2.62,6.38-2.87,11.13l3.37-1.25,3.25-1.75s.5,4.5,1.75,6.37a4.92,4.92,0,0,1,.88,3.75c0,.88.62,6.5.62,6.5s5.5-2.12,6.38-3.25c0,0,1.87,5.25,2.37,7.38a21.44,21.44,0,0,0,9.38-14.13s.62.25,1.37-.62,1.5-4.25,1.5-4.25,5.25.12,6,0a.9.9,0,0,0,.75-.88,14.42,14.42,0,0,0-3.12-8.25s5.62-2.62,6.37-3.87a2.2,2.2,0,0,0,.38-2l-2.88-1.5-1.62-1.5s3.25-4.13,3.37-5.25-.75-1.25-.75-1.25a48.33,48.33,0,0,0-6.87-.13s-2.25-6.75-6.25-9.87c0,0-4.5.75-5.88,2.25,0,0-1.87-1.63-2.87-2.75s-1.38-.5-1.88-.13a67.33,67.33,0,0,0-5.75,6.75l-4.25.13-2.87-8.5,1-1.25,2.62-5.88-.87-.62-3.63-10-2.25-.63s-6.87.5-12,4.63c0,0-3.87-7.25-11.25-9.25l-3.25,7.12s-5.25-1.25-6.5-1.62-2.75,5.62-2,12c0,0-4.87,3.87-5.25,4a24.71,24.71,0,0,0-2.5,2l-.25,1a30.44,30.44,0,0,0,3.75,2.25c.63.12.13,1.25.13,1.25l-3,6.25s6.75,2.25,8.75,2.75a6.21,6.21,0,0,1,2.75,1.25l-.5,10h2.25l.62,2.62,5.63-3.75a2.73,2.73,0,0,1,.75,1,40,40,0,0,0,3.12,3.75S280.31,468.31,280.93,467.56Z" transform="translate(-212.77 -299.63)"/><path class="cls-1" d="M320.68,514.31s-3.75,1.37-3.62,7.75,6.62,6.37,7.75,6.12,4.5-1,2.87-7.75S320.68,514.31,320.68,514.31Z" transform="translate(-212.77 -299.63)"/><path class="cls-1" d="M342.43,489.56s-1.25,4.62,3.88,8.37,8.62,1.63,10.12-.5,1-5.5-3.25-8.37S343.68,487.18,342.43,489.56Z" transform="translate(-212.77 -299.63)"/><path class="cls-1" d="M332.68,429.81s1.25,4.62,8.5,4.62,8-3.87,8-5.5-2.12-5.12-7.25-5.25S332.68,427.56,332.68,429.81Z" transform="translate(-212.77 -299.63)"/><path class="cls-1" d="M305.56,447.85s0-4,3-5.5,8.17-.17,8.17,2.5-1.84,6.33-1.84,6.33Z" transform="translate(-212.77 -299.63)"/><path d="M230.48,306a10.64,10.64,0,0,0-10.63,10.63V520.76a10.64,10.64,0,0,0,10.63,10.63H348.14a10.64,10.64,0,0,0,10.63-10.63V316.6A10.64,10.64,0,0,0,348.14,306Zm-9.21,214.79V316.6a9.22,9.22,0,0,1,9.21-9.21H348.14a9.22,9.22,0,0,1,9.21,9.21V520.76a9.22,9.22,0,0,1-9.21,9.21H230.48A9.22,9.22,0,0,1,221.27,520.76Z" transform="translate(-212.77 -299.63)"/><path d="M245.42,347.86c-.39.79-1.48,3.68-2,5.07a21,21,0,0,0-5.76-1.95l-.62-.1-.17.61c-.46,1.61-.52,7.46-.53,9.22-7.08,2.67-8.43,7.83-8.48,8.06l-.08.33.21.27c.82,1,2.86,1.83,4,2.23a23.66,23.66,0,0,0-2.18,7.25l-.06.56.53.19c2.26.82,6.56.69,8.4.59a17.78,17.78,0,0,0-.25,2.83,18.05,18.05,0,0,0,1.45,7.21l.19.41h.45a20.25,20.25,0,0,0,4.13-.86,13.41,13.41,0,0,0,3.45,3.72l.41.3.42-.29c3.55-2.51,5.38-7.32,6-9.27,2.66,1.35,8.24,2.5,8.94,2.63l.77.16.07-.78a11.73,11.73,0,0,0,.06-1.22,31.41,31.41,0,0,0-.42-4.61l7.94.24-.08-.8a22.37,22.37,0,0,0-3.47-9.24c3.31-2.21,5.12-8.95,5.21-9.26l.17-.69-.69-.18c-.84-.21-5.16-.88-6.85-1.15a34,34,0,0,1,1.34-4.4l.31-.8-.84-.16c-4.75-.86-9.85,1.88-11.61,2.95-2.43-4.86-9.09-9.16-9.39-9.35l-.67-.42Zm-.95,6.32c.49-1.32,1.37-3.66,1.9-4.93,1.82,1.25,7,5.05,8.53,8.94l.33.82.73-.49s5.43-3.61,10.37-3.22a25.38,25.38,0,0,0-1.23,4.54l-.08.69.68.1c1.5.23,5.1.8,6.71,1.09-.72,2.42-2.53,7-4.88,8.06l-.81.35.51.72a22.89,22.89,0,0,1,3.49,8.34l-8-.25.16.87a33.83,33.83,0,0,1,.54,5.22c0,.1,0,.19,0,.29-2.44-.53-7-1.68-8.41-2.71l-.84-.63-.27,1c0,.07-1.64,6.07-5.33,9a9.77,9.77,0,0,1-2.82-3.34l-.23-.62-.64.19a29.39,29.39,0,0,1-3.84.92,17.81,17.81,0,0,1-1.12-6.19,15.87,15.87,0,0,1,.36-3.4l.2-.93-.95.07c-.06,0-5.36.41-8.15-.31a20.33,20.33,0,0,1,2.31-6.86l.49-.79-.9-.26a12.3,12.3,0,0,1-3.87-1.8c.42-1.18,2.16-4.87,7.91-6.85l.48-.16v-.51c0-1.89.06-6.66.35-8.66a19,19,0,0,1,5.33,2l.73.43Z" transform="translate(-212.77 -299.63)"/><path d="M236.28,322.16a43,43,0,0,0-2.31,5.06,22.16,22.16,0,0,0-4.48-2.36l-.46-.19-.33.37a13.9,13.9,0,0,0-3.3,8.08,6.6,6.6,0,0,0-5.11-.26l.54,1.31a5.15,5.15,0,0,1,4.8.74l1.18.89,0-1.47v-.09a13.41,13.41,0,0,1,2.67-7.85c2.07.88,3.94,2,4.13,2.4l.7,1.62.62-1.65s1.24-3.27,2.3-5.31a21.47,21.47,0,0,1,10,11.15l.34.89.76-.58c.17-.14,4.23-3.1,10.89.79a12.06,12.06,0,0,1-2.68,4.33l-.56.59.67.48s2.88,2,3.78,4.2A12.68,12.68,0,0,1,251,351l.13,1.42a13.88,13.88,0,0,0,10.73-6.71l.14-.27-.09-.29c-.68-2-2.8-3.91-3.84-4.74a12.77,12.77,0,0,0,2.69-4.89l.1-.48-.42-.26c-6.26-3.9-10.61-2.29-12.23-1.4a22.73,22.73,0,0,0-11-11.49l-.57-.24Z" transform="translate(-212.77 -299.63)"/><path d="M225.92,359.87a10.94,10.94,0,0,1-5.28.94l-.16,1.41a12.64,12.64,0,0,0,5-.64v.08a8.9,8.9,0,0,0,3,6.71l1-1.05a7.49,7.49,0,0,1-2.45-6.67l.26-1.37Z" transform="translate(-212.77 -299.63)"/><path d="M262.42,316.7c-6.7,3.14-7.51,7.66-7.57,9.37-7.09.73-8.88,4.83-8.95,5l1.31.53c.07-.15,1.65-3.76,8.4-4.22l.73-.05-.08-.74s0-.13,0-.3c0-1.13.48-5.15,6.38-8.09a6.07,6.07,0,0,1,1.72,4.47v1.42l1.13-.85s2.93-2.19,5.16-3.53c.79.76,2.73,3.06,2.73,7.61,0,.26,0,.53,0,.82l-.09,1.77,1.29-1.23A12.82,12.82,0,0,1,284.79,326a9,9,0,0,1-2.1,4.74l-1,1.11,1.47.07s3.09.18,4.77,1.58a15.67,15.67,0,0,1-6.46,10.12l-.83.56.8.6c.13.1,3.13,2.42,3.21,8.27a15.07,15.07,0,0,1-3.56,0l-1.21-.4.29,1.24a22.05,22.05,0,0,1,.56,4.32c0,.11,0,.2,0,.31-1.42-.37-4.5-1.37-6.11-3.55l-.85-1.16-.4,1.38s-1,3.23-3.49,4.57l.67,1.25a8.89,8.89,0,0,0,3.74-4.3,14.79,14.79,0,0,0,7,3.38l.7.11.11-.71a8.53,8.53,0,0,0,.09-1.27,20,20,0,0,0-.4-3.67,29.3,29.3,0,0,0,3.68-.12l.63-.06v-.63c0-.16,0-.32,0-.47,0-5.08-2-7.88-3.13-9a17.11,17.11,0,0,0,6.45-11l0-.33-.23-.24a8.85,8.85,0,0,0-4.69-2.06,10.41,10.41,0,0,0,1.73-5.27v-.58l-.56-.12a14,14,0,0,0-11,2.1c-.21-5.88-3.46-8.37-3.61-8.48l-.37-.27-.4.23c-1.57.9-3.53,2.28-4.71,3.13a7.13,7.13,0,0,0-2.52-4.59l-.34-.24Z" transform="translate(-212.77 -299.63)"/><path d="M316.64,346.31c-.29,0-7,1-8.32,11.17-1.82-.69-6.33-1.66-13.57,1.9l-.81.39.57.69c1.09,1.33,3.06,3.75,4,5a29.79,29.79,0,0,0-6.82,5.1l-.22.25.06.33a11.38,11.38,0,0,0,4.63,7A10.7,10.7,0,0,0,302.4,380a17.21,17.21,0,0,0-1.88,5.74,12.08,12.08,0,0,0-.1,1.58,16.63,16.63,0,0,0,1.33,6.3l.31.69.67-.36a31.56,31.56,0,0,0,4.54-3c.16,1.55.64,3.83,2.14,5.21l.26.24.34-.06c.27-.05,6.26-1.21,9-6.31a21.41,21.41,0,0,0,5.71,4.24l.33.17.33-.17a9,9,0,0,0,4.07-6.66c1.48.55,4.57,1.72,5.78,2.33l.58.29.34-.55a5.26,5.26,0,0,0,.57-2.68c0-1.8-.64-4.55-2.89-8.2,1.89-.46,6-1.86,8-5.66l.17-.31-.15-.32a14.14,14.14,0,0,0-3.51-4c1.39-.69,3.76-2.06,4.67-3.87l.16-.32L343,364c-.12-.23-3.06-5.57-13.69-6.3,0-.2,0-.39,0-.66a13.47,13.47,0,0,0-4.13-9.55l-.42-.41-.49.33c-.15.11-3.18,2.21-5.14,3.88a14.3,14.3,0,0,0-1.87-4.7l-.25-.35Zm-7,12.27c.8-8.53,5.35-10.39,6.78-10.76a15.85,15.85,0,0,1,1.64,5l.21,1.4,1-1a53,53,0,0,1,5.39-4.22,12,12,0,0,1,3.32,8.08,7.47,7.47,0,0,1-.08,1.18l-.14.8.81,0c8.84.41,12.17,4.13,13,5.27-1,1.59-3.7,3-4.73,3.37l-1.18.47,1,.76a14,14,0,0,1,3.75,3.89c-2.39,4-7.71,4.83-7.76,4.84l-1.12.15.63.94c2.59,3.9,3.17,6.64,3.17,8.3a5.42,5.42,0,0,1-.16,1.34c-2-.91-5.83-2.3-6-2.36l-.89-.33-.07.94a7.86,7.86,0,0,1-3.14,6.22,19,19,0,0,1-5.58-4.43l-.75-1-.47,1.15c-1.84,4.47-6.65,6-8.06,6.31-1.45-1.62-1.58-4.59-1.58-5.34v-.18l.09-2.39-1.38,2c-.75,1.07-3.13,2.56-4.55,3.38a15.22,15.22,0,0,1-.92-5,10.78,10.78,0,0,1,.09-1.38,16,16,0,0,1,2.37-6.35l1.07-1.51-1.81.41a9,9,0,0,1-6.6-1.56,10.13,10.13,0,0,1-4-5.7,33.13,33.13,0,0,1,6.89-4.92l.69-.37-.43-.65c-.53-.79-2.84-3.64-3.95-5,8.07-3.65,12.27-1.2,12.31-1.18l1,.61Z" transform="translate(-212.77 -299.63)"/><path d="M319.27,331.7a15,15,0,0,0-8,8.23c-8.18-3.11-12.53.73-12.71.9l-.33.3.13.43a17.73,17.73,0,0,0,2.72,4.67,15.49,15.49,0,0,0-4.91,3.49l-.25.29.11.37c1.05,3.53,6.37,7.38,6.59,7.54l.83-1.15c-.05,0-4.73-3.45-5.91-6.44a14.6,14.6,0,0,1,4.92-3.15l.93-.36-.64-.76a22.07,22.07,0,0,1-2.86-4.47c1.13-.79,5-2.85,11.54-.09l.75.31.21-.78a13.7,13.7,0,0,1,6.84-7.71,16.2,16.2,0,0,1,1.61,6.57c0,.14,0,.29,0,.43l-.06,1.55,1.21-1a37.41,37.41,0,0,1,7.08-4.38,10.49,10.49,0,0,1,3.12,7.21,5.43,5.43,0,0,1,0,.57l-.08,1.41,1.18-.77A13.62,13.62,0,0,1,344,344a31.66,31.66,0,0,1-2.64,4.1l-.82.93,1.22.23a20,20,0,0,1,4.74,1.41c-.76,1.72-3.58,7.37-8.37,9.23l.52,1.33c6.22-2.42,9.28-10.25,9.4-10.58l.17-.43-.33-.32c-.82-.83-3.25-1.47-4.76-1.81,1.15-1.63,2.48-4.06,2.55-4.19l.39-.7-.75-.3a14.8,14.8,0,0,0-11.75.33,12,12,0,0,0-3.89-8l-.32-.27L329,335a32.25,32.25,0,0,0-6.75,3.93,18.48,18.48,0,0,0-2-6.95l-.32-.56Z" transform="translate(-212.77 -299.63)"/><path d="M319.83,315.76a30.68,30.68,0,0,0-3.77,3.42,19.09,19.09,0,0,0-3.91,7.06c-9.4-6.15-13.52-3.09-13.7-2.95l-.3.24,0,.38a21.38,21.38,0,0,0,1.89,5.36,21.42,21.42,0,0,0-5.77,1.25l-.51.19.05.55c.53,4.92,6.54,9.31,6.79,9.5l.83-1.15c-.05,0-5.23-3.87-6.07-8a15.55,15.55,0,0,1,5.74-.92l1.31.16-.59-1.18a30.68,30.68,0,0,1-2.16-5.48c1.11-.49,4.95-1.46,12.46,3.71l.82.57.26-1s1.32-4.85,3.82-7.35c1.62-1.62,2.56-2.44,3.07-2.86a20.47,20.47,0,0,1,3.09,4.25l.41,1.23.81-1a21.49,21.49,0,0,1,4-3.83c1,1.36,4.11,5.68,4.11,10.39v.59l.58.1s4.37.83,6.55,2.38a22.56,22.56,0,0,1,2.46,2,6.64,6.64,0,0,1-2.74,2.1l-2.5.68,2.5.68a35.62,35.62,0,0,1,4.48,1.57,12.14,12.14,0,0,1-3.44,3.45l.63,1.27c2.15-1.08,4.35-4.44,4.45-4.58l.4-.62-.63-.38a21.22,21.22,0,0,0-3.85-1.57,11.24,11.24,0,0,0,2.22-2.24l.32-.44-.34-.42a17,17,0,0,0-3.14-2.63,20.14,20.14,0,0,0-6.59-2.51c-.28-5.94-4.6-11-4.79-11.21l-.34-.4-.48.22a16.35,16.35,0,0,0-4.23,3.72,34.6,34.6,0,0,0-3.29-4.22l-.41-.45Z" transform="translate(-212.77 -299.63)"/><path d="M243.62,403.13a14,14,0,0,0-4.43,8.61,11.9,11.9,0,0,0,1.95,9,6.11,6.11,0,0,0,4.36,2.46,4.17,4.17,0,0,0,3.71-1.66c1.79-2.2,2.28-6.29,1.19-9.92a18.48,18.48,0,0,0-5.91-8.52l-.44-.34Zm2,18.68a4.79,4.79,0,0,1-3.37-1.93,9.63,9.63,0,0,1-1.81-5.94,13.83,13.83,0,0,1,3.64-9.31,17,17,0,0,1,5,7.42,12.68,12.68,0,0,1,.51,3.54,8.24,8.24,0,0,1-1.45,5.08A2.77,2.77,0,0,1,245.62,421.81Z" transform="translate(-212.77 -299.63)"/><path d="M243.35,403.68h1.42c0-5.27,0-13.41.16-14.23l-1.41-.2C243.35,390.43,243.35,402.33,243.35,403.68Z" transform="translate(-212.77 -299.63)"/><path d="M270,418.61a70.94,70.94,0,0,1-3.38,6.72,25.3,25.3,0,0,0-5.6-1.84l-.48-.1-.26.4a16,16,0,0,0-2.15,8.65,25.58,25.58,0,0,0,.3,3.88c-1.34.81-5.63,3.54-8,6.6l-.42.55.55.43a16.86,16.86,0,0,0,3.79,2.21c-.81,1.76-2.9,6.28-3.18,7l-.24.62.6.29a32.64,32.64,0,0,0,13,2.75,36.62,36.62,0,0,0-.21,4.05,45.47,45.47,0,0,0,1,9.37l.21,1,.86-.53a40.78,40.78,0,0,0,5.21-3.79,25,25,0,0,0,3.65,4.41l.31.24.37-.13c.26-.1,6.23-2.39,9-7.57a40.18,40.18,0,0,0,6.66.27l-.06-1.41a38.17,38.17,0,0,1-6.86-.33l-.53-.08-.22.48c-2,4.27-6.67,6.55-8,7.14a31.14,31.14,0,0,1-3.56-4.56l-.61-.92-.59.93c-.46.74-2.76,2.38-4.55,3.55a44.15,44.15,0,0,1-.76-8.06,34.4,34.4,0,0,1,.28-4.66l.14-.86-.87,0A30.91,30.91,0,0,1,252.83,453c.66-1.48,2.29-5,3.2-7l.37-.78-.84-.21a12,12,0,0,1-3.46-1.76,34.56,34.56,0,0,1,7.48-5.94L260,437l-.1-.5a23.42,23.42,0,0,1-.34-4.09,15.24,15.24,0,0,1,1.69-7.45c1.48.35,4.28,1.11,5.15,1.88l.67.58.42-.77q2.91-5.31,3.66-7.15c1.66.5,6.79,2.53,10.09,9.12l.39.79.68-.55c.08-.06,7.28-5.69,12.32-4.25-.53,1.59-1.8,5.6-1.8,7.7v.56l.55.13a58.12,58.12,0,0,1,6.89,2,32.35,32.35,0,0,1-3.61,6.19l-.28.34.18.39a40.65,40.65,0,0,1,2.61,8.65l1.4-.19a39.33,39.33,0,0,0-2.55-8.64,37.73,37.73,0,0,0,3.84-6.82l.25-.59-.57-.31a41.37,41.37,0,0,0-7.25-2.26,42.61,42.61,0,0,1,1.92-7.38l.22-.63-.61-.26c-5-2.12-11.7,2.3-13.74,3.78-4.31-7.86-11-9.27-11.24-9.33l-.69-.12Z" transform="translate(-212.77 -299.63)"/><path d="M310.8,442.28c-.2.15-4.61,3.54-6.77,7.3a16.11,16.11,0,0,0-11.22,2.86l-.56.41.39.57a29.79,29.79,0,0,0,2.39,2.9l-6,1.65,0,.5s0,.08,0,.16c0,1,.41,6.35,7.64,10.33-.76,1.66-2.88,6.62-2.88,10.42a8.22,8.22,0,0,0,.09,1.24l.16,1.08.92-.59s3.61-2.32,5.77-3.41a37,37,0,0,0,1.87,6.26l.21.49.52-.07c.28,0,6.57-.86,10.05-4.79,1.12,1.2,4,3.59,10.08,4.62l.36.06.26-.25a8.31,8.31,0,0,0,2-4.89,24.93,24.93,0,0,0,6.13-.08l.49-.09.09-.49a8.42,8.42,0,0,0,.09-1.32,11.87,11.87,0,0,0-2.67-7.32,14.92,14.92,0,0,0,5.44-3.71l.26-.33-.17-.39a15.08,15.08,0,0,0-3.59-4.95c1.05-1.1,3.22-3.56,3.63-5.63l.12-.6-.57-.21a19.07,19.07,0,0,0-8-.76c-.3-1.53-1.46-5.41-5.94-9.74l-.27-.27-.38.08a25.19,25.19,0,0,0-5.69,2.13,22.76,22.76,0,0,0-3.42-3.19l-.42-.28Zm-5.78,8.4c1.58-3,5.06-6,6.22-6.94a29.5,29.5,0,0,1,3.12,3.07l.4.47.51-.34a20.82,20.82,0,0,1,5.39-2.14c4.93,4.94,5.36,9.22,5.36,9.27l.06.79.78-.15a16.38,16.38,0,0,1,7.26.43,16.66,16.66,0,0,1-3.55,4.86l-.64.61.73.49a12,12,0,0,1,3.55,4.45,16.46,16.46,0,0,1-5.39,3.3l-1,.37.76.78a10.4,10.4,0,0,1,2.87,7.21c0,.2,0,.33,0,.48a28.16,28.16,0,0,1-5.92-.05l-.8-.1v.81a7,7,0,0,1-1.39,4.38c-7-1.31-9.28-4.57-9.3-4.6l-.56-.86-.61.83c-2.48,3.38-7.54,4.51-9.15,4.79a45.32,45.32,0,0,1-1.75-6.34l-.16-.86L301,476a53.5,53.5,0,0,0-5.76,3.25c0-4.15,3-10.22,3-10.29l.3-.62-.62-.32c-6.4-3.26-7.3-7.57-7.43-9l7.38-2-1-.87a20.19,20.19,0,0,1-2.6-2.92,15.22,15.22,0,0,1,10-2.19l.52.1Z" transform="translate(-212.77 -299.63)"/><path d="M314.43,426a74.57,74.57,0,0,0-5.84,6.08,16.23,16.23,0,0,0-5.79-3.71l-.35-.13-.31.22c-2,1.46-3.05,5.06-3.1,5.21l1.37.39a11.13,11.13,0,0,1,2.29-4.2c1.06.44,4.13,1.84,5.25,3.7l.51.85.64-.75s3.48-4.05,5.78-6.16c1.2,1.18,4.55,4.78,4.8,8.75l.09,1.32,1.05-.81s3.42-2.57,7-1.23a23.71,23.71,0,0,1,5.85,3.2c-.86,1.68-1.88,3.16-2.3,3.29l-2.23.66,2.22.7a24.25,24.25,0,0,1,5.45,2.32c-.18,1.4-.93,6.26-2.77,8.37l1.06.93c2.45-2.8,3.15-9.28,3.17-9.56l0-.34-.24-.23c-.91-.91-3.51-1.9-5.08-2.45a18,18,0,0,0,2.22-3.58l.23-.49L335,438a23.74,23.74,0,0,0-6.71-3.8,8.89,8.89,0,0,0-7.4.83c-.92-4.89-5.35-8.85-5.55-9l-.46-.4Z" transform="translate(-212.77 -299.63)"/><path d="M341.54,423c-6.51.18-9.65,6.13-9.78,6.39l-.11.21,0,.23c.4,2.39,4.17,5.6,10.22,5.42,5.86-.17,7.77-4,8-5.42a6.12,6.12,0,0,0-1.71-4.13A8.18,8.18,0,0,0,341.54,423Zm0,1.42a6.8,6.8,0,0,1,5.5,2.14,5.4,5.4,0,0,1,1.45,3s-.85,4.06-6.66,4.24c-5.15.15-8.24-2.42-8.71-4.05C333.79,428.71,336.61,424.52,341.58,424.39Z" transform="translate(-212.77 -299.63)"/><path d="M318.7,431.17l.39,1.36c8.57-2.43,13.21-2.15,13.25-2.14l.1-1.42C332.25,429,327.55,428.66,318.7,431.17Z" transform="translate(-212.77 -299.63)"/><path d="M235,448.31c-7.77.17-9.52,4.53-9.52,6a5.88,5.88,0,0,0,1.85,4.17c1.77,1.67,4.59,2.41,8.39,2.2,9.54-.53,9.83-5.47,9.84-5.68v-.14l0-.14A10.91,10.91,0,0,0,235,448.31Zm-6.7,9.18a4.51,4.51,0,0,1-1.41-3.14c0-.94,1.38-4.48,8.14-4.63a9.31,9.31,0,0,1,9.09,5.39c-.1.63-1,3.78-8.47,4.2C232.29,459.5,229.82,458.88,228.34,457.49Z" transform="translate(-212.77 -299.63)"/><polygon points="32.12 154.68 32.12 156.1 42.98 155.93 42.92 154.51 32.12 154.68"/><path d="M260.36,472.38l-.89,1,4.86.56a60.22,60.22,0,0,0-1.31,6.3l-.08.63.62.15c.17,0,4,.88,11.24-.41a14,14,0,0,0-1.07,5.41,15.9,15.9,0,0,0,2,7.65l.41.75.66-.55a22.65,22.65,0,0,0,4.09-4.38,15.13,15.13,0,0,1,1.92,5.38l.07,1.12,1-.54c.27-.15,6.51-3.64,9.21-8.09a19.16,19.16,0,0,0,10.39-3.81l-.88-1.11a17.93,17.93,0,0,1-9.9,3.51h-.41l-.2.37c-1.85,3.33-6.16,6.22-8,7.36a22.45,22.45,0,0,0-2.62-6.06l-.82-1.32-.46,1.48c-.41,1.34-2.34,3.27-3.58,4.39a14.43,14.43,0,0,1-1.49-6.16,11.78,11.78,0,0,1,1.52-6l.88-1.4-1.62.33a35,35,0,0,1-11.39.77c.41-2.59,1.37-6.19,1.38-6.23l.21-.79-3.67-.43c1.49-1.35,3.68-3.05,3.71-3.07l-.87-1.12A52.75,52.75,0,0,0,260.36,472.38Z" transform="translate(-212.77 -299.63)"/><path d="M313.7,496.77c-.53-2-1.79-6.37-2-7l-.34-1.14-.84.84a17.23,17.23,0,0,1-5.61,3.38,29.07,29.07,0,0,1-.54-5.55,32.86,32.86,0,0,1,.19-3.74l-1.41-.17A34.08,34.08,0,0,0,303.7,494l.19.73.72-.23a21.07,21.07,0,0,0,6.08-3.24c.66,2.28,1.73,6,1.84,6.68l.14.89.83-.35c.31-.13,7.54-3.28,9.75-15l-1.39-.26C320.19,492.07,315.49,495.68,313.7,496.77Z" transform="translate(-212.77 -299.63)"/><path d="M330.32,479.27c4.25,2.91,5.27,6.27,5.48,7.22a14.66,14.66,0,0,1-9.15,5.32l-1,.11.41.89a18.21,18.21,0,0,1,1.8,7.65,12.83,12.83,0,0,1-.16,2.09,26.92,26.92,0,0,0-7.14-1.24l-.66,0-.07.66a14.24,14.24,0,0,1-1.15,4.36c-7.49-2.43-9.29-7.3-9.3-7.34l-.47-1.36-.79,1.19c-4.11,6.16-9.15,5.42-10.39,5.13a52.65,52.65,0,0,1-1.67-5.41l-.23-.91-.81.47a6.94,6.94,0,0,1-3.92.8,12,12,0,0,1-.62-3.69,11.54,11.54,0,0,1,1.17-5.15l-1.23-.7a13.05,13.05,0,0,0-.55,10.43l.14.37.39.08a9.15,9.15,0,0,0,4.48-.59,42.62,42.62,0,0,0,1.68,5.19l.13.28.29.1c.07,0,6.45,2,11.59-4.65,1,1.82,3.78,5.41,10.27,7.32l.53.16.28-.48a15.17,15.17,0,0,0,1.48-4.78,21.53,21.53,0,0,1,6.77,1.4l.73.34.25-.76a11.4,11.4,0,0,0,.41-3.29,19.46,19.46,0,0,0-1.61-7.39,15.47,15.47,0,0,0,9.44-6l.15-.22,0-.27c0-.19-.6-4.7-6.13-8.5Z" transform="translate(-212.77 -299.63)"/><path d="M320,513.63c-.2.16-4.66,3.84-3.42,9.37a7.43,7.43,0,0,0,3.44,5,7.2,7.2,0,0,0,5.46.73c1.4-.43,4.45-2.18,2.65-9.19a7.91,7.91,0,0,0-7.26-6l-.6-.09Zm.73,13.1a5.94,5.94,0,0,1-2.76-4,7.14,7.14,0,0,1-.19-1.62,8.76,8.76,0,0,1,2.88-6.14h0c1.37.19,5,.7,6.09,4.93a14.63,14.63,0,0,1,.5,3.5c0,2.13-.75,3.53-2.19,4A5.79,5.79,0,0,1,320.68,526.73Z" transform="translate(-212.77 -299.63)"/><rect x="319.1" y="507.11" width="1.42" height="7.65" transform="translate(-306.76 -226.98) rotate(-11.31)"/><path d="M341.78,489.15l-.07.13,0,.15c0,.24-.65,6,5.49,9.85,3.35,2.11,5.91,1.62,7.46.85a6,6,0,0,0,3.29-4.22c.14-1.62-.19-5.65-6.09-8.21C346.72,485.48,342.57,487.84,341.78,489.15Zm9.5-.15c5.06,2.19,5.35,5.48,5.24,6.79a4.58,4.58,0,0,1-2.52,3.07c-1.22.61-3.27,1-6.06-.78-4.45-2.79-4.87-6.65-4.87-8a1.85,1.85,0,0,1,0-.29C343.64,489.09,346.88,487.09,351.28,489Z" transform="translate(-212.77 -299.63)"/><path d="M336,487.38a20.6,20.6,0,0,1,5.9,2.25l.71-1.23a21.23,21.23,0,0,0-6.43-2.42Z" transform="translate(-212.77 -299.63)"/><path d="M243.58,364.71a.57.57,0,0,0,.18.79l2.66,1.66a.57.57,0,1,0,.6-1l-2.66-1.67A.57.57,0,0,0,243.58,364.71Z" transform="translate(-212.77 -299.63)"/><path d="M246.15,368.28l-3.67.5a.57.57,0,0,0,.15,1.13l3.67-.5a.57.57,0,1,0-.15-1.13Z" transform="translate(-212.77 -299.63)"/><path d="M247,371l-2.33,2.33a.57.57,0,0,0,.8.8l2.33-2.33a.57.57,0,0,0,0-.8A.55.55,0,0,0,247,371Z" transform="translate(-212.77 -299.63)"/><path d="M248.22,373.76l-1.5,3a.57.57,0,1,0,1,.51l1.5-3a.57.57,0,0,0-1-.51Z" transform="translate(-212.77 -299.63)"/><path d="M251.69,374.78a.56.56,0,0,0-.53.6l.17,3.16a.56.56,0,0,0,.59.54.58.58,0,0,0,.54-.6l-.17-3.16A.58.58,0,0,0,251.69,374.78Z" transform="translate(-212.77 -299.63)"/><path d="M253.6,374.69a.57.57,0,0,0-.2.78l1.67,2.83a.57.57,0,0,0,.78.2.56.56,0,0,0,.2-.77l-1.67-2.84A.57.57,0,0,0,253.6,374.69Z" transform="translate(-212.77 -299.63)"/><path d="M255.54,373a.56.56,0,0,0,.29.75l2.67,1.17a.57.57,0,0,0,.74-.3.55.55,0,0,0-.29-.74l-2.66-1.17A.57.57,0,0,0,255.54,373Z" transform="translate(-212.77 -299.63)"/><path d="M260.36,370.28l-3.17.17a.57.57,0,0,0,.06,1.13l3.17-.17a.57.57,0,0,0,.54-.59A.58.58,0,0,0,260.36,370.28Z" transform="translate(-212.77 -299.63)"/><path d="M259.73,366.47l-3.33,1a.57.57,0,0,0-.38.71.56.56,0,0,0,.7.38l3.33-1a.57.57,0,0,0,.38-.71A.56.56,0,0,0,259.73,366.47Z" transform="translate(-212.77 -299.63)"/><path d="M257.8,362l-2.5,2.84a.56.56,0,0,0,0,.8.58.58,0,0,0,.8-.05l2.5-2.84a.57.57,0,0,0-.85-.75Z" transform="translate(-212.77 -299.63)"/><path d="M254.88,360.76l-1.33,2.67a.56.56,0,1,0,1,.5l1.34-2.66a.56.56,0,0,0-.25-.76A.58.58,0,0,0,254.88,360.76Z" transform="translate(-212.77 -299.63)"/><path d="M251.14,360.12a.58.58,0,0,0-.48.65l.5,3.33a.57.57,0,0,0,1.13-.17l-.5-3.33A.57.57,0,0,0,251.14,360.12Z" transform="translate(-212.77 -299.63)"/><path d="M246.39,361.39a.56.56,0,0,0-.12.79l1.83,2.5a.55.55,0,0,0,.79.12A.56.56,0,0,0,249,364l-1.84-2.5A.56.56,0,0,0,246.39,361.39Z" transform="translate(-212.77 -299.63)"/><path d="M230.53,336.82a.55.55,0,0,0-.34.72l1.67,4.5a.56.56,0,0,0,.73.34.57.57,0,0,0,.33-.73l-1.66-4.5A.57.57,0,0,0,230.53,336.82Z" transform="translate(-212.77 -299.63)"/><path d="M234.68,336.45a.56.56,0,0,0-.52.61l.33,4.17a.58.58,0,0,0,.61.52.57.57,0,0,0,.52-.62l-.33-4.16A.57.57,0,0,0,234.68,336.45Z" transform="translate(-212.77 -299.63)"/><path d="M239.06,337.09l-2,3.83a.56.56,0,1,0,1,.52l2-3.83a.56.56,0,0,0-1-.52Z" transform="translate(-212.77 -299.63)"/><path d="M242.4,339.05l-2.84,2a.57.57,0,0,0-.13.79.56.56,0,0,0,.79.14l2.83-2a.57.57,0,1,0-.65-.93Z" transform="translate(-212.77 -299.63)"/><path d="M244.08,343l-3.17.83a.57.57,0,0,0-.4.69.58.58,0,0,0,.69.41l3.17-.84a.56.56,0,0,0-.29-1.09Z" transform="translate(-212.77 -299.63)"/><path d="M240.37,346.63a.56.56,0,0,0,.3.74l3.17,1.33a.56.56,0,0,0,.44-1l-3.17-1.34A.57.57,0,0,0,240.37,346.63Z" transform="translate(-212.77 -299.63)"/><path d="M239.17,348.43a.57.57,0,0,0,0,.8l2.17,2.34a.57.57,0,0,0,.8,0,.58.58,0,0,0,0-.81L240,348.46A.57.57,0,0,0,239.17,348.43Z" transform="translate(-212.77 -299.63)"/><path d="M236.09,350.8a.57.57,0,0,0-.42.68l.84,3.5a.57.57,0,0,0,1.1-.26l-.83-3.5A.57.57,0,0,0,236.09,350.8Z" transform="translate(-212.77 -299.63)"/><path d="M234.17,351.55l-.83,3.5a.57.57,0,0,0,.42.68.56.56,0,0,0,.68-.42l.84-3.5a.57.57,0,0,0-1.11-.26Z" transform="translate(-212.77 -299.63)"/><path d="M231.79,350.31,229,353.65a.58.58,0,0,0,.06.8.57.57,0,0,0,.8-.07l2.84-3.33a.57.57,0,0,0-.87-.74Z" transform="translate(-212.77 -299.63)"/><path d="M229.58,348.2,226.75,350a.57.57,0,1,0,.62.95l2.83-1.83a.57.57,0,1,0-.62-1Z" transform="translate(-212.77 -299.63)"/><path d="M225.34,344.22a.57.57,0,0,0,.42.68l3.5.83a.56.56,0,0,0,.68-.42.56.56,0,0,0-.42-.68l-3.5-.83A.56.56,0,0,0,225.34,344.22Z" transform="translate(-212.77 -299.63)"/><path d="M228.16,340.78a.57.57,0,0,0,0,.8l2,2a.57.57,0,0,0,.8-.8l-2-2A.57.57,0,0,0,228.16,340.78Z" transform="translate(-212.77 -299.63)"/><path d="M262.86,333a.57.57,0,0,0-.33.73l1.16,3.17a.57.57,0,0,0,1.07-.4l-1.17-3.16A.56.56,0,0,0,262.86,333Z" transform="translate(-212.77 -299.63)"/><path d="M259.58,336a.57.57,0,0,0,.17.78l2.83,1.84a.57.57,0,1,0,.62-1l-2.83-1.83A.57.57,0,0,0,259.58,336Z" transform="translate(-212.77 -299.63)"/><path d="M257.69,339.15a.57.57,0,0,0,.34.73l3.17,1.17a.57.57,0,0,0,.39-1.07l-3.17-1.16A.57.57,0,0,0,257.69,339.15Z" transform="translate(-212.77 -299.63)"/><path d="M262.21,346l-1.84,4.17a.57.57,0,0,0,1,.46l1.83-4.17a.56.56,0,1,0-1-.46Z" transform="translate(-212.77 -299.63)"/><path d="M265.49,346.85v4.83a.57.57,0,0,0,1.14,0v-4.83a.57.57,0,0,0-1.14,0Z" transform="translate(-212.77 -299.63)"/><path d="M267.64,346a.57.57,0,0,0-.26.76l2.17,4.33a.58.58,0,0,0,.76.26.57.57,0,0,0,.25-.77l-2.16-4.33A.56.56,0,0,0,267.64,346Z" transform="translate(-212.77 -299.63)"/><path d="M270.37,344.12a.58.58,0,0,0,.3.75l3.83,1.66a.56.56,0,0,0,.75-.29.58.58,0,0,0-.3-.75l-3.83-1.66A.56.56,0,0,0,270.37,344.12Z" transform="translate(-212.77 -299.63)"/><path d="M275.08,340.13l-3.17.84a.56.56,0,1,0,.29,1.09l3.17-.83a.57.57,0,0,0-.29-1.1Z" transform="translate(-212.77 -299.63)"/><path d="M274.77,336l-3.16,1.84a.56.56,0,0,0-.21.77.58.58,0,0,0,.78.21l3.16-1.83a.57.57,0,0,0,.21-.78A.58.58,0,0,0,274.77,336Z" transform="translate(-212.77 -299.63)"/><path d="M271.63,332.64l-3.17,3.67a.57.57,0,1,0,.86.74l3.17-3.67a.56.56,0,0,0-.06-.79A.57.57,0,0,0,271.63,332.64Z" transform="translate(-212.77 -299.63)"/><path d="M266.49,332.65l-.16,3.34a.57.57,0,1,0,1.13.05l.16-3.33a.57.57,0,0,0-.53-.6A.58.58,0,0,0,266.49,332.65Z" transform="translate(-212.77 -299.63)"/><path d="M313.23,376.4l-1.5,2.67a.57.57,0,0,0,1,.55l1.5-2.66a.57.57,0,0,0-1-.56Z" transform="translate(-212.77 -299.63)"/><path d="M316.49,376.16l-.16,4.5a.56.56,0,0,0,.54.59.57.57,0,0,0,.59-.55l.17-4.5a.58.58,0,0,0-.55-.59A.58.58,0,0,0,316.49,376.16Z" transform="translate(-212.77 -299.63)"/><path d="M319,375.74a.55.55,0,0,0-.09.79l2,2.5a.56.56,0,1,0,.88-.7l-2-2.5A.55.55,0,0,0,319,375.74Z" transform="translate(-212.77 -299.63)"/><path d="M321,375.3a.58.58,0,0,0,.32.74,22,22,0,0,0,4.71.37.57.57,0,1,0,0-1.13,22.6,22.6,0,0,1-4.29-.29A.57.57,0,0,0,321,375.3Z" transform="translate(-212.77 -299.63)"/><path d="M327.08,371.3l-4.5,1.16a.57.57,0,0,0-.4.7.56.56,0,0,0,.69.4l4.5-1.16a.57.57,0,0,0,.4-.7A.56.56,0,0,0,327.08,371.3Z" transform="translate(-212.77 -299.63)"/><path d="M326.14,367.84l-2.67,1.33a.57.57,0,0,0,.51,1l2.67-1.33a.59.59,0,0,0,.25-.77A.56.56,0,0,0,326.14,367.84Z" transform="translate(-212.77 -299.63)"/><path d="M325,363.76l-3,2.66a.57.57,0,0,0,0,.8.56.56,0,0,0,.8,0l3-2.66a.59.59,0,0,0,.05-.81A.58.58,0,0,0,325,363.76Z" transform="translate(-212.77 -299.63)"/><path d="M321.9,361.91l-1.67,3a.57.57,0,0,0,1,.55l1.67-3a.57.57,0,0,0-.22-.77A.55.55,0,0,0,321.9,361.91Z" transform="translate(-212.77 -299.63)"/><path d="M318.16,361.28a.58.58,0,0,0-.5.63l.34,3a.56.56,0,1,0,1.12-.13l-.33-3A.58.58,0,0,0,318.16,361.28Z" transform="translate(-212.77 -299.63)"/><path d="M315.22,362.47a.58.58,0,0,0-.37.72l1,3.16a.57.57,0,0,0,1.08-.34l-1-3.17A.57.57,0,0,0,315.22,362.47Z" transform="translate(-212.77 -299.63)"/><path d="M311.78,365.16a.57.57,0,0,0,.1.8l2.33,1.83a.57.57,0,0,0,.7-.89l-2.33-1.83A.57.57,0,0,0,311.78,365.16Z" transform="translate(-212.77 -299.63)"/><path d="M309.35,368.36a.56.56,0,0,0,.39.7l3,.83a.57.57,0,0,0,.7-.39.58.58,0,0,0-.4-.7l-3-.83A.55.55,0,0,0,309.35,368.36Z" transform="translate(-212.77 -299.63)"/><path d="M312.41,371.47l-3.16.83a.56.56,0,0,0-.41.69.59.59,0,0,0,.7.41l3.16-.84a.56.56,0,0,0,.41-.69A.57.57,0,0,0,312.41,371.47Z" transform="translate(-212.77 -299.63)"/><path d="M312.05,373.56l-2.66,2a.56.56,0,0,0-.12.8.57.57,0,0,0,.8.11l2.66-2a.57.57,0,0,0,.11-.8A.56.56,0,0,0,312.05,373.56Z" transform="translate(-212.77 -299.63)"/><path d="M307.17,335.73a.56.56,0,0,0,.44.67l3.16.67a.58.58,0,0,0,.68-.44A.57.57,0,0,0,311,336l-3.17-.67A.57.57,0,0,0,307.17,335.73Z" transform="translate(-212.77 -299.63)"/><path d="M308.8,332.31a.57.57,0,0,0,.05.8l2.67,2.33a.56.56,0,1,0,.74-.85l-2.66-2.34A.57.57,0,0,0,308.8,332.31Z" transform="translate(-212.77 -299.63)"/><path d="M310.72,329.39a.57.57,0,0,0-.12.79l2.34,3.17a.56.56,0,0,0,.79.12.57.57,0,0,0,.12-.79l-2.34-3.17A.56.56,0,0,0,310.72,329.39Z" transform="translate(-212.77 -299.63)"/><path d="M315,327.12a.57.57,0,0,0-.45.67l.67,3.5a.57.57,0,1,0,1.11-.22l-.66-3.5A.59.59,0,0,0,315,327.12Z" transform="translate(-212.77 -299.63)"/><path d="M318.33,327.27l-.5,3.67a.57.57,0,0,0,.49.64.56.56,0,0,0,.63-.49l.5-3.67a.56.56,0,0,0-.48-.64A.57.57,0,0,0,318.33,327.27Z" transform="translate(-212.77 -299.63)"/><path d="M321.59,328.2l-1.67,2.5a.58.58,0,0,0,.16.79.56.56,0,0,0,.78-.16l1.67-2.5a.58.58,0,0,0-.16-.79A.56.56,0,0,0,321.59,328.2Z" transform="translate(-212.77 -299.63)"/><path d="M325.39,329.22l-3.17,2.34a.57.57,0,0,0-.12.79.56.56,0,0,0,.79.12l3.17-2.33a.57.57,0,0,0-.67-.92Z" transform="translate(-212.77 -299.63)"/><path d="M327.64,331l-3.34,1.66a.57.57,0,0,0,.51,1l3.34-1.67a.57.57,0,0,0,.25-.76A.56.56,0,0,0,327.64,331Z" transform="translate(-212.77 -299.63)"/><path d="M330.46,334l-4.5.83a.57.57,0,0,0-.46.66.56.56,0,0,0,.66.45l4.5-.83a.56.56,0,1,0-.2-1.11Z" transform="translate(-212.77 -299.63)"/><path d="M272.2,436.65a.56.56,0,0,0-.34.72L273,440.7a.58.58,0,0,0,.73.35.56.56,0,0,0,.34-.72L272.93,437A.57.57,0,0,0,272.2,436.65Z" transform="translate(-212.77 -299.63)"/><path d="M275.86,435.62a.55.55,0,0,0-.53.59l.16,3.33a.56.56,0,0,0,.6.54.57.57,0,0,0,.54-.59l-.17-3.34A.56.56,0,0,0,275.86,435.62Z" transform="translate(-212.77 -299.63)"/><path d="M280.56,437.72l-3,2.17a.57.57,0,0,0,.66.92l3-2.17a.56.56,0,0,0,.13-.79A.57.57,0,0,0,280.56,437.72Z" transform="translate(-212.77 -299.63)"/><path d="M284.09,440.46l-3.5.84a.57.57,0,0,0-.42.68.58.58,0,0,0,.69.42l3.5-.83a.57.57,0,0,0-.27-1.11Z" transform="translate(-212.77 -299.63)"/><path d="M283.5,444.45l-3.17.33a.57.57,0,0,0-.5.63.56.56,0,0,0,.62.5l3.17-.33a.57.57,0,0,0-.12-1.13Z" transform="translate(-212.77 -299.63)"/><path d="M279.71,447.44a.57.57,0,0,0,.27.75l3.5,1.67a.58.58,0,0,0,.76-.27.57.57,0,0,0-.27-.75l-3.5-1.67A.57.57,0,0,0,279.71,447.44Z" transform="translate(-212.77 -299.63)"/><path d="M277.85,449.15a.58.58,0,0,0-.32.74l1.5,3.83a.57.57,0,0,0,1.06-.41l-1.5-3.84A.58.58,0,0,0,277.85,449.15Z" transform="translate(-212.77 -299.63)"/><path d="M273.83,450.48l-.17,3a.57.57,0,1,0,1.13.06l.17-3a.56.56,0,0,0-.54-.59A.55.55,0,0,0,273.83,450.48Z" transform="translate(-212.77 -299.63)"/><path d="M271.71,449.57l-2.34,1.83a.58.58,0,0,0-.09.8.56.56,0,0,0,.79.09l2.34-1.83a.57.57,0,0,0,.09-.8A.56.56,0,0,0,271.71,449.57Z" transform="translate(-212.77 -299.63)"/><path d="M270.05,446.81l-2.5.83a.57.57,0,0,0-.36.72.56.56,0,0,0,.71.36l2.5-.84a.56.56,0,1,0-.35-1.07Z" transform="translate(-212.77 -299.63)"/><path d="M267.39,443.45a.57.57,0,1,0,0,1.13h3.67a.57.57,0,1,0,0-1.13Z" transform="translate(-212.77 -299.63)"/><path d="M268.82,438.78a.57.57,0,0,0,0,.8l2.5,2.5a.58.58,0,0,0,.81,0,.57.57,0,0,0,0-.8l-2.5-2.5A.58.58,0,0,0,268.82,438.78Z" transform="translate(-212.77 -299.63)"/><path d="M307.66,454.61a.58.58,0,0,0,0,.81l2.5,2.5a.57.57,0,0,0,.8,0,.58.58,0,0,0,0-.81l-2.5-2.5A.57.57,0,0,0,307.66,454.61Z" transform="translate(-212.77 -299.63)"/><path d="M311.5,453.1l-.5,3.33a.55.55,0,0,0,.47.64.57.57,0,0,0,.65-.47l.5-3.33a.57.57,0,0,0-.48-.65A.56.56,0,0,0,311.5,453.1Z" transform="translate(-212.77 -299.63)"/><path d="M315.37,452.46l-1.66,3.83a.56.56,0,0,0,.29.75.58.58,0,0,0,.75-.3l1.66-3.83a.57.57,0,1,0-1-.45Z" transform="translate(-212.77 -299.63)"/><path d="M318.52,455.08l-3.33,2.84a.55.55,0,0,0-.06.79.57.57,0,0,0,.8.07l3.33-2.83a.56.56,0,0,0,.06-.8A.57.57,0,0,0,318.52,455.08Z" transform="translate(-212.77 -299.63)"/><path d="M320.42,458l-3.34,2.17a.57.57,0,0,0,.62,1L321,459a.56.56,0,0,0-.61-.95Z" transform="translate(-212.77 -299.63)"/><path d="M322.68,461.78l-4.5.34a.56.56,0,0,0-.52.6.57.57,0,0,0,.61.53l4.5-.34a.57.57,0,0,0-.09-1.13Z" transform="translate(-212.77 -299.63)"/><path d="M317.54,464.62a.57.57,0,0,0,.29.75l3.33,1.5a.58.58,0,0,0,.75-.29.56.56,0,0,0-.29-.75l-3.33-1.5A.57.57,0,0,0,317.54,464.62Z" transform="translate(-212.77 -299.63)"/><path d="M316.64,465.34a.57.57,0,0,0-.26.76c.35.68,2,3.13,2.21,3.4a.57.57,0,0,0,.79.15.57.57,0,0,0,.15-.79c-.51-.73-1.87-2.75-2.13-3.27A.56.56,0,0,0,316.64,465.34Z" transform="translate(-212.77 -299.63)"/><path d="M314.89,467.61a.58.58,0,0,0-.57.57c0,.52.53,2.91.68,3.62a.57.57,0,0,0,.68.43.55.55,0,0,0,.43-.67c-.32-1.45-.65-3.1-.65-3.38A.58.58,0,0,0,314.89,467.61Z" transform="translate(-212.77 -299.63)"/><path d="M311.49,468.12l-.33,3.34a.57.57,0,1,0,1.13.11l.33-3.33a.56.56,0,0,0-.5-.62A.57.57,0,0,0,311.49,468.12Z" transform="translate(-212.77 -299.63)"/><path d="M309.37,466.79l-1.33,3a.55.55,0,0,0,.29.74.57.57,0,0,0,.75-.29l1.33-3a.55.55,0,0,0-.29-.74A.57.57,0,0,0,309.37,466.79Z" transform="translate(-212.77 -299.63)"/><path d="M309.07,465.3l-4,1.17a.57.57,0,0,0,.31,1.09l4-1.17a.57.57,0,1,0-.31-1.09Z" transform="translate(-212.77 -299.63)"/><path d="M304.73,462.11a.57.57,0,0,0,0,1.14h3.5a.57.57,0,0,0,0-1.14Z" transform="translate(-212.77 -299.63)"/><path d="M305.57,457.9a.56.56,0,0,0,.2.77l3.17,1.84a.57.57,0,0,0,.57-1l-3.17-1.83A.55.55,0,0,0,305.57,457.9Z" transform="translate(-212.77 -299.63)"/><path d="M279.89,469.58l-1.83,3.5a.57.57,0,1,0,1,.53l1.83-3.5a.55.55,0,0,0-.24-.76A.56.56,0,0,0,279.89,469.58Z" transform="translate(-212.77 -299.63)"/><path d="M281.84,470.39l-.84,3.84a.57.57,0,0,0,.44.67.56.56,0,0,0,.67-.43l.84-3.84a.57.57,0,0,0-.44-.67A.56.56,0,0,0,281.84,470.39Z" transform="translate(-212.77 -299.63)"/><path d="M283.82,471v3.84a.57.57,0,0,0,.57.56.56.56,0,0,0,.57-.56V471a.56.56,0,0,0-.57-.56A.57.57,0,0,0,283.82,471Z" transform="translate(-212.77 -299.63)"/><path d="M287.29,473.08a.57.57,0,0,1-.63-.5l.33,3.1a.61.61,0,0,0,.63.56.52.52,0,0,0,.51-.56l-.34-3.24A.58.58,0,0,1,287.29,473.08Z" transform="translate(-212.77 -299.63)"/><path d="M289.74,471.8a.56.56,0,0,0-.39.7l.83,3a.56.56,0,0,0,.7.39.55.55,0,0,0,.39-.69l-.83-3A.57.57,0,0,0,289.74,471.8Z" transform="translate(-212.77 -299.63)"/><path d="M291.25,471.2a.58.58,0,0,0,.16.79l3,2A.57.57,0,1,0,295,473l-3-2A.58.58,0,0,0,291.25,471.2Z" transform="translate(-212.77 -299.63)"/><path d="M302.11,442.5a.56.56,0,0,0,.1.79l2.33,1.84a.57.57,0,1,0,.7-.9l-2.33-1.83A.57.57,0,0,0,302.11,442.5Z" transform="translate(-212.77 -299.63)"/><path d="M304.82,439.83a.57.57,0,0,0-.28.75l1.67,3.67a.57.57,0,0,0,1-.47l-1.67-3.67A.56.56,0,0,0,304.82,439.83Z" transform="translate(-212.77 -299.63)"/><path d="M307.82,438.45a.56.56,0,0,0-.49.63l.33,2.67a.57.57,0,0,0,.64.49.56.56,0,0,0,.49-.63l-.34-2.67A.56.56,0,0,0,307.82,438.45Z" transform="translate(-212.77 -299.63)"/><path d="M311.84,437.55l-1,4.34a.57.57,0,0,0,.42.68.56.56,0,0,0,.68-.43l1-4.33a.57.57,0,0,0-1.1-.26Z" transform="translate(-212.77 -299.63)"/><path d="M315.79,437.82l-2.5,3a.57.57,0,0,0,.07.8.56.56,0,0,0,.8-.08l2.5-3a.56.56,0,0,0-.87-.72Z" transform="translate(-212.77 -299.63)"/><path d="M318.25,440l-2.83,1.83a.56.56,0,1,0,.61.95l2.84-1.83a.57.57,0,0,0-.62-.95Z" transform="translate(-212.77 -299.63)"/><path d="M321.8,441.35l-3.84,2a.57.57,0,1,0,.53,1l3.83-2a.56.56,0,1,0-.52-1Z" transform="translate(-212.77 -299.63)"/><path d="M263.93,379.81s-.12,4.87-.12,5.75a42.4,42.4,0,0,1,19.37,14.5,53.55,53.55,0,0,1,9.5,23.25l2.63,1s-2.13,4.87-1.63,7.62l.88.5,5.25,1.38s1.5-3.88,3.12-4.63a63.92,63.92,0,0,1,5.38,3.75c.5.63.37-1.12.87-.87s5.5-5.5,5.5-5.5a56,56,0,0,1,3.75,4.25s1.75-4.13,2.25-13.38a158.42,158.42,0,0,1,1.75-16.5,6.46,6.46,0,0,0-1.62,2.5c-.5,1.5-5.5,6-8.5,9.88a94.93,94.93,0,0,0-6.38,10,167.42,167.42,0,0,0-7.87-21.13,12.18,12.18,0,0,1,3.75-9.62,16.92,16.92,0,0,1,1.5-12.75l-.75-.63-1.88.13a59,59,0,0,0-8.75,14.37,43.72,43.72,0,0,0-20.12-14l-1.13.38Z" transform="translate(-212.77 -299.63)"/><path d="M263.31,386.06s-6.13-.5-8.5-2.63c0,0-1.25,4.38-3.25,6.5a11.07,11.07,0,0,0,6,9.63c6.25,3.37,11,5.37,11,5.37s-.38-5.75-.63-8.87S265.43,387.93,263.31,386.06Z" transform="translate(-212.77 -299.63)"/><path d="M230.93,378.81a12,12,0,0,0-3.5,6.87c-.62,4.38-.87,8-2,9.88s-.12,1,.63.37a39.1,39.1,0,0,1,5.25-4.5c2.37-1.5,6.62-3.75,8-7.5l-.13-4.5S234.31,380.56,230.93,378.81Z" transform="translate(-212.77 -299.63)"/><path d="M270.81,360.43l2.62,1-1,2.25a80.21,80.21,0,0,0,8.25,4.75,17.26,17.26,0,0,1,6.88,6.5c.37,1,.75,1.25,1,0a69.14,69.14,0,0,0,.5-8.87c0-3.38-2.5-7.63-2.5-7.63s4.37-1.62,6.75-2.75,3.5-1.75,3.5-1.75-2.13-2.12-2.5-4-5.75-6.37-11.88-5.87c0,0,4.63,4.12,2.88,9.62l-4.13.13s1,3,.13,5.25a5.37,5.37,0,0,1-2.13-.25c-1-.38-5-2.88-5-2.88Z" transform="translate(-212.77 -299.63)"/><path d="M229.06,325.81s-2.5-2.13-2.63-7.63-.25-7.75-.25-8.12,2.75,2.87,5.25,4.5,6,6.62,6.38,8.5l-.88-.25-2.75,5.12-3.62-2Z" transform="translate(-212.77 -299.63)"/><path d="M257.56,320.68a17.57,17.57,0,0,0-4.38-5.75c-3.12-2.75-8.62-4.25-8.62-4.25a19.88,19.88,0,0,1,9.12-.87c5.5.62,13.63,2.5,17.13,9.12l-5.63,3.25s-1.12-3.87-2.37-4.75S257.56,320.68,257.56,320.68Z" transform="translate(-212.77 -299.63)"/><path d="M271.43,319.43a12.42,12.42,0,0,1,2.63,8l.5.13a10.85,10.85,0,0,1,11.12-2,9.1,9.1,0,0,1-1.25,3.87c-1,1.25,2,.75,5.88-.87s6.12-5.75,8.87-6.75c0,0-4.75-4-13-1.75,0,0,.88-9.5,7.25-13C293.43,307.06,280.18,309.31,271.43,319.43Z" transform="translate(-212.77 -299.63)"/><path d="M304.56,323.56s-1.25-8.75-9.25-12.75c0,0-.13-.75,1.62-.5a36,36,0,0,1,19.63,8.62l-.38,1.38a16.06,16.06,0,0,0-3.62,6.75l-1.25-.5S306.68,323.93,304.56,323.56Z" transform="translate(-212.77 -299.63)"/><path d="M320.68,316.81a15.23,15.23,0,0,1,3.75-5c2.75-2.5,3.88-3.25,4.38-4.5s1.37,0,1.5.75,2.87,7.25,1.25,12.87c0,0-1.75-2.5-2.38-3.25s-2,0-2,0l-3,3.25Z" transform="translate(-212.77 -299.63)"/><path d="M333.31,327.93s2.12-4.5,8.5-5.12,11.37,1.62,14.37.62c0,0,1.38-.75,1.38-.12s-3.13,2.87-3.63,3.37-5.25,5.25-11,6.38c0,0-2-2.88-7.62-4.13C335.31,328.93,333.06,328.81,333.31,327.93Z" transform="translate(-212.77 -299.63)"/><path d="M335.56,389.18l-6.38-2.37a13.6,13.6,0,0,1-3.12,6.12,10.73,10.73,0,0,0,3.37,5.5c2.88,2.63,7,7.88,7.38,10.5,0,0,.37.63,1-.5s1.12-5.25,1.37-7.87S338.68,392.56,335.56,389.18Z" transform="translate(-212.77 -299.63)"/><path d="M335.31,383.56a34.5,34.5,0,0,0,8.37,1.87c4,.25,9.5,2.5,10.13,3.38s1.25-9.38-12.25-15.38l-.75.13a9,9,0,0,1-7.63,4.62l.25,1.25S335.18,381.81,335.31,383.56Z" transform="translate(-212.77 -299.63)"/><path d="M255.81,438.81s-3-5.88-12.5-8a31.53,31.53,0,0,0-17.5,1.25s-.5,1,1.75,1.37,3.75-1.62,7.5.63,11.5,12.25,19.75,11.87c0,0,0-.25-.75-.87a19,19,0,0,0-3-1.63S254.18,439.81,255.81,438.81Z" transform="translate(-212.77 -299.63)"/><path d="M262.43,456.31s-6.5,1.62-10.87,5.37-5.88,6.25-9.38,7.25a40.71,40.71,0,0,0-9.12,3.63c-2.63,1.5-4.25,3.25-2,2.62s6.75-2.25,9.75-1.62,8.25,1,11.25,0,8.62-.38,9-.25l.87-1.38,3.63-3.12s-.13-8.63-.25-12.63Z" transform="translate(-212.77 -299.63)"/><path d="M263.93,479.18a10.29,10.29,0,0,1-6.37,2.88c-4.13.37-9.38-.38-13.5,1.75s-5.25,5.62-9.25,7.5-12.63,2.75-14.25,8.37v22.38s1,7.62,8.37,8.37l10-.12s8.25-12.07,19.75-20.13c16.25-11.37,26.13-10.75,31.13-12.37,0,0-.13-5.88,1-7.63,0,0-.38-.62-1.13.25a59.47,59.47,0,0,1-5.75,4.13s-1.25-4.25-3-6c0,0-2.62,3.87-4.75,4.5,0,0-3.25-6.88-.37-13.5,0,0-6.5,2.25-11.25.87C264.56,480.43,263.31,479.68,263.93,479.18Z" transform="translate(-212.77 -299.63)"/><path d="M301.56,504.56a19.55,19.55,0,0,0-3.88,6.87c-1.37,4.25-3.87,9.88-5,10.88s-1.87,2.75.75.5a29.06,29.06,0,0,1,7.5-4.5c2.25-1,11.13-4.88,14.5-12.25,0,0-6-3.38-6.62-6.75C308.81,499.31,307.56,503.18,301.56,504.56Z" transform="translate(-212.77 -299.63)"/><path d="M326.31,502.93a10.93,10.93,0,0,0,4.5,7c4.12,3.13,8.62,2.5,11.62,3.13a39.26,39.26,0,0,1,6.75,2.12c.5.25,1.5,1,.25-.75s-5.12-5.37-6.62-8.37-6.63-10.88-15.13-12.63l-.25.63s2.25,5.62.75,9.5Z" transform="translate(-212.77 -299.63)"/><path d="M330.31,469.06a12.64,12.64,0,0,0,10.62,2.5c6.63-1.25,14.88-5.88,16.25-6.25a60.44,60.44,0,0,1-6.87-2.5c-3-1.38-11.25-3.88-17.75-1.13,0,0,2.37,2.63,2.25,3.75S331.31,469.06,330.31,469.06Z" transform="translate(-212.77 -299.63)"/></svg>