<svg id="_3_4" xmlns="http://www.w3.org/2000/svg" viewBox="0 0 153.07 238.11"><defs><style>.cls-1{fill:#ed1c24;}.cls-2{fill:#fff;}.cls-3{fill:#f9aa8f;}</style></defs><title>_3_4</title><rect class="cls-1" width="153.07" height="238.11"/><path class="cls-2" d="M232.25,318.41l-.17,205s0,8.67,9.5,9.67l107.34.16,21.16-44.83V319.08s-.33-9.17-10-9.5H241.42S232.92,309.91,232.25,318.41Z" transform="translate(-224.55 -302.27)"/><path class="cls-3" d="M263.58,500.33l3.13.75v.62c0,.5-.75,8-.63,11.25s2.25,2.25,2.25,2.25l4.25-4.25s.63,3.63,2.13,4.25,4.87-1,4.87-1l2.88,3.63,6.12-4.25,3,.5.63-5.63a6,6,0,0,1,4.25-.12,48.38,48.38,0,0,0,5.37,1.87s2.63-6.75,3.25-7.87,2.38-9.75,2.38-9.75l-1.75-6.75s-1.38-4.5-2-4.88S291,474.58,291,474.58s-5.75-4.88-6.38-4.63-17.12,4.13-17.12,4.13-6.13,7.75-7.13,8.37-10.25,8.88-10.25,8.88l1.63,7.25,9,2.75Z" transform="translate(-224.55 -302.27)"/><path class="cls-3" d="M283.21,364s-7.5,2.75-9,9.5l-5.5-.25L264.08,375s-4.5,3-5.12,3.88c0,0,4,2.5,4.25,3.25,0,0-4.13,3.87-4.75,5.75s.37,6.37.37,6.37l6.13,5.5,5.25,6.5,6,4s6.75,2.25,7.37,2.5,5.38,1.63,6.13,1.25,5.62-5.62,5.62-5.62l8.25-11.75,2.25-2.88s2.5-5.25,2.75-7.5-3.75-7.37-3.75-7.37l-2-.25-6.87-.13s-.13-8.37-3.63-12.5S283.21,364,283.21,364Z" transform="translate(-224.55 -302.27)"/><path class="cls-3" d="M302.33,344s-10.5-1.37-13.5-7.5l3.63-5.37s-4.13-2-4.75-2.88c0,0,1.12-4.87,10.37-6.37,0,0,.25-5.5,3.13-8.38a10.59,10.59,0,0,1,4.25,2.5s1.5-5.12,3-6.5l3.75.38a10.64,10.64,0,0,1,5.5,6.75s5.12-3.25,10.62-2.88a45.79,45.79,0,0,1,.88,5l6.62-.62s1.5,5.75.88,8.25-2.25,9.12-2.25,9.12l-7.75,3.13-17.5,6.75Z" transform="translate(-224.55 -302.27)"/><path class="cls-1" d="M336.33,325.33s-.87,4.75-3.12,7l-3.63.87s-1.25-5.5-4.25-7.87l-4.5,4.25s-2.12-2.5-4.75-2.63a26.43,26.43,0,0,0-4,8.63s-6.25-.13-10,1.75a37.84,37.84,0,0,0,2.75,4.37s-2.5,2.25-4.25,3.63c0,0-1.37,4.87,7.38,10.75a9.16,9.16,0,0,0-4,9.75l5.62-.5-.5,4.37a18,18,0,0,0,13.63-5.12,18.38,18.38,0,0,0,5,4.5c3.12,1.87,5,.75,5,.75l1-4.5,2.87-1.38,5-1a16.64,16.64,0,0,0-2.87-12.5,9,9,0,0,0,7-8l-5.5-2.75,1.87-5-3.87-1.62a8.32,8.32,0,0,1,2.62-1.13c2.25-.75,6.5-3.62,7.13-6.12s-.38-5.25-4.25-5.38A8.07,8.07,0,0,0,336.33,325.33Z" transform="translate(-224.55 -302.27)"/><path class="cls-1" d="M271.33,357.2s1.63-3.12.5-8.37-4.25-7.63-8-7-5.37,4.75-3.87,9.25S268.08,358.7,271.33,357.2Z" transform="translate(-224.55 -302.27)"/><path class="cls-1" d="M241.83,377.08s-4.87-.88-7.37-4.13-2.38-7.75-.25-9.75,6.87-2.62,8.62.25S246.21,374.58,241.83,377.08Z" transform="translate(-224.55 -302.27)"/><path class="cls-1" d="M282,383a5.13,5.13,0,0,0-4,4.38c-.5,3.75,2.5,5.75,5.12,5.12s4.25-3.87,3.38-6.5S283.83,382.7,282,383Z" transform="translate(-224.55 -302.27)"/><path class="cls-1" d="M240.58,396.7a8.89,8.89,0,0,0-5,2.63,31.75,31.75,0,0,1-2.75,2.87s-1.12,2,3.75,4.5l-3.87,4.13-.63.62.13,2a10.36,10.36,0,0,0,3.75,3.13,33,33,0,0,0,6.12,2.25A15.34,15.34,0,0,0,243.21,430s3.87-2.37,4.75-3.87a60.93,60.93,0,0,1,3.87,5.75,56.74,56.74,0,0,0,7-4.75,8.15,8.15,0,0,0,2.63-3.5,9.72,9.72,0,0,0,5.37,2.37,26.28,26.28,0,0,0,8.13-.25,25.08,25.08,0,0,0-1.63-5.5s5.38-3.12,5.75-4.25-.5-3.87-.5-3.87,2.75,2,3.38,3.25a20.6,20.6,0,0,0,6.5,6.12s-4.13,6.88-4.25,12c0,0,4.62.25,6.62-1,0,0,.38,6.63.25,7.13,0,0,7.75,1.5,14.38-2.5A23.4,23.4,0,0,0,317.21,442s.75-1.87,1.12-2.75,3-1.37,3-1.37l3.88-3.63.75-2.62s1.62-5.75-1.13-9.13c0,0,9.5-.87,11-5.12l-5-5.5,3.38-5.13s-1.13-2.5-6.5-4-8.5.5-8.5.5-1-6.62-5.25-9.37a12.38,12.38,0,0,0-5.13,3.37l-3.37-3.62-.63-.38a15.51,15.51,0,0,0-7.87,7.38,64.72,64.72,0,0,0-10.63-.63,54.53,54.53,0,0,0,1.88,9.13s-2.5,2.25-3.63,2.37-9.25-5-9.25-5,3.75-4.25,3.88-8.25a15.19,15.19,0,0,0-6.5-1.75s2.62-3.5,2.5-5.75a12.89,12.89,0,0,0-11.13,2.88l-.62-.63s-3-7.25-8.38-8.25L252,388.58l-3.5-.63-2.75-1.5s-1.75,1.5-2.13,1.88A50.3,50.3,0,0,0,240.58,396.7Z" transform="translate(-224.55 -302.27)"/><path class="cls-1" d="M320.08,516.7s-2.62,3.5-.5,8.75a7,7,0,0,0,8.88,4c1.25-.62,2.25-4.37-.13-8.5S321.08,515.58,320.08,516.7Z" transform="translate(-224.55 -302.27)"/><path class="cls-1" d="M232.08,479.7v-3.12s2.13-7.25,5-9.25a8.28,8.28,0,0,1,4.13,3.87s1.62-3.37,4.5-4.25a9.47,9.47,0,0,1,7,6.63s2.62-2,8.62-.88l6-2.75s.25-7.62,2-10.37,8.5-1.25,8.5-1.25,2.25,1.62,3.5,2.62,10,2.38,10,2.38,4.63,0,6,.62a5.28,5.28,0,0,1-2.12,5.13s4.5.62,6.37,2.25c0,0,.5,3.5-.25,4.62a21.92,21.92,0,0,1,5.88-1.37c1.37,0,1.62,3.62,1.62,3.62l4.88-1a18.85,18.85,0,0,1,1.25,11s4.62,1.13,8.5,6.88c0,0-2.38,3.12-2.75,3.5s1,2.62,1,2.62l1.87,4.88-6.87,2.62-3.88-1.5a108.66,108.66,0,0,0-3.25,11l-2-.87-2.25.62L301,519.2l-2-1.12A10.73,10.73,0,0,1,295.33,508s2.5-.62,3.63.13c0,0,1.12-5.75-4-8.25,0,0,3.75-1.38,5.5-3.38a14.53,14.53,0,0,1,3-2.75,6.6,6.6,0,0,0-4.5-4.37s2.87-3.38,3.25-5.13c0,0-3.75-3.75-12.13-1.25,0,0-.87-3.5-2.87-5.12a24.46,24.46,0,0,1-3.38-3.38s-3.87,2-4.37,4.75l-2.63-3.75s-3.87,2.88-5.25,10.13c0,0-5.87,0-10.12,2.87a8.87,8.87,0,0,0,3.75,4s-5,2-6.25,4.38a7.32,7.32,0,0,0,5,3.75s-3.75,4.62-9.38,4.87c0,0,1.25,4.13.13,7,0,0-7.88-1.12-9.38-5.25a18.92,18.92,0,0,1-6.25,3,9.3,9.3,0,0,1-2.75-6l-4.25,1.38Z" transform="translate(-224.55 -302.27)"/><path class="cls-1" d="M281.17,490.83a4.26,4.26,0,0,0-4,3.83,4,4,0,0,0,3.83,4.58,3.84,3.84,0,0,0,4.17-4A4.16,4.16,0,0,0,281.17,490.83Z" transform="translate(-224.55 -302.27)"/><path class="cls-1" d="M310.46,335.58a7.16,7.16,0,0,1-1.13-6.5c1.25-3.63,5.38-5.38,8.13-3.88a5.4,5.4,0,0,1,3,3.75l-4.13,1.63-3.75,6.75Z" transform="translate(-224.55 -302.27)"/><path d="M242,308.87a10.64,10.64,0,0,0-10.63,10.63V523.16A10.64,10.64,0,0,0,242,533.79H360.16a10.64,10.64,0,0,0,10.63-10.63V319.5a10.64,10.64,0,0,0-10.63-10.63Zm-9.21,214.29V319.5a9.22,9.22,0,0,1,9.21-9.21H360.16a9.22,9.22,0,0,1,9.21,9.21V523.16a9.22,9.22,0,0,1-9.21,9.21H242A9.22,9.22,0,0,1,232.79,523.16Z" transform="translate(-224.55 -302.27)"/><path d="M304.81,392.42a15.68,15.68,0,0,0-5,3.44l-3.21,3.9a25.36,25.36,0,0,0-10.61-.38l-.68.1.08.68c0,.25.71,5.75,2.1,8.74-1,.86-3.79,3.22-6.4,3.22h-.81l.11.81c0,.22.88,5.26,7.21,8.87a27.5,27.5,0,0,0-4,11.7l-.09.83.83,0a27.74,27.74,0,0,0,5.84-1c.09,1.13.23,3.09.23,4.76,0,.62,0,1.19-.06,1.67l-.05.52.48.2c.24.1,5.73,2.19,14.62-2.54,1.1,1.1,4.76,4.2,11.84,4.84l.51.05.2-.47a12.81,12.81,0,0,0,.91-4.6,10.19,10.19,0,0,0-.19-1.79,37.8,37.8,0,0,0,6.07-1L325,435l.15-.17a10.36,10.36,0,0,0,2-6.33,13.48,13.48,0,0,0-1.24-5.42c2.36-.07,7.85-.75,10.76-5.32l.32-.51-.44-.4a65,65,0,0,1-5.1-5l3.83-5.1-.48-.43a34.05,34.05,0,0,0-4.38-3.34c-1.75-1-6.27-1.74-10.77-.5a17.36,17.36,0,0,0-5.09-9.15l-.32-.3-.42.15a14.38,14.38,0,0,0-5,3.23,45.78,45.78,0,0,0-3.24-3.81l-.33-.34ZM297.39,401l3.48-4.22a13.58,13.58,0,0,1,4.05-2.86c1.43,1.53,3.33,4.05,3.35,4.07l.65.88.53-1c.89-1.6,3.45-2.82,4.45-3.25a16.09,16.09,0,0,1,4.48,8.73l.08.88.85-.28c4.5-1.5,9-.62,10.42.19a28.24,28.24,0,0,1,3.64,2.74l-3.64,4.85.25.41c.66,1.11,3.86,4.06,5.13,5.22-3.37,4.54-10.16,4.21-10.23,4.21l-1.25-.08.57,1.11a12.55,12.55,0,0,1,1.54,5.81,8.71,8.71,0,0,1-1.58,5.24,41.29,41.29,0,0,1-6.37.92l-.9.06.27.86a7.71,7.71,0,0,1,.31,2.21,11.46,11.46,0,0,1-.61,3.54c-7.42-.85-10.7-4.63-10.73-4.67l-.38-.45-.51.29c-7.18,4-12,3.21-13.43,2.84,0-.39.05-.77.05-1.22,0-2.55-.31-5.66-.32-5.82l-.1-1-.92.46a18.37,18.37,0,0,1-5.35,1.11,26.24,26.24,0,0,1,4-10.8l.49-.67-.73-.38c-5-2.59-6.5-6.06-7-7.52,3.45-.5,6.73-3.7,6.87-3.85l.38-.38-.25-.46c-1.14-2.09-1.84-6.38-2.08-8a23.14,23.14,0,0,1,9.71.54l.47.18Z" transform="translate(-224.55 -302.27)"/><path d="M254.7,384.29a28.81,28.81,0,0,0-3.45,5.32l-5.83-4.38-.41.6a23.06,23.06,0,0,0-3.11,6.22l-1,4a9.35,9.35,0,0,0-5.07,2.14,25.87,25.87,0,0,0-3.78,4l-.16.23,0,.28c0,.11.41,2.61,3.8,4.28l-4.26,4.12,1,1,5.81-5.62-1.05-.39c-2.87-1.07-3.63-2.72-3.82-3.34a25.32,25.32,0,0,1,3.36-3.46,8.12,8.12,0,0,1,4.71-1.83H242l1.31-5a20.46,20.46,0,0,1,2.48-5.17l6.23,4.67.28-1a20.76,20.76,0,0,1,3.22-5.34c5.81,1.9,7.56,8.58,7.58,8.65l.31,1.24.89-.92c3.12-3.24,8.32-3.61,10.29-3.63a17.1,17.1,0,0,1-2.85,5.36l-.93,1.15h1.48a23.25,23.25,0,0,1,6.16.94c-1.53,7.64-6,8.95-6.17,9l-1.58.42,1.38.87a21,21,0,0,1,6.49,7.1,29.71,29.71,0,0,1-5.61,3.84l-.65.34.36.64a17.39,17.39,0,0,1,1.63,4.88,27.87,27.87,0,0,1-5,.22c-5-.29-6.88-2.92-7-3l-.72-1-.51,1.13a17.26,17.26,0,0,1-2.56,3.66c-1.51,1.77-5.11,3.88-6.52,4.67-1.05-1.76-3.41-5.12-3.52-5.28l-.69-1-.53,1.06c-.34.69-2.32,2-3.92,3a11.26,11.26,0,0,1-1.07-3.92,10.09,10.09,0,0,1-.06-1.09,14.66,14.66,0,0,1,.85-4.74l.27-.7-5.41-1.74c-2.13-.61-5.34-3.64-5.37-3.67l-1,1c.15.14,3.49,3.3,6,4l4,1.28a15.62,15.62,0,0,0-.71,4.53,10.59,10.59,0,0,0,.07,1.25,11.81,11.81,0,0,0,1.62,5.17l.37.52.56-.31a24.58,24.58,0,0,0,4.44-3.11c.92,1.33,2.77,4,3.25,5l.32.65.64-.34c.22-.12,5.48-2.92,7.54-5.33a22.61,22.61,0,0,0,2.28-3.1,11.28,11.28,0,0,0,7.31,2.85,30.75,30.75,0,0,0,6-.34l.68-.12-.1-.68a21.3,21.3,0,0,0-1.59-5.44,25.85,25.85,0,0,0,5.75-4.15l.33-.36-.22-.44a23.62,23.62,0,0,0-6.22-7.36c1.79-1,5-3.56,6.12-10.2l.1-.59-.57-.2a24.88,24.88,0,0,0-5.87-1.16,14.18,14.18,0,0,0,2.51-5.76l.08-.73-.74,0c-.3,0-6.95-.38-11.36,3.3-.78-2.2-3.12-7.25-8.66-8.78l-.45-.12Z" transform="translate(-224.55 -302.27)"/><path d="M283.32,363.38c-.11,0-2.61.4-6.39,4a12.78,12.78,0,0,0-3.73,7.16,7.94,7.94,0,0,0-7-1.17c-3.48.87-7.65,5-7.82,5.19l-.76.76,1,.4a37.27,37.27,0,0,1,3.79,2.55,14.28,14.28,0,0,0-3.84,4.51l1.3.55s.85-1.9,4.13-4.56l.71-.57-.74-.55c-.5-.37-2.58-1.89-3.9-2.73,1.28-1.17,4.15-3.59,6.49-4.18,2.77-.69,5.11-.06,6.61,1.77l1.25,1.52v-2a11.73,11.73,0,0,1,3.45-7.66,14.38,14.38,0,0,1,5.3-3.56,9.73,9.73,0,0,1,2.66,6.72v1.52l6.83-5.75a24.32,24.32,0,0,1,2.53,10.29c0,.3,0,.6,0,.9l0,.72,8.59.32c-.57,1.56-1.62,4-2.65,5l-1.11,1,1.47.24a32.23,32.23,0,0,1,4.36,1,4.69,4.69,0,0,0,1.7.32c-.41,1.89-1.25,5.05-2.3,6.21l1,1c1.76-1.93,2.74-7.25,2.84-7.85l.21-1.15-1.12.35a3.09,3.09,0,0,1-1.87-.16,23.34,23.34,0,0,0-3.43-.82,25,25,0,0,0,2.52-5.46l.29-.89-9.07-.34c0-.1,0-.19,0-.28a25.57,25.57,0,0,0-3.12-11.74l-.43-.72-5.92,5a10.86,10.86,0,0,0-3.31-6.61l-.24-.21Z" transform="translate(-224.55 -302.27)"/><path d="M324.91,324.41l-4,4.47a9.59,9.59,0,0,0-4.87-3l-.45-.07-.25.38a36.86,36.86,0,0,0-3.61,8.67,26.54,26.54,0,0,0-10.08,1.9L301,337l.23.62a14.82,14.82,0,0,0,2.82,4,14.4,14.4,0,0,0-4.38,3.45l-.18.24,0,.29c.83,6.07,5.51,9.45,7.57,10.67-3.47,2.7-4.23,5.6-4.23,7.54a6.58,6.58,0,0,0,.37,2.3l.25.59.61-.18a26.63,26.63,0,0,1,4.64-.59c-.16,1.14-.65,4.54-.65,4.54l.73.08c8.13.85,12.35-3.47,13.68-5.16l3.09,2.82a10.85,10.85,0,0,0,7.36,2.34l.6-.05.38-4.07.42-3c2.11.06,6.79.32,6.84.33l.5,0,.19-.46a9.55,9.55,0,0,0,.48-3.46,22,22,0,0,0-.26-3.25,13.25,13.25,0,0,0-2.16-5.71,11.65,11.65,0,0,0,3.25-2c2.33-2,3.2-6.22,3.24-6.4l.14-.73-.74-.11a34.67,34.67,0,0,1-5.06-2.23c.79-1.29,1.89-3.61,2.27-4.44l.23-.5-.42-.34c-.09-.07-2.05-1.64-6.37-2.16a16.66,16.66,0,0,0-6.59.47,22.91,22.91,0,0,0-4-8.05l-.52-.64Zm-3.46,6,3.91-4.35a21.29,21.29,0,0,1,3.36,7.52l.17.84.79-.32a14.71,14.71,0,0,1,6.65-.62,13.5,13.5,0,0,1,5.18,1.55,30.42,30.42,0,0,1-2.26,4.24l-.69.69.86.44a56.58,56.58,0,0,0,5.48,2.53c-.31,1.18-1.13,3.72-2.61,5a9,9,0,0,1-3.67,2l-1.37.26,1,1s1.83,1.76,2.45,5.75a20.35,20.35,0,0,1,.24,3,10.58,10.58,0,0,1-.24,2.46c-1.48-.08-5.58-.3-7-.3h-.62l-.58,4.28s-.2,2-.28,2.89a9.06,9.06,0,0,1-5.72-2l-4.26-3.87-.48.7c-.15.24-3.71,5.75-12.08,5.21.15-1.07.68-4.75.68-4.75l-.86,0a41.51,41.51,0,0,0-5.14.52,5.34,5.34,0,0,1-.13-1.2c0-1.73.73-4.47,4.53-7l1-.7-1.13-.53c-.07,0-6.61-3.19-7.7-9.83a13.21,13.21,0,0,1,4.51-3.21l1-.4-.75-.75a20.37,20.37,0,0,1-2.84-3.62,25.92,25.92,0,0,1,9.32-1.5h.56l.14-.54a40.41,40.41,0,0,1,3.32-8.35,9.79,9.79,0,0,1,4.14,3l.52.59Z" transform="translate(-224.55 -302.27)"/><path d="M304.8,314.64a22.81,22.81,0,0,0-3.22-2l-.51-.27-.37.44a14.5,14.5,0,0,0-3.15,8.38c-7.61,1.38-10.62,6.33-10.75,6.55l-.31.55.5.37c1,.78,3.36,2.1,4.47,2.72a41.68,41.68,0,0,1-3.42,4.77l-.34.4.3.44c4.64,6.88,13.5,7.46,13.88,7.48L302,343c-.09,0-8.13-.58-12.46-6.47a29.9,29.9,0,0,0,3.57-5.23l.24-.58-.55-.3s-2.81-1.54-4.35-2.55a15,15,0,0,1,9.94-5.47l.63-.09,0-.63v-.08a13.49,13.49,0,0,1,2.5-7.47,12.59,12.59,0,0,1,3,2.13l.8,1.19.46-1.35c.62-1.78,2-4.9,3.07-5.65l-.81-1.16C306.66,310.28,305.41,313.08,304.8,314.64Z" transform="translate(-224.55 -302.27)"/><path d="M311.79,310.72a10.24,10.24,0,0,1,5.11,6l.24.95.83-.53a22.09,22.09,0,0,1,10-2.85,34.81,34.81,0,0,1,.54,4.76v.79l.79-.09c.81-.09,4.28-.52,6.05-1a21.1,21.1,0,0,1,.34,3.78,14.18,14.18,0,0,1-3.17,9.51l1.06.94c5.36-6.05,3.09-14.94,3-15.32l-.22-.84-.78.39a36.93,36.93,0,0,1-5.67,1,47.34,47.34,0,0,0-.65-4.84l-.11-.57h-.59A22.88,22.88,0,0,0,318,315.55a11.84,11.84,0,0,0-5.58-6.12Z" transform="translate(-224.55 -302.27)"/><path d="M342.43,320.05a9.86,9.86,0,0,0-6.67,5.42l1.31.55a8.54,8.54,0,0,1,5.67-4.58c1.62-.36,2.83-.19,3.6.51a3.68,3.68,0,0,1,.87,3.2c-.27,2.07-4.93,6.57-9.67,6.89l.09,1.41c5.32-.35,10.62-5.31,11-8.11a5,5,0,0,0-1.32-4.43C346.52,320.2,345.05,319.47,342.43,320.05Z" transform="translate(-224.55 -302.27)"/><path d="M262.9,341.23a5.46,5.46,0,0,0-3.65,3.5,9.94,9.94,0,0,0,1.24,8.73c3.19,5,10.18,4.51,10.48,4.49H271l.07,0c1.91-.54,2.44-5.21,1.16-10.19a9.23,9.23,0,0,0-4-5.91A6.92,6.92,0,0,0,262.9,341.23Zm-1.22,11.46a8.54,8.54,0,0,1-1.11-7.45,4.14,4.14,0,0,1,2.7-2.65,5.56,5.56,0,0,1,4.32.46,7.85,7.85,0,0,1,3.31,5,19.32,19.32,0,0,1,.66,4.8c0,2.22-.51,3.48-.83,3.65C269.82,356.58,264.2,356.61,261.68,352.69Z" transform="translate(-224.55 -302.27)"/><path d="M270.5,357.82c.07,0,6.32,4.58,7.57,8.95l1.36-.39c-1.38-4.84-7.83-9.52-8.1-9.71Z" transform="translate(-224.55 -302.27)"/><path d="M237.54,360.7a6.32,6.32,0,0,0-4.42,2.85,8,8,0,0,0-.88,7.07c1.77,5.68,9.07,7.1,9.38,7.15l.28.06.24-.16c.16-.11,3.84-2.64,3.32-9.15C245,362.39,240.88,360.48,237.54,360.7Zm-3.95,9.5a7.79,7.79,0,0,1-.38-2.34,6.11,6.11,0,0,1,1.07-3.5,4.88,4.88,0,0,1,3.35-2.24c1-.07,5.88-.06,6.41,6.51a11.36,11.36,0,0,1,.05,1.14c0,4.06-1.87,6-2.52,6.54C240.25,376,234.92,374.46,233.59,370.2Z" transform="translate(-224.55 -302.27)"/><rect x="242.29" y="376.93" width="1.42" height="11.12" transform="translate(-304.33 -237.84) rotate(-12.99)"/><path d="M283.57,473.79a12.66,12.66,0,0,0-4.3,4.12,36.26,36.26,0,0,0-2.32-3.13l-.52-.6-.54.59a22.22,22.22,0,0,0-4.7,10.05A16.67,16.67,0,0,0,260.68,488l-.52.36.3.55a11.55,11.55,0,0,0,3.29,3.57c-1.68.81-4.57,2.38-5.6,4.06l-.16.25.07.29c0,.15,1,3.54,8.19,4.57a51.42,51.42,0,0,0-.77,9c0,.8,0,1.64.06,2.49l0,.76.75-.09a14.35,14.35,0,0,0,5.85-2.12,6.72,6.72,0,0,0,2.31,4.32,2.16,2.16,0,0,0,1.85.07,9.87,9.87,0,0,0,5.56-4.54,10.63,10.63,0,0,0,5.07,2.43l5.36,1,.12-.73a48.55,48.55,0,0,0,.38-4.93c0-.07,0-.13,0-.2,2.17-.3,5.06-.52,5.78-.16l.83.41.18-.91a8.89,8.89,0,0,0,.11-1.45,8.18,8.18,0,0,0-3.28-6.85,12.76,12.76,0,0,0,4.5-2.86l3.28-3.46-.14-.43a9.26,9.26,0,0,0-4.17-4.27c1-1.09,2.76-3.19,3-4.69L303,484l-.33-.26c-.2-.16-4.91-3.7-12.36-1.18a10.89,10.89,0,0,0-2.73-5.25L284,473.51Zm-3.46,5.78c.46-2,2.72-3.61,3.69-4.25l2.77,2.91a9.22,9.22,0,0,1,2.47,5.22l.06,1,.91-.35c6-2.36,10.11-.35,11.38.44a16.07,16.07,0,0,1-3.14,4.23l-.72.73.93.42a8.61,8.61,0,0,1,4.1,3.56l-2.66,2.81a13.33,13.33,0,0,1-5.34,3l-1.85.51,1.74.81a6.63,6.63,0,0,1,3.87,6.3c0,.21,0,.35,0,.52a28.4,28.4,0,0,0-6.32.34l-.67.1.07.67c0,.22,0,.48,0,.77,0,1.26-.17,3-.28,4l-3.94-.71a9.6,9.6,0,0,1-4.92-2.61l-.75-.8-.42,1a7.88,7.88,0,0,1-5.81,4.65c-1.81-1.42-1.83-4.5-1.83-4.54v-1.81l-1.23,1.32c-1.44,1.56-4,2.23-5.29,2.48,0-.53,0-1.06,0-1.57a49.3,49.3,0,0,1,.88-9.44l.16-.77-.78-.09c-5.59-.62-7.18-2.64-7.59-3.36,1.22-1.55,4.65-3.23,5.95-3.78l1.38-.58-1.32-.7a10.11,10.11,0,0,1-3.49-3.13,15.4,15.4,0,0,1,9.55-2.54l.7.11.11-.7a21.28,21.28,0,0,1,4-9.32c1.08,1.39,2.39,3.4,2.4,3.42l.91,1.4Z" transform="translate(-224.55 -302.27)"/><path d="M245.46,466.43a16.72,16.72,0,0,0-4.25,3.74,13.52,13.52,0,0,0-3.94-3.54l-.5-.29-.39.44c-3.6,4.11-4.62,11.39-4.67,11.7l1.41.19c0-.07,1-6.6,4-10.47a9.54,9.54,0,0,1,3.34,3.49l.46,1.08.74-.91a19.76,19.76,0,0,1,4.24-4,9.45,9.45,0,0,1,6.21,6l.29.78.72-.4c.21-.12,4.91-2.59,11.82.78a13.34,13.34,0,0,1-2.7,4.64l-.5.59.63.45a26.45,26.45,0,0,1,5.18,5.17l1.13-.84a28.18,28.18,0,0,0-4.92-5.06,13.14,13.14,0,0,0,2.72-5.25l.07-.5-.44-.23c-6.47-3.38-11.29-2-13-1.3a10.91,10.91,0,0,0-7.21-6.27l-.23,0Z" transform="translate(-224.55 -302.27)"/><path d="M254.21,504.7l-.92.06.29.87a13.59,13.59,0,0,1,.72,4.22,9.22,9.22,0,0,1-.21,2c-6.66-1.34-8-4.88-8-5l-.34-1.05-.82.75a17,17,0,0,1-5.84,3,34.44,34.44,0,0,1-2-5.35l-.2-.7-5,1.55.42,1.35,3.65-1.12a26.94,26.94,0,0,0,2.21,5.49l.28.44.5-.14a20.78,20.78,0,0,0,6.24-2.91c.85,1.45,3.23,4.23,9.29,5.26l.56.1.22-.53a8.91,8.91,0,0,0,.48-3.15,15.11,15.11,0,0,0-.59-3.84,18.46,18.46,0,0,0,9.6-4.59l-1-1A17.22,17.22,0,0,1,254.21,504.7Z" transform="translate(-224.55 -302.27)"/><path d="M276.21,458a17.4,17.4,0,0,1-2.32,3.46,36.51,36.51,0,0,0-4.74-2.26l-.66-.24-.24.67a31.42,31.42,0,0,0-1.55,9.73,38,38,0,0,0-6.14,2.9l.72,1.22a35.35,35.35,0,0,1,6.34-2.93l.52-.15v-.55a2.22,2.22,0,0,1,0-.36,31.59,31.59,0,0,1,1.24-8.68,34.45,34.45,0,0,1,4.36,2.17l.53.31.38-.47a26.78,26.78,0,0,0,2.63-3.74,13.25,13.25,0,0,1,5,7.16l.27.88.78-.48c.07,0,6.95-4.2,13.55-2.07a5.45,5.45,0,0,1-2.33,4.06l-1.44,1,1.74.26a23.68,23.68,0,0,1,6.22,1.67c-.08,1.44-.59,6.87-4.09,10.11l1,1c4.51-4.16,4.56-11.22,4.56-11.52v-.32l-.24-.21c-1-.9-4-1.57-5.75-1.91a7.19,7.19,0,0,0,1.82-4.62V464l0-.46-.44-.17c-6.19-2.3-12.46.53-14.54,1.65-2-5.57-5.89-7.54-6.07-7.62l-.84-.41Z" transform="translate(-224.55 -302.27)"/><path d="M300.1,476.56l1,1s2.77-2.55,6.05-2.33a9.59,9.59,0,0,1,.94,2.91c0,.05,0,.1,0,.14l-.15,1,5.62-1.27a15.74,15.74,0,0,1,1.1,6,20.22,20.22,0,0,1-.4,3.89l-.11.58.54.22c.06,0,5.32,2.2,7.76,6.5a12.83,12.83,0,0,1-2.72,3.08l-.48.32s1.59,4,1.88,4.76a12.91,12.91,0,0,1-8.53,3.14h-.47l-.17.44a39.87,39.87,0,0,0-1.7,5.62l-1,4.72c-1.81-1-4.18-2.46-4.74-3.31l-.46-.68-4.67,4.16a9.69,9.69,0,0,1-3.52-7.7,12.59,12.59,0,0,1,.09-1.47l-1.4-.17A11.19,11.19,0,0,0,299,519l.45.28,4.36-3.88a29.68,29.68,0,0,0,5.57,3.63l.84.43,1.35-6.59a38.1,38.1,0,0,1,1.48-5c6.22-.34,9.24-3.72,9.36-3.87l.28-.33s-1.49-3.78-1.79-4.57a17.62,17.62,0,0,0,2.91-3.52l.22-.34-.19-.36c-2.19-4.24-6.69-6.58-8.18-7.27A22.33,22.33,0,0,0,316,484a15.36,15.36,0,0,0-1.51-7.1l-.25-.46-4.9,1.1a14.32,14.32,0,0,0-1.16-3.28l-.17-.34-.38-.05C303.55,473.34,300.24,476.43,300.1,476.56Z" transform="translate(-224.55 -302.27)"/><path d="M320.48,515.64a1.5,1.5,0,0,0-1.38.82v0a13.29,13.29,0,0,0,0,9.37,7.66,7.66,0,0,0,4.16,4.37,6.3,6.3,0,0,0,4.77,0,3.75,3.75,0,0,0,2.08-2.48c.64-2.11,0-4.87-1.6-7.39C326.36,517.06,322.39,515.47,320.48,515.64Zm6.84,5.49c1.4,2.14,1.95,4.52,1.43,6.21a2.42,2.42,0,0,1-1.28,1.59,4.88,4.88,0,0,1-3.68,0,6.35,6.35,0,0,1-3.39-3.6,10.16,10.16,0,0,1-.75-3.93,13,13,0,0,1,.72-4.27C321.07,516.74,325.15,517.8,327.32,521.13Z" transform="translate(-224.55 -302.27)"/><path d="M312.6,507.7c2,4.58,7,9.2,7.17,9.39l1-1c-.05,0-4.92-4.62-6.83-8.94Z" transform="translate(-224.55 -302.27)"/><path d="M316.67,339.57a.57.57,0,0,0-.27.75l1.5,3.17a.57.57,0,0,0,1-.49l-1.5-3.16A.56.56,0,0,0,316.67,339.57Z" transform="translate(-224.55 -302.27)"/><path d="M313.58,343.32a.56.56,0,0,0,.25.76l3,1.5a.57.57,0,1,0,.51-1l-3-1.5A.56.56,0,0,0,313.58,343.32Z" transform="translate(-224.55 -302.27)"/><path d="M313.58,346.84a.57.57,0,0,0,0,1.14h3a.57.57,0,1,0,0-1.14Z" transform="translate(-224.55 -302.27)"/><path d="M317.08,349.37l-2.67.83a.58.58,0,0,0-.37.71.57.57,0,0,0,.71.38l2.67-.84a.57.57,0,1,0-.34-1.08Z" transform="translate(-224.55 -302.27)"/><path d="M318.63,351.07l-2.16,2.83a.56.56,0,0,0,.1.79.57.57,0,0,0,.8-.1l2.16-2.84a.56.56,0,0,0-.1-.79A.57.57,0,0,0,318.63,351.07Z" transform="translate(-224.55 -302.27)"/><path d="M320.35,352.21l-.17,3.17a.57.57,0,1,0,1.14.06l.16-3.17a.55.55,0,0,0-.53-.59A.56.56,0,0,0,320.35,352.21Z" transform="translate(-224.55 -302.27)"/><path d="M322.18,351.85a.56.56,0,0,0-.49.63l.33,2.67a.56.56,0,0,0,.63.49.58.58,0,0,0,.5-.63l-.34-2.67A.56.56,0,0,0,322.18,351.85Z" transform="translate(-224.55 -302.27)"/><path d="M323.19,351.39a.57.57,0,0,0-.29.75l1.33,3a.57.57,0,0,0,1-.46l-1.34-3A.56.56,0,0,0,323.19,351.39Z" transform="translate(-224.55 -302.27)"/><path d="M324.77,351.61a.56.56,0,0,0,.18.78l3.16,2a.57.57,0,0,0,.79-.18.58.58,0,0,0-.18-.78l-3.17-2A.56.56,0,0,0,324.77,351.61Z" transform="translate(-224.55 -302.27)"/><path d="M325.7,349.93a.57.57,0,0,0,.4.69l3,.84a.57.57,0,0,0,.3-1.1l-3-.83A.57.57,0,0,0,325.7,349.93Z" transform="translate(-224.55 -302.27)"/><path d="M326.86,347.45a.57.57,0,0,0,.43.68l3,.67a.57.57,0,1,0,.25-1.11l-3-.67A.58.58,0,0,0,326.86,347.45Z" transform="translate(-224.55 -302.27)"/><path d="M327.75,345.18a.57.57,0,1,0,0,1.13h3.33a.57.57,0,1,0,0-1.13Z" transform="translate(-224.55 -302.27)"/><path d="M328.8,342.42l-2.33,1.33a.57.57,0,0,0,.56,1l2.33-1.34a.56.56,0,0,0,.22-.77A.57.57,0,0,0,328.8,342.42Z" transform="translate(-224.55 -302.27)"/><path d="M327.31,339.39l-2.17,2.66a.57.57,0,0,0,.09.8.56.56,0,0,0,.79-.08l2.17-2.67a.57.57,0,1,0-.88-.71Z" transform="translate(-224.55 -302.27)"/><path d="M322.87,338.61l-.67,2.66a.57.57,0,1,0,1.1.28l.67-2.67a.58.58,0,0,0-.42-.69A.56.56,0,0,0,322.87,338.61Z" transform="translate(-224.55 -302.27)"/><path d="M319.51,338a.56.56,0,0,0-.49.63l.5,3.67a.57.57,0,0,0,.64.49.56.56,0,0,0,.48-.64l-.5-3.67A.55.55,0,0,0,319.51,338Z" transform="translate(-224.55 -302.27)"/><path d="M303,332.19a.57.57,0,0,0,.51.62l3.5.33a.57.57,0,1,0,.11-1.13l-3.5-.33A.57.57,0,0,0,303,332.19Z" transform="translate(-224.55 -302.27)"/><path d="M303.21,329.75a.57.57,0,0,0,.38.71l3.5,1a.57.57,0,0,0,.7-.39.56.56,0,0,0-.38-.7l-3.5-1A.55.55,0,0,0,303.21,329.75Z" transform="translate(-224.55 -302.27)"/><path d="M304.57,326.35a.57.57,0,0,0,.28.75l3,1.33a.57.57,0,0,0,.46-1l-3-1.33A.55.55,0,0,0,304.57,326.35Z" transform="translate(-224.55 -302.27)"/><path d="M307.57,322.63a.57.57,0,0,0-.1.8l1.83,2.33a.57.57,0,1,0,.9-.7l-1.84-2.33A.56.56,0,0,0,307.57,322.63Z" transform="translate(-224.55 -302.27)"/><path d="M310.89,319.84a.57.57,0,0,0-.54.6l.17,3.17a.57.57,0,0,0,1.13-.06l-.17-3.17A.57.57,0,0,0,310.89,319.84Z" transform="translate(-224.55 -302.27)"/><path d="M314.19,320.34l-.34,2.5A.57.57,0,0,0,315,323l.33-2.5a.57.57,0,1,0-1.12-.15Z" transform="translate(-224.55 -302.27)"/><path d="M318,320.75l-1.66,2.33a.57.57,0,0,0,.13.79.56.56,0,0,0,.79-.13l1.67-2.33a.57.57,0,0,0-.93-.66Z" transform="translate(-224.55 -302.27)"/><path d="M320.79,322.09l-2.17,1.34a.56.56,0,1,0,.59,1l2.17-1.33a.57.57,0,1,0-.59-1Z" transform="translate(-224.55 -302.27)"/><path d="M323.89,324.68l-3.34.16a.57.57,0,0,0,.06,1.14l3.33-.17a.56.56,0,0,0,.54-.59A.56.56,0,0,0,323.89,324.68Z" transform="translate(-224.55 -302.27)"/><path d="M252.25,396.2a.57.57,0,0,0-.38.71l1,3.33a.57.57,0,0,0,1.09-.33l-1-3.33A.57.57,0,0,0,252.25,396.2Z" transform="translate(-224.55 -302.27)"/><path d="M248.1,399.44a.57.57,0,0,0,.18.78l2.67,1.67a.56.56,0,0,0,.78-.18.57.57,0,0,0-.18-.78l-2.67-1.67A.58.58,0,0,0,248.1,399.44Z" transform="translate(-224.55 -302.27)"/><path d="M246.75,402.14a.57.57,0,0,0,.22.77l3,1.66a.57.57,0,0,0,.78-.22.57.57,0,0,0-.23-.77l-3-1.66A.56.56,0,0,0,246.75,402.14Z" transform="translate(-224.55 -302.27)"/><path d="M248.72,405.68l-3.17.16a.57.57,0,0,0,.06,1.14l3.17-.17a.58.58,0,0,0,.54-.6A.57.57,0,0,0,248.72,405.68Z" transform="translate(-224.55 -302.27)"/><path d="M248.83,408.4l-3,1.5a.57.57,0,0,0,.51,1l3-1.5a.57.57,0,0,0-.51-1Z" transform="translate(-224.55 -302.27)"/><path d="M250.87,410.32l-2.83,2.5a.57.57,0,1,0,.75.85l2.83-2.5a.57.57,0,0,0-.75-.85Z" transform="translate(-224.55 -302.27)"/><path d="M252.7,411.93l-1,3.66a.57.57,0,0,0,1.1.3l1-3.66a.57.57,0,0,0-.4-.7A.58.58,0,0,0,252.7,411.93Z" transform="translate(-224.55 -302.27)"/><path d="M255.35,412.35a.57.57,0,0,0-.5.63l.5,4a.57.57,0,0,0,.64.49.56.56,0,0,0,.49-.63l-.5-4A.56.56,0,0,0,255.35,412.35Z" transform="translate(-224.55 -302.27)"/><path d="M258.27,412.93a.58.58,0,0,0-.16.79l1.83,2.83a.57.57,0,0,0,.78.17.56.56,0,0,0,.17-.78l-1.83-2.84A.58.58,0,0,0,258.27,412.93Z" transform="translate(-224.55 -302.27)"/><path d="M259.77,410.77a.57.57,0,0,0,.17.78l2.34,1.5a.56.56,0,0,0,.78-.17.57.57,0,0,0-.17-.78l-2.33-1.5A.58.58,0,0,0,259.77,410.77Z" transform="translate(-224.55 -302.27)"/><path d="M261.52,408a.57.57,0,0,0,.47.65l3.17.5a.57.57,0,0,0,.65-.47.57.57,0,0,0-.47-.65l-3.17-.5A.57.57,0,0,0,261.52,408Z" transform="translate(-224.55 -302.27)"/><path d="M264.85,403.23l-4,1.83a.57.57,0,1,0,.47,1l4-1.83a.57.57,0,0,0,.28-.75A.56.56,0,0,0,264.85,403.23Z" transform="translate(-224.55 -302.27)"/><path d="M263.45,399.93,260,402.1a.56.56,0,0,0-.18.78.57.57,0,0,0,.78.18l3.5-2.17a.57.57,0,1,0-.6-1Z" transform="translate(-224.55 -302.27)"/><path d="M260.83,397,258,400.2a.58.58,0,0,0,.05.8.57.57,0,0,0,.8,0l2.83-3.17a.57.57,0,1,0-.84-.76Z" transform="translate(-224.55 -302.27)"/><path d="M256,395.37l-.34,4.16a.57.57,0,0,0,.52.61.56.56,0,0,0,.61-.52l.34-4.16a.56.56,0,0,0-.52-.61A.56.56,0,0,0,256,395.37Z" transform="translate(-224.55 -302.27)"/><path d="M272.72,385.2a.58.58,0,0,0,.32.74l3.33,1.33a.56.56,0,0,0,.74-.32.56.56,0,0,0-.32-.73l-3.33-1.34A.58.58,0,0,0,272.72,385.2Z" transform="translate(-224.55 -302.27)"/><path d="M275.75,380.79a.56.56,0,0,0-.12.79l1.83,2.5a.57.57,0,1,0,.91-.67l-1.83-2.5A.56.56,0,0,0,275.75,380.79Z" transform="translate(-224.55 -302.27)"/><path d="M279.31,378.19a.56.56,0,0,0-.45.66l.67,3.5a.56.56,0,0,0,1.11-.21l-.67-3.5A.56.56,0,0,0,279.31,378.19Z" transform="translate(-224.55 -302.27)"/><path d="M282.52,378.35l-.33,3.17a.56.56,0,0,0,.5.62.56.56,0,0,0,.62-.5l.34-3.17a.57.57,0,0,0-.51-.62A.56.56,0,0,0,282.52,378.35Z" transform="translate(-224.55 -302.27)"/><path d="M287.72,378.81l-3.34,2.84a.55.55,0,0,0-.06.79.57.57,0,0,0,.8.07l3.33-2.83a.57.57,0,1,0-.73-.87Z" transform="translate(-224.55 -302.27)"/><path d="M290.84,383.68l-3.5.5a.57.57,0,0,0,.16,1.12l3.5-.5a.57.57,0,0,0-.16-1.12Z" transform="translate(-224.55 -302.27)"/><path d="M287,387.88a.57.57,0,0,0,.53.6l3.17.16a.57.57,0,0,0,.6-.53.58.58,0,0,0-.54-.6l-3.17-.17A.57.57,0,0,0,287,387.88Z" transform="translate(-224.55 -302.27)"/><path d="M286.9,390.51a.57.57,0,0,0,.28.75l3.34,1.5a.57.57,0,0,0,.75-.28.56.56,0,0,0-.29-.75l-3.33-1.5A.57.57,0,0,0,286.9,390.51Z" transform="translate(-224.55 -302.27)"/><path d="M284.53,392.33a.56.56,0,0,0,0,.8l3.16,3.34a.57.57,0,0,0,.8,0,.56.56,0,0,0,0-.8l-3.16-3.34A.58.58,0,0,0,284.53,392.33Z" transform="translate(-224.55 -302.27)"/><path d="M282.82,393.91a.56.56,0,0,0-.24.76l1.67,3.17a.57.57,0,1,0,1-.53l-1.67-3.16A.55.55,0,0,0,282.82,393.91Z" transform="translate(-224.55 -302.27)"/><path d="M280.35,394.17l-.66,5a.57.57,0,1,0,1.12.15l.67-5a.57.57,0,0,0-1.13-.15Z" transform="translate(-224.55 -302.27)"/><path d="M277.85,393.34l-3,3a.57.57,0,0,0,0,.8.55.55,0,0,0,.8,0l3-3a.57.57,0,0,0-.8-.8Z" transform="translate(-224.55 -302.27)"/><path d="M271.55,388.39a.55.55,0,0,0,.35.72l4.33,1.5a.55.55,0,0,0,.72-.35.57.57,0,0,0-.35-.72l-4.33-1.5A.57.57,0,0,0,271.55,388.39Z" transform="translate(-224.55 -302.27)"/><path d="M295.93,410.46a.56.56,0,0,0,.2.77l3.17,1.84a.57.57,0,0,0,.77-.21.56.56,0,0,0-.2-.77l-3.17-1.84A.57.57,0,0,0,295.93,410.46Z" transform="translate(-224.55 -302.27)"/><path d="M299.62,407.42a.58.58,0,0,0-.19.78l1.5,2.5a.57.57,0,1,0,1-.58l-1.5-2.5A.57.57,0,0,0,299.62,407.42Z" transform="translate(-224.55 -302.27)"/><path d="M303.64,405.35a.58.58,0,0,0-.45.67l.67,3.33a.57.57,0,1,0,1.11-.22l-.66-3.33A.58.58,0,0,0,303.64,405.35Z" transform="translate(-224.55 -302.27)"/><path d="M307.85,405.69l-.33,3.33a.57.57,0,1,0,1.13.11l.33-3.33a.57.57,0,0,0-1.13-.11Z" transform="translate(-224.55 -302.27)"/><path d="M313.26,407.28l-3.34,2.33a.57.57,0,0,0-.13.79.56.56,0,0,0,.79.14l3.33-2.33a.57.57,0,0,0,.14-.79A.57.57,0,0,0,313.26,407.28Z" transform="translate(-224.55 -302.27)"/><path d="M316.18,411l-3.84.5a.56.56,0,0,0-.49.63.57.57,0,0,0,.64.49l3.83-.5a.57.57,0,0,0,.49-.64A.55.55,0,0,0,316.18,411Z" transform="translate(-224.55 -302.27)"/><path d="M313.08,414.34a.57.57,0,0,0,0,1.14h3.17a.57.57,0,1,0,0-1.14Z" transform="translate(-224.55 -302.27)"/><path d="M312.19,418.17a.57.57,0,0,0,.49.64l4,.5a.57.57,0,0,0,.14-1.13l-4-.5A.56.56,0,0,0,312.19,418.17Z" transform="translate(-224.55 -302.27)"/><path d="M310.55,420.56a.56.56,0,0,0,.35.72l3.33,1.17a.57.57,0,0,0,.72-.35.56.56,0,0,0-.35-.72l-3.33-1.17A.56.56,0,0,0,310.55,420.56Z" transform="translate(-224.55 -302.27)"/><path d="M308.47,421.58a.57.57,0,0,0-.21.78l2,3.5a.57.57,0,0,0,.77.21.56.56,0,0,0,.21-.77l-2-3.5A.56.56,0,0,0,308.47,421.58Z" transform="translate(-224.55 -302.27)"/><path d="M305.35,422.86,305,426.7a.57.57,0,1,0,1.13.09l.33-3.83a.57.57,0,0,0-1.13-.1Z" transform="translate(-224.55 -302.27)"/><path d="M302.42,422l-1.5,2.66a.57.57,0,0,0,.22.77.56.56,0,0,0,.77-.21l1.5-2.67a.57.57,0,1,0-1-.55Z" transform="translate(-224.55 -302.27)"/><path d="M300.47,420.42l-3,1.66a.57.57,0,0,0-.22.77.56.56,0,0,0,.77.22l3-1.66a.57.57,0,0,0,.22-.77A.57.57,0,0,0,300.47,420.42Z" transform="translate(-224.55 -302.27)"/><path d="M296.42,418.34a.57.57,0,0,0,0,1.14h3.5a.57.57,0,0,0,0-1.14Z" transform="translate(-224.55 -302.27)"/><path d="M295.18,415.39a.58.58,0,0,0,.55.59l3.83.16a.56.56,0,0,0,.59-.54.57.57,0,0,0-.54-.59l-3.84-.17A.58.58,0,0,0,295.18,415.39Z" transform="translate(-224.55 -302.27)"/><path d="M271.87,491.91a.57.57,0,0,0,.38.71l3.34,1a.56.56,0,0,0,.7-.38.57.57,0,0,0-.38-.71l-3.33-1A.57.57,0,0,0,271.87,491.91Z" transform="translate(-224.55 -302.27)"/><path d="M275.89,495.18l-3,.16a.57.57,0,0,0-.54.6.58.58,0,0,0,.6.54l3-.17a.56.56,0,0,0,.53-.6A.55.55,0,0,0,275.89,495.18Z" transform="translate(-224.55 -302.27)"/><path d="M276,497.74l-2.5,1.34a.56.56,0,0,0-.23.76.58.58,0,0,0,.77.24l2.5-1.34a.56.56,0,0,0,.23-.76A.58.58,0,0,0,276,497.74Z" transform="translate(-224.55 -302.27)"/><path d="M277.22,499.37l-1,2.5a.57.57,0,0,0,1.06.42l1-2.5a.58.58,0,0,0-.32-.74A.57.57,0,0,0,277.22,499.37Z" transform="translate(-224.55 -302.27)"/><path d="M279.52,500.74v3.17a.57.57,0,1,0,1.13,0v-3.17a.57.57,0,0,0-1.13,0Z" transform="translate(-224.55 -302.27)"/><path d="M282.21,500.38a.57.57,0,0,0-.32.73l1.33,3.5a.57.57,0,0,0,1.06-.4l-1.33-3.5A.58.58,0,0,0,282.21,500.38Z" transform="translate(-224.55 -302.27)"/><path d="M283.94,499.94a.56.56,0,0,0,.17.78l3.33,2.17a.57.57,0,0,0,.62-1l-3.33-2.16A.57.57,0,0,0,283.94,499.94Z" transform="translate(-224.55 -302.27)"/><path d="M284.9,497.67a.56.56,0,0,0,.28.75l2.5,1.17a.57.57,0,0,0,.75-.27.58.58,0,0,0-.27-.76l-2.5-1.16A.57.57,0,0,0,284.9,497.67Z" transform="translate(-224.55 -302.27)"/><path d="M286,495.45a.56.56,0,0,0,.43.68l3,.67a.57.57,0,0,0,.68-.43.58.58,0,0,0-.43-.68l-3-.67A.58.58,0,0,0,286,495.45Z" transform="translate(-224.55 -302.27)"/><path d="M289.19,492l-3,.34a.56.56,0,1,0,.12,1.12l3-.33a.57.57,0,0,0-.12-1.13Z" transform="translate(-224.55 -302.27)"/><path d="M287.69,489.06,285,490.22a.57.57,0,0,0-.29.75.56.56,0,0,0,.75.29l2.66-1.16a.58.58,0,0,0,.3-.75A.56.56,0,0,0,287.69,489.06Z" transform="translate(-224.55 -302.27)"/><path d="M284.08,487.32l-1.17,2.34a.56.56,0,1,0,1,.5l1.17-2.33a.57.57,0,0,0-1-.51Z" transform="translate(-224.55 -302.27)"/><path d="M281.38,486.34a.58.58,0,0,0-.53.61l.17,2.5a.57.57,0,0,0,.6.53.58.58,0,0,0,.53-.61l-.17-2.5A.57.57,0,0,0,281.38,486.34Z" transform="translate(-224.55 -302.27)"/><path d="M277.23,487.13a.57.57,0,0,0-.09.8l1.83,2.33a.57.57,0,1,0,.89-.7L278,487.23A.57.57,0,0,0,277.23,487.13Z" transform="translate(-224.55 -302.27)"/><path d="M274.8,489.06a.57.57,0,0,0,.1.8l2.33,1.83a.57.57,0,0,0,.8-.1.56.56,0,0,0-.1-.79L275.6,489A.57.57,0,0,0,274.8,489.06Z" transform="translate(-224.55 -302.27)"/><path d="M251.47,480.25l-2.33,1.33a.58.58,0,0,0-.22.78.58.58,0,0,0,.78.21l2.33-1.33a.57.57,0,0,0-.56-1Z" transform="translate(-224.55 -302.27)"/><path d="M255.06,482.68l-3.67.16a.58.58,0,0,0-.54.6.57.57,0,0,0,.59.54l3.67-.17a.57.57,0,0,0,.54-.59A.56.56,0,0,0,255.06,482.68Z" transform="translate(-224.55 -302.27)"/><path d="M252.52,485.84a.57.57,0,0,0,.5.63l2.83.34a.58.58,0,0,0,.63-.5.57.57,0,0,0-.5-.63l-2.83-.33A.56.56,0,0,0,252.52,485.84Z" transform="translate(-224.55 -302.27)"/><path d="M252.52,488.65a.57.57,0,0,0,.47.65l3,.5a.56.56,0,0,0,.65-.46.58.58,0,0,0-.46-.66l-3-.5A.58.58,0,0,0,252.52,488.65Z" transform="translate(-224.55 -302.27)"/><path d="M252.08,490.65a.56.56,0,0,0,.24.76l3.5,1.84a.58.58,0,0,0,.77-.24.58.58,0,0,0-.24-.77l-3.5-1.83A.57.57,0,0,0,252.08,490.65Z" transform="translate(-224.55 -302.27)"/><path d="M250.46,492.24a.56.56,0,0,0,.12.79l2.66,2a.57.57,0,0,0,.8-.11.58.58,0,0,0-.12-.8l-2.66-2A.58.58,0,0,0,250.46,492.24Z" transform="translate(-224.55 -302.27)"/><path d="M248.41,494a.56.56,0,0,0-.11.79l2.17,2.84a.57.57,0,0,0,.9-.69l-2.17-2.83A.56.56,0,0,0,248.41,494Z" transform="translate(-224.55 -302.27)"/><path d="M245.85,494.58v2.66a.57.57,0,1,0,1.13,0v-2.66a.57.57,0,1,0-1.13,0Z" transform="translate(-224.55 -302.27)"/><path d="M243.05,493.71l-1.16,3a.56.56,0,0,0,.32.73.57.57,0,0,0,.73-.32l1.17-3a.57.57,0,1,0-1.06-.41Z" transform="translate(-224.55 -302.27)"/><path d="M241.44,491.93l-2.83,1.84a.57.57,0,0,0-.17.78.56.56,0,0,0,.78.17l2.84-1.83a.57.57,0,1,0-.62-1Z" transform="translate(-224.55 -302.27)"/><path d="M240.2,489.68l-3.5.33a.56.56,0,0,0-.51.62.56.56,0,0,0,.61.51l3.5-.33a.57.57,0,0,0,.51-.62A.56.56,0,0,0,240.2,489.68Z" transform="translate(-224.55 -302.27)"/><path d="M237.21,486.23a.57.57,0,0,0,.36.72l2.5.83a.57.57,0,0,0,.72-.36.56.56,0,0,0-.36-.71l-2.5-.84A.57.57,0,0,0,237.21,486.23Z" transform="translate(-224.55 -302.27)"/><path d="M237.79,482.58a.56.56,0,0,0,.13.79l3,2.17a.57.57,0,0,0,.79-.13.56.56,0,0,0-.13-.79l-3-2.17A.56.56,0,0,0,237.79,482.58Z" transform="translate(-224.55 -302.27)"/><path d="M239.9,480.13a.56.56,0,0,0-.1.79l2.34,3a.55.55,0,0,0,.79.1.56.56,0,0,0,.1-.79l-2.33-3A.57.57,0,0,0,239.9,480.13Z" transform="translate(-224.55 -302.27)"/><path d="M244.19,478.85a.56.56,0,0,0-.5.62l.33,3.33a.57.57,0,0,0,1.13-.11l-.34-3.34A.56.56,0,0,0,244.19,478.85Z" transform="translate(-224.55 -302.27)"/><path d="M246.7,479.94l-.5,2a.57.57,0,1,0,1.1.27l.5-2a.56.56,0,0,0-.41-.68A.57.57,0,0,0,246.7,479.94Z" transform="translate(-224.55 -302.27)"/><path d="M268.19,479a.56.56,0,0,0,.49.63l4,.5a.56.56,0,0,0,.63-.49.57.57,0,0,0-.49-.64l-4-.5A.58.58,0,0,0,268.19,479Z" transform="translate(-224.55 -302.27)"/><path d="M269.39,475.87a.57.57,0,0,0,.32.74l2.17.83a.57.57,0,0,0,.41-1.06l-2.17-.83A.57.57,0,0,0,269.39,475.87Z" transform="translate(-224.55 -302.27)"/><path d="M269.78,473.1a.55.55,0,0,0,.16.78l3,2a.55.55,0,0,0,.78-.16.55.55,0,0,0-.16-.78l-3-2A.55.55,0,0,0,269.78,473.1Z" transform="translate(-224.55 -302.27)"/><path d="M273.29,471.09a.57.57,0,0,0-.19.78l1,1.67a.57.57,0,0,0,1-.59l-1-1.66A.57.57,0,0,0,273.29,471.09Z" transform="translate(-224.55 -302.27)"/><path d="M276.17,469.35a.56.56,0,0,0-.48.64l.5,3.34a.57.57,0,0,0,1.12-.17l-.5-3.33A.56.56,0,0,0,276.17,469.35Z" transform="translate(-224.55 -302.27)"/><path d="M279.38,470.56l-.67,2a.57.57,0,1,0,1.08.36l.66-2a.56.56,0,0,0-.35-.71A.57.57,0,0,0,279.38,470.56Z" transform="translate(-224.55 -302.27)"/><path d="M281.18,473.34a.58.58,0,0,0,0,.81.57.57,0,0,0,.8,0l1.84-1.84a.57.57,0,0,1-.8,0,.55.55,0,0,1,0-.8Z" transform="translate(-224.55 -302.27)"/><path d="M286.44,473.11l-2,1.33a.56.56,0,1,0,.62.94l2-1.33a.57.57,0,0,0,.16-.79A.55.55,0,0,0,286.44,473.11Z" transform="translate(-224.55 -302.27)"/><path d="M288.91,474.87l-3.16,1a.56.56,0,0,0-.37.71.57.57,0,0,0,.71.37l3.16-1a.56.56,0,0,0,.37-.71A.57.57,0,0,0,288.91,474.87Z" transform="translate(-224.55 -302.27)"/><path d="M300.59,487l-1,1.84a.57.57,0,0,0,.22.77.58.58,0,0,0,.77-.23l1-1.83a.57.57,0,0,0-1-.55Z" transform="translate(-224.55 -302.27)"/><path d="M304.07,487.8l-2.34,1.83a.57.57,0,0,0-.09.8.56.56,0,0,0,.79.09l2.34-1.83a.57.57,0,0,0,.09-.8A.56.56,0,0,0,304.07,487.8Z" transform="translate(-224.55 -302.27)"/><path d="M307.14,489.08l-2.67,1.5a.57.57,0,0,0,.56,1l2.66-1.5a.56.56,0,0,0,.22-.77A.57.57,0,0,0,307.14,489.08Z" transform="translate(-224.55 -302.27)"/><path d="M306.85,492.67a.58.58,0,0,0,.49.64l2.5.33a.57.57,0,0,0,.64-.49.56.56,0,0,0-.49-.63l-2.5-.34A.58.58,0,0,0,306.85,492.67Z" transform="translate(-224.55 -302.27)"/><path d="M306,495.56a.58.58,0,0,0,.36.72l3,1a.57.57,0,0,0,.72-.36.56.56,0,0,0-.36-.71l-3-1A.57.57,0,0,0,306,495.56Z" transform="translate(-224.55 -302.27)"/><path d="M304.73,498.35a.57.57,0,0,0,.29.75l3,1.33a.57.57,0,0,0,.46-1l-3-1.33A.56.56,0,0,0,304.73,498.35Z" transform="translate(-224.55 -302.27)"/><path d="M304.08,501.16a.56.56,0,0,0,.25.76l2.33,1.16a.57.57,0,1,0,.51-1l-2.33-1.17A.57.57,0,0,0,304.08,501.16Z" transform="translate(-224.55 -302.27)"/><path d="M301.83,502.36a.57.57,0,0,0,0,.8l2.16,2a.57.57,0,1,0,.77-.83l-2.17-2A.57.57,0,0,0,301.83,502.36Z" transform="translate(-224.55 -302.27)"/><path d="M298.52,503a.55.55,0,0,0,0,.8l2.83,2.84a.57.57,0,0,0,.8,0,.58.58,0,0,0,0-.81L299.32,503A.57.57,0,0,0,298.52,503Z" transform="translate(-224.55 -302.27)"/><path d="M266.08,511.33s-4,.75-9.75,5-10.12,11.75-10.12,11.75,5,.37,13.75-3.75,12.75-11.5,13-12.5a.82.82,0,0,0-.63-1.13s-3.25,2.5-5.87,2Z" transform="translate(-224.55 -302.27)"/><path d="M276.58,515.2s-1.12,2.63,1.38,7.63a23.82,23.82,0,0,0,5.87,7.62s2.25-2.37,3.88-8.37a65.65,65.65,0,0,0,1.87-8.25,8.19,8.19,0,0,1-4-1.13,37,37,0,0,1-3.83-2.29S281.21,514,276.58,515.2Z" transform="translate(-224.55 -302.27)"/><path d="M298.21,517.33s-1.5,1.25-3.38,6.75-1.75,8.37-1.75,8.37l1.5.5s2-1.75,3.63-2.87,8.54-6.42,10.62-11.88l-4.5-3.62-4.75,3.5Z" transform="translate(-224.55 -302.27)"/><path d="M370.33,353.33c-7,2.75-11.25,10.25-13.5,18.25s-2.25,21-2.75,37,0,47.5,2,56.66,14,22.84,14,22.84v35.08c-.33,7.58-8.16,9.92-8.16,9.92H347.58c-14.33-23.17-33.16-23-33.16-23l-1-2.17s-.17-.83,1.5-1,6.33-2.17,7-3.33l-1.84-4.34.84-1.16a75.42,75.42,0,0,1,20,9.16,101.5,101.5,0,0,0-1-12.5c-.84-4.33-5.34-11.5-8.67-20s-5.33-19.66-7.33-25.5a20.51,20.51,0,0,0-6.17-9,28.15,28.15,0,0,0,.08-4.91l6.75-1a4.11,4.11,0,0,0,1.5-3.42s8.67,11.67,11.34,15.33c0,0,1.33-30.16,1.66-40.83s.67-21.83.17-25.17-2.33-9.5-5.83-13l.33-4.5,7.17.34.66-.84,5.5,5s8-16.83,23.17-25.33Z" transform="translate(-224.55 -302.27)"/><path d="M301.92,378.41a49.17,49.17,0,0,1,8.83-5.5c5.17-2.5,14.33-1.5,14.33-1.5s-5.66,4-6.66,5.67-5.17,8.16-10.17,10.33l-.17-1-2.75-.5-3.75-.87s3.21-5.09,3.17-6.17Z" transform="translate(-224.55 -302.27)"/><path d="M283.42,364.08a15.4,15.4,0,0,1,3.91-8.5,53.57,53.57,0,0,1,8.75-7.38s-.25,5.13-.5,7.13-1.12,9-2.37,10.87L287,371S286,366.08,283.42,364.08Z" transform="translate(-224.55 -302.27)"/><path d="M274.21,373.7s-.38-4.5-6.5-9.5-11.5-9.87-12.13-10.37-.5.87,0,1.87,3,5.25,3.5,8.63,2,8.87,4.13,11c0,0,5.62-3.25,10.12.25Z" transform="translate(-224.55 -302.27)"/><path d="M248.08,388s-1.87-7.25-.12-12.75a93,93,0,0,0,2.75-12s3.25,8.75,4.37,11.38,2.63,8.37,2.25,10.87l-2.08-.71s-3.17,2.84-3.54,5.59l-.88-.13Z" transform="translate(-224.55 -302.27)"/><path d="M243.71,386.33s-.88-1.63-4.5-2.5-6.5-2.38-6.88-3.38l-.5,6.63a19,19,0,0,0,7.75,9.87l1.75-.5a27.25,27.25,0,0,1,3.25-8.25Z" transform="translate(-224.55 -302.27)"/><path d="M276.08,406a33,33,0,0,1,11.25,4s-4.37,2.38-4.87,2.5-1.13.5-1,1,.62,2.13.62,2.13a7.09,7.09,0,0,1-2.75-.13c-.75-.37-2-4.5-6.37-7l.25-.75Z" transform="translate(-224.55 -302.27)"/><path d="M268.83,460.33S265,457,263.46,449.7s-3.38-12.87-4.5-14.5,2,.63,2.62,1.13a42.32,42.32,0,0,1,11.5,10c5.25,6.62,4.13,12.12,4.13,12.12l-3.13,3.63L270,460.45Z" transform="translate(-224.55 -302.27)"/><path d="M278.21,458.83s1.62-3.88,8.5-5.75,15-.5,15-.5a45.85,45.85,0,0,0-3.75,3.25c-.75.87-3.63,6.25-7,7.5s-4.33.12-8,2.75A20.18,20.18,0,0,0,278.21,458.83Z" transform="translate(-224.55 -302.27)"/></svg>