<svg id="_4_1" xmlns="http://www.w3.org/2000/svg" viewBox="0 0 153.07 238.11"><defs><style>.cls-1{fill:#ed1c24;}.cls-2{fill:#fff;}.cls-3{fill:#ffcb05;}</style></defs><title>_4_1</title><rect class="cls-1" width="153.07" height="238.11"/><path class="cls-2" d="M362.09,516.92V312.25s-.5-8.5-11.17-9l-118.16.33s-8.67.84-8.67,10.5v202.5s.17,9.67,9.67,10.34h119.5S361.59,526.58,362.09,516.92Z" transform="translate(-216.58 -295.97)"/><path class="cls-1" d="M362,346.17s-10,5.5-17.25,7.37L324.34,363l-3.75,13.13-.5,3.75s24.12-5.75,41.87-30.25Z" transform="translate(-216.58 -295.97)"/><path class="cls-3" d="M328,303.42H311S272.47,319,272.09,343c0,0,.63,8.5,3.75,14.25s3.75,7.25,3.75,7.75c0,0-17.87,4.38-25.75,19,0,0-9.25,1.5-11.25,9.38l2.88-2s2.62,2.12,11.62-.25a27.14,27.14,0,0,0,17.5,7.75,10.63,10.63,0,0,0,1.63,1.87c.87.75-.25,2.5-1.38,3.63s-5.75,3.62-6.62,8,.5,7.87,7.12,9.87,12.5,1.75,20.25-.37,23.12-10.75,30.12-16.63A133.81,133.81,0,0,0,337.59,394a2.62,2.62,0,0,0,1-1.5c.12-.87-1.25-1.25-2.63-1a56.91,56.91,0,0,0-6.5,2.63,15.18,15.18,0,0,0-8.87,2.12,2.92,2.92,0,0,0-2.88-1.25c-2,.25-6.12,3.25-7.12,3.88s-5.5,4.25-5.5,4.25l-.38-1.88a11.4,11.4,0,0,0,1.63-2.12c.62-1.13-.38-1.5-.88-1.38,0,0,2.25-2,2.63-3.12s-1.25-1.63-1.75-1.5c0,0,2.62-2.13,1.62-3.5,0,0,16.13-9.75,22.13-26.13,0,0,22.87-14.75,31.75-24.62l.12-1.25-14.87-.25s-2,.37-1.88-1.63.38-11.37.38-11.37l-4,.25S328,342,311.46,354.54l-6.37.38s-.5-2.88-2-3.75c0,0,1.37-2.25,0-3.25,0,0,1.12-3-.75-4.13,0,0,.75-2.37-.75-3.62a4.71,4.71,0,0,0,.12-3.25l1.75-2.38a26.63,26.63,0,0,0,3.75-1.5,14.68,14.68,0,0,0,4-3.87c.63-1,8.63-8.25,11.63-9.75a8.34,8.34,0,0,0,3.87-5l1.13-4.88s1.5-1,2.37-1.75-.37-2.25-1-2.37S328,303.42,328,303.42Z" transform="translate(-216.58 -295.97)"/><path class="cls-1" d="M272.09,343s-22.5-11.37-31.37-39.62l-1.38-.25s-3.25,12.62.38,30.5,19.62,32.5,26.75,37c0,0,8.5-4.25,13.12-5.63a16.08,16.08,0,0,0-1.25-3.87C277.72,360.29,272.72,354,272.09,343Z" transform="translate(-216.58 -295.97)"/><path d="M352.17,527.62A10.64,10.64,0,0,0,362.8,517V313.34a10.64,10.64,0,0,0-10.63-10.63H234a10.64,10.64,0,0,0-10.63,10.63V517A10.64,10.64,0,0,0,234,527.62Zm9.21-214.28V517a9.22,9.22,0,0,1-9.21,9.21H234A9.22,9.22,0,0,1,224.8,517V313.34a9.22,9.22,0,0,1,9.21-9.21H352.17A9.22,9.22,0,0,1,361.38,313.34Z" transform="translate(-216.58 -295.97)"/><path d="M333.34,312.17s-1,6-6.25,7.75-7.83-1-8.33-3.67,1.16-5.83,6.16-6.5S333.42,311.42,333.34,312.17Z" transform="translate(-216.58 -295.97)"/><path d="M347.09,313.08s3,2.5,1.5,7.84-5.83,5.5-7.33,4.33-3.34-4.17-.5-8.5S346.09,312.75,347.09,313.08Z" transform="translate(-216.58 -295.97)"/><path d="M357.76,312.42s3.83,3.66,2,8.5-5.84,5.5-7.67,4.33-3.17-4.5-.5-8.83S356.76,312.08,357.76,312.42Z" transform="translate(-216.58 -295.97)"/><path d="M361.76,365.92s-1.84,4.33-6.17,4.5-6.5-1-6.67-4,2.67-4.17,7-4.67,5.5,1.67,5.84,2.17S361.76,365.92,361.76,365.92Z" transform="translate(-216.58 -295.97)"/><path d="M348.26,381.42a7.91,7.91,0,0,1-8,5c-6.34-.17-6.84-4.17-6.67-5.67s1.5-4.67,7.5-4.5S347.92,380.75,348.26,381.42Z" transform="translate(-216.58 -295.97)"/><path d="M335.92,401.75a9.91,9.91,0,0,1-8,4.17c-5.33,0-6.5-3-6.66-4.84s1.83-3.83,7-3.66S335.59,400.08,335.92,401.75Z" transform="translate(-216.58 -295.97)"/><path d="M337.92,421.42s3.17,5.16-1.16,11-9.84,3.83-10.84,2.66-3-5.33,2-9.83S336.09,420.42,337.92,421.42Z" transform="translate(-216.58 -295.97)"/><path d="M353.09,412.25a7.87,7.87,0,0,1,5.83,6.83c.84,5.84-2.66,9.17-5.16,9.17s-6.5-2-5.84-8.33S351.76,412.25,353.09,412.25Z" transform="translate(-216.58 -295.97)"/><path d="M361.92,406.25s-3.16-2.67-4-5.67,1.34-6.33,4.17-6.16Z" transform="translate(-216.58 -295.97)"/><path d="M312.42,437.75a10,10,0,0,1-8.83,4c-5.83-.5-7-5.17-6.67-6.67s2.67-4.33,8.67-3.66S312.42,436.75,312.42,437.75Z" transform="translate(-216.58 -295.97)"/><path d="M312.09,451.92a10.13,10.13,0,0,1-10,4c-6.83-1-7.67-5.5-7.17-7.5s3.84-4.34,9.17-3.34S312.42,449.92,312.09,451.92Z" transform="translate(-216.58 -295.97)"/><path d="M328.26,450.92s1.66,4.16,9.66,4,8.17-5.5,8.17-6-.83-5.5-9.33-4.67S328.26,450.08,328.26,450.92Z" transform="translate(-216.58 -295.97)"/><path d="M328.26,467.75s2.33,3.67,9.33,3,7.33-6.17,6.83-7.33-2.83-4.5-9.16-2.67S328.09,466.42,328.26,467.75Z" transform="translate(-216.58 -295.97)"/><path d="M308.59,467.92a11.77,11.77,0,0,1-9.5,2.83c-5.83-.83-7.67-4.33-7.67-6.33s2.67-4.84,9.34-3.84S308.76,466.58,308.59,467.92Z" transform="translate(-216.58 -295.97)"/><path d="M325.92,486.92s3,3.66,9.17,3.33,8.17-5.67,7.5-8-4.33-5.17-10-3S325.76,485.08,325.92,486.92Z" transform="translate(-216.58 -295.97)"/><path d="M306.59,486.08a13.57,13.57,0,0,1-10.17,4.5c-6.33-.16-8-3.33-7.66-6.16s3.16-5.5,9.33-4.84S307.09,484.58,306.59,486.08Z" transform="translate(-216.58 -295.97)"/><path d="M324.92,502.25s2.84,4.33,9.67,4.83,8.67-4.16,8.5-5.83-1.17-5.5-8.67-5.17S325.26,500.75,324.92,502.25Z" transform="translate(-216.58 -295.97)"/><path d="M317.26,509.08a8.33,8.33,0,0,1,6.33,6.17c1.33,5.33-2.33,8.5-4.5,8.83s-6.33-1.66-6.83-6.66S315.26,509.08,317.26,509.08Z" transform="translate(-216.58 -295.97)"/><path d="M309.26,502.42a10.24,10.24,0,0,1-8.67,5.5c-6.17.16-8-2.84-8-5.34s2.17-4.66,7.5-4.83S308.59,500.25,309.26,502.42Z" transform="translate(-216.58 -295.97)"/><path d="M267.42,450.92s6.84.33,9.17,6-1.17,9.16-3.67,9.5-5.83-.17-7.5-5.34S265.76,451.42,267.42,450.92Z" transform="translate(-216.58 -295.97)"/><path d="M255.59,449.25s1,6-3.67,9.17-9.66,2-10.66-1.5,1.33-6.5,4.66-8.17S254.76,447.92,255.59,449.25Z" transform="translate(-216.58 -295.97)"/><path d="M256.42,434.58s2.67-5,.34-9.5a7.35,7.35,0,0,0-9.34-3.5c-2.16,1-3.16,6,0,10S255.09,434.75,256.42,434.58Z" transform="translate(-216.58 -295.97)"/><path d="M266.42,440.92a15.53,15.53,0,0,0,8.5-3.5c4-3.34,3.67-10.34-.5-12.34s-7.66,0-9.16,6.5S265.76,440.42,266.42,440.92Z" transform="translate(-216.58 -295.97)"/><path d="M280.1,363.54a16.11,16.11,0,0,0-2.09-4,29.48,29.48,0,0,1-4.89-12.26c-1.66-9.23,2.13-17.72,12.3-27.53,9.28-9,26.91-15.61,27.08-15.68l-.49-1.33c-.74.28-18.08,6.83-27.58,16-10.54,10.17-14.46,19.06-12.7,28.8a31.11,31.11,0,0,0,5.09,12.78,15.35,15.35,0,0,1,1.93,3.64c1.08,3.54.33,5.51-1.22,7.52l1.12.87C280.43,370,281.35,367.66,280.1,363.54Z" transform="translate(-216.58 -295.97)"/><path d="M284.36,338.47c3.37-2.65,6.28-6.68,8-9.09a19,19,0,0,1,1.33-1.74l1.14-1.17c2.36-2.55,7.89-8.5,14.43-12.1a97.52,97.52,0,0,1,19-7.6,1.57,1.57,0,0,0,1.22-1.44,3.23,3.23,0,0,0-1.78-2.9l-.56,1.3a1.8,1.8,0,0,1,.92,1.48c0,.15-.05.16-.14.19a97.94,97.94,0,0,0-19.34,7.73c-6.73,3.71-12.37,9.78-14.78,12.37l-1,1a13.68,13.68,0,0,0-1.59,2c-1.69,2.35-4.52,6.28-7.73,8.81-4.49,3.52-11.49,5.18-11.56,5.2l.32,1.38C272.55,343.87,279.62,342.19,284.36,338.47Z" transform="translate(-216.58 -295.97)"/><path d="M299.52,317.31c9.16-7,22.57-13.36,22.7-13.42l-.6-1.28c-.13.06-13.67,6.45-23,13.58S280.4,331,280.05,340.06l1.42.05C281.79,331.61,290.56,324.19,299.52,317.31Z" transform="translate(-216.58 -295.97)"/><path d="M317.87,314.23l3.6-1.4c5.34-2,8.88-3.41,9.44-4.82a2.23,2.23,0,0,0,0-1.79,3.23,3.23,0,0,0-1.76-1.48l-.45,1.35a1.76,1.76,0,0,1,.92.73.76.76,0,0,1,0,.67c-.38.93-5.74,2.94-8.62,4l-3.67,1.42c-3.12,1.34-20.69,12.49-25,21.51l1.27.62C297.75,326.35,314.83,315.54,317.87,314.23Z" transform="translate(-216.58 -295.97)"/><path d="M290.61,336.4a6.32,6.32,0,0,0,1.45-6.95l-1.28.6a5,5,0,0,1-1.2,5.38,25.47,25.47,0,0,1-7.27,4.83l.56,1.31A27,27,0,0,0,290.61,336.4Z" transform="translate(-216.58 -295.97)"/><path d="M291.79,335.29l-1.4.25c.43,2.34-4.29,6.53-7.37,8.62l.8,1.18C284.71,344.73,292.52,339.29,291.79,335.29Z" transform="translate(-216.58 -295.97)"/><path d="M289.82,345.34c3-4,.73-6.62.63-6.73l-1.06.94c.07.08,1.58,1.9-.7,4.94a22.83,22.83,0,0,1-4.83,4.5l.79,1.18A23.72,23.72,0,0,0,289.82,345.34Z" transform="translate(-216.58 -295.97)"/><path d="M290.37,349.1c1.73-3.08,0-5.07-.09-5.16l-1.06.94c0,.06,1.13,1.36-.08,3.52-1.35,2.41-5.09,3.84-5.13,3.85l.5,1.33C284.68,353.51,288.77,352,290.37,349.1Z" transform="translate(-216.58 -295.97)"/><path d="M290.24,353a4,4,0,0,0-.48-4.45l-1,1a2.64,2.64,0,0,1,.19,2.89c-.93,2.16-3.79,4.72-3.82,4.75l.94,1.06C286.19,358.17,289.19,355.48,290.24,353Z" transform="translate(-216.58 -295.97)"/><path d="M292,356.3c.17-2.4-1.43-3.18-2.31-3.26l-.13,1.41c.27,0,1.14.26,1,1.75s-3.33,4-5.34,5.29l.76,1.19C286.94,362.06,291.78,358.86,292,356.3Z" transform="translate(-216.58 -295.97)"/><path d="M292.45,362.24a3.9,3.9,0,0,0-.37-3,3.13,3.13,0,0,0-1.84-1.32l-.31,1.38c.28.07,1.61.5,1.13,2.66s-4.68,3.32-6.27,3.62l.27,1.4C285.73,366.82,291.7,365.6,292.45,362.24Z" transform="translate(-216.58 -295.97)"/><rect x="283.24" y="367.21" width="6.71" height="1.42" transform="translate(-350.87 -128.95) rotate(-26.57)"/><rect x="282.14" y="370.21" width="8.23" height="1.42" transform="translate(-332.05 -166.17) rotate(-21.37)"/><rect x="283.69" y="373.46" width="6.81" height="1.42" transform="translate(-333.93 -164.4) rotate(-21.55)"/><rect x="283.87" y="376.46" width="7.43" height="1.42" transform="translate(-326.7 -177.24) rotate(-19.66)"/><rect x="285.15" y="379.54" width="6.39" height="1.42" transform="translate(-305.92 -207.42) rotate(-15.15)"/><rect x="285.78" y="382.54" width="5.11" height="1.42" transform="translate(-325.74 -181.08) rotate(-19.02)"/><path d="M291.31,386.79l-.05-1.42c-.17,0-.66,0-5.13,2.07l.59,1.29C288.63,387.85,290.92,386.86,291.31,386.79Z" transform="translate(-216.58 -295.97)"/><rect x="287.68" y="389.12" width="4.49" height="1.42" transform="translate(-307.86 -207.33) rotate(-15.05)"/><rect x="288.98" y="391.29" width="5.38" height="1.42" transform="translate(-314.37 -199.03) rotate(-16.2)"/><path d="M273.71,375.78l-.24-1.4c-.7.12-4.24.75-5.33,1.66l.9,1.09C269.63,376.64,272.12,376.05,273.71,375.78Z" transform="translate(-216.58 -295.97)"/><path d="M277,377.59l-.42-1.35c-5.08,1.57-5.42,2.09-5.55,2.28l1.11.87A32.55,32.55,0,0,1,277,377.59Z" transform="translate(-216.58 -295.97)"/><path d="M279,379.42l-.45-1.34a43.34,43.34,0,0,0-4.67,1.75l.79,1.18C275,380.82,277.1,380.05,279,379.42Z" transform="translate(-216.58 -295.97)"/><rect x="274.63" y="380.87" width="5.59" height="1.42" transform="translate(-317.57 -196.13) rotate(-17.31)"/><rect x="277.76" y="383.12" width="3.66" height="1.42" transform="translate(-349.5 -147.38) rotate(-24.23)"/><rect x="278.29" y="385.29" width="4.43" height="1.42" transform="translate(-330.8 -178.06) rotate(-19.81)"/><rect x="281.04" y="386.54" width="3.43" height="1.42" transform="translate(-369.01 -110.04) rotate(-29.04)"/><rect x="283.01" y="388.54" width="3.16" height="1.42" transform="translate(-325.13 -185.92) rotate(-18.45)"/><rect x="268.46" y="385.41" width="1.42" height="4.5" transform="translate(-344.73 346.39) rotate(-87.89)"/><polygon points="56.84 93.73 51.39 93.4 51.29 94.82 56.84 95.15 56.84 93.73"/><rect x="272.13" y="390.08" width="1.42" height="4.5" transform="translate(-345.92 354.46) rotate(-87.87)"/><rect x="274.13" y="391.75" width="1.42" height="4.84" transform="translate(-345.11 359.34) rotate(-88.03)"/><path d="M278.48,395.38c-2.59-.2-6.72-.58-7.53-.81l-.39,1.36c1.2.34,7.14.81,7.81.86Z" transform="translate(-216.58 -295.97)"/><path d="M242.65,394.85A19.41,19.41,0,0,1,255,388.29l-.15-1.41a20.07,20.07,0,0,0-10.8,4.63,17.52,17.52,0,0,1,2.07-2.79,15.14,15.14,0,0,1,7.75-4.1l.35-.06.16-.31c7.59-14.21,25.36-18.6,25.54-18.64l-.33-1.38c-.18,0-18.29,4.52-26.28,19a16.26,16.26,0,0,0-8.25,4.49c-3.27,3.63-3.66,6.44-3.67,6.56l-.32,2.54Z" transform="translate(-216.58 -295.97)"/><path d="M306.93,390.71c14.66-7.93,21.53-21.3,23.81-26.68l-1.3-.56c-2.22,5.25-8.92,18.28-23.19,26-12.77,6.9-28.73,10.25-37.13,7.78-8.15-2.4-11.61-6.56-11.65-6.6l-.31-.39-.47.16a17.84,17.84,0,0,1-10.86.34l-.48,1.33a19.16,19.16,0,0,0,11.33-.21c1,1.08,4.68,4.56,12,6.73C277.58,401.2,293.65,397.88,306.93,390.71Z" transform="translate(-216.58 -295.97)"/><path d="M298.42,335.46c3.71,0,4.81-1.48,5.78-2.78l.12-.17.62-1c1.54-2.65,5.13-8.85,15-13.62l-.62-1.28c-10.21,5-14.1,11.67-15.57,14.19l-.52.86-.13.17c-.92,1.24-1.64,2.21-4.64,2.21a20.79,20.79,0,0,0-7.46,1.73l.59,1.29A19.55,19.55,0,0,1,298.42,335.46Z" transform="translate(-216.58 -295.97)"/><path d="M307.83,333.17a25.71,25.71,0,0,0,4.26-4.17,27,27,0,0,1,3.28-3.36,61,61,0,0,1,7.33-5.24l-.56-1.3a60.73,60.73,0,0,0-7.66,5.43,29,29,0,0,0-3.45,3.53,24.71,24.71,0,0,1-4,3.94,12.62,12.62,0,0,1-5.63,1.88l.07,1.41A13.8,13.8,0,0,0,307.83,333.17Z" transform="translate(-216.58 -295.97)"/><path d="M299.12,339.19c4.23-2.54,5.19-4.44,5.28-4.65l-1.28-.59s-.87,1.71-4.73,4a48.44,48.44,0,0,1-7.87,3.77l.47,1.34A49,49,0,0,0,299.12,339.19Z" transform="translate(-216.58 -295.97)"/><path d="M300,342.49c3.13-2.23,3.06-5.12,2.58-6.33l-1.32.51c0,.1.9,2.54-2.08,4.67a80.66,80.66,0,0,1-8.74,5.11l.63,1.27A79,79,0,0,0,300,342.49Z" transform="translate(-216.58 -295.97)"/><path d="M303,343.46a2.72,2.72,0,0,0,.44-2.12,3.1,3.1,0,0,0-1.32-1.85l-.77,1.19a1.38,1.38,0,0,1,.46,2c-.83,1.3-7.27,5.88-11.13,8.46l.78,1.18C291.9,352.06,301.74,345.47,303,343.46Z" transform="translate(-216.58 -295.97)"/><path d="M303.92,347.33a3.63,3.63,0,0,0,.05-2.89,2.7,2.7,0,0,0-1.49-1.36l-.46,1.34a1.26,1.26,0,0,1,.68.65,2.3,2.3,0,0,1-.11,1.76c-.85,2.29-9.64,7.55-10.6,7.93l.53,1.31C293.36,355.74,302.78,350.37,303.92,347.33Z" transform="translate(-216.58 -295.97)"/><path d="M303.49,351.34c.88-1.18,1.18-2.2.87-3a2.07,2.07,0,0,0-1.44-1.25l-.33,1.38a.67.67,0,0,1,.44.36c.06.16.11.65-.67,1.69-1.9,2.52-9.39,6.94-9.46,7l.72,1.22C293.93,358.51,301.43,354.09,303.49,351.34Z" transform="translate(-216.58 -295.97)"/><path d="M305.63,355a4.9,4.9,0,0,0-2.35-4.7l-.71,1.23a3.48,3.48,0,0,1,1.65,3.3c-.18,1.43-4.65,4.76-11.14,8.3l.68,1.24C298.05,362,305.29,357.71,305.63,355Z" transform="translate(-216.58 -295.97)"/><path d="M309.25,362.84c0-.32-.2-1.38-2-1.46-3.74-.17-9.16,1.29-9.39,1.35l.38,1.37c.05,0,5.43-1.47,8.94-1.31.47,0,.59.12.61.14a1.18,1.18,0,0,1-.27.54c-1,1.3-4.38,3.51-9.73,4.24l.19,1.41C304.46,368.23,309.35,365,309.25,362.84Z" transform="translate(-216.58 -295.97)"/><path d="M312.87,365.59a1.13,1.13,0,0,0-.33-1.22c-1.17-1-4.11-.72-4.69-.66l.15,1.41a8.55,8.55,0,0,1,3.43.24C311,366.47,307,370,303,370.72l.24,1.39C307.49,371.38,312.36,367.51,312.87,365.59Z" transform="translate(-216.58 -295.97)"/><path d="M315.92,369a1.23,1.23,0,0,0-.65-1.24,12.94,12.94,0,0,0-4.47-1.09l-.09,1.41a12.21,12.21,0,0,1,3.77.88c-.18.87-3.29,3.58-6.28,4.58l.45,1.34C311.68,373.91,315.75,370.88,315.92,369Z" transform="translate(-216.58 -295.97)"/><path d="M317.25,371.09a2.54,2.54,0,0,0-1.78-2l-.44,1.35s.76.27.81.8-.31,2-6.08,5.07l.66,1.25C315.18,375,317.41,372.9,317.25,371.09Z" transform="translate(-216.58 -295.97)"/><path d="M319.13,374l-1.09-.91a20.55,20.55,0,0,1-4.12,3.83l.68,1.25A21.84,21.84,0,0,0,319.13,374Z" transform="translate(-216.58 -295.97)"/><path d="M320.49,377.17l-1.13-.85a6.64,6.64,0,0,1-3.26,2.24l.32,1.38A8,8,0,0,0,320.49,377.17Z" transform="translate(-216.58 -295.97)"/><rect x="293.33" y="374.12" width="5.18" height="1.42" transform="translate(-373.49 -72.85) rotate(-33.19)"/><rect x="295.98" y="376.12" width="5.89" height="1.42" transform="translate(-348.26 -133.47) rotate(-25.11)"/><rect x="299.43" y="377.62" width="5.33" height="1.42" transform="matrix(0.94, -0.34, 0.34, 0.94, -328.46, -168.69)"/><rect x="302.53" y="379.37" width="4.61" height="1.42" transform="translate(-292.05 -220.45) rotate(-12.58)"/><rect x="305.65" y="380.54" width="4.37" height="1.42" transform="translate(-318.1 -184.06) rotate(-17.74)"/><rect x="308.89" y="381.62" width="5.4" height="1.42" transform="translate(-271.85 -243.32) rotate(-8.88)"/><path d="M269.76,379.08a14.93,14.93,0,0,0-5.5-.16,3.3,3.3,0,0,0-2.84,4c.17,1.16,2.17,2,3.84,1.16s.5-3.66.5-3.66a10.39,10.39,0,0,1,3.33,0C270.09,380.75,269.76,379.08,269.76,379.08Z" transform="translate(-216.58 -295.97)"/><path d="M342.31,325l-1.11-.88c-15.1,19.2-39.29,37.36-39.53,37.54l.84,1.14C302.76,362.63,327.1,344.37,342.31,325Z" transform="translate(-216.58 -295.97)"/><path d="M312.1,354.94l-.35-1.38a23.43,23.43,0,0,1-6.75.65l-.15,1.41A24.92,24.92,0,0,0,312.1,354.94Z" transform="translate(-216.58 -295.97)"/><path d="M361.59,337.21l-8.15-.28-6.68-.22a1.67,1.67,0,0,1-.79-.14c0-.69.33-12.47.33-12.47l-1.42,0-.34,13.06.13.19a2.36,2.36,0,0,0,2.09.82l6.63.22,8.2.28Z" transform="translate(-216.58 -295.97)"/><path d="M346,326.36l-1.11-.89c-.18.23-18.33,22.75-37,36.2l.83,1.15C327.53,349.26,345.79,326.59,346,326.36Z" transform="translate(-216.58 -295.97)"/><path d="M345.83,331.83l-1.15-.83c-.14.21-14.66,20.37-34.63,32.65l.74,1.2C331,352.42,345.69,332,345.83,331.83Z" transform="translate(-216.58 -295.97)"/><path d="M345.84,337.31l-1.17-.79a109.39,109.39,0,0,1-33.76,29.78l.69,1.23A110.67,110.67,0,0,0,345.84,337.31Z" transform="translate(-216.58 -295.97)"/><path d="M352,338.17l-1.14-.84c-.11.15-11.72,15.57-36.29,30.48l.73,1.21C340.12,354,351.88,338.33,352,338.17Z" transform="translate(-216.58 -295.97)"/><path d="M356.5,338.33l-1.16-.82c-.12.17-12.73,17.7-39.42,31.95l.67,1.25C343.59,356.3,356.38,338.5,356.5,338.33Z" transform="translate(-216.58 -295.97)"/><path d="M362.27,339.24l-1-1c-.16.16-16.11,16.45-45,32.37l.68,1.24C346,355.84,362.11,339.41,362.27,339.24Z" transform="translate(-216.58 -295.97)"/><path d="M267.12,370.14a67,67,0,0,1-23.06-26.2c-4.18-8.6-5.24-18.51-5.24-26.36a85.3,85.3,0,0,1,1-13.52l.36,0c1,3.69,7.34,24.37,31.31,40.15l.78-1.18C246.55,326,241.5,303.33,241.45,303.1l-.13-.63-2.66.3-.1.51c0,.23-4.44,23.44,4.23,41.28a68.4,68.4,0,0,0,23.61,26.8Z" transform="translate(-216.58 -295.97)"/><path d="M352.37,303.77l-1.23-.71c-.57,1-5.57,9.67-5.92,11.74l1.4.23C346.85,313.66,350.19,307.54,352.37,303.77Z" transform="translate(-216.58 -295.97)"/><path d="M351.18,305.74l-.52-1.32c-.77.31-19,7.52-20.39,8.2l.64,1.26C331.94,313.37,344.62,308.33,351.18,305.74Z" transform="translate(-216.58 -295.97)"/><path d="M360.13,306.82l-1.41-.14c-.13,1.27-1.81,5.2-2.44,6.61l1.29.59C357.81,313.34,360,308.55,360.13,306.82Z" transform="translate(-216.58 -295.97)"/><path d="M362.23,346.44l-1-1.05s-4.91,4.28-17.89,8l.4,1.36C357.12,350.93,362,346.63,362.23,346.44Z" transform="translate(-216.58 -295.97)"/><path d="M362.86,349.13l-1.2-.76c-.15.24-15.18,23.69-41.75,30.86l.36,1.37C347.39,373.28,362.71,349.37,362.86,349.13Z" transform="translate(-216.58 -295.97)"/><path d="M292.94,397.65a2.21,2.21,0,0,0,.12-1.88l-1.29.6s.11.29-.16.77c-.57,1-2.81,3.07-11.34,4.92l.3,1.38C287.68,401.9,291.84,400,292.94,397.65Z" transform="translate(-216.58 -295.97)"/><path d="M292.81,400.49a3.1,3.1,0,0,0-.52-2.88l-1.07.94a1.64,1.64,0,0,1,.23,1.54c-.4,1.22-2.43,3.6-11.53,5.8l.34,1.38C287.75,405.46,292,403.17,292.81,400.49Z" transform="translate(-216.58 -295.97)"/><path d="M291.38,405.47a5,5,0,0,0,.72-3.93l-1.35.42a3.67,3.67,0,0,1-.59,2.8c-1,1.56-3.6,3.62-10.34,4.62l.21,1.4C285.9,409.91,289.72,408.12,291.38,405.47Z" transform="translate(-216.58 -295.97)"/><path d="M292.89,408.37c.35-2.14-1.66-3.49-1.74-3.55l-.79,1.19a2.47,2.47,0,0,1,1.13,2.14c-.21,1.22-2,3.65-11.75,6.25l.37,1.37C288.25,413.6,292.43,411.18,292.89,408.37Z" transform="translate(-216.58 -295.97)"/><path d="M293.6,412.81a2.14,2.14,0,0,0-.18-1.89,3.77,3.77,0,0,0-2.58-1.37l-.17,1.4a2.57,2.57,0,0,1,1.56.73.73.73,0,0,1,0,.68c-.47,1.42-3.39,3.43-8.82,4.7l.32,1.38C289.16,417.18,292.84,415.07,293.6,412.81Z" transform="translate(-216.58 -295.97)"/><path d="M299.54,413.72a1.31,1.31,0,0,0-.51-1.36c-1.71-1.33-5.79-.56-6.25-.47l.28,1.39c1.48-.3,4.15-.5,5.07.19-.25.79-3.86,3-11.53,4.76l.32,1.38C292.86,418.24,299.07,415.88,299.54,413.72Z" transform="translate(-216.58 -295.97)"/><path d="M309,390.49a1.61,1.61,0,0,0-.75-1.52l-.74,1.21a.2.2,0,0,1,.07.21c-.07.46-1.12,3-15.43,8.19l.48,1.34C303.46,396,308.81,392.93,309,390.49Z" transform="translate(-216.58 -295.97)"/><path d="M308.81,394.57a2.55,2.55,0,0,0-1.61-2.31l-.56,1.31s.78.35.75.94c0,.74-1.3,3.51-16,8.23l.44,1.35C303.12,400.46,308.69,397.34,308.81,394.57Z" transform="translate(-216.58 -295.97)"/><path d="M302.11,403.2c3.46-2,5-3.55,5-4.93a1.57,1.57,0,0,0-.87-1.33l-.62,1.27a.15.15,0,0,1,.07.14c0,.19-.21,1.29-4.27,3.62-6.42,3.69-9.24,4.24-9.27,4.25l.25,1.39C292.5,407.59,295.41,407.05,302.11,403.2Z" transform="translate(-216.58 -295.97)"/><path d="M305.79,401.17l-1.41.15a2.55,2.55,0,0,1-.92,2.06l.93,1.07A4,4,0,0,0,305.79,401.17Z" transform="translate(-216.58 -295.97)"/><path d="M309.2,400.8c7.27-5.88,9.59-5.2,10.71-4.67.09.2.21.44.21.44l1.27-.64-.44-.88-.21-.1c-2.1-1.05-5.07-1.2-12.43,4.75a52,52,0,0,1-16.58,8.7l.38,1.37A52.81,52.81,0,0,0,309.2,400.8Z" transform="translate(-216.58 -295.97)"/><path d="M338,394.15c.44-.23,1.37-.8,1.39-1.67v0c0-.39-.18-.92-1-1.34-2.17-1.09-5.67.41-8.3,1.9a17.08,17.08,0,0,0-10.93,3.32l-5,3.89c-5,4-11.18,8.9-17.17,11.54l.3,1.35c.32,0,8-.23,17.19-5.76a65,65,0,0,0,12.17-9.61,25,25,0,0,1,4-3.39c3.28-1.89,5.89-2.62,7.16-2l.16.11a2.1,2.1,0,0,1-.64.45l-.14.07-.1.12c-13.1,15.62-38.18,30.07-51.61,29.74-7.71-.18-12.8-1.53-15.12-4a5.63,5.63,0,0,1-1.52-4.27c.16-4.65,3.67-7.35,5.56-8.8,2.29-1.76,3.1-4.08,2.53-5.21a16.27,16.27,0,0,0-1.77-2.32l-1.06.94a15.18,15.18,0,0,1,1.56,2c.12.28-.13,1.92-2.13,3.46s-5.92,4.56-6.11,9.87a7.1,7.1,0,0,0,1.91,5.3c2.62,2.78,7.9,4.23,16.12,4.43C299.15,424.63,324.69,410,338,394.15Zm-12.39,2.58a63.16,63.16,0,0,1-11.93,9.41,40.59,40.59,0,0,1-12.43,5A113.13,113.13,0,0,0,315,401.34l5-3.85a16,16,0,0,1,8.09-3C327.34,395.13,326.55,395.87,325.65,396.73Z" transform="translate(-216.58 -295.97)"/><path d="M362.7,375.44l-1.22-.72c-.18.31-18.27,30.91-25.05,47.77l1.32.52C344.48,406.26,362.52,375.75,362.7,375.44Z" transform="translate(-216.58 -295.97)"/><path d="M353.78,413.93c-1.33-5.87-3.32-15.06-3.32-16.35h-1.41c0,1.86,3,15.15,3.35,16.66Z" transform="translate(-216.58 -295.97)"/><path d="M348.19,400.62l-.2-1.41c-.12,0-12,1.67-15.1,1.83l.07,1.42C336.12,402.29,347.7,400.69,348.19,400.62Z" transform="translate(-216.58 -295.97)"/><path d="M359.36,381l-.21-1.4c-.11,0-11.11,1.65-14.15,1.33l-.15,1.41C348.07,382.63,358.9,381,359.36,381Z" transform="translate(-216.58 -295.97)"/><path d="M317.63,511.22c0-.46-1.86-46.58,9.3-79.07l-1.34-.46c-11.25,32.74-9.39,79.13-9.38,79.59Z" transform="translate(-216.58 -295.97)"/><path d="M316.94,502.3l9.25.82.13-1.41-9.41-.84h-.09c-3.58.5-9.44,1.31-9.91,1.33v1.41C307.43,503.62,314.63,502.62,316.94,502.3Z" transform="translate(-216.58 -295.97)"/><path d="M317.41,489.22c1.15-.58,7.18-1.67,11-2.27l-.22-1.4c-.95.15-8.94,1.43-11.09,2.29l-13.28-3.44-.38,1.36,13.77,3.58Z" transform="translate(-216.58 -295.97)"/><path d="M318.37,472.07c3.25-1.37,11.12-3.86,11.77-3.95l-.05-1.41a113.6,113.6,0,0,0-12,4c-1.2-.38-9.27-3-11.55-3.9l-.53,1.31c2.5,1,11.5,3.9,11.88,4l.25.08Z" transform="translate(-216.58 -295.97)"/><path d="M321.41,452.88a81.22,81.22,0,0,1,8.95-1.6l-.2-1.4a92.57,92.57,0,0,0-9.14,1.65c-1.39-.11-10.35-.82-11.84-.65l.16,1.41c1.05-.12,7.57.33,11.69.67h.2Z" transform="translate(-216.58 -295.97)"/><path d="M323.51,440.92c-.42-.16-10.26-3.86-13.44-4.53l-.29,1.39c3.08.64,13.13,4.43,13.23,4.47Z" transform="translate(-216.58 -295.97)"/><path d="M299.57,439.28l-.29-1.39c-.08,0-7.76,1.63-11.74,1a16,16,0,0,1-3.61-1.17,15.75,15.75,0,0,0-10.83-1.15l.31,1.38a14.37,14.37,0,0,1,10,1.08,17.43,17.43,0,0,0,3.92,1.26C291.56,441,299.25,439.34,299.57,439.28Z" transform="translate(-216.58 -295.97)"/><path d="M285.2,439.91l4.31-1.83c5-1.9,7.75-2.77,9.86-2.62l.1-1.42c-2.37-.17-5.27.74-10.46,2.71l-4.39,1.86c-3.34,1.5-6.79,3-9.33,2.93a14.71,14.71,0,0,1-6.79-2.37l-.82,1.16a16.06,16.06,0,0,0,7.55,2.63C278.1,443.08,281.55,441.54,285.2,439.91Z" transform="translate(-216.58 -295.97)"/><path d="M268.53,452.38c-.15-.24-3.55-5.74-5.72-8.41a119.72,119.72,0,0,1-8.75-14.52l-1.28.6c1.52,3.21,6.7,12.07,8.93,14.81s5.58,8.21,5.61,8.26Z" transform="translate(-216.58 -295.97)"/><path d="M259.11,448a32,32,0,0,0,4-1.59c2.31-1.24,5.16-7.15,5.47-7.82l-1.28-.6c-.8,1.7-3.25,6.31-4.86,7.18a35.66,35.66,0,0,1-3.78,1.5c-2.47.88-4.81,1.71-5.72,2.62l1,1C254.61,449.57,257.11,448.68,259.11,448Z" transform="translate(-216.58 -295.97)"/><path d="M255.25,521.77a5.45,5.45,0,0,0,4.27-5.63s0-.06,0-.1a9.78,9.78,0,0,0,6.85-4.42,6.06,6.06,0,0,0,1-3.28c0-3.17-2.39-5.92-3.46-7a10.83,10.83,0,0,0,1.59-8.23,5.75,5.75,0,0,0-4.49-4.72c-2.53-.48-5.07.82-6.8,3.47-2.35,3.62-.46,7.84-.38,8l1.29-.59s-1.64-3.7.28-6.65c1.4-2.16,3.4-3.23,5.35-2.86a4.32,4.32,0,0,1,3.36,3.61,9.48,9.48,0,0,1-1.68,7.57l-.44.52.51.46c.54.49,5.23,4.89,2.71,8.93a8.63,8.63,0,0,1-6.43,3.84l-.78,0,.11.77c0,.17.5,4-3.13,4.88a10.54,10.54,0,0,1-8.13-1.5,5.07,5.07,0,0,1-2.17-3.85c-.3-4.62,3.92-6.73,4.1-6.82l1.11-.54-1-.69a9.94,9.94,0,0,1-3-9.75A87,87,0,0,1,249.42,487c2.12-5.34,4.52-11.4,5.2-15.67,1.18-7.38-.76-15.75-.84-16.11l-1.38.33a52.42,52.42,0,0,1,1.18,10.66,31,31,0,0,1-.36,4.9c-.65,4.11-3,10.09-5.12,15.37a86.9,86.9,0,0,0-3.7,10.41,11.81,11.81,0,0,0-.31,2.68,11.48,11.48,0,0,0,3.15,7.86,8.6,8.6,0,0,0-4,7.1,5.43,5.43,0,0,0,0,.57A6.48,6.48,0,0,0,246,520,11.92,11.92,0,0,0,255.25,521.77Z" transform="translate(-216.58 -295.97)"/><path d="M243.6,480.71c3.44-1.87,4-4.81,4.51-7.92l.5-2.54c.76-3.18,3.79-6.48,6.71-9.67l2.14-2.36c3.63-4.16,3.67-11.17,3.67-11.47h-1.42c0,.07,0,6.78-3.32,10.53l-2.12,2.35c-3,3.32-6.19,6.75-7,10.29l-.52,2.63c-.53,3-.94,5.37-3.79,6.91-1.66.9-3.1,1.09-4.17.57a3.69,3.69,0,0,1-1.79-2.89c-.39-2.48,4.45-4,4.5-4.05l-.41-1.35c-.25.07-6.08,1.89-5.49,5.62a5,5,0,0,0,2.56,3.94C239.17,481.81,241,482.13,243.6,480.71Z" transform="translate(-216.58 -295.97)"/></svg>