<svg id="_4_2" xmlns="http://www.w3.org/2000/svg" viewBox="0 0 153.07 238.11"><defs><style>.cls-1{fill:#ed1c24;}.cls-2{fill:#fff;}</style></defs><title>_4_2</title><rect class="cls-1" width="153.07" height="238.11"/><path class="cls-2" d="M222.78,303.61v203s.5,8.5,11,9.34l116.67.16s9.16.5,9.83-10.33V303s-.17-9-9.33-10.17H232.28S223.28,292.45,222.78,303.61Z" transform="translate(-215 -285.39)"/><path class="cls-1" d="M222.78,329.11s38.17-12.33,38.67-12.33,2.5-.67,3.33.17,17.83,20.33,31.83,51.16S317.78,423,322.28,468.45l-36.67,4.16a400.16,400.16,0,0,0-8.83-44c-6-22.66-24.5-72.91-54.25-97.16Z" transform="translate(-215 -285.39)"/><path d="M232.7,292.24a10.64,10.64,0,0,0-10.63,10.63V506a10.64,10.64,0,0,0,10.63,10.63H350.36A10.64,10.64,0,0,0,361,506V302.87a10.64,10.64,0,0,0-10.63-10.63ZM223.49,506V302.87a9.23,9.23,0,0,1,9.21-9.22H350.36a9.23,9.23,0,0,1,9.21,9.22V506a9.22,9.22,0,0,1-9.21,9.21H232.7A9.22,9.22,0,0,1,223.49,506Z" transform="translate(-215 -285.39)"/><path d="M262.83,315.57l-40.59,13.2v2.81l.21.21c55.49,54.17,62.06,140,62.12,140.87l.05.74L323,469.24l-.05-.68c-7.07-97.28-57.13-151.48-57.62-151.85a4.46,4.46,0,0,0-2.42-1.14ZM263,317a4.26,4.26,0,0,1,1.52.84c.48.4,49.79,53.92,57,150.13l-35.59,3.85c-.73-8.21-9.2-88.83-62.26-140.84v-1.2Z" transform="translate(-215 -285.39)"/><path d="M316,316.61s-7-.33-8.84-7,3.34-8.83,4.67-9,7.5-.66,8.17,6.84S317.45,317.11,316,316.61Z" transform="translate(-215 -285.39)"/><path d="M312.45,329.78s-2.34-4.83-10-4.5-8.34,5-8,7,2.33,5.67,10.16,4.17S312.61,330.61,312.45,329.78Z" transform="translate(-215 -285.39)"/><path d="M330.28,328.11s1-6.83,7.83-7.33,8.84,3.5,9,5-1,5.33-7.16,6S331,330.11,330.28,328.11Z" transform="translate(-215 -285.39)"/><path d="M314.11,344.78s-2.5-4.67-9.83-4.33c-7.83.35-8,5-8,6.33s2.33,5.67,9.33,5S314.11,346.11,314.11,344.78Z" transform="translate(-215 -285.39)"/><path d="M333.78,343.11s1.17-5.5,7.83-5.83,8.17,3.83,8.34,5.33-1.17,5.34-7.34,5.34S334.11,344.61,333.78,343.11Z" transform="translate(-215 -285.39)"/><path d="M317.28,362s-1.83-3.84-9-4.34S300,362,300,363.11s.5,5.5,8.83,5.5S317.28,363,317.28,362Z" transform="translate(-215 -285.39)"/><path d="M336.45,359.78a9.76,9.76,0,0,1,10.5-4.17c7,1.67,7.16,6,6.66,7.5s-3,4.5-9.16,2.84S336.11,361,336.45,359.78Z" transform="translate(-215 -285.39)"/><path d="M320.61,379.61s-3.5-5-9.66-4.16-8.34,5.5-7.84,7.5,2.67,5.66,10,4.33S321,380.28,320.61,379.61Z" transform="translate(-215 -285.39)"/><path d="M336.61,378.11s3-6,9.84-5.16,7.5,5.16,7.33,6.66-2.5,6.17-9,5.34S336.61,379.45,336.61,378.11Z" transform="translate(-215 -285.39)"/><path d="M307,393.11c9-3,13.33,3.17,13.33,3.17s-1.17,5.67-9.67,7.33Z" transform="translate(-215 -285.39)"/><path d="M335.28,394.45a9.42,9.42,0,0,1,9.83-5.84c7.67.5,7.67,6.34,7.5,7.17S351.11,400,344,400,335.28,396.11,335.28,394.45Z" transform="translate(-215 -285.39)"/><path d="M312.28,410.45c7.17.16,9.17,4.83,9.17,4.83a10.4,10.4,0,0,1-6,6.67Z" transform="translate(-215 -285.39)"/><path d="M334.78,414a10.34,10.34,0,0,1,9-3.84c5.67.67,7.17,4.34,7.17,5.34s-1.34,5.33-8.17,4.66S334.45,415.45,334.78,414Z" transform="translate(-215 -285.39)"/><path d="M335,434.45s1-5.84,8-7,9.66,2.5,10.16,4.33-2,5.83-8.66,6.5S335.45,435.61,335,434.45Z" transform="translate(-215 -285.39)"/><path d="M341.61,464.45s-5.16-5.17-2-11.34,7.67-6.83,10.67-5.83,4.33,5.67,2,11S343,465.61,341.61,464.45Z" transform="translate(-215 -285.39)"/><path d="M342.61,482.78s1.34-6.83,7.67-7.33,8.5,2.33,8.83,4.66-.66,6.5-7.83,7.17S342.78,483.78,342.61,482.78Z" transform="translate(-215 -285.39)"/><path d="M324.11,487.45a9.72,9.72,0,0,0,4.17-9.17c-.83-6-5.33-6.83-8-6.33s-5.33,4.5-3.5,9.33A9.55,9.55,0,0,0,324.11,487.45Z" transform="translate(-215 -285.39)"/><path d="M336.61,500.45s2.17-6,7.5-7.84,9.17,1.67,9.5,4-.66,6.17-6.66,7.17S337.61,502.11,336.61,500.45Z" transform="translate(-215 -285.39)"/><path d="M314,503.78s4.5-2.5,3-8.83-5.84-6.34-8.5-6-5.5,4.33-3.5,9.16S312.45,503.61,314,503.78Z" transform="translate(-215 -285.39)"/><path d="M331.28,515.78a9.45,9.45,0,0,1,8.17-7c6.83-.83,9,4.33,6.83,7Z" transform="translate(-215 -285.39)"/><path d="M301.45,483s-3.5-3.5-2.34-7.34a6.75,6.75,0,0,1,5.17-5,52.62,52.62,0,0,1,6.5-.33,12.58,12.58,0,0,1-.5,8.17C308.45,482.28,304.78,484.45,301.45,483Z" transform="translate(-215 -285.39)"/><path d="M291,510s3-5,.66-9.84a7,7,0,0,0-10.16-3c-2.5,1.84-2.5,7.5.16,10.67S289.78,510.45,291,510Z" transform="translate(-215 -285.39)"/><path d="M286.11,487.28s1.34-6-5-9.67-10.16,1-10.5,2-1.33,7.17,6,9.5S285.78,488.28,286.11,487.28Z" transform="translate(-215 -285.39)"/><path d="M265.78,516.11a11.55,11.55,0,0,1-5-6.83c-1-4.5,4-7,9-4.67s7.83,8.5,8,11.17Z" transform="translate(-215 -285.39)"/><path d="M267.78,505.11s-2.5-5.66.33-10,7.5-4.83,9.5-3.16,2.34,6.33,0,9.33a11.67,11.67,0,0,1-8.16,4.33C267.45,505.61,267.78,505.11,267.78,505.11Z" transform="translate(-215 -285.39)"/><path d="M236.78,515.78s-.67-4.83,5.33-5.83,12.17,4.33,13.17,5.83Z" transform="translate(-215 -285.39)"/><path d="M243.45,504.28a11.9,11.9,0,0,0-8.67-8.33c-7.33-2-10.33,3-10.33,4.5s.5,6,8.5,7.16S242.61,505.78,243.45,504.28Z" transform="translate(-215 -285.39)"/><path d="M256,496s-3.84-3.67-2.5-10.34,5.83-8,8.66-7.16,5.84,5.33,3,11.16S257.28,497,256,496Z" transform="translate(-215 -285.39)"/><path d="M245.78,474.11s-4.83-4.16-3.33-9.5,5.83-7,8.83-5.83,4.83,4.67,3,9.83S247.28,475.28,245.78,474.11Z" transform="translate(-215 -285.39)"/><path d="M235.78,468.78s-5.83.33-8.67-6.33,1.5-10.84,3.17-11.34,7,.67,8.5,7.34S236.61,468.78,235.78,468.78Z" transform="translate(-215 -285.39)"/><path d="M223,474.28c.5-.33,4.33-1.17,8.5,1.5s5,8.67,5,8.67-6.84,4.5-13.5,1.66Z" transform="translate(-215 -285.39)"/><path d="M285,468.28c-.5.83-5.84,2.67-10.67-.67a12.7,12.7,0,0,1-5.33-8.5,12.71,12.71,0,0,1,7.33-1.83c4.5.17,6.83,2.17,7.5,3.5Z" transform="translate(-215 -285.39)"/><path d="M266.45,442.28s-.34,4.5,4.5,8a11.57,11.57,0,0,0,11.16,1.17s-1.16-7.84-1.83-9.5S270.28,437.78,266.45,442.28Z" transform="translate(-215 -285.39)"/><path d="M261.28,422s.17,3.83,5.17,7,10,1.5,10.66.83c0,0-1.83-8-2.33-8.67S265.78,416.28,261.28,422Z" transform="translate(-215 -285.39)"/><path d="M270.61,408.78s-3,2.67-8.33,1.5a8.66,8.66,0,0,1-6.5-6s.67-2.33,4-3.67a10.68,10.68,0,0,1,8,.5S269.61,405.61,270.61,408.78Z" transform="translate(-215 -285.39)"/><path d="M262.61,389s-2.5,4.16-8.33,2.5-6.5-5.67-6.5-5.67a13.12,13.12,0,0,1,4.83-4.5c3.34-1.83,6.84,1,6.84,1Z" transform="translate(-215 -285.39)"/><path d="M240.45,376.45s-7.17-2.17-7-9.34S237,358,240,358s6.16,3.16,6.33,8.83S242.28,376.28,240.45,376.45Z" transform="translate(-215 -285.39)"/><path d="M222.61,386c.67-2.17,2.67-4.34,7.5-3.67s7.34,5.67,7.34,5.67-.84,4-5.84,5.5-8.16.33-9.33-1.84l.67-5.16" transform="translate(-215 -285.39)"/><path d="M222.45,403.45c.66-2,3.66-3.84,8.83-3.17s8.17,5.33,8.17,5.33a10.08,10.08,0,0,1-8.34,5.34c-6.16.5-8-1.67-8.16-2.5Z" transform="translate(-215 -285.39)"/><path d="M241.61,422.45s-1.83-4.84-8.5-5.17-8.66,3.67-8.33,6.5,2.33,4.83,8.83,4.17S241.61,424.11,241.61,422.45Z" transform="translate(-215 -285.39)"/><path d="M244.78,438.11s-2.83-4.5-9.83-4.5-9,3.84-9,5.67,1.16,6.5,10,5.5S244.78,439.28,244.78,438.11Z" transform="translate(-215 -285.39)"/><path d="M315.59,315.86c.06.25,6,25.45,8.24,45.91l0,.26c2.27,20.85,5.68,52.37-2.27,106.48l1.4.21c8-54.29,4.55-85.92,2.28-106.85l0-.25C323,341.06,317,315.79,317,315.53Z" transform="translate(-215 -285.39)"/><path d="M319,328.74l-8.22.5.08,1.41,8.25-.5,12-1.25-.14-1.41Z" transform="translate(-215 -285.39)"/><path d="M321.76,342.74c-.08,0-9.08,1.25-9.08,1.25l.2,1.41,9-1.25,14.17-.5,0-1.41Z" transform="translate(-215 -285.39)"/><path d="M324,360.24l-7.78,1.26.22,1.4,7.75-1.25c5.16-.6,13.08-1.49,13.64-1.5v-1.41C337,358.74,325.28,360.09,324,360.24Z" transform="translate(-215 -285.39)"/><path d="M326.22,378.24l-7.53,1,.18,1.41,7.5-1,12.22-1-.12-1.41Z" transform="translate(-215 -285.39)"/><path d="M326.7,394.74l-8.73.75.12,1.41,8.75-.75c1.13-.13,10.85-1.26,11.86-1.52l-.34-1.37C337.66,393.43,331,394.24,326.7,394.74Z" transform="translate(-215 -285.39)"/><path d="M327,413.74l-7.53.5.1,1.41,7.5-.5h0l10-.25,0-1.41Z" transform="translate(-215 -285.39)"/><path d="M325.78,437l.5,1.33c1-.39,10.1-3.79,11.36-4.56l-.72-1.21C336,433.12,329.78,435.54,325.78,437Z" transform="translate(-215 -285.39)"/><path d="M316.44,515.55l1.18.8c16.86-24.81,25.5-53.17,25.59-53.45l-1.36-.41C341.77,462.77,333.18,490.93,316.44,515.55Z" transform="translate(-215 -285.39)"/><path d="M322.83,485.54c0,.11,1.51,11.56,2.25,15.78l1.4-.25c-.74-4.18-2.23-15.6-2.25-15.71Z" transform="translate(-215 -285.39)"/><path d="M324.37,503.26l.32,1.38c.49-.11,12.1-2.79,16.36-4.54l-.54-1.31C336.36,500.5,324.49,503.23,324.37,503.26Z" transform="translate(-215 -285.39)"/><path d="M333.84,484.52l.38,1.36c.44-.12,10.58-3,12.85-4l-.58-1.29C344.31,481.52,333.94,484.49,333.84,484.52Z" transform="translate(-215 -285.39)"/><path d="M312.62,502.21c.76,1.89,4.56,11.36,5.07,12.13l1.18-.78c-.37-.59-3.22-7.6-4.93-11.88Z" transform="translate(-215 -285.39)"/><path d="M291.12,472.19a386.78,386.78,0,0,1,12.47,43.91l1.38-.31a383.33,383.33,0,0,0-12.53-44.09Z" transform="translate(-215 -285.39)"/><path d="M284,487.84c.13.05,12.48,6,14.67,7.45l.78-1.18c-2.26-1.51-14.32-7.31-14.83-7.55Z" transform="translate(-215 -285.39)"/><rect x="294.91" y="485.36" width="10.74" height="1.42" transform="translate(-481.87 269.72) rotate(-65.23)"/><path d="M289.07,509c.28.23,6.87,5.83,10.66,7.6l.6-1.29c-3.62-1.68-10.27-7.34-10.34-7.39Z" transform="translate(-215 -285.39)"/><path d="M234.11,466.68c.1.27,9.72,27.11,25.85,49.43l1.14-.83c-16-22.15-25.56-48.8-25.65-49.07Z" transform="translate(-215 -285.39)"/><path d="M243.82,487.9l1.42.09a106.69,106.69,0,0,1,2.23-15.38l-1.38-.32A108.14,108.14,0,0,0,243.82,487.9Z" transform="translate(-215 -285.39)"/><path d="M233.07,483.87c.36.12,8.8,2.77,10.07,3l.28-1.39c-1-.2-7.5-2.22-9.93-3Z" transform="translate(-215 -285.39)"/><path d="M253,504c-2,0-12.77-1.23-12.88-1.25l-.16,1.41c.45.05,11.06,1.26,13.08,1.26s3.62-6.59,4.45-12.11l-1.4-.21C255.24,498.63,253.83,503.6,253,504Z" transform="translate(-215 -285.39)"/><path d="M239.58,373.3c.1.69,10.28,69.82,33.1,107l1.2-.74c-22.66-36.95-32.8-105.79-32.9-106.48Z" transform="translate(-215 -285.39)"/><path d="M242.22,385.74l-7.6,1.77.32,1.38,7.5-1.75,8.15-.74-.12-1.41Z" transform="translate(-215 -285.39)"/><path d="M246.22,404.74H236v1.41h10.31l12.06-2-.24-1.4Z" transform="translate(-215 -285.39)"/><path d="M238.72,421.74l.12,1.41,11.75-1c.38,0,11.44.51,12.44.51v-1.42c-1,0-12.35-.5-12.47-.5Z" transform="translate(-215 -285.39)"/><path d="M242.75,438.65l12.16.5c.84.24,11.22,3.28,14,4.91l.72-1.23c-3-1.77-13.95-4.93-14.41-5.06l-.09,0-12.33-.5Z" transform="translate(-215 -285.39)"/><path d="M262.07,457.62c2.28.7,8.46,2.62,9.64,3.21l.64-1.27c-1.54-.77-9.52-3.19-9.86-3.29Z" transform="translate(-215 -285.39)"/></svg>