<svg id="_4_3" xmlns="http://www.w3.org/2000/svg" viewBox="0 0 153.07 238.11"><defs><style>.cls-1{fill:#ed1c24;}.cls-2{fill:#fff;}</style></defs><title>_4_3</title><rect class="cls-1" width="153.07" height="238.11"/><path class="cls-2" d="M230.72,315.15v205.5s.25,9.5,11,9.5,114.75-.25,114.75-.25,10,2.25,10.75-11.75,0-202.5,0-202.5-.67-8.5-10.5-9H240.89S231.72,307,230.72,315.15Z" transform="translate(-222.51 -299.34)"/><path d="M240.64,305.94A10.64,10.64,0,0,0,230,316.57V520.23a10.64,10.64,0,0,0,10.63,10.63H357.3a10.64,10.64,0,0,0,10.63-10.63V316.57a10.64,10.64,0,0,0-10.63-10.63Zm-9.21,214.29V316.57a9.22,9.22,0,0,1,9.21-9.21H357.3a9.22,9.22,0,0,1,9.21,9.21V520.23a9.22,9.22,0,0,1-9.21,9.21H240.64A9.22,9.22,0,0,1,231.43,520.23Z" transform="translate(-222.51 -299.34)"/><path d="M298.72,350.4s-6-2.5-5.25-10.25,6.25-8,7.75-7.75,6.25,2.25,4.5,9.5S299.72,350.4,298.72,350.4Z" transform="translate(-222.51 -299.34)"/><path d="M285,361.15s-.5-5.5-4.75-7.25-7.75-.5-8.5,1.75.25,5.75,4.75,7.25S285,361.9,285,361.15Z" transform="translate(-222.51 -299.34)"/><path d="M305.22,361.9s0-5.75,6.5-6.75,7.75,3,8,4.25-.25,4.5-6.25,5.5S305.22,361.9,305.22,361.9Z" transform="translate(-222.51 -299.34)"/><path d="M285.22,378.4a10.46,10.46,0,0,0-4.5-9.75c-5.5-4-10.5-1-11.25,1s-.5,6.75,5.25,9.25S285,379.4,285.22,378.4Z" transform="translate(-222.51 -299.34)"/><path d="M303.47,380.65s1.5-5.5,6.25-7.25,8.75,0,9.5,2.5-.25,5.5-5.25,7.25S304.22,382.15,303.47,380.65Z" transform="translate(-222.51 -299.34)"/><path d="M283.72,393.15s-.5-6-5.5-8.75-9.75-.75-10.75,2.75,1,6.75,6.25,8.25S283.22,394.65,283.72,393.15Z" transform="translate(-222.51 -299.34)"/><path d="M299.47,399.9s2.5-5.5,8-6.5,8.25,2,8.5,4.75-1.5,5.75-7.25,6.25S300,401.9,299.47,399.9Z" transform="translate(-222.51 -299.34)"/><path d="M283.47,406.65a8.86,8.86,0,0,0-7.5-5.5c-5.75-.5-8.25,2.75-7.75,6.25s3.75,4.5,7.75,4S283.72,408.9,283.47,406.65Z" transform="translate(-222.51 -299.34)"/><path d="M302.72,415.15a7.78,7.78,0,0,1,7.5-3.5c5.25.5,6.5,3,6,6s-3,4.25-7.75,3.5S302.72,416.9,302.72,415.15Z" transform="translate(-222.51 -299.34)"/><path d="M285,421.9a8.83,8.83,0,0,0-7.75-6.5c-6.5-.75-7.5,3-7.75,5.25s1.75,4.75,8,5.25S285,423.4,285,421.9Z" transform="translate(-222.51 -299.34)"/><path d="M302,432.15a10.75,10.75,0,0,1,8.25-5c5.5-.25,7.25,2.75,7.75,5.75s-2.25,5.25-7.25,5.5S302.47,435.65,302,432.15Z" transform="translate(-222.51 -299.34)"/><path d="M285,436.4s-2.5-5.5-7-7-8.25,1.5-8.25,4.5,1.75,5.5,7.25,6S285.22,437.9,285,436.4Z" transform="translate(-222.51 -299.34)"/><path d="M293.72,462.15s-6.75-3.75-6.75-10,3.25-9.5,7.25-9.25,7.25,3.75,6.75,9.5S295.72,462.4,293.72,462.15Z" transform="translate(-222.51 -299.34)"/><path d="M344.72,385.65s-6.75-2-8.5-7.25,1-8.75,4.5-9.25,7.25,1.75,8,6.75S347.22,385.4,344.72,385.65Z" transform="translate(-222.51 -299.34)"/><path d="M335.72,399.4s-1.25-6-6-8-9.75-.5-10.75,3.25,2.25,7,7.75,8.25A8,8,0,0,0,335.72,399.4Z" transform="translate(-222.51 -299.34)"/><path d="M367,391.4c-.25-1.25-2.75-3.75-8.5-2.5s-6,9-6,9,2.25,2.5,7,2.25,7.75-2.5,7.75-4Z" transform="translate(-222.51 -299.34)"/><path d="M353.22,415.15s0-6.5,5-7.75,6.75,0,7.75,2.5-.25,5.25-4.5,7.25S354.47,416.4,353.22,415.15Z" transform="translate(-222.51 -299.34)"/><path d="M336.72,414.15s-2.5-6-8-6.75-8.5,2-8.75,5,1.75,6.5,7.25,7S336.47,415.9,336.72,414.15Z" transform="translate(-222.51 -299.34)"/><path d="M337,434.65a10.08,10.08,0,0,0-6-8c-5.5-2.25-9.25,1-10,3.25s1,6.75,7.25,7.75S337,435.65,337,434.65Z" transform="translate(-222.51 -299.34)"/><path d="M352.22,433.65s.5-6.5,5.25-8.25,8-.75,9.25,2.75-1.5,6.75-5.25,8S353.47,435.15,352.22,433.65Z" transform="translate(-222.51 -299.34)"/><path d="M335,450.4s-2.5-5.5-8-7-9.25,2.25-9.25,5.25,1.25,5.75,8.25,6.5S334.72,452.4,335,450.4Z" transform="translate(-222.51 -299.34)"/><path d="M367.22,442.65c-1-1.5-3-2.5-7-.75s-5,6.75-5,6.75a8.05,8.05,0,0,0,5.5,3.25c3.75.5,6.25-.75,6.5-2Z" transform="translate(-222.51 -299.34)"/><path d="M258.47,420.4s-.5-6,4.25-8.25,7.5-.75,9.25,2.5-1.75,6.25-4.75,7.25A9.32,9.32,0,0,1,258.47,420.4Z" transform="translate(-222.51 -299.34)"/><path d="M249,415.15s-5.27,1.75-10.25-3.75c-4.75-5.25-3-11.25.75-12.75s8.25,2,9.75,5.5S250.72,414.4,249,415.15Z" transform="translate(-222.51 -299.34)"/><path d="M250.47,426.9a12.44,12.44,0,0,0-11-.25,8.05,8.05,0,0,0-4.75,9.75c.5,1.25,5.5,4,11-.25S251.72,428.65,250.47,426.9Z" transform="translate(-222.51 -299.34)"/><path d="M248,461.15a11,11,0,0,1-8.5-6.75c-2.75-6.25,2.25-9.75,3.75-9.75s6.25-.75,8.25,6.5S249.72,461.4,248,461.15Z" transform="translate(-222.51 -299.34)"/><path d="M303.22,444.4s5.5-2.5,9.75,0,5,7.25,2.75,9.5-7,2.25-10-.5S301.72,445.4,303.22,444.4Z" transform="translate(-222.51 -299.34)"/><path d="M264.22,475.4s-5.5-4.25-4-9.75,6.5-7.25,10.5-5,3.75,7.5,1,10.5S266,475.4,264.22,475.4Z" transform="translate(-222.51 -299.34)"/><path d="M230.72,473.65c.5-1.25,3.25-3.25,8-1.5s6.5,7.75,6.5,7.75-1.75,3-7,3-6.75-2-7.5-3Z" transform="translate(-222.51 -299.34)"/><path d="M288.47,474.65s2.5-6.5-.75-10.5-8-4.25-11-1.5-1.25,9.25,3.75,11.75S288.47,474.65,288.47,474.65Z" transform="translate(-222.51 -299.34)"/><path d="M301.22,476.15s-1.5-6.75,3-10.75,9.75-3,11.5,0,1,7.5-4.75,10S303.22,476.9,301.22,476.15Z" transform="translate(-222.51 -299.34)"/><path d="M337.47,472.9a12.53,12.53,0,0,0-7.5-7c-4.22-1.47-11,.5-10.75,5.25s3.75,6.25,10,6.25S337.22,474.15,337.47,472.9Z" transform="translate(-222.51 -299.34)"/><path d="M367.22,465.9c-.25-1.5-1.5-4.25-7.25-4.5a8.54,8.54,0,0,0-8,4.5s-.25,3.5,5.75,6.5,9.5-1,9.5-1Z" transform="translate(-222.51 -299.34)"/><path d="M268.72,489.65s-4.75-3.5-3.25-9,5-7.5,8.75-6,3.5,7.25,2,10S271.22,490.9,268.72,489.65Z" transform="translate(-222.51 -299.34)"/><path d="M252.22,496.15s-1-5.75-6-7.5-9.25,2.25-9.25,5,2.25,6,7.75,6S252.22,496.15,252.22,496.15Z" transform="translate(-222.51 -299.34)"/><path d="M289,493.9s.5-5.75-3-9.5-6.75-3.25-10-.5-.25,6.75,2.25,9.25S288,496.15,289,493.9Z" transform="translate(-222.51 -299.34)"/><path d="M306.72,489.65s-2.25-6,1.25-10.5,9.5-5.5,11.75-3.25a7.52,7.52,0,0,1-1.5,11.25C313.47,490.65,309.22,490.65,306.72,489.65Z" transform="translate(-222.51 -299.34)"/><path d="M335.22,486.15a9.35,9.35,0,0,0-6.5-5.75c-5.25-1.5-8.75,2-9.25,3.25s-.25,7,7.25,7.5S335,487.4,335.22,486.15Z" transform="translate(-222.51 -299.34)"/><path d="M354.22,494.65a11.3,11.3,0,0,0,2.5-10.25c-1.5-6.25-6.5-7.25-10-5.5s-3.75,7.5-.25,11.5A12.2,12.2,0,0,0,354.22,494.65Z" transform="translate(-222.51 -299.34)"/><path d="M343.72,510.4s-8.5-1.25-9.25-7.75,2-9.75,6.25-10.5,7.25,2.25,7.25,8.5S345.47,510.15,343.72,510.4Z" transform="translate(-222.51 -299.34)"/><path d="M309.47,511.4s-2.25-6.25,1.25-10.75,9.25-4.25,12-.25-.25,8-3.25,10S311.72,512.9,309.47,511.4Z" transform="translate(-222.51 -299.34)"/><path d="M291.72,513.9a10.2,10.2,0,0,0-.5-9.25c-2.75-5-8.5-5.25-11-3.25s-3.25,7.75,1.25,11.25S290.22,514.4,291.72,513.9Z" transform="translate(-222.51 -299.34)"/><path d="M263.72,515.9a13.44,13.44,0,0,0-6.25-8.5c-5.5-3.5-10,1.5-10.5,3.25s-.5,7,7.25,7.75S263.72,515.9,263.72,515.9Z" transform="translate(-222.51 -299.34)"/><path d="M248.22,524.4A14.74,14.74,0,0,0,245,513.9c-4-4.75-9.25-1.25-10.75.75s-1.5,7,4.5,9.75S248.22,524.4,248.22,524.4Z" transform="translate(-222.51 -299.34)"/><path d="M310.47,530.15a12.93,12.93,0,0,1,1.75-9.5c3-4.5,8.25-5,11.25-2s.75,10.75-8,11.5C315.47,530.15,309.22,529.65,310.47,530.15Z" transform="translate(-222.51 -299.34)"/><path d="M332.22,524.9s-8-1.5-8.75-6.25.75-9.5,5-10,8,1.75,8.5,7.25A9.51,9.51,0,0,1,332.22,524.9Z" transform="translate(-222.51 -299.34)"/><path d="M366.72,523.65c-6.75-5.25-11.5,1-11.5,1s.75,4,3.25,5.5c0,0,3.75-1,5.5-2.5A11.83,11.83,0,0,0,366.72,523.65Z" transform="translate(-222.51 -299.34)"/><path d="M367.47,503.4c-5.75.25-7,4.75-7,4.75a7.12,7.12,0,0,0,6.75,4.75Z" transform="translate(-222.51 -299.34)"/><path d="M337.72,529.65l1,1c14.16-14.16,29.22-40.89,29.37-41.16l-1.24-.69C366.7,489.07,351.74,515.63,337.72,529.65Z" transform="translate(-222.51 -299.34)"/><path d="M352.6,493c0,.07,4.21,7.7,4.93,10.58l1.38-.35c-.77-3.05-4.89-10.6-5.07-10.91Z" transform="translate(-222.51 -299.34)"/><path d="M342.59,508.71c0,.08,4,8,4.73,9.72l1.3-.56c-.75-1.75-4.6-9.46-4.77-9.79Z" transform="translate(-222.51 -299.34)"/><rect x="332.76" y="522.72" width="1.42" height="7.6" transform="translate(-427.45 -86.74) rotate(-27.41)"/><path d="M342.43,524.94l.08,1.41c.08,0,8.06-.49,15-.49v-1.42C350.53,524.44,342.51,524.94,342.43,524.94Z" transform="translate(-222.51 -299.34)"/><rect x="354.62" y="507.69" width="9.95" height="1.42" transform="translate(-317.44 -216.6) rotate(-11.61)"/><path d="M293,459.42c0,.41,1.38,41.95,11.79,70.72l1.34-.48c-10.34-28.56-11.7-69.87-11.71-70.29Z" transform="translate(-222.51 -299.34)"/><path d="M289,512.43c.45.39,11.09,9.58,13.64,10.85l.64-1.27c-1.92-1-9.57-7.38-13.36-10.65Z" transform="translate(-222.51 -299.34)"/><path d="M302,519.4l1,1c1-1,9.86-10.14,10.87-12.18l-1.26-.63C311.89,509,305.85,515.41,302,519.4Z" transform="translate(-222.51 -299.34)"/><path d="M285.51,492.44c.1.09,10.5,9,12,10.46l1-1c-1.5-1.51-11.61-10.17-12-10.54Z" transform="translate(-222.51 -299.34)"/><path d="M297.43,499.43l1.08.93c.45-.52,11-12.8,12.05-14.32l-1.18-.79C308.61,486.41,301.23,495,297.43,499.43Z" transform="translate(-222.51 -299.34)"/><path d="M294.76,480.86l.92,1.08c.32-.28,8-6.79,9.29-8l-1-1C302.75,474.11,294.84,480.79,294.76,480.86Z" transform="translate(-222.51 -299.34)"/><rect x="289.51" y="469.96" width="1.42" height="12.38" transform="translate(-477.73 60.87) rotate(-46.64)"/><path d="M247,458.28a197.91,197.91,0,0,0,12,38.15,240.71,240.71,0,0,0,18.82,34.37l1.17-.8a239,239,0,0,1-18.69-34.14,194.8,194.8,0,0,1-12-37.84Z" transform="translate(-222.51 -299.34)"/><path d="M259.53,515.33c4.83,1.33,10.17,3,10.77,3.38l.85-1.13c-1-.77-8.86-3-11.24-3.62Z" transform="translate(-222.51 -299.34)"/><path d="M249.19,495.8c4.49,1.91,11.81,5.07,12.39,5.44l.78-1.18c-.76-.51-10.64-4.73-12.61-5.57Z" transform="translate(-222.51 -299.34)"/><path d="M262.13,502.26l1.19.77c.28-.43,6.84-10.7,7.36-15.56l-1.41-.15C268.79,491.85,262.19,502.16,262.13,502.26Z" transform="translate(-222.51 -299.34)"/><path d="M257.41,490.21l1.12.88c3.81-4.83,6.76-18.47,6.88-19l-1.38-.29C264,471.89,261,485.64,257.41,490.21Z" transform="translate(-222.51 -299.34)"/><rect x="247.14" y="473.78" width="1.42" height="12.74" transform="translate(-504.43 287.21) rotate(-74.05)"/><path d="M245.7,523.37s4.73,5.24,6.18,7.42l1.18-.79c-1.51-2.26-6.12-7.36-6.31-7.58Z" transform="translate(-222.51 -299.34)"/><path d="M344.27,383c.05.55,5.16,55.36-1.25,113.36l1.4.15c6.44-58.15,1.31-113.09,1.26-113.64Z" transform="translate(-222.51 -299.34)"/><path d="M332.17,487.1c3.88.26,11.53.8,12.68,1l.24-1.4c-1.52-.25-12.36-1-12.82-1Z" transform="translate(-222.51 -299.34)"/><path d="M335.5,473.07c.34.11,1.46.29,3.58.61,2.27.34,5.7.86,6.38,1.12l.52-1.31a51.76,51.76,0,0,0-6.69-1.22c-1.44-.22-3.08-.46-3.35-.55Z" transform="translate(-222.51 -299.34)"/><path d="M346.17,466.19l.11,1.41c.26,0,6.54-.5,8.06-.75l-.24-1.4C352.65,465.69,346.23,466.19,346.17,466.19Z" transform="translate(-222.51 -299.34)"/><path d="M332.05,450.58c3.89,1,13.78,5.42,13.88,5.46l.58-1.29c-.41-.18-10.1-4.54-14.12-5.54Z" transform="translate(-222.51 -299.34)"/><polygon points="123.86 153.19 124.55 154.42 134.8 148.67 134.11 147.44 123.86 153.19"/><path d="M333.33,433.74c.76.5,11.81,6.15,13.07,6.79l.64-1.26c-4.91-2.51-12.4-6.36-12.93-6.71Z" transform="translate(-222.51 -299.34)"/><path d="M346.68,435.25l.58,1.29c.37-.16,9-4,10-4.51l-.64-1.27C355.68,431.25,346.77,435.21,346.68,435.25Z" transform="translate(-222.51 -299.34)"/><rect x="346.19" y="415.31" width="11.32" height="1.42" transform="translate(-385.15 -62.7) rotate(-30.56)"/><path d="M333.44,414.55c1.79.76,12.89,3.42,13.37,3.54l.33-1.38c-3.19-.76-11.75-2.87-13.14-3.46Z" transform="translate(-222.51 -299.34)"/><polygon points="110.19 99.21 123.43 104.71 123.98 103.4 110.72 97.9 110.19 99.21"/><path d="M345.86,401.29l.72,1.22c.3-.18,7.32-4.3,9.1-5.82l-.92-1.08C353.08,397.05,345.93,401.24,345.86,401.29Z" transform="translate(-222.51 -299.34)"/><path d="M292.26,446.46l1.42-.13c-3.46-38.95,5.65-97.49,5.74-98.07L298,348C297.93,348.63,288.8,407.33,292.26,446.46Z" transform="translate(-222.51 -299.34)"/><path d="M296.17,364.63l-13-4.4-.46,1.34,13.53,4.59.27-.13c3.64-1.82,9.67-4.77,10.35-4.95l-.34-1.37C305.56,360,298.16,363.64,296.17,364.63Z" transform="translate(-222.51 -299.34)"/><path d="M283.07,378.23l11.1,7.75.39-.21c.08,0,8.25-4.49,12.16-6l-.5-1.33a133,133,0,0,0-12,5.84l-10.39-7.25Z" transform="translate(-222.51 -299.34)"/><path d="M280.17,392.29l12.75,6c.43.15,8.88,3,11.15,3.55l.3-1.38c-2.18-.49-10.83-3.45-10.92-3.48l-12.68-6Z" transform="translate(-222.51 -299.34)"/><path d="M281.19,407.36l10.79.49c.89.62,8.54,6,11.8,8.6l.88-1.11c-3.48-2.73-12-8.71-12-8.77l-.17-.12-11.21-.51Z" transform="translate(-222.51 -299.34)"/><path d="M291.92,420.94l-10,.75.1,1.41,9.68-.72c1.72,1.71,10,9.91,11.45,10.65l.64-1.27c-1-.51-7.48-6.78-11.32-10.61l-.23-.23Z" transform="translate(-222.51 -299.34)"/><path d="M282.53,437.33c1.7.48,8.79,1.38,9.7,1.5,5.94,3.69,12.36,7.93,12.89,8.69l1.21-.74c-.78-1.29-10.52-7.4-13.49-9.24l-.13-.08-.15,0c-.08,0-8-1-9.64-1.48Z" transform="translate(-222.51 -299.34)"/><path d="M252.74,355.23c-5.92,2.06-10,7.65-10.72,14.6a9.69,9.69,0,0,0-.06,1.06,6.78,6.78,0,0,0,1.66,4.7,8.64,8.64,0,0,0,5.66,2.49,21.88,21.88,0,0,0-2.16,9.07c0,6,2.81,11.1,5.91,16.74l3.3,6.31a45.38,45.38,0,0,1,4.53,21.16c0,2.7-.12,5.52-.26,8.57l-.09,2.19c-.05,1.22-.07,2.41-.07,3.56a82.38,82.38,0,0,0,1.84,17.89l1.38-.35a80.62,80.62,0,0,1-1.8-17.53c0-1.14,0-2.31.07-3.51L262,440c.13-3.09.26-5.95.26-8.69a46.48,46.48,0,0,0-4.67-21.71l-3.34-6.38c-3-5.44-5.7-10.39-5.7-16.09a21,21,0,0,1,2.43-9.43,11.81,11.81,0,0,0,3.2-.62c4.49-1.5,7.09-4,7.94-7.67a8.16,8.16,0,0,0,1.43-.75,9.88,9.88,0,0,0,3.86-7.72v-.29a5.48,5.48,0,0,0-2.29-4.59C261.91,353.64,256.45,353.94,252.74,355.23Zm-8.08,19.4a5.43,5.43,0,0,1-1.28-3.75,7.13,7.13,0,0,1,.05-.91c.64-6.39,4.38-11.53,9.77-13.4,4.05-1.41,8.72-1.15,11.1.61a4.11,4.11,0,0,1,1.72,3.46,1.85,1.85,0,0,1,0,.23,8.45,8.45,0,0,1-3.27,6.63c-.11.08-.23.11-.34.18a2,2,0,0,1,0-.24c0-.23,0-.44,0-.65,0-1.81-.49-3.09-1.46-3.79s-2.7-.81-4.77,0a3,3,0,0,0-2.25,2.86c.07,1.68,1.74,3.32,4.06,4a5.71,5.71,0,0,0,2.47,0c-.91,2.72-3.09,4.63-6.75,5.85a11.3,11.3,0,0,1-1.16.31,6.81,6.81,0,0,0,1.88-4.12,3.39,3.39,0,0,0-.05-.64,2.13,2.13,0,0,0-1.76-1.94c-1.61-.25-3.88,1.3-5.06,3.48a4.31,4.31,0,0,0-.58,2,2.6,2.6,0,0,0,.47,1.47A6.13,6.13,0,0,1,244.66,374.63Zm13.76-6.16c-1.92-.55-3-1.79-3-2.68s.71-1.24,1.35-1.48c1.09-.42,2.57-.79,3.43-.17a3.32,3.32,0,0,1,.87,2.65c0,.19,0,.38,0,.57a8.7,8.7,0,0,1-.21,1A4.49,4.49,0,0,1,258.42,368.47Zm-9.7,7.18a1.27,1.27,0,0,1-.27-.83,2.88,2.88,0,0,1,.39-1.33c.94-1.73,2.7-2.9,3.59-2.76.13,0,.46.08.59.79a1.72,1.72,0,0,1,0,.39c0,1.64-1.67,3.46-2.66,4.35A2.44,2.44,0,0,1,248.72,375.65Z" transform="translate(-222.51 -299.34)"/><path d="M243,323.36a3.32,3.32,0,0,0-.71,3.29l.89,1.81c.8,1.44,1.55,2.81,1.09,4.5l-.54,1.62c-.79,2.22-1.78,5,1.47,6.23a5.74,5.74,0,0,0,5.94-1,3.6,3.6,0,0,0,1-3.86,4,4,0,0,0-2-2.66,1.92,1.92,0,0,0-1.51,0l.61,1.28a.56.56,0,0,1,.39,0c.25.12.72.5,1.15,1.79a2.24,2.24,0,0,1-.62,2.39,4.38,4.38,0,0,1-4.45.73c-1.78-.69-1.58-1.82-.64-4.44l.56-1.72c.62-2.24-.35-4-1.21-5.56l-.81-1.62a1.92,1.92,0,0,1,.48-1.88,3.5,3.5,0,0,1,3.23-1.18c2.42.44,4.92,2.45,4.92,5.06,0,2.77,1.68,4.21,3.8,6l1.43,1.25c2,1.85,1.17,5,.26,8.29l-.47,1.77a20.26,20.26,0,0,0-.27,6.61,19,19,0,0,1,0,4.2c-.43,2.8-6,6.15-8,6.15a5.31,5.31,0,0,1-3.06-.85L245,362.7a6.55,6.55,0,0,0,3.94,1.16c2.62,0,8.89-3.69,9.45-7.36a19.52,19.52,0,0,0,0-4.52,18.7,18.7,0,0,1,.24-6.16l.46-1.73c1-3.58,2-7.29-.67-9.72L257,333.09c-2-1.7-3.3-2.82-3.3-4.94,0-3.47-3.13-5.91-6.08-6.45A4.92,4.92,0,0,0,243,323.36Z" transform="translate(-222.51 -299.34)"/><path d="M247.54,413.83c0,.13,3.55,12.9,7,20.85a95.51,95.51,0,0,0,6.23,10.92c3.85,6.16,7.83,12.53,8.72,17.42l1.4-.25c-.94-5.16-5-11.65-8.92-17.92a94.31,94.31,0,0,1-6.13-10.74c-3.44-7.86-6.93-20.52-7-20.65Z" transform="translate(-222.51 -299.34)"/><path d="M242.26,434.46c.26,3,2.67,12.46,2.77,12.86l1.38-.35c0-.1-2.49-9.73-2.73-12.63Z" transform="translate(-222.51 -299.34)"/><path d="M248,430.55c1.44,6.47-1.94,15.76-2,15.85l1.33.49c.14-.39,3.55-9.77,2-16.65Z" transform="translate(-222.51 -299.34)"/><path d="M247.92,428l1.1.88c1.92-2.4,11.52-9.3,11.61-9.37l-.82-1.15C259.41,418.61,250,425.41,247.92,428Z" transform="translate(-222.51 -299.34)"/></svg>