<svg id="_4_4" xmlns="http://www.w3.org/2000/svg" viewBox="0 0 153.07 238.11"><defs><style>.cls-1{fill:#ed1c24;}.cls-2{fill:#fff;}</style></defs><title>_4_4</title><rect class="cls-1" width="153.07" height="238.11"/><path class="cls-2" d="M228.69,315.69V518s-.5,10.67,11.33,10.67,116.33.16,116.33.16,9.34,0,9.5-10.83,0-202.33,0-202.33.5-8.67-9.66-9.84-118-.16-118-.16A10.41,10.41,0,0,0,228.69,315.69Z" transform="translate(-220.65 -298.3)"/><path d="M238.61,305.15A10.64,10.64,0,0,0,228,315.78V518.93a10.64,10.64,0,0,0,10.63,10.63H355.77a10.64,10.64,0,0,0,10.63-10.63V315.78a10.64,10.64,0,0,0-10.63-10.63Zm-9.22,213.78V315.78a9.24,9.24,0,0,1,9.22-9.22H355.77a9.23,9.23,0,0,1,9.21,9.22V518.93a9.23,9.23,0,0,1-9.21,9.22H238.61A9.24,9.24,0,0,1,229.39,518.93Z" transform="translate(-220.65 -298.3)"/><path d="M307.19,332.85s-5.25-2.75-5.25-10.25,4.75-8.75,6.75-8.75,7,2.25,5.5,10.75S307.19,332.85,307.19,332.85Z" transform="translate(-220.65 -298.3)"/><path d="M300.44,337.6s-1-5.25-5.5-7.25-8.5.5-9,2.75a6.79,6.79,0,0,0,6,8A9.25,9.25,0,0,0,300.44,337.6Z" transform="translate(-220.65 -298.3)"/><path d="M317.19,339.1s-.5-6.75,5.75-8.5,8.75,1,9.5,2.75,0,5.5-5.5,7.25S318.44,340.1,317.19,339.1Z" transform="translate(-220.65 -298.3)"/><path d="M298.44,355.6s-3.5-5-8.75-3.5-5.75,5.5-4.75,8,4.5,4.25,9,1.75S298.44,355.6,298.44,355.6Z" transform="translate(-220.65 -298.3)"/><path d="M319.44,357.35a11.14,11.14,0,0,1,10.25-.25c5.25,2.75,5.5,5.5,4.75,7.25s-4.5,4-10.25.75S319.44,357.35,319.44,357.35Z" transform="translate(-220.65 -298.3)"/><path d="M297.69,374.35a15.31,15.31,0,0,0-11-1.25c-5.75,1.75-6,6.75-4.75,9s6.25,4.5,11.75.75S298.44,374.1,297.69,374.35Z" transform="translate(-220.65 -298.3)"/><path d="M318.94,372.85a13.06,13.06,0,0,1,10,2.25c4.75,3.5,3.25,8,.75,9.5s-7,0-9.5-3S318.94,372.85,318.94,372.85Z" transform="translate(-220.65 -298.3)"/><path d="M295.69,393.35a10.67,10.67,0,0,0-10.75-5c-7.5,1-7.25,6.5-6.75,8.25s3,6,10.5,3.5S295.69,393.35,295.69,393.35Z" transform="translate(-220.65 -298.3)"/><path d="M298.19,403.6s-3.75-2.25-11.75.5-6.75,9-5.75,10.5,6.5,4.5,12.5-1S298.19,403.6,298.19,403.6Z" transform="translate(-220.65 -298.3)"/><path d="M316.19,392.35s-2.25,5.75,2.5,9.75,9.75,2,10.75.75,1.5-5.25-2.5-8.75S317.19,391.1,316.19,392.35Z" transform="translate(-220.65 -298.3)"/><path d="M316.44,407.6a10.19,10.19,0,0,0,3.25,9c4.25,3.75,8.25,2.75,9.5,1s1.75-5.5-3-8.5S317.69,406.35,316.44,407.6Z" transform="translate(-220.65 -298.3)"/><path d="M299.19,427.6s.75-6-4.25-9-10-.25-10.75,2-.25,8.25,5.5,9.25S299.19,428.6,299.19,427.6Z" transform="translate(-220.65 -298.3)"/><path d="M314.94,428.1a8.6,8.6,0,0,1,6.75-7c6-1.25,9.5,2,9.75,4.75s-.5,5.25-7,6S315.69,430.35,314.94,428.1Z" transform="translate(-220.65 -298.3)"/><path d="M253.94,396.35s-6.25-3.5-5.5-9.75,4.5-8.25,8.25-7.5,6.25,4.25,5,9S254.94,396.1,253.94,396.35Z" transform="translate(-220.65 -298.3)"/><path d="M246.19,410.35s-.25-7.5-5.25-9.75-8-.5-9.25,2-.5,7,4.75,9S245.69,411.85,246.19,410.35Z" transform="translate(-220.65 -298.3)"/><path d="M247.44,426.6s-.25-7-6.25-9.5-9.5-.25-10.25,2.5-.25,7,5.75,9.5S247.19,428.1,247.44,426.6Z" transform="translate(-220.65 -298.3)"/><path d="M261.44,417.6s-2-5.75,2.75-9.75,9.5-1.5,10.5.25.75,5.75-3.75,8.25S262.94,418.85,261.44,417.6Z" transform="translate(-220.65 -298.3)"/><path d="M267.94,449.35s1-5.25-5.5-8.25-10,0-11,1.5-1,8,6.25,10S267.94,450.1,267.94,449.35Z" transform="translate(-220.65 -298.3)"/><path d="M277.94,441.35s-6.75-1.5-8.5-6.75.5-9.75,4.5-10.5,8.5,2.25,9.25,7S280.19,441.6,277.94,441.35Z" transform="translate(-220.65 -298.3)"/><path d="M351.69,376.6a9.94,9.94,0,0,1-6.5-10.25c.5-8,4-9.75,7.25-9.5s6.75,3.5,5.75,10.25S353.94,377.35,351.69,376.6Z" transform="translate(-220.65 -298.3)"/><path d="M344.94,382.85a12.63,12.63,0,0,0-1-9.75c-2.75-5-8.5-5.5-11-3s-3,8.71,3.25,12.5C341.94,386.1,344.94,383.85,344.94,382.85Z" transform="translate(-220.65 -298.3)"/><path d="M365.69,375.35a10.48,10.48,0,0,0-5.25,1.75c-4.5,3-4.75,9.5-4.75,9.5s3.75,3.25,10,1.5Z" transform="translate(-220.65 -298.3)"/><path d="M365.69,390.1c-9,1.5-8.75,9.25-8.75,9.25s2,4.25,8.75,2.75Z" transform="translate(-220.65 -298.3)"/><path d="M344.44,398.85s1-4.75-4.5-9.5-9.75-.75-10.75,0-2.74,6.91,5,10.5C341.19,403.1,344.44,398.85,344.44,398.85Z" transform="translate(-220.65 -298.3)"/><path d="M342.19,416.6a13.66,13.66,0,0,1-9.25-1.25c-4.5-2.5-4.5-7-2-9.25s6.75-1.75,10,2.25S343.44,416.85,342.19,416.6Z" transform="translate(-220.65 -298.3)"/><path d="M365.44,420.6c-3-1.5-8,0-10.25,6.75s3.75,12.5,3.75,12.5,5-.5,6.75-4.75Z" transform="translate(-220.65 -298.3)"/><path d="M347.19,454.6s-4.25-.5-6-6.25,1.75-8.5,4-9.25,6.25.75,6.5,7.25S348.44,455.1,347.19,454.6Z" transform="translate(-220.65 -298.3)"/><path d="M365.69,447.85c-6.25.75-6,8.5-6,8.5a8.82,8.82,0,0,0,5.75,3.5Z" transform="translate(-220.65 -298.3)"/><path d="M340.94,468.6s-6.25-1.5-7.5-7,.25-8.75,4.5-9.25,6.5,2,7.25,7.25S341.94,468.85,340.94,468.6Z" transform="translate(-220.65 -298.3)"/><path d="M365.44,464.6s-3-1.75-7,1.5-3,8.5-3,8.5,3.75,4.75,10.25,1.5Z" transform="translate(-220.65 -298.3)"/><path d="M309.69,447.6s-1,6,6.5,8.75,10.5-1.25,11-3.75-1.75-6.25-7.5-7.75S309.69,445.85,309.69,447.6Z" transform="translate(-220.65 -298.3)"/><path d="M285.19,454.1a12.73,12.73,0,0,1,1-10.75c3.25-5.25,9.25-5.25,11.25-3s2.75,6.75-1.5,10.75S286.69,455.35,285.19,454.1Z" transform="translate(-220.65 -298.3)"/><path d="M275.19,469.1s1.25-6.25-3.75-9-9.5,0-10.25,2.25-.25,7,6,9S275.19,469.1,275.19,469.1Z" transform="translate(-220.65 -298.3)"/><path d="M293.44,476.85a10.53,10.53,0,0,1-4.25-10c1-6.5,6.25-6.25,8.5-5.5s5.5,4.25,3.25,9.25S295.69,477.85,293.44,476.85Z" transform="translate(-220.65 -298.3)"/><path d="M251.69,475.1s-6.75.5-9-6,1-9.75,3.5-10.25,8.5-.25,9,7.5C255.67,473.88,251.69,475.1,251.69,475.1Z" transform="translate(-220.65 -298.3)"/><path d="M261.19,488.35s-4.5-3-3.25-9.5,6-7,8.5-6,5.25,4.25,3,9.25S263.44,489.1,261.19,488.35Z" transform="translate(-220.65 -298.3)"/><path d="M249.44,493.85s1.25-7.25-4-10.75-10.25-.75-11.25,1.75,0,7.25,5.5,10.25S248.69,495.1,249.44,493.85Z" transform="translate(-220.65 -298.3)"/><path d="M256.69,513.85s-.25-6.75-5-9.5-9.5-1.75-11.5,1.75,1,7.75,6.25,9.5S255.44,515.1,256.69,513.85Z" transform="translate(-220.65 -298.3)"/><path d="M278.19,518.1s-3.75-4.75-2-9.5,7.25-6.25,10.25-4,4,6.5.25,10S280.19,519.1,278.19,518.1Z" transform="translate(-220.65 -298.3)"/><path d="M287.94,497.85s.75-6.75-5-9.5-9.75.25-10.75,3.25.75,7.75,7,9S287.69,499.35,287.94,497.85Z" transform="translate(-220.65 -298.3)"/><path d="M301.69,492.35s-4.5-3.5-4-9,4.5-8,7.75-7.25,6.25,3.5,4.5,8.75S303.94,492.6,301.69,492.35Z" transform="translate(-220.65 -298.3)"/><path d="M334.69,486.35a9.33,9.33,0,0,1-8.25-8c-1.25-7.5,2-11.25,5.25-11.25s7.75,2.5,7.75,9S336.94,486.35,334.69,486.35Z" transform="translate(-220.65 -298.3)"/><path d="M327.44,502.6a7.74,7.74,0,0,1-8.5-6c-2-7,1.5-10,4.5-10.25s6.07.18,7.5,6.75C332.19,498.85,329.69,502.6,327.44,502.6Z" transform="translate(-220.65 -298.3)"/><path d="M365.69,481.85a8.64,8.64,0,0,0-8-.75c-4.75,1.75-6.25,8-6.25,8s2.25,2.5,7.25,3,6.5-2.75,6.75-3.5Z" transform="translate(-220.65 -298.3)"/><path d="M313.94,516.85a8.9,8.9,0,0,1-6.25-8c-.5-6.5,3-8,5.25-8s6.25.5,6.25,7.5S315.94,517.35,313.94,516.85Z" transform="translate(-220.65 -298.3)"/><path d="M340.19,508.6a10,10,0,0,1,6.75-8c6.25-2.25,10.25.5,10.5,3s-1.5,6-6.75,7S340.94,510.85,340.19,508.6Z" transform="translate(-220.65 -298.3)"/><path d="M287.94,528.85s-.5-5.5,2.25-8.75,7.5-4,10-1,1,8.5-4,9.5Z" transform="translate(-220.65 -298.3)"/><path d="M365.94,498.85c-9,2.25-10,14.25-10,14.25s2.75,2.25,9.75-1.5Z" transform="translate(-220.65 -298.3)"/><path d="M361.19,526.6a8.55,8.55,0,0,1-2.25-5.75,8.43,8.43,0,0,1,6.75-1.92,7.69,7.69,0,0,1-3.25,7.3Z" transform="translate(-220.65 -298.3)"/><path d="M342.88,528.17,344,529c5.43-6.91,13.41-16.38,13.49-16.48l-1.09-.91C356.31,511.74,348.32,521.24,342.88,528.17Z" transform="translate(-220.65 -298.3)"/><path d="M350.19,520.56c3.13,0,9.52,1.47,9.59,1.48l.32-1.38c-.27-.06-6.62-1.51-9.91-1.51Z" transform="translate(-220.65 -298.3)"/><path d="M349.53,467.09c-4.95,12.12-16.7,33-22.35,43l-.11.2a205.3,205.3,0,0,1-11.7,18.17l1.14.84A204.71,204.71,0,0,0,328.3,511l.11-.19c5.67-10,17.45-30.93,22.43-43.14s9.24-29.42,9.29-29.6l-1.38-.34C358.71,437.86,354.45,455,349.53,467.09Z" transform="translate(-220.65 -298.3)"/><path d="M326.76,500.33c.4,1.18,1.2,6.09,1.48,7.88l1.4-.21c0-.27-1-6.58-1.53-8.12Z" transform="translate(-220.65 -298.3)"/><path d="M326.25,512.42l.38,1.37c.51-.15,12.58-3.53,17.3-5.27l-.49-1.33C338.77,508.91,326.37,512.39,326.25,512.42Z" transform="translate(-220.65 -298.3)"/><path d="M333.75,483.77c.61,2.53,2.13,9.52,1.74,11.45l1.39.27c.52-2.58-1.52-11.09-1.75-12.05Z" transform="translate(-220.65 -298.3)"/><path d="M334.83,496.49l.71,1.23c.15-.09,14.43-8.43,20-8.91l-.12-1.41C349.53,487.91,335.43,496.14,334.83,496.49Z" transform="translate(-220.65 -298.3)"/><rect x="340.85" y="465.83" width="1.42" height="18.04" transform="translate(-252.72 -273.5) rotate(-3.97)"/><path d="M344.13,479.22l.62,1.27c.1-.05,10.77-5.26,15.19-7l-.51-1.32C355,473.93,344.57,479,344.13,479.22Z" transform="translate(-220.65 -298.3)"/><path d="M346.74,451.46c.08.53,2,13.07,2.76,16.07l1.37-.35c-.73-2.93-2.71-15.8-2.73-15.93Z" transform="translate(-220.65 -298.3)"/><path d="M352.55,459.76l.78,1.19c2.48-1.63,7.58-4.86,9.11-5.43l-.5-1.33C359.89,455,352.85,459.57,352.55,459.76Z" transform="translate(-220.65 -298.3)"/><path d="M351.48,373.14c0,.29,1.4,29.36-6.74,67.07l1.39.29c8.17-37.9,6.78-67.14,6.76-67.43Z" transform="translate(-220.65 -298.3)"/><path d="M342.53,382.43c.07.06,7.36,5.19,9,8.72l1.29-.6c-1.81-3.87-9.17-9.06-9.49-9.28Z" transform="translate(-220.65 -298.3)"/><path d="M351.36,389.44l1.15.83c1.18-1.65,5.57-5.07,5.61-5.11l-.87-1.12C357.06,384.19,352.66,387.63,351.36,389.44Z" transform="translate(-220.65 -298.3)"/><path d="M341.78,397.93c.06.05,6.61,4.69,8.26,8.22l1.29-.6c-1.81-3.87-8.45-8.58-8.74-8.78Z" transform="translate(-220.65 -298.3)"/><rect x="350.49" y="400.15" width="9.65" height="1.42" transform="matrix(0.86, -0.52, 0.52, 0.86, -376.96, -56.12)"/><path d="M340.69,414.86c.05.05,5.45,5.46,7.13,8.35l1.23-.71c-1.78-3.05-7.14-8.42-7.36-8.65Z" transform="translate(-220.65 -298.3)"/><path d="M307,330.11c0,.49.24,49.64-.25,63.47-.51,14.1-6.57,68.13-7.49,73.91l1.4.23c.92-5.8,7-60,7.5-74.09.5-13.86.26-63,.26-63.53Z" transform="translate(-220.65 -298.3)"/><path d="M302.61,447.06a108.48,108.48,0,0,1,10.9,1.73l.35-1.37a105.47,105.47,0,0,0-11.1-1.77Z" transform="translate(-220.65 -298.3)"/><path d="M297.3,427.7l6.52,4.17L317.88,428l-.39-1.37-13.44,3.67-6-3.83Z" transform="translate(-220.65 -298.3)"/><path d="M306.66,398.2C304.9,399,296,403.78,295.6,404l.67,1.25c.09-.05,8.24-4.45,10.55-5.54,1.87,1.67,10.88,9.63,12.93,11.22l.87-1.12c-2.21-1.71-13.1-11.37-13.21-11.47l-.34-.29Z" transform="translate(-220.65 -298.3)"/><path d="M307.29,385.26c-.58.39-9.71,5.72-14.46,8.48l.71,1.23c.52-.3,11.76-6.85,14.12-8.27,1.65,1.16,8.27,5.83,11.07,8.2l.91-1.09c-3.23-2.74-11.21-8.3-11.55-8.54l-.39-.27Z" transform="translate(-220.65 -298.3)"/><path d="M307,366.05l-10.75,8.75.89,1.1,10.38-8.44c2.18,1.22,12.78,7.17,14.74,8.7l.87-1.12c-2.27-1.76-14.81-8.76-15.34-9.06l-.42-.23Z" transform="translate(-220.65 -298.3)"/><path d="M307.32,349.25,296.07,356l.73,1.21,10.85-6.51c2,1.46,11.85,8.4,15.35,9.34l.37-1.37c-3.58-1-15.15-9.31-15.27-9.39l-.38-.27Z" transform="translate(-220.65 -298.3)"/><path d="M297.63,337.24l10,4.87,13.26-3.83-.39-1.36-12.74,3.68-9.5-4.63Z" transform="translate(-220.65 -298.3)"/><path d="M257.5,442l1.37-.35c-.05-.2-5-20.26-4.23-49.56l-1.41,0C252.48,421.59,257.45,441.83,257.5,442Z" transform="translate(-220.65 -298.3)"/><rect x="248.1" y="405.59" width="1.42" height="13.52" transform="translate(-452.96 92.35) rotate(-56.31)"/><path d="M244.28,425.93c.41.29,10.05,7,11.81,8l.7-1.23c-1.7-1-11.6-7.9-11.7-8Z" transform="translate(-220.65 -298.3)"/><path d="M255.17,425.36l1,1c.23-.23,5.62-5.91,7.15-10.25l-1.33-.47C260.59,419.67,255.23,425.31,255.17,425.36Z" transform="translate(-220.65 -298.3)"/><path d="M276.74,437.72c.05.32,5.36,32.32,14,53.16s22,38.23,22.09,38.41l1.13-.87a193.3,193.3,0,0,1-21.91-38.09c-8.62-20.68-13.9-52.52-13.95-52.84Z" transform="translate(-220.65 -298.3)"/><rect x="313.6" y="513.6" width="1.42" height="15.27" transform="translate(-245.88 -282.23) rotate(-2.82)"/><path d="M264.37,449c.14.07,14.49,7.25,16.67,8.7l.79-1.18C279.57,455,265.6,448,265,447.72Z" transform="translate(-220.65 -298.3)"/><path d="M281,459.85l1.41,0c.14-.67,2.63-4.21,4.86-7.11l-1.12-.87C283.78,455,281,458.83,281,459.85Z" transform="translate(-220.65 -298.3)"/><path d="M272.59,468c.1.06,10.51,6,13.22,7.73l.76-1.19c-2.74-1.74-12.85-7.53-13.28-7.77Z" transform="translate(-220.65 -298.3)"/><path d="M288.3,484l1.27.63c.49-1,5.68-10.38,5.74-10.47l-1.24-.69C293.85,473.9,288.8,483,288.3,484Z" transform="translate(-220.65 -298.3)"/><path d="M297.8,503.56l-12.51-7.32-.71,1.23,14,8.18.28-.81c1.25-3.48,4.38-14.33,4.52-14.79l-1.36-.39C302,489.76,299.17,499.45,297.8,503.56Z" transform="translate(-220.65 -298.3)"/><path d="M250.5,472c0,.14,3.81,14.16,8,25.56,3.07,8.29,9.68,20.31,13.23,26.77,1.28,2.33,2.39,4.34,2.51,4.71l1.35-.45c-.16-.47-.92-1.85-2.62-5-3.53-6.42-10.11-18.38-13.14-26.57-4.19-11.34-7.94-25.3-8-25.44Z" transform="translate(-220.65 -298.3)"/><path d="M257.76,495.38l1.35.45c.49-1.47,3.7-9.63,3.74-9.72l-1.32-.52C261.39,485.93,258.26,493.88,257.76,495.38Z" transform="translate(-220.65 -298.3)"/><path d="M245.6,493.48c.34.18,8.4,4.56,14.19,5.82l.3-1.39c-5.59-1.21-13.73-5.63-13.81-5.68Z" transform="translate(-220.65 -298.3)"/><path d="M252.9,513c.14.06,13.28,5.77,16.72,7.49l.63-1.27c-3.47-1.74-16.24-7.28-16.78-7.52Z" transform="translate(-220.65 -298.3)"/><path d="M273.82,527l1.24.69c1.26-2.27,4.65-11.46,4.79-11.85l-1.33-.49C278.49,515.45,275,524.83,273.82,527Z" transform="translate(-220.65 -298.3)"/></svg>