<svg id="_5_2" xmlns="http://www.w3.org/2000/svg" viewBox="0 0 153.07 238.11"><defs><style>.cls-1{fill:#ed1c24;}.cls-2{fill:#fff;}.cls-3{fill:#0066b3;}.cls-4{fill:#ffcb05;}</style></defs><title>_5_2</title><rect class="cls-1" width="153.07" height="238.11"/><path class="cls-2" d="M223.15,306.21l.17,205s.62,8.63,9.37,9.63H351.57s9.62-1.13,9.75-10.5L361.44,306s-1.5-8.37-9.87-8.87l-119,.12S223.86,297.34,223.15,306.21Z" transform="translate(-215.76 -289.95)"/><path class="cls-1" d="M280.48,309.38l-48.66.33s1.16,10.84,1.33,13.17,9.67,89,51.17,131.83l51.83-.66-.5-1s-22.33-23.67-35.17-56.67S280.82,328.38,280.48,309.38Z" transform="translate(-215.76 -289.95)"/><path class="cls-3" d="M239.32,358.34s-12-4.88-15.88-8.63l-.12,1.75s6.37,18.63,20,22C243.32,373.46,239.69,361.34,239.32,358.34Z" transform="translate(-215.76 -289.95)"/><path class="cls-3" d="M233.19,370.84s-3.87,5.62-5.87,8.12a15.44,15.44,0,0,0-3,11.25c.62,4.38,7,7.5,8.5,8a9,9,0,0,0,4,9.5c5.5,3.5,7.12,2.88,7.12,2.88s1.38-4.38,1.75-5.75a11.39,11.39,0,0,0-1.12-8.88c-2.25-3.5-5.13-3-8.13-2.87a4.65,4.65,0,0,1,.38-1.38c.25-.37,2.75-4.12,1-10a84.92,84.92,0,0,0-4.13-10.87Z" transform="translate(-215.76 -289.95)"/><path class="cls-3" d="M223.32,403.21a8.75,8.75,0,0,1,5.12.25c2.63,1,4.25,5.25,3.25,10.13A98.84,98.84,0,0,1,227.57,427c-.75,1.88-2,9.75-2,9.75l-2.25-2.62Z" transform="translate(-215.76 -289.95)"/><path class="cls-3" d="M259.69,418.59s-15.12,4.37-18.5,5.5-9.37,5-9.62,10.12,4.25,9.63,12.37,9.25,26.38-6.87,26.38-6.87S260.32,420.09,259.69,418.59Z" transform="translate(-215.76 -289.95)"/><path class="cls-3" d="M310.57,417.84s-.63-3.75-.88-5.5.25-8.25,4.25-15.25,14.13-17,14.13-17-.5,3.37-.63,4.75-1.37,10.5-1.62,12.87S319.94,415.09,310.57,417.84Z" transform="translate(-215.76 -289.95)"/><path class="cls-4" d="M247.82,422.71s-4.5-10.75-5.38-12.37l-4.25-1.5s1.38,9.62,4.13,15.12Z" transform="translate(-215.76 -289.95)"/><path class="cls-4" d="M244.44,408.71l-.75,3.13s7.25,5.62,12.38,8l3.62-1.25-.5-1.75A41.68,41.68,0,0,1,244.44,408.71Z" transform="translate(-215.76 -289.95)"/><path class="cls-4" d="M244.07,465.84a76.39,76.39,0,0,0,0-20.25s3.25-.25,5.37,9.12c0,0,3.5,1.88,6.13,9.63s1.87,18.75-.63,25.25l-5.12-11.25Z" transform="translate(-215.76 -289.95)"/><path class="cls-4" d="M260.69,504.34a55.62,55.62,0,0,1,16.88,9.25l1.5,7.25-13.38-.13Z" transform="translate(-215.76 -289.95)"/><polygon class="cls-4" points="94.43 180.13 100.31 197.01 103.68 189.51 97.18 174.63 94.43 180.13"/><path class="cls-4" d="M317.82,413s1.37,9.5,4.37,13.88l2.38-2.5s-3.38-12.13-3.25-15.38Z" transform="translate(-215.76 -289.95)"/><path class="cls-4" d="M318.57,391s-1.38-4.12-1.88-5.12-.12-2.63,1.13-3.88a5.92,5.92,0,0,1,4.5-1.62,2.46,2.46,0,0,1,1.25,3.87Z" transform="translate(-215.76 -289.95)"/><path d="M233.24,296.5a10.64,10.64,0,0,0-10.63,10.63V510.79a10.64,10.64,0,0,0,10.63,10.63H351.4A10.64,10.64,0,0,0,362,510.79V307.13A10.64,10.64,0,0,0,351.4,296.5ZM224,510.79V307.13a9.23,9.23,0,0,1,9.22-9.21H351.4a9.22,9.22,0,0,1,9.21,9.21V510.79A9.22,9.22,0,0,1,351.4,520H233.24A9.23,9.23,0,0,1,224,510.79Z" transform="translate(-215.76 -289.95)"/><path d="M280.48,308.67,231,309l.07.77c9.25,104.39,52.13,145.05,52.56,145.45l.21.19,53.84-.69-1-1.16c-52.87-59.1-55.47-143.36-55.49-144.21l0-.69Zm-.68,1.42c.34,7.9,5,86.58,54.82,143.27l-50.19.64c-3.09-3-42.81-43.9-51.83-143.58Z" transform="translate(-215.76 -289.95)"/><path d="M278.48,520.71s-10.33-41-22-65.33l8.67-17.33,4.33-1.67s12.67,16.17,14.67,18.33h3.17a71.64,71.64,0,0,0,.5,12.17s5.5-6.83,6.83-12.17l26.5-.5s-17.5,20.5-18.17,48c0,0,8.84-7.66,15.67-22.16a192,192,0,0,1,14.83-25.84l2.67-.16-1.5-1.34s12.67-21,21.5-30.83c0,0,.83.17.5,1.17s-16.83,31.41-24.08,62.66a120.8,120.8,0,0,1,28.5-15.5v1.5s-23.75,17.75-33,49Z" transform="translate(-215.76 -289.95)"/><path d="M266.32,520.71c-18.75-63-43-87.5-43-87.5v18.5s6.25,7.5,8.75,12.75c0,0-4.5.25-8.5-7l-.25,20a120.22,120.22,0,0,1,28,43.25Z" transform="translate(-215.76 -289.95)"/><path d="M245.57,520.71s-12.5-23-22.25-33.5v20.25a127.79,127.79,0,0,1,9.92,13.25Z" transform="translate(-215.76 -289.95)"/><path d="M344.57,425.21c-4.2,8.17-15,20.75-15,20.75s-10-14-11-15.5c0,0,1.25-5,9.75-9.25s20.75-14.5,24.25-28.5C352.57,392.71,354.07,406.71,344.57,425.21Z" transform="translate(-215.76 -289.95)"/><path d="M305.32,406.71s-6.75-14.75-8.5-20.25c0,0,7.25-15.75,9.25-23.25s10.75-23.75,17.75-34.75,17.25-29.75,18-31.25l2.5.25a176.51,176.51,0,0,1-7.25,34C331.32,349.21,324.32,367.71,305.32,406.71Z" transform="translate(-215.76 -289.95)"/><path d="M222.57,349.71a37.58,37.58,0,0,0,8.16,5.63c5.53,3,8.09,3.55,8.2,3.57l.28-1.39s-2.51-.54-7.8-3.43a36.83,36.83,0,0,1-7.84-5.38Z" transform="translate(-215.76 -289.95)"/><path d="M222.89,351.44c.14.4,3.37,10,8.66,15.51a26.7,26.7,0,0,0,11.08,7.2l.37-1.37A25.74,25.74,0,0,1,232.58,366c-5.08-5.32-8.31-14.88-8.34-15Z" transform="translate(-215.76 -289.95)"/><path d="M233,370.09l-2.72,4-.68.86c-1.93,2.44-6,7.52-6,12.81,0,6.25,4.15,9.05,8.38,10.91a9.3,9.3,0,0,0-.17,1.76,8.56,8.56,0,0,0,3,6.62,19.87,19.87,0,0,0,9.11,4.41l.68.11.12-.68a61.52,61.52,0,0,1,1.48-6.15,10.69,10.69,0,0,0-2.15-10.46,7,7,0,0,0-6.67-1.93,13.29,13.29,0,0,0,1.67-6.4,13.15,13.15,0,0,0-.6-3.9c-2-6.46-4.25-11.76-4.27-11.82l-.51-1.18Zm2.81,35.84a7.21,7.21,0,0,1-2.54-5.56,7.38,7.38,0,0,1,.25-1.95l.19-.61-.59-.25c-5.73-2.41-8.07-5.27-8.07-9.85,0-4.8,3.83-9.61,5.66-11.93l.7-.89,2-2.95c.77,1.9,2.31,5.88,3.73,10.48a11.73,11.73,0,0,1,.52,3.43,12.15,12.15,0,0,1-2.39,7.16l.82,1.11c.18-.08,4.34-1.76,7,1.07a8.89,8.89,0,0,1,2.31,6.09,9.23,9.23,0,0,1-.47,3,55.43,55.43,0,0,0-1.38,5.63A18.91,18.91,0,0,1,235.78,405.93Z" transform="translate(-215.76 -289.95)"/><path d="M243.85,409c.31.27,7.71,6.63,14.79,8.4L259,416c-6.75-1.69-14.14-8-14.21-8.1Z" transform="translate(-215.76 -289.95)"/><path d="M239.85,424c-.31.13-6.36,2.7-8.45,8.17a7.69,7.69,0,0,0,1,7.05,11.91,11.91,0,0,0,9.16,5.16c5.93.25,20.12-3,28.84-7.32l-.63-1.27c-8.54,4.27-22.38,7.42-28.15,7.17a10.41,10.41,0,0,1-8-4.52,6.85,6.85,0,0,1-1.21-3.75,5.6,5.6,0,0,1,.37-2c1.86-4.89,7.55-7.32,7.61-7.34L260,419.14l-.43-1.35Z" transform="translate(-215.76 -289.95)"/><path d="M241.91,411a99.49,99.49,0,0,0,5.29,11.84l1.23-.7a90.76,90.76,0,0,1-4.11-8.91,41.66,41.66,0,0,0,11.25,6.93l.49-1.33c-6.53-2.42-12.94-8.54-13-8.6Z" transform="translate(-215.76 -289.95)"/><path d="M237.36,408.79c0,.37,1,9.2,4.07,15.24l1.27-.63c-2.91-5.82-3.92-14.68-3.93-14.77Z" transform="translate(-215.76 -289.95)"/><path d="M223.23,402.59l.67,1.25c.1,0,2.42-1.22,5.48,1.18,2.83,2.22,1.86,10.26-.48,16.7l-1.13,2.93c-1.67,4.2-3.25,8.18-2.4,13.67l1.4-.22c-.79-5.1.65-8.73,2.32-12.93l1.14-3c1.79-4.92,4.1-15.09,0-18.29C226.43,400.9,223.36,402.52,223.23,402.59Z" transform="translate(-215.76 -289.95)"/><path d="M327.57,379.45c-.09.09-8.88,8.68-14.61,18.15a27.06,27.06,0,0,0-3.33,19.54l1.37-.36a22.5,22.5,0,0,1-.5-5,26,26,0,0,1,3.67-13.45A101.89,101.89,0,0,1,327.07,382l-1.95,13.86c-1.67,10.52-6.62,17.86-14.34,21.21l.57,1.3c8.18-3.55,13.42-11.26,15.17-22.29L329.06,378Z" transform="translate(-215.76 -289.95)"/><path d="M320.35,380a6.25,6.25,0,0,0-4.1,3.23,4.64,4.64,0,0,0-.09,3.72,26.22,26.22,0,0,1,1.21,4.35l1.39-.25a26.41,26.41,0,0,0-1.29-4.66,3.2,3.2,0,0,1,.07-2.57,5,5,0,0,1,3.24-2.47c1.22-.38,2-.21,2.41.51a2.11,2.11,0,0,1-.05,2L324,385c.89-.67,1.12-2.5.47-3.77C324.13,380.61,323.06,379.19,320.35,380Z" transform="translate(-215.76 -289.95)"/><path d="M324.16,424.74l1.31-.55a41,41,0,0,1-3.2-16.43l-1.41-.09A41.51,41.51,0,0,0,324.16,424.74Z" transform="translate(-215.76 -289.95)"/><path d="M317.36,413A43.72,43.72,0,0,0,322,428.31l1.23-.69c-3.62-6.54-4.4-14.64-4.41-14.72Z" transform="translate(-215.76 -289.95)"/><path d="M243.14,444.67c2.18,7.27.49,22.06.47,22.21L245,467a112.81,112.81,0,0,0,.66-11.65,53.47,53.47,0,0,0-.6-8.57c2,2.66,5.11,8.7,5.11,20.6a84.59,84.59,0,0,1-.83,11.45l1.41.19c3.76-27.87-6.13-34.9-6.56-35.18l-1.64-1.12Z" transform="translate(-215.76 -289.95)"/><path d="M248.89,454.78c.13.09,12.27,9.6,5.49,35.75l1.37.36c7-27.15-5.47-36.85-6-37.25Z" transform="translate(-215.76 -289.95)"/><path d="M309.65,470.44c.05.15,5.25,15.25,5.73,17l1.37-.39c-.5-1.75-5.55-16.42-5.76-17Z" transform="translate(-215.76 -289.95)"/><rect x="315.73" y="463.56" width="1.42" height="18.06" transform="translate(-369.47 -137.42) rotate(-21.95)"/><path d="M259.82,504.63a73.27,73.27,0,0,1,17.8,10.13l.89-1.1a75.2,75.2,0,0,0-18.19-10.36Z" transform="translate(-215.76 -289.95)"/><path d="M262.22,513.08a98.81,98.81,0,0,1,12.65,8.43l.9-1.1a101.22,101.22,0,0,0-12.86-8.57Z" transform="translate(-215.76 -289.95)"/></svg>