<svg id="_5_3" xmlns="http://www.w3.org/2000/svg" viewBox="0 0 153.07 238.11"><defs><style>.cls-1{fill:#ed1c24;}.cls-2{fill:#fff;}.cls-3{fill:#0066b3;}.cls-4{fill:#ffcb05;}</style></defs><title>_5_3</title><rect class="cls-1" width="153.07" height="238.11"/><path class="cls-2" d="M227.94,316l-.25,205s1,9.75,10.5,9.75l119.25-.25s8.25-.25,8.5-11V318.27s1.5-10.25-11-11H238.19S229.19,307,227.94,316Z" transform="translate(-220.4 -300.13)"/><path class="cls-3" d="M265.44,395.35a27.71,27.71,0,0,0,3.83-12.83,128.65,128.65,0,0,1,1.17-14s-6.84,6.83-9.34,9.83-9.5,9.67-9.5,25.5a143.67,143.67,0,0,0-23.66,27v4s14.66-5.16,24-2c0,0,2.33-11.83,8.16-19.5,0,0,3.5-2.83,3.67-5.33S265.44,395.35,265.44,395.35Z" transform="translate(-220.4 -300.13)"/><path class="cls-4" d="M265.44,395.35s-2.34,2-3.5,2.84-5,4.33-6.5,5.5-1.17,3.66-.5,4.66,1.66.34,2.33.34,5.33-.84,6-.84,5-1,5-1-.5-5.5.5-8.5C268.77,398.35,267.27,394.52,265.44,395.35Z" transform="translate(-220.4 -300.13)"/><path class="cls-4" d="M280.77,403.85s7-4.33,8.33-9.66c0,0,3.34,3,.67,9.66a12.87,12.87,0,0,1,5.67,3.34,29.85,29.85,0,0,1-3.84,1.16c-2.16.5-7.33,2-11-2Z" transform="translate(-220.4 -300.13)"/><path class="cls-3" d="M276.94,380.85a63.79,63.79,0,0,1-3.5,8.84c-1.67,3-9.17,10.16-3.17,23a17.41,17.41,0,0,0-8.5,10c-2.67,7.5-.83,13.66,5,17.5s13.17,6.5,16.33,12.16c0,0,3.5-8.33,5.34-10.83s6.5-6,8.66-11.33,2.84-11.84-3.5-16.34-12.83-1.83-14.33.67l-3-2s5.5-3.33,4.83-11.83S276.94,380.85,276.94,380.85Z" transform="translate(-220.4 -300.13)"/><path class="cls-3" d="M286.6,398.19s-4.33-6.17-3.5-12.67,5.5-19.33,5.5-19.33,1.34,5.16,2.5,8.5a68.34,68.34,0,0,0,5.34,11,16.64,16.64,0,0,1,1.66,13.66s9.84.17,17.84,5.67,11.5,11.67,10.5,26l-1-.17s-5-13.16-25.17-9.5c0,0,4.33-10.33-7.33-13.16l2.5-1s-2.67-3.34-5.67-3.34c0,0,3-5-.67-9.66Z" transform="translate(-220.4 -300.13)"/><path class="cls-4" d="M282.94,451.69s-.5,14.83,5.66,16.83c0,0-1.66,20.5-8.16,30.67l2.83,7.66s6.5-9.83,9.33-29.83a127.3,127.3,0,0,0-1-38.67s-2.5,1.5-3.16,3.17S282.94,451.69,282.94,451.69Z" transform="translate(-220.4 -300.13)"/><path d="M237.86,306.81a10.64,10.64,0,0,0-10.63,10.63V520.93a10.64,10.64,0,0,0,10.63,10.63H356a10.64,10.64,0,0,0,10.63-10.63V317.44A10.64,10.64,0,0,0,356,306.81Zm-9.22,214.12V317.44a9.23,9.23,0,0,1,9.22-9.21H356a9.22,9.22,0,0,1,9.21,9.21V520.93a9.22,9.22,0,0,1-9.21,9.21H237.86A9.23,9.23,0,0,1,228.64,520.93Z" transform="translate(-220.4 -300.13)"/><path d="M295.27,530.52l-6.67-16.67s12.34-32,13.34-87.66c0,0,15.66-4,24.66,10.33,0,0,5.67-5,.34-23,0,0,16.33-17.33,38.66-28.33v11s-33.66,23.33-44.33,93.66c0,0,17.33-35,44.33-54.33v4s-14.66,9-28.33,52.33c0,0,9.67-18,28.33-28.33l.34,4.67s-19,10.33-31,62.33Z" transform="translate(-220.4 -300.13)"/><path d="M342.6,530.85s7.34-24,23-40.33v22.33a47.54,47.54,0,0,0-9.58,18Z" transform="translate(-220.4 -300.13)"/><path d="M293.6,530.52s-21.66-43-21.66-84.33c0,0-10.34-3-16.67-11.34l-4.33,1s7.33,16.67,11,29,5.33,30.67,5.66,36.67,8,29,8,29Z" transform="translate(-220.4 -300.13)"/><path d="M271.94,530.85s-4.67-21.33-8.67-32.33-17-43-19-61.33c0,0-6-1.67-16.33,2v44.33s3.33,7.33,5,8.33,5.66-13.66,7-22.66c0,0,10.66,6,10.33,47.33,0,0-9.67-14.67-22.33-24.67l.33,13.34a55.9,55.9,0,0,1,13.67,25.66Z" transform="translate(-220.4 -300.13)"/><path d="M301.27,396.52s16.33-57.33,63.33-80.33a1.94,1.94,0,0,1-.66,2c-1,.66-25.67,11.66-43.34,81.33a3.68,3.68,0,0,1-3,2S311.94,395.52,301.27,396.52Z" transform="translate(-220.4 -300.13)"/><path d="M227.94,367.19c12,13,23.66,31.33,23.66,31.33l-1,1.33c-3.66,1.67-9,8-9,8s-10.66-17-14-27.66Z" transform="translate(-220.4 -300.13)"/><path d="M270.21,367.5a99.33,99.33,0,0,0-14.37,16.89,30.48,30.48,0,0,0-4.79,16.45,22.21,22.21,0,0,0,.14,2.64c-16.94,14.09-23.82,27.59-23.89,27.72l1.27.64c.07-.14,6.9-13.55,23.82-27.52l.31-.26-.06-.4a19.36,19.36,0,0,1-.15-2.7,29.41,29.41,0,0,1,4.54-15.8A95.78,95.78,0,0,1,269.7,370c-.37,2.68-1,7.29-1,9.07,0,4-.91,12.44-4.32,16.28a41.44,41.44,0,0,1-6.6,5.78,16,16,0,0,0-3.2,2.78,5.17,5.17,0,0,0-.92,2.94,3.93,3.93,0,0,0,.38,1.74,2.06,2.06,0,0,0,1.87,1.19,56.35,56.35,0,0,0,7.05-1.1,4.34,4.34,0,0,1-1.3,2.14c-2,2-7.64,9.68-10.25,21.3-2.45-.84-10.61-2.8-23.76,2.29l.51,1.32c15-5.8,23.36-2.06,23.45-2l.81.38.18-.87c2.45-11.75,8.09-19.43,10.06-21.4,2.24-2.24,1.73-4,1.67-4.22l-.2-.6-.62.13a73.17,73.17,0,0,1-7.6,1.23.64.64,0,0,1-.61-.42,3.52,3.52,0,0,1,.43-3.21,15.9,15.9,0,0,1,2.9-2.47,42.79,42.79,0,0,0,6.81-6c4.62-5.2,4.67-16.73,4.67-17.22,0-2.42,1.24-10.81,1.25-10.9l.29-2Z" transform="translate(-220.4 -300.13)"/><path d="M276.26,379.82c0,.06-1.75,6-2.72,8.16l-1,1.54c-1.87,2.78-5.47,8.14-5.47,14.49a16.76,16.76,0,0,0,2.35,8.42c-2.11,1-8,4.65-9.46,14.48a13.84,13.84,0,0,0-.17,2.17c0,8.8,8.67,13.1,13,15.25l2,1c2,1.21,6.61,4.35,7.7,7.63l.62,1.83.71-1.8c0-.1,4-9.89,6.6-12.51s9-9,9-17.25c0-7.78-6.38-12.16-12.68-12.46a9.1,9.1,0,0,0-7.67,3.21l-1.89-1.45c1.59-1.18,4.65-4.31,4.65-11a24.36,24.36,0,0,0-.17-2.85,101.35,101.35,0,0,0-4-18.9l-.73-2.11Zm-.7,64.35-2.11-1.11c-4.36-2.16-12.21-6.05-12.21-14a12,12,0,0,1,.15-1.95c1.66-10.91,9-13.58,9.28-13.69l.84-.29-.47-.76a15.43,15.43,0,0,1-2.5-8.37c0-6,3.43-11.06,5.21-13.71l1.08-1.75c.62-1.4,1.51-4.14,2.11-6.1a102.85,102.85,0,0,1,3.29,16.39,23.7,23.7,0,0,1,.16,2.69c0,7.9-4.55,10.24-4.76,10.34l-1,.51.9.69,3.88,3,.41-.67a7.57,7.57,0,0,1,6.86-3.16c3.92.19,11.33,2.73,11.33,11,0,7.71-5.77,13.48-8.54,16.25-2.21,2.21-5.07,8.62-6.3,11.51C281.39,448.08,277.77,445.53,275.56,444.17Z" transform="translate(-220.4 -300.13)"/><path d="M283.76,378.57c-1.62,5.38-2.54,13.28,2.26,20.35l.53.79.6-.74a18.23,18.23,0,0,0,2.24-3.53,11.4,11.4,0,0,1,.71,3.81,7.86,7.86,0,0,1-1.26,4.38l-.57.89,1,.2a12.94,12.94,0,0,1,5,2.26,17,17,0,0,1-3,.59l.07,1.41s4.91.06,7.41,3.69a7.64,7.64,0,0,1,1.24,4.41,13.26,13.26,0,0,1-.81,4.42l-.57,1.41,1.44-.47c.71-.22,17.3-5.37,25.41,9.67l.87,1.6.44-1.77a26.58,26.58,0,0,0,.65-6.14,26,26,0,0,0-4.44-15c-4.69-6.72-12.86-10.79-24.24-12.15a17.93,17.93,0,0,0,.59-4.65,17.27,17.27,0,0,0-2.38-8.87c-4.27-7.2-7.18-15.12-7.41-20.17l-1.37-.2C288.24,364.88,285.24,373.61,283.76,378.57Zm.12,8.38a27.89,27.89,0,0,1,1.24-8c.94-3.16,2.5-7.85,3.51-10.85a58.81,58.81,0,0,0,7.2,17.76A15.92,15.92,0,0,1,298,394a16.73,16.73,0,0,1-.72,5l-.3.85.89.1c11.4,1.2,19.49,5.12,24.05,11.65a24.79,24.79,0,0,1,4.16,14.22,29.1,29.1,0,0,1-.27,4c-7.55-11.77-20.67-10-24.8-9.09a14,14,0,0,0,.52-3.68,9.12,9.12,0,0,0-1.5-5.22,9.7,9.7,0,0,0-5-3.63,9.32,9.32,0,0,0,.92-.32l.91-.39-.67-.73a12.51,12.51,0,0,0-5.72-3.25,9.39,9.39,0,0,0,1.05-4.31,13.4,13.4,0,0,0-1.75-6.34l-1.31.47a.66.66,0,0,1,0,.14c0,.86-.9,2.45-1.81,3.71A19.75,19.75,0,0,1,283.88,387Z" transform="translate(-220.4 -300.13)"/><path d="M261.86,397.77l1.15.84c.5-.69,2.21-2.61,3.39-2.39.79.15,1.26,1.34,1.52,2.31l1.37-.36c-.53-2-1.41-3.11-2.62-3.34C264.4,394.4,262.12,397.42,261.86,397.77Z" transform="translate(-220.4 -300.13)"/><path d="M263,407.32l.12,1.41c1-.09,4.37-.45,5.32-1.59l-1.09-.91C267,406.69,264.83,407.17,263,407.32Z" transform="translate(-220.4 -300.13)"/><path d="M280.66,403.46l.88,1.12c4.78-3.76,5.7-6.39,5.74-6.5l-1.35-.46S285.05,400,280.66,403.46Z" transform="translate(-220.4 -300.13)"/><path d="M279.8,406.5c.46.92,2.73,2.87,5.89,3.23a19.8,19.8,0,0,0,7-.87l-.43-1.35a18.65,18.65,0,0,1-6.37.81,7.16,7.16,0,0,1-4.78-2.45Z" transform="translate(-220.4 -300.13)"/><path d="M288,441.89c.05.28,4.8,28.41-8.2,58.35l1.3.56c13.18-30.34,8.34-58.87,8.29-59.15Z" transform="translate(-220.4 -300.13)"/><path d="M291,438.17c.08.37,7.75,38.13-8.93,70l1.25.66c16.93-32.35,9.15-70.59,9.07-71Z" transform="translate(-220.4 -300.13)"/><path d="M282.48,452c0,1.62.17,15.84,6,17.43l.37-1.36c-4.08-1.12-5-12-5-16.07Z" transform="translate(-220.4 -300.13)"/><path d="M265.6,396.35a27.58,27.58,0,0,1-1.16,4s-4.5,3.5-4.34,8l1.67-.16s.67-4.67,2-5.84a9,9,0,0,0,3-6.66A1.39,1.39,0,0,0,265.6,396.35Z" transform="translate(-220.4 -300.13)"/></svg>