<svg id="_5_4" xmlns="http://www.w3.org/2000/svg" viewBox="0 0 153.07 238.11"><defs><style>.cls-1{fill:#ed1c24;}.cls-2{fill:#fff;}.cls-3{fill:#0066b3;}.cls-4{fill:#ffcb05;}</style></defs><title>_5_4</title><rect class="cls-1" width="153.07" height="238.11"/><path class="cls-2" d="M227.44,306l-.17,205s-.33,9.83,13.17,9.33l116.16.17s8.5-1.17,8.84-11V305.79s-1-9-9.84-9.33l-118.83.17S228.1,297.63,227.44,306Z" transform="translate(-219.9 -289.4)"/><path class="cls-3" d="M263.94,385a19.53,19.53,0,0,0-11.34-4,20.13,20.13,0,0,0-15,6.33c-2,2.34-5.33,7.84-10,9.67v2.17a39.54,39.54,0,0,0,14.5.66c7.67-1.16,17.5-4.5,22.67-12.5Z" transform="translate(-219.9 -289.4)"/><path class="cls-3" d="M281.27,390.79s-6.33-3.33-8.5-9S271.6,371,272.6,369s3-8,3-8,3.84,7.83,5.34,10.5,6,8.67,5.66,17.67a7.9,7.9,0,0,1,6,2.83c2.5,3,3.5,9.83,1.17,17.67s-6.5,8.83-7.83,9.66-5.34,2.67-7.34,10.33a50.13,50.13,0,0,0-4.66-8.16c-2.34-3-5.84-5.83-8.5-8.83a18.17,18.17,0,0,1-4-13c.5-4.67,2.83-9,9.16-9s7,2.83,7,2.83Z" transform="translate(-219.9 -289.4)"/><path class="cls-3" d="M289.1,386.13s2.5-.17,4.67,2.83,3.5,5.83,10.17,7.5a21.27,21.27,0,0,0,14-1c3.16-1.17,6.66-3.5,9-3,0,0-2.84-4.83-3.67-6.33s-1.33-7-7.67-11.84-19.33-8-28.16,2a9.1,9.1,0,0,1,8,1.34c3.83,2.83,1.83,5-1.17,5.83A15.1,15.1,0,0,0,289.1,386.13Z" transform="translate(-219.9 -289.4)"/><path class="cls-4" d="M266.77,391.46s-3.33-6.5-3.83-9.33-.67-4.17-.67-4.17a12.92,12.92,0,0,1-5.33-6.33,11.52,11.52,0,0,1-.5-8.34,10.8,10.8,0,0,1,5.33,4.17c2.33,3.33,5.67,8.5,5.67,8.5s3.33,1.83,2,14.83Z" transform="translate(-219.9 -289.4)"/><path class="cls-4" d="M278.6,429.62s-2,9.17-9.66,20.5l.16,17.17,9.34,22.17,8.5-13.67s-5.17-2.5-10.34-18.33C276.6,457.46,282.27,446.46,278.6,429.62Z" transform="translate(-219.9 -289.4)"/><path class="cls-4" d="M308.77,463.79l20.17-8-10,17s-16.17,7-16.84,7.67-.83-.5-.16-2S308.77,463.79,308.77,463.79Z" transform="translate(-219.9 -289.4)"/><path d="M237.36,295.92a10.64,10.64,0,0,0-10.63,10.63V510.37A10.64,10.64,0,0,0,237.36,521H355.51a10.65,10.65,0,0,0,10.64-10.63V306.55a10.65,10.65,0,0,0-10.64-10.63Zm-9.22,214.45V306.55a9.24,9.24,0,0,1,9.22-9.22H355.51a9.24,9.24,0,0,1,9.22,9.22V510.37a9.23,9.23,0,0,1-9.22,9.21H237.36A9.23,9.23,0,0,1,228.14,510.37Z" transform="translate(-219.9 -289.4)"/><path d="M227.44,446.21s9,9,14,19c0,0-.5-31.75-14-53l-.25-5s15,10.25,23,21.25c0,0-4.75-17.5-9.25-23,0,0,5.5-.5,8.25-1s6.25-3,6.25-3,2.25.25,2.5,1.25-.25,11,9,17.5c0,0,3.75,3.25,3.5,4.75s-4.5,32.5,8.25,62.25c0,0,20-25.5,18-87.75,0,0,12.75,3.5,13.75,3.5a2.38,2.38,0,0,1,2.5,1.5c.5,1.25.75,9,.75,11.5,0,0,22-40.75,45.75-52.25,0,0,1.25-.25-.25,2s-18.5,21.75-26.25,44.75c0,0,12.75-10.25,28-13.5,0,0,.5,1-.75,1.75s-27,21.5-42,48.75-19.75,45-23.75,72.5l-53,.25a107.18,107.18,0,0,0-14-33.75Z" transform="translate(-219.9 -289.4)"/><path d="M295.69,520s23.75-71.25,69.5-104.5l.25,1.5s-16.75,18.75-26,42.25c0,0,11.75-12.75,25.5-20.25v2.25s-33.75,30.5-42.25,78.75Z" transform="translate(-219.9 -289.4)"/><path d="M247.24,381c-7.1,2-10.51,6.42-12.77,9.33l-1.53,1.85a44.18,44.18,0,0,1-6.13,4.65l.75,1.2a43.11,43.11,0,0,0,6.38-4.85l1.65-2c2.14-2.76,5.38-6.94,12-8.84,7.38-2.11,13,1.58,14.83,2.79l.66.41c.33.17.56,1.1.59,1.92-1.18,1.66-11.28,14.67-35.93,11.25l-.19,1.4c27.14,3.77,37.35-11.91,37.45-12.07l.1-.18v-.2c0-.45-.06-2.72-1.39-3.38l-.52-.33C261.26,382.7,255.24,378.74,247.24,381Z" transform="translate(-219.9 -289.4)"/><path d="M274.76,360.75l-3.49,10.48a11.14,11.14,0,0,0-.58,3.73c0,5.84,3.59,13,9.44,15.88l-2,1.59c-.83-1-3-2.43-8.66-2.43a7.56,7.56,0,0,0-6.22,3c-2.7,3.42-3.16,9.2-2.22,13.15,1.11,4.69,4.95,8.12,8.33,11.14l1.62,1.47c3.37,3.13,6.1,8.56,7.08,11l.74,1.86.59-1.91c.61-1.95,2.67-7.28,4.93-8.6,3-1.77,8.53-5,10.58-12.93a27.34,27.34,0,0,0,.88-6.78c0-5.3-1.68-9.5-3.92-11a12.12,12.12,0,0,0-4.67-2v-.17a31.08,31.08,0,0,0-4.11-15.08c-4.44-7.64-7-12.42-7-12.47l-.77-1.47ZM278.37,394l4.48-3.52-1.16-.45c-6.19-2.4-9.56-9.78-9.56-15.2a9.67,9.67,0,0,1,.48-3.16s2.22-6.68,3-8.95c1.06,2,3.18,5.82,6.23,11.07a30.09,30.09,0,0,1,3.92,14.48c0,.39,0,.61,0,.62l-.05.75h.75a9.72,9.72,0,0,1,4.61,1.88c1.92,1.27,3.29,5.06,3.29,9.76a25.93,25.93,0,0,1-.83,6.47c-1.91,7.39-6.87,10.29-9.84,12-2.34,1.37-4.16,5.41-5,7.74a33.93,33.93,0,0,0-6.7-9.85l-1.64-1.48c-3.23-2.89-6.89-6.16-7.9-10.42a16.13,16.13,0,0,1-.41-3.68c0-2.95.71-6.17,2.36-8.27a6.2,6.2,0,0,1,5.11-2.42c6.92,0,7.81,2.23,7.82,2.25l.33.92Z" transform="translate(-219.9 -289.4)"/><path d="M262.51,372.25a19.13,19.13,0,0,0,0,10.17,61.57,61.57,0,0,0,3.8,9.12l1.25-.66a61,61,0,0,1-3.7-8.88,14.89,14.89,0,0,1-.63-4.42,19.22,19.22,0,0,1,.44-4.08,10,10,0,0,1,5.06,7.54,42.88,42.88,0,0,1,.33,5.21,22.61,22.61,0,0,1-.32,4.31l1.39.3a33.11,33.11,0,0,0,0-10,11.57,11.57,0,0,0-6.69-9.07l-.72-.29Z" transform="translate(-219.9 -289.4)"/><path d="M255.75,363.05c0,.1-2.27,10,5.79,15.5l.79-1.18a12.74,12.74,0,0,1-5.51-10.94,16.25,16.25,0,0,1,.12-1.93c3.28,2.71,5.57,8.17,5.59,8.23l1.31-.54c-.11-.28-2.88-7-7-9.58l-.84-.53Z" transform="translate(-219.9 -289.4)"/><path d="M286.14,376.25l-1.5,1.81,2.25-.67c.05,0,4.75-1.38,8.42.92,1,.63,1.51,1.27,1.51,1.92a1,1,0,0,1,0,.17c-.15,1.06-1.6,2.1-2.57,2.38a44,44,0,0,0-6,2.82,10.7,10.7,0,0,0-2.08.44l.49,1.33a9.11,9.11,0,0,1,1.81-.36l0,.07.14-.08a4.19,4.19,0,0,1,3.49,1.18l1.15,1.52c2.12,3,5.67,8,15.61,8.22a20.54,20.54,0,0,0,11.3-2.69,14.34,14.34,0,0,1,6.74-2.06l1.23-.05-.65-1c0-.06-3.72-6-4.68-8.85s-3.54-10.6-16.27-13.46C294.06,367,286.22,376.16,286.14,376.25Zm20.14-5.1c12,2.68,14.25,9.59,15.23,12.53a54.33,54.33,0,0,0,4.24,8.2,16.87,16.87,0,0,0-6.18,2.09A19,19,0,0,1,309,396.5c-9.23-.23-12.39-4.68-14.48-7.62l-1.26-1.65a4.89,4.89,0,0,0-2.31-1.41,26.36,26.36,0,0,1,3.73-1.68c1.3-.37,3.33-1.75,3.58-3.54a2.34,2.34,0,0,0,0-.38c0-.87-.43-2-2.18-3.11a11.68,11.68,0,0,0-7.2-1.5A19.79,19.79,0,0,1,306.28,371.15Z" transform="translate(-219.9 -289.4)"/><path d="M268.36,450.8l1.16.82a79.57,79.57,0,0,0,9.85-22l-1.37-.38A78.08,78.08,0,0,1,268.36,450.8Z" transform="translate(-219.9 -289.4)"/><path d="M277.52,428.7c.07.18,6.45,18.44-6.93,38.87l1.19.78c13.78-21.06,7.14-40,7.07-40.13Z" transform="translate(-219.9 -289.4)"/><path d="M276.25,457.13c.15.63,3.9,15.57,11,20.41l.79-1.17c-6.69-4.54-10.42-19.43-10.46-19.58Z" transform="translate(-219.9 -289.4)"/><path d="M307.93,463.8l.51,1.32c.83-.32,20.37-7.81,24.4-10.58l-.81-1.17C328.15,456.05,308.13,463.72,307.93,463.8Z" transform="translate(-219.9 -289.4)"/><path d="M301.1,480.33l.67,1.25c.14-.07,14-7.46,19.29-8.42l-.25-1.4C315.26,472.77,301.68,480,301.1,480.33Z" transform="translate(-219.9 -289.4)"/><path d="M259.94,380.21a10.74,10.74,0,0,1-4.25-1c-2-1-8.5-1-12,.5,0,0-6.5-21.25-16-36.25l-.25-4.5S246.19,352.46,259.94,380.21Z" transform="translate(-219.9 -289.4)"/><path d="M267.94,376.46a9.48,9.48,0,0,0-2.67-2.67A7.09,7.09,0,0,1,262.6,371c-.5-.83-3.16-5.5-5-7,0,0-1.66-6.67,3.34-14.33s10.16-15.5,11.16-18.5c0,0-.33,6.33-.33,9.33S274.44,360.63,267.94,376.46Z" transform="translate(-219.9 -289.4)"/><path d="M292.1,369.63s-4.91-23.42-20.16-41.67c0,0,14,8.5,29.25,35.75,0,0,18.75-45.5,44.75-66.75l2,.25s-14.5,17.5-33.25,73.5C314.69,370.71,303.27,363.79,292.1,369.63Z" transform="translate(-219.9 -289.4)"/><path d="M292.49,510.31l.56,1.3c.07,0,7-3,12.14-3.61l-.18-1.41C299.64,507.26,292.78,510.18,292.49,510.31Z" transform="translate(-219.9 -289.4)"/></svg>