<svg id="_6_1" xmlns="http://www.w3.org/2000/svg" viewBox="0 0 153.07 238.11"><defs><style>.cls-1{fill:#ed1c24;}.cls-2{fill:#fff;}.cls-3{fill:#ffcb05;}</style></defs><title>_6_1</title><rect class="cls-1" width="153.07" height="238.11"/><path class="cls-2" d="M229,299.76l-.16,204.5,135.83,7.33s2.67-1.67,2.67-7l.33-203.83s.17-8.34-9.17-9.67H239.15S230.48,291.26,229,299.76Z" transform="translate(-221.69 -283.98)"/><path class="cls-3" d="M285.4,440.59a13.62,13.62,0,0,0-4.67-5.5c-3.33-2.25-11.16-4.92-15.5-6.25s-10-3.75-11-4.17-1.91-.83-1.91-.83a1.68,1.68,0,0,0-.25,1.17c.16.5,1.83,6.66,2.33,8.66a54.64,54.64,0,0,1,.42,10.17c-.17,1.33,5.16,14.08,5.16,14.08l3.34,6.34,3.5,4.16,5.58,1.42,7.08-3.33s6.67,4.33,12.34,4.5,14.33-3.42,15.08-3.67,3.5-2.58,7.33-3.17,6.34-1.08,6.34-1.08-5.5-6.17-6.67-7.42-6.25-7-11.83-10.41-11.09-4.67-14.75-3.84C287.32,441.42,286.23,439.92,285.4,440.59Z" transform="translate(-221.69 -283.98)"/><path class="cls-3" d="M341.82,468.26a19.28,19.28,0,0,0-8,1.08c-3.67,1.5-9.09,5.5-9.92,6.08a33.06,33.06,0,0,1-9.67,3.59,9.18,9.18,0,0,1-6.66-1.25c-.34-.17-.59.25-.59.58s-.75,2.92-1,4.5,1.42,6.33,5.09,8.17,6.5.25,8.58,2.66,5.58,3.92,10,2.59,21.92-.34,21.92-.34l11.25-12.16-.5-5.42s4.5-4.42,4.91-5.92V449.76a29.6,29.6,0,0,1-8.41,8A45.5,45.5,0,0,1,348,462.34c-1.75.5-4.08,3.08-4.75,5.25Z" transform="translate(-221.69 -283.98)"/><path class="cls-1" d="M334.9,322.26l-10.62-3.5H314.4l-5.12,1a8.88,8.88,0,0,0-7.13,3,17.88,17.88,0,0,1-6.75,4.87l-11.5,13.13L281.15,356a35.65,35.65,0,0,0-4.75,7.12c-1.88,3.88-3.13,8.5-2.88,10s16.63,21.25,16.63,21.25l9.38,5.63s4.75,4.5,6.25,7.25a9.45,9.45,0,0,0,8.75,4.37c3.12-.5,6.62,5.13,6.62,5.13l11.13-4.13s5.62,1.5,10.62-1,8.13-2,8.13-2l9.87-8.25s4.13-.62,5-6.75a10.35,10.35,0,0,0-3.75-9.5,26.82,26.82,0,0,0,.75-5.37c0-2.38,1-9.75,1.25-11.63s1.38-7-2.12-10.87c0,0,5.25-3.25,5.5-5.38l-.25-16.75a10.21,10.21,0,0,0-3.13-3.75c-2.12-1.5-5.37-3.75-7-5.75s-11-4.87-11-4.87Z" transform="translate(-221.69 -283.98)"/><path class="cls-1" d="M260.15,432.67s-1.75-.25-2.33,2.09,2.08,2.83,3.33,3,2.25-1.59,1.92-3.34S260.15,432.67,260.15,432.67Z" transform="translate(-221.69 -283.98)"/><path class="cls-1" d="M262.73,442.34a3.32,3.32,0,0,0-2.58,1.58,3.17,3.17,0,0,0,1.92,4.42,3.21,3.21,0,0,0,4.25-2.75A3.17,3.17,0,0,0,262.73,442.34Z" transform="translate(-221.69 -283.98)"/><path class="cls-1" d="M290.57,459.09a2.87,2.87,0,0,0-3.59,1.75c-1,2.58,1,4.17,3,4.33s3.34-.75,3.17-3.5A2.46,2.46,0,0,0,290.57,459.09Z" transform="translate(-221.69 -283.98)"/><path class="cls-1" d="M305.65,455.67s-2.5-.16-3.33,1.84a3,3,0,0,0,2.33,4.41,3.07,3.07,0,0,0,3.75-3.25A3,3,0,0,0,305.65,455.67Z" transform="translate(-221.69 -283.98)"/><path class="cls-1" d="M268.32,457.51a14.29,14.29,0,0,1-8.25-5.42c-3.59-4.67-4.84-12.33-4.84-12.33a43.69,43.69,0,0,0-5.58,8.83c-1.92,4.42-4.17,19.42,12.42,19.5,0,0-.25,7.42,8.16,8.83s15.84-7.16,15.84-7.16-8.42-3.75-10.25-6.09a45.79,45.79,0,0,1-6.42,2.75c-2.58.75-3-1.08-3.08-2.08A22.51,22.51,0,0,1,268.32,457.51Z" transform="translate(-221.69 -283.98)"/><path class="cls-1" d="M314.65,482.26s-2.67.41-2.83,2.25,1.66,3,3.66,3,2.92-2,2.84-3.5S316.4,481.76,314.65,482.26Z" transform="translate(-221.69 -283.98)"/><path class="cls-1" d="M323.15,486.92a3.17,3.17,0,0,0-2.42,2.75c-.16,2.25,1.67,2.67,3.5,3.09S327,491.09,327,489,324.32,486.59,323.15,486.92Z" transform="translate(-221.69 -283.98)"/><path class="cls-1" d="M361.73,461.42a3.8,3.8,0,0,0-2.75,2.67c-.5,2.17,2.34,3.5,4.09,3.25s1.75-1.5,1.66-3.58A2.4,2.4,0,0,0,361.73,461.42Z" transform="translate(-221.69 -283.98)"/><path class="cls-1" d="M360.65,471.26a3.12,3.12,0,0,0-3.5,2c-.92,2.5,1.5,3.75,3,3.91s3.08-.33,3.17-2.91S360.65,471.26,360.65,471.26Z" transform="translate(-221.69 -283.98)"/><path class="cls-1" d="M344.23,488s-6.25,1.58-11.41.58a30.58,30.58,0,0,0-2.75,6.92c-.75,3.33,2.83,7.75,9.33,8.08a12.73,12.73,0,0,0,12.08-7.42S347.73,495.42,344.23,488Z" transform="translate(-221.69 -283.98)"/><path class="cls-1" d="M351.57,495.92s1.91-4.25.33-12.25c0,0,9.5-4,10-5.16,0,0,5.08,1.75,5.42,4.75l-.34,7.33s-.83,4-6.41,5.58S351.57,495.92,351.57,495.92Z" transform="translate(-221.69 -283.98)"/><path class="cls-1" d="M365.65,509.92a12.11,12.11,0,0,0-15.25-.08s-6-7.08-13-2.75a5.71,5.71,0,0,0-4.17-3.92,7.37,7.37,0,0,0-5.33.92s-2.25-5-6.25-5.5a6.34,6.34,0,0,0-6.75,4.67S310,499.59,302,502.17c0,0-1.5-4.83-12.08-5.83,0,0,.33-5.75-6.08-7.58s-11.25,3.33-11.25,3.33-5.75-2.08-6.59-2.33a2.74,2.74,0,0,1-1.33-1,9.32,9.32,0,0,0-5-4.34s2.28-5.25-2.92-10A10.85,10.85,0,0,0,245,472.09s-6.66-8.25-15.91-5.25v39.58a10.44,10.44,0,0,0,10.25,8.42l119-.33S364,514.59,365.65,509.92Z" transform="translate(-221.69 -283.98)"/><path class="cls-3" d="M333.07,359.34s-3.59-1.58-5.17,1.08-6.42,9.92-6.83,10.92a9.94,9.94,0,0,0-.59,3.83c0,1.59,1,3.84,2.42,4.42s5.42.17,8.25-2.33,4.33-9.34,4.42-12.17S335,360.34,333.07,359.34Z" transform="translate(-221.69 -283.98)"/><path d="M238.9,290.38A10.64,10.64,0,0,0,228.27,301V504.84a10.64,10.64,0,0,0,10.63,10.63H357.4A10.64,10.64,0,0,0,368,504.84V301a10.64,10.64,0,0,0-10.63-10.63Zm-9.21,214.46V301a9.22,9.22,0,0,1,9.21-9.21H357.4a9.22,9.22,0,0,1,9.21,9.21V504.84a9.22,9.22,0,0,1-9.21,9.21H238.9A9.22,9.22,0,0,1,229.69,504.84Z" transform="translate(-221.69 -283.98)"/><path d="M326.57,360.86c-1.14,1.66-2.5,4-3.7,6.14-1.07,1.87-2.08,3.64-2.61,4.32-.89,1.15-.7,3.67-.13,5.53.32,1.08,1.08,2.95,2.46,3.41a9.63,9.63,0,0,0,6.82-.71,10.69,10.69,0,0,0,5.25-6.57,25.55,25.55,0,0,0,1.42-7.77c0-3.7-1.3-5.87-3-6.45A5.52,5.52,0,0,0,326.57,360.86ZM323,378.92a3.89,3.89,0,0,1-1.56-2.48c-.57-1.89-.51-3.72-.1-4.25a51.45,51.45,0,0,0,2.72-4.49c1.19-2.07,2.53-4.43,3.64-6a4.13,4.13,0,0,1,4.83-1.57h0c2.09.69,3.05,5.29.72,12.44a9.28,9.28,0,0,1-4.54,5.74A8.22,8.22,0,0,1,323,378.92Zm10-20.16h0Z" transform="translate(-221.69 -283.98)"/><path d="M325.68,351.62a21.43,21.43,0,0,1-6.28,1.6c-1.8.22-5,3.28-4.62,6.45A50.56,50.56,0,0,1,315,368c-.14,1.12,1,2.42,1.47,2.93,1,1.06,2.61,2.16,4,2l-.13-1.41a4.54,4.54,0,0,1-2.81-1.6,3.3,3.3,0,0,1-1.09-1.77,50.18,50.18,0,0,0-.16-8.67c-.29-2.42,2.43-4.76,3.38-4.88a22.58,22.58,0,0,0,6.71-1.73,6.25,6.25,0,0,1,4.53-.45,2.31,2.31,0,0,1,1.36,1.25c.89,2.08,0,5.5,0,5.54l1.37.37c0-.16,1.05-3.93,0-6.47a3.71,3.71,0,0,0-2.15-2A7.55,7.55,0,0,0,325.68,351.62Z" transform="translate(-221.69 -283.98)"/><path d="M338,351.91a10.31,10.31,0,0,0-5.48,5.46l1.34.44a8.94,8.94,0,0,1,4.52-4.54c2.08-.59,4.41-.73,4.84.14.83,1.65,3.41,5.48,5.39,6.92a4.74,4.74,0,0,1,2,2.94,1,1,0,0,1-.25.82c-1.56,1.55-3.54,6-4.32,7.89-.57,1.36-2.77,5.7-7,4.59-3.31-.86-3.79-4.73-3.81-4.89l-1.41.16c0,.2.6,5,4.86,6.1,3.6.94,6.84-1.08,8.66-5.41,1.54-3.65,3.08-6.5,4-7.44a2.38,2.38,0,0,0,.66-1.93,6,6,0,0,0-2.58-4c-1.65-1.19-4.07-4.65-4.95-6.41C343.35,350.57,339.2,351.55,338,351.91Z" transform="translate(-221.69 -283.98)"/><path d="M343.13,377.07a2.8,2.8,0,0,1,0,3.74,22.37,22.37,0,0,1-4.91,3.85,23.44,23.44,0,0,0-3.54,2.6l-1.43,1.58c-1.56,1.8-3.51,4-5.24,4a3.36,3.36,0,0,1-2.47-1.11,6.25,6.25,0,0,1-1.48-4.65,30,30,0,0,1,1.13-6.82l-1.35-.42a30.88,30.88,0,0,0-1.2,7.18,7.72,7.72,0,0,0,1.87,5.69,4.84,4.84,0,0,0,3.5,1.55c2.38,0,4.56-2.51,6.31-4.53l1.36-1.51a23.28,23.28,0,0,1,3.31-2.41,23.18,23.18,0,0,0,5.24-4.15,4.21,4.21,0,0,0,0-5.59Z" transform="translate(-221.69 -283.98)"/><path d="M350.61,365.27c3.46,1.05,6.12,8.53,5.17,14.54-.65,4.13-3.1,8.47-5.83,10.32a3.82,3.82,0,0,1-2.81.77c-2.24-.51-3.11-1.27-3.45-1.83a1.48,1.48,0,0,1-.19-1.14,38.54,38.54,0,0,0,.36-5.84h-1.42a37.78,37.78,0,0,1-.31,5.5,2.88,2.88,0,0,0,.35,2.23c.7,1.14,2.16,2,4.35,2.46a5,5,0,0,0,3.92-1c3.07-2.08,5.71-6.71,6.43-11.27,1.07-6.73-2-14.86-6.16-16.12Z" transform="translate(-221.69 -283.98)"/><path d="M319.76,336.33a21.35,21.35,0,0,1-7.91,3.4c-3.29.62-7.8,1.48-10.5,6.7a6.88,6.88,0,0,0-.19,5.7,13.83,13.83,0,0,0,7.23,7.29,10.1,10.1,0,0,0,7.38.15l-.57-1.29a8.92,8.92,0,0,1-6.29-.18,12.47,12.47,0,0,1-6.43-6.47,5.44,5.44,0,0,1,.13-4.55c2.39-4.6,6.17-5.32,9.51-6a22.57,22.57,0,0,0,8.42-3.61c2.15-1.43,4.76-.56,5.51-.26l.88.37c1.62.69,3.45,1.48,4.94,1l1.39-.64c1.18-.62,2.4-1.25,3.53-.59l.1.06c2,1.18,5.44,3.16,5.89,7.07a14.21,14.21,0,0,1-1.1,7.27l1.27.64a15.54,15.54,0,0,0,1.24-8.07c-.54-4.61-4.47-6.91-6.58-8.14l-.1-.06c-1.81-1.05-3.6-.12-4.91.56l-1.17.55c-1,.33-2.63-.37-3.94-.94l-.91-.38C325.67,335.57,322.48,334.52,319.76,336.33Z" transform="translate(-221.69 -283.98)"/><path d="M298,359.27c-2.38,4.75-.35,10.1,3,11.94,2,1.11,6.22,1.47,9.84.16a8.79,8.79,0,0,0,5.5-5l-1.32-.52a7.53,7.53,0,0,1-4.66,4.21c-3.2,1.16-7,.86-8.67-.07-2.74-1.52-4.33-6.15-2.38-10.06s4.12-4.28,4.14-4.29l-.2-1.4C303.11,354.24,300.32,354.66,298,359.27Z" transform="translate(-221.69 -283.98)"/><path d="M346,337.9a6.42,6.42,0,0,0-4.14,3.23l1.29.59a4.94,4.94,0,0,1,3.19-2.44c2.37-.59,3.78,1.33,4.31,3.33.7,2.63,3.93,7.91,6.88,10.51,2.54,2.24,3.23,7.67,1.37,10.77-1.66,2.77-5.47,1.28-5.63,1.21l-.53,1.31c1.75.72,5.54,1.26,7.37-1.79,2.2-3.67,1.39-9.89-1.64-12.56-2.7-2.38-5.8-7.39-6.45-9.82C351.28,339.51,349.13,337.11,346,337.9Z" transform="translate(-221.69 -283.98)"/><path d="M306.1,376.35l.14.09c2.73,1.77,7.29,4.72,9,6.92a9.4,9.4,0,0,0,5.86,3.39,3.94,3.94,0,0,0,3-.78l-.9-1.09a2.53,2.53,0,0,1-1.93.46,8,8,0,0,1-4.89-2.85c-1.88-2.39-6.39-5.31-9.37-7.24l-.14-.09a3.88,3.88,0,0,1-2-3.78l-1.4-.25A5.29,5.29,0,0,0,306.1,376.35Z" transform="translate(-221.69 -283.98)"/><path d="M313.11,387.42c0,3,3.1,6,6,7.77a17.68,17.68,0,0,1,2.75,2.29,8.83,8.83,0,0,0,4,2.64c2.12.45,3.35-.43,5.39-1.9l2-1.37c1.11-.74,2.29-1.36,3.42-2,2.39-1.26,4.86-2.55,6.75-5l-1.13-.86c-1.7,2.24-3.92,3.41-6.28,4.65a39.1,39.1,0,0,0-3.55,2l-2,1.4c-2,1.4-2.77,2-4.28,1.66a7.69,7.69,0,0,1-3.29-2.28,18.78,18.78,0,0,0-3-2.46c-2.66-1.66-5.33-4.33-5.33-6.57a6,6,0,0,1,1.77-4l-1-1A7.38,7.38,0,0,0,313.11,387.42Z" transform="translate(-221.69 -283.98)"/><path d="M359.68,355.06l.22,1.4s1.28,0,2.94,3.59c1.54,3.34.53,7.95-.07,10.7l-.32,1.57a47.1,47.1,0,0,0-.34,8.49c.16,2.3-.23,3.82-2.72,4.79a3.16,3.16,0,0,1-3.81-1.22l-1.2.75a4.53,4.53,0,0,0,5.53,1.79c3.47-1.35,3.79-3.79,3.61-6.21a44.6,44.6,0,0,1,.33-8.18l.3-1.48c.64-2.92,1.72-7.82,0-11.59C362,354.85,360.05,355,359.68,355.06Z" transform="translate(-221.69 -283.98)"/><path d="M340.38,327.53c-3.83,3-4.88,8.53-4.93,8.77l1.4.25c0-.05,1-5.27,4.4-7.9,5.51-4.26,10.16-5.17,14.21-2.78a44,44,0,0,1,7,4.86l1,.78a6,6,0,0,1,3,4.95l1.42-.07a7.42,7.42,0,0,0-3.65-6.06l-.85-.68a44.66,44.66,0,0,0-7.18-5C351.57,321.93,346.4,322.88,340.38,327.53Z" transform="translate(-221.69 -283.98)"/><path d="M361.94,356.58l.41,1.36c.15-.05,3.69-1.16,5.62-5.92l-1.31-.53C365,355.59,362.07,356.54,361.94,356.58Z" transform="translate(-221.69 -283.98)"/><path d="M293.07,334.51c-1.52,1.09-3.92,6-6.89,12.29-1.28,2.7-2.38,5-2.95,5.9a29.52,29.52,0,0,1-2.16,2.63c-2.13,2.44-5.05,5.78-6.26,9.54-1.79,5.54-.15,14.11,6.41,19.12l6.12,4.51c3.44,2.49,6.16,4.46,7.08,5.68a7.57,7.57,0,0,0,7.88,2.94c3.6-.76,4.35-5.06,4.38-5.25l-1.4-.23s-.63,3.53-3.28,4.09a6.19,6.19,0,0,1-6.45-2.4c-1.05-1.4-3.7-3.32-7.38-6l-6.09-4.5c-5.82-4.44-7.58-12.41-5.92-17.55,1.12-3.48,3.82-6.57,6-9.05a32.06,32.06,0,0,0,2.27-2.78c.62-.94,1.75-3.32,3-6.08,2-4.29,5.09-10.77,6.44-11.73,1.75-1.25,5.2-3,8.67-.5a10.69,10.69,0,0,1,3.88,6.36l1.4-.21A12,12,0,0,0,303.4,334C299.05,330.91,294.73,333.33,293.07,334.51Z" transform="translate(-221.69 -283.98)"/><path d="M296.28,375.34c-.41,3.55,1.33,7.44,5.19,11.57a25.73,25.73,0,0,1,2.21,2.93c1.42,2.08,2.89,4.24,5.05,5.08,3.3,1.28,7-.59,8.07-3.06l-1.3-.54a5.22,5.22,0,0,1-6.26,2.28c-1.75-.68-3.09-2.65-4.39-4.56a26.53,26.53,0,0,0-2.35-3.1c-3.5-3.75-5.17-7.36-4.81-10.44a8.78,8.78,0,0,1,2.57-5.69l-.88-1.11C299.28,368.78,296.81,370.77,296.28,375.34Z" transform="translate(-221.69 -283.98)"/><path d="M313.94,403.3c.43,6.87,3.77,9.39,6.49,10.3,2.12.7,9.31,2.32,12.55-6.6,2.79-7.66,0-10.77-.15-10.9l-1,1s2.32,2.69-.14,9.44c-2.73,7.51-8.44,6.52-10.78,5.74-3.35-1.12-5.21-4.16-5.51-9a34.74,34.74,0,0,1,1-9.93L315,392.9A35.21,35.21,0,0,0,313.94,403.3Z" transform="translate(-221.69 -283.98)"/><path d="M298.35,399.62a54.31,54.31,0,0,1,7.36,8.66c1.18,2,4,4.12,6.66,4.15a4.75,4.75,0,0,0,4.22-2.47l-1.21-.74a3.37,3.37,0,0,1-3,1.79,7.3,7.3,0,0,1-5.45-3.45,54.57,54.57,0,0,0-7.65-9,2.15,2.15,0,0,1-.62-2.1l-1.36-.41A3.57,3.57,0,0,0,298.35,399.62Z" transform="translate(-221.69 -283.98)"/><path d="M361.61,385.53a7.68,7.68,0,0,1,3.48,5.26,10.49,10.49,0,0,1-1.51,7.71c-1.62,2.16-5,3.05-8.36,3.92a41.54,41.54,0,0,0-4,1.17c-4.11,1.55-8.06,5.78-9.33,7.59-.88,1.27-5,1.87-7.27,1.38a10.93,10.93,0,0,1-4.17-2.32l-1,1a12.17,12.17,0,0,0,4.84,2.67c2.54.55,7.32.05,8.72-1.95,1.14-1.63,4.91-5.67,8.67-7.08,1.14-.42,2.45-.77,3.85-1.13,3.55-.93,7.22-1.88,9.14-4.44a11.86,11.86,0,0,0,1.76-8.83,9,9,0,0,0-4.13-6.2Z" transform="translate(-221.69 -283.98)"/><path d="M301.8,324.05l-2.5,8.85,1.37.38,2.49-8.82c.92-3.06,4.64-4.71,8.3-3.69s8.56,2.05,11.4,1.86c2.25-.15,4.55,1.45,7.05,4.88,2.81,3.86-1.3,9.08-1.48,9.3l1.11.89c1.85-2.32,4.26-7.25,1.52-11s-5.52-5.64-8.29-5.45c-2.23.15-6.41-.55-10.93-1.81S302.94,320.26,301.8,324.05Z" transform="translate(-221.69 -283.98)"/><path d="M304.15,321.76s-1.33-7.34-1.83-10.84S298,300.09,295,297.09a17.47,17.47,0,0,1-4-5.83,34.45,34.45,0,0,0-2,4c-1.16,2.66-3.66,8.5-3.83,12.66,0,0-3.5-4.16-10.83-5.83s-17.34-2.83-19.84-4.83c0,0-1.5-.17-1.5,1.16s1.67,9.17,1.17,12.34.5,14,1.83,18.5a8.38,8.38,0,0,1-3.5-.17c-2-.5-7.83-.17-9.83,1.83,0,0,6.67,2,10.5,6s7,10.67,12.67,15,12.83,4.84,15.5,3.84a30.19,30.19,0,0,0,4.66-6.67c1.67-3.5,5.34-11.83,6.84-13.5,0,0,2.45-2.46,4.08-2.46s2.75.63,3.5-1.5S302.65,323,304.15,321.76Z" transform="translate(-221.69 -283.98)"/><path d="M308.78,319.51a37.33,37.33,0,0,1,5.37,1.25,36,36,0,0,0,7.63,1c1,.16,3.75.25,5.75,1.87s3.87,3.88,4,6.38-2,7-3,7.5a4.47,4.47,0,0,0,3.12.41,4.05,4.05,0,0,1,2.25-1c1.13,0,1.75.13,2.63-2s1.87-5.62,6.87-8.5,9.75-3.5,14.5,0a17,17,0,0,0,9.13-9.75l.12-17.25a3.71,3.71,0,0,1-2.12,2.38c-1.75.75-6,2.75-6.63,4.75a21.08,21.08,0,0,0-.5-8.5,61.53,61.53,0,0,1-2-6.63c0-.5-1.5,0-2.5.88s-3.62,1.37-6.25,2.12-12.37,3.88-15.37,9.75c0,0-.25-5-1.75-7.37a40.22,40.22,0,0,1-2.75-5.5l-1.88.25s-4,3.87-6.5,6.62S309.15,308.51,308.78,319.51Z" transform="translate(-221.69 -283.98)"/><path d="M274.82,369.59a33.3,33.3,0,0,0-12,1.5c-5.67,2-10.67,5.5-16.34,6.5,0,0-1.16,1.33,0,1.5a6.75,6.75,0,0,1,4.34,3c.83,1.67,2.83,5.17,6.33,6.5a28.16,28.16,0,0,0-9.83,4.33,27.58,27.58,0,0,0-7.34,8.17c-.5.67.34,1.67,1.17,1.33s3.83-2.16,5.83-1.16a104,104,0,0,0,15.84,6.16,24.37,24.37,0,0,0,11.33.34,37.33,37.33,0,0,1-1.5,5c-.83,2-1.67,6.5.5,9.66a12,12,0,0,1,5.17-3c2.66-.5,12.16-2.5,16.5-7.83a26.9,26.9,0,0,0,5.33-11.17,3.89,3.89,0,0,0-1.33-1.33s-1.3-2.33-.42-3a26.87,26.87,0,0,1-3.75-2.87c-.88-1-9.63-7-11.88-8.88S274.86,378.67,274.82,369.59Z" transform="translate(-221.69 -283.98)"/><path d="M312.78,411.88s.5,3-3.88,9.13a28.17,28.17,0,0,1-15.38,10.37s-.12.75,1.5,1.88,17.63,4.37,25.38-5.5c0,0-.25,3.5,4.25,7.25s13,6.75,13,6.75-4.75-6.25-6-10.13-2.12-12.37,1.25-18.87l-1.25-1s-1.25-1.25-2.12-.38-2.5,2.5-6.75,1.88a9.49,9.49,0,0,1-6.25-3.63l-1.88,1.25Z" transform="translate(-221.69 -283.98)"/><path d="M342.53,412s-1.75,4.25,2.12,13.25,10.13,19.12,10.13,24.5a12.49,12.49,0,0,0,1.5-4.13,38.1,38.1,0,0,1,2.5-8.87c1.5-3.25,3.25-8.13,3.25-8.13s4.87,9.13,5.25,11l.12-34.12a6,6,0,0,0-5.25-4.5L355,403C351.9,403.88,345,406.38,342.53,412Z" transform="translate(-221.69 -283.98)"/><path d="M286.82,440.73l.33,1.38c.06,0,6.18-1.35,14.3,3.59,5.51,3.34,10.65,9.1,14.4,13.3,1.32,1.48,2.44,2.71,3.36,3.61-2.58.39-7.67,1.23-9.36,2l-1.76,1.05a25.59,25.59,0,0,1-15.25,4.72c-9.11-.32-16.8-7.4-16.87-7.47l-1,1c.33.31,8.14,7.52,17.79,7.86a26.85,26.85,0,0,0,16.06-4.95l1.6-1c1.7-.78,8.13-1.79,10.46-2.11l1.78-.24-1.46-1a38.6,38.6,0,0,1-4.32-4.46c-3.82-4.26-9-10.11-14.72-13.57C293.54,439.23,287.09,440.67,286.82,440.73Z" transform="translate(-221.69 -283.98)"/><path d="M286.21,440.06h0c-.23,0-5.65.95-12.74,8.37-6,6.3-7.94,13.49-7.77,16.78a2.62,2.62,0,0,0,.66,1.92,2.48,2.48,0,0,0,2,.26,25.69,25.69,0,0,0,15.37-10.76c4-6.47,5.38-13.72,3.95-15.87A1.45,1.45,0,0,0,286.21,440.06Zm.24,1.4s.14.13.23.46a5.14,5.14,0,0,1,.15,1.37c0,2.73-1.27,7.71-4.28,12.59-4.59,7.43-13.94,10.54-15.27,10.14a2.39,2.39,0,0,1-.17-1.09c0-2.68,1.48-9.33,7.39-15.52,6.7-7,11.86-7.94,11.93-8Z" transform="translate(-221.69 -283.98)"/><path d="M254.83,415.39a153.18,153.18,0,0,1,19.23,11.77,33.65,33.65,0,0,1,7.16,7.44,24.42,24.42,0,0,0-4.44-2.65,93.22,93.22,0,0,0-12.23-4.3c-4.79-1.45-9.32-2.82-11.66-4.47l-.49-.35-.42.43a2.14,2.14,0,0,0-.49,2.26c.28.7,2.27,9,3,13.51.6,3.94,3.36,16.94,13.39,19.09l.29-1.39c-9.14-2-11.71-14.21-12.28-17.91-.66-4.27-2.65-12.86-3-13.83a.52.52,0,0,1,0-.21s0,0,0,0c2.62,1.59,6.84,2.9,11.36,4.27a93.62,93.62,0,0,1,12,4.23c5.54,2.59,7.7,5.79,8.44,7.25.22.48.36.84.36.85l1.35-.43,0-.07a6.63,6.63,0,0,0-.39-.94,35.94,35.94,0,0,0-11-13.87,153.43,153.43,0,0,0-19.44-11.89Z" transform="translate(-221.69 -283.98)"/><path d="M267.25,432.5a3.59,3.59,0,0,0-.59,3.2,16,16,0,0,1,.35,1.94c.49,3.35,1.41,9.59,4.42,13.39l1.11-.88c-2.78-3.5-3.66-9.49-4.13-12.71a12.16,12.16,0,0,0-.44-2.3,1,1,0,0,1-.08-.42,2.11,2.11,0,0,1,.28-1,21.3,21.3,0,0,1,13.7,8.88l.16.26.3.07a6.58,6.58,0,0,1,4,3.29l1.27-.63a7.93,7.93,0,0,0-4.68-4,22.33,22.33,0,0,0-15-9.43l-.42-.06Z" transform="translate(-221.69 -283.98)"/><path d="M287.3,443.55l0,1.42a25,25,0,0,1,13.81,5.12,1.35,1.35,0,0,1-.25.18l-1,.72c-2.44,2-8.93,7.16-16.49,4.6l-.46,1.34c8.3,2.81,15.48-2.94,17.84-4.84l.69-.52a2.31,2.31,0,0,0,1.39-1.47l.11-.45-.36-.29C295,443.44,287.61,443.54,287.3,443.55Z" transform="translate(-221.69 -283.98)"/><path d="M267.63,436.44a25.84,25.84,0,0,1,12.31,7.43L281,443a26.7,26.7,0,0,0-13-7.9Z" transform="translate(-221.69 -283.98)"/><path d="M267.84,439.62c6.81,1.42,10.07,5.22,10.1,5.26L279,444c-.14-.17-3.58-4.21-10.9-5.74Z" transform="translate(-221.69 -283.98)"/><path d="M268.48,442.28a23.19,23.19,0,0,1,8.22,4l.9-1.1a24.32,24.32,0,0,0-8.78-4.31Z" transform="translate(-221.69 -283.98)"/><path d="M269.09,444.93a20.85,20.85,0,0,1,5.78,3.05l.89-1.11a22.43,22.43,0,0,0-6.22-3.29Z" transform="translate(-221.69 -283.98)"/><polygon points="48.81 164.8 52.11 165.62 52.48 164.26 49.12 163.41 48.81 164.8"/><path d="M279.92,444.93c.05,0,4.22,1.45,5.57,4.76l1.32-.53c-1.61-3.93-6.24-5.51-6.44-5.58Z" transform="translate(-221.69 -283.98)"/><path d="M276.87,447.46a14,14,0,0,1,7.73,5.08l1.1-.9c-4-4.82-8.42-5.56-8.61-5.58Z" transform="translate(-221.69 -283.98)"/><path d="M274.38,450.12s4.38.74,7.65,6.65l1.24-.69c-3.63-6.57-8.48-7.33-8.69-7.36Z" transform="translate(-221.69 -283.98)"/><path d="M271.15,451.57l.32,1.38s3.88-.74,9.13,5.59l1.1-.9C275.81,450.54,271.34,451.52,271.15,451.57Z" transform="translate(-221.69 -283.98)"/><path d="M269.79,455.63c.2,0,4.88.25,8.61,5.54l1.16-.82c-4.15-5.89-9.5-6.13-9.72-6.13Z" transform="translate(-221.69 -283.98)"/><path d="M268.54,458s4.11.71,7.54,5.38l1.14-.84c-3.8-5.17-8.27-5.91-8.46-5.94Z" transform="translate(-221.69 -283.98)"/><path d="M267.48,460.3s2.93.11,6.46,4.41l1.09-.9c-4-4.87-7.4-4.93-7.55-4.93Z" transform="translate(-221.69 -283.98)"/><path d="M266.55,461.43l.48,1.33s1.31-.24,3.52,3.21l1.2-.76C268.91,460.77,266.92,461.28,266.55,461.43Z" transform="translate(-221.69 -283.98)"/><path d="M287.23,447.46c.07,0,7.73,1,12.53,4.22l.78-1.18c-5.08-3.39-12.81-4.4-13.13-4.45Z" transform="translate(-221.69 -283.98)"/><path d="M286.48,449.8a24.63,24.63,0,0,1,11.31,3.57l.72-1.22a25.56,25.56,0,0,0-12-3.77Z" transform="translate(-221.69 -283.98)"/><path d="M285.63,451.05l0,1.41a16.15,16.15,0,0,1,9.06,3l.84-1.14A17.14,17.14,0,0,0,285.63,451.05Z" transform="translate(-221.69 -283.98)"/><path d="M284.45,454.63a15.07,15.07,0,0,1,6.49,2.06l.75-1.2a16.06,16.06,0,0,0-7.17-2.27Z" transform="translate(-221.69 -283.98)"/><path d="M287.22,440.43l.52,1.32c.09,0,8.73-3.42,14-2.63,4.51.69,13.84,3.31,25.65,13.18l.91-1.09c-12.07-10.09-21.69-12.78-26.35-13.49C296.3,436.87,287.59,440.29,287.22,440.43Z" transform="translate(-221.69 -283.98)"/><path d="M259.46,431.88a2.35,2.35,0,0,0-1.63.75,3,3,0,0,0-.73,2.15c0,.11,0,.23,0,.36a3.63,3.63,0,0,0,1.23,2.66,4.33,4.33,0,0,0,3.22.83,2.55,2.55,0,0,0,1.89-1.26,4.08,4.08,0,0,0,.19-3.54C263,432.13,261.44,431.44,259.46,431.88Zm-.21,4.84a2.32,2.32,0,0,1-.73-1.68,2,2,0,0,1,.33-1.43,1,1,0,0,1,.65-.31h.07l.09,0c1.35-.34,2.24,0,2.67,1.07a2.67,2.67,0,0,1-.1,2.29,1.08,1.08,0,0,1-.83.58A3,3,0,0,1,259.25,436.72Z" transform="translate(-221.69 -283.98)"/><path d="M261.79,441.82l.16-.08a4,4,0,0,0-3,4.27,3.43,3.43,0,0,0,1.89,2.72,4.76,4.76,0,0,0,4.15,0c1.85-1,2.08-3.25,1.5-5a3.17,3.17,0,0,0-2-1.9A3.29,3.29,0,0,0,261.79,441.82Zm-.31,5.65a2.06,2.06,0,0,1-1.13-1.63c-.25-2,1.91-2.71,2-2.74l.09,0,.07-.05a2.21,2.21,0,0,1,1.47.1,1.79,1.79,0,0,1,1.16,1c.37,1.11.38,2.65-.83,3.32A3.32,3.32,0,0,1,261.48,447.47Z" transform="translate(-221.69 -283.98)"/><path d="M289.5,458.24a4.22,4.22,0,0,0-3.72,3.42,3.71,3.71,0,0,0,0,.47,3.83,3.83,0,0,0,1.44,2.92A4.32,4.32,0,0,0,291,466.1c2-.59,2.84-1.89,2.84-4.34a3.45,3.45,0,0,0-1.42-2.8A3.66,3.66,0,0,0,289.5,458.24ZM288.11,464a2.4,2.4,0,0,1-.92-2.13c.25-1.91,2.45-2.21,2.55-2.22h.1a2.29,2.29,0,0,1,1.75.48,2,2,0,0,1,.85,1.67c0,2.05-.64,2.63-1.83,3A3.05,3.05,0,0,1,288.11,464Zm1.35-5.74h0l.07,0Z" transform="translate(-221.69 -283.98)"/><path d="M304.75,454.88h0c-1.26.14-3.63,1.05-3.63,3.53a4.56,4.56,0,0,0,1.33,3.48,3.61,3.61,0,0,0,2.77.9c2.5-.23,4-1.77,3.81-3.93a4.51,4.51,0,0,0-1.54-3.12A3.69,3.69,0,0,0,304.75,454.88Zm1.81,1.95a3.11,3.11,0,0,1,1.05,2.15c.16,1.95-1.71,2.33-2.52,2.4a2.16,2.16,0,0,1-1.69-.52,3.26,3.26,0,0,1-.87-2.44c0-1.81,2.23-2.11,2.36-2.13A2.28,2.28,0,0,1,306.56,456.83Z" transform="translate(-221.69 -283.98)"/><path d="M250.71,444.89c-.06.09-5.43,9.22-1.36,17.35A11.72,11.72,0,0,0,261.41,469c0,2,.94,6.41,7.89,8.32,8.81,2.42,17-6.49,17.37-6.87l-1-.95c-.08.08-8,8.65-16,6.46-7.73-2.13-6.86-7.47-6.82-7.69l.2-1.14-1.1.33a10.34,10.34,0,0,1-11.33-5.8c-3.72-7.45,1.25-15.9,1.3-16l3.84-6.33-1.22-.73Z" transform="translate(-221.69 -283.98)"/><path d="M275.44,464.28c0,.23.25,5.77,6.52,9.42l.71-1.22c-5.56-3.25-5.8-8.05-5.81-8.25Z" transform="translate(-221.69 -283.98)"/><path d="M278.09,476l.79-1.18a11,11,0,0,1-5.19-9.52l-1.41-.11A12.44,12.44,0,0,0,278.09,476Z" transform="translate(-221.69 -283.98)"/><path d="M270.11,466.09c0,.28,0,7,3.68,11l1-1c-3.27-3.58-3.32-10-3.32-10Z" transform="translate(-221.69 -283.98)"/><path d="M269.48,476.83l1.34-.48c0-.05-1.87-5.44.13-9.44l-1.27-.64C267.41,470.82,269.4,476.58,269.48,476.83Z" transform="translate(-221.69 -283.98)"/><path d="M265.11,474.66l1.41.19c.22-1.61,1.05-6.1,2.18-7.48l-1.1-.89C266,468.41,265.2,474,265.11,474.66Z" transform="translate(-221.69 -283.98)"/><path d="M262,470.81l1.4.23a8.4,8.4,0,0,1,3.54-4.87l-.81-1.16A9.63,9.63,0,0,0,262,470.81Z" transform="translate(-221.69 -283.98)"/><path d="M254.72,466.05l-.14,1.41a19.66,19.66,0,0,0,12-2.95l-.8-1.17C260.87,466.64,254.78,466.06,254.72,466.05Z" transform="translate(-221.69 -283.98)"/><path d="M250.75,461.93l-.54,1.32c.37.14,9,3.58,17-1.91l-.8-1.17C259,465.22,250.83,462,250.75,461.93Z" transform="translate(-221.69 -283.98)"/><path d="M248.69,459c.25.22,6.3,5.22,19.05.29l-.51-1.32c-11.9,4.6-17.57,0-17.62-.05Z" transform="translate(-221.69 -283.98)"/><path d="M248.12,455.56c.21.23,5.11,5.45,18.21,2.05l-.36-1.37c-12.18,3.16-16.75-1.58-16.8-1.63Z" transform="translate(-221.69 -283.98)"/><path d="M248.49,452.6c.2.19,4.86,4.56,14.11,3l-.23-1.4c-8.5,1.42-12.85-2.6-12.9-2.64Z" transform="translate(-221.69 -283.98)"/><path d="M249.12,448.73c.14.15,3.46,3.72,11,4.07l.06-1.42c-6.91-.31-10-3.57-10-3.6Z" transform="translate(-221.69 -283.98)"/><path d="M250.83,445.77c.14.14,3.54,3.33,7.22,3.85l.2-1.4c-3.23-.46-6.41-3.45-6.45-3.48Z" transform="translate(-221.69 -283.98)"/><path d="M341.28,468l-.07.08,0,.1c-.12.28-2.91,6.89,1.32,17.38,3.9,9.67,7.1,11.11,8.66,11.11a1.09,1.09,0,0,0,.87-.51c1-1.36,2.3-6.47-.35-16.05-2.33-8.4-6-12-8.5-12.57A1.88,1.88,0,0,0,341.28,468Zm1.79,1c2.05.66,5.18,4.07,7.23,11.5a36.69,36.69,0,0,1,1.52,9.73c0,3.06-.6,4.61-.89,5-.86-.15-3.55-1.34-7.12-10.2a28.29,28.29,0,0,1-2.21-10.59,16.12,16.12,0,0,1,.81-5.52A1,1,0,0,1,343.07,469Z" transform="translate(-221.69 -283.98)"/><path d="M334.63,468.41c-4.2,1.14-9.64,5.32-10.25,5.79a27.87,27.87,0,0,1-9.68,4,11.43,11.43,0,0,1-7.06-1.11.93.93,0,0,0-.83,0c-.61.33-.74,1.24-.95,2.76l-.39,2.19c-.36,1.31.27,3.82,1.47,5.84a7.85,7.85,0,0,0,4.71,3.87l2,.47c2.88.66,5.36,1.22,6,2.23.55.84,3.68,4.87,10.67,2.27l-.5-1.32c-5.83,2.16-8.36-.78-9-1.73-1-1.49-3.47-2.05-6.91-2.83l-2-.47a6.5,6.5,0,0,1-3.82-3.21,9.31,9.31,0,0,1-1.38-4.26,2.17,2.17,0,0,1,.05-.49l.43-2.37c.07-.49.16-1.11.25-1.49a12.72,12.72,0,0,0,7.43,1,28.91,28.91,0,0,0,10.31-4.3c2.12-1.65,6.56-4.68,9.75-5.55a21.11,21.11,0,0,1,6.75-.64l.14-1.41A21.73,21.73,0,0,0,334.63,468.41Z" transform="translate(-221.69 -283.98)"/><path d="M322.94,475.59a16,16,0,0,0,5.76,11.55c5.74,4.69,14.95,1.75,15.34,1.62l-.44-1.34c-.09,0-8.87,2.82-14-1.38a14.78,14.78,0,0,1-5.24-10.45Z" transform="translate(-221.69 -283.98)"/><path d="M359.33,456.62l-1.75.93a44.67,44.67,0,0,1-9.11,4c-4.67,1.26-6.11,6.12-6.17,6.33l1.36.39c0-.05,1.29-4.3,5.18-5.35a46,46,0,0,0,9.41-4.14l1.72-.91c4.07-2,8-8,8.2-9l-1.37-.36C366.6,449.15,363.14,454.72,359.33,456.62Z" transform="translate(-221.69 -283.98)"/><path d="M352.32,482.57l.32,1.38c.43-.1,10.38-2.52,15.47-12l-1.25-.67C362.08,480.18,352.42,482.54,352.32,482.57Z" transform="translate(-221.69 -283.98)"/><path d="M361.57,479.25s4.17,1.6,5.06,4.86l1.37-.37c-1.08-4-5.74-5.74-5.94-5.81Z" transform="translate(-221.69 -283.98)"/><path d="M329.64,494.06a6.85,6.85,0,0,0,.8,5.76c1.08,1.66,3.45,3.78,8.62,4.47,7,.94,11.6-4.41,12.92-7.33,1,.59,3,1.13,6.95.5,6.4-1,8.89-6,9.09-8.31l-1.41-.12c-.16,1.82-2.39,6.13-7.91,7s-6.42-.64-6.43-.65l-1-1.54-.32,1.77c-.28,1.71-4.74,8.18-11.71,7.25-4.63-.62-6.7-2.43-7.61-3.84a5.4,5.4,0,0,1-.63-4.59,13.6,13.6,0,0,1,2.65-5.37l-1-1A14.52,14.52,0,0,0,329.64,494.06Z" transform="translate(-221.69 -283.98)"/><path d="M331.55,464.89a51.61,51.61,0,0,0-5.45,1.21c-5.56,1.43-12.47,3.21-19,.82l-.48,1.34c7,2.53,14.13.69,19.87-.79a53.17,53.17,0,0,1,5.3-1.18,11.83,11.83,0,0,1,9.24,2.65l1-1A13.09,13.09,0,0,0,331.55,464.89Z" transform="translate(-221.69 -283.98)"/><path d="M349.24,457a34.54,34.54,0,0,0-4.25,3.3c-4.59,4.42-3.56,7.91-3.52,8.05l1.36-.42c0-.11-.77-2.85,3.14-6.61a35.22,35.22,0,0,1,4.08-3.16c4.06-2.85,9.11-6.4,11.61-14.14l-1.35-.43C358,450.83,353.33,454.08,349.24,457Z" transform="translate(-221.69 -283.98)"/><path d="M323.64,475.55l0,1.42c12.16-.17,17.77-6,18-6.23l-1-1C340.58,469.83,335.16,475.39,323.64,475.55Z" transform="translate(-221.69 -283.98)"/><path d="M324.61,478.39l-.26,1.4c.46.08,11.34,2,16.87-5.44l-1.14-.85C335.08,480.22,324.72,478.41,324.61,478.39Z" transform="translate(-221.69 -283.98)"/><path d="M325.84,481.74l-.38,1.37c.32.08,7.77,2,16.12-4.29l-.86-1.13C333,483.56,325.91,481.76,325.84,481.74Z" transform="translate(-221.69 -283.98)"/><path d="M328,484.56l-.26,1.39c.26.05,6.54,1.16,14.36-4.11l-.8-1.17C334,485.59,328,484.57,328,484.56Z" transform="translate(-221.69 -283.98)"/><path d="M342.62,483.22h-.3l-.21.23c-3,3.44-8.38,4.59-8.44,4.6l.29,1.39c.24-.05,5.68-1.22,9-4.83a18.42,18.42,0,0,0,8.6-2.95l-.8-1.16A17.34,17.34,0,0,1,342.62,483.22Z" transform="translate(-221.69 -283.98)"/><path d="M344.39,468.1l.52,1.32c.33-.14,8.21-3.29,12.44-8l-1.06-.95C352.29,464.94,344.47,468.07,344.39,468.1Z" transform="translate(-221.69 -283.98)"/><path d="M348.61,473.41l.42,1.36c.27-.09,6.7-2.08,8.64-4.2l-1-1C355.23,471.13,350.37,472.87,348.61,473.41Z" transform="translate(-221.69 -283.98)"/><path d="M350.18,477.06l.28,1.39c.45-.09,4.46-.93,5.91-2.75l-1.11-.89C354.3,476,351.27,476.84,350.18,477.06Z" transform="translate(-221.69 -283.98)"/><path d="M346.29,470.41a26.25,26.25,0,0,0-5.41,1.52l.54,1.32a24.45,24.45,0,0,1,5.16-1.46,33.77,33.77,0,0,0,11.7-6l-.92-1.07C352.87,468.56,346.36,470.39,346.29,470.41Z" transform="translate(-221.69 -283.98)"/><path d="M340.72,475.22l.2,1.4c.24,0,5.95-.85,7.86-1.72l-.59-1.29A43.89,43.89,0,0,1,340.72,475.22Z" transform="translate(-221.69 -283.98)"/><path d="M341.33,479.4l.31,1.38c1.25-.28,7.57-1.76,8.8-2.82l-.92-1.07C348.81,477.5,344.3,478.72,341.33,479.4Z" transform="translate(-221.69 -283.98)"/><path d="M355.71,459.79a13.24,13.24,0,0,1,1.44,6.32,16.91,16.91,0,0,1-.52,4.14c-2.11,8.43-4.89,12.61-5.17,13-2.76,2.41-7.74,2.29-7.79,2.29l0,1.41c.23,0,5.65.15,8.82-2.67l.06-.05.05-.07c.13-.17,3.16-4.44,5.44-13.57,1.72-6.88-1-11.36-1.08-11.55Z" transform="translate(-221.69 -283.98)"/><path d="M347.9,492.55l.17,1.41a9.28,9.28,0,0,0,4.91-2.2l-1-1A8,8,0,0,1,347.9,492.55Z" transform="translate(-221.69 -283.98)"/><path d="M331.51,490.56l.28,1.39a25.5,25.5,0,0,0,6-2.07l-.67-1.25A24,24,0,0,1,331.51,490.56Z" transform="translate(-221.69 -283.98)"/><path d="M330.25,493.55l.14,1.41c.21,0,5.44-.58,12.67-5.79l-.82-1.16C335.34,493,330.3,493.55,330.25,493.55Z" transform="translate(-221.69 -283.98)"/><path d="M345.62,489.72h-.21l-.18.13c-9,6.56-15.28,6-15.34,6l-.14,1.41c.27,0,6.79.6,16.13-6.17.91-.05,5-.41,7.1-2.53l-1-1C350,489.53,345.67,489.71,345.62,489.72Z" transform="translate(-221.69 -283.98)"/><path d="M330.9,498.89l-.17,1.4c.28,0,7.07.79,16.86-6.81l-.87-1.12C337.44,499.56,331,498.89,330.9,498.89Z" transform="translate(-221.69 -283.98)"/><path d="M334.63,501.72l0,1.41c.3,0,7.55-.26,14.34-7.9l-1.06-.94C341.59,501.44,334.7,501.71,334.63,501.72Z" transform="translate(-221.69 -283.98)"/><path d="M355.4,481.72l-.17,1.41c.24,0,5.81.66,10-2.12l-.79-1.18C360.7,482.32,355.46,481.73,355.4,481.72Z" transform="translate(-221.69 -283.98)"/><path d="M352.36,485.41l-.42,1.35a18,18,0,0,0,15.29-3.1l-.83-1.14A16.9,16.9,0,0,1,352.36,485.41Z" transform="translate(-221.69 -283.98)"/><path d="M352.53,488.58l-.43,1.35c.36.12,8.8,2.72,15.52-3.31l-.94-1.06C360.57,491,352.61,488.61,352.53,488.58Z" transform="translate(-221.69 -283.98)"/><path d="M352.56,491.89l-.16,1.4c.36,0,9,1,14.75-2.07l-.66-1.26C361.08,492.82,352.65,491.9,352.56,491.89Z" transform="translate(-221.69 -283.98)"/><path d="M315,481.38h0c-1.18.07-3.49.81-3.82,3.11a2.94,2.94,0,0,0,.66,2.43,4.74,4.74,0,0,0,3.37,1.38c1.3,0,3.1-.37,3.7-3.58a2.49,2.49,0,0,0-.52-2.19C317.28,481.31,315.19,481.37,315,481.38Zm2.32,2.08a1.08,1.08,0,0,1,.18,1c-.41,2.23-1.36,2.42-2.3,2.42a3.37,3.37,0,0,1-2.3-.89,1.43,1.43,0,0,1-.35-1,1.67,1.67,0,0,1,0-.31c.24-1.72,2.4-1.89,2.5-1.89A3.34,3.34,0,0,1,317.27,483.46Z" transform="translate(-221.69 -283.98)"/><path d="M323.73,485.89a4.23,4.23,0,0,0-3.78,3.44,3.38,3.38,0,0,0,.76,2.77,4.39,4.39,0,0,0,3.11,1.37c1.66,0,3.5-1.22,3.87-4a3,3,0,0,0-.51-2.32,4.45,4.45,0,0,0-3.13-1.3l-.23,0Zm-2,5.28a1.88,1.88,0,0,1-.45-1.27c0-.12,0-.25,0-.38a2.83,2.83,0,0,1,2.49-2.21h0a3.39,3.39,0,0,1,2.18.76,1.33,1.33,0,0,1,.25.86,2.91,2.91,0,0,1,0,.4c-.27,2-1.49,2.72-2.46,2.72A3,3,0,0,1,321.78,491.17Z" transform="translate(-221.69 -283.98)"/><path d="M361.87,460.72h-.08c-.14,0-3.52,1-3.52,3.52,0,2.23,1.91,3.46,3.79,3.7a2.86,2.86,0,0,0,2.29-.61,3.51,3.51,0,0,0,1-2.76,4.12,4.12,0,0,0-1.39-3.16A2.7,2.7,0,0,0,361.87,460.72Zm1.19,1.79a2.63,2.63,0,0,1,.88,2.08,2.2,2.2,0,0,1-.53,1.69,1.43,1.43,0,0,1-1.17.27c-.43-.05-2.55-.41-2.55-2.29,0-1.38,2.31-2.1,2.44-2.14A1.41,1.41,0,0,1,363.06,462.51Z" transform="translate(-221.69 -283.98)"/><path d="M356.3,473.25a3.52,3.52,0,0,0,.33,2.8,5.12,5.12,0,0,0,3.18,2.06,3.72,3.72,0,0,0,3-.48,3.58,3.58,0,0,0,1.35-2.83,4,4,0,0,0-1.57-3.52,3.18,3.18,0,0,0-2-.73A3.76,3.76,0,0,0,356.3,473.25Zm3.86,3.49a3.82,3.82,0,0,1-2.32-1.42,2.2,2.2,0,0,1-.17-1.72c.49-2,2.62-1.68,2.87-1.64l.12,0,.13,0a2.4,2.4,0,0,1,1.3.75,2.55,2.55,0,0,1,.69,1.8v.21a2.26,2.26,0,0,1-.78,1.77A2.33,2.33,0,0,1,360.16,476.74Z" transform="translate(-221.69 -283.98)"/><path d="M235.06,477.05c-4.15.54-6.44,4.69-6.53,4.87l1.24.68s2-3.69,5.47-4.14,6.18,2.73,6.21,2.76l.3.35.45-.14c.06,0,5.62-1.76,7.48,2,1,1.91,1,3.83,0,5.13-1.09,1.51-3.33,2.11-6.3,1.68l-.2,1.4c3.52.51,6.24-.29,7.65-2.25,1.25-1.73,1.28-4.2.08-6.6-1.82-3.64-6.27-3.46-8.73-2.8C241.34,479.08,238.57,476.6,235.06,477.05Z" transform="translate(-221.69 -283.98)"/><path d="M228.64,466.31l.69,1.23c.26-.14,6.53-3.42,15.33,5.06l.33.32.43-.18c.25-.1,6-2.41,10.57,2s3.06,9.22,3,9.43l-.21.63.62.25c.06,0,5.92,2.42,6.22,7.88.15,2.65-2.2,5.35-5.46,6.28a6,6,0,0,1-7.38-3l-.64-1.17-.61,1.19c-.06.12-1.59,3-6.11,3.45a6.63,6.63,0,0,1-6.47-3.14l-.59-1.06-.64,1A5.67,5.67,0,0,1,234.3,499a5.81,5.81,0,0,1-4.55-1.45l-.86,1.12a7.12,7.12,0,0,0,5.69,1.72,6.73,6.73,0,0,0,3.71-2.25,8,8,0,0,0,7.26,3,9.33,9.33,0,0,0,6.62-3.33,7.48,7.48,0,0,0,8.36,2.8c3.77-1.07,6.5-4.22,6.5-7.41,0-.1,0-.2,0-.31-.3-5.38-4.92-8.07-6.54-8.85a9.64,9.64,0,0,0,.22-2,11.26,11.26,0,0,0-3.72-8.23,11.42,11.42,0,0,0-11.68-2.47C235.88,462.44,228.93,466.14,228.64,466.31Z" transform="translate(-221.69 -283.98)"/><path d="M245.23,505.76l-.77-.28-.17.81c0,.15-.85,3.76-6.47,3.76-5.83,0-7.76-2.37-7.77-2.39l-1.13.85c.09.13,2.28,3,8.9,3,5.22,0,7-2.82,7.61-4.18,2.36.62,10.63,2.11,14.53-6.75l-1.29-.57C254.66,509.06,245.61,505.9,245.23,505.76Z" transform="translate(-221.69 -283.98)"/><path d="M262,504.06a6.3,6.3,0,0,0-5.2,5.63c-8.64-.37-10.27,4.64-10.34,4.86l1.36.42c0-.19,1.51-4.45,9.6-3.84l.78.06,0-.79a5,5,0,0,1,4.1-4.95c2.23-.46,4.29,1.27,5.18,3.23.73,1.61.88,3.82-.92,5.18l.86,1.13c2-1.54,2.56-4.25,1.35-6.9C267.67,505.7,265.1,503.42,262,504.06Z" transform="translate(-221.69 -283.98)"/><path d="M272.38,491.41a35.23,35.23,0,0,0-6.73-2.51l-.33,1.38a34.85,34.85,0,0,1,6.83,2.6l.45.24.36-.34c.06,0,5.91-5.32,11.58-2.87,5.45,2.36,4.32,6.13,4.27,6.29l-.27.84.88.09c2.88.27,10.53,1.62,11.38,4.65a5.2,5.2,0,0,1-.41,4.1c-.94,1.63-2.81,2.85-5.42,3.52-4.56,1.19-13.37,0-15.25-2.56-1.2-1.66-1.63-3.31-1.16-4.4s2.11-1.65,3.35-1.81a16.79,16.79,0,0,1,8.91,1.42l.66-1.26a18,18,0,0,0-9.75-1.57c-2.91.38-4,1.65-4.47,2.66-.68,1.58-.2,3.69,1.32,5.79,2.41,3.34,12.14,4.3,16.75,3.11,3-.78,5.15-2.23,6.29-4.19a6.36,6.36,0,0,0,.83-3.17,7.51,7.51,0,0,0-.28-2c-1.12-4-9.25-5.29-11.88-5.6a4.65,4.65,0,0,0,0-.57c0-1.74-.75-4.68-5.24-6.62C279.37,486.13,273.83,490.22,272.38,491.41Z" transform="translate(-221.69 -283.98)"/><path d="M269,509.75l-.45,1.35a11,11,0,0,0,11.07-3.35l-1-1A9.62,9.62,0,0,1,269,509.75Z" transform="translate(-221.69 -283.98)"/><path d="M315.89,509.39a8.79,8.79,0,0,0-7.24,5.12l1.33.5a7.37,7.37,0,0,1,6.09-4.22,4.54,4.54,0,0,1,5.22,3.75l1.39-.23A5.84,5.84,0,0,0,315.89,509.39Z" transform="translate(-221.69 -283.98)"/><path d="M321,513.24l1.37.37c0-.1.83-2.62,5.63-2.48a7.85,7.85,0,0,1,6.87,4.57l1.31-.55a9.25,9.25,0,0,0-8.14-5.43C322,509.53,321,513.09,321,513.24Z" transform="translate(-221.69 -283.98)"/><path d="M357.46,506.55c-4.79.14-8.07,3.4-9.14,4.63-.76-.39-2.28-.86-5.23-.63a8.7,8.7,0,0,0-6.53,3.49l1.18.77a7.33,7.33,0,0,1,5.47-2.85c3.67-.29,4.78.64,4.79.65l.57.5.48-.59s3.37-4.4,8.45-4.56a11.39,11.39,0,0,1,8,2.63l1-1A12.58,12.58,0,0,0,357.46,506.55Z" transform="translate(-221.69 -283.98)"/><path d="M320.06,497.89a6.26,6.26,0,0,0-5.68,5.12c-2.07-.06-5.43.67-6.88,4a6.71,6.71,0,0,0,1.35,7.65l.94-1.06a5.21,5.21,0,0,1-1-6c1.59-3.62,5.91-3.1,6.09-3.08l.76.1,0-.77a4.9,4.9,0,0,1,4.55-4.5c4.39-.58,6.73,5.17,6.75,5.23l.43,1.07.77-.88c.06-.06,1.36-1.48,5-.76,3.4.68,3.29,3.28,3.26,3.58l-.14,1.74,1.32-1.15c.22-.19,5.45-4.6,12.36,2.46l1-1c-6-6.14-11.12-4.42-13.25-3.23a5,5,0,0,0-4.28-3.8c-2.91-.58-4.63.05-5.54.61C327,501.39,324.47,497.3,320.06,497.89Z" transform="translate(-221.69 -283.98)"/><path d="M301.56,501.6l.52,1.32c.07,0,6.89-2.63,12.49,1.41l.83-1.15C309.16,498.67,301.86,501.48,301.56,501.6Z" transform="translate(-221.69 -283.98)"/></svg>