<svg id="_6_2" xmlns="http://www.w3.org/2000/svg" viewBox="0 0 153.07 238.11"><defs><style>.cls-1{fill:#ed1c24;}.cls-2{fill:#fff;}.cls-3{fill:#ffcb05;}.cls-4{fill:#0066b3;}</style></defs><title>_6_2</title><rect class="cls-1" width="153.07" height="238.11"/><path class="cls-2" d="M229.15,307,229,511.66s.67,9.33,8.84,9.83l116.33.34s10.67-.17,11-9.84V307s-1-8.17-10.33-8.83H237.65A10.11,10.11,0,0,0,229.15,307Z" transform="translate(-220.45 -290.77)"/><path class="cls-1" d="M326.61,298.16l-27.5.12s-3.5,1.13-3.88,5.75,3.63,7.63,3.63,7.63-3.13,12.5,5.87,16.75,18.13.12,18.88-2.75a10.46,10.46,0,0,0-.5-5.88,12.37,12.37,0,0,0,7.37-5.62C333,309.66,333,302.78,326.61,298.16Z" transform="translate(-220.45 -290.77)"/><path class="cls-1" d="M239.61,415.78s-2.88.75-4,2.5-1.63,8-1.75,10.13-.13,5.37-1,6.75-.75,4.75-.75,6.12,1.12,4.75.75,6.13-.75,5.12-1,7,0,7.12,3.12,10a34.58,34.58,0,0,0-2,5c-.62,2.25-.37,7,7.38,9l1.5,5.75L261,493.53l9.25,2.5,8.75.13,3.13-.38a40,40,0,0,0,4.37-.62c.63-.25,8.75,6.5,9.38,6.37s11-5.12,11-5.12l7.5-8.75.5-2.88a156.4,156.4,0,0,1-20-28.37,304.14,304.14,0,0,1-20.75-49.75l-13.25-1.13-12.75,2.75Z" transform="translate(-220.45 -290.77)"/><path class="cls-3" d="M286.73,440.16s-6.37-2.88-10.25-3.25-5.62,3.12-5.25,7.5,5.25,8.75,8.5,8.75a5.62,5.62,0,0,1,2.63-4.38c2.5-1.37,4-1,5.37,0a10,10,0,0,0,4,1.25Z" transform="translate(-220.45 -290.77)"/><path class="cls-4" d="M305.11,344.91l-40.75.5s1.75,18.75,2.87,27.12,6.75,33,10.13,43.5,17.62,48.75,38.87,70.63l44.38-1.38-.75-1.25s-26-30.2-40-71.87c-4-11.91-10.34-35-10.34-35s-2.83-12.67-2.83-17a77.82,77.82,0,0,1,1-10.34Z" transform="translate(-220.45 -290.77)"/><path d="M278.61,361.41s-2,1.62-3.25,1.75-2.5-.13-2.88.62a5.35,5.35,0,0,0,.5,3.63c.5.75,6.13.75,10.75-3a2.7,2.7,0,0,1,.13,1.75c-.25,1-5,7.25-8.5,11.62a5.44,5.44,0,0,0-.75,2.13c0,.87.75,1.37,4-.13a7.34,7.34,0,0,0,4-4.37,1,1,0,0,1,1.25.75,25.76,25.76,0,0,0,3.5,4.87c1.37,1.63,3.25.25,3.62-1s-.5-3.25-2.12-5.25a8,8,0,0,0-4.25-2.5s3.12-5.62,3.5-8.12a5,5,0,0,0-2.13-4.75c-.87-.63-3.5.5-3.5.5s-1.62-2.25-2.25-3.25-2.75-1.38-3.37-1.75-2,1-2,1.87,2.75,1,3.25,2A7.2,7.2,0,0,1,278.61,361.41Z" transform="translate(-220.45 -290.77)"/><path d="M289.61,355.41c-.63-1.13-2.25-1.13-3.13-2.38s.25-2.5,3-1.75,4.88,1.75,5.75,4.5,2.25,11.88,2.25,18.25a20.25,20.25,0,0,1-2.37,10.13c1.87.25,6.62,2.25,7.25,6.62s-2,8.88-4,11.25-5.5,7.5-5.63,12,2.25,7.13,3.13,6.63,4.62-2.38,5.5-2.75,3.5.5,3.62,1.62a4.77,4.77,0,0,1-2.25,3.88c-1.5,1-4.87,2.5-4.75,4.75s1.63,5.25,5.13,3,5-6.5,5.37-7.13a1.26,1.26,0,0,1,1.88-.37,5.41,5.41,0,0,1,1.37,1.75c-.37,6.5-2.37,10.87-7.37,12.25s-8.88-.38-10.5-4.75a12.62,12.62,0,0,1,.37-8.75c-3.25-2.13-5.62-6.5-4.37-12.63s4.37-8.75,4.37-8.75-2.62,1.13-5.25-2.12c-3.11-3.86-3.5-8.13-2.12-11.5s5-6.5,6.37-10,0-8.88,0-8.88-4.25,2.88-5.25,2.63-2-2.5-1.12-3,5.62-4.38,5.62-4.38C291.36,359.91,290.23,356.53,289.61,355.41Zm4.87,32.5s-3.5-.38-4.87,4.12a5.62,5.62,0,0,0,4,7.38c1.75.12,4.12-1.25,4.62-6S295.23,387.91,294.48,387.91Z" transform="translate(-220.45 -290.77)"/><path d="M307,411.78c2.38.75,6.38,3,6.75,4.63s3.5,10.37,3.5,10.37a51.17,51.17,0,0,0,4.75,3.5c2.38,1.5,3.38,5.63,2.5,8s-3.12,3.38-3.62,3.88a1.33,1.33,0,0,0-.38,1.12l2.88,11.25a8,8,0,0,0,3.62-3.37c.63-1.13,2.75-2.38,3.75-2.13s3.5,1,3.5,2.25a5,5,0,0,1-2.25,4.5c-2.12,1.63-6.5,4.5-6.5,4.5a32.92,32.92,0,0,1,.75,3.25c.38,2-1,4.75-1.37,6.38s.37,4.37.5,6-1.75,2.12-1.75,1.5-.75-1.5-1.25-3.88a18.09,18.09,0,0,1,.12-7.75,8.88,8.88,0,0,0-.62-5.12c-.75,0-6.25,1.62-9.63-2.13s-3.87-8.12-2.12-10.75,6.87-6.5,6.87-6.5-.5-3.37-4-13.25-8.25-12.87-9.25-14a2.17,2.17,0,0,1-.62-2.12A5,5,0,0,1,307,411.78ZM317.73,430s1.63,6.75,1.88,8.5a3.89,3.89,0,0,0,1.62-4.5A5.36,5.36,0,0,0,317.73,430Zm-5,19.88a4.26,4.26,0,0,0,3.38,5.75,9.41,9.41,0,0,0,4.75-.38l-3-10.62S313.73,446.91,312.73,449.91Z" transform="translate(-220.45 -290.77)"/><path d="M238.91,297.45a10.64,10.64,0,0,0-10.63,10.63V511.74a10.64,10.64,0,0,0,10.63,10.63H355.06a10.64,10.64,0,0,0,10.63-10.63V308.08a10.64,10.64,0,0,0-10.63-10.63Zm-9.22,214.29V308.08a9.23,9.23,0,0,1,9.22-9.21H355.06a9.23,9.23,0,0,1,9.22,9.21V511.74a9.23,9.23,0,0,1-9.22,9.21H238.91A9.23,9.23,0,0,1,229.69,511.74Z" transform="translate(-220.45 -290.77)"/><path d="M304.47,344.12l-40.06,1,0,.72c4,94.2,50.75,140.36,51.22,140.82l.21.2,46.42-.69-.92-1.14C309.13,421,305.23,345.55,305.19,344.79l0-.69Zm-.65,1.43c.49,7.49,6.43,78.23,55.55,139.25l-42.93.65c-3.3-3.35-46.53-48.94-50.54-138.94Z" transform="translate(-220.45 -290.77)"/><path d="M267.91,407.66c-3.78,1.36-3.69,5.94-3.11,8.18l1.37-.36c-.05-.21-1.28-5.23,2.22-6.49a6.27,6.27,0,0,1,6.13.7l.93-1.06A7.64,7.64,0,0,0,267.91,407.66Z" transform="translate(-220.45 -290.77)"/><path d="M272.4,437.67a6.59,6.59,0,0,0-2,4.82c0,2.25.7,9.72,9.74,11.53l.28-1.39c-7.76-1.55-8.6-7.61-8.6-10.14a5.18,5.18,0,0,1,1.5-3.78,4.28,4.28,0,0,1,3.4-1c4,.31,9.17,3.06,9.23,3.08l.66-1.25c-.22-.12-5.51-2.9-9.78-3.24A5.68,5.68,0,0,0,272.4,437.67Z" transform="translate(-220.45 -290.77)"/><path d="M282.37,448a4.89,4.89,0,0,0-3.09,4.05c-.62,5.39,2.62,9.73,8.66,11.59,6.66,2.05,11,.39,11.14.31l-.52-1.31s-4.05,1.54-10.2-.36c-5.42-1.66-8.22-5.34-7.67-10.07a3.44,3.44,0,0,1,2.24-2.91,5.28,5.28,0,0,1,4.13-.1,17.53,17.53,0,0,0,4.57,1.94l.38-1.36a16,16,0,0,1-4.1-1.72C286.91,447.34,284.44,447.14,282.37,448Z" transform="translate(-220.45 -290.77)"/><path d="M272.93,425.56a6.93,6.93,0,0,0-4,6.06c-.34,6.48,1.67,8.52,1.9,8.73l1-1s-1.76-1.8-1.45-7.61a5.48,5.48,0,0,1,3.2-4.87c2.19-1.09,5.2-1.05,6.86.08l.8-1.17C279.15,424.32,275.58,424.24,272.93,425.56Z" transform="translate(-220.45 -290.77)"/><path d="M267.5,448.19a12.61,12.61,0,0,0-6.54,8.64,6.4,6.4,0,0,0,1.18,5.32c2.12,3,6.45,5.1,11.28,5.55a10,10,0,0,0,8-2.37,7.59,7.59,0,0,0,2.62-5h-1.42a6.3,6.3,0,0,1-2.15,3.95,8.67,8.67,0,0,1-6.91,2c-4.37-.41-8.4-2.36-10.26-5a5,5,0,0,1-1-4.16,11.19,11.19,0,0,1,5.79-7.7,12.34,12.34,0,0,0,3.94-3.74l-1.18-.79A11.06,11.06,0,0,1,267.5,448.19Z" transform="translate(-220.45 -290.77)"/><path d="M257.77,424.14a6.47,6.47,0,0,0-2.49,5.56l.06.94c.21,2.73.55,7.3-1.16,10.7-2.07,4.16-.83,12.77,1.57,15.92a4.71,4.71,0,0,0,6.08,1.35l-.69-1.24a3.33,3.33,0,0,1-4.26-1c-1.92-2.5-3.35-10.58-1.43-14.41s1.52-8.57,1.31-11.45l-.07-.92a5.08,5.08,0,0,1,1.88-4.3c1.16-.79,2.71-.74,4.61.16,5.2,2.44,5.95,4.85,5.95,4.87l1.37-.35c-.07-.31-.91-3.07-6.71-5.81C260.81,422.79,258.87,423.39,257.77,424.14Z" transform="translate(-220.45 -290.77)"/><path d="M254.94,469.33c0,6.68,4.21,11.43,11.25,12.69,2.54.46,4.62.66,6.45.84,2.82.27,4.86.47,6.68,1.43,1.42.74,3.44.59,5.55-.42a13,13,0,0,0,7-9.08A14.49,14.49,0,0,0,289,462.85l-1.06.94a13.34,13.34,0,0,1,2.51,10.73,11.6,11.6,0,0,1-6.2,8.08c-1.67.8-3.27,1-4.28.43-2.07-1.09-4.33-1.31-7.2-1.58-1.81-.18-3.86-.38-6.34-.82-6.31-1.13-10.08-5.36-10.08-11.3a20.93,20.93,0,0,1,2.88-10.61l-1.18-.79A22,22,0,0,0,254.94,469.33Z" transform="translate(-220.45 -290.77)"/><path d="M291.21,475.15l-.45,1.35c.36.12,9,2.9,15.06-3.17l-1-1C299.37,477.77,291.29,475.18,291.21,475.15Z" transform="translate(-220.45 -290.77)"/><path d="M259.82,417c-3,3-3.2,8.1-3.21,8.31l1.42.05c0-.05.19-4.76,2.79-7.36s6.66-1.45,7.42-1.17c1.07.41,7.13,1.92,9.89-.64l-1-1c-2,1.88-7.22.81-8.44.36C267.83,415.16,263.17,413.64,259.82,417Z" transform="translate(-220.45 -290.77)"/><path d="M247.41,424.33c-4.08,1.48-6.62,7.36-7.13,11.07a83.75,83.75,0,0,1-2.63,12.2c-1.11,3.31-1.19,9.28,3.11,12.15l.78-1.18c-3.61-2.41-3.48-7.73-2.55-10.52a86.28,86.28,0,0,0,2.7-12.46c.44-3.26,2.72-8.67,6.2-9.93s9.12-.64,9.18-.63l.16-1.41C257,423.59,251.19,423,247.41,424.33Z" transform="translate(-220.45 -290.77)"/><path d="M249.1,446.56c-3.53,2.25-9.72,9.33-9,14.86a15.2,15.2,0,0,0,4.39,8.6l1-1a14,14,0,0,1-3.94-7.74c-.6-4.52,4.62-11.11,8.34-13.47a35.56,35.56,0,0,0,4.29-2.93l-1-1A40.09,40.09,0,0,1,249.1,446.56Z" transform="translate(-220.45 -290.77)"/><path d="M246.71,466.84a9.5,9.5,0,0,0-4.9,5.54,10.49,10.49,0,0,0,0,8.08c1.74,3.63,3.73,3.86,5.33,4l1.12.17.91.22a5.91,5.91,0,0,1,4.35,2.82,8.5,8.5,0,0,0,7.26,4.32l2.25-.15c2.41-.24,5.41-.54,8.11.75l2.16,1.12a19.14,19.14,0,0,0,10.13,2.78,4.28,4.28,0,0,0,4.59-3.46c.81-3.31-1-8.49-4.6-10.22l-.62,1.28c2.86,1.38,4.5,5.89,3.84,8.61a2.87,2.87,0,0,1-3.18,2.38A17.85,17.85,0,0,1,274,492.5l-2.22-1.15c-3.05-1.46-6.41-1.13-8.86-.88l-2.11.15c-2.45,0-4.5-1.24-6.07-3.68a7.25,7.25,0,0,0-5.23-3.43l-.85-.2-1.33-.22c-1.45-.17-2.82-.32-4.22-3.24a9.13,9.13,0,0,1,0-7,8.12,8.12,0,0,1,4.12-4.74,15.54,15.54,0,0,1,8.4-.79L256,466A16.68,16.68,0,0,0,246.71,466.84Z" transform="translate(-220.45 -290.77)"/><path d="M303.4,490a4.57,4.57,0,0,0-2.59.09,6,6,0,0,0-1.58,1.58c-1.19,1.48-2.67,3.33-5.75,3.33-4.36,0-5.92-1.88-5.94-1.9l-1.12.87c.08.1,1.94,2.45,7.06,2.45,3.76,0,5.62-2.33,6.85-3.86a5.39,5.39,0,0,1,1.17-1.23,6.65,6.65,0,0,1,1.75.08c3.2.35,9.15,1,12.38-6.25l-1.29-.57C311.53,490.85,306.64,490.31,303.4,490Z" transform="translate(-220.45 -290.77)"/><path d="M251.76,412.24l-3.55,1.6a17.49,17.49,0,0,1-5.91,1c-2.5.12-4.87.24-6.38,2.19-2.58,3.31-2.79,11.3-2.64,12.68a16.83,16.83,0,0,1-1.29,6.5c-.6,1.59-.4,4.18-.21,6.68a19.34,19.34,0,0,1,0,4.89,28,28,0,0,0-.47,6.47l-.05,3a10,10,0,0,0,5.4,9c3.73,1.78,6.13.89,6.23.85l-.51-1.32s-2,.68-5.11-.81a8.51,8.51,0,0,1-4.6-7.65l.06-3.09a27.4,27.4,0,0,1,.42-6.11,19.24,19.24,0,0,0,0-5.36c-.17-2.23-.36-4.77.12-6.07a18,18,0,0,0,1.38-7.16c-.17-1.49.19-8.87,2.35-11.65,1.12-1.43,3-1.53,5.34-1.65a18.53,18.53,0,0,0,6.37-1.13l3.62-1.63c2.46-1.17,3.94-1.87,5.87-1.66,2.75.31,4.89,2.84,5.44,3.95l1.27-.64c-.69-1.38-3.2-4.34-6.55-4.72C256.07,410.2,254.26,411.05,251.76,412.24Z" transform="translate(-220.45 -290.77)"/><path d="M232,470.53a6.19,6.19,0,0,0,2,5.48c2.18,2.17,5.68,3.46,8.15,3l-.25-1.39c-2,.37-5.05-.79-6.9-2.62a4.85,4.85,0,0,1-1.61-4.23c.76-4.25,2.38-5.54,2.39-5.55l-.84-1.15C234.82,464.15,232.83,465.64,232,470.53Z" transform="translate(-220.45 -290.77)"/><path d="M300.17,309c-1.32,1.21-2.47,3.84-2.47,7.19a17,17,0,0,0,1.64,7.13c2.91,6.32,8.39,6.87,8.87,6.9,5.06,1.49,10.32.72,13.43-2a7.28,7.28,0,0,0,2.54-6.82c-.52-3.4-2.32-7.66-7.91-8.59A29.07,29.07,0,0,1,308,309.4C304,306.79,301.53,307.73,300.17,309Zm8.35,19.84-.08,0h-.08c-.21,0-5.12-.4-7.73-6.08-2.7-5.87-1.3-11,.5-12.69,1.43-1.31,3.5-1.12,6.14.58a30.26,30.26,0,0,0,8.77,3.6c3.81.64,6.09,3.13,6.74,7.41a5.82,5.82,0,0,1-2.07,5.53C317.94,329.54,313.16,330.2,308.52,328.81Z" transform="translate(-220.45 -290.77)"/><path d="M304.78,300.94c-1.8,3.32,0,7.79.05,8l1.31-.53s-1.59-4-.11-6.78a5.12,5.12,0,0,1,3.76-2.42l-.27-1.39A6.45,6.45,0,0,0,304.78,300.94Z" transform="translate(-220.45 -290.77)"/><path d="M325.12,299.2c.2,0,4.77.31,5.83,8.05a10.05,10.05,0,0,1-2.75,8.45,10,10,0,0,1-4.9,3.1l-.34,1.37c1,.28,3.32-.84,5.23-2.49a11.74,11.74,0,0,0,4.16-10.62c-1.23-9-6.93-9.27-7.18-9.28Z" transform="translate(-220.45 -290.77)"/><path d="M296.26,300.16a7.68,7.68,0,0,0-1.31,6c.89,4.79,3.76,6.28,3.88,6.34l.64-1.27c-.09-.05-2.37-1.27-3.12-5.33a6.26,6.26,0,0,1,1.07-4.88,5.48,5.48,0,0,1,3.17-2.29l-.21-1.4A6.87,6.87,0,0,0,296.26,300.16Z" transform="translate(-220.45 -290.77)"/><path d="M297.65,344.6l1.34.45a134.14,134.14,0,0,1,7-16.23l-1.26-.66A135.28,135.28,0,0,0,297.65,344.6Z" transform="translate(-220.45 -290.77)"/><path d="M298.32,298.32l-26-.33s4.5,2.17,6.16,4.17,4.5,2.17,8.5,2.83,7.84,1.5,9,3C296,308,294.48,304.16,298.32,298.32Z" transform="translate(-220.45 -290.77)"/><path d="M298.23,311.16s-.87,1.87-5.12,2.62-9.38.13-11.75-.12a15.07,15.07,0,0,0-8.13,1.5,35.55,35.55,0,0,0-6.12,4.37s.62.75,2.25.38,6.25-.63,8.87.75,5.13,2.87,11.88,3.12,9.37-2.37,9.37-2.37-2.25-4.75-.12-9.25Z" transform="translate(-220.45 -290.77)"/><path d="M331.86,306.78a45.56,45.56,0,0,1,9.87-.62c5.5.25,10.88-.13,14.75-1.5a1.27,1.27,0,0,1-.87,1.62c-1.25.38-8.5,4.75-10.5,6.25s-9.25,5.88-17.38,4.88C327.73,317.41,332,313.91,331.86,306.78Z" transform="translate(-220.45 -290.77)"/><path d="M323.86,321.78a99.23,99.23,0,0,1,15.5,7.88,27.86,27.86,0,0,1,9.5,11.62s-.25.63-4.88-2-8.62-5.25-12.87-6.12a37.16,37.16,0,0,1-11.25-4.63A7.12,7.12,0,0,0,323.86,321.78Z" transform="translate(-220.45 -290.77)"/><path d="M302.23,344.91l2.25-.09,2,19.09s9.25-11.5,17.63-15.25,17.37-.25,23.37,6.37a4.85,4.85,0,0,0-.25-2c-.37-1.62-5.12-9.87-16.25-13.37S309,340.16,302.23,344.91Z" transform="translate(-220.45 -290.77)"/><path d="M271.86,345.78s.25-2-1.38-6.12-9.5-11.25-22.87-13.13c0,0,8.12-1.62,21.87.75s23.5,14.38,24.13,17.88Z" transform="translate(-220.45 -290.77)"/><path d="M271.86,345.78a67,67,0,0,0-8.5-9.12c-4.75-4.13-12.63-8.75-21.63-8.63,0,0,4.13,3.5,5,6.38s2.88,9.62,8.25,14.37a57.69,57.69,0,0,0-13.25-1.62c-6.37.12-12.75.75-12.75.75v.75s5.38,1.12,7.88,3.37,9.25,8.38,15.75,12.38,14.37,6.37,14.62,7c0,0-1.54-21-2.08-25.59Z" transform="translate(-220.45 -290.77)"/><path d="M275.36,409a9.53,9.53,0,0,0-6.38-1c-3.5.75-3.62,3.88-3.75,7.25l-1,.5a14.05,14.05,0,0,0-4.12-4.12c-2.5-1.5-5.88.12-7,.75a16.89,16.89,0,0,1-6.75,2.75c-3.25.37-7.5,1-7.5,1a36.75,36.75,0,0,1-5.5-7.63c-1.63-3.5-3.38-6.87-3.38-6.87l-.75-1.25a8.75,8.75,0,0,1,3.88.25,24.21,24.21,0,0,0,4.62,1,1.39,1.39,0,0,0-.37-1.38c-.63-.5-3.63-5.37-4.88-11s-2.37-14.75-2.5-15.5,1.13.13,1.5.75a30.74,30.74,0,0,0,9,6.88c4.63,2.25,9.5.25,17.75,2.25s12,4.75,12,4.75Z" transform="translate(-220.45 -290.77)"/><path d="M309.32,376a36,36,0,0,1,8.66-6.5c4.5-2.17,14.84-4,23.34-.17s15,5.67,22.5,6c0,0-3.5,1.84-5.84,3.34s-6,5-7.66,5.5c0,0,5.33,2.83,8.16,7.16A103.14,103.14,0,0,0,365,400l.17,5.17s-1.67-1.84-5.67-2.5-5.5.5-5.5.5a12.16,12.16,0,0,1,6.5,6.5,26.23,26.23,0,0,1,2.34,8,33.09,33.09,0,0,0-4.34-2.17c-1.5-.5-4.66.17-5.5,1s-6.16,3-13.5,3.17-16.83-3.5-19-5.67C320.48,414,312.65,395.16,309.32,376Z" transform="translate(-220.45 -290.77)"/><path d="M239.32,478.33a11.63,11.63,0,0,0-4.17,9c-.17,6.16,3.5,14.33,5.5,18s1.5,11.33-1.17,15.5c0,0,3.84-4.51,7.34-6.34s11.16-3.33,20.33-6.5,14.67-10,15.67-12c0,0-6.17-.66-8.84-2.66s-5-2.17-10.16-2-7.67-1.17-9.67-4a8.06,8.06,0,0,0-6.67-3.5,6.23,6.23,0,0,1-5.33-4.34S242.32,477.83,239.32,478.33Z" transform="translate(-220.45 -290.77)"/><path d="M285.48,495.41l1.75-1.25a13.3,13.3,0,0,0,5.88,1.37c3.75.13,7.12-4.25,7.12-4.25a2.3,2.3,0,0,1,2.13-.62,8.63,8.63,0,0,0,7-.38,15,15,0,0,0,5.5-5,4.41,4.41,0,0,0,2.37.88c1.25,0,27.38-.5,27.38-.5s3.87,4.87,4.12,9.87,2.5,12.88,4.5,15.5,4.13,4.88,4.13,4.88.12.87-1,0a10.84,10.84,0,0,0-7.38-3.25c-4.5-.25-7,1.37-10,2.25s-18.75.87-26.75-3.25a15,15,0,0,1,.25,5.25,16.26,16.26,0,0,0,0,4.75h-2.25a14.77,14.77,0,0,0-4.37-4.63C303.11,515.28,287.36,508.66,285.48,495.41Z" transform="translate(-220.45 -290.77)"/></svg>