<svg id="_6_3" xmlns="http://www.w3.org/2000/svg" viewBox="0 0 153.07 238.11"><defs><style>.cls-1{fill:#ed1c24;}.cls-2{fill:#fff;}.cls-3{fill:#ffcb05;}</style></defs><title>_6_3</title><rect class="cls-1" width="153.07" height="238.11"/><path class="cls-2" d="M225.32,307.58l-.25,205.33s.92,8.33,10.75,8.83H353.65s9-1,9.17-10V307.91s-.17-8.17-9.5-9.33l-117.83-.17S226.32,298.41,225.32,307.58Z" transform="translate(-217.45 -291.02)"/><path class="cls-1" d="M269.7,362.79a14.07,14.07,0,0,1-3.88.62c-2,0-3.5-3.37-3.12-5.12s1.12-5.13.87-7.5-2.37-5.63-4-7.63-1.37-6.5.38-9.37,9-8.5,9-8.5,3,.12,4-.63,1.5-2.62,1.62-4,2.38-3.75,4.63-4.5a11.36,11.36,0,0,0,5-3.37c.87-1.13,3.12-1.63,5.62-.75a6.48,6.48,0,0,1,4.25-3.13c2.88-.5,4.38.5,5.75.88a11.4,11.4,0,0,0,6.5-.88,9,9,0,0,1,7-.25c2.38.88,2.38.75,3.63.75a11.75,11.75,0,0,1,9.62,4,10.15,10.15,0,0,1,8.88,2.75c3.75,3.88,10,13.5,10,13.5s3,.88,4.25,3.13a7.93,7.93,0,0,1,.37,6.25c-.5,1.37-1.87,4.75-1.87,6.75s-.5,8.5-2,11.62a42.11,42.11,0,0,1-3.63,6l-3.12-2.12a66.87,66.87,0,0,1-8.25-3c-2.38-1.25-7.25-.75-7.25-.75l-6.63,6.12-1.87,3.75s-2.38,2.5-4.38,2.75-4.25-2.12-5-3.37-3.37-.38-3.37-.38l-14.5,8.25s-6,4.88-11.13,5.38-8-2.13-8.87-7.38A17.55,17.55,0,0,1,269.7,362.79Z" transform="translate(-217.45 -291.02)"/><path class="cls-3" d="M298.45,331.79s-1.75-2.25-7.5-1.5-8.5,5.12-4.38,9.87c0,0,5.13-3.37,11.5.5A65.13,65.13,0,0,0,298.45,331.79Z" transform="translate(-217.45 -291.02)"/><path class="cls-1" d="M239.32,467.74s-.83-8.5,5.84-12L244,453.08s-2.83-6.84-2.83-7.34.83-7.5,1.33-8.33,6.33-10.5,6.5-11,7.67-7.17,7.67-7.17,6.33-3.33,14.33.67l3.17-7.67,8.16-4.83,13.67-7.5s6.33-1.67,11.66-.33,11.84,2.5,11.84,2.5l20.5,4.66,4.83,7.5,4.67,8.5a8.34,8.34,0,0,1,2.33,5.34c.17,3.33,3,11,4.33,13.5s-1.5,16.33-1.5,16.33l-7.16,10.5L339,486.08s-6.5,9.16-7.67,9.16-14.67,2.34-15.5,2.17-23.83.67-23.83.67-3.67,3-10.33.33a50.21,50.21,0,0,0-13.17-3.17s-23-6.83-23.5-8-5.5-13.83-5.5-13.83Z" transform="translate(-217.45 -291.02)"/><path class="cls-3" d="M290.82,454.16s3.5-6.37,3.88-9.37.25-6,4.25-8a6.76,6.76,0,0,1,8.87,2c1.38,2.12.5,7.5-2.62,11.12,0,0-5,1.5-5.88,1.75Z" transform="translate(-217.45 -291.02)"/><path d="M235.08,297.87a10.64,10.64,0,0,0-10.63,10.63V511.66a10.64,10.64,0,0,0,10.63,10.63H352.9a10.64,10.64,0,0,0,10.63-10.63V308.5a10.64,10.64,0,0,0-10.63-10.63Zm-9.22,213.79V308.5a9.23,9.23,0,0,1,9.22-9.21H352.9a9.22,9.22,0,0,1,9.21,9.21V511.66a9.22,9.22,0,0,1-9.21,9.21H235.08A9.23,9.23,0,0,1,225.86,511.66Z" transform="translate(-217.45 -291.02)"/><path d="M302.75,450a41.59,41.59,0,0,1-5.48,1.57,64.21,64.21,0,0,0-9,2.66,7.26,7.26,0,0,0-3.79,4.29,11.34,11.34,0,0,0,.18,8.41c1.78,3.81,6.43,3.72,8.93,3.67h.71a6.73,6.73,0,0,1,3.24,1.18,18.52,18.52,0,0,0,3.29,1.53c3.4,1.14,6.13-1.82,6.25-1.94l0-.06.76-1.32a12,12,0,0,0,1.35-2.68c.2-.79,1.33-2.14,3.9-3.55a5.41,5.41,0,0,0,2.9-3.42c.48-1.87-.16-4.17-1.9-6.84A9,9,0,0,0,302.75,450ZM286,466.36a10.05,10.05,0,0,1-.13-7.31,6,6,0,0,1,3-3.49,63.59,63.59,0,0,1,8.75-2.58,39,39,0,0,0,5.78-1.69,7.6,7.6,0,0,1,9.59,3,9.33,9.33,0,0,1,1.82,4.79,3.93,3.93,0,0,1-.11.92,4,4,0,0,1-2.21,2.53c-2.56,1.4-4.24,3-4.6,4.45a11.52,11.52,0,0,1-1.19,2.29l-.68,1.19c-.15.15-2.27,2.33-4.72,1.52a16.56,16.56,0,0,1-3-1.43,8,8,0,0,0-3.93-1.36h-.73C291.25,469.26,287.35,469.33,286,466.36Z" transform="translate(-217.45 -291.02)"/><path d="M280.22,474.61a8.93,8.93,0,0,0,2.39,8.59c3.26,2.82,7.4,2,10.72,1.33l2.34-.42a15,15,0,0,1,5.38.58,17.81,17.81,0,0,0,5.32.68c4.61-.31,5.19-3.92,5.41-7.92.27-4.86-4.14-7.76-4.32-7.88l-.77,1.18s3.9,2.6,3.67,6.62c-.27,4.91-1.19,6.39-4.09,6.58a16.47,16.47,0,0,1-4.9-.64,16.14,16.14,0,0,0-5.89-.6l-2.43.43c-3.17.64-6.78,1.36-9.51-1a7.57,7.57,0,0,1-1.94-7.2,7.29,7.29,0,0,1,5.41-5.58l-.38-1.36A8.72,8.72,0,0,0,280.22,474.61Z" transform="translate(-217.45 -291.02)"/><path d="M261.13,440.5c-1.39,5.86,1,10,3.54,11.74,1.71,1.2,2.6,5.45,3.19,8.27l.53,2.34c1.25,4.59,4.18,6.73,9,6.52,5.91-.26,8.31-2.07,8.41-2.15l-.87-1.12s-2.2,1.62-7.6,1.85-6.86-3-7.53-5.48l-.51-2.25c-.71-3.4-1.6-7.62-3.77-9.14s-4.2-5.08-3-10.26c1.06-4.43,8.54-3.78,14.95-2.71l.23-1.4C272.8,435.9,262.63,434.2,261.13,440.5Z" transform="translate(-217.45 -291.02)"/><path d="M277.87,431.9c-2.18,3-2.45,7.67-.71,12.26,2.82,7.43,10.77,11.23,11.11,11.39l.6-1.28c-.07,0-7.77-3.72-10.39-10.61-1.57-4.14-1.37-8.33.53-10.92,1.51-2.06,4-3.05,7.27-2.87a11.56,11.56,0,0,1,10.61,8l1.36-.38a13.16,13.16,0,0,0-11.89-9C281.62,428.19,279.13,430.18,277.87,431.9Z" transform="translate(-217.45 -291.02)"/><path d="M301.18,435.47c-6.61,1.37-7.09,6.61-7.31,9.13s-3.64,8.91-3.67,9l1.25.68c.14-.27,3.57-6.66,3.83-9.53.23-2.5.61-6.7,6.19-7.87a4.83,4.83,0,0,1,5.32,2.14c1.27,2.12,1.27,6-2.51,10.46l1.08.92c4.27-5.05,4.17-9.57,2.65-12.11A6.22,6.22,0,0,0,301.18,435.47Z" transform="translate(-217.45 -291.02)"/><path d="M307.53,428.7a13.53,13.53,0,0,0-2.92,8H306a12.22,12.22,0,0,1,2.58-7,5.06,5.06,0,0,1,4.73-2c1.62.34,2.88,1.74,3.55,4a66.55,66.55,0,0,0,5.31,12.63c.61,1.1,1,4.22-.07,7.44a12.13,12.13,0,0,1-6.85,7.32l.58,1.3a13.48,13.48,0,0,0,7.61-8.17c1.23-3.66.72-7.22,0-8.57a65.57,65.57,0,0,1-5.19-12.37c-.84-2.74-2.48-4.49-4.62-4.93A6.45,6.45,0,0,0,307.53,428.7Z" transform="translate(-217.45 -291.02)"/><path d="M330.46,427c-1.41,1.61-1.51,4.61-1.34,5.8.3,2.13.22,10.48-5.77,12.48l.44,1.34c6.81-2.27,7.15-11.1,6.73-14-.17-1.23.08-3.61,1-4.68a1.3,1.3,0,0,1,1-.51c2.27,0,4.29,1.56,4.29,2.79a18,18,0,0,0,.67,3.24c.91,3.57,2.43,9.55,2.08,15.47-.46,7.93-7.18,12.34-13.57,12.58a31.09,31.09,0,0,1-10.48-1.21l-.47,1.34a32.14,32.14,0,0,0,11,1.29c7-.27,14.41-5.14,14.93-13.92.36-6.14-1.19-12.25-2.12-15.9a19.85,19.85,0,0,1-.63-2.89c0-2.16-2.77-4.21-5.71-4.21A2.74,2.74,0,0,0,330.46,427Z" transform="translate(-217.45 -291.02)"/><path d="M318.1,416.49a5.24,5.24,0,0,0-3.34,2.84,4.33,4.33,0,0,0,.18,3.65c.71,1.42.21,3.89-.05,4.72l1.36.42c0-.15,1.07-3.55,0-5.78a2.94,2.94,0,0,1-.14-2.47,3.84,3.84,0,0,1,2.47-2,5,5,0,0,1,3.75.48,6.78,6.78,0,0,1,3.35,3.81,55.44,55.44,0,0,0,3.59,8.68l1.18-.78A56.54,56.54,0,0,1,327,421.7a8.17,8.17,0,0,0-4.07-4.65A6.25,6.25,0,0,0,318.1,416.49Z" transform="translate(-217.45 -291.02)"/><path d="M292.25,413.29a3.26,3.26,0,0,0-1.38,2.57c-.27,3.4,1.06,8.88,5.79,10,4.17,1,10.87,3.21,10.94,3.23l.44-1.34c-.06,0-6.82-2.27-11.06-3.27-3.86-.91-4.93-5.58-4.7-8.51a1.87,1.87,0,0,1,.78-1.51c1.4-1,4.71-.77,9.82.64a43.29,43.29,0,0,1,12,5.4l.82-1.16a44.1,44.1,0,0,0-12.47-5.6C297.56,412.15,294.06,412,292.25,413.29Z" transform="translate(-217.45 -291.02)"/><path d="M288.45,429.07l1.24.68c1.39-2.54,5.19-4.7,5.23-4.72l-.7-1.24C294.05,423.89,290,426.18,288.45,429.07Z" transform="translate(-217.45 -291.02)"/><path d="M286.17,420c-2.24.5-9.88,3.26-12.28,5.13-.75.58-1.58,1.36-1.29,2.19a1.47,1.47,0,0,0,1.47.83c.76,0,4.39,1.43,6.72,2.44l.56-1.3c-1-.42-5.7-2.45-7.16-2.54a4.91,4.91,0,0,1,.57-.5c2.13-1.66,9.57-4.39,11.72-4.87a49.15,49.15,0,0,1,5.64-.73l-.1-1.42A49.26,49.26,0,0,0,286.17,420Z" transform="translate(-217.45 -291.02)"/><path d="M286.75,409l-.43.21c-2.05,1-7.5,3.67-11.5,7.67-4.65,4.65-1.08,9.15-1.05,9.2l1.1-.89c-.11-.15-2.78-3.58.95-7.31s9.13-6.42,11.13-7.4l.44-.22a2.81,2.81,0,0,1,2.44.41,3.84,3.84,0,0,1,1.78,3.46H293a5.25,5.25,0,0,0-2.45-4.67A4.18,4.18,0,0,0,286.75,409Z" transform="translate(-217.45 -291.02)"/><path d="M259.31,417.7c-2,.53-3.32,1.45-3.88,2.66l-.57,1.23c-1.7,3.74-5.26,11.51-8.13,15.93-3.24,5-6.84,12.57-.73,20.81,6.28,8.46,12.82,7.15,16,6.53,4-.81,6.61-5.16,6.72-5.34l-1.22-.72s-2.39,4-5.78,4.66c-3.07.62-8.8,1.77-14.54-6-5.59-7.54-2.23-14.56.78-19.19s6.38-12.06,8.23-16.12l.57-1.22a4.33,4.33,0,0,1,2.95-1.89c3.12-.84,7.35-.41,9.24.92,4.38,3.09,2.57,8.71,2.49,8.95-.39,1.17-3,5.71-3.94,7.36l1.22.72a83,83,0,0,0,4.06-7.64c.1-.27,2.22-6.86-3-10.55C267.51,417.26,262.83,416.75,259.31,417.7Z" transform="translate(-217.45 -291.02)"/><path d="M295.78,400.14a4.69,4.69,0,0,0-2.42,3.77,76.9,76.9,0,0,0,1,9.37l1.4-.24a76.87,76.87,0,0,1-1-9.13,3.34,3.34,0,0,1,1.77-2.58,10.23,10.23,0,0,1,9.49-.27,141.57,141.57,0,0,1,14.37,8l2,1.17a2.2,2.2,0,0,1,.09.76,35.16,35.16,0,0,1-.83,6l1.38.3c1.62-7.54.54-8.08.13-8.28l-2-1.19a141.2,141.2,0,0,0-14.54-8.08A11.63,11.63,0,0,0,295.78,400.14Z" transform="translate(-217.45 -291.02)"/><path d="M325.37,413.6a60.56,60.56,0,0,0,.25,8.37l1.41-.12a63.12,63.12,0,0,1-.25-8.13c.22-2.47,1.51-3.35,2.54-3.35.52,0,2,1.86,3.05,3.18a35.48,35.48,0,0,0,4.24,4.65l2.5,1.88c2.16,1.51,3.59,2.51,3.75,5.12.22,3.45-5.26,5.78-5.31,5.81l.54,1.3c.27-.11,6.47-2.74,6.19-7.19-.21-3.3-2.13-4.65-4.36-6.2l-2.39-1.8a33.43,33.43,0,0,1-4-4.46c-2-2.44-3.05-3.71-4.16-3.71C327.69,409,325.68,410.17,325.37,413.6Z" transform="translate(-217.45 -291.02)"/><path d="M347.43,423.82a3.24,3.24,0,0,0-1.52,2.37,18,18,0,0,1-1,2.94c-1.37,3.19-6.57,5.35-6.62,5.37l.54,1.32c.24-.1,5.79-2.41,7.38-6.13a18.57,18.57,0,0,0,1.06-3.15c.23-.91.28-1.1.93-1.54a1.68,1.68,0,0,1,1.67-.19c.7.34,1.14,1.28,1.23,2.65a36,36,0,0,0,2.31,10.24,3.64,3.64,0,0,1,.27,1.51,17,17,0,0,1-2.24,7.11l-5.75,10.12c-2-2.26-4.48-5.2-4.79-5.67l-1.18.78c.51.77,5,6,5.56,6.57l.65.76L352.69,447c1.63-3,3.14-7.37,2-9.88a33.76,33.76,0,0,1-2.19-9.76c-.18-2.55-1.35-3.49-2-3.83A3.08,3.08,0,0,0,347.43,423.82Z" transform="translate(-217.45 -291.02)"/><path d="M338.34,455.18a53.71,53.71,0,0,1,4.89,5.12c.47.7,0,1.59-.9,3l-.89,1.55c-.79,1.57-1.79,5.22-3.06,11.17l-.09.4c-.73,3.48-1.85,8.75-8.65,10.57a24,24,0,0,1-20.41-3.4l-.82,1.16a25.35,25.35,0,0,0,21.59,3.6c7.65-2,8.92-8,9.68-11.64l.08-.39c1.24-5.75,2.23-9.39,2.95-10.83l.83-1.45c.92-1.49,1.86-3,.87-4.51a55,55,0,0,0-5.1-5.38Z" transform="translate(-217.45 -291.02)"/><path d="M239.68,460.86c-1.28,2.74-1.52,5.73-.63,7.8a4.2,4.2,0,0,0,2.55,2.42c3,1,11.85,5,13.44,6.8,1.9,2.17,4.41.29,5.91-.83l.76-.55a36.47,36.47,0,0,0,3.26-2.95c2.12-2,5.67-5.43,6.77-5.7l-.34-1.38c-1.36.34-3.93,2.73-7.41,6.06-1.33,1.27-2.58,2.47-3.06,2.79l-.82.6c-2,1.5-3.12,2-4,1-2-2.25-11.41-6.32-14.05-7.2a2.8,2.8,0,0,1-1.7-1.64c-.72-1.69-.48-4.29.61-6.64a16.9,16.9,0,0,1,4.54-5.73l-.85-1.14A18,18,0,0,0,239.68,460.86Z" transform="translate(-217.45 -291.02)"/><path d="M256.57,482.66c.69.7,1.79.46,3.17.16a9.19,9.19,0,0,1,5.57,0c3.84,1.53,12.23,3.16,16.54-1.69l-1.06-.94c-3.51,3.95-10.87,2.95-15,1.31a10.62,10.62,0,0,0-6.41-.07,5.11,5.11,0,0,1-1.86.23,2.6,2.6,0,0,1-.31-1.53,11.67,11.67,0,0,1,.25-2.32l-1.38-.3C256,478.16,255.36,481.45,256.57,482.66Z" transform="translate(-217.45 -291.02)"/><path d="M275,493c2.84,4.65,8,7.09,11.6,7.09,2,0,5-1.11,8.05-2.29a50,50,0,0,1,5.86-2c4.28-1,6.22-1.84,6.79-5.58a7.44,7.44,0,0,0-1.42-5.83l-1.06.93a6.06,6.06,0,0,1,1.08,4.68c-.43,2.82-1.54,3.44-5.71,4.42a49.47,49.47,0,0,0-6,2c-2.84,1.07-5.77,2.19-7.55,2.19-3.14,0-7.85-2.24-10.39-6.41a10.36,10.36,0,0,1-1.19-8.15l-1.34-.47A11.58,11.58,0,0,0,275,493Z" transform="translate(-217.45 -291.02)"/><path d="M291.82,498.08s-1.17,13.16,8.5,23.33l2.17.5a10.85,10.85,0,0,1,.5-5.83,21.53,21.53,0,0,1,3.16-5.17s2.34,6.5,14.5,8,20.5,2.67,20.5,2.67h2.5a5.31,5.31,0,0,1-1.5-4.34c.34-2.66,1.84-6,1.67-7.33,0,0,11.5.83,19-5.83a17.26,17.26,0,0,1-6.5-3.34c-3.33-2.66-5.83-10.83-11.67-16,0,0,12.5-1.66,18-8.66V442.91L354,436.74a21.32,21.32,0,0,1,0,5c-.34,2.67-8.34,15.34-8.34,15.34l-4.16-4.5s-1.17-1.5-1.67-.34-1.33,2.84-1.33,2.84,4.83,3.83,5.33,4.83-.33,3.33-1,4.33-3,8.17-3.33,9.67-1.54,7.88-3.79,10.38-9.5,5.12-16.38,4.12-9.12-3.25-9.12-3.25l-1.75-1.25-2.13.75a2.76,2.76,0,0,0-.12,2.25c.5,1.13,1.25,4.63-1.13,6.63s-7.5,2.62-7.5,2.62Z" transform="translate(-217.45 -291.02)"/><path d="M239.16,466.41a3.84,3.84,0,0,0,2.16,3.67c2.5,1.5,11.5,4,15.5,8.16a10.23,10.23,0,0,0-.25,2.8c.13,1.25,1.38,1.5,2.88,1.12s4.37-.87,6.12,0a20,20,0,0,0,8.25,1.75s-.62,4.38.63,7.25,5.75,7,9.62,7.5a101.46,101.46,0,0,1-21.5,6.5s-2.87,0-4.37,1.75a91.12,91.12,0,0,1-9,8.13c-.5.12-.5-8.88-.5-8.88a82.45,82.45,0,0,1-11.38.75c-5.12-.12-10,1-12,3.75L225.2,490s1.87-4.25,4.62-6a16.12,16.12,0,0,0-4.5.5l.25-7.13S231.74,470.29,239.16,466.41Z" transform="translate(-217.45 -291.02)"/><path d="M257.45,419a7.5,7.5,0,0,1-2.13-2.63c-.62-1.5-8.25-16.37-30-11.5v4a14.24,14.24,0,0,1,6.63,7.5s-5.25-.37-6.5-.62l-.13,33.5s6.38,4.75,19.13,5.37a12.91,12.91,0,0,1-.63-8.37,39,39,0,0,1,4.88-11.13c.5-.75,5.87-11.25,6.25-12.5A8,8,0,0,1,257.45,419Z" transform="translate(-217.45 -291.02)"/><path d="M268.7,419.29A83.41,83.41,0,0,0,258.57,405c-5.75-6.25-17.12-9-20-9.13,0,0,6-6.12,19-7.87,0,0-2.87-15.25-2.87-15.63s.25-.25.87.38a52.34,52.34,0,0,0,8.88,7.75c5,3.37,11.62,4,16.25,6s13.12,5.75,17.37,13.12a4.46,4.46,0,0,0-4,4.25l.75,8s.25,1.25-.25,1.38a17.47,17.47,0,0,0-1.87.75s-.63-3.13-2.88-4.25-8.25,2.87-8.25,2.87-9.87,4-8.25,10.75c0,0-.62.5-1.25-.5S270.32,419.91,268.7,419.29Z" transform="translate(-217.45 -291.02)"/><path d="M299.45,399.29a42.17,42.17,0,0,0,6.62-6.63c2.5-3.37,6.13-15.5,23.38-17.75a37.28,37.28,0,0,1,12.25-16.5c9-6.62,21-10.5,21-10.5s-2.88,2.38-3.75,4.13-3,8.37-3.88,10.12a27.68,27.68,0,0,1,8,7.13l-.12,2.12s-3.38-.12-6.38-.25-8.62-.25-12,5.75a62.51,62.51,0,0,0,8.5,2.13c4,.62,8.25-.63,9.63-3.5l-.13,2.12s-2.62,3.88-3,6.38a31.06,31.06,0,0,1-8.25,16.75,17,17,0,0,1,7.25,4.75c3,3.5,4,3.62,4,3.62s-4.75,9.38-11.37,15.25a4,4,0,0,0-2.5-.5,2.94,2.94,0,0,0-2.25,2.5,11.08,11.08,0,0,1-6.75,8.25s-1.25.38-1.38-.75l-.12-1.25s-.75-.87.75-1.5,4.5-2,4.62-6-3.5-5.25-4.62-6a97.34,97.34,0,0,1-8-8.25,2.87,2.87,0,0,0-3.25-.87c-1.38.5-2.38,5.25-1.5,11a9,9,0,0,0-3.38-3.13,1.52,1.52,0,0,1-.37-1.87c.5-1.25,1.12-4.88.75-5.63a8.32,8.32,0,0,0-2-1.87s-8.25-4.38-10.88-6.13S302,399,299.45,399.29Z" transform="translate(-217.45 -291.02)"/><path d="M317.48,320.89a45.42,45.42,0,0,1-5,.7,72.48,72.48,0,0,0-8.8,1.3c-6.39,1.49-6.24,8.35-6,10.42.27,2.84-.25,7.62-.63,11.11l-.21,1.92a6,6,0,0,0,1.69,5.17c.85.75,2.42,1.52,5,.92,4.55-1.05,5.73-5.47,5.85-6a33.19,33.19,0,0,0,1.35-3.39l1.3-3.4c1-2.42,5.37-5.5,8.14-6.79l.41-.19c2.27-1.05,5.94-2.74,5.94-6.39a6.61,6.61,0,0,0-.12-1.21,5.18,5.18,0,0,0-2.33-3.51A8.82,8.82,0,0,0,317.48,320.89ZM299.4,350.44a4.56,4.56,0,0,1-1.21-4l.21-1.91c.38-3.55.91-8.41.63-11.39-.17-1.78-.32-7.68,5-8.91a74.14,74.14,0,0,1,8.64-1.28,41.9,41.9,0,0,0,5.21-.73,7.47,7.47,0,0,1,5.43.52,3.82,3.82,0,0,1,1.7,2.6c.63,3.15-1.9,4.59-5,6l-.41.19c-2.32,1.09-7.54,4.35-8.85,7.54l-1.32,3.46a32.84,32.84,0,0,1-1.33,3.33l0,.07,0,.09c0,.16-1,4.08-4.8,5A4.09,4.09,0,0,1,299.4,350.44Z" transform="translate(-217.45 -291.02)"/><path d="M280.67,352c-7.89,4-13.39,11.34-13.39,17.79,0,7.31,3.25,9.93,6,10.84,3.32,1.11,14.31-1,21.83-12.79s5.3-16.49,5.2-16.69l-1.28.61s1.82,4.43-5.12,15.32-17.27,13.18-20.18,12.21c-3.33-1.11-5-4.31-5-9.5,0-5.94,5.18-12.74,12.61-16.53a51.34,51.34,0,0,1,16.24-4.59l-.13-1.41A51.81,51.81,0,0,0,280.67,352Z" transform="translate(-217.45 -291.02)"/><path d="M260.11,333.79c-2.37,2.88-2.22,6.9.43,11.63,2.12,3.79,3.08,6.55,2.1,10.31-.72,2.75-.57,6.19,1.38,7.72,1.52,1.18,3.75,1,6.64-.58l-.68-1.25c-1.61.88-3.8,1.72-5.09.71s-1.48-3.95-.88-6.24c1.1-4.23.06-7.25-2.24-11.36s-2.56-7.61-.57-10c2.32-2.81,5.79-3.11,9.77-.83,3,1.73,4.79,4,6.84,6.67,1,1.3,2.05,2.64,3.32,4,4,4.3,10,5.18,10.26,5.22l.2-1.4c-.06,0-5.8-.86-9.41-4.78-1.23-1.34-2.26-2.66-3.25-3.94-2.05-2.66-4-5.16-7.26-7C267.09,330,262.88,330.43,260.11,333.79Z" transform="translate(-217.45 -291.02)"/><path d="M303.06,352.4c.1,0,2.22.94,2.22,4.84a8.52,8.52,0,0,1-3.24,6.64,1.72,1.72,0,0,1-1.45.38c-1-.43-1.24-3.71-1.06-5.79l-1.41-.12c-.1,1-.43,6.23,1.93,7.21a2.93,2.93,0,0,0,2.77-.5,9.88,9.88,0,0,0,3.88-7.82c0-4.93-3-6.11-3.13-6.16Z" transform="translate(-217.45 -291.02)"/><path d="M310.75,357.87a4.15,4.15,0,0,1-4-1.5l-1.2.75a5.5,5.5,0,0,0,5.34,2.16c3.79-.38,5.23-6.12,5.29-6.37l-1.38-.33C314.46,354,313.07,357.64,310.75,357.87Z" transform="translate(-217.45 -291.02)"/><path d="M325.3,329.12c3.72.13,6.16,1.21,7.05,3.12,1,2.2-.12,4.91-1.42,6.57-2.74,3.5-3.47,7.5-3.95,10.14l-.19,1a6.89,6.89,0,0,1-3.62,4.37c-1.79.81-3.81.58-6-.68a13.6,13.6,0,0,1-6.65-9.46l-1.41.15a14.84,14.84,0,0,0,7.35,10.54c3.23,1.87,5.75,1.44,7.28.74a8.2,8.2,0,0,0,4.43-5.38l.19-1c.46-2.5,1.15-6.29,3.68-9.52,1.54-2,2.88-5.26,1.59-8-.79-1.69-2.87-3.75-8.29-3.94Z" transform="translate(-217.45 -291.02)"/><path d="M333,333.4l1.23.69A8.94,8.94,0,0,1,342,330c5.32,0,7.81,3.92,8,6a15.5,15.5,0,0,1-1.15,4.63,21.83,21.83,0,0,0-1.35,5.28c-.16,2.91-1,8.33-2.28,11.25-1.14,2.57-2.5,4.39-8.65,2.61-6-1.73-9-5.84-9-7.65h-1.42c0,2.56,3.48,7.12,10,9s8.79.1,10.35-3.39c1.37-3.09,2.22-8.73,2.39-11.75a21,21,0,0,1,1.29-4.9c.67-2,1.31-3.85,1.21-5.19-.21-2.95-3.34-7.32-9.37-7.32A10.34,10.34,0,0,0,333,333.4Z" transform="translate(-217.45 -291.02)"/><path d="M291.18,337.87c-2.95.1-5.07,1.13-6,2.88-2.21,4.24-.13,6.41,0,6.5l1-1c-.05-.06-1.42-1.57.29-4.85.66-1.26,2.4-2,4.78-2.11,2.78-.1,5.46.79,6,1.66l1.2-.74C297.45,338.62,294,337.77,291.18,337.87Z" transform="translate(-217.45 -291.02)"/><path d="M288,330.21a5.77,5.77,0,0,0-3.71,3.48,6.24,6.24,0,0,0,1.56,6.94l.89-1.1a4.91,4.91,0,0,1-1.11-5.4,4.52,4.52,0,0,1,2.87-2.59,12,12,0,0,1,9.6,1l.72-1.22A13.33,13.33,0,0,0,288,330.21Z" transform="translate(-217.45 -291.02)"/><path d="M291.32,323.28c-5.79,3.08-4.35,7.8-4.34,7.85l1.35-.43c0-.15-1.05-3.66,3.66-6.16a8.28,8.28,0,0,1,8.74.27l.85-1.13A9.69,9.69,0,0,0,291.32,323.28Z" transform="translate(-217.45 -291.02)"/><path d="M287.38,310.85c-1.92,0-3.64.8-4.19,1.91a5.22,5.22,0,0,1-3,2.46s-3.53.73-5.27,3.11a8.76,8.76,0,0,0-1.26,3.36,5,5,0,0,1-.83,2.22,3.9,3.9,0,0,1-1.57.7,5.9,5.9,0,0,0-3.87,2.6c-1.63,2.72-1.12,4.28-1.06,4.45l1.34-.48s-.33-1.13.94-3.24a4.55,4.55,0,0,1,3-2,4.91,4.91,0,0,0,2.17-1.06A5.69,5.69,0,0,0,275,322a7.56,7.56,0,0,1,1-2.84,8.18,8.18,0,0,1,4.4-2.55,6.67,6.67,0,0,0,4-3.22c.26-.53,1.51-1.11,2.93-1.13a3.89,3.89,0,0,1,3.64,2,34.63,34.63,0,0,1,2.59,8.78l1.4-.22a35,35,0,0,0-2.74-9.22A5.23,5.23,0,0,0,287.38,310.85Z" transform="translate(-217.45 -291.02)"/><path d="M305.34,308.44a11.09,11.09,0,0,1-3.11,1.1,6.84,6.84,0,0,1-3.23-.75c-1.49-.58-3.17-1.25-5-.73a8.44,8.44,0,0,0-4.75,3.31l1.2.75a7.16,7.16,0,0,1,3.93-2.69c1.41-.39,2.73.13,4.12.68a8.06,8.06,0,0,0,3.94.84,12.55,12.55,0,0,0,3.53-1.22c1.53-.71,3-1.38,4.43-1.12a16.37,16.37,0,0,1,3.26,1,5.86,5.86,0,0,0,2.78.66c1.18-.15,7.5.47,9.81,4.17,1.72,2.75.53,5-.63,7.24l-.93,2,1.32.5.87-1.81c1.21-2.32,2.72-5.21.57-8.65-2.67-4.27-9.64-5-11.19-4.83a4.93,4.93,0,0,1-2.07-.56,17,17,0,0,0-3.55-1.1C308.73,306.88,307,307.67,305.34,308.44Z" transform="translate(-217.45 -291.02)"/><path d="M326.76,312.71l.12,1.41a11.54,11.54,0,0,1,8.91,3.76c3.69,4.15,1.54,11.59,1.52,11.66l1.36.41c.1-.34,2.39-8.27-1.82-13A12.75,12.75,0,0,0,326.76,312.71Z" transform="translate(-217.45 -291.02)"/><path d="M317.11,354.79a31,31,0,0,1-1.13,9.9,6.93,6.93,0,0,1-5.15,4.56,3,3,0,0,1-2.95-.94,13.37,13.37,0,0,1-2.18-6.6l-1.42.06a14.65,14.65,0,0,0,2.48,7.4,4.29,4.29,0,0,0,4.3,1.47,8.4,8.4,0,0,0,6.27-5.51,32.41,32.41,0,0,0,1.2-10.43Z" transform="translate(-217.45 -291.02)"/><path d="M298.44,399.09l1.27.64c6.31-12.64,8.42-30.56,8.44-30.74l-1.41-.16C306.72,369,304.64,386.69,298.44,399.09Z" transform="translate(-217.45 -291.02)"/><path d="M306.57,367.41a16.73,16.73,0,0,0-5.5,6.5,20.26,20.26,0,0,0-2.37,9.88,67.44,67.44,0,0,1-1.13,7.5c-.37,1.5-6.5-5.38-9.37-16.75,0,0,7.62-5.38,10.25-14.5,0,0-.75,3.37,1.87,4.87s4.25-3,4.25-3A35.7,35.7,0,0,0,306.57,367.41Z" transform="translate(-217.45 -291.02)"/><path d="M315,368s3-4.5,3-12.75c0,0,6.5,1.87,8.5-2.75a11.48,11.48,0,0,0,6.62,6.62,12.21,12.21,0,0,1-3.87,6.13c-3.13,2.62-8.75,7.5-8.38,12.75s-.75,3.75-.75,3.75a41.44,41.44,0,0,1-.75-4.38C319.2,375.79,315.07,372.54,315,368Z" transform="translate(-217.45 -291.02)"/><path d="M346.07,329.79a5.26,5.26,0,0,0,0-2.88c-.5-1,7.25-9.5,15.63-4.87,0,0-.88-6-8-9.38s-16.5-.62-19.38,2.5c0,0,5.88,2.5,3.5,15C337.82,330.16,340.45,328.16,346.07,329.79Z" transform="translate(-217.45 -291.02)"/><path d="M271.45,325.29s.37-8.25-9-14.88-14.88-6.25-18-7.37a15,15,0,0,1-6-4.13l-4.13-.5a8.51,8.51,0,0,1,1.38,4.25c0,2.25.87,12,5.25,17.13a46.78,46.78,0,0,0-8.25,1.12c-4.25,1-6.38.88-7.13-.25v5.63s2.13,5.87,10,10.12a21.28,21.28,0,0,1-3.75,3.5,32.9,32.9,0,0,1-6.5,3.13v.75a24.79,24.79,0,0,1,4.63,1.37c1.5.75,20.54,9.46,31.21-.08a10.75,10.75,0,0,1-1.84-7.92s-1.25-4.62,7.38-5.37C266.7,331.79,266.2,327.41,271.45,325.29Z" transform="translate(-217.45 -291.02)"/></svg>