<svg id="_6_4" xmlns="http://www.w3.org/2000/svg" viewBox="0 0 153.07 238.11"><defs><style>.cls-1{fill:#ed1c24;}.cls-2{fill:#fff;}.cls-3{fill:#ffcb05;}</style></defs><title>_6_4</title><rect class="cls-1" width="153.07" height="238.11"/><path class="cls-2" d="M227.48,300.68V474.35l2.33,37.33,1.67,1.33a9.27,9.27,0,0,0,5.5,2l118.33.17s10,.17,10.67-10.17l.16-204.16A10.09,10.09,0,0,0,356,292l-119.67.17S229.48,292.68,227.48,300.68Z" transform="translate(-220.19 -284.63)"/><path class="cls-1" d="M283.27,309.81s-2.25,3.5-.5,8.87l-3.25,4a5,5,0,0,0,2,5.5,18.06,18.06,0,0,0,5.12,3.13s2.88.87,4,2.25,2.88,4.12,3.38,4.25,7.37-.13,7.37-.13l2.38-2.62a15.71,15.71,0,0,0,6.12,2.5,12.55,12.55,0,0,0,7.5-2,60.32,60.32,0,0,0,5.13-5.38l.25-2.62a25.37,25.37,0,0,0,3.5-4.63c1-2,3.37-6.75,3.12-8.37a20.76,20.76,0,0,0-1.87-4.63l-4.63-4.12s-4.25-6.38-11.62-4.25c0,0-1.75-5.38-7.25-6a12.62,12.62,0,0,0-11.38,5.12c-1.87,2.5-6.5,3.75-6.5,3.75Z" transform="translate(-220.19 -284.63)"/><path class="cls-1" d="M235.14,469.68s-1.33-6.67-1.5-9.17a28.39,28.39,0,0,0-2.16-8.83,7.41,7.41,0,0,1,0-6.5l-3.67-2.83-.5-25.5s2.5-3.17,6-3.5c0,0-2.33-6.17,1.83-10.34a25.25,25.25,0,0,1,10-5.83c1.17-.5,5.17-4.83,6.5-7s9.84-7.17,9.84-7.17l7.5-3.33,6.66.33s4.5.84,5.67.84a11.12,11.12,0,0,0,3.5-.34c.83-.33,10.17-2.33,16.33,2s9.17,2.17,9.17,2.17l18.17,4.83,3.16,3.67,1.5,6.33s-.66,5.84,1.17,9.5,6.5,11.67,4.5,17.67-9,24.5-9,24.5l-4.33,7.17-12.17,5.5-3.5.83s-11.5,8.83-13.33,12.17-11,8.33-11,8.33l-20.17,1.17-21-4.5-7.5-4.84-3.17-3.66Z" transform="translate(-220.19 -284.63)"/><path class="cls-3" d="M267,427.68a2.36,2.36,0,0,0,1.16,1.67c1,.5,4,2,4.5,3.16s3.17,1.17,5,1.5,5.34.84,8.34-1,5-5.5,4.83-10a9,9,0,0,0-3.5-7.16,5.17,5.17,0,0,0-3-1.17c-1,0-1.5.83-2,1.33a15.76,15.76,0,0,1-4,2.84c-1.83.83-4.5,2.16-5.33,3.33a21,21,0,0,1-4.5,3.83C268,426.18,267,427.68,267,427.68Z" transform="translate(-220.19 -284.63)"/><path d="M237.4,291.47a10.64,10.64,0,0,0-10.63,10.63V505.26a10.64,10.64,0,0,0,10.63,10.63H356.22a10.64,10.64,0,0,0,10.63-10.63V302.1a10.64,10.64,0,0,0-10.63-10.63Zm-9.21,213.79V302.1a9.22,9.22,0,0,1,9.21-9.21H356.22a9.22,9.22,0,0,1,9.21,9.21V505.26a9.22,9.22,0,0,1-9.21,9.21H237.4A9.22,9.22,0,0,1,228.19,505.26Z" transform="translate(-220.19 -284.63)"/><path d="M283.66,414.05a9.78,9.78,0,0,0-1.94,1.61,13.45,13.45,0,0,1-2.73,2.22l-1.51.58a11.36,11.36,0,0,0-5.19,3.07c-3.06,3.28-4.66,4.45-5.46,4.85a1.38,1.38,0,0,0-.84,1.31c.05,1.23,1.71,2.38,2.39,2.65a11.41,11.41,0,0,1,3.51,2.57c1.05,1.57,6.61,2.19,9.73,2.31,4.64.18,9.19-4.4,9.73-9.8.52-5.23-.78-8.38-4.34-10.51l.08,0C286.75,414.69,285,413.38,283.66,414.05Zm-16.2,13.6c1.34-.67,3.26-2.36,5.87-5.15a10.06,10.06,0,0,1,4.61-2.7l1.69-.65a14.87,14.87,0,0,0,3.07-2.46,10.85,10.85,0,0,1,1.59-1.38c.38-.18,1.37.33,1.91.76l0,0,0,0c3.1,1.86,4.13,4.43,3.66,9.16s-4.33,8.68-8.27,8.53c-5.11-.2-8.27-1.19-8.6-1.69a12.65,12.65,0,0,0-4.16-3.1,3.19,3.19,0,0,1-1.48-1.35Z" transform="translate(-220.19 -284.63)"/><path d="M275.76,405.31l-3.18.31-5.81.52-1.56.05c-3.47.06-8.7.15-11.59,3.35C251,412.4,252,416,252.56,418.3a9.35,9.35,0,0,1,.38,1.88,25.88,25.88,0,0,1-.38,3.07c-.37,2.31-.78,4.93-.45,6.73s1.2,3.09,2.29,3.36a1.55,1.55,0,0,0,1.63-.55,15.26,15.26,0,0,1,10.63-4.57l0-1.41a16.46,16.46,0,0,0-11.71,5.1.15.15,0,0,1-.18.06c-.29-.08-.93-.64-1.23-2.25s.12-4.16.45-6.25a24.86,24.86,0,0,0,.39-3.29,9.57,9.57,0,0,0-.42-2.24c-.6-2.3-1.34-5.15.74-7.45,2.48-2.74,7.34-2.83,10.56-2.89l1.62,0,5.88-.53,3.13-.31c1.74-.13,5.28,1,5.58,4.36a14.11,14.11,0,0,1-1.1,6.46l1.28.61a15.34,15.34,0,0,0,1.23-7.2C282.49,407,278.43,405.1,275.76,405.31Z" transform="translate(-220.19 -284.63)"/><path d="M254.11,438.14c.26,1.41,2,2.8,3.88,4.26a21.77,21.77,0,0,1,2.63,2.26,14.84,14.84,0,0,1,1.53,2.24c1.4,2.28,3.13,5.13,6,5a4.84,4.84,0,0,0,4.12-2.38,4.12,4.12,0,0,0,.31-3.81c-.78-1.56-1.91-6.22-1.6-7.89a4.21,4.21,0,0,1,4.72-2.93l.16-1.4a5.58,5.58,0,0,0-6.28,4.07c-.39,2.14.91,7.13,1.73,8.78a2.79,2.79,0,0,1-.26,2.46,3.46,3.46,0,0,1-3,1.68c-2.06.1-3.49-2.24-4.75-4.31a16.64,16.64,0,0,0-1.69-2.46,25.06,25.06,0,0,0-2.8-2.42c-1.43-1.12-3.2-2.51-3.36-3.39-.22-1.19.88-4.59,1.62-6.45l-1.31-.52C255.61,431.45,253.75,436.16,254.11,438.14Z" transform="translate(-220.19 -284.63)"/><path d="M288.55,431.51c2.91,1.12,6.16,4.62,7.72,8.3.92,2.18,1.12,4.1.55,5.43-1.23,2.91-3.95,3.71-8.31,2.43-2.36-.7-6.38-.62-9.61-.56l-2.09,0a6.56,6.56,0,0,1-4.33-1.63l-1,1a7.86,7.86,0,0,0,5.33,2.05l2.12,0c3-.06,7-.14,9.18.5,6.36,1.87,9-.73,10-3.24.91-2.16.2-4.74-.56-6.53-1.72-4.07-5.22-7.8-8.5-9.07Z" transform="translate(-220.19 -284.63)"/><path d="M297.39,417.64c-4.44.54-7.22,4.64-7.34,4.81l1.18.79s2.55-3.74,6.33-4.19a5.43,5.43,0,0,1,4.12,1.06,5.89,5.89,0,0,1,2.09,4,6.75,6.75,0,0,1-.84,3.62,8.53,8.53,0,0,0-1,4.54l.09.88c.31,3,.61,5.81-.56,9.15-.83,2.41-2.26,3.48-4.23,3.2l-.2,1.4c2.66.38,4.71-1.09,5.77-4.13,1.27-3.65.94-6.76.63-9.76l-.09-.88a7.18,7.18,0,0,1,.88-3.83,8,8,0,0,0,.95-4.34,7.28,7.28,0,0,0-2.62-4.94A6.85,6.85,0,0,0,297.39,417.64Z" transform="translate(-220.19 -284.63)"/><path d="M289.59,406.25c-2.18,1.41-7.84,2.39-7.9,2.4l.24,1.4c.24-.05,6-1.05,8.43-2.61,1.29-.83,4.64-2.66,7.75-1.75,2.2.65,2.83,1.88,2.34,4.53s-.73,7,.05,8.75l1.29-.58c-.58-1.3-.45-5.25,0-7.91.39-2.1.48-5-3.33-6.15S291.05,405.31,289.59,406.25Z" transform="translate(-220.19 -284.63)"/><path d="M298.86,396a30.31,30.31,0,0,1-7.88,1.61c-2.39,0-5.45.64-6.89,2.43s-4.72,6.5-4.86,6.7l1.16.82s3.5-5,4.81-6.63c1.12-1.41,3.81-1.9,5.78-1.9a31,31,0,0,0,8.45-1.73c1.13-.5,4.91.15,6.42,3,1.61,3.07,4.32,7.22,6.15,8.87,1.6,1.43,2.2,4.94,1.61,9.38s-4.49,7.55-9.51,7.88l.09,1.42c5.71-.38,10.16-4.13,10.82-9.12s-.09-8.84-2.06-10.62c-1.65-1.48-4.27-5.47-5.85-8.47C305.27,396.2,300.66,395.23,298.86,396Z" transform="translate(-220.19 -284.63)"/><path d="M295.77,447.8a7.37,7.37,0,0,1,1.17,5.46c-.48,3.64-4,5.81-6.1,6.78l-2.2,1a45.43,45.43,0,0,0-7.42,3.75,7.35,7.35,0,0,1-6.9,1.38c-3.11-.78-6-4.06-6.82-7.63a12.09,12.09,0,0,1,.78-6.88L267,451a13.31,13.31,0,0,0-.88,7.79c.88,4.06,4.26,7.81,7.85,8.71a8.77,8.77,0,0,0,8.1-1.62,45.19,45.19,0,0,1,7.14-3.6l2.23-1c2.34-1.09,6.34-3.56,6.91-7.88a8.73,8.73,0,0,0-1.5-6.55Z" transform="translate(-220.19 -284.63)"/><path d="M244.91,410.84c-1.95.69-8.21,3.63-7,12.93,1,7.63,5,15.93,9.34,16.12a35,35,0,0,0,7.85-.68l-.3-1.39a33.9,33.9,0,0,1-7.49.65c-3.16-.14-7-7.23-8-14.88-1.1-8.24,4.33-10.82,6-11.41,3.12-1.09,7.62-.47,7.66-.47l.2-1.4C253.05,410.28,248.37,409.64,244.91,410.84Z" transform="translate(-220.19 -284.63)"/><path d="M276.5,394.49a49.87,49.87,0,0,1-8.8.82c-2.37-.18-11.24,1.2-14.42,4.73s-4.76,10.35-4.83,10.64l1.38.33c0-.07,1.66-6.86,4.51-10,2.7-3,11-4.44,13.25-4.27a51.16,51.16,0,0,0,9.19-.84c.06,0,6-1.14,10,3.44l1.06-.94A12.58,12.58,0,0,0,276.5,394.49Z" transform="translate(-220.19 -284.63)"/><path d="M240.69,442.5c-1.13,2,1.29,5.87,4.21,7.93,2.69,1.9,7.21,5.39,10.11,7.95,2.14,1.89,6.71,3,9.79,2.34a3.52,3.52,0,0,0,2.65-1.74l-1.28-.6a2.26,2.26,0,0,1-1.66.95c-2.61.55-6.77-.43-8.56-2-2.94-2.6-7.51-6.13-10.23-8.05s-4.31-5.14-3.79-6.08c.62-1.11,3.3-3.09,4.28-3.76l-.8-1.17C245,438.53,241.58,440.9,240.69,442.5Z" transform="translate(-220.19 -284.63)"/><path d="M313.48,421.54s2.48.61,3.17,2.4c.77,2,1.41,7.31-.13,10.24-1.79,3.4-1.92,6.55-1.92,11.33,0,5.18-2.12,10.95-2.94,11.37l-.81.45c-1.57.91-4.5,2.62-6.7,1.4-2.82-1.57-5.9-5.76-5.93-5.8l-1.15.84c.13.18,3.3,4.48,6.4,6.2,2.89,1.61,6.28-.36,8.1-1.41l.72-.41c1.89-.94,3.73-8,3.73-12.64,0-5,.17-7.67,1.75-10.67,1.85-3.52,1-9.26.2-11.41-1-2.49-4-3.24-4.16-3.27Z" transform="translate(-220.19 -284.63)"/><path d="M306.86,387a3.55,3.55,0,0,0-1.42,2.6c-.19,1.72-1,6.57-1.89,7.85l1.18.79c1.3-1.95,2.11-8.42,2.12-8.48a2.14,2.14,0,0,1,.81-1.59,3.22,3.22,0,0,1,2.64-.14c3,.8,8.19,5.24,9.05,6.82a17.18,17.18,0,0,1,.61,11.47,11.22,11.22,0,0,1-5.61,6.71l.58,1.3a12.52,12.52,0,0,0,6.39-7.62c1.55-5.33.38-10.52-.72-12.54s-6.63-6.64-9.94-7.51A4.52,4.52,0,0,0,306.86,387Z" transform="translate(-220.19 -284.63)"/><path d="M286.1,379.68a23,23,0,0,1-4.25.46l-2.14-.31c-2.5-.46-5.62-1-8.59.74-4.39,2.59-6.69,5.7-6.85,9.24a9.16,9.16,0,0,0,2.9,6.73l.94-1.06a7.83,7.83,0,0,1-2.42-5.6c.13-3,2.2-5.76,6.15-8.09,2.52-1.49,5.23-1,7.62-.57l2.31.33a22.08,22.08,0,0,0,4.56-.47,27.06,27.06,0,0,1,7.23-.53c5.13.64,7.63,2.66,7.88,6.34a32.76,32.76,0,0,1-.82,9.28l1.38.35a34.24,34.24,0,0,0,.85-9.72c-.29-4.42-3.28-6.93-9.12-7.66A28.52,28.52,0,0,0,286.1,379.68Z" transform="translate(-220.19 -284.63)"/><path d="M255.69,386.7c-2.3,1-4.51,3.46-6.64,5.8a45.06,45.06,0,0,1-3.21,3.32,10.36,10.36,0,0,1-3.64,1.81,14.84,14.84,0,0,0-8.3,6,11,11,0,0,0-.69,11.15c1.31,2.67,3.38,4.38,5.4,4.46l.06-1.41c-1.45-.06-3.14-1.54-4.19-3.67a9.43,9.43,0,0,1,.58-9.72,13.45,13.45,0,0,1,7.61-5.45,11.52,11.52,0,0,0,4.11-2.09,47.66,47.66,0,0,0,3.32-3.42c2-2.24,4.14-4.55,6.17-5.47,1.71-.77,3.31-.87,4.28-.28a2.32,2.32,0,0,1,1.05,2l.34,6.82,1.41-.06-.33-6.84a3.68,3.68,0,0,0-1.73-3.14C259.9,385.65,257.86,385.72,255.69,386.7Z" transform="translate(-220.19 -284.63)"/><path d="M226.83,417.05l1.29.59c1.76-3.8,5-3.6,5.13-3.59l.12-1.41C233.19,412.63,229,412.32,226.83,417.05Z" transform="translate(-220.19 -284.63)"/><path d="M234.75,442.34a7.15,7.15,0,0,0-4.42,3.57,6.77,6.77,0,0,0,0,5.36c1.45,3.79,2.81,7.7,3,10.61.07,1.27.9,9.17,2,9.89.78.52,1.69.77,3.83.44s10.68-1.3,14.18-.19a11.82,11.82,0,0,0,9.52-1.37c3-1.93,4.76-5.29,5.23-9.73l-1.4-.15c-.43,4.06-2,7-4.61,8.69a10.44,10.44,0,0,1-8.31,1.21c-3.7-1.17-12.15-.27-14.82.14-1.87.29-2.41,0-2.73-.17a41.82,41.82,0,0,1-1.46-8.83c-.17-3.27-1.66-7.42-3-11.05a6.45,6.45,0,0,1-.45-2.28,4.6,4.6,0,0,1,.42-2,5.76,5.76,0,0,1,3.59-2.83c3.63-1.21,5.78-.22,5.8-.21l.63-1.27C241.52,442.16,239,440.93,234.75,442.34Z" transform="translate(-220.19 -284.63)"/><path d="M226.61,441.09c.38,3.61,4.51,4.73,4.69,4.78l.36-1.37s-3.37-.93-3.65-3.56Z" transform="translate(-220.19 -284.63)"/><path d="M308.27,460a2.84,2.84,0,0,1,1.57,2.17,3.59,3.59,0,0,1-1.48,2.84L307,466a95.89,95.89,0,0,0-8.06,7,12.52,12.52,0,0,1-10.73,3.3c-2.47-.37-9.16.52-13.59,1.11-1.49.2-2.89.38-3.18.38s-1.43-.16-3.16-6c-1.26-4.27-.16-9.93-.15-10l-1.39-.28c0,.25-1.18,6.06.18,10.67s2.88,7,4.52,7c.36,0,1.35-.13,3.37-.39,4.08-.55,10.92-1.46,13.19-1.12A13.89,13.89,0,0,0,300,474a93.8,93.8,0,0,1,7.95-6.88l1.33-1.07a4.93,4.93,0,0,0,2-4,4.15,4.15,0,0,0-2.24-3.28Z" transform="translate(-220.19 -284.63)"/><path d="M323.43,392.68a6,6,0,0,0-3,5.14l1.41.06a4.62,4.62,0,0,1,2.25-4,3.32,3.32,0,0,1,3.35,0c2.82,1.66,4.51,3.54,4.82,8.27.24,3.71,1.13,5.95,2.74,10l2.47,6.48c2.4,6.7-.19,8.77-2.93,11l-1.91,1.64c-2.72,2.72-3.49,6.94-4.39,11.83l-.47,2.53a9.76,9.76,0,0,1-8.12,8.11,12,12,0,0,1-5.47-.15l-.42,1.35a13.37,13.37,0,0,0,6.19.19c3.53-.75,8-2.95,9.21-9.23l.48-2.54c.88-4.85,1.58-8.68,4-11.09l1.79-1.54c2.87-2.29,6.12-4.88,3.38-12.54l-2.48-6.52c-1.56-3.95-2.42-6.13-2.65-9.62-.34-5.32-2.36-7.54-5.51-9.39A4.77,4.77,0,0,0,323.43,392.68Z" transform="translate(-220.19 -284.63)"/><path d="M310.87,301c-5.94,2.49-6.69,11.47-6.93,14.43a35.73,35.73,0,0,1-1.15,5.45c-.81,3.13-1.73,6.69-1.52,9.82.16,2.42,1.94,4.74,4.75,6.21a10.63,10.63,0,0,0,10.32,0c5.43-3.28,6.37-7.89,6.48-8.55a5.94,5.94,0,0,1,1.56-1.89,10.93,10.93,0,0,0,4-7.77c0-.44,0-.86,0-1.25a10,10,0,0,0-2.36-6.6,11.73,11.73,0,0,1-1.89-3.43,10.81,10.81,0,0,0-5.79-6.14A9.22,9.22,0,0,0,310.87,301Zm-4.2,34.65c-2.33-1.22-3.86-3.15-4-5.05-.19-2.9.7-6.34,1.48-9.37a37,37,0,0,0,1.19-5.69c.62-7.45,2.61-11.78,6.07-13.24a7.85,7.85,0,0,1,6.35.27,9.54,9.54,0,0,1,5,5.3,13.16,13.16,0,0,0,2.09,3.81,8.78,8.78,0,0,1,2.05,6.91,9.48,9.48,0,0,1-3.54,6.86,6.74,6.74,0,0,0-1.92,2.46l0,.07v.07c0,.05-.71,4.56-5.83,7.66C312.61,337.56,309,336.9,306.67,335.68Z" transform="translate(-220.19 -284.63)"/><path d="M291.14,303.13c-2.21,6.83-.4,12.46,4.72,14.7,5.62,2.46,8.87.36,9,.27l-.78-1.18c-.11.07-2.8,1.74-7.66-.39-5.26-2.3-5.49-8.2-3.95-13a11,11,0,0,1,11.74-7.35c4.49.6,6.23,5.63,6.25,5.69l1.35-.45c-.08-.25-2-5.93-7.42-6.65A12.39,12.39,0,0,0,291.14,303.13Z" transform="translate(-220.19 -284.63)"/><path d="M282.58,309.59c-2.1,2.79-1.24,6.48-.67,8.93l.36,1.88a11.78,11.78,0,0,1-.2,2.12c-.38,2.56-.94,6.42,2,8.26a23.1,23.1,0,0,0,4,2,5.62,5.62,0,0,1,2.62,1.55c1,1.24,4.22,2.26,7.05,1.76a5.85,5.85,0,0,0,4.84-4l-1.34-.46a4.45,4.45,0,0,1-3.74,3c-2.56.44-5.15-.56-5.71-1.26a6.84,6.84,0,0,0-3.2-2,21.88,21.88,0,0,1-3.81-1.84c-2.19-1.35-1.74-4.4-1.38-6.85a12.2,12.2,0,0,0,.21-2.44l-.39-2.09c-.54-2.32-1.28-5.5.42-7.76,2.29-3.05,7.31-3.72,7.36-3.72l-.18-1.41C290.66,305.34,285.23,306.06,282.58,309.59Z" transform="translate(-220.19 -284.63)"/><path d="M289.27,379.92l1.41.19c.15-1.15,3.67-28.09,3.84-32.57l-1.42-.05C292.94,351.9,289.31,379.64,289.27,379.92Z" transform="translate(-220.19 -284.63)"/><path d="M282.64,310.68a12.13,12.13,0,0,1,8.25-4.37s1.88-5.88,3.13-6.63c0,0-5.13-3-10-3.5s-14-1.12-17.5-2.75c0,0-2.63-1.12-.88.13a60.57,60.57,0,0,1,7.5,6.37C275.39,302.31,279.64,308.56,282.64,310.68Z" transform="translate(-220.19 -284.63)"/><path d="M282.14,317.31s-7.62-.25-12.12,1.75-11.63,6.75-14.63,7.25-7,1.12-6.5,1.5a7.78,7.78,0,0,0,3.75.37,56.56,56.56,0,0,1,11.13,1.63c3.25.87,7.75,2.25,13.75,3.62a14.71,14.71,0,0,0,10.5-1.5,13.06,13.06,0,0,1-4.75-2.75c-1.63-1.75-.88-4.75-.63-6S283,318.93,282.14,317.31Z" transform="translate(-220.19 -284.63)"/><path d="M288.14,332.31a20.92,20.92,0,0,1,2,3.87c.25,1.13,1.5,14.13,2.88,17.13a2.62,2.62,0,0,0,1.5-.75c.87-.75,9.75-9.13,11.25-10.13s3.87-4.62,3.87-4.62-6.5-2.38-7.5-5.63a6.66,6.66,0,0,1-4.87,3.13c-3.5.5-4.75-.88-6.25-1.88A6.8,6.8,0,0,0,288.14,332.31Z" transform="translate(-220.19 -284.63)"/><path d="M322.27,305.18a24.31,24.31,0,0,1,9.25-.12c4.12,1,7,2.25,10.5,2.12a65.46,65.46,0,0,0,6.87-.62c1-.13,3.25.62,2.25,1.12a63.87,63.87,0,0,0-7.37,5,31.12,31.12,0,0,1-8.88,4.88c-3.62,1.25-7,2.75-7.87,3.87,0,0,1.37-4.37.62-6.37s-2.75-3.75-3.25-5.63A17.76,17.76,0,0,0,322.27,305.18Z" transform="translate(-220.19 -284.63)"/><path d="M316,336.35s5.66-4.42,6.16-8.17l.75-1.25s3.75,1.75,4.88,2.25,7,3.25,7.87,9.63a131.37,131.37,0,0,0,2.63,14c.37,1.12,1.12,1.87-.25,1s-7-3.88-10.13-5.38S317.06,342.26,316,336.35Z" transform="translate(-220.19 -284.63)"/><path d="M304.39,397.43a76.35,76.35,0,0,0,1.75-7.75,2.89,2.89,0,0,1,3.38-2.62c1.5.37,8.37,4.62,9.5,5.87a15.77,15.77,0,0,1,2.12,3.88c1.75-4.63,5-5,8.25-2.25s3.88,7.87,3.88,7.87c2.25-5.5,8-7.12,14.12-5.12s11.38,6.62,11.75,7.75a1.9,1.9,0,0,0,1.5,1.25c1.5-6.75-.12-18.63-6.75-27.13a30,30,0,0,0-17.25-11c-1.75-.25-4.87-1-4.87-1,7.37-6.75,8.25-12.75,7.75-14.25s-1.5-.62-1.5-.62c-5.38,6.25-14,6.87-17.63,7.87s-11.75,2.38-16.37,8-4.88,13.25-4.88,13.25,3.25,1.75,3,5.13-1.25,10-1.25,10Z" transform="translate(-220.19 -284.63)"/><path d="M339.14,423.81s7.13-1.63,13.75,4.87,10.5,10,12.88,10.13l.12,1.12a21.15,21.15,0,0,1-11.87,8.5s5.62,3.38,8,14,.25,13.88,1,19.5a35.81,35.81,0,0,0,3,10.13l.12,1.5s-3.5-3.75-7.5-4.63-14-3.25-18.5-7.37a18.68,18.68,0,0,0,1.25,5.87,48.91,48.91,0,0,1,2.13,6.38s-.5.5-1.5-.38-8.5-4-12-4.75-16.63-7.37-20.5-24c0,0,3.75-2.62-1.38-5.25,0,0,3.38-1.5,4.25-2.5a6.74,6.74,0,0,0,1.25-2.25s7,1.63,11.38-2.62,4.37-11.25,4.37-11.25.63-6,3-8.5S338.27,429.18,339.14,423.81Z" transform="translate(-220.19 -284.63)"/><path d="M298.39,474.81s.38,3.87-3.25,8.62-8.87,9.38-11.75,12.38-6.25,12.12-6.5,18.87l-1.12.63s.62-.88-1.25-2.75-8.5-5.13-10-9.75c0,0-4.38,6-11.25,6.5s-17.75,0-21.5,3.87c0,0-4.38-1.37-4.38-7.25V473.68s3.63-4.12,7.13-5.5c0,0,.62,3.63,3.12,3.5s9.63-1.25,13.75-.5,13.25.75,15-5.87a42.73,42.73,0,0,0,2,8.75c1.63,4.75,2.5,4.62,4.88,4.25A146.29,146.29,0,0,1,289,477.06,21.16,21.16,0,0,0,298.39,474.81Z" transform="translate(-220.19 -284.63)"/><path d="M250.89,391.56s-6.75,1-10.75-4.75-7.5-13.63-12.37-11.13l-.13-3s2.75-7.87,10.25-8.87a29.47,29.47,0,0,1-4.62-11.38c-1-6.37-.88-12.37-5.5-16.87l-.75-2a68.38,68.38,0,0,0,6.5,6.62c2.75,2.25,7.25,3.38,12.62,4.25s13,2.13,15.13,6.5a46.06,46.06,0,0,1,3.75-7c2.12-3.12,4-7.87,3.75-10.87,0,0,.5-.75,1.25,1.62s1.87,8.13,3.12,11.38,5.75,10.12,5.38,18.75-3.5,13-2.75,14.75l-.13.5a15.07,15.07,0,0,0-6.5,2.87,10.35,10.35,0,0,0-4,5.25c-1.12,3.5,1.75,7.5,1.75,7.5s.13.25-.75.5-3.87.63-3.87.63.5-5.5-.25-8.25S256,385.43,250.89,391.56Z" transform="translate(-220.19 -284.63)"/></svg>