<svg id="_7_1" xmlns="http://www.w3.org/2000/svg" viewBox="0 0 153.07 238.11"><defs><style>.cls-1{fill:#ed1c24;}.cls-2{fill:#fff;}.cls-3{fill:#ffcb05;}</style></defs><title>_7_1</title><rect class="cls-1" width="153.07" height="238.11"/><path class="cls-2" d="M228.85,325.27,229,520.6s.17,8.84,8.83,9.5l120.67.34s9-1.84,9.17-9.17L368,315.1s-.33-7.33-10-8.5l-66.5-.16-52.83,7.5Z" transform="translate(-221.98 -299.38)"/><path class="cls-3" d="M346.85,452.27a49.38,49.38,0,0,0-10.25-11.62,99.24,99.24,0,0,0-13.75-9.5l-8.37-5.63s-3.63-.5-4.13-1.12a19.27,19.27,0,0,1-1.25-2s-4.37-1.75-5.37-2.63a11,11,0,0,0-3.38-1.5,3,3,0,0,0-.87-1.25,30,30,0,0,0-4.63-1.62,13.76,13.76,0,0,0-2.75-2.25c-1.62-1-10.37-1.25-16.25-.13s-11,4-14,4.63S252,419.4,248.6,418.9s-11-4.13-12.87-5.13a30,30,0,0,1-3.25-2,1.27,1.27,0,0,0-1.5,1.13c-.25,1.37,1.62,8.5,1.62,8.5l3.63,4,.62.87s-1.12,5.5,1.13,9.38,10.75,7.5,10.75,7.5a18.82,18.82,0,0,1,1.5,2.62c.25.75,2.62,6.75,5,8.5,0,0-6.38,1.13-8.5,1.38a4.41,4.41,0,0,0-3.88,3.5c-.12,1.5,1.25,3.25,1.63,3.75l3.25,4.37s-2.63,5.25-3,6.5-5.63,12.38-5.63,12.38l9.75-1.38s1.75-7.62,5-10.87c0,0,4.38,7.12,6,11.87l7.25-4.12s-4.12-8.38-4.37-11c0,0,7.62.62,9.5.87s12.12.75,17-2.87L310.1,470l1.25,1.13a48.17,48.17,0,0,0,3.25,5.25s-8.5,5.37-11.12,7.12-4.75,4.63-3.88,7.75c0,0,6.88.5,7.88.63a44.17,44.17,0,0,0,4.5-.13l2.25,1.13,2,2s2.5-2.75,3.62-3,1.63-2.38,3-2.5,4.13,1.5,5.63,1.5a28.47,28.47,0,0,0,4.37-.63s5-3.87,7.38-5.5,6.62-3.75,7.12-4.12a28.93,28.93,0,0,0,2.63-3.88,14.09,14.09,0,0,1,3.5-3s.75-5.12,1.62-6.62-.5-6.25-1.37-9.38S349.1,452.77,346.85,452.27Z" transform="translate(-221.98 -299.38)"/><path class="cls-1" d="M228.85,325.27l.17-9.83s-.67-8.67,11.67-9l52,.16s-2.17,6.67-14.5,4.67A7.08,7.08,0,0,1,273,316.1c-4.33,1.17-7.83-.33-8.5-1.16,0,0-3.67,6-11.83,3.5,0,0-2.34,5.83-12,3.33C240.69,321.77,236.19,328.44,228.85,325.27Z" transform="translate(-221.98 -299.38)"/><path d="M238.94,305.9a10.64,10.64,0,0,0-10.63,10.63V520.35A10.64,10.64,0,0,0,238.94,531H358.1a10.64,10.64,0,0,0,10.63-10.63V316.53A10.64,10.64,0,0,0,358.1,305.9Zm-9.21,214.45V316.53a9.23,9.23,0,0,1,9.21-9.22H358.1a9.23,9.23,0,0,1,9.21,9.22V520.35a9.22,9.22,0,0,1-9.21,9.21H238.94A9.22,9.22,0,0,1,229.73,520.35Z" transform="translate(-221.98 -299.38)"/><path d="M231.29,411.36a2.48,2.48,0,0,0-1,2.5c0,.07,1,7.59,1.87,8.41l.56.47a18.75,18.75,0,0,1,3.54,3.63c2.35,3,6.94,6.68,10.56,7.59,3.07.77,5.94,4.07,6,4.11a.71.71,0,0,0,1.07-.93c-.13-.15-3.19-3.68-6.7-4.56-3.27-.82-7.62-4.31-9.78-7.08a19.71,19.71,0,0,0-3.8-3.88l-.42-.35a57.58,57.58,0,0,1-1.47-7.59,1.19,1.19,0,0,1,.3-1.11c.18-.1.52,0,.93.28,1.81,1.27,9.87,6.12,16.18,6.63,6.52.52,15-1.47,19-3.05s13.5-5.4,24.72-2.47a.71.71,0,0,0,.87-.51.71.71,0,0,0-.51-.86c-11.68-3-21.4.84-25.56,2.5-3.88,1.56-12.11,3.48-18.4,3-5.93-.48-13.84-5.22-15.48-6.37A2.17,2.17,0,0,0,231.29,411.36Z" transform="translate(-221.98 -299.38)"/><path d="M277.09,416.28a.71.71,0,0,0-.4.92.72.72,0,0,0,.92.4c.13-.05,13-5,22.21.61a.71.71,0,0,0,.73-1.21C290.7,411.05,277.64,416.06,277.09,416.28Z" transform="translate(-221.98 -299.38)"/><path d="M280.68,417.75a.7.7,0,0,0-.52.85.72.72,0,0,0,.86.53c.13,0,12.92-3.05,24.39,1.79a.7.7,0,0,0,.93-.37.71.71,0,0,0-.38-.93C294.05,414.59,281.22,417.62,280.68,417.75Z" transform="translate(-221.98 -299.38)"/><path d="M291,420.08a.71.71,0,0,0-.53.85.69.69,0,0,0,.84.53,35,35,0,0,1,18.1,1.64.71.71,0,1,0,.49-1.33A35.8,35.8,0,0,0,291,420.08Z" transform="translate(-221.98 -299.38)"/><path d="M298.73,423.57A.71.71,0,0,0,299,425c.09,0,9.22-1.58,17.41,2.11a.71.71,0,0,0,.94-.35.71.71,0,0,0-.35-.94C308.38,421.91,299.12,423.5,298.73,423.57Z" transform="translate(-221.98 -299.38)"/><path d="M240.85,420.2c-1.56,4.33.09,10,.16,10.27a.7.7,0,0,0,1.38-.2.68.68,0,0,0,0-.2,22.34,22.34,0,0,1-.77-5.55,12.66,12.66,0,0,1,.35-2.87c1.1,1.06,3.23,4,4.37,11.72a.71.71,0,1,0,1.4-.2c-1.68-11.41-5.51-13.22-5.94-13.39l-.68-.27Z" transform="translate(-221.98 -299.38)"/><path d="M254.7,423.81l-.67.34.38.65c4.1,7,13.13,3.16,13.22,3.12l.89-.38-.63-.73A11.08,11.08,0,0,0,254.7,423.81ZM266,427c-2.11.66-7,1.57-9.85-2.25A9.4,9.4,0,0,1,266,427Z" transform="translate(-221.98 -299.38)"/><path d="M236.16,425.77a14.35,14.35,0,0,0-.29,3,14.87,14.87,0,0,0,1.69,7c2.46,4.59,9.63,7.51,10.68,7.92a11,11,0,0,1,1,1.56l.2.44c4.17,9.23,8.93,13.8,12.2,16,7.73,5.21,25.46,7.76,32.36,8.12,5,.27,15.55.82,16.68,1.14a.71.71,0,0,0,.39-1.36c-1.07-.3-7.29-.68-17-1.19-5.78-.31-24-2.74-31.65-7.88-3.11-2.1-7.67-6.48-11.7-15.41l-.22-.49a12.92,12.92,0,0,0-1.25-2l-.12-.15-.18-.07c-.08,0-7.79-3-10.13-7.34a14.18,14.18,0,0,1-1.27-9,.7.7,0,0,0-.52-.85A.72.72,0,0,0,236.16,425.77Z" transform="translate(-221.98 -299.38)"/><path d="M308.82,465.09a.71.71,0,0,0-.48.88c.1.36,2.64,8.95,9.26,13.87s10.41,5.91,10.57,6a.71.71,0,1,0,.36-1.37s-3.81-1.05-10.09-5.72-8.72-13-8.74-13.13A.71.71,0,0,0,308.82,465.09Z" transform="translate(-221.98 -299.38)"/><path d="M345.49,452a.71.71,0,0,0,.54.84s4.26,1,6.08,3.56a10.59,10.59,0,0,1,1.87,5.42.71.71,0,0,0,.71.71.7.7,0,0,0,.7-.71,11.75,11.75,0,0,0-2.13-6.24c-2.13-3-6.73-4.07-6.92-4.12A.72.72,0,0,0,345.49,452Z" transform="translate(-221.98 -299.38)"/><path d="M348,455.73a.7.7,0,0,0-.65.75.72.72,0,0,0,.74.67s4,0,6.1,9.61a.7.7,0,0,0,.85.53.69.69,0,0,0,.53-.84C353.11,455.48,348.18,455.72,348,455.73Z" transform="translate(-221.98 -299.38)"/><path d="M346.66,459.61a.71.71,0,0,0,.53.85c.21.05,5.18,1.35,5.79,8.7a.71.71,0,0,0,.76.65.72.72,0,0,0,.65-.77c-.7-8.41-6.62-9.9-6.88-10A.71.71,0,0,0,346.66,459.61Z" transform="translate(-221.98 -299.38)"/><path d="M346.81,463a.7.7,0,0,0,.09,1,18.09,18.09,0,0,1,5.59,9.59.71.71,0,0,0,1.39-.26,19.21,19.21,0,0,0-6.08-10.42A.7.7,0,0,0,346.81,463Z" transform="translate(-221.98 -299.38)"/><path d="M347.1,466.37a.7.7,0,0,0-.15,1,18.92,18.92,0,0,1,3.2,7.66.71.71,0,0,0,.79.62.72.72,0,0,0,.62-.79,20.06,20.06,0,0,0-3.47-8.33A.7.7,0,0,0,347.1,466.37Z" transform="translate(-221.98 -299.38)"/><path d="M344.57,468.06a.71.71,0,0,0-.1,1,19.27,19.27,0,0,1,3.85,8.15.71.71,0,0,0,.8.59.7.7,0,0,0,.6-.8,20.46,20.46,0,0,0-4.16-8.85A.7.7,0,0,0,344.57,468.06Z" transform="translate(-221.98 -299.38)"/><path d="M343.2,471.26a.7.7,0,0,0,0,1s3.64,3.87,3.64,8.84a.71.71,0,1,0,1.42,0,15.6,15.6,0,0,0-4-9.82A.71.71,0,0,0,343.2,471.26Z" transform="translate(-221.98 -299.38)"/><path d="M335.39,477.63a.71.71,0,0,0-.35.94,29.65,29.65,0,0,0,4.13,6.52.71.71,0,0,0,1,0,.72.72,0,0,0,0-1,28.47,28.47,0,0,1-3.88-6.14A.7.7,0,0,0,335.39,477.63Z" transform="translate(-221.98 -299.38)"/><path d="M333.42,480.11a.71.71,0,0,0-.39.92c.07.18,1.76,4.36,3.87,6.12a.71.71,0,1,0,.91-1.09c-1.84-1.53-3.45-5.51-3.47-5.55A.7.7,0,0,0,333.42,480.11Z" transform="translate(-221.98 -299.38)"/><path d="M330.64,481.4a.71.71,0,0,0-.66.75c0,.12.23,3.17,4.41,6.82a.7.7,0,0,0,1-.07.72.72,0,0,0-.07-1c-3.68-3.22-3.93-5.82-3.93-5.85A.7.7,0,0,0,330.64,481.4Z" transform="translate(-221.98 -299.38)"/><path d="M327.74,483.29a.69.69,0,0,0-.37.92c.07.19,1.91,4.49,4,6.56a.71.71,0,0,0,1-1c-1.87-1.88-3.66-6.07-3.68-6.11A.7.7,0,0,0,327.74,483.29Z" transform="translate(-221.98 -299.38)"/><path d="M323,481.93a.71.71,0,0,0-.44.9c.07.23,1.91,5.52,4.66,8.27a.71.71,0,0,0,1-1c-2.52-2.52-4.32-7.68-4.33-7.73A.72.72,0,0,0,323,481.93Z" transform="translate(-221.98 -299.38)"/><path d="M318.55,479.24a.71.71,0,0,0-.56.84c.06.28,1.4,6.89,4,9.67a.7.7,0,0,0,1,0,.71.71,0,0,0,0-1c-2.33-2.49-3.65-8.93-3.66-9A.72.72,0,0,0,318.55,479.24Z" transform="translate(-221.98 -299.38)"/><path d="M314.81,477.42c0,.27-.12,6.62,4.43,14.7a.71.71,0,0,0,1,.27.72.72,0,0,0,.27-1c-4.34-7.71-4.24-13.9-4.24-14a.71.71,0,0,0-1.42,0Z" transform="translate(-221.98 -299.38)"/><path d="M312.31,477.25a43.4,43.4,0,0,0,3.73,18,.71.71,0,0,0,1.29-.6,42.41,42.41,0,0,1-3.6-17.34.72.72,0,0,0-.69-.74A.71.71,0,0,0,312.31,477.25Z" transform="translate(-221.98 -299.38)"/><path d="M314,476c-.44.26-10.64,6.43-13.19,9.66-2.75,3.48-1.63,5.83-1.58,5.93a.71.71,0,0,0,1.27-.62c0-.07-.73-1.71,1.42-4.43,2.39-3,12.7-9.27,12.81-9.33a.71.71,0,0,0,.24-1A.69.69,0,0,0,314,476Z" transform="translate(-221.98 -299.38)"/><path d="M309.26,479.07a.71.71,0,0,0-.61.79c0,.32,1,7.95,2.37,11.65a.71.71,0,0,0,.91.43.7.7,0,0,0,.42-.91c-1.29-3.55-2.28-11.27-2.29-11.35A.71.71,0,0,0,309.26,479.07Z" transform="translate(-221.98 -299.38)"/><path d="M306.31,481.58a27,27,0,0,0,1.72,10,.7.7,0,0,0,.93.37.71.71,0,0,0,.38-.93,26,26,0,0,1-1.61-9.36.71.71,0,0,0-.69-.73A.7.7,0,0,0,306.31,481.58Z" transform="translate(-221.98 -299.38)"/><path d="M304.15,483.16c0,.22-.85,5.43.74,8.44a.71.71,0,1,0,1.26-.66c-1.37-2.59-.61-7.51-.6-7.56a.71.71,0,0,0-1.4-.22Z" transform="translate(-221.98 -299.38)"/><path d="M301.69,485.2A8.85,8.85,0,0,0,302,491a.71.71,0,0,0,1.32-.52,7.59,7.59,0,0,1-.33-4.84.71.71,0,0,0-1.33-.47Z" transform="translate(-221.98 -299.38)"/><path d="M280.29,421.41a.56.56,0,0,0,.54.59s4,.2,6.29,2.5a.55.55,0,0,0,.8,0,.57.57,0,0,0,0-.8c-2.63-2.62-6.87-2.82-7-2.83A.56.56,0,0,0,280.29,421.41Z" transform="translate(-221.98 -299.38)"/><path d="M279,423.29a.58.58,0,0,0,.4.7c.05,0,4.84,1.31,6.86,4.11a.56.56,0,0,0,.79.13.57.57,0,0,0,.13-.79c-2.26-3.13-7.27-4.49-7.49-4.55A.57.57,0,0,0,279,423.29Z" transform="translate(-221.98 -299.38)"/><path d="M277.66,425.06a.56.56,0,0,0,.32.74,13,13,0,0,1,4.92,3.64.57.57,0,1,0,.91-.67,14.06,14.06,0,0,0-5.41-4A.58.58,0,0,0,277.66,425.06Z" transform="translate(-221.98 -299.38)"/><path d="M276,428.13a.57.57,0,0,0,.41.69,10.82,10.82,0,0,1,4.87,2.82.56.56,0,0,0,.8.06.57.57,0,0,0,.07-.8,11.8,11.8,0,0,0-5.46-3.18A.57.57,0,0,0,276,428.13Z" transform="translate(-221.98 -299.38)"/><path d="M274.63,430.66a.57.57,0,0,0,.45.67,8.58,8.58,0,0,1,4.5,3,.56.56,0,0,0,.8.09.57.57,0,0,0,.08-.8,9.65,9.65,0,0,0-5.17-3.37A.58.58,0,0,0,274.63,430.66Z" transform="translate(-221.98 -299.38)"/><path d="M273,434.16a.58.58,0,0,0,.45.67s3.14.65,4.49,2.45a.56.56,0,0,0,.79.11.57.57,0,0,0,.12-.79c-1.61-2.15-5-2.86-5.18-2.89A.58.58,0,0,0,273,434.16Z" transform="translate(-221.98 -299.38)"/><path d="M271.16,435.88a.57.57,0,0,0,.3.74,13.07,13.07,0,0,1,5.4,5.59.56.56,0,0,0,.77.22.57.57,0,0,0,.22-.77c-2.57-4.62-5.81-6-5.94-6.08A.58.58,0,0,0,271.16,435.88Z" transform="translate(-221.98 -299.38)"/><path d="M269.85,440.85a.56.56,0,0,0,.25.76,33.08,33.08,0,0,1,5.87,3.75.57.57,0,0,0,.77-.84,33.29,33.29,0,0,0-6.13-3.92A.56.56,0,0,0,269.85,440.85Z" transform="translate(-221.98 -299.38)"/><path d="M270.18,444.35a.56.56,0,0,0,.25.76c1,.49,3.68,2.06,4.43,3.43a.55.55,0,0,0,.76.23.57.57,0,0,0,.23-.77c-1.07-2-4.75-3.83-4.91-3.9A.56.56,0,0,0,270.18,444.35Z" transform="translate(-221.98 -299.38)"/><path d="M269.5,447.2a.57.57,0,0,0,.28.75s3.9,1.8,5.13,3.34a.56.56,0,0,0,.8.09.57.57,0,0,0,.08-.8c-1.4-1.75-5.37-3.58-5.53-3.66A.58.58,0,0,0,269.5,447.2Z" transform="translate(-221.98 -299.38)"/><path d="M268.25,449.41a.57.57,0,0,0,.08.8,35.79,35.79,0,0,1,3.25,2.91.56.56,0,0,0,.88-.7,37.74,37.74,0,0,0-3.42-3.09A.56.56,0,0,0,268.25,449.41Z" transform="translate(-221.98 -299.38)"/><path d="M270.47,417.45a.57.57,0,0,0,.39.7l3.5,1a.57.57,0,1,0,.31-1.09l-3.5-1A.57.57,0,0,0,270.47,417.45Z" transform="translate(-221.98 -299.38)"/><path d="M270.85,418.85a.56.56,0,0,0,.25.76l2.33,1.17a.57.57,0,0,0,.51-1l-2.33-1.16A.56.56,0,0,0,270.85,418.85Z" transform="translate(-221.98 -299.38)"/><path d="M270.85,420.68a.56.56,0,0,0,.25.76l2,1a.57.57,0,1,0,.51-1l-2-1A.56.56,0,0,0,270.85,420.68Z" transform="translate(-221.98 -299.38)"/><path d="M270.64,422.79a.57.57,0,0,0,.4.69l1.83.5a.57.57,0,1,0,.3-1.09l-1.83-.5A.57.57,0,0,0,270.64,422.79Z" transform="translate(-221.98 -299.38)"/><path d="M271.31,424.29a.55.55,0,0,0,.39.69l1.84.5a.55.55,0,0,0,.69-.39.56.56,0,0,0-.39-.7l-1.84-.5A.57.57,0,0,0,271.31,424.29Z" transform="translate(-221.98 -299.38)"/><path d="M296.52,427.5a.56.56,0,0,0,.23.77c1.56.85,4.09,2.39,4.64,3.16a.57.57,0,1,0,.92-.66c-.88-1.23-4.6-3.27-5-3.5A.57.57,0,0,0,296.52,427.5Z" transform="translate(-221.98 -299.38)"/><path d="M293.33,429.54a.57.57,0,0,0,.3.75,39.77,39.77,0,0,1,6.22,3.44.57.57,0,0,0,.67-.92,39.61,39.61,0,0,0-6.44-3.56A.58.58,0,0,0,293.33,429.54Z" transform="translate(-221.98 -299.38)"/><path d="M292.34,431.87a.56.56,0,0,0,.28.75c.05,0,5.07,2.31,6.8,4.35a.57.57,0,0,0,.87-.73c-1.9-2.24-7-4.56-7.2-4.65A.56.56,0,0,0,292.34,431.87Z" transform="translate(-221.98 -299.38)"/><path d="M289.84,433.87a.56.56,0,0,0,.28.75c.05,0,5.71,2.64,7.76,5.79a.57.57,0,0,0,.78.17.58.58,0,0,0,.17-.79c-2.23-3.43-8-6.09-8.24-6.2A.56.56,0,0,0,289.84,433.87Z" transform="translate(-221.98 -299.38)"/><path d="M288.68,437.68a.56.56,0,0,0,.25.76c.07,0,6.75,3.48,9,6.19a.57.57,0,0,0,.8.08.56.56,0,0,0,.08-.8c-2.38-2.89-9.06-6.33-9.35-6.48A.57.57,0,0,0,288.68,437.68Z" transform="translate(-221.98 -299.38)"/><path d="M288,442.33a.56.56,0,0,0,.23.77c.06,0,5.74,3.13,7.15,5a.56.56,0,0,0,.79.11.57.57,0,0,0,.12-.79c-1.56-2.07-7.28-5.19-7.52-5.32A.57.57,0,0,0,288,442.33Z" transform="translate(-221.98 -299.38)"/><path d="M286.67,445.7a.57.57,0,0,0,.28.75,23.18,23.18,0,0,1,6.15,4.21.57.57,0,0,0,.83-.78,24,24,0,0,0-6.51-4.46A.57.57,0,0,0,286.67,445.7Z" transform="translate(-221.98 -299.38)"/><path d="M286.48,449.44a.57.57,0,0,0,.38.71s2.64.8,3.68,2.43a.57.57,0,0,0,.78.17.56.56,0,0,0,.18-.78c-1.27-2-4.2-2.87-4.32-2.91A.56.56,0,0,0,286.48,449.44Z" transform="translate(-221.98 -299.38)"/><path d="M284.8,451.79a.59.59,0,0,0,.41.7c1.42.37,3.93,1.2,4.58,1.85a.57.57,0,0,0,.8-.8c-1.08-1.08-4.69-2-5.09-2.15A.57.57,0,0,0,284.8,451.79Z" transform="translate(-221.98 -299.38)"/><path d="M284.3,454.49a.56.56,0,0,0,.44.67,22.71,22.71,0,0,1,4.67,1.44.57.57,0,0,0,.77-.22.56.56,0,0,0-.22-.77,22.93,22.93,0,0,0-5-1.56A.57.57,0,0,0,284.3,454.49Z" transform="translate(-221.98 -299.38)"/><path d="M305.5,433.88a.56.56,0,0,0,.3.74c.05,0,5.72,2.47,7.28,4.35a.57.57,0,0,0,.88-.73c-1.74-2.08-7.47-4.55-7.72-4.66A.57.57,0,0,0,305.5,433.88Z" transform="translate(-221.98 -299.38)"/><path d="M304.5,437.55a.56.56,0,0,0,.3.74c.05,0,4.74,2,6.64,4a.56.56,0,0,0,.8,0,.57.57,0,0,0,0-.8c-2.06-2.23-6.83-4.22-7-4.3A.56.56,0,0,0,304.5,437.55Z" transform="translate(-221.98 -299.38)"/><path d="M304.51,441.36a.57.57,0,0,0,.27.76,55.48,55.48,0,0,1,6.9,3.77.56.56,0,0,0,.79-.11.57.57,0,0,0-.11-.8,57,57,0,0,0-7.1-3.89A.57.57,0,0,0,304.51,441.36Z" transform="translate(-221.98 -299.38)"/><path d="M304.21,445.47a.57.57,0,0,0,.17.78,42.57,42.57,0,0,1,4.74,3.42.57.57,0,0,0,.8-.8,43.82,43.82,0,0,0-4.93-3.58A.56.56,0,0,0,304.21,445.47Z" transform="translate(-221.98 -299.38)"/><path d="M303.31,449.26a.59.59,0,0,0,.36.72c1.06.35,4,1.53,4.7,2.75a.57.57,0,0,0,1-.58c-1.08-1.8-4.88-3.11-5.31-3.25A.57.57,0,0,0,303.31,449.26Z" transform="translate(-221.98 -299.38)"/><path d="M302.84,451.87a.57.57,0,0,0,.28.75,41.84,41.84,0,0,1,5.37,2.75.57.57,0,0,0,.73-.87,41,41,0,0,0-5.64-2.91A.56.56,0,0,0,302.84,451.87Z" transform="translate(-221.98 -299.38)"/><path d="M302.15,454.25a.57.57,0,0,0,.35.72c2,.68,4.94,1.86,5.45,2.37a.57.57,0,1,0,.8-.8c-.88-.88-5.05-2.35-5.88-2.64A.57.57,0,0,0,302.15,454.25Z" transform="translate(-221.98 -299.38)"/><path d="M301.53,456.15a.56.56,0,0,0,.2.77,33.92,33.92,0,0,1,4.85,3.38.57.57,0,0,0,.88-.73c-.87-1-4.71-3.36-5.15-3.62A.57.57,0,0,0,301.53,456.15Z" transform="translate(-221.98 -299.38)"/><path d="M319.72,444.94a.56.56,0,0,0,.14.79l5.67,4a.57.57,0,0,0,.79-.13.56.56,0,0,0-.14-.79l-5.67-4A.57.57,0,0,0,319.72,444.94Z" transform="translate(-221.98 -299.38)"/><path d="M320,447.19a.58.58,0,0,0,0,.81c.15.15,3.7,3.86,5,5a.57.57,0,0,0,.75-.85c-1.3-1.14-4.93-4.93-5-5A.58.58,0,0,0,320,447.19Z" transform="translate(-221.98 -299.38)"/><path d="M318.21,450.8a.56.56,0,0,0,.17.78c1.89,1.2,5.05,3.38,5.48,4.14a.57.57,0,0,0,.77.21.55.55,0,0,0,.21-.77c-.7-1.23-5-4-5.85-4.54A.57.57,0,0,0,318.21,450.8Z" transform="translate(-221.98 -299.38)"/><path d="M317.93,454.4a.56.56,0,0,0,.05.8c.11.09,2.71,2.36,4.38,3.54a.58.58,0,0,0,.79-.14.56.56,0,0,0-.14-.79c-1.62-1.14-4.26-3.44-4.28-3.47A.57.57,0,0,0,317.93,454.4Z" transform="translate(-221.98 -299.38)"/><path d="M316.4,457.26a.57.57,0,0,0,.11.8,38.05,38.05,0,0,1,3.9,3.23.56.56,0,0,0,.8.09.57.57,0,0,0,.08-.8,39.08,39.08,0,0,0-4.1-3.43A.56.56,0,0,0,316.4,457.26Z" transform="translate(-221.98 -299.38)"/><path d="M315.29,459.69a.58.58,0,0,0,0,.81c1,1,3.56,3.75,4,4.28a.57.57,0,0,0,.8.11.56.56,0,0,0,.11-.79c-.51-.68-3.68-4-4-4.39A.59.59,0,0,0,315.29,459.69Z" transform="translate(-221.98 -299.38)"/><path d="M336.16,449.41a.56.56,0,0,1-.78.17l5.51,3.51a.55.55,0,0,0,.77-.18.58.58,0,0,0-.18-.79L336,448.63A.55.55,0,0,1,336.16,449.41Z" transform="translate(-221.98 -299.38)"/><path d="M333.75,451.24a.57.57,0,0,0,.07.8c.91.77,3.4,2.94,3.92,3.58a.57.57,0,0,0,.89-.7,53.82,53.82,0,0,0-4.08-3.75A.57.57,0,0,0,333.75,451.24Z" transform="translate(-221.98 -299.38)"/><path d="M332.3,454a.58.58,0,0,1-.8.09l6.51,5.17a.55.55,0,0,0,.79-.1.57.57,0,0,0-.11-.8l-6.48-5.16A.58.58,0,0,1,332.3,454Z" transform="translate(-221.98 -299.38)"/><path d="M331,455.2a.56.56,0,0,0,0,.8c2,2.11,5.41,5.66,5.75,6.23a.57.57,0,0,0,.78.19.56.56,0,0,0,.19-.77c-.52-.87-5.36-5.87-5.91-6.44A.56.56,0,0,0,331,455.2Z" transform="translate(-221.98 -299.38)"/><path d="M330.74,460.42a.57.57,0,0,0,.09.79l5,4a.56.56,0,0,0,.8-.09.57.57,0,0,0-.09-.79l-5-4A.56.56,0,0,0,330.74,460.42Z" transform="translate(-221.98 -299.38)"/><path d="M330.09,462.57a.57.57,0,0,0,.06.8l5,4.33a.57.57,0,1,0,.74-.86l-5-4.33A.56.56,0,0,0,330.09,462.57Z" transform="translate(-221.98 -299.38)"/><path d="M329.77,465.56a.57.57,0,0,0,0,.8l3.67,3.33a.57.57,0,0,0,.8,0,.56.56,0,0,0,0-.8l-3.66-3.33A.56.56,0,0,0,329.77,465.56Z" transform="translate(-221.98 -299.38)"/><path d="M263.12,461.06c-14.63,1.33-16.92,7.29-18.15,10.49l-.11.3c-1.15,2.94-6.26,13.84-6.32,13.95L238,487l11.42-1.38.12-.47c3.16-12.62,9-13.88,10.68-14a57,57,0,0,1,7,.45c3,.29,6.45.63,9.91.71a29.8,29.8,0,0,0,13.18-3.08.71.71,0,1,0-.66-1.25,29.06,29.06,0,0,1-12.49,2.92c-3.41-.09-6.8-.42-9.8-.71a57.77,57.77,0,0,0-7.25-.46c-1.93.1-8.42,1.46-11.85,14.56l-7.93,1c1.36-2.92,4.86-10.45,5.81-12.89l.12-.3c1.11-2.91,3.19-8.33,16.95-9.58a.71.71,0,0,0,.64-.71v-.06A.72.72,0,0,0,263.12,461.06Z" transform="translate(-221.98 -299.38)"/><path d="M246.59,455.24a4.78,4.78,0,0,0-4,2.74,5,5,0,0,0,1,4.89l3.65,4.82a.72.72,0,0,0,1,.14.7.7,0,0,0,.15-1L244.75,462a3.52,3.52,0,0,1-.84-3.49,3.44,3.44,0,0,1,2.88-1.87l8.84-1.34a.71.71,0,1,1-.22-1.4Z" transform="translate(-221.98 -299.38)"/><path d="M262.41,469.9a.72.72,0,0,0-.6.7.37.37,0,0,0,0,.11c.44,2.77,3.44,8.84,4.42,10.77l-5.95,3.25c-1.45-5.2-5.52-10.8-5.7-11.05a.71.71,0,0,0-1-.15.71.71,0,0,0-.15,1c0,.07,4.59,6.28,5.71,11.4l.2.92,8.78-4.78-.33-.62c0-.08-4.11-7.93-4.59-10.95A.72.72,0,0,0,262.41,469.9Z" transform="translate(-221.98 -299.38)"/><path d="M241.48,479.58a.7.7,0,0,0,.68.73l8.33.34a.71.71,0,1,0,.06-1.42l-8.34-.33A.69.69,0,0,0,241.48,479.58Z" transform="translate(-221.98 -299.38)"/><path d="M245.54,479.82l-2.34,5.33a.72.72,0,0,0,.37.94.71.71,0,0,0,.93-.37l2.34-5.33a.72.72,0,0,0-.37-.94A.71.71,0,0,0,245.54,479.82Z" transform="translate(-221.98 -299.38)"/><path d="M264.35,476l-6.83,3.67a.7.7,0,1,0,.67,1.24l6.83-3.66a.71.71,0,0,0-.67-1.25Z" transform="translate(-221.98 -299.38)"/><path d="M261.88,477.41a.71.71,0,0,0-.56.83l1,5.17a.72.72,0,0,0,.83.56.7.7,0,0,0,.56-.83l-1-5.17A.69.69,0,0,0,261.88,477.41Z" transform="translate(-221.98 -299.38)"/><path d="M255.82,413.8s-.94,4.05-9.76,3.6a.71.71,0,1,0-.08,1.41c10.18.53,11.2-4.53,11.24-4.75a.71.71,0,0,0-1.4-.26Z" transform="translate(-221.98 -299.38)"/><path d="M261.29,413.84a11.52,11.52,0,0,1-10.51,4.06.71.71,0,1,0-.19,1.41,13,13,0,0,0,11.83-4.61.71.71,0,0,0-.14-1A.7.7,0,0,0,261.29,413.84Z" transform="translate(-221.98 -299.38)"/><path d="M325.85,431.6s.09-3.84-8-5.66c-6.66-1.5-10.66,1-10.66,1s1.83,4.83,9.83,6.5S325.85,431.6,325.85,431.6Z" transform="translate(-221.98 -299.38)"/><path d="M260,423.6s2.5,2.17.17,4.17c0,0-4,0-5.17-3.33A5,5,0,0,1,260,423.6Z" transform="translate(-221.98 -299.38)"/><path d="M234.69,416.6s2.16,0,2.83.84-.33,1.5-2,1.5-2.17-.17-2-1.34A1,1,0,0,1,234.69,416.6Z" transform="translate(-221.98 -299.38)"/><path d="M315.69,414.44s.83-6.17-4.17-9-10.33-2-11.17-2.67a54.89,54.89,0,0,1,1.5,5.5C302.35,410.77,307.52,416.6,315.69,414.44Z" transform="translate(-221.98 -299.38)"/><path d="M338.19,419.77s-5.5-1.17-5-9S338,400.44,338,400.44a13.14,13.14,0,0,1,5.83,10.83C343.85,418.6,339.52,419.77,338.19,419.77Z" transform="translate(-221.98 -299.38)"/><path d="M349.35,408.94a58.26,58.26,0,0,0-3.16,6.16c-.76,1.89-.34,9.67,4.5,10s5.83-6.33,3.83-9.5S349.19,409.77,349.35,408.94Z" transform="translate(-221.98 -299.38)"/><path d="M330.69,395.77s-4.84-4.33-10.5-3.17-9.34,4.67-11.17,5.34c0,0,5.17,1.33,7.5,2S330.52,400.6,330.69,395.77Z" transform="translate(-221.98 -299.38)"/><path d="M311.69,386.27s-3.84-4.67-10-1.5-8.84,7.33-9.67,7.83h7.83C303,392.6,311.52,391.27,311.69,386.27Z" transform="translate(-221.98 -299.38)"/><path d="M296,379.77s-1.52-4.57-8.67-2.33c-5.33,1.66-6.83,6.33-9.5,8.5,0,0,3.67.16,6.5.5S295.19,388.1,296,379.77Z" transform="translate(-221.98 -299.38)"/><path d="M273.35,373.1s-3.33-4.5-10.83-1.5c-6.67,2.67-8.83,7.17-8.83,7.17s4.66.67,7.16.83S272.52,379.27,273.35,373.1Z" transform="translate(-221.98 -299.38)"/><path d="M258.85,365.44s-2.5-4.17-9-3.67S241,366.1,237,366.6a22.57,22.57,0,0,1,5.83,2.34C245.19,370.44,255.85,373.94,258.85,365.44Z" transform="translate(-221.98 -299.38)"/><path d="M273.19,357.6a10.12,10.12,0,0,1-10.17-4,60.69,60.69,0,0,1-6.17-11s5.5,1.34,7.84,1.84S276,350.77,273.19,357.6Z" transform="translate(-221.98 -299.38)"/><path d="M286.52,341.94a25.22,25.22,0,0,1,.5,5c-.17,1.5,2.67,14.66,9.67,12.5,0,0,6.65-3.15,1.5-8.84C293.35,345.27,287.19,342.77,286.52,341.94Z" transform="translate(-221.98 -299.38)"/><path d="M304.19,345.44a57.88,57.88,0,0,1,1.66,7.33c.5,3.5,2.36,14.61,8.67,12.33,6-2.16-1-13.33-4.5-15.16A22.51,22.51,0,0,1,304.19,345.44Z" transform="translate(-221.98 -299.38)"/><path d="M323.85,357.77a40.89,40.89,0,0,1,1,5.67c0,1.5,1.34,16.33,10.17,13.5,0,0,5-3.67-.5-10.17S324.85,359.1,323.85,357.77Z" transform="translate(-221.98 -299.38)"/><path d="M363.52,351.44a16.61,16.61,0,0,0-6.83,2.66c-3.5,2.34-7.84,9.34-3.17,12.84s10.5-4.84,10.33-9.34S363.52,351.44,363.52,351.44Z" transform="translate(-221.98 -299.38)"/><path d="M367.19,368.27s-3.84,3.17-6.34,5-10.16,11-4.16,14,10.16-4.67,10.5-8.83A94.67,94.67,0,0,0,367.19,368.27Z" transform="translate(-221.98 -299.38)"/><path d="M340.52,447.1s-2.83-5.33-8.17-6.16a44.13,44.13,0,0,0-10.16-.34s3.66,4.84,7.66,7.17S340,449.1,340.52,447.1Z" transform="translate(-221.98 -299.38)"/><path d="M346.35,491.77s-4.83.17-5.83-6.5a25.36,25.36,0,0,1,.67-11.33s4,1.66,7.5,7.33S349,490.94,346.35,491.77Z" transform="translate(-221.98 -299.38)"/><path d="M334.85,502.94s.5-6.5-5.33-8.17A42.3,42.3,0,0,0,319,493.1s2.5,5.84,5.33,9.17S332.52,505.27,334.85,502.94Z" transform="translate(-221.98 -299.38)"/><path d="M355,493.77s-3-5.33,1.17-9a32.23,32.23,0,0,1,9.33-5.5s.17,6.17-1.5,10.67S357.52,495.6,355,493.77Z" transform="translate(-221.98 -299.38)"/><path d="M345.85,520.94a6.88,6.88,0,0,0-7.33-4.84c-6,.34-11.5,4.34-11.5,4.34a16.77,16.77,0,0,0,10.33,5.16C343.85,526.27,345.35,522.6,345.85,520.94Z" transform="translate(-221.98 -299.38)"/><path d="M302.19,508.27s2.83-5.33-1.17-8.67-9.5-3.33-10.5-4.16,1.17,4,1.5,6S296.19,511.27,302.19,508.27Z" transform="translate(-221.98 -299.38)"/><path d="M284.52,505.94s3-5-1.17-8.34-9.5-5.5-10-6,.67,4.67,1.17,7.34S278.52,507.27,284.52,505.94Z" transform="translate(-221.98 -299.38)"/><path d="M303.69,522.27s-5-.33-8.17,1.83a10.78,10.78,0,0,0-4,6l9.33.67a6.27,6.27,0,0,0,3.67-4C305.35,523.77,303.69,522.27,303.69,522.27Z" transform="translate(-221.98 -299.38)"/><path d="M285.52,519.1a10.35,10.35,0,0,0-8.17,1.67c-4,2.83-5.16,8.83-5.16,8.83l1.66.34a35.32,35.32,0,0,0,9.5-4C287.85,523.1,286.35,519.94,285.52,519.1Z" transform="translate(-221.98 -299.38)"/><path d="M256.84,366c55.6.74,110.35,45.72,110.89,46.17l.91-1.09c-.55-.46-55.68-45.75-111.78-46.5Z" transform="translate(-221.98 -299.38)"/><path d="M333.45,376.8c.05.11,4.35,10.05,6.89,15.49l-11.16,2.79.34,1.38,12.84-3.21-.37-.78c-2.46-5.18-7.19-16.12-7.24-16.23Z" transform="translate(-221.98 -299.38)"/><path d="M313.64,364.52c0,1,3.7,12.53,5.1,16.9L310,385.89l.65,1.26,9.78-5-.18-.58c-2-6.11-5.14-16.15-5.22-17.05Z" transform="translate(-221.98 -299.38)"/><rect x="299.64" y="356.98" width="1.42" height="18.58" transform="translate(-344.27 -146.99) rotate(-23.81)"/><path d="M293.13,379.74l.95,1.06s4.71-4.2,8.56-5.88l-.57-1.3C298,375.4,293.33,379.57,293.13,379.74Z" transform="translate(-221.98 -299.38)"/><path d="M271.6,356.77c.08.08,7.35,7.35,10.86,11.28-4.6,2.29-9.52,4.64-10.18,4.77l.07,1.41c.76,0,6.71-2.9,11.57-5.33l.82-.4-.6-.69c-3.23-3.73-11.45-12-11.54-12Z" transform="translate(-221.98 -299.38)"/><path d="M252.21,337.72c11,2.2,36.35,13.58,36.6,13.7l.58-1.29c-1-.48-25.7-11.56-36.9-13.8Z" transform="translate(-221.98 -299.38)"/><polygon points="39.02 33.27 45.29 42.79 46.45 41.98 40.22 32.51 39.02 33.27"/><path d="M277.19,336.26c.41,1.13,4,11.07,4.53,12.08l1.27-.64c-.36-.7-2.87-7.52-4.47-11.92Z" transform="translate(-221.98 -299.38)"/><path d="M337.89,323.29c0,.44,1.17,45,15.31,78l1.3-.56c-14-32.74-15.18-77-15.19-77.49Z" transform="translate(-221.98 -299.38)"/><path d="M351.94,397.77l1.32.5c.42-1.08,4-10.57,4.28-11.58l-1.38-.34C356,387.05,353.54,393.56,351.94,397.77Z" transform="translate(-221.98 -299.38)"/><path d="M346.45,380.49l1.3.56c.74-1.72,6.69-14.6,6.75-14.73l-1.29-.6C353,366.25,347.2,378.75,346.45,380.49Z" transform="translate(-221.98 -299.38)"/><path d="M342.14,360.88a21.24,21.24,0,0,1-6.24-5.06l-1.1.9c.14.17,3.41,4.16,7.29,5.71l.5.2,8.82-11.43-1.12-.86S342.79,360.05,342.14,360.88Z" transform="translate(-221.98 -299.38)"/><path d="M340.68,346.76,335.52,343l-.84,1.14,6.39,4.72.4-.69c.76-1.33,5-6.4,7.17-8.89l-1.07-.92C347.33,338.58,342.36,344.35,340.68,346.76Z" transform="translate(-221.98 -299.38)"/><path d="M338.73,329.92l-5.64-5.41-1,1,6.86,6.59,5-7.46-1.18-.78Z" transform="translate(-221.98 -299.38)"/><path d="M314.17,414.08c.26.2,26.49,20.85,52.87,55.62l1.13-.86C341.67,433.92,315.3,413.17,315,413Z" transform="translate(-221.98 -299.38)"/><path d="M350.14,424.29s.45,22.25.49,23.87l-11.15-2.09-.26,1.4,12.86,2.41-.52-25.62Z" transform="translate(-221.98 -299.38)"/><path d="M337.39,418.79s.42,13.76.47,15.51l-13.55-4.21-.42,1.36,15.45,4.79-.53-17.49Z" transform="translate(-221.98 -299.38)"/><path d="M333.73,502.87c.17.11,17.6,11.12,31.39,24.17l1-1c-13.89-13.15-31.43-24.23-31.61-24.34Z" transform="translate(-221.98 -299.38)"/><rect x="344.31" y="518.56" width="12.09" height="1.42" transform="translate(-283.69 -251.91) rotate(-7.13)"/><path d="M345.39,490.27c0,1,3.76,19.46,4.52,23.14l1.39-.28c-1.78-8.71-4.45-22-4.49-22.87Z" transform="translate(-221.98 -299.38)"/><rect x="346.13" y="496.69" width="11.69" height="1.42" transform="translate(-475.72 131.64) rotate(-48.46)"/><path d="M248.5,509c40.27,5.93,80.08,12.93,80.48,13l.25-1.4c-.4-.07-40.23-7.07-80.52-13Z" transform="translate(-221.98 -299.38)"/><rect x="320.64" y="510.54" width="1.42" height="11.21" transform="matrix(0.78, -0.62, 0.62, 0.78, -474, 14.47)"/><path d="M302.75,523.16l.71,1.22c2.28-1.31,8.42-4.81,9.41-5.2l-.53-1.32C311.06,518.37,303.09,523,302.75,523.16Z" transform="translate(-221.98 -299.38)"/><path d="M282.83,505l8.83,9.76a75.47,75.47,0,0,0-7.73,5.19l.85,1.14c3.37-2.53,7.36-5.23,8.19-5.37l1.28-.21L283.88,504Z" transform="translate(-221.98 -299.38)"/><rect x="269.77" y="500.93" width="1.42" height="13.44" transform="translate(-505.94 55.09) rotate(-46.51)"/><rect x="271.7" y="514.31" width="6.8" height="1.42" transform="translate(-472.31 -39.02) rotate(-36.03)"/><path d="M254.1,504.52l5.62,5.62-6.49,4,.75,1.2,8-5-6.89-6.88Z" transform="translate(-221.98 -299.38)"/><rect x="303.89" y="506.12" width="1.42" height="12.81" transform="matrix(0.78, -0.62, 0.62, 0.78, -475.41, 3.21)"/><path d="M282.51,310.9c-8,.15-9.42-4.15-9.48-4.34l-1.36.41c.07.23,1.76,5.52,10.86,5.34s11.53-5.35,11.63-5.57l-1.28-.61C292.79,306.32,290.58,310.74,282.51,310.9Z" transform="translate(-221.98 -299.38)"/><path d="M272,315.59c-4.75,1.34-6.67-1-6.74-1.09l-.63-.79-.54.86a8.72,8.72,0,0,1-4.89,3.51,13.21,13.21,0,0,1-6.29-.15l-.51-.16-.3.45a8.88,8.88,0,0,1-5.06,3.36,9,9,0,0,1-6-.75l-.62-.37-.35.63c-.14.25-3.5,6.11-11,3.51l-.47,1.34c7.22,2.5,11.18-2,12.31-3.6a10.31,10.31,0,0,0,6.41.62,10.14,10.14,0,0,0,5.63-3.55,14.51,14.51,0,0,0,6.55,0,9.78,9.78,0,0,0,5.26-3.46c1.07.85,3.47,2.11,7.6.95,5.69-1.6,6.47-5.39,6.5-5.55l-1.39-.27C277.46,311.26,276.79,314.24,272,315.59Z" transform="translate(-221.98 -299.38)"/><path d="M250.07,312.24c-5.52.92-8.41-2.15-8.53-2.28l-1.32-1.44.09,2c0,.25.23,6.16-4.68,7.79-4.76,1.59-5.92-.69-6-.79l-1.29.59c.07.15,1.67,3.56,7.71,1.55,4.28-1.43,5.31-5.51,5.56-7.73a11.44,11.44,0,0,0,8.66,1.76c6.5-1.09,6.76-6.62,6.76-6.68l-1.42,0C255.64,307.09,255.4,311.35,250.07,312.24Z" transform="translate(-221.98 -299.38)"/><path d="M261,311.23a8.49,8.49,0,0,1-5.82-1.34l-.91,1.09c.1.08,2.44,2,6.85,1.66,4.6-.36,6.06-5.46,6.12-5.68l-1.36-.38C265.82,306.63,264.58,310.94,261,311.23Z" transform="translate(-221.98 -299.38)"/><path d="M269.19,309.4c-2.47,0-2.82-1-2.82-1l-1.38.34c.05.21.57,2.05,4.2,2.05s4.59-2,4.63-2.06l-1.26-.64C272.53,308.16,271.82,309.4,269.19,309.4Z" transform="translate(-221.98 -299.38)"/><path d="M236.07,311.4c-2.91-.22-3.52-1.07-3.51-1.38l-1.4-.21a1.76,1.76,0,0,0,.41,1.38c.7.91,2.18,1.46,4.4,1.62,1.86.14,5.15-.46,6.23-6l-1.39-.27C240.35,308.89,239.16,311.63,236.07,311.4Z" transform="translate(-221.98 -299.38)"/><path class="cls-1" d="M336.85,355.27a7.92,7.92,0,0,0-6-6.67,42.72,42.72,0,0,0-10.33-1.16,27.2,27.2,0,0,0,7.17,8.16C332,358.6,335.52,358.1,336.85,355.27Z" transform="translate(-221.98 -299.38)"/><path class="cls-1" d="M336.52,342.27s.33-3.67-4.83-5.83-8.67-1-8.67-1,.5,4.5,5.67,7.66S335.85,343.27,336.52,342.27Z" transform="translate(-221.98 -299.38)"/><path class="cls-1" d="M334.19,325.27s-.34-6-5-6.5-8,.17-9-.33,2.83,3.83,4.16,6S331.52,329.1,334.19,325.27Z" transform="translate(-221.98 -299.38)"/><path class="cls-1" d="M340.69,324.6s-5.5.34-5.5-5.83,3.16-9.83,3.16-10.33,3.67,3.66,5.5,8.33S343.69,324.27,340.69,324.6Z" transform="translate(-221.98 -299.38)"/><path class="cls-1" d="M343.69,326.1s-2.5-4.16,2.66-7.66a25.88,25.88,0,0,1,9.5-4.17s-.5,5.33-2.5,8.83S346.35,329.1,343.69,326.1Z" transform="translate(-221.98 -299.38)"/><path class="cls-1" d="M348.69,341.94a5.69,5.69,0,0,1,1-7.84c4.16-3.66,10.5-5.5,10.5-5.5a17.84,17.84,0,0,1-2.5,9.5C354.85,342.77,352.69,344.1,348.69,341.94Z" transform="translate(-221.98 -299.38)"/><path class="cls-1" d="M350.52,352.27s-2-3.67,1.83-7.5a16.85,16.85,0,0,1,8.67-4.5,13.83,13.83,0,0,1-2.17,8.83C356,353.44,351.52,353.44,350.52,352.27Z" transform="translate(-221.98 -299.38)"/><path class="cls-1" d="M278.52,336.94s-5.5,1-6.67-4.17.84-9.67.84-10.5c0,0,4.66,3.33,6.33,5.67S282.69,335.77,278.52,336.94Z" transform="translate(-221.98 -299.38)"/><path class="cls-1" d="M263,333.44s1.83-3.67-2.33-7a21.74,21.74,0,0,0-8.67-4.17,19.93,19.93,0,0,0,2,8C256,334.27,259.69,335.1,263,333.44Z" transform="translate(-221.98 -299.38)"/><path class="cls-1" d="M254.69,336.77a5.62,5.62,0,0,0-6-4.83,15.47,15.47,0,0,0-9.5,3.66s3.33,4,8,5S254.69,338.6,254.69,336.77Z" transform="translate(-221.98 -299.38)"/><path class="cls-1" d="M266.69,504.1s3.33-3.33-.5-7.66a17.29,17.29,0,0,0-8-5.34,26.89,26.89,0,0,0,.83,7.5C260,501.94,262,504.77,266.69,504.1Z" transform="translate(-221.98 -299.38)"/><path class="cls-1" d="M256.35,504.44s2.34-2.5-1.16-6.84a11.75,11.75,0,0,0-8-4.5,22.36,22.36,0,0,0,1.66,8.34C250.69,506.1,254.52,505.6,256.35,504.44Z" transform="translate(-221.98 -299.38)"/><path class="cls-1" d="M250,508.77s.17-5.33-7.33-5.67-10,3.34-10,3.34a14.3,14.3,0,0,0,9.66,5.5C248.69,512.6,250,510.1,250,508.77Z" transform="translate(-221.98 -299.38)"/><path class="cls-1" d="M255.52,513.6a5.76,5.76,0,0,0-7.33,1.17c-3.5,3.67-1.84,5.67-3.34,8.33a29.23,29.23,0,0,0,6.17-.83C252.85,521.6,258.85,518.94,255.52,513.6Z" transform="translate(-221.98 -299.38)"/><path class="cls-1" d="M318.85,512.44s2.84-4-1.16-8a17.88,17.88,0,0,0-8.34-4.84s.84,4.67,1.84,8.17S314.35,513.6,318.85,512.44Z" transform="translate(-221.98 -299.38)"/><path class="cls-1" d="M273.35,514.94s-3.66-3.17-7.83,1.33-3.67,8.33-3.67,8.33,5.17-1,8.84-1.83S276,517.94,273.35,514.94Z" transform="translate(-221.98 -299.38)"/></svg>