<svg id="_7_2" xmlns="http://www.w3.org/2000/svg" viewBox="0 0 153.07 238.11"><defs><style>.cls-1{fill:#ed1c24;}.cls-2{fill:#fff;}</style></defs><title>_7_2</title><rect class="cls-1" width="153.07" height="238.11"/><path class="cls-2" d="M220.39,300.92l.16,205.83s.17,9.17,10.5,9.5l119,.17s8-2.5,8.33-9.83l.17-205.17s-1.34-7.83-9.17-8.5l-119.84-.16S222.39,292.76,220.39,300.92Z" transform="translate(-212.85 -285.62)"/><path class="cls-1" d="M309.14,315.55l-39.38.12s.46,18.09-.87,31.09-7.17,44-12.67,57.16-14.5,40.17-27.17,55.33l44.17.84a236.33,236.33,0,0,0,23.83-53C305.72,377.92,310.56,346.09,309.14,315.55Z" transform="translate(-212.85 -285.62)"/><path d="M334.39,499.09s-6.17-.5-5.17-6.67a12.51,12.51,0,0,1,5.34-8.67,11.46,11.46,0,0,1,4.66,8.84C339.22,498.25,335.89,499.25,334.39,499.09Z" transform="translate(-212.85 -285.62)"/><path d="M318.56,485.59s3.36-4.81-3.34-9.84c-4-3-11.33-3.33-11.33-3.33s.67,7,5,10.83S316.72,486.59,318.56,485.59Z" transform="translate(-212.85 -285.62)"/><path d="M314.56,505.75s.48-4.46-7-6.66a20.27,20.27,0,0,0-10.84,0s1.5,7.5,8.84,9S314.22,507.25,314.56,505.75Z" transform="translate(-212.85 -285.62)"/><path d="M324.06,509.75a15.68,15.68,0,0,0-8.67,0,8,8,0,0,0-5.67,6.34l10.5.5S324.06,515.59,324.06,509.75Z" transform="translate(-212.85 -285.62)"/><path d="M283.05,475.09a8.11,8.11,0,0,0-9-1.5c-5.33,2.33-7.16,8-7.16,8s3.83,1.83,10.16.16S283.39,477.25,283.05,475.09Z" transform="translate(-212.85 -285.62)"/><path d="M338.72,463.42s2.84-4-1.16-9.17a15.71,15.71,0,0,0-9.67-5.83s-1.33,5.33.67,9.83S333.89,464.75,338.72,463.42Z" transform="translate(-212.85 -285.62)"/><path d="M309.56,453.59s-6.17,1-8.17-4.34a21.76,21.76,0,0,1-1.34-9.83s6.67,3.33,8.84,4.83S313.72,452.09,309.56,453.59Z" transform="translate(-212.85 -285.62)"/><path d="M291.72,451.25s3.19-2.27.83-8.16c-1.66-4.17-6.5-6.84-6.5-6.84l-3,5.67s-.33,4.33,2,7S290.39,451.92,291.72,451.25Z" transform="translate(-212.85 -285.62)"/><path d="M322.39,433.75a8.35,8.35,0,0,0-6.5-7.66,23.92,23.92,0,0,0-11.33,0,15.1,15.1,0,0,0,7.66,8.83C318.22,437.75,321.22,436.25,322.39,433.75Z" transform="translate(-212.85 -285.62)"/><path d="M340.22,428.42a7.11,7.11,0,0,1,2.17-8.5,22.57,22.57,0,0,1,9.5-4.5s.83,5.83-1.17,9.67S343.05,432.25,340.22,428.42Z" transform="translate(-212.85 -285.62)"/><path d="M335.22,404.25s-1.16-5.83,6.67-7.83,11.33.5,11.33.5-3,6.5-8.5,8.5S335.89,405.59,335.22,404.25Z" transform="translate(-212.85 -285.62)"/><path d="M301.22,392.42s2.5-.33,5.67,2.34,2.67,7,2.67,7a6,6,0,0,1-5.5,1.83,6.59,6.59,0,0,1-5-3.5Z" transform="translate(-212.85 -285.62)"/><path d="M330.89,386.59s-4.34-5.33.83-10.33,10.5-5.5,11.17-5.34.83,6.5-2,10.67S333.72,388.42,330.89,386.59Z" transform="translate(-212.85 -285.62)"/><path d="M314.06,380.92s1.66-4.5-.84-8.33-7.33-4.67-7.33-4.67l-1.33,8.34S305.22,381.09,314.06,380.92Z" transform="translate(-212.85 -285.62)"/><path d="M318.43,372.45C320,409,332.78,456.4,357.65,479.94l1-1c-24.59-23.27-37.2-70.26-38.78-106.52-1.73-39.37,7.61-64.72,7.7-65l-1.32-.5C326.13,307.18,316.69,332.77,318.43,372.45Z" transform="translate(-212.85 -285.62)"/><path d="M317,485c.13.17,13.14,17.07,17.71,31.61l1.35-.42c-4.65-14.79-17.81-31.88-17.94-32.05Z" transform="translate(-212.85 -285.62)"/><path d="M307.72,490.61c.12,0,11.17,2.68,16.72,5.13l.57-1.3c-5.66-2.5-16.5-5.1-17-5.21Z" transform="translate(-212.85 -285.62)"/><polygon points="119.5 224.88 120.91 225.06 122.41 212.21 121 212.06 119.5 224.88"/><path d="M312.67,506.43c.14,0,14.22,4.69,21.45,7.65l.54-1.32c-7.28-3-21.41-7.63-21.55-7.68Z" transform="translate(-212.85 -285.62)"/><path d="M273.76,459.62c.53.09,52.84,9.8,84.15,38l.95-1.05c-31.61-28.47-84.32-38.24-84.85-38.34Z" transform="translate(-212.85 -285.62)"/><path d="M290.27,450.59l8.16,14.9-16.89,9.65.7,1.23L300.34,466l-8.83-16.11Z" transform="translate(-212.85 -285.62)"/><path d="M308.93,453.09c4,7.39,10.49,19.5,10.77,20.51l1.38-.35c-.34-1.35-9.14-17.59-10.9-20.83Z" transform="translate(-212.85 -285.62)"/><path d="M337.16,462.69c.07.08,6.76,8.91,9.36,25.67l1.4-.21c-2.66-17.15-9.35-26-9.64-26.33Z" transform="translate(-212.85 -285.62)"/><rect x="326.18" y="429.54" width="1.42" height="15.92" transform="translate(-429.2 208.08) rotate(-59.14)"/><path d="M334.05,442.85l1.34.47a101,101,0,0,1,7.11-14.7l-1.22-.73A103.84,103.84,0,0,0,334.05,442.85Z" transform="translate(-212.85 -285.62)"/><rect x="323.45" y="407.55" width="14.21" height="1.42" transform="translate(-396.57 15.56) rotate(-39.24)"/><path d="M307.42,401.29c.48.42,11.78,10.41,17.6,13.91l.73-1.22c-5.71-3.43-17.28-13.65-17.39-13.75Z" transform="translate(-212.85 -285.62)"/><path d="M321.44,397.37l.9,1.1c3.7-3,10-12.42,10.3-12.82l-1.17-.79C331.4,385,325,394.47,321.44,397.37Z" transform="translate(-212.85 -285.62)"/><path d="M312.61,379.61a132.5,132.5,0,0,0,7.54,11.4l1.14-.84a128.19,128.19,0,0,1-7.45-11.27Z" transform="translate(-212.85 -285.62)"/><path d="M319.19,377.78l1.06,1a95.93,95.93,0,0,1,7.6-7.61l-.92-1.07A93.19,93.19,0,0,0,319.19,377.78Z" transform="translate(-212.85 -285.62)"/><path d="M314.12,361.29c1.88,3.06,3.92,6.51,4.09,7l1.37-.36c-.18-.7-3-5.39-4.25-7.37Z" transform="translate(-212.85 -285.62)"/><path d="M318.42,365.44l1.26.64c.36-.6,4-3.39,7.29-5.75l-.83-1.15C324,360.71,318.94,364.39,318.42,365.44Z" transform="translate(-212.85 -285.62)"/><path d="M314.3,346.32c0,.05,3.12,4.61,3.92,7l1.34-.45c-.85-2.56-3.95-7.14-4.09-7.34Z" transform="translate(-212.85 -285.62)"/><path d="M318.8,353l1.18.79c.68-1,4.75-4.14,7.32-6l-.82-1.15C325.8,347.17,319.84,351.47,318.8,353Z" transform="translate(-212.85 -285.62)"/><rect x="317.51" y="332.36" width="1.42" height="6.96" transform="translate(-355.89 14.27) rotate(-42.09)"/><path d="M319.79,336.86l.86,1.13c1.74-1.32,10.48-8,11.34-9.36l-1.2-.75C330.29,328.67,324.75,333.1,319.79,336.86Z" transform="translate(-212.85 -285.62)"/><rect x="319.01" y="312.38" width="1.42" height="12.08" transform="translate(-324.87 -98.39) rotate(-27.98)"/><polygon points="109.92 33.92 110.82 35.02 119.16 28.18 118.25 27.09 109.92 33.92"/><path d="M236.88,303c.11.33,10.75,32.9,29.27,57.87l1.14-.84c-18.38-24.78-29-57.14-29.06-57.46Z" transform="translate(-212.85 -285.62)"/><path d="M262.05,353.16c-1.53-.85-5.2-2.51-7.54-3.55l-.58,1.29c3.51,1.56,7.39,3.37,7.81,3.71a.74.74,0,0,0,.73.18c.43-.12,1-.27,3.1-8.53l-1.37-.35A74.68,74.68,0,0,1,262.05,353.16Z" transform="translate(-212.85 -285.62)"/><rect x="251.25" y="335.8" width="8.28" height="1.42" transform="translate(-358.34 184.15) rotate(-71.19)"/><path d="M244.5,336.59c.79.27,6.72,2.84,8.94,3.81l.57-1.29c-.33-.15-8-3.52-9.06-3.86Z" transform="translate(-212.85 -285.62)"/><path d="M246.64,326.05l-7.08-3.91-.68,1.24,8.59,4.75,2.76-8.83-1.35-.42S247.05,324.72,246.64,326.05Z" transform="translate(-212.85 -285.62)"/><path d="M239.88,309.19,233.72,306l-.66,1.26,7.84,4.1,1.68-8.43-1.39-.27S240.16,307.76,239.88,309.19Z" transform="translate(-212.85 -285.62)"/><path d="M226.05,392.31A86.51,86.51,0,0,0,236.14,412c6.58,9.37,10,14.74,10,14.8l1.2-.75c0-.06-3.42-5.46-10-14.87a85.84,85.84,0,0,1-9.91-19.32Z" transform="translate(-212.85 -285.62)"/><polygon points="29.84 134.99 31.23 135.29 33.73 124.13 32.34 123.82 29.84 134.99"/><rect x="239.68" y="417.97" width="1.42" height="8.25" transform="translate(-440.25 267.31) rotate(-75.96)"/><rect x="233.85" y="408.52" width="1.42" height="6.64" transform="translate(-450.86 162.48) rotate(-64.72)"/><rect x="229.19" y="399.13" width="8.22" height="1.42" transform="translate(-431.36 215.05) rotate(-72.32)"/><rect x="228.68" y="399.96" width="1.42" height="3.59" transform="translate(-441.69 179.82) rotate(-68.19)"/><path class="cls-1" d="M242.55,303.92a4.6,4.6,0,0,1-2.83-5.33c.67-4.17,3.33-5.5,3.33-5.5l5.17.5a8.07,8.07,0,0,1-.17,6.67C246.39,304.09,243.72,304.09,242.55,303.92Z" transform="translate(-212.85 -285.62)"/><path class="cls-1" d="M229.39,293.42a51.08,51.08,0,0,0,2.16,6.84,5.25,5.25,0,0,0,6.5,3.33c1.34-.5,1.67-5.17,1-7.17a7.27,7.27,0,0,0-3-3.33Z" transform="translate(-212.85 -285.62)"/><path class="cls-1" d="M233.89,307.26s2.5-2.67-.5-6.17-9-.17-10.17-.17.33,4.67,3.33,6.5S233.55,308.42,233.89,307.26Z" transform="translate(-212.85 -285.62)"/><path class="cls-1" d="M240.55,321.09s-.33-5.33-7-6.17a13.84,13.84,0,0,0-9.83,2.5,18.49,18.49,0,0,0,7.67,5.84C236.55,325.42,240.39,324.92,240.55,321.09Z" transform="translate(-212.85 -285.62)"/><path class="cls-1" d="M250.55,320.76s-5.83-2.5-2.33-8.67c3.17-5.58,6.5-7.83,6.5-7.83s1.17,5.33,1.33,7.16S257.22,321.59,250.55,320.76Z" transform="translate(-212.85 -285.62)"/><path class="cls-1" d="M257.22,333.59s-4.83-3.33-1-8.83,7-7.34,7.33-8.5.84,1.16.84,2.66.5,6.5-.84,10.17S259.39,334.59,257.22,333.59Z" transform="translate(-212.85 -285.62)"/><path class="cls-1" d="M246.89,334.26s-.67-5.5-7.17-6.34-9.66,2.17-12,2.17c0,0,0,.83,1.5,1.33a20.58,20.58,0,0,1,6.5,3.84C237.39,336.92,245.05,339.59,246.89,334.26Z" transform="translate(-212.85 -285.62)"/><path class="cls-1" d="M255.55,348.59s-.83-4.67-7-5.33-9.5,1.66-12,.83c0,0-.16.66.84,1a15.79,15.79,0,0,1,4.33,3.17c.67.83,4.33,4.5,9.17,3.66S255.39,350.09,255.55,348.59Z" transform="translate(-212.85 -285.62)"/><path class="cls-1" d="M269.72,330.59s-2.67,3.83-4.17,4.83-2.5,5.17-2.66,8.5,4.33,3.84,5.5,2.5S270.06,338.25,269.72,330.59Z" transform="translate(-212.85 -285.62)"/><path class="cls-1" d="M317.22,314.09s-5.16.17-7.33-4.17c-2.27-4.54-1.17-7.33-1.17-7.33a9.05,9.05,0,0,1,7.84,2.83C319.89,309.09,319.05,313.25,317.22,314.09Z" transform="translate(-212.85 -285.62)"/><path class="cls-1" d="M327.06,308.59s-5.67-2.67-3.34-7.33,5.34-6.34,5.84-7,1.83,2,2,3S334.39,309.09,327.06,308.59Z" transform="translate(-212.85 -285.62)"/><path class="cls-1" d="M331.39,313.92s-2.67-5.83,2.5-8.33a34.56,34.56,0,0,1,10.5-3s.33.33,0,1.17-2.67,6-4.83,8.5S334.06,316.59,331.39,313.92Z" transform="translate(-212.85 -285.62)"/><path class="cls-1" d="M340.72,318.76s-4.83,1.33-7.16,1.83-6.17,4.16-3.84,7.5,6.5,2.16,9.17-2S342.22,318.59,340.72,318.76Z" transform="translate(-212.85 -285.62)"/><path class="cls-1" d="M309.39,323.26s4.83,1,7.17,3.33,2.66,5.83,0,7.5-6.5-.17-7.17-1.83Z" transform="translate(-212.85 -285.62)"/><path class="cls-1" d="M325.72,347.76s-2.16-4,3.17-7.84,9.67-3.16,9.67-3.16a14.3,14.3,0,0,1-3.67,9C331.22,349.59,329.05,350.09,325.72,347.76Z" transform="translate(-212.85 -285.62)"/><path class="cls-1" d="M309.22,337.59c8.17.83,7.67,7.5,7.67,7.5s-1.67,4.33-8.33,2.5Z" transform="translate(-212.85 -285.62)"/><path class="cls-1" d="M325.06,360.09s-1.67-4.5,3.83-7.17a21.09,21.09,0,0,1,9.83-2.33,2.92,2.92,0,0,1-.33,1.17c-.33.66-1.17,6.33-5.17,8.83S327.39,362.75,325.06,360.09Z" transform="translate(-212.85 -285.62)"/><path class="cls-1" d="M315.89,361.09s.5-4.83-2.67-7.33c-3.41-2.7-5.33-1.5-5.33-1.5l-.67,6.33s-.21,3.19,3.84,4S315.89,361.09,315.89,361.09Z" transform="translate(-212.85 -285.62)"/><path class="cls-1" d="M326.56,371.09s-2-4,3.33-7.5a36.43,36.43,0,0,1,10-4.67,5,5,0,0,0-.33,1.34c0,.5-.67,6-3.84,9.33S329.06,373.92,326.56,371.09Z" transform="translate(-212.85 -285.62)"/><path class="cls-1" d="M247.22,410.92s-5.66-1-4-7.33,5.83-8.67,5.83-9.5,2.34,4.17,3.17,6.83S252.72,411.59,247.22,410.92Z" transform="translate(-212.85 -285.62)"/><path class="cls-1" d="M234.72,397.09s-5.5-2.33-2.5-7.83,7-7.17,7.33-8.5,1,5.16,1.34,7.33S241.39,398.75,234.72,397.09Z" transform="translate(-212.85 -285.62)"/><path class="cls-1" d="M228.22,393.42a11.19,11.19,0,0,0-.67-8.66,11.73,11.73,0,0,0-6.66-5.5l-.5,9.66S220.56,393.76,228.22,393.42Z" transform="translate(-212.85 -285.62)"/><path class="cls-1" d="M233.22,410.09s-.5-4.17-5.83-4.84-6.84,2.34-6.84,2.34v2s.17,3.5,6.17,4.16S233.22,410.09,233.22,410.09Z" transform="translate(-212.85 -285.62)"/><path class="cls-1" d="M236.89,420.59s-1.33-4.67-7.17-4.34a9.13,9.13,0,0,0-7.83,4.67s1.83,4.17,8.5,4S236.89,420.59,236.89,420.59Z" transform="translate(-212.85 -285.62)"/><path class="cls-1" d="M228.22,401.42s.5-4.33-3.5-5.33-4.67,1.17-4.67,1.17l.34,5.33a10,10,0,0,0,4.33.83A5.23,5.23,0,0,0,228.22,401.42Z" transform="translate(-212.85 -285.62)"/><path class="cls-1" d="M310.22,490.09s-.66-5.5-7.16-6.17a10.55,10.55,0,0,0-9.67,4s1,4.83,8.83,5.17S310.22,490.09,310.22,490.09Z" transform="translate(-212.85 -285.62)"/><path d="M309.22,314.88H269.16l0,.73c2.63,82.12-40.43,143-40.87,143.56l-.8,1.12,46.1.34.21-.33c40.65-65.11,36.16-144,36.11-144.76l0-.66Zm-.67,1.42c.05,1.09.13,3.53.13,7.12,0,21.42-3.11,83.09-35.86,135.79l-42.59-.32c5.56-8.26,40.48-63,40.48-136,0-2.16,0-4.35-.1-6.54Z" transform="translate(-212.85 -285.62)"/><path d="M230.31,292.21a10.64,10.64,0,0,0-10.63,10.63V506.5a10.64,10.64,0,0,0,10.63,10.63H348.47A10.64,10.64,0,0,0,359.1,506.5V302.84a10.64,10.64,0,0,0-10.63-10.63ZM221.1,506.5V302.84a9.22,9.22,0,0,1,9.21-9.21H348.47a9.22,9.22,0,0,1,9.21,9.21V506.5a9.22,9.22,0,0,1-9.21,9.21H230.31A9.22,9.22,0,0,1,221.1,506.5Z" transform="translate(-212.85 -285.62)"/></svg>