<svg id="_7_3" xmlns="http://www.w3.org/2000/svg" viewBox="0 0 153.07 238.11"><defs><style>.cls-1{fill:#ed1c24;}.cls-2{fill:#fff;}</style></defs><title>_7_3</title><rect class="cls-1" width="153.07" height="238.11"/><path class="cls-2" d="M227.69,314.4V520.23s.5,8.83,9.83,9H355.35s9-1.5,9.5-10l-.16-205.17s-.67-7.66-10.17-8.33H236.35S229.19,305.73,227.69,314.4Z" transform="translate(-219.65 -298.42)"/><path d="M299.19,401.06s.83,3.5.16,5.67-2,6-1.5,9,2.67,5.5,5.84,5.5,6.5-3.67,4.5-9.83S299.19,401.06,299.19,401.06Z" transform="translate(-219.65 -298.42)"/><path d="M289.52,413.56a38,38,0,0,1-1.33,6.84c-.84,2.16-1.5,6.66,1.5,9.33s7.33,1.5,7.33-3-1.83-6.5-3.67-9A26,26,0,0,0,289.52,413.56Z" transform="translate(-219.65 -298.42)"/><path d="M277.69,423.06a48.39,48.39,0,0,1-.84,5.17c-.5,2-3.16,6.5-1.33,11.17s8.33,5.5,9.17,0-1.5-8.17-2.84-10.5A57.62,57.62,0,0,0,277.69,423.06Z" transform="translate(-219.65 -298.42)"/><path d="M231.85,410.06a15.5,15.5,0,0,1-.5,4.84c-.66,2-1.66,6.49.67,9.16s7.33,2.84,7.33-1.66-1.83-6-3.66-8.34A30.16,30.16,0,0,0,231.85,410.06Z" transform="translate(-219.65 -298.42)"/><path d="M227.69,430.9s4.66,5.66,4.83,8.33-4,3.5-4.83,3Z" transform="translate(-219.65 -298.42)"/><path d="M266.85,427.4a50.14,50.14,0,0,1-7.5,2.5c-3.66.83-8,4.33-7,8.16s6,5,9.67,1.5S266.85,427.4,266.85,427.4Z" transform="translate(-219.65 -298.42)"/><path d="M249.69,457.9s-1.17-5.34,6-7.34A39.24,39.24,0,0,1,269,449.23s-4.33,4.5-5.83,6.17-4.84,4.5-9.17,4.66S250,459.23,249.69,457.9Z" transform="translate(-219.65 -298.42)"/><path d="M227.69,456.56a37.45,37.45,0,0,1,6.5,6.17,6.2,6.2,0,0,1,.16,7.67s-4.5,1.16-6.83-2.5Z" transform="translate(-219.65 -298.42)"/><path d="M259.85,498.9s-1.83-5.17,3.84-9.34,14.5-3.16,14.5-3.16-2.34,5-3.5,6.83-6,5.67-9.67,6.33S259.85,498.9,259.85,498.9Z" transform="translate(-219.65 -298.42)"/><path d="M301.35,461.23s1.84-5.67,8.67-4.83,10.33,4.16,14.67,5.16a41,41,0,0,0-6.5,1.84,22.67,22.67,0,0,1-10.84,1.83C303,464.73,301.52,464.23,301.35,461.23Z" transform="translate(-219.65 -298.42)"/><path d="M332.35,446.73s-4.33-1.33-6.5-2.33a26,26,0,0,0-11-2.5c-4.33.16-6.33,2.5-6.5,4.33s1.34,5,7.17,5.33,10.67-3,12.67-3.5A41.93,41.93,0,0,0,332.35,446.73Z" transform="translate(-219.65 -298.42)"/><path d="M342.35,432.23s-4-1-7-2A26.6,26.6,0,0,0,323,429.06c-5.67.67-6.17,4.34-6,5s1.67,4.34,6.83,4.17,10-2.5,12-3.17S342.35,432.23,342.35,432.23Z" transform="translate(-219.65 -298.42)"/><path d="M298,527.9a56.23,56.23,0,0,0-8.33-3.17c-3-.67-9.17-6.17-7.17-9.83s10.33.16,12.67,5.5A50.7,50.7,0,0,1,298,527.9Z" transform="translate(-219.65 -298.42)"/><path d="M269.35,529.06a13.93,13.93,0,0,1-9-4.33c-3.83-4.17-2.5-7.67-2.5-7.67s5.5-3.33,11.5,3.34,4.5,8.33,4.5,8.33Z" transform="translate(-219.65 -298.42)"/><path d="M244.19,529.06s-6.17-3.8-3.84-9.16c1.67-3.84,12.34,2.5,12.17,9.33Z" transform="translate(-219.65 -298.42)"/><path d="M253.72,505c-16.75-.75-25.65,3.72-26,3.91l.64,1.26c.09,0,9-4.48,25.31-3.75,12.31.55,55,.4,87.22-24.65l-.87-1.12C308.14,505.42,265.9,505.57,253.72,505Z" transform="translate(-219.65 -298.42)"/><path d="M247.73,507.75c-4.81,2.16-19.76,10.58-20.39,10.94l.69,1.24c.16-.09,15.53-8.76,20.28-10.89s10.54-7.75,13.1-11l-1.12-.87C257.82,500.31,252.29,505.71,247.73,507.75Z" transform="translate(-219.65 -298.42)"/><path d="M245.79,510c2,1.36,12.24,8.2,12.91,8.54l.64-1.27c-.54-.28-7.92-5.21-12.76-8.45Z" transform="translate(-219.65 -298.42)"/><path d="M234.08,516.55s5.08,2.14,7,3.87l1-1c-2.07-1.89-7.16-4-7.37-4.13Z" transform="translate(-219.65 -298.42)"/><polygon points="50.31 207.73 63.63 216.72 64.44 215.55 51.1 206.55 50.31 207.73"/><path d="M285.76,504.39c5,1.93,12.82,5.13,14,6.06l.89-1.11c-1.7-1.36-13.07-5.77-14.36-6.27Z" transform="translate(-219.65 -298.42)"/><path d="M286.35,503.5l1.34.46c1-3,4.37-12.87,4.37-14.06h-1.42C290.61,490.68,288.4,497.49,286.35,503.5Z" transform="translate(-219.65 -298.42)"/><path d="M304.51,498.68l1.35.44c.36-1.1,3.52-10.75,3.69-11.77l-1.4-.24C308,487.81,305.91,494.41,304.51,498.68Z" transform="translate(-219.65 -298.42)"/><path d="M306.2,499.36c2.87,1.47,7.56,3.88,7.93,4.13l.78-1.18c-.51-.34-6.81-3.57-8.07-4.21Z" transform="translate(-219.65 -298.42)"/><path d="M323.31,480.73c0,1.61-2.46,8.3-4.11,12.4l1.31.53c.43-1.07,4.22-10.53,4.22-12.93Z" transform="translate(-219.65 -298.42)"/><path d="M321.22,493.21c3.94,1.8,10,4.61,10.6,5l.73-1.21c-.84-.51-9.73-4.58-10.74-5Z" transform="translate(-219.65 -298.42)"/><path d="M281.47,469.69a162.37,162.37,0,0,1-45.27,27.12l.47,1.34a164,164,0,0,0,45.73-27.38c21.41-18.46,54.69-69.44,68.21-113.08l-1.35-.42C335.8,400.69,302.74,451.36,281.47,469.69Z" transform="translate(-219.65 -298.42)"/><path d="M275.49,335.1c.05.3,5.23,29.43,5,50.37-.26,21.54-9.66,47.65-15.93,59.94-6.64,13-37.13,55.48-37.44,55.91l1.15.82c.31-.42,30.86-42.94,37.56-56.09,7.57-14.87,15.83-40.16,16.07-60.56.25-21.08-4.95-50.34-5-50.64Z" transform="translate(-219.65 -298.42)"/><path d="M243.08,486.62c-3,4.93-12.89,20.82-13,21l1.2.76c.1-.16,10-16.07,13-21,2.84-4.72,17.76-31.23,22.56-43.86l-1.32-.5C260.76,455.52,245.9,481.91,243.08,486.62Z" transform="translate(-219.65 -298.42)"/><path d="M235.76,425.68c3.2,11.08,9.41,49.28,9.48,49.66l1.4-.22c-.07-.39-6.3-38.68-9.52-49.84Z" transform="translate(-219.65 -298.42)"/><path d="M241.71,447.34l-10.09-7.92-.87,1.12,10.92,8.58,12.68-9.06-.83-1.16Z" transform="translate(-219.65 -298.42)"/><path d="M235.79,457.32l8.16,5.53,6.9-5.05-.83-1.14-6.1,4.45-7.34-5Z" transform="translate(-219.65 -298.42)"/><path d="M233.15,470.44l8,9.43-13.47,4.18.42,1.36,15.52-4.82-9.44-11.07Z" transform="translate(-219.65 -298.42)"/><path d="M246.82,481.28l.23,1.4a105.78,105.78,0,0,0,45.34-22.16l-.91-1.08A104.32,104.32,0,0,1,246.82,481.28Z" transform="translate(-219.65 -298.42)"/><polygon points="67.57 166.63 68 167.98 83.01 163.23 82.56 161.88 67.57 166.63"/><path d="M283,466.08l1.4-.21c-1-6.88-2.89-20.6-2.5-23.29l-1.41-.2C280,445.94,282.86,465.26,283,466.08Z" transform="translate(-219.65 -298.42)"/><path d="M274.27,450.72c.14.38,3.38,9.24,8.74,13.32l.86-1.12c-5-3.83-8.24-12.59-8.27-12.68Z" transform="translate(-219.65 -298.42)"/><path d="M262.48,462.73c0,3.37-3,14.71-3,14.82l1.37.36c.13-.47,3-11.63,3-15.18Z" transform="translate(-219.65 -298.42)"/><rect x="294.1" y="429.99" width="1.42" height="23.73" transform="translate(-302.13 -230.47) rotate(-11.55)"/><rect x="301.32" y="447.02" width="8.73" height="1.42" transform="translate(-314.01 -216.58) rotate(-13.23)"/><path d="M303.28,420.24,310,437.05l8.34-1.88-.31-1.38-7.16,1.62-6.28-15.69Z" transform="translate(-219.65 -298.42)"/><rect x="313.6" y="404.72" width="1.42" height="22.02" transform="translate(-301.93 -220.83) rotate(-12.46)"/><path d="M318.94,422.07l.5,1.32c.38-.14,9.32-3.53,12.09-5l-.68-1.24C328.17,418.57,319,422,318.94,422.07Z" transform="translate(-219.65 -298.42)"/><path d="M320.25,391.63c1,4.44,4,21.06,4,21.22l1.39-.25c0-.16-3-16.81-4-21.27Z" transform="translate(-219.65 -298.42)"/><rect x="326.32" y="406.77" width="11.24" height="1.42" transform="translate(-342.87 -153.73) rotate(-20.83)"/><rect x="328.85" y="380.43" width="1.42" height="19.34" transform="translate(-305.36 -205.55) rotate(-14.22)"/><rect x="332.97" y="393.77" width="11.42" height="1.42" transform="translate(-347.7 -133.02) rotate(-23.21)"/><path d="M334.75,366.39,339,384.8l11.83-6.45-.68-1.24-10.18,5.55c-.38-1.64-3.79-16.59-3.79-16.59Z" transform="translate(-219.65 -298.42)"/><path d="M254,385c.11.26,10.8,26.2,16.22,46.66l1.37-.36c-5.45-20.56-16.17-46.58-16.28-46.84Z" transform="translate(-219.65 -298.42)"/><path d="M252.43,408.14c.11,0,10.41,4,12.78,6.12l1-1.06c-2.57-2.31-12.79-6.22-13.22-6.38Z" transform="translate(-219.65 -298.42)"/><rect x="253.23" y="388.79" width="1.42" height="11.88" transform="translate(-427.2 181.88) rotate(-67.75)"/><path d="M262.51,405.5l1.35.45c.18-.54,3.45-7.29,5.46-11.41l-1.27-.62C267.51,395,262.77,404.73,262.51,405.5Z" transform="translate(-219.65 -298.42)"/><rect x="275.6" y="388.83" width="1.42" height="13.31" transform="translate(-363.42 -140.2) rotate(-25.6)"/><rect x="278.98" y="392.15" width="11.67" height="1.42" transform="translate(-414.02 18.03) rotate(-45)"/><path d="M275,375.67c.52,1.79,5.06,9.32,5.58,10.18l.52.85,7.63-9.27-1.09-.9-6.36,7.72c-1.61-2.68-4.56-7.75-4.91-9Z" transform="translate(-219.65 -298.42)"/><path d="M271.42,362.71c.7.76,6.9,7.38,8.74,8.17l.56-1.3c-1.18-.51-5.7-5.07-8.27-7.83Z" transform="translate(-219.65 -298.42)"/><rect x="278.56" y="363.52" width="11.5" height="1.42" transform="translate(-396.03 30.36) rotate(-47.63)"/><rect x="276.18" y="347.4" width="10.51" height="1.42" transform="translate(-378.26 131.82) rotate(-61.62)"/><rect x="273.48" y="343.83" width="1.42" height="13.79" transform="translate(-385.81 -13.13) rotate(-43.53)"/><path class="cls-1" d="M273.94,319.23s-1.27,2.86-2.25,5c-1.5,3.25-1,12.5,4.75,12s3-10.25,1.75-12S273.94,319.23,273.94,319.23Z" transform="translate(-219.65 -298.42)"/><path class="cls-1" d="M259.52,333.73a19.83,19.83,0,0,1,.83,3.67,9.27,9.27,0,0,0,5.67,6.66c3.5,1.17,6-2.16,3.83-5.33a8.54,8.54,0,0,0-5.66-4C262.85,334.4,259.52,333.73,259.52,333.73Z" transform="translate(-219.65 -298.42)"/><path class="cls-1" d="M295,332.06a19,19,0,0,1-5.5,2,9.17,9.17,0,0,0-6.83,6.67c-.84,3.67,3,5.17,5.5,4.33s5.5-4.33,6.16-7.83A31.22,31.22,0,0,0,295,332.06Z" transform="translate(-219.65 -298.42)"/><path class="cls-1" d="M263.85,352.4s1,3,1.5,5a8.56,8.56,0,0,0,6,5.66c3.17.67,4.84-3.16,3.17-5.66s-4.17-3.34-6.5-4S263.85,352.4,263.85,352.4Z" transform="translate(-219.65 -298.42)"/><path class="cls-1" d="M297.35,348.06a17.12,17.12,0,0,1-5.33,2c-2.5.34-5.5,3.5-5.5,6.34s2.33,4,6.17,2.33,4.16-6.67,4.33-7.67S297.35,348.06,297.35,348.06Z" transform="translate(-219.65 -298.42)"/><path class="cls-1" d="M265.52,367.56a38.27,38.27,0,0,0,2.83,5c1.17,1.5,3.84,3.5,6.5,3.34s4.34-3.34,2-6.17c-2.7-3.28-6-2.5-7.33-2.5S265.52,367.56,265.52,367.56Z" transform="translate(-219.65 -298.42)"/><path class="cls-1" d="M297.85,365.23s-4.16,1.5-6.83,2.17-6.33,3.83-6.17,7.33,3.5,4.5,7,2.5,4.5-6.5,4.84-7.83S297.85,365.23,297.85,365.23Z" transform="translate(-219.65 -298.42)"/><path class="cls-1" d="M275.52,379.23l-3.17,2.17a26.21,26.21,0,0,1-3.83-1c-1.17-.5-2.5-1-2.5-1a7.33,7.33,0,0,1,.33,2,12.6,12.6,0,0,0,1.5,4,29.5,29.5,0,0,0-2.33,3.66c-.83,1.67-1,4.5,2.33,5.5s4.84-3,5-4a3.29,3.29,0,0,0,3.84-1c1.66-2-1.17-4.83-1.17-4.83Z" transform="translate(-219.65 -298.42)"/><path class="cls-1" d="M299,378.23a25.69,25.69,0,0,1-4.67,1.5c-1.5.17-5.83,2-7,4.67s1,6,5,4.83,4.84-5.17,5.5-6.67A24.37,24.37,0,0,0,299,378.23Z" transform="translate(-219.65 -298.42)"/><path class="cls-1" d="M248.85,369.4a24.22,24.22,0,0,1,.5,5.16c-.16,1.84-.16,6.17,2.5,8.67s6.67,1,6.67-1.5-1.83-6-4.17-7.83S248.85,369.4,248.85,369.4Z" transform="translate(-219.65 -298.42)"/><path class="cls-1" d="M235.19,385.06a27.88,27.88,0,0,1,2.83,3,15.13,15.13,0,0,0,8.67,5.34c4.5.83,6.33-3.84,3.33-7.17s-8.5-2-9.83-2A37.57,37.57,0,0,0,235.19,385.06Z" transform="translate(-219.65 -298.42)"/><path class="cls-1" d="M240,401.4s2.33,2.16,3.5,3.33a13.71,13.71,0,0,0,6.67,3.83c3.16.67,7.33-2.16,4.16-5.83s-7.33-2.83-9.83-2.67A11.45,11.45,0,0,0,240,401.4Z" transform="translate(-219.65 -298.42)"/><path class="cls-1" d="M307,389.9a26.09,26.09,0,0,1,0,5.33c-.33,2.17-.33,7.67,2.5,10.17s6.17-.34,6-3.67-2.67-7.33-4.33-8.83A32.5,32.5,0,0,0,307,389.9Z" transform="translate(-219.65 -298.42)"/><path class="cls-1" d="M315.85,378.23a46.41,46.41,0,0,1,0,5.17c-.16,2.33.34,6.16,2.5,8.33s6.5,1.17,5.84-2.5-1.5-6.17-4-8S315.85,378.23,315.85,378.23Z" transform="translate(-219.65 -298.42)"/><path class="cls-1" d="M322.19,367.23s.33,2.67.33,3.83-.33,5.67.83,9,7.34,4,7.17-1.16-4.83-9.17-4.83-9.17Z" transform="translate(-219.65 -298.42)"/><path class="cls-1" d="M330.35,352.4s-.33,3.16-.5,5.5,0,6.5,3.17,9,6-.5,5.17-3.84-3-4.83-4.34-6.5S330.35,352.4,330.35,352.4Z" transform="translate(-219.65 -298.42)"/><path class="cls-1" d="M355.69,344.23s-2,1.17-4.5,3-3.84,5.67-3.67,8.5,2.83,3.83,5.83,2.33,3.67-5,3.5-8.33A16.17,16.17,0,0,0,355.69,344.23Z" transform="translate(-219.65 -298.42)"/><path class="cls-1" d="M358.35,367.73s-3.83,1-5.66,1.5-5,2.17-5.17,5.5,2.83,4,5.5,3.33,4.33-2.83,5.17-5.66A8,8,0,0,0,358.35,367.73Z" transform="translate(-219.65 -298.42)"/><path class="cls-1" d="M354.85,385.23s-3.5-.33-5.66-.33-5.67,1-7.17,3.33a4.32,4.32,0,0,0,5.33,6c4.84-1.33,5.67-4.83,6.17-6.33A11.38,11.38,0,0,1,354.85,385.23Z" transform="translate(-219.65 -298.42)"/><path class="cls-1" d="M350,398.06s-3.83-.5-5.67-.5-6.66,1.17-8.33,4.5.83,6.34,4.5,5.84,5.5-3.5,6.83-5.17A26.41,26.41,0,0,0,350,398.06Z" transform="translate(-219.65 -298.42)"/><path class="cls-1" d="M344,410.9s-4.5-.34-6-.5-6-.34-8.17,2.83-1.16,6.33,3.67,6,6.33-3.5,7.5-4.67A41.1,41.1,0,0,0,344,410.9Z" transform="translate(-219.65 -298.42)"/><path class="cls-1" d="M227.69,447.9a11.82,11.82,0,0,1,5.83.33,6.36,6.36,0,0,1,4.33,5.83c0,2-2.66,3-5.66,1.84a9.7,9.7,0,0,1-4.34-3.17Z" transform="translate(-219.65 -298.42)"/><path class="cls-1" d="M268.85,438.73a24.65,24.65,0,0,0,.5,8c1,3.67,4,6,7.17,4.67s1.67-6.5-.67-8.67S268.85,438.73,268.85,438.73Z" transform="translate(-219.65 -298.42)"/><path class="cls-1" d="M267,451.9a12.9,12.9,0,0,1,.5,6.33c-.67,3.17-1.33,5.33-3.5,5.67s-4.83-2.84-4.5-6.17S267,451.9,267,451.9Z" transform="translate(-219.65 -298.42)"/><path class="cls-1" d="M293.69,477.06a10,10,0,0,1-2,3.5c-1.17,1-4.34,5-3.84,8.17s4.17,4.33,7,1.5,1.5-6.83.5-8.83A28.61,28.61,0,0,1,293.69,477.06Z" transform="translate(-219.65 -298.42)"/><path class="cls-1" d="M309.19,472.23s-.84,2.67-1.67,4.5-2.5,5.17-1.5,9,7.5,3.5,7.67-1.17-1.67-7-2.67-9S309.19,472.23,309.19,472.23Z" transform="translate(-219.65 -298.42)"/><path class="cls-1" d="M328,467.56s-2.5,2.84-3.83,4.17-3.5,4.67-3,7.67,6,5.66,7.83-.34A16.83,16.83,0,0,0,328,467.56Z" transform="translate(-219.65 -298.42)"/><path class="cls-1" d="M353.85,473.56a21.8,21.8,0,0,1-6,1c-3,0-7.66,1-8.5,4.17s1.6,5.7,6.17,4.83c3.5-.66,5.17-4.5,5.83-5.5S353.85,473.56,353.85,473.56Z" transform="translate(-219.65 -298.42)"/><path class="cls-1" d="M344.85,502.56l-4.5-4.5c-2.83-2.83-8.66-5.5-11-2.33s.5,7.5,6.17,7.67S343.69,502.23,344.85,502.56Z" transform="translate(-219.65 -298.42)"/><path class="cls-1" d="M329.85,509.9a23.3,23.3,0,0,1-3.33-3.5,12.91,12.91,0,0,0-6.17-5.67c-3.66-1.5-6.16.67-6.66,2s.16,4.67,4.66,6.5S326.35,509.23,329.85,509.9Z" transform="translate(-219.65 -298.42)"/><path class="cls-1" d="M314,516.06a15.88,15.88,0,0,1-3.83-3.16c-1.5-1.84-3.5-5-7.67-5.67s-6.67,3.5-3.17,6.33,7.67,2.84,9.84,2.84A45.82,45.82,0,0,0,314,516.06Z" transform="translate(-219.65 -298.42)"/><path d="M237.61,305A10.64,10.64,0,0,0,227,315.65V519.31a10.64,10.64,0,0,0,10.63,10.63H354.77a10.64,10.64,0,0,0,10.63-10.63V315.65A10.64,10.64,0,0,0,354.77,305Zm-9.22,214.29V315.65a9.23,9.23,0,0,1,9.22-9.21H354.77a9.22,9.22,0,0,1,9.21,9.21V519.31a9.22,9.22,0,0,1-9.21,9.21H237.61A9.23,9.23,0,0,1,228.39,519.31Z" transform="translate(-219.65 -298.42)"/></svg>