<svg id="_7_4" xmlns="http://www.w3.org/2000/svg" viewBox="0 0 153.07 238.11"><defs><style>.cls-1{fill:#ed1c24;}.cls-2{fill:#fff;}</style></defs><title>_7_4</title><rect class="cls-1" width="153.07" height="238.11"/><path class="cls-2" d="M225.47,298.65V503.81s-.33,8.5,10.33,8.67l118.84.17s7.5-.67,8.33-9.5v-205s-.67-8-9.83-8.5l-119-.17S226,290.15,225.47,298.65Z" transform="translate(-217.77 -282.09)"/><path d="M301.64,508.31a47.82,47.82,0,0,0,4.33-3.83c1.17-1.33,7-5.83,12-5a4.42,4.42,0,0,1,2.17,8c-2.67,1.83-7.17,1.67-10.17,1.5S301.64,508.31,301.64,508.31Z" transform="translate(-217.77 -282.09)"/><path d="M277.3,494.81s3.17-3.5,4.33-4.83,7.34-5.83,12.51-4.5,4.49,5.5,1.16,7.67-9,2.5-11.67,2.33S277.3,494.81,277.3,494.81Z" transform="translate(-217.77 -282.09)"/><path d="M326.3,469.31a59,59,0,0,1-.66,6.34c-.5,2.83-1,10.16,3.33,12.66s8.33.34,7.33-5.66-4.16-7.17-6.16-8.84A23.61,23.61,0,0,1,326.3,469.31Z" transform="translate(-217.77 -282.09)"/><path d="M350.8,448.48s-2.33,3.5-3.66,5.17-3.67,6.66-2,10.83,7.16,3.17,8.66.83,1.5-7.16.17-10.33S350.8,448.48,350.8,448.48Z" transform="translate(-217.77 -282.09)"/><path d="M334.8,434.48a53.5,53.5,0,0,1-1.66,6.33c-.67,1.5-3.5,7.34-1,12.34s7.5,3,9-.84-.5-8.66-2.5-12S334.8,434.48,334.8,434.48Z" transform="translate(-217.77 -282.09)"/><path d="M295.8,424.48a65.32,65.32,0,0,0-.66,7c0,2.5-.5,9.5,5,12.17s7.33-.34,6.66-4.67-2.83-6.5-5.5-8.83A66,66,0,0,1,295.8,424.48Z" transform="translate(-217.77 -282.09)"/><path d="M289.8,463.65a38.53,38.53,0,0,0,4.34-4.5c1.5-2,6.83-5.5,10.33-5s6.67,4.83,4,7.66-6.5,2.17-9.83,1.84A70.54,70.54,0,0,0,289.8,463.65Z" transform="translate(-217.77 -282.09)"/><path d="M359.47,408.81s-3.67,3.17-6,5-4.5,6-3,10,7.17,4.17,8.67-1.16S359.47,408.81,359.47,408.81Z" transform="translate(-217.77 -282.09)"/><path d="M295,420.15s4.67-3.34,7-4.17,12.5-1.5,13.5,3.67-4.67,5.83-10.67,4A103.69,103.69,0,0,1,295,420.15Z" transform="translate(-217.77 -282.09)"/><path d="M274.13,420.65a35.66,35.66,0,0,0,3.34-5.5,13.7,13.7,0,0,1,10.66-7.5c5.84-.5,7.34,4.66,4.67,7.83s-9.67,3.67-11.83,4S274.13,420.65,274.13,420.65Z" transform="translate(-217.77 -282.09)"/><path d="M256.8,423.65a53.8,53.8,0,0,0,2-6.5c.33-2,3.5-7.17,8-8s7.83,2.16,6.67,6.16-6,6-10.17,6.84S256.8,423.65,256.8,423.65Z" transform="translate(-217.77 -282.09)"/><path d="M225.63,421.31a53,53,0,0,0,4.5-5.83c1-1.83,5-6.17,9.34-6.17s6.33,4.84,2.83,8-9.33,4.17-11.17,4.17S225.63,421.31,225.63,421.31Z" transform="translate(-217.77 -282.09)"/><path d="M243.63,381.65s3.51,5.16,5.17,8,6,4.66,10,4.66,5.5-2.33,3.67-6.16-5.84-5.67-10.84-6S243.63,381.65,243.63,381.65Z" transform="translate(-217.77 -282.09)"/><path d="M270.3,369.15s.33,5,.17,7.33.66,7.33,4.66,9.83,8.34-.33,8.34-3a11,11,0,0,0-6.17-9.66A26.21,26.21,0,0,1,270.3,369.15Z" transform="translate(-217.77 -282.09)"/><path d="M290.13,374.81s0,5.17.17,8,.67,8,5.84,9.5,7.5-2.33,6.5-6-3.17-5.83-6.84-8S290.13,374.81,290.13,374.81Z" transform="translate(-217.77 -282.09)"/><path d="M316.8,379.48a53.49,53.49,0,0,1-1.16,7c-.67,2.17-2,6.94,1.5,10.83,2.66,3,8.5,2.34,8.5-3s-2.17-7.83-4-9.5A65.59,65.59,0,0,1,316.8,379.48Z" transform="translate(-217.77 -282.09)"/><path d="M333.47,386.48s-1.84,4.17-2.67,6.33-3.16,7.84.34,11.67,7.5.67,8.5-2-.17-6.83-2.17-10S333.47,386.48,333.47,386.48Z" transform="translate(-217.77 -282.09)"/><path d="M277.3,396c-13.18,3.23-35.93,14.94-36.16,15.06l.65,1.26c.23-.12,22.83-11.75,35.85-14.94,12.46-3.06,26.77-.3,45,8.69,14.67,7.23,29.22,24.33,39.92,46.92l1.28-.61c-6.37-13.44-20.1-37.49-40.58-47.58C304.72,395.61,290.11,392.82,277.3,396Z" transform="translate(-217.77 -282.09)"/><path d="M321.14,405.3c.11.16,11.37,16.41,20.78,27.8l20.26,24.25,1.08-.91L343,432.2c-9.37-11.35-20.6-27.54-20.71-27.71Z" transform="translate(-217.77 -282.09)"/><rect x="313.46" y="418.94" width="18.53" height="1.42" transform="translate(-239.83 -264.17) rotate(-3.08)"/><path d="M317,382.8l1.38-.31a118.62,118.62,0,0,1,3-54.14l-1.36-.41A120.12,120.12,0,0,0,317,382.8Z" transform="translate(-217.77 -282.09)"/><path d="M311.67,327.63c.34.7,5.14,6.16,6.6,7.82l1.06-.94c-2.89-3.29-6.12-7-6.4-7.52Z" transform="translate(-217.77 -282.09)"/><path d="M316.55,344.75l1.18.79c3.31-5,9-13.17,10.29-14l-.77-1.2C325.35,331.6,317.44,343.41,316.55,344.75Z" transform="translate(-217.77 -282.09)"/><path d="M307.52,340.17c1.21,2.07,8,8.24,8.31,8.5l.95-1.05c-1.93-1.74-7.12-6.6-8-8.16Z" transform="translate(-217.77 -282.09)"/><polygon points="88.86 74.39 97.85 83.71 98.87 82.73 89.86 73.39 88.86 74.39"/><path d="M315.44,361.51l1.06.94c1-1.13,9.91-11.11,10.6-12.49l-1.26-.63C325.38,350.24,319.22,357.28,315.44,361.51Z" transform="translate(-217.77 -282.09)"/><polygon points="87.89 88.42 98.71 98.41 99.68 97.37 88.83 87.36 87.89 88.42"/><path d="M316.42,375.86l1.09.91c10.42-12.61,10.58-13.08,10.63-13.23l-1.31-.54C326.45,363.65,320.25,371.24,316.42,375.86Z" transform="translate(-217.77 -282.09)"/><path d="M253.76,312.21c3.15,38.39,17,60.6,17.11,60.82l1.2-.76c-.14-.22-13.78-22.16-16.9-60.18Z" transform="translate(-217.77 -282.09)"/><path d="M256.67,331l1.27.63c.06-.12,5.81-11.78,7.73-14l-1.07-.92C262.56,319.06,256.91,330.51,256.67,331Z" transform="translate(-217.77 -282.09)"/><path d="M247.65,324.78c2.24,1.12,8.64,6.36,8.7,6.42l.9-1.1c-.27-.22-6.59-5.4-9-6.59Z" transform="translate(-217.77 -282.09)"/><path d="M251.13,340.27c3,1.6,7.69,4.18,8.38,4.76l.91-1.09c-1-.86-7.84-4.5-8.62-4.92Z" transform="translate(-217.77 -282.09)"/><path d="M260.84,348.81l1.25.67c.09-.15,8.17-15.34,9.15-17l-1.21-.73C269,333.45,261.18,348.19,260.84,348.81Z" transform="translate(-217.77 -282.09)"/><path d="M258.13,358.83c.46.14,4.31,2,7.69,3.62l.63-1.27c-1.7-.83-7.29-3.55-8-3.72Z" transform="translate(-217.77 -282.09)"/><rect x="262.7" y="355.02" width="16.88" height="1.42" transform="matrix(0.57, -0.82, 0.82, 0.57, -393.53, 92.24)"/><path d="M256.81,373.61c.52.26,12.54,6.35,14,7l.57-1.3c-1.46-.65-13.84-6.92-14-7Z" transform="translate(-217.77 -282.09)"/><path d="M279,386.07c.11.29,2.77,7.2,6,9.95l.91-1.08c-3-2.52-5.6-9.31-5.62-9.38Z" transform="translate(-217.77 -282.09)"/><path d="M261.12,393.26c3.63,2.05,9,5.16,9.47,5.68l1.11-.88c-.51-.69-6.41-4.07-9.88-6Z" transform="translate(-217.77 -282.09)"/><path d="M269.75,410.2l1.1.89c4.42-5.48,11.19-13.85,11.79-14.44l-1-1C280.8,396.48,270.88,408.8,269.75,410.2Z" transform="translate(-217.77 -282.09)"/><path d="M291.13,409.36l.68,1.24c.16-.09,15.67-8.66,18.92-10l-.52-1.32C306.87,400.66,291.77,409,291.13,409.36Z" transform="translate(-217.77 -282.09)"/><polygon points="81.13 109.48 86.28 116.47 87.44 115.64 82.26 108.63 81.13 109.48"/><path d="M320.79,398c.07.25,1.72,6.16,3.28,8.24l1.13-.85c-1.4-1.87-3-7.71-3.05-7.77Z" transform="translate(-217.77 -282.09)"/><path d="M333.6,405.21c.23,2.42.66,7.21.66,8.1h1.42c0-1.18-.65-7.94-.67-8.23Z" transform="translate(-217.77 -282.09)"/><path d="M343.59,422.68l1.42-.07c-.16-3.27,0-10,0-10.11l-1.42,0C343.59,412.74,343.43,419.36,343.59,422.68Z" transform="translate(-217.77 -282.09)"/><path d="M351.63,432.94l1.34.43c.18-.51.78-5.75,1-8l-1.41-.16C352.29,428,351.75,432.48,351.63,432.94Z" transform="translate(-217.77 -282.09)"/><path d="M303.44,444.29c.34.37,33.71,37.08,58.85,51L363,494c-24.94-13.78-58.15-50.32-58.49-50.69Z" transform="translate(-217.77 -282.09)"/><path d="M345.27,481.39l1.4.18c.73-5.89,1.86-14.85,2-15.42l-1.38-.34C347.11,466.48,345.57,478.91,345.27,481.39Z" transform="translate(-217.77 -282.09)"/><path d="M334.77,454.61c.64,3.49-2.14,17.76-2.16,17.9l1.39.27c.11-.59,2.85-14.67,2.17-18.43Z" transform="translate(-217.77 -282.09)"/><path d="M318.26,446c0,4.45-2.74,10.31-2.76,10.36l1.28.61c.11-.25,2.9-6.2,2.9-11Z" transform="translate(-217.77 -282.09)"/><path d="M244.72,471.07l.83,1.15c25.62-18.6,53.54-14.91,53.82-14.87l.2-1.4C299.28,455.91,270.82,452.12,244.72,471.07Z" transform="translate(-217.77 -282.09)"/><rect x="307.8" y="456.52" width="8.5" height="1.42" transform="translate(-226.52 -276) rotate(-1.1)"/><rect x="317.44" y="464.19" width="6.55" height="1.42" transform="translate(-274.12 -237.69) rotate(-7.28)"/><path d="M295.43,487.11l.08,1.41c.28,0,28.53-1.35,63.22,22.54l.81-1.16C324.41,485.7,295.71,487.09,295.43,487.11Z" transform="translate(-217.77 -282.09)"/><path d="M345,493.49s2.28,9,2.53,10l-7.85,4.24.68,1.25,8.82-4.76-2.81-11Z" transform="translate(-217.77 -282.09)"/><path d="M332.1,489.24s.8,5.89.93,6.8l-13.34,5.79.56,1.3,14.33-6.21-1.08-7.87Z" transform="translate(-217.77 -282.09)"/><rect x="286.68" y="444.1" width="1.42" height="14.77" transform="translate(-459.83 91.16) rotate(-49.12)"/><rect x="275.34" y="446.61" width="1.42" height="13.08" transform="translate(-471.72 145.62) rotate(-55.9)"/><path d="M256.13,455.65c.5.5,6.75,3.08,11.91,5.15l.53-1.31c-4.11-1.66-10.86-4.45-11.48-4.88Z" transform="translate(-217.77 -282.09)"/><rect x="251.09" y="459.26" width="1.42" height="8.43" transform="translate(-485.3 273.68) rotate(-71.56)"/><rect x="252.15" y="468.11" width="13.31" height="1.42" transform="translate(-490.7 250.18) rotate(-67.91)"/><rect x="265.48" y="462.52" width="10.32" height="1.42" transform="translate(-483.58 173.37) rotate(-58.87)"/><rect x="280.78" y="460.11" width="8.87" height="1.42" transform="matrix(0.43, -0.9, 0.9, 0.43, -471.4, 236.54)"/><path class="cls-1" d="M251.63,296.48a17.08,17.08,0,0,1-.66,4.67c-.67,1.83-1.34,8.16,1,10.33s5.83,1.5,6.5-2.5-2.34-7.17-4-8.67A15,15,0,0,1,251.63,296.48Z" transform="translate(-217.77 -282.09)"/><path class="cls-1" d="M234.8,317.15a14.3,14.3,0,0,1,3.33,3.33,11.16,11.16,0,0,0,7.84,4.67c3.5.16,5.75-4.28,2.5-6.67s-7.17-1.83-9.17-1.83A27.64,27.64,0,0,0,234.8,317.15Z" transform="translate(-217.77 -282.09)"/><path class="cls-1" d="M275.3,303s-4.17,2.33-6.67,3.33-5.83,4.34-6.16,7a5.13,5.13,0,0,0,7.33,4.84c4.67-1.84,4.5-7.84,4.67-10A44.44,44.44,0,0,1,275.3,303Z" transform="translate(-217.77 -282.09)"/><path class="cls-1" d="M279.13,318s-2.83,2.83-5.16,3.67-5.5,4.83-6.17,7.33,1.5,6.83,6,4.83,4.84-5.83,5-9.33S279.13,318,279.13,318Z" transform="translate(-217.77 -282.09)"/><path class="cls-1" d="M237.13,333.31s2.34,2,4.5,4,4.84,4,7.84,4,6.16-3,3.16-6.16-7.33-2-9.16-2.34S237.13,333.31,237.13,333.31Z" transform="translate(-217.77 -282.09)"/><path class="cls-1" d="M285.13,333.65s-3.16,2.66-5.16,4.16-5.83,4.34-6.67,7.34a4.49,4.49,0,0,0,6.17,5.33c4.33-1.67,4.83-7.5,5.16-10.17S285.13,333.65,285.13,333.65Z" transform="translate(-217.77 -282.09)"/><path class="cls-1" d="M243,352a61.72,61.72,0,0,0,5.66,5.5,10.25,10.25,0,0,0,8.34,2.33c3.66-.66,4.16-4.66,1-7.16s-6.83-2-9.67-1.67A42,42,0,0,0,243,352Z" transform="translate(-217.77 -282.09)"/><path class="cls-1" d="M242,367.65s3.66,2.66,5,3.83,4.83,3.17,7.83,3,4.83-.83,4.67-3.67-4-5.33-9.5-4.66A44.94,44.94,0,0,0,242,367.65Z" transform="translate(-217.77 -282.09)"/><path class="cls-1" d="M299.64,314.81a33,33,0,0,1,3.66,5.5c.84,2,2.67,5.34,5.17,6.67s6.5,1.17,6.17-3.5-5.51-6.67-8.34-7.67A23.85,23.85,0,0,0,299.64,314.81Z" transform="translate(-217.77 -282.09)"/><path class="cls-1" d="M322.8,312a32.83,32.83,0,0,1-3.33,5.17c-1.5,1.66-3.5,5.16-2.83,8.16s4.66,6.17,7.66,1.34,1-7.84.34-10.17A26,26,0,0,0,322.8,312Z" transform="translate(-217.77 -282.09)"/><path class="cls-1" d="M336.8,317.48a46.77,46.77,0,0,1-6.66,3.67c-2.34.83-5.67,4.83-5.67,8.16s3.33,5,7.33,2.84,4.17-7.67,4.5-9.17A48,48,0,0,0,336.8,317.48Z" transform="translate(-217.77 -282.09)"/><path class="cls-1" d="M302.47,329.65c8.78,2,8.17,7.83,7.33,9.5s-3.5,2.33-6.33,1.16a12.3,12.3,0,0,1-6-6,49.7,49.7,0,0,0-3.83-6S300.3,329.15,302.47,329.65Z" transform="translate(-217.77 -282.09)"/><path class="cls-1" d="M337,336.81a65.85,65.85,0,0,0-7.67,2.34c-1.66.83-6.5,4.66-6.16,8.16s2.66,4.34,6.66,3.5,5.84-6,6.17-8.16S337,336.81,337,336.81Z" transform="translate(-217.77 -282.09)"/><path class="cls-1" d="M292.13,346.31a42.45,42.45,0,0,1,4.51,6.17c1.16,2.33,3.83,4.5,8.33,5.33s4.83-4.16,3.33-6.5-4.16-3.5-8.5-4C296.07,346.88,292.13,346.31,292.13,346.31Z" transform="translate(-217.77 -282.09)"/><path class="cls-1" d="M339.14,352.81s-4.17.67-6,.84-7,2.5-8,6.33,1.16,6.17,5.16,6,6.34-4.5,7.34-7.5A48.17,48.17,0,0,0,339.14,352.81Z" transform="translate(-217.77 -282.09)"/><path class="cls-1" d="M291.63,361.31a15.32,15.32,0,0,1,3,3.84c.83,1.83,4.83,5.5,8,6.16s5-1,5.33-3.5-2.67-5.66-8.17-6.16A61.31,61.31,0,0,0,291.63,361.31Z" transform="translate(-217.77 -282.09)"/><path class="cls-1" d="M343.8,395a34.19,34.19,0,0,1-1.83,4.83c-.83,1.5-3.17,7.5-1.33,11.17a4.88,4.88,0,0,0,8.66,0c1.67-3.33-1-8.17-2.66-11S343.8,395,343.8,395Z" transform="translate(-217.77 -282.09)"/><path class="cls-1" d="M319,428.48a57.53,57.53,0,0,0-3.67,6.67c-.83,2.16-2.33,6.83.67,10.16s7.5,2,7.5-3.33-2.5-9-3-10.67A8.66,8.66,0,0,0,319,428.48Z" transform="translate(-217.77 -282.09)"/><path class="cls-1" d="M268.8,437a21.89,21.89,0,0,1,3.5,4.17c1,1.83,3.5,5.5,7.5,6.33s5.17-3,3.83-6.17-4.16-4.33-8.5-4.5A35.79,35.79,0,0,0,268.8,437Z" transform="translate(-217.77 -282.09)"/><path class="cls-1" d="M256.8,441a27.68,27.68,0,0,1,3.5,3.33c.83,1.17,2.67,4.84,6.83,5.84s5.84-.34,6-3.5S270.3,440,265,440A26.88,26.88,0,0,0,256.8,441Z" transform="translate(-217.77 -282.09)"/><path class="cls-1" d="M241.63,446.31a29.31,29.31,0,0,1,3,3.17c.67,1,3.67,5.33,7.34,6.67s6.33-.34,6.83-3-2.33-6.34-6.67-7A38.5,38.5,0,0,0,241.63,446.31Z" transform="translate(-217.77 -282.09)"/><path class="cls-1" d="M232.3,453s2.67,3.67,4.17,6a11.73,11.73,0,0,0,7.66,5.17c4,1,6.5-2.84,4.84-6.17s-4.84-3.67-9.84-4.67S232.3,453,232.3,453Z" transform="translate(-217.77 -282.09)"/><path class="cls-1" d="M232,483.81a29.91,29.91,0,0,0,1.5-5.83c.16-2.17,2.33-6.83,6.66-9s8,2.33,6,6.67S239,481,236.8,481.81,232,483.81,232,483.81Z" transform="translate(-217.77 -282.09)"/><path class="cls-1" d="M251.63,491.31s-1.5-4.16-2-6.16-.83-7,2.34-10,9.66-.17,7.66,5.83S251.63,491.31,251.63,491.31Z" transform="translate(-217.77 -282.09)"/><path class="cls-1" d="M265.3,483.48l-2.17-6.5a12.76,12.76,0,0,1,.5-8.83c1.67-3.34,8-3.67,8.34,2.16a11.61,11.61,0,0,1-3.84,9.67A42.91,42.91,0,0,0,265.3,483.48Z" transform="translate(-217.77 -282.09)"/><path class="cls-1" d="M279.8,482s-.66-4.5-1.5-5.83-2-7.34-.33-11.34,8.33-3,8.5,2.17a14.1,14.1,0,0,1-4,10C281.3,478.15,279.8,482,279.8,482Z" transform="translate(-217.77 -282.09)"/><path class="cls-1" d="M301.14,473.15s2.16-3.84,3.33-5.67,3.16-5.83,8.83-5.33,6.84,6.33,2.84,7.83a46,46,0,0,1-10,2.17C304,472.48,301.14,473.15,301.14,473.15Z" transform="translate(-217.77 -282.09)"/><path class="cls-1" d="M343.64,477.81a28.13,28.13,0,0,1-1.5,5.5c-.84,1.67-1.84,6.67,0,9.5s7.33,2.17,8-1-1-8.33-2.84-9.83A24,24,0,0,1,343.64,477.81Z" transform="translate(-217.77 -282.09)"/><path class="cls-1" d="M327.3,512.81s2.17-4.5,5.67-6.16,6.67-1.17,8,1.83-.33,4.33-1.33,4.33Z" transform="translate(-217.77 -282.09)"/><path d="M235.39,288.94a10.64,10.64,0,0,0-10.63,10.63V502.73a10.64,10.64,0,0,0,10.63,10.63H353.05a10.64,10.64,0,0,0,10.63-10.63V299.57a10.64,10.64,0,0,0-10.63-10.63Zm-9.21,213.79V299.57a9.22,9.22,0,0,1,9.21-9.21H353.05a9.22,9.22,0,0,1,9.21,9.21V502.73a9.22,9.22,0,0,1-9.21,9.21H235.39A9.22,9.22,0,0,1,226.18,502.73Z" transform="translate(-217.77 -282.09)"/></svg>