<svg id="_8_1" xmlns="http://www.w3.org/2000/svg" viewBox="0 0 153.07 238.11"><defs><style>.cls-1{fill:#ed1c24;}.cls-2{fill:#fff;}</style></defs><title>_8_1</title><rect class="cls-1" width="153.07" height="238.11"/><path class="cls-1" d="M215.76,293.27l-.17,126.83,29.34,8.17,66.66,5.5,35.34,2.17,6-3.34-.17-139.33s-.67-7.83-9.67-8.5l-118.66.17S217.09,285.94,215.76,293.27Z" transform="translate(-207.72 -277.88)"/><path class="cls-2" d="M334.07,356.85a50.49,50.49,0,1,1-50.49-50.49A50.48,50.48,0,0,1,334.07,356.85Z" transform="translate(-207.72 -277.88)"/><path d="M225.68,284.23a10.64,10.64,0,0,0-10.63,10.63V499a10.64,10.64,0,0,0,10.63,10.62H342.84A10.64,10.64,0,0,0,353.47,499V294.86a10.64,10.64,0,0,0-10.63-10.63ZM216.47,499V294.86a9.22,9.22,0,0,1,9.21-9.21H342.84a9.22,9.22,0,0,1,9.21,9.21V499a9.22,9.22,0,0,1-9.21,9.21H225.68A9.22,9.22,0,0,1,216.47,499Z" transform="translate(-207.72 -277.88)"/><path d="M216.09,418.69s18.25-12.5,65-10.5,70,21,71.5,23.75v68.75s-1.5,8.25-9.75,8.25H224.34s-7.91-.6-8.58-9.92Z" transform="translate(-207.72 -277.88)"/><path d="M232.05,356.85a51.2,51.2,0,1,0,51.2-51.2A51.26,51.26,0,0,0,232.05,356.85Zm1.42,0a49.78,49.78,0,1,1,49.78,49.78A49.83,49.83,0,0,1,233.47,356.85Z" transform="translate(-207.72 -277.88)"/><circle class="cls-1" cx="40.78" cy="196.62" r="23.5"/><path class="cls-2" d="M240.54,465a7.88,7.88,0,0,1-1.58-.58c-.58-.34-1.75-.84-1.67-.09s.59,2.84.67,3.25.83.67,1.25-.08S241.13,465.25,240.54,465Z" transform="translate(-207.72 -277.88)"/><path class="cls-2" d="M245.63,465.83s.5-7.33.25-8.08a6.83,6.83,0,0,1-.59-2.08c.09-.42.75-.17,1.42.33a1.67,1.67,0,0,1,.83,1.58,13.7,13.7,0,0,0-.33,1.92v3.75s0,.33.58,0a53.7,53.7,0,0,0,4.92-4.83c.25-.42.25-1.59,1.25-.75s1.92,2,1.33,2.33-8.25,6.58-8.58,6.92a1.79,1.79,0,0,0-.25,1.5,7.42,7.42,0,0,1,.08.91,3.12,3.12,0,0,0,1.5-.08c.75-.25,3.09-1.67,3.5-1.83s.42-.84,1.5-.17,1.17,1.42.5,1.92-3.58,2.91-3.58,2.91a3.68,3.68,0,0,0,.83.84,1,1,0,0,1,.59,1.08c0,.67-.42,1.17-1,2.58a20.06,20.06,0,0,0-1.34,5c-.16,1.59,0,3.34,1.67,3.34s6.42.16,6.42.16a3.48,3.48,0,0,0,2.41-1.5c.84-1.33,1.84-2.41,1.92-2.75s.42-.16.83.59,1.5,3.25,1.84,4.08.41,1.08-.34,1.33a12.24,12.24,0,0,1-2.5.92c-1.08.17-10.41.25-11.83.25s-2.25-1.75-2.42-3.83a53.83,53.83,0,0,1,.5-7.59c.09-.41-.33-.41-.75-.25a7.15,7.15,0,0,0-1.91,1.42c-.42.5-4.67,4.67-5.59,5.92s-3.58,3.08-4.5,3.16-1.91-1-1.91-1l1.83-1.08A28.35,28.35,0,0,1,238,481c1.34-1.08,6.17-6.58,6.42-6.92a21.23,21.23,0,0,0,1-2.33.78.78,0,0,0-.83-.25c-.5.17-4,2.25-5.17,2.75s-1.92.83-2.33.33,0-1,.83-1.75a13.79,13.79,0,0,1,2.83-2.25c.5-.08.17.5,1.59.17s2.5-.25,2.66-.67.34-.91-.16-1.08a6.6,6.6,0,0,0-1.84,0c-.75,0,.09-.58.84-1.42S245.63,465.83,245.63,465.83Z" transform="translate(-207.72 -277.88)"/></svg>