<svg id="_8_2" xmlns="http://www.w3.org/2000/svg" viewBox="0 0 153.07 238.11"><defs><style>.cls-1{fill:#ed1c24;}.cls-2{fill:#fff;}.cls-3{fill:#ffcb05;}</style></defs><title>_8_2</title><rect class="cls-1" width="153.07" height="238.11"/><path class="cls-2" d="M226.89,287.39v99.75l9.25,11.5,27,4.5,73,9.25,30-4.75-.25-119.75s-.5-9-9.5-9.25l-120.25.25S229.39,277.14,226.89,287.39Z" transform="translate(-219.78 -271.83)"/><path class="cls-1" d="M299.76,319.64s2.13,1.75,6.25.37,5.75-5.25,6.38-6.62,1.37-4.38,4.25-5.38,4.5-.37,8.12-1.87a15.25,15.25,0,0,0,5.88-4.63l-3.88-2.62-6.12.5-10,4.37-5,6.5Z" transform="translate(-219.78 -271.83)"/><path class="cls-3" d="M229.27,339.26a7.08,7.08,0,0,1,4-6.75,16.05,16.05,0,0,1,8.87-1.75s-5.37-4.12-6.5-4.87-8.87-7.38-8.87-7.38l.5-4.25s1.75-.75,7.25,2.5c0,0,3.12-2,7.62.25a6.13,6.13,0,0,1,5.13-.25s2.62-2.62,8,.13a2.87,2.87,0,0,1,2.62-2.13c2.25-.25,8,4,8,4a15.64,15.64,0,0,1,9.5-4s1.38-4.62,1.75-5.25,1.38-.5,1.88.25c0,0,1-3.37,3.87-.25,0,0,2.5-6.25,4.38-1.5,0,0,.75-3.25,3.5-2.62s1.25,8.5-2.13,11.75a10.79,10.79,0,0,0-4.12.12c-2.38.5-8.5,3.88-10.88,8.63,0,0,11.13,1.25,17.63,14.87l1.25.25s.75-2.62,5.37-2.75a9.59,9.59,0,0,1,7.12-4.12c5.13-.63,6.75.75,6.75.75L309,336.51a24.73,24.73,0,0,0-5.75,3.25c-2,1.75-9,6.75-10.49,7.75s-8.63,3.63-8.63,3.63l-.62,1s-5.63-.63-8.25-.75-4.63-.13-4.63-.13,1-2.75,7.13-3.75a8.58,8.58,0,0,1,5.62-3.37s-5.12-7.13-10.62-10c0,0-5.25,3.75-10.63,4.25a27.45,27.45,0,0,1-10.62-1.25,10.34,10.34,0,0,0-5.38.37c-1.75.75-4.37,4-7.12,5.25S229.89,343.89,229.27,339.26Z" transform="translate(-219.78 -271.83)"/><path class="cls-3" d="M326.51,301.14s-5.87,2.25-10.37,4-5.63,3.87-6.25,6.75-3.13,8.62-8.25,8.12-3.62-5.37-1.63-8,5.5-7.25,5.75-8.12c0,0-3.75-.63-5.37-.88s-4-1.25-6.37-.87-7.63,1.5-11,1.75-4.63,0-5.75-.88-.13-1.5,1.25-2.25,6.37-1.37,6.37-1.37a7.79,7.79,0,0,1,6-5.13s1.25-4.12,7.25-3.37c0,0,1-2.25,4.62-3s7.38,2.5,7.38,2.5.75-3.63,7.25-1.38c0,0,2.37-3.5,6.5-.62,0,0,2.5-4.63,7.75-4.88,0,0,1.25-3.62,4.12-4.5l13.25-.25s2.75,1.75,2.38,6.38-4.5,6.5-7.5,6.75a23.73,23.73,0,0,1,5.5,8.5,17.6,17.6,0,0,1,2.12,5.75,12.62,12.62,0,0,1,3.13,6.62,22.63,22.63,0,0,1,3.12,6.5s3.5,4.13,4,5.63a16.83,16.83,0,0,1-5.87-.75,14.07,14.07,0,0,1-7.75-6.88c-1.25-2.62-6.25-10.37-10-12.75S328,300.14,326.51,301.14Z" transform="translate(-219.78 -271.83)"/><path class="cls-1" d="M283,352.26l1.87.63a8.42,8.42,0,0,0-4.25,4,4.94,4.94,0,0,0,4,6.62c3.25.38,7.5-1.5,9.88-2.75s5.74-3,7.12-3.12,11.5.12,17.37-7.13c0,0,4.5,1.63,6.88,4.25s5.37,6.13,9.62,8.5,11.13,2.5,13.5,2.75a17.3,17.3,0,0,1,6.13,1.75c2.12,1,6.25,2.5,6.25,2.5a8.75,8.75,0,0,0,.25-1.62c0-.63-6.25-4.63-6.63-4.88a15,15,0,0,0-7.25-6.25,10,10,0,0,0-4.12-5.62s-.25-2.38-3.75-4.75a18.47,18.47,0,0,0-3.25-3.75s.37-2.13-2.25-4.25c0,0,10.37,2.12,9.87-9.75,0,0,1.13-.25,1.25-4.38s-1.25-4.12-2-4a1.76,1.76,0,0,0-1.12,1s-1.25-1-4-.37c0,0-1.63-1.5-4.63,1.37a7.88,7.88,0,0,0-5.87,2c-2.38,2.38-5.75,6.13-5.75,6.13s-6.75,1-9.5,3.12a16.92,16.92,0,0,1-4.75,2.75s-4.88,2-6.38,3.88-5.74,5-9.74,6.87-8,3.63-8,3.63Z" transform="translate(-219.78 -271.83)"/><path class="cls-1" d="M273.64,325.89a26.61,26.61,0,0,1,18,15.12h.88a8.75,8.75,0,0,1,4.87-3l-.37-1.25a5,5,0,0,0-1.63-4s.5-2.12-1.75-4.25a4.23,4.23,0,0,0-1.25-3.62s.13-2.13-2.62-3.88a11,11,0,0,0-.38-2.75c-.37-1.25-3.12-1.12-3.12-1.12A19.73,19.73,0,0,0,273.64,325.89Z" transform="translate(-219.78 -271.83)"/><path d="M236.81,278.18a10.64,10.64,0,0,0-10.63,10.63V493a10.64,10.64,0,0,0,10.63,10.63H356A10.64,10.64,0,0,0,366.6,493V288.81A10.64,10.64,0,0,0,356,278.18ZM227.6,493V288.81a9.22,9.22,0,0,1,9.21-9.21H356a9.22,9.22,0,0,1,9.21,9.21V493a9.22,9.22,0,0,1-9.21,9.21H236.81A9.22,9.22,0,0,1,227.6,493Z" transform="translate(-219.78 -271.83)"/><path d="M276.52,309.09c-1.06,1.21-1.69,4.06-1.91,5.21-6.52,1.25-10,4.62-12.75,7.35a26.61,26.61,0,0,1-2.57,2.34c-3.41,2.6-10.31,5.06-13.22,5.71a26.85,26.85,0,0,1-3.94.36c-2.85.14-6.08.29-8.56,1.53-3.07,1.54-4.78,4-4.78,6.57a6.16,6.16,0,0,0,.63,2.7c1.51,3.19,4.84,4.42,8.68,3.2,2.34-.73,4.32-2.56,5.77-3.9l1.58-1.35a8.75,8.75,0,0,1,6.23-.91,27,27,0,0,0,12.66.69c6.17-1,8.79-3.77,8.9-3.88l-1-1s-2.45,2.51-8.1,3.45a25.6,25.6,0,0,1-12-.65,10.15,10.15,0,0,0-7.44,1.09l-1.75,1.49a15.11,15.11,0,0,1-5.23,3.59c-3.17,1-5.78.08-7-2.46-1.3-2.73.12-5.7,3.51-7.39,2.21-1.11,5.28-1.26,8-1.38a28,28,0,0,0,4.18-.4c2.83-.63,10-3.1,13.77-6a29.87,29.87,0,0,0,2.71-2.46c2.7-2.67,6.06-6,12.48-7.07l.5-.09.08-.49c.18-1.06.82-4,1.67-5,.24-.27.38-.22.44-.2.48.18,1.15,1.36,1.15,3.4h1.42c0-2.4-.81-4.25-2.07-4.72A1.76,1.76,0,0,0,276.52,309.09Z" transform="translate(-219.78 -271.83)"/><path d="M278.58,309.76l1.29.59c0-.05.63-1.32,1.71-1.1.73.15,1.21,2.22,1.27,3.67l1.41-.06c0-.76-.29-4.58-2.4-5A3.11,3.11,0,0,0,278.58,309.76Z" transform="translate(-219.78 -271.83)"/><path d="M285.66,305.85c-2.49.21-3.26,3.74-3.3,3.89l1.39.3s.61-2.66,2-2.78c.21,0,.39.21.5.39.85,1.38.93,5.26-1.16,8.7l1.21.74c2.28-3.76,2.38-8.21,1.16-10.18A1.92,1.92,0,0,0,285.66,305.85Z" transform="translate(-219.78 -271.83)"/><path d="M266.19,331.57a33.22,33.22,0,0,1,16.12,12.55l1.17-.8a34.06,34.06,0,0,0-16.89-13.11Z" transform="translate(-219.78 -271.83)"/><path d="M287.71,316.35c-9.63.17-14.73,9.15-14.94,9.53l-.56,1,1.16,0c10.12.32,17.32,14.14,17.39,14.28l1.26-.64c-.29-.58-7.12-13.64-17.41-14.93,1.5-2.18,6-7.69,13-7.86a2.43,2.43,0,0,1,1.39,1.09,1.53,1.53,0,0,1,.13.64,2.65,2.65,0,0,1-.26,1.09l1.29.58a3.37,3.37,0,0,0,.11-2.93,4,4,0,0,0-2.41-1.88l-.09,0Z" transform="translate(-219.78 -271.83)"/><path d="M285.29,320.4c-4.24,1.69-8.69,5.79-8.88,6l1,1c.05,0,4.46-4.1,8.45-5.7a4.38,4.38,0,0,1,5,1c.6.66.72,1.24.64,1.39l1.27.64a2.84,2.84,0,0,0-.87-3A5.74,5.74,0,0,0,285.29,320.4Z" transform="translate(-219.78 -271.83)"/><path d="M288.66,323.35a13.44,13.44,0,0,0-8.83,4.6l1.12.88a12.15,12.15,0,0,1,7.84-4.07,4.18,4.18,0,0,1,3.31.85,4.48,4.48,0,0,1,1.25,2.95h1.42a5.84,5.84,0,0,0-1.71-4A5.52,5.52,0,0,0,288.66,323.35Z" transform="translate(-219.78 -271.83)"/><path d="M290.17,327.18a9.67,9.67,0,0,0-6.85,3.28l1.14.86a8.2,8.2,0,0,1,5.82-2.72,4.22,4.22,0,0,1,4.19,2.21,1.65,1.65,0,0,1,.26,1.29h0l.63,1.27a1.89,1.89,0,0,0,.7-2.35A5.62,5.62,0,0,0,290.17,327.18Z" transform="translate(-219.78 -271.83)"/><path d="M286.61,333.41l.56,1.3a18.11,18.11,0,0,1,6.68-1.45,2.35,2.35,0,0,1,2.12,1.38,2.18,2.18,0,0,1,.17,1.68l.05,0,.73,1.22c.77-.46.86-1.68.61-2.68a3.81,3.81,0,0,0-3.6-3A18.87,18.87,0,0,0,286.61,333.41Z" transform="translate(-219.78 -271.83)"/><path d="M327.58,324.53c-1.67,1.52-5.12,5.22-5.87,6a26.48,26.48,0,0,0-9,3.06c-3.9,2.37-10.13,9.89-11.07,11.39-.69,1.11-4.62,3.87-6.47,4.55-.59.21-1.75.46-3.1.75a36.2,36.2,0,0,0-8.32,2.45,7.71,7.71,0,0,0-4,4.9,5.53,5.53,0,0,0-.14,1.2,4.6,4.6,0,0,0,.9,2.78c1.78,2.44,5.08,3,10.07,1.77a20.16,20.16,0,0,0,5.51-2.65c1.82-1.12,3.54-2.17,5.22-2.33l1.13-.08a35.81,35.81,0,0,0,8.49-1.44c5.7-1.56,8-5.16,8.08-5.31l-1.2-.75a12.81,12.81,0,0,1-7.25,4.69,35,35,0,0,1-8.19,1.4l-1.19.08c-2,.19-3.87,1.32-5.83,2.53a19.14,19.14,0,0,1-5.11,2.48c-4.37,1.1-7.18.69-8.59-1.23a3.36,3.36,0,0,1-.52-2.82,6.35,6.35,0,0,1,3.28-4c2-1,5.44-1.79,8-2.33a29.75,29.75,0,0,0,3.28-.8c1.81-.66,6.21-3.55,7.19-5.13.88-1.4,6.95-8.71,10.6-10.93a26.18,26.18,0,0,1,8.73-2.91l.25,0,.18-.19s4.16-4.49,5.95-6.12a6.33,6.33,0,0,1,5.51-1.67l.37-1.37A7.73,7.73,0,0,0,327.58,324.53Z" transform="translate(-219.78 -271.83)"/><path d="M333.32,322.75l-.76.8A60.25,60.25,0,0,0,328,330l1.2.76a60.15,60.15,0,0,1,4.4-6.21l.8-.85c.89-.95,1.65-1.78,2.53-1.78a2.83,2.83,0,0,1,1.84.63l1-1a4.17,4.17,0,0,0-2.83-1C335.39,320.51,334.34,321.65,333.32,322.75Z" transform="translate(-219.78 -271.83)"/><path d="M340.18,320.66c-1.29.07-2.93.7-3.31,2.22-.33,1.33-3.24,4.7-5,6.52l1,1c.49-.51,4.81-5,5.34-7.15.18-.73,1.18-1.11,2-1.15s1.39.2,1.47.39l1.32-.5C342.72,321.09,341.6,320.58,340.18,320.66Z" transform="translate(-219.78 -271.83)"/><path d="M340.61,323.37c-.47.82-3.9,5-6.09,7.56l1.08.92c.56-.67,5.56-6.59,6.24-7.78,1.43-2.5,2-2.54,2.07-2.55.41.21.94,1.37.94,3.07a8.47,8.47,0,0,1-.16,1.67c-.42,2.28-3.74,5.64-6.3,7l.67,1.25c2.51-1.34,6.46-4.95,7-8,.52-2.82-.16-5.57-1.55-6.27C342.87,319.42,341.28,322.19,340.61,323.37Z" transform="translate(-219.78 -271.83)"/><path d="M312.94,349.59c.08,0,8,1.35,12.27,5.79l1.4,1.46c3.69,3.87,5.92,6.2,10.52,8,2.95,1.18,6.52,1.46,9.68,1.7a26.34,26.34,0,0,1,5.68.81,83.59,83.59,0,0,1,8.25,3.63,1.12,1.12,0,0,0,1.48-.5,2.64,2.64,0,0,0-1.09-3.38l-.68-.51c-2.42-1.87-8.82-6.83-17-5.44l.23,1.4c7.58-1.29,13.63,3.39,15.91,5.16l.74.55a1.6,1.6,0,0,1,.73,1.05.76.76,0,0,1,0,.15.24.24,0,0,1,0,.09,83.25,83.25,0,0,0-8.08-3.54,26.45,26.45,0,0,0-6-.88c-3-.23-6.5-.5-9.26-1.61-4.31-1.72-6.46-4-10-7.7l-1.4-1.46c-4.61-4.78-12.72-6.15-13.06-6.21Z" transform="translate(-219.78 -271.83)"/><path d="M338.7,355.18l0,1.42c11.09-.32,16,7.57,16,7.65l1.22-.73C355.78,363.17,350.65,354.84,338.7,355.18Z" transform="translate(-219.78 -271.83)"/><path d="M332.48,348.85l.16,1.41c11.13-1.26,14.78,7.36,14.93,7.73l1.31-.53C348.84,357.36,344.71,347.47,332.48,348.85Z" transform="translate(-219.78 -271.83)"/><path d="M329,345l.13,1.41c12.2-1.1,14.34,5.85,14.42,6.15l1.37-.38C344.81,351.86,342.43,343.81,329,345Z" transform="translate(-219.78 -271.83)"/><path d="M326.5,341.52l.11,1.41c11.44-.93,12.54,4.35,12.58,4.58l1.4-.23C340.54,347,339.34,340.48,326.5,341.52Z" transform="translate(-219.78 -271.83)"/><path d="M343.53,329.69a8.11,8.11,0,0,1-1.82,6.55c-2.59,2.73-5.83,2.44-7.56,2.28a13.58,13.58,0,0,1-3.33-.79l-.26-.1-.27.1a42.59,42.59,0,0,1-8.83,2.29l.19,1.4a43.58,43.58,0,0,0,8.91-2.27,14.79,14.79,0,0,0,3.43.78c1.86.17,5.69.52,8.75-2.72a9.44,9.44,0,0,0,2.18-7.79Z" transform="translate(-219.78 -271.83)"/><path d="M333.21,340c3,1.69,2.81,3.28,2.81,3.29l1.4.22c0-.26.31-2.55-3.51-4.74Z" transform="translate(-219.78 -271.83)"/><path d="M333.88,359.18l0,1.42c5.78-.08,8.46,1.35,9.69,2.57a3.88,3.88,0,0,1,1.26,2.54l1.41,0a5.13,5.13,0,0,0-1.63-3.53C342.58,360.13,339,359.11,333.88,359.18Z" transform="translate(-219.78 -271.83)"/><path d="M329.15,355.26c10.52,1.1,12.73,6.18,12.75,6.23l1.32-.53c-.1-.24-2.46-5.91-13.92-7.11Z" transform="translate(-219.78 -271.83)"/><path d="M325.87,350.1c10.59.31,12.1,6.82,12.16,7.1l1.39-.29c-.07-.32-1.75-7.88-13.51-8.23Z" transform="translate(-219.78 -271.83)"/><path d="M321.54,346.26c10.14.31,11,4.69,11,4.73l1.4-.2c0-.22-.87-5.6-12.34-5.94Z" transform="translate(-219.78 -271.83)"/><path d="M319.16,341l.12,1.41c8.83-.76,9.71,4.5,9.74,4.72l1.4-.19C330.42,346.89,329.38,340.14,319.16,341Z" transform="translate(-219.78 -271.83)"/><path d="M269.47,350.82l-.81,1.18,1.43-.07c6.17-.32,15.4,1.47,15.5,1.49l.27-1.39a87.67,87.67,0,0,0-13.93-1.55c2.14-1.49,7.21-3.59,17.28-.91l.36-1.37C274.26,344.12,269.66,350.55,269.47,350.82Z" transform="translate(-219.78 -271.83)"/><path d="M299.25,342.14a35.46,35.46,0,0,1-3.58,2.82c-3.73,2.43-13.28,6.23-13.37,6.27l.52,1.32c.4-.16,9.77-3.89,13.62-6.4a37,37,0,0,0,3.73-2.93c2.63-2.24,5.6-4.78,10.12-6.33l-.46-1.34C305.05,337.18,302,339.82,299.25,342.14Z" transform="translate(-219.78 -271.83)"/><path d="M276.8,347.16l1.17.8c.17-.24,4.09-5.62,16.16-.91l.52-1.32C281.44,340.58,277,346.89,276.8,347.16Z" transform="translate(-219.78 -271.83)"/><path d="M282.67,344l1.11.88c.17-.21,4.23-5.05,15.22-1.43l.44-1.35C287.45,338.11,282.86,343.71,282.67,344Z" transform="translate(-219.78 -271.83)"/><path d="M290.79,341.17l1.19.77c.13-.19,3.19-4.66,11.19-2l.44-1.35C294.53,335.58,290.94,340.94,290.79,341.17Z" transform="translate(-219.78 -271.83)"/><path d="M297.2,337.75l1.05.95c.23-.25,5.63-6.1,13.39-3.15l.5-1.32C303.46,330.93,297.26,337.68,297.2,337.75Z" transform="translate(-219.78 -271.83)"/><path d="M288.6,336.07l.58,1.3c.22-.1,5.51-2.38,8.13,1.27l1.16-.83C295.83,334.14,290.86,335.07,288.6,336.07Z" transform="translate(-219.78 -271.83)"/><path d="M295.85,346.23a7.2,7.2,0,0,1,2.85,2l1.05-.95a8.27,8.27,0,0,0-3.49-2.37Z" transform="translate(-219.78 -271.83)"/><path d="M300.11,343.25A8.64,8.64,0,0,1,303,344.3l.82-1.15a9.62,9.62,0,0,0-3.46-1.29Z" transform="translate(-219.78 -271.83)"/><path d="M290.66,349.06a32.85,32.85,0,0,1,4.3,1.73l.86-1.13a32.71,32.71,0,0,0-4.7-1.94Z" transform="translate(-219.78 -271.83)"/><path d="M280.29,370.77l.83,1.29,1.78-5.78a3.81,3.81,0,0,1,1.92-2.24l-.53-1.31a5.19,5.19,0,0,0-2.74,3.1l-.84,2.75a7.39,7.39,0,0,1-.77-3.13,4.82,4.82,0,0,1,1.56-3.67l-.88-1.11C280.57,360.7,276.16,364.31,280.29,370.77Z" transform="translate(-219.78 -271.83)"/><path d="M236,325c-.72.33-.89.75-.9,1a.85.85,0,0,0,.43.79c.66.4,4.87,3.48,6.44,4.63l.84-1.14c-.19-.15-4-3-5.78-4.18,1.5-.38,5.5-.41,11.43,4.14l.86-1.12C242.72,324.08,237.84,324.16,236,325Z" transform="translate(-219.78 -271.83)"/><path d="M241.77,325.18l.91,1.08a7,7,0,0,1,4.8-1.33c2.94.31,6.3,2.68,6.33,2.7l.83-1.15c-.15-.11-3.69-2.61-7-3A8.26,8.26,0,0,0,241.77,325.18Z" transform="translate(-219.78 -271.83)"/><path d="M252.14,320.85a8.41,8.41,0,0,0-5.14,2.93l1.11.88a7.09,7.09,0,0,1,4.2-2.4c2-.24,4.85,1.95,5.76,2.81l1-1C258.89,323.9,255.27,320.48,252.14,320.85Z" transform="translate(-219.78 -271.83)"/><path d="M253.59,321.24l1.26.64c0-.06.88-1.56,3.64-1.29,2.95.3,3.9,1.14,3.91,1.14l1-1c-.12-.12-1.28-1.19-4.76-1.54C254.85,318.81,253.64,321.14,253.59,321.24Z" transform="translate(-219.78 -271.83)"/><rect x="230.85" y="316.01" width="1.42" height="12.76" transform="translate(-383.59 15.44) rotate(-49.24)"/><path d="M226.5,313.79l.75,1.21s3.83-1.73,15.63,10.38l1-1C231.19,311.35,227,313.51,226.5,313.79Z" transform="translate(-219.78 -271.83)"/><path d="M233.86,316.45l.73,1.21a7.33,7.33,0,0,1,4.49-.91,15.17,15.17,0,0,1,8.68,6.79l1.26-.63c-1.93-3.87-6.93-7-9.66-7.55A8.63,8.63,0,0,0,233.86,316.45Z" transform="translate(-219.78 -271.83)"/><path d="M241.29,316.23l.53,1.32c.23-.1,5.76-2.19,10.84,4.44l1.13-.87C248,313.62,241.36,316.21,241.29,316.23Z" transform="translate(-219.78 -271.83)"/><path d="M246.62,316.16l.86,1.13c.08-.06,2-1.42,5.37-.39s4.18,2.84,4.22,2.92l1.32-.52c0-.1-1-2.5-5.13-3.76S246.73,316.08,246.62,316.16Z" transform="translate(-219.78 -271.83)"/><path d="M254.38,317l1.35.45a2.8,2.8,0,0,1,2.78-1.85c2,.12,5.81,2.82,7.11,3.84l.88-1.11c-.21-.16-5-4-7.9-4.15A4.19,4.19,0,0,0,254.38,317Z" transform="translate(-219.78 -271.83)"/><path d="M286.71,308.18l1.36.42s.85-2.59,2.73-2.34c.4.05.62.49.74.85.64,1.94-.22,6.3-3.48,9.43l1,1c3.48-3.36,4.7-8.27,3.84-10.9a2.41,2.41,0,0,0-1.91-1.82C288.54,304.53,287.12,306.88,286.71,308.18Z" transform="translate(-219.78 -271.83)"/><path d="M226.1,345.06h1.42c0-2.32,2.32-4.46,2.35-4.48l-1-1.05C228.8,339.63,226.1,342.11,226.1,345.06Z" transform="translate(-219.78 -271.83)"/><path d="M226,349.27l1.4.24c.74-4.44,5.25-5.39,5.44-5.43l-.27-1.39C232.53,342.7,226.93,343.85,226,349.27Z" transform="translate(-219.78 -271.83)"/><path d="M235.06,336.72s-1.34.34-1.34,1.34.67,1,1.34,1,1.83-.34,1.33-1.34A1.61,1.61,0,0,0,235.06,336.72Z" transform="translate(-219.78 -271.83)"/><path d="M285.64,356.26s-1,0-1,.88a1.25,1.25,0,0,0,1.25,1.25c.5,0,.88-.13.88-1.25S285.64,356.26,285.64,356.26Z" transform="translate(-219.78 -271.83)"/><path d="M303.31,313.93s-1,0-1,.88a1.25,1.25,0,0,0,1.25,1.25c.5,0,.87-.13.87-1.25S303.31,313.93,303.31,313.93Z" transform="translate(-219.78 -271.83)"/><path d="M322.92,289.07a17.57,17.57,0,0,1-8.63,7.83c-5,2.05-10.46,7.79-11.06,9.41a16.41,16.41,0,0,1-3.82,5.39,7.3,7.3,0,0,0-2.23,5.46,4,4,0,0,0,1.63,3.14c2.3,1.64,6.49,2.27,10.71-1.38a12.59,12.59,0,0,0,3.69-5.92,7.76,7.76,0,0,1,1.51-2.94,4.23,4.23,0,0,1,3.39-1.47l.12,0,.12,0c10-1.87,13-6.63,13.15-6.83l-1.21-.74s-2.85,4.41-12.14,6.16a5.56,5.56,0,0,0-4.43,1.87,8.85,8.85,0,0,0-1.84,3.47,11.26,11.26,0,0,1-3.29,5.33c-3.59,3.11-7.07,2.64-9,1.3a2.65,2.65,0,0,1-1-2.08,5.9,5.9,0,0,1,1.78-4.33,17.5,17.5,0,0,0,4.18-5.94c.41-1.07,5.48-6.61,10.28-8.59a18.85,18.85,0,0,0,9.36-8.5c1.12-2.25,5.39-5.75,7.32-5.61l.1-1.42C328.92,282.49,324.16,286.59,322.92,289.07Z" transform="translate(-219.78 -271.83)"/><path d="M329.52,288.16l1.41.13c0-.07.69-6.75,5.54-8.57l-.5-1.33C330.29,280.52,329.55,287.85,329.52,288.16Z" transform="translate(-219.78 -271.83)"/><path d="M326,301.26c.08,0,7.82.54,12.09,4.17,4.53,3.86,9.67,12,11.36,14.67,2.2,3.48,6.21,5.33,13,6l1.44.15-.78-1.23a40.14,40.14,0,0,0-4.58-5.44c-3.29-3.46-6.51-5.25-9.07-5.05l.11,1.41c2.1-.16,5,1.52,7.93,4.61,1.67,1.75,2.77,3.06,3.46,3.94-5.34-.73-8.58-2.34-10.34-5.14s-7-11-11.64-15-12.58-4.48-12.92-4.5Z" transform="translate(-219.78 -271.83)"/><path d="M344.92,308.08c10.38,2.05,12.36,11.7,12.44,12.11l1.39-.27c0-.11-2.22-11-13.56-13.23Z" transform="translate(-219.78 -271.83)"/><path d="M342.05,301.41c9.94,2.52,12.29,11.88,12.32,12l1.38-.33c0-.1-2.56-10.28-13.35-13Z" transform="translate(-219.78 -271.83)"/><path d="M338.56,296.1c10.89,0,12.4,10.12,12.46,10.55l1.4-.19c0-.12-1.72-11.78-13.86-11.78Z" transform="translate(-219.78 -271.83)"/><path d="M337.62,290.76c9.38,1.4,11.49,10.24,11.58,10.62l1.38-.31c0-.1-2.39-10.16-12.75-11.72Z" transform="translate(-219.78 -271.83)"/><path d="M348.52,279.14c0,.18-.59,4.32-6.92,7.1l.57,1.3c4.92-2.16,6.71-5.14,7.36-6.86a6.51,6.51,0,0,1,1.3,3.95,7.52,7.52,0,0,1-.29,2.07c-1.18,4.26-7.27,4.48-7.34,4.48l0,1.42c.29,0,7.21-.24,8.67-5.52a8.26,8.26,0,0,0-2.23-8.4Z" transform="translate(-219.78 -271.83)"/><path d="M337.21,285.9l1,1c2.49-2.62,6.61-6.91,7.07-7.26l-.85-1.13C343.78,279,338.3,284.75,337.21,285.9Z" transform="translate(-219.78 -271.83)"/><path d="M333.77,286.55l1.24.68c1-1.81,3.9-6.69,5.4-7.56l-.71-1.23C337.59,279.67,334.15,285.85,333.77,286.55Z" transform="translate(-219.78 -271.83)"/><path d="M277.06,301.05c-.93.93-.9,1.68-.7,2.15.43,1.05,2,1.56,4.86,1.56a42.91,42.91,0,0,0,6.58-.89c3.4-.62,7.25-1.32,9.47-.95l8.15,1.5.28-1.39-8.19-1.51c-2.47-.41-6.28.28-10,1a42.52,42.52,0,0,1-6.33.88c-2.67,0-3.48-.51-3.56-.69s0-.23.4-.6c1.11-1.12,14.7-3.52,25.06-2l.21-1.4C293.76,297.25,278.91,299.19,277.06,301.05Z" transform="translate(-219.78 -271.83)"/><path d="M290,294.06c-5.33,1.95-5.93,5.24-6,5.38l1.4.24c0-.11.56-2.65,5.05-4.29,4.67-1.72,15.52,3.1,15.63,3.15l.58-1.3C306.21,297,295.19,292.15,290,294.06Z" transform="translate(-219.78 -271.83)"/><path d="M296.17,290.18a8.09,8.09,0,0,0-6.59,4.24l1.28.61a6.65,6.65,0,0,1,5.42-3.43c4.09-.32,14.36,4.71,14.46,4.76l.63-1.27C310.93,294.87,300.64,289.84,296.17,290.18Z" transform="translate(-219.78 -271.83)"/><path d="M297.22,290.66l1.34.46c0-.1.95-2.52,5.16-2.52,4.48,0,11.09,6.87,11.16,6.94l1-1c-.28-.31-7.1-7.39-12.18-7.39C298.44,287.18,297.27,290.52,297.22,290.66Z" transform="translate(-219.78 -271.83)"/><path d="M309.78,290.19l1.22.73a4.08,4.08,0,0,1,4.12-1.66c3,.45,5.52,3.54,5.55,3.57l1.11-.88c-.12-.15-2.88-3.56-6.45-4.1A5.49,5.49,0,0,0,309.78,290.19Z" transform="translate(-219.78 -271.83)"/><path d="M316.58,288.7l.95,1.05s3.4-3,5.72-1l.94-1.06C321.57,285.38,318.07,287.34,316.58,288.7Z" transform="translate(-219.78 -271.83)"/><path d="M298.57,301.87l1,1c.08-.08,7.94-7.3,18.83-7l0-1.42C306.92,294.18,298.91,301.56,298.57,301.87Z" transform="translate(-219.78 -271.83)"/><path d="M298.94,329.24l1.32-.38s-.1-4.39,2.78-7.12l-1-1a10.48,10.48,0,0,0-2.91,5.41,8.87,8.87,0,0,1-.33-2.32,6.88,6.88,0,0,1,1-3.68l-1.17-.8C298.52,319.49,295.76,323.58,298.94,329.24Z" transform="translate(-219.78 -271.83)"/><path d="M227.06,385.56s50.83-6.92,90.58,9.58c0,0,26.25.25,48,11l.25,88.08s-.18,8.17-9.92,8.67H235.39a10.34,10.34,0,0,1-8.5-9.92Z" transform="translate(-219.78 -271.83)"/></svg>