<svg id="_8_3" xmlns="http://www.w3.org/2000/svg" viewBox="0 0 153.07 238.11"><defs><style>.cls-1{fill:#ed1c24;}.cls-2{fill:#fff;}</style></defs><title>_8_3</title><rect class="cls-1" width="153.07" height="238.11"/><path class="cls-2" d="M229.44,314.48l-.25,98.25,17.75,5,48.5,5.25,72.25,4.5-.25-113.25s-.5-8.5-10-9H239.19S230.44,304.48,229.44,314.48Z" transform="translate(-221.9 -298.42)"/><path d="M239.36,304.52a10.64,10.64,0,0,0-10.63,10.63V519.81a10.64,10.64,0,0,0,10.63,10.63H357.52a10.64,10.64,0,0,0,10.63-10.63V315.15a10.64,10.64,0,0,0-10.63-10.63Zm-9.22,215.29V315.15a9.23,9.23,0,0,1,9.22-9.21H357.52a9.22,9.22,0,0,1,9.21,9.21V519.81a9.22,9.22,0,0,1-9.21,9.21H239.36A9.23,9.23,0,0,1,230.14,519.81Z" transform="translate(-221.9 -298.42)"/><path d="M229.44,411s23-9.5,67.25-8.25S367.19,426,367.19,426l.25,94.75s-.35,9.25-9.92,9L238.69,530s-8.25-.84-9.25-10.17Z" transform="translate(-221.9 -298.42)"/></svg>