<svg id="_8_4" xmlns="http://www.w3.org/2000/svg" viewBox="0 0 153.07 238.11"><defs><style>.cls-1{fill:#ed1c24;}.cls-2{fill:#fff;}</style></defs><title>_8_4</title><rect class="cls-1" width="153.07" height="238.11"/><path class="cls-2" d="M225.11,306.16v99.17L238.28,410,317,417.33l45.83-.67V306.33s-.17-8.34-9.92-9.34H235.2S227.11,296.83,225.11,306.16Z" transform="translate(-217.49 -289.94)"/><path d="M235.2,296.29a10.64,10.64,0,0,0-10.63,10.63V511.07A10.64,10.64,0,0,0,235.2,521.7H352.86a10.64,10.64,0,0,0,10.63-10.63V306.92a10.64,10.64,0,0,0-10.63-10.63ZM226,511.07V306.92a9.23,9.23,0,0,1,9.21-9.22H352.86a9.23,9.23,0,0,1,9.21,9.22V511.07a9.23,9.23,0,0,1-9.21,9.22H235.2A9.23,9.23,0,0,1,226,511.07Z" transform="translate(-217.49 -289.94)"/><path d="M225,404.49s25.5-9.5,70.5-8.25,66.25,18.25,67,19.5l.25,95.75s-.51,9-9.92,9.5H234.45s-8.5-.5-9.17-9.92Z" transform="translate(-217.49 -289.94)"/></svg>