<svg id="_9_1" xmlns="http://www.w3.org/2000/svg" viewBox="0 0 153.07 238.11"><defs><style>.cls-1{fill:#ed1c24;}.cls-2{fill:#fff;}.cls-3{fill:#007b85;}.cls-4{fill:#0066b3;}.cls-5{fill:#ffcb05;}</style></defs><title>_9_1</title><rect class="cls-1" width="153.07" height="238.11"/><path class="cls-2" d="M222.26,290v22.75l4.75,68.5,18.75,63.5L257,459.29l48,1.5,29-2L358.76,451V318.54l-8.5-10.25-21.5-17.17-26.33-5-20.67-5.67-49.83.34S223.43,280.29,222.26,290Z" transform="translate(-213.98 -273.48)"/><path class="cls-3" d="M311.43,487.45l47.17.67.16,7.33s-1.5,8.84-9.16,9l-24.5-.33-12-9.67Z" transform="translate(-213.98 -273.48)"/><path class="cls-4" d="M228.26,445.12l33.34,2,35.16,1,61.84,2.17v37.83l-48-.83-59-.34-29.34-5.66v-29.5S222.6,445.29,228.26,445.12Z" transform="translate(-213.98 -273.48)"/><path class="cls-1" d="M269.93,432l36.5,22.17,4.5-7.5s19.67,3.83,36-8.17c0,0-1-14.33-14.5-32.16s-35.33-22.67-35.33-22.67l-10-10-9-20.67-11.84-5-7.33-3.66-10.5-5.5s-8.83-2.5-10.33-3S226.26,338,226.26,338l-4.33,6.84.17,31.5-.21,42.87,5.21,10.63,9.5,3,18.83-2.34Z" transform="translate(-213.98 -273.48)"/><path class="cls-1" d="M274.26,318.16a14.07,14.07,0,0,1-10,2.63c-5.87-.75-11.5-3.25-14.5-4.38s-7.75-2.25-7.75-2.25l8-3.62,5.75-8.88a13,13,0,0,0-4.37-4.12,32.81,32.81,0,0,0-4.63-2.25s4.63-1.13,6.5-1.63,8.75-.87,13.88,2l8.62-2s2-6.12,2.13-6.75-.25-2.75.5-1.12a56.08,56.08,0,0,0,3.12,5.37c.88,1.38,2.75,4,2.75,4l5.25,7.88s3.13-3.25,5.88-4.25,6.75-2.63,6.75-2.63a38.6,38.6,0,0,0-1.63,4.38,28.94,28.94,0,0,1-1.12,3.5l5.37,3.62a64.92,64.92,0,0,1,6.88-1.87,37.25,37.25,0,0,1,7-.25,33.56,33.56,0,0,0-4.25,3.25c-1.38,1.37-4,5.87-5.38,7.12l11,7.25,5.75,7.25,1.63,2.88s-6.63-.13-10.75-.5-12.38-1.13-20.25-7.25L282.26,322Z" transform="translate(-213.98 -273.48)"/><path class="cls-5" d="M231,415.29s.38,6.75,3.5,10.5a17.55,17.55,0,0,0,6.38,5l3-3.25v-2.63s-5.25-2.62-5.5-12.62A6.32,6.32,0,0,1,231,415.29Z" transform="translate(-213.98 -273.48)"/><path class="cls-5" d="M242.76,412.79s2.38,6.87,7.63,9.37,8,1,8,1l-1.75-7s-6.13-1.25-7.75-7A12,12,0,0,1,242.76,412.79Z" transform="translate(-213.98 -273.48)"/><path class="cls-5" d="M239.14,398.91s-1.38,6.88-1.63,8.75,2.63,5.25,6.38,4.63,6.87-5.38,6.25-11.25l-3.88-4.13S244.26,399.66,239.14,398.91Z" transform="translate(-213.98 -273.48)"/><path class="cls-5" d="M222.26,395.79l3.38-2.88,2.12,4.38a18.38,18.38,0,0,0-1.62,6.87,14.34,14.34,0,0,0,1,6.75s-1,4.38-2.5,6.13a6.66,6.66,0,0,1-2.75,2.12Z" transform="translate(-213.98 -273.48)"/><path class="cls-5" d="M229,383.29a12.22,12.22,0,0,0-2.87,5c-1,3.25,1.25,8.37,1.25,8.37a1.87,1.87,0,0,0,1.5.75c1,0,5.12-3,5.5-6s1.62-9.5,1.62-9.5l-1.25,1.5S231.26,386,229,383.29Z" transform="translate(-213.98 -273.48)"/><path class="cls-5" d="M247.39,378s1.62,5.62,4.37,7.37,7.63,1.13,8.88-.62a6,6,0,0,0-1.88-8.25,10.59,10.59,0,0,0-6.87-1.5s-1.63,2.12-2.88,2.12S247.39,377.66,247.39,378Z" transform="translate(-213.98 -273.48)"/><path class="cls-5" d="M232.14,364.79a13.37,13.37,0,0,0-6.63,2.62c-3,2.38-3.12,4.63-3.12,5.5s-.38,2.25,2.25,3.25,3.87,0,3.87,0a31.5,31.5,0,0,1,6.25-7.5S232.39,366.79,232.14,364.79Z" transform="translate(-213.98 -273.48)"/><path class="cls-5" d="M230.14,356.54a5.89,5.89,0,0,0-1.5-4.13c-1.75-2.12-4.5-2.25-5.38-1.75a2.89,2.89,0,0,0-1.12,1.75l.12,6.38A7.38,7.38,0,0,1,230.14,356.54Z" transform="translate(-213.98 -273.48)"/><path class="cls-5" d="M229.76,356.41s3.13.63,4.13,4.75a6.08,6.08,0,0,1,4.62-1.75,21.91,21.91,0,0,0,1.38-2.62c.25-.75.25-4-3.88-4.75A5.34,5.34,0,0,0,229.76,356.41Z" transform="translate(-213.98 -273.48)"/><path class="cls-5" d="M234.64,351.91s-.38-8.87.5-11.62,5.87-1.38,6.25-1.25,3.12,5.12,3.12,5.12l-.62,2.88a19.9,19.9,0,0,0-1.25,7l-2.75,2.75S240.14,351.41,234.64,351.91Z" transform="translate(-213.98 -273.48)"/><path class="cls-5" d="M241.76,366.41s3.75-2,9.25,1.25a7.17,7.17,0,0,0,.88-4.5c-.5-2.12-3.13-3.12-5.75-2.75a8.91,8.91,0,0,0-4.38,2Z" transform="translate(-213.98 -273.48)"/><path class="cls-5" d="M251.89,366s5.5-3.38,13.5,1.5a3.58,3.58,0,0,0,3.12-3.75,5.06,5.06,0,0,0-4.5-5.38,13.82,13.82,0,0,0-12.12,4.75Z" transform="translate(-213.98 -273.48)"/><path class="cls-5" d="M254.39,344.54a5.78,5.78,0,0,1,10.75-.25,19.33,19.33,0,0,1,1.25,6.37l-1.5-.25s-4.5-2.5-7.75-1C257.14,349.41,257.64,347.41,254.39,344.54Z" transform="translate(-213.98 -273.48)"/><path class="cls-5" d="M272,313s-.75,3-8.75,2.12A28.48,28.48,0,0,1,249.64,310c-1-.63-6.88-3.5-6.88-3.5s0-.38,1.88-1a28.29,28.29,0,0,0,5.5-2.13c1.37-.87,4.5-2.25,6.37-1.62a22.52,22.52,0,0,0,6.25,5.12,17.71,17.71,0,0,0,7.5,2Z" transform="translate(-213.98 -273.48)"/><path class="cls-5" d="M279,317.79s-4.62-.13-7.75-6.75a46.63,46.63,0,0,1-4-17.13c-.12-3.37-.25-7.62-.25-7.62a46.52,46.52,0,0,0,4,3.75c1.5,1.12,4.5,4,4.5,4s-.75,2.87-.75,10.12A24.59,24.59,0,0,0,279,317.79Z" transform="translate(-213.98 -273.48)"/><path class="cls-5" d="M285.89,290s-2.38,7.37-3.13,10.37-1.5,7.75-.37,12.13a50.72,50.72,0,0,0,3.5,9l.75-1.38,1-2a38.31,38.31,0,0,0,2-13.12,41.39,41.39,0,0,0-2.75-12.25A21.62,21.62,0,0,0,285.89,290Z" transform="translate(-213.98 -273.48)"/><path class="cls-5" d="M299.39,304s5.75-2.25,7.25-3a5.76,5.76,0,0,1,2-.75A3,3,0,0,1,308,302a28.12,28.12,0,0,0-3.37,5.12,40.45,40.45,0,0,1-6,10.25,8.79,8.79,0,0,1-8.38,3.38c-1,0-1.87-1.88-1.5-2.13a13.22,13.22,0,0,0,6.38-5A29.25,29.25,0,0,0,299.39,304Z" transform="translate(-213.98 -273.48)"/><path class="cls-5" d="M296.51,321.79s1,2.12,7.13,3,11.62.37,16,1.75a15.71,15.71,0,0,1,7.12,5.12s-2-5.5-2.75-7.5-3.62-5.87-8.62-7.75-7.5,0-7.5,0a10.35,10.35,0,0,1-8.38,4.75S296.26,320.91,296.51,321.79Z" transform="translate(-213.98 -273.48)"/><path class="cls-1" d="M274.14,281a9.66,9.66,0,0,0,7.75,5.25A16.7,16.7,0,0,0,292,284.41a6,6,0,0,0,.38,6.25c2.25,3,7.5,4.13,10.62,1,0,0,1.75,7.38,9.25,8.63s9.63-2.88,9.63-2.88a10.85,10.85,0,0,0,6.75,4.75s2.25,5.88,4,7.38c0,0-3.25,3.87-2.38,8.12s6.63,8,12.25,8.25,10.63-4.62,11.25-6.87c0,0,3.13,2.37,5,2V289.91s-.5-8.5-9.37-9.25h-72Z" transform="translate(-213.98 -273.48)"/><path d="M232.19,280.08a10.64,10.64,0,0,0-10.63,10.63V494.37A10.64,10.64,0,0,0,232.19,505H348.84a10.64,10.64,0,0,0,10.63-10.63V290.71a10.64,10.64,0,0,0-10.63-10.63ZM223,494.37V290.71a9.24,9.24,0,0,1,9.22-9.22H348.84a9.24,9.24,0,0,1,9.22,9.22V494.37a9.23,9.23,0,0,1-9.22,9.21H232.19A9.23,9.23,0,0,1,223,494.37Z" transform="translate(-213.98 -273.48)"/><path d="M261.33,383.85l-.47.13-.05.49a54.15,54.15,0,0,0,12.88,41.14c10.46,12.35,26.37,20.94,40.53,21.88,22.55,1.51,32.62-8,33-8.45l.24-.23,0-.34c0-.27-3-26.94-27.53-45.25S261.67,383.76,261.33,383.85Zm57.76,10.5A69.5,69.5,0,0,1,346,438.25c-1.61,1.38-11.64,9.17-31.7,7.83-13.8-.92-29.32-9.32-39.54-21.39a52.81,52.81,0,0,1-12.83-34.45c0-1.67.1-3.39.25-5.14C266.35,384.11,296.73,377.7,319.09,394.35Z" transform="translate(-213.98 -273.48)"/><path d="M261.47,383.83a.7.7,0,0,0-.66.75c0,.26,1.83,26.81,29.3,46s56.61,8.69,56.9,8.58a.7.7,0,0,0,.42-.91.72.72,0,0,0-.91-.42c-.29.11-28.74,10.39-55.6-8.41s-28.68-44.71-28.7-45A.71.71,0,0,0,261.47,383.83Z" transform="translate(-213.98 -273.48)"/><path d="M270.42,432.15l-.4.63.64.37c.28.17,28.79,16.79,35.43,21.71l.64.47,4.9-8.44-1.23-.71-4.11,7.08c-7.05-5-30.1-18.52-34.28-21l3.6-5.63-1.19-.77Z" transform="translate(-213.98 -273.48)"/><path d="M295.1,407.12a20.27,20.27,0,0,0-4.83-9c.76-1.54,1.79-1,2.83-.17,1.5,1.17,2.83,7.84,2.83,10.5v6.34c0,.5.67.16.83-1.17s1.84-6.5,1.84-12,0-7.67-2.84-9.33c-2.67-1.58-6.68.27-8.38,3.14a3.61,3.61,0,0,1,.05-1.81c.67-2.83.5-4,0-5.17a3.54,3.54,0,0,0-1.83-1.66,10,10,0,0,1-4.67,0c-2-.67-1.17.83-1,1.5a7.82,7.82,0,0,1,.17,3.5s-3-3-4.67-4.34a10.37,10.37,0,0,0-6.33-1.66c-1.5.16-3.17,3-2.84,4.5s2.5,4.5,4.17,6.16,5,3.17,3.83,1.84a63,63,0,0,1-3.66-5.5c-.5-1.17,3.5-.17,9.16,5A12.81,12.81,0,0,1,278.1,403a10.66,10.66,0,0,1-2.34,2.5s-.16.34,1,.34,5.17-1.84,7-4.67l.67-.67s.54.3,1.32.8a30.34,30.34,0,0,0,0,8.2c.67,4,3.34,5.5,5.5,5.5S296.43,413.45,295.1,407.12Zm-3.84,3.67c-1.42.28-2.23-2.6-2-6.87a9.8,9.8,0,0,1,1.69,2C292.6,408.79,292.93,410.45,291.26,410.79Z" transform="translate(-213.98 -273.48)"/><path d="M327.93,424.12c-.3-6.05-2.39-12.63-5.64-16.17a8.25,8.25,0,0,0,4.47-1.66c2.17-1.84-.49-5.34-4.83-6.34-3.34-.77-9.05-.05-11.79.54a5.4,5.4,0,0,1,1.62-2c1-.5,2-.33,2.67-1.66a3.36,3.36,0,0,0-2-4.34,5.28,5.28,0,0,0-5.83,1.5,5.58,5.58,0,0,1-3.5,2.5c-1.34.34-3.34,1.17-3.34,3.5s-4,18.5-4.16,19.17-.34,1.67-1,0-2.67-4-2.34-1.83c0,0,.5,3.66,1.34,7.33s.83,4.83,2.5,4.83,3.83-2.33,4.16-3.5,3.53-17.55,4.36-20.83c.12,0,.76,0,1.81,1.33l.24.34c-1.88,1.78-3.07,5-3.07,10.83,0,6.83,2.66,12.83,7,14.5s8-2,6.66-8.67a42.27,42.27,0,0,0-5.84-14c2.14-.61,4.68.39,6.68,3,3.83,5,5.83,13.17,6.16,16.67s.51,7,.17,7.67,1,.16,1.67-.17S328.24,430.32,327.93,424.12Zm-17.17,3c-1,0-4.66-4.83-3.5-11.83a8.79,8.79,0,0,1,1.78-4.24,45,45,0,0,1,3.56,9.74C313.76,426.45,311.76,427.12,310.76,427.12Zm-2.46-21.44a5.78,5.78,0,0,1-1.09-1.79,2.28,2.28,0,0,0,1.39-.94c.24-.32.45-.66.66-1h0a31.54,31.54,0,0,1,8.67.67c3.08.88,4.48,3.31,3.18,4.22C317.49,404,311.12,404.4,308.3,405.68Z" transform="translate(-213.98 -273.48)"/><path d="M237.77,358.69h0a6.7,6.7,0,0,0-6.06,5,4.52,4.52,0,0,0,.83,3.93,7.22,7.22,0,0,0,4.82,2.35,5.18,5.18,0,0,0,5.19-5.33,5.84,5.84,0,0,0-1.53-4.45,4.94,4.94,0,0,0-3.2-1.55Zm-4.16,8.09a2.88,2.88,0,0,1-.65-1.85,3.9,3.9,0,0,1,.1-.88c.78-3.52,4.42-3.91,4.74-3.94a3.6,3.6,0,0,1,2.17,1.11,4.37,4.37,0,0,1,1.14,3.15v.27a3.75,3.75,0,0,1-3.78,4A5.77,5.77,0,0,1,233.61,366.78Z" transform="translate(-213.98 -273.48)"/><path d="M228.45,375.17a10.68,10.68,0,0,0,0,8.07,3.61,3.61,0,0,0,2.16,2.06,4.16,4.16,0,0,0,3.43-.54c1.24-.8,2.84-2.6,3.46-6.7.85-5.6-.14-8.85-.19-9l-1.35.43a20.53,20.53,0,0,1,.14,8.35c-.42,2.78-1.42,4.81-2.82,5.71a2.71,2.71,0,0,1-2.28.38,2.36,2.36,0,0,1-1.27-1.31,9.3,9.3,0,0,1,.06-6.9c1.4-3.27,5.56-6.34,5.6-6.37l-.84-1.15C234.33,368.35,230,371.54,228.45,375.17Z" transform="translate(-213.98 -273.48)"/><path d="M239.72,368.88c.05,0,5.26,3.39,6,6.57.89,3.75,0,5.92-2.86,6.83-3.19,1-6.24-2.12-6.27-2.15l-1,1c.15.15,3.69,3.8,7.73,2.52,3.6-1.15,4.88-4,3.81-8.51-.89-3.73-6.41-7.28-6.64-7.43Z" transform="translate(-213.98 -273.48)"/><path d="M222.47,370.24a6.26,6.26,0,0,0-.36,5c1.21,3,6.43,1.81,6.65,1.76l-.33-1.38s-4.26,1-5-.91a4.84,4.84,0,0,1,.32-3.83c.86-1.74,3-4.15,8.55-5.73l-.39-1.36C225.89,365.49,223.45,368.24,222.47,370.24Z" transform="translate(-213.98 -273.48)"/><path d="M221.79,362.09c2.21,4.6,9.14,3.45,9.43,3.39l-.24-1.39c-.07,0-6.17,1-7.91-2.61Z" transform="translate(-213.98 -273.48)"/><path d="M221.68,359.21l1.16.82a7.74,7.74,0,0,1,5.76-3c3.38,0,4.43,4.12,4.48,4.3l1.37-.34c-.45-1.86-2.25-5.37-5.85-5.37A9.07,9.07,0,0,0,221.68,359.21Z" transform="translate(-213.98 -273.48)"/><path d="M241.11,366.15l.64,1.27a9.28,9.28,0,0,1,7.7.17A4.24,4.24,0,0,1,251.9,371a6.06,6.06,0,0,1-1.45,4.79,3.35,3.35,0,0,1-3.27.7l-.5,1.32a4.75,4.75,0,0,0,4.73-1,7.39,7.39,0,0,0,1.89-6,5.65,5.65,0,0,0-3.22-4.46A10.58,10.58,0,0,0,241.11,366.15Z" transform="translate(-213.98 -273.48)"/><path d="M241.22,362.66l1.09.92a7.39,7.39,0,0,1,6-2.42,3.43,3.43,0,0,1,2.9,3.07c.19,1.24-.17,2.21-.6,2.41l.58,1.29c1.11-.5,1.7-2.11,1.42-3.91a4.79,4.79,0,0,0-4.12-4.27A8.77,8.77,0,0,0,241.22,362.66Z" transform="translate(-213.98 -273.48)"/><path d="M243.7,352.9c-2.87,1.14-5.48,4.35-5.48,6.72h1.42c0-1.8,2.27-4.48,4.59-5.41a3.22,3.22,0,0,1,3.69.56c2.86,3,1.17,5.5,1.1,5.61l1.15.82s2.47-3.52-1.23-7.4A4.51,4.51,0,0,0,243.7,352.9Z" transform="translate(-213.98 -273.48)"/><path d="M234.52,351.25a5.6,5.6,0,0,0-5.3,5.17l1.42.07a4.2,4.2,0,0,1,4-3.83,3.59,3.59,0,0,1,3.74,1.57,2.83,2.83,0,0,1,.41,2.51l1.2.76a4.16,4.16,0,0,0-.41-4A5,5,0,0,0,234.52,351.25Z" transform="translate(-213.98 -273.48)"/><path d="M221.66,351.92l1.21.73c.41-.68,1.43-1.72,3.68-1s2.85,3.76,2.85,3.79l1.39-.27c0-.16-.78-3.92-3.81-4.87C223.59,349.22,222.05,351.27,221.66,351.92Z" transform="translate(-213.98 -273.48)"/><path d="M234.24,392.12c1.23,4.9,3.85,7.71,7.19,7.71a7.09,7.09,0,0,0,5-2.44,9.54,9.54,0,0,0,2.52-7.15,14.42,14.42,0,0,0-3.7-8.62l-1,1a13.14,13.14,0,0,1,3.3,7.71,8.1,8.1,0,0,1-2.15,6.09,5.73,5.73,0,0,1-4,2c-3.75,0-5.31-4.64-5.81-6.63-.92-3.67,1.08-9.38,1.41-9.94l-1.19-.78C235.47,381.61,233.17,387.84,234.24,392.12Z" transform="translate(-213.98 -273.48)"/><path d="M225.22,389.9c-.33,4.16,1.65,8.13,3.07,8.41s5.48-1.61,7-8l-1.38-.32c-1.37,5.77-4.72,7-5.31,7-.45-.24-2-2.62-2-6,0-.29,0-.59,0-.89a10,10,0,0,1,2.93-6.19l-.94-1.07A11.33,11.33,0,0,0,225.22,389.9Z" transform="translate(-213.98 -273.48)"/><path d="M221.66,395.47l.54,1.3c2.16-.89,4.21-3.61,4.3-3.73l-1.14-.85A11.88,11.88,0,0,1,221.66,395.47Z" transform="translate(-213.98 -273.48)"/><path d="M252,374.59l.23,1.4a11,11,0,0,1,5.12.45,6.25,6.25,0,0,1,3.05,3.35,4.63,4.63,0,0,1,.23,3.56,4.44,4.44,0,0,1-2.85,2.45,6.13,6.13,0,0,1-5.12-.78c-3.38-2.15-4.84-7.53-4.86-7.58l-1.37.36c.07.24,1.62,6,5.47,8.42a7.55,7.55,0,0,0,6.31.93,5.87,5.87,0,0,0,3.73-3.26,6.07,6.07,0,0,0-.23-4.65,7.61,7.61,0,0,0-3.83-4.11A12.44,12.44,0,0,0,252,374.59Z" transform="translate(-213.98 -273.48)"/><path d="M251.42,365.83l.69,1.24a14,14,0,0,1,9.79-.77,7.07,7.07,0,0,1,5.35,8.47,1.76,1.76,0,0,1-1,1c-1.84.94-5.41.87-7.26.18l-.49,1.32c2.17.82,6.15.92,8.4-.24a3.1,3.1,0,0,0,1.7-1.9,8.43,8.43,0,0,0-6.33-10.2A15.2,15.2,0,0,0,251.42,365.83Z" transform="translate(-213.98 -273.48)"/><path d="M260.7,357.75c-5.74.52-9.34,5.07-9.5,5.27l1.12.87s3.39-4.27,8.51-4.73a6.81,6.81,0,0,1,5.21,1.29,4.93,4.93,0,0,1,1.68,3.38A2.51,2.51,0,0,1,267,366a1.2,1.2,0,0,1-1.05.26l-.39,1.36a2.57,2.57,0,0,0,2.33-.52,3.76,3.76,0,0,0,1.24-3.37,6.35,6.35,0,0,0-2.18-4.37A8.22,8.22,0,0,0,260.7,357.75Z" transform="translate(-213.98 -273.48)"/><path d="M256.52,349.12a12.43,12.43,0,0,0-7.09,7.1l1.34.47a11.17,11.17,0,0,1,6.24-6.24,8.76,8.76,0,0,1,7.27.58,5.33,5.33,0,0,1,2.79,3.39,3.62,3.62,0,0,1-1.78,4.06l.61,1.28a5,5,0,0,0,2.56-5.61,6.68,6.68,0,0,0-3.48-4.36A10.26,10.26,0,0,0,256.52,349.12Z" transform="translate(-213.98 -273.48)"/><path d="M245.82,344.23c-4.59,3.71-4,9.72-3.93,10l1.41-.16c0-.05-.56-5.5,3.41-8.7a6.1,6.1,0,0,1,7-.14c1.43.89,2.8,2.52,2.37,4.43l1.39.31c.49-2.21-.67-4.49-3-5.94A7.5,7.5,0,0,0,245.82,344.23Z" transform="translate(-213.98 -273.48)"/><path d="M237.78,339.12a4.08,4.08,0,0,0-3,2.74c-1.38,3.44-.9,9.87-.88,10.15l1.41-.11c0-.06-.47-6.38.79-9.52a2.79,2.79,0,0,1,2-1.88,3.74,3.74,0,0,1,3.2,1.12c1.47,1.47,2.4,4.55,1.84,6.09l1.33.48c.76-2.07-.28-5.68-2.16-7.57A5.14,5.14,0,0,0,237.78,339.12Z" transform="translate(-213.98 -273.48)"/><path d="M227.82,340a5.19,5.19,0,0,0-2.26,4,12.39,12.39,0,0,0,2,8.17l1.14-.84a11.12,11.12,0,0,1-1.7-7.17,3.88,3.88,0,0,1,1.61-3,4.41,4.41,0,0,1,3.46-.4,2.78,2.78,0,0,1,2,2.93l1.41.13a4.16,4.16,0,0,0-3-4.4A5.86,5.86,0,0,0,227.82,340Z" transform="translate(-213.98 -273.48)"/><path d="M253.94,344.35l1.31.54a5.43,5.43,0,0,1,5.29-3.23,4.44,4.44,0,0,1,3.71,3,5,5,0,0,1-.52,5l1.07.94a6.3,6.3,0,0,0,.76-6.49,5.82,5.82,0,0,0-4.91-3.85A6.83,6.83,0,0,0,253.94,344.35Z" transform="translate(-213.98 -273.48)"/><path d="M268,372.92l.17,1.4a7.74,7.74,0,0,1,6.38,2.59c2.28,2.69.16,4.62-.09,4.83l.91,1.09A4.94,4.94,0,0,0,277,379.7a5,5,0,0,0-1.37-3.71A9.12,9.12,0,0,0,268,372.92Z" transform="translate(-213.98 -273.48)"/><path d="M245.46,396.93a11.09,11.09,0,0,0,7.86,5.72,9,9,0,0,0,7-1.49,4.78,4.78,0,0,0,2-2.79l-1.41-.17a3.54,3.54,0,0,1-1.43,1.83,7.6,7.6,0,0,1-5.92,1.22,9.8,9.8,0,0,1-6.8-4.94Z" transform="translate(-213.98 -273.48)"/><path d="M236.89,408.12a4.83,4.83,0,0,0,2.57,4.14,7,7,0,0,0,7-.19c4.08-2.38,4.93-7.91,4.52-11l-1.41.18c.26,1.91.07,7.36-3.82,9.63a5.58,5.58,0,0,1-5.57.19,3.42,3.42,0,0,1-1.86-2.91c0-3.2,1.62-9.25,1.64-9.32l-1.37-.37C238.51,398.69,236.89,404.73,236.89,408.12Z" transform="translate(-213.98 -273.48)"/><path d="M225.73,407.73a10.43,10.43,0,0,0,4.12,7.19,5.75,5.75,0,0,0,4.59.89c3.69-.93,4.8-4.84,4.84-5l-1.37-.38s-.94,3.28-3.82,4a4.27,4.27,0,0,1-3.46-.69,9,9,0,0,1-3.5-6.23,19.5,19.5,0,0,1,1.44-9.92l-1.28-.6A20.57,20.57,0,0,0,225.73,407.73Z" transform="translate(-213.98 -273.48)"/><path d="M222.18,418.08l.17,1.41c4.51-.56,5.42-8.94,5.45-9.3l-1.41-.14C226.17,412.16,225,417.73,222.18,418.08Z" transform="translate(-213.98 -273.48)"/><path d="M253.46,402.25c.18.39,4.48,9.33,11.28,7.9l-.29-1.39c-5.71,1.2-9.67-7-9.71-7.11Z" transform="translate(-213.98 -273.48)"/><path d="M248.12,409.25c.11.25,2.85,6.14,7.44,7.55a4.52,4.52,0,0,0,4.82-1.08,6.55,6.55,0,0,0,1.22-6.5l-1.34.47a5.18,5.18,0,0,1-.9,5.05,3.15,3.15,0,0,1-3.39.7c-4-1.22-6.54-6.73-6.56-6.78Z" transform="translate(-213.98 -273.48)"/><path d="M241.93,412.84c.12.37,3,8.9,8.85,10.14a4.57,4.57,0,0,0,4.08-.8c2.11-1.79,1.95-5.44,1.95-5.59l-1.42.06s.12,3.11-1.45,4.45a3.17,3.17,0,0,1-2.86.49c-5-1.07-7.78-9.11-7.81-9.19Z" transform="translate(-213.98 -273.48)"/><path d="M237.72,411.64c0,.25.2,6.22,2.42,10.32s6.81,4.69,8.61,3.79c1.64-.82,1.87-3.3,1.89-3.58l-1.42-.1c0,.5-.32,2-1.11,2.42-1.08.54-4.79.37-6.72-3.21-2.06-3.8-2.25-9.62-2.25-9.68Z" transform="translate(-213.98 -273.48)"/><path d="M235.93,427.75c2,1.05,3.75,1.25,5.24.61a5.79,5.79,0,0,0,2.94-3.55l-1.36-.38a4.43,4.43,0,0,1-2.15,2.63,4.64,4.64,0,0,1-4-.57c-5.21-2.75-5-11.76-5-11.85l-1.42-.05C230.21,415,229.94,424.57,235.93,427.75Z" transform="translate(-213.98 -273.48)"/><path d="M224.22,417c0,.32.23,7.95,4.89,10.28,1.8.9,3.19,1.05,4.14.44a2.69,2.69,0,0,0,1.06-2.27l-1.42.06s0,.74-.42,1-1.47.12-2.72-.51c-3.9-1.95-4.11-9-4.11-9.05Z" transform="translate(-213.98 -273.48)"/><path d="M268.33,363.08l.2,1.41c.06,0,6.69-.87,8.93,3.61,2.16,4.32-3.29,7.27-3.53,7.39l.66,1.26c2.41-1.27,6.36-4.83,4.14-9.28C276,362.08,268.65,363,268.33,363.08Z" transform="translate(-213.98 -273.48)"/><path d="M285.27,289a89.82,89.82,0,0,0-3.87,14.12c-1.7,8.67,3.22,16.68,3.43,17l.19.3.35,0a2.52,2.52,0,0,0,2.19-1c3-3.5,3.1-15.69,2.23-19.19-1-4-3.16-11.13-3.18-11.2l-.59-1.95Zm-2.8,17.82a18.41,18.41,0,0,1,.32-3.43,98.45,98.45,0,0,1,3.08-11.84c.72,2.42,1.88,6.42,2.54,9a25.06,25.06,0,0,1,.41,5.2c0,4.69-.66,10.74-2.34,12.73a1.4,1.4,0,0,1-.67.48A26.69,26.69,0,0,1,282.47,306.85Z" transform="translate(-213.98 -273.48)"/><path d="M277.75,284.58l-2.83,9.34c-.9,3-1.51,11.71.51,17.44s4.47,8.43,5.47,9a1.54,1.54,0,0,0,1.51,0,5.19,5.19,0,0,0,2.55-3l-1.4-.23a3.73,3.73,0,0,1-2,2c-.67-.43-2.89-2.77-4.82-8.27a28.34,28.34,0,0,1-1.29-9.08,30.36,30.36,0,0,1,.8-7.48s1.46-4.8,2.21-7.29a19.7,19.7,0,0,0,2.56,4.88,10.81,10.81,0,0,1,2,4.18l1.39-.28a12,12,0,0,0-2.32-4.81c-1.56-1.87-3-6.39-3-6.43l-.7-2.16Z" transform="translate(-213.98 -273.48)"/><path d="M266.06,285.89a72.85,72.85,0,0,1,.66,8.9c0,3.56,2.33,23.11,12.65,24l.12-1.42c-8.51-.76-11.35-18.05-11.35-22.62a68.24,68.24,0,0,0-.41-6.92,46.72,46.72,0,0,0,3.41,3.29l4,3.48.95-1-4-3.52a61.61,61.61,0,0,1-4.77-4.76l-1.56-1.76Z" transform="translate(-213.98 -273.48)"/><path d="M250.06,293.67a22.42,22.42,0,0,1-4.42.58l-.29,1.37c.06,0,5.72,2.14,7.91,4.33l.52.53c2.8,2.84,9.35,9.51,16.52,9.18l-.07-1.42c-6.53.3-12.77-6.05-15.44-8.76l-.52-.53a22,22,0,0,0-5.8-3.56l1.85-.32a38.16,38.16,0,0,1,9.07-.91c5.17.31,7.74,2.32,7.76,2.34l.89-1.1c-.11-.09-2.9-2.31-8.57-2.65A39,39,0,0,0,250.06,293.67Z" transform="translate(-213.98 -273.48)"/><path d="M249.75,303c-1.56.89-4.35,1.71-8.28,2.42l-.08,1.38a22.76,22.76,0,0,1,5.3,2.4,43,43,0,0,0,14.93,6.61c7.29,1.57,10.83-1.88,11-2l-1-1c-.13.13-3.19,3-9.69,1.65A41.74,41.74,0,0,1,247.5,308a18.3,18.3,0,0,0-3.3-1.73,23.77,23.77,0,0,0,6.25-2.08,18.74,18.74,0,0,1,5.42-1.74l-.21-1.4A19.7,19.7,0,0,0,249.75,303Z" transform="translate(-213.98 -273.48)"/><path d="M245.33,311.79l-5.87,2.67,2.36.36c.05,0,5.25.83,8.1,2.42a41.53,41.53,0,0,0,16,4.25,13.81,13.81,0,0,0,10.73-4.24l-1.08-.92a12.6,12.6,0,0,1-9.61,3.75A40.46,40.46,0,0,1,250.61,316a25.75,25.75,0,0,0-6.37-2.15l1.62-.74,4.2-1.85-.6-1.28Z" transform="translate(-213.98 -273.48)"/><path d="M298.87,296.78c-4.81,1.61-8.2,4.07-10.05,7.32l1.23.7c1.68-2.94,4.8-5.18,9.27-6.67a12.59,12.59,0,0,0,1.9-.9,39.9,39.9,0,0,0-2.72,7,35.2,35.2,0,0,1-3.83,9.11c-3.62,5.44-7.07,4.59-7.21,4.55l-.39,1.36c.18.05,4.54,1.24,8.78-5.12a36,36,0,0,0,4-9.48c1.11-3.56,2.17-6.91,4.28-9.28l-.93-1.06A27.12,27.12,0,0,1,298.87,296.78Z" transform="translate(-213.98 -273.48)"/><path d="M305,300.78c-4.43,1.54-6,3.11-6.1,3.17l1,1s1.49-1.43,5.57-2.84c1-.36,1.84-.62,2.47-.83a40.05,40.05,0,0,0-2.63,3.27l-1.18,2.3c-1.29,2.68-3.44,7.18-6.41,10.27s-7,3.3-7.86,2.51c-.21-.2.24-.71.39-.87l-1-1c-1.47,1.56-.63,2.59-.34,2.87,1.53,1.45,6.55.88,9.87-2.56,3.12-3.25,5.33-7.88,6.66-10.64l1.08-2.12c1-1.44,4.07-4.89,4.1-4.92l1.07-1.19H310.1A41.3,41.3,0,0,0,305,300.78Z" transform="translate(-213.98 -273.48)"/><path d="M312.9,304.91a20.07,20.07,0,0,0-8.85,2.95l.76,1.19a19.13,19.13,0,0,1,8.15-2.72c1.52-.06,2.88-.16,4-.26a16.51,16.51,0,0,0-2.89,2.22,23.89,23.89,0,0,0-2,2.53c-2.08,2.77-4.92,6.58-8.76,8.32-4.3,2-7.33,1.56-7.7,1.16a.32.32,0,0,1,0,.18.3.3,0,0,1,0,.1l-1.07-.92a1.16,1.16,0,0,0-.09,1.5c1,1.28,5,1.29,9.42-.73,4.17-1.89,7.14-5.86,9.3-8.76a23.11,23.11,0,0,1,1.91-2.38,25.5,25.5,0,0,1,5.64-3.7l-.42-1.34A68,68,0,0,1,312.9,304.91Z" transform="translate(-213.98 -273.48)"/><path d="M308.87,315.62l.46,1.34a10.68,10.68,0,0,1,8.4,1.27c4,2.45,6.31,7.67,7.28,9.89l.28.63.14.35A13.9,13.9,0,0,0,320.5,326c-2.91-1-7.05-1.24-11.07-1.44a41.42,41.42,0,0,1-8.3-.9c-3.49-1-3.66-2.08-3.66-2.09v.09l-1.39-.31c-.11.5-.1,2.25,4.66,3.67a41.61,41.61,0,0,0,8.63.95c3.91.2,8,.41,10.67,1.37,4.82,1.71,7.41,6.76,7.43,6.81l1.3-.57-2.18-5.37-.27-.6c-1-2.35-3.42-7.86-7.84-10.55A11.94,11.94,0,0,0,308.87,315.62Z" transform="translate(-213.98 -273.48)"/><path d="M295.25,325.1c.21.23,5.26,5.52,15,7.55a71.41,71.41,0,0,0,18,1.34l-.11-1.41a69.88,69.88,0,0,1-17.63-1.32c-9.31-1.93-14.25-7.07-14.3-7.13Z" transform="translate(-213.98 -273.48)"/><path d="M297,325.37l1.59-1.5s-1.84-1.58-1.84-2-.16-.42-.91-.75l-2.34-1a5.81,5.81,0,0,1-2.83.42c-1.25-.25-1.5-1.75-1.5-1.75a6,6,0,0,0-1.92.25c-.33.25-1.16,1.16-1.83.75a4.33,4.33,0,0,1-1.17-1.75s-1.25,2-2.41,1.75A4.88,4.88,0,0,1,279.6,318s-3.5-.91-4-.58-2,1.58-2,1.58,2.16,8.67,6.91,11.25S293.85,328.29,297,325.37Z" transform="translate(-213.98 -273.48)"/><path d="M222.26,481s6.17-10.16,24.17-7.33c0,0,6.33-14.83,24.67-14.5s29.83,13.83,49,37.67c0,0,3.66,5.16,6.5,7.5l-94.84.16s-9.33-1.51-9.5-10.08Z" transform="translate(-213.98 -273.48)"/><path d="M222.43,454.45s2.5-4.33,4.17-5.83,2.83-.5,3,1.33,1.16,8,9.5,9.5,20.16-4.5,22.66-12.16S263.1,438,263.1,438s7.16-3.83,7.91-5.41,3.59-6.25,3.59-6.25-8.09-10.63-9.59-15.88c0,0-.5-1-1.12-1s-2.5.25-2.5.25,1.25,8.42-5.63,6.46c0,0,1,4-1.62,5.42s-3.88.5-3.88.5-.87,2.87-2.62,3.25a7.83,7.83,0,0,1-3.75-.38s-.88.38-1,.88a3.13,3.13,0,0,1-3.13,2.25c-2.37.12-5.25-2.25-5.25-2.25a1.48,1.48,0,0,0-1.25.75c-.37.75-3.25,1.12-5.37-1s-3-7.63-3-7.63a1.6,1.6,0,0,0-1,.13s-1.63.75-1.63,1.25-.12,32.75-.12,32.75Z" transform="translate(-213.98 -273.48)"/><rect x="278.05" y="429.53" width="1.42" height="36.51" transform="translate(-390.47 440.7) rotate(-88.43)"/><rect x="333.56" y="425.02" width="1.42" height="49.02" transform="translate(-339.27 496.41) rotate(-88.25)"/><rect x="279.68" y="429.16" width="1.42" height="45.25" transform="translate(-388.45 453.69) rotate(-89.37)"/><rect x="284.31" y="423.65" width="1.42" height="65.02" transform="translate(-392.63 455.31) rotate(-88.46)"/><rect x="269.56" y="412.53" width="1.42" height="95.52" transform="translate(-409.56 447.37) rotate(-88.8)"/><rect x="220.78" y="453.16" width="10.56" height="1.42" transform="translate(-476.26 43.9) rotate(-47.91)"/><polygon points="8.27 191.01 45.27 191.76 117.52 193.01 117.55 191.6 45.3 190.35 8.3 189.6 8.27 191.01"/><path d="M222,469.25l29.5,1,88.76,1.25,0-1.42-88.75-1.25-29.48-1Z" transform="translate(-213.98 -273.48)"/><path d="M222.49,474.25l29,1,93,1v-1.42l-93-1-29-1Z" transform="translate(-213.98 -273.48)"/><rect x="326.43" y="459.91" width="1.42" height="43.75" transform="translate(-372.33 529.92) rotate(-89.35)"/><rect x="333.93" y="463.66" width="1.42" height="48.25" transform="translate(-370.57 543.87) rotate(-89.41)"/><rect x="273.78" y="332.99" width="9.65" height="1.42" transform="translate(-339.21 221.14) rotate(-71.87)"/><rect x="277.65" y="333.74" width="8.89" height="1.42" transform="translate(-321.15 260.74) rotate(-77.02)"/><path d="M335.94,291.19a8.34,8.34,0,0,0-6.25,3.69,9,9,0,0,0-1.45,5.22,13.85,13.85,0,0,0,3.72,9.51,9.86,9.86,0,0,0-2.42,6.37,9.71,9.71,0,0,0,.2,1.95c1.13,5.66,9.69,9.41,15.64,8.39a13,13,0,0,0,8.63-6.19,9,9,0,0,0,4.75,1.36v-1.41a7.69,7.69,0,0,1-4.54-1.51l-.7-.57-.39.81c0,.05-2.59,5.19-8,6.11-5.67,1-13.14-2.9-14-7.27a8.31,8.31,0,0,1,2.28-7.51l.63-.57-.68-.52c-3.16-2.37-5-9.81-2.52-13.35a6.91,6.91,0,0,1,5.18-3.09,5.34,5.34,0,0,1,4.38,1.82c2.5,2.78.73,7,.71,7.08l1.31.56c.08-.21,2.14-5.13-1-8.59A6.76,6.76,0,0,0,335.94,291.19Z" transform="translate(-213.98 -273.48)"/><path d="M338.5,284.78c6,2.4,5.58,6.08,5.56,6.24l-.12.9.91-.1c.2,0,5-.5,6.74,4.86,1.88,5.63-.77,11.07-.79,11.12l1.27.64a18.29,18.29,0,0,0,1.62-7.43,15.13,15.13,0,0,0-.75-4.78,7.9,7.9,0,0,0-7.47-5.82c-.11-1.51-1-4.77-6.44-7Z" transform="translate(-213.98 -273.48)"/><path d="M290.91,286.62a5,5,0,0,0,.88,4.16,8.73,8.73,0,0,0,5.9,3.38,7.49,7.49,0,0,0,4.92-1.27c.47,1.72,2,4.86,7.2,7.21a11.44,11.44,0,0,0,12.05-1.52c.7,1.1,2.46,2.91,7,4.54l.48-1.33c-5.91-2.12-6.54-4.46-6.55-4.49l-.3-1.23-.9.89a10.05,10.05,0,0,1-11.2,1.85c-6.45-2.92-6.58-7-6.58-7.2l0-1.66-1.18,1.17a6.43,6.43,0,0,1-4.76,1.63A7.31,7.31,0,0,1,293,290a3.56,3.56,0,0,1-.66-3c.7-2.94,3.9-5.42,8.67-4.47a11.34,11.34,0,0,1,6.71,4.36l.63,1,.58-1a7,7,0,0,1,5.93-3.31c2.4-.1,4.81.75,5.71,2,1.23,1.75,1.64,4.34.92,5.89a2.18,2.18,0,0,1-1.91,1.33,4.92,4.92,0,0,1-4.65-2.31l-1.23.69a6.3,6.3,0,0,0,6,3,3.62,3.62,0,0,0,3.07-2.15c.93-2,.47-5.14-1.05-7.3-1.18-1.67-4-2.75-6.94-2.62a8.45,8.45,0,0,0-6.47,3.21,12.62,12.62,0,0,0-7-4.21C295.59,280,291.77,283,290.91,286.62Z" transform="translate(-213.98 -273.48)"/><path d="M322.35,289.25l-.17,1.41c.14,0,13.93,1.6,18.41-9.78l-1.32-.52C335.2,290.71,322.87,289.31,322.35,289.25Z" transform="translate(-213.98 -273.48)"/><path d="M273.44,281.05c0,.06,2.62,6.29,11,5.94s11.59-5.1,11.72-5.31l-1.17-.79s-3.1,4.38-10.61,4.69-9.56-4.84-9.65-5.06Z" transform="translate(-213.98 -273.48)"/><path d="M274.64,375.79s5.25-1.88,3.75-7.13-9.63-4.87-9.63-4.87-1.25-3.13-2.62-4.13c0,0-.25-.5.62-1.37s3-5.13-2.12-7.88c0,0,2.25-3.62.25-6.87,0,0,3.12-7.63,14.5-6a11.82,11.82,0,0,1,11-4.25c7.25,1,9,5.12,8.25,6,0,0,9-.63,12.62,7.37s-2.5,18-2.5,18,2.25,2.88,2,9.25-6.87,11.38-6.87,11.38a71.65,71.65,0,0,0-28.38-2.63,5.57,5.57,0,0,1,.38-2.12A4.19,4.19,0,0,0,274.64,375.79Z" transform="translate(-213.98 -273.48)"/><path d="M222.39,351.66a5.39,5.39,0,0,1,4.87-.5l-.12-1.12s-2.25-5.88,0-8.63,5.87-3.12,7.5,1.38c0,0,1.37-2.88,4.12-3s4.75,3.12,5.13,6.25c0,0,.5.37,1.25-.38a7.41,7.41,0,0,1,9-1.12,10.05,10.05,0,0,1,1.25-1.25c.62-.5,3-2.25,3-2.25a15.73,15.73,0,0,0-4.5-14.13c-6.38-6-15.25-3-15.25-3s1-8.37-4.88-11.75a13,13,0,0,0-11.5-.62Z" transform="translate(-213.98 -273.48)"/></svg>