<svg id="_9_2" xmlns="http://www.w3.org/2000/svg" viewBox="0 0 153.07 238.11"><defs><style>.cls-1{fill:#ed1c24;}.cls-2{fill:#fff;}.cls-3{fill:#0066b3;}.cls-4{fill:#ffcb05;}</style></defs><title>_9_2</title><rect class="cls-1" width="153.07" height="238.11"/><path class="cls-2" d="M225.9,270.72l-.16,204.83s1.33,8.84,9.16,9.34l119.17.16s9.67-1.33,9.83-10l.17-204s-1-8.5-9.67-9.33H235.07S227.9,262.05,225.9,270.72Z" transform="translate(-218.37 -254.33)"/><path class="cls-3" d="M280,300l41.87.88s.25,4.87.25,7.5.5,16.37,1,19.25-1.25,14.5-1.25,14.5l-3.25,6.62s-2,13.25-2.62,15.5.62,21.75.62,21.75l-14.5,44.38-22.5,23.12-7.75,1.75-14-4.12-26-.25s22.5-32.63,30.5-56.25c3.2-9.45,3.5-33.88,3.5-33.88l10.63-12.37S281.15,324.39,280,300Z" transform="translate(-218.37 -254.33)"/><path class="cls-1" d="M282.53,440.89s19.62-28.38,23.87-47.25l7.75-3.13,6.5,1.13,9.75,4,9,7.87L338,407.26l-.5,3.13,3.25,2.87,4.87,3.25,6.13,9.25.37,8.13-5.5,13.87-4.75,2.75h-7.25l-3.87-2.5-1.13,0L325,452.51l-6.5,2.38-4.13.62-8.12-1.25-5,4.75-10.63-1.62-4.87-10Z" transform="translate(-218.37 -254.33)"/><path class="cls-1" d="M248.15,300.47s-11.08-3.25-12-3.42a23.93,23.93,0,0,1-3.33-1.25l5.75-2.5,3.58-2.33,2.67-8.92s2.33-4.58,7.33-4.58a30.15,30.15,0,0,1,7.59.75l8.66-3.33s.5-4,1-7.17a16.09,16.09,0,0,1,1.67-5.17l1.17.09s3,1.66,3.75,3.41,3.25-.41,3.5-.41a29.19,29.19,0,0,1,2.66,3.08,51.16,51.16,0,0,1,3.92-3.92,38.11,38.11,0,0,1,3.58-2.75l4.42-.16a24.17,24.17,0,0,1-.08,3.25c-.17.75,7.08,1.5,7.08,1.5l4.83.5s7.67-1.09,13.5,0c0,0-1.66,1.5-2.66,2.33a25.9,25.9,0,0,0-2.84,2.42,2.24,2.24,0,0,0-.08,1.25l2.75,8.83s6.33,3,9.42,5.58a15.85,15.85,0,0,1,4,4.5s-4.09-.25-6.25-.16-10.59.33-14.59-.34S299,289,295.49,285.8l-13,1.67-10.75,3.58-9.67,4.5-9.83,4.75Z" transform="translate(-218.37 -254.33)"/><path class="cls-4" d="M251.65,293.64a40,40,0,0,0-4.12,8c-1.25,3.75-1,5.62-1,5.62a8.53,8.53,0,0,1,3-2.12c1.67-.59,11.58-4.25,14.25-5.75s7.33-6.75,7.83-8-.16-1.26-.5-1.09a12.46,12.46,0,0,1-4.08,1,8.34,8.34,0,0,1-2.83-.25,37.18,37.18,0,0,1-7.5-3.5c-2.59-1.83-7.17-4.66-10.67-5.41s-9.67,2.16-13,4.08l.42.75a34.32,34.32,0,0,1,4.91,2.25C241.32,290.8,247.9,293.47,251.65,293.64Z" transform="translate(-218.37 -254.33)"/><path class="cls-4" d="M272.65,290a15.46,15.46,0,0,1-8.75-5.25c-3.33-4.33-4.16-8.5-4.83-9.67a16.65,16.65,0,0,0-3.25-3.83c-.92-.67-.25-.58,1.25-.5s9.08.33,11.5,5A30.54,30.54,0,0,0,273,288.89S273.65,290.55,272.65,290Z" transform="translate(-218.37 -254.33)"/><path class="cls-4" d="M276.32,266.47s2.42-3.58,2.83-4.08,2.09-.34,2.09-.34.75,5.09,1.08,8.17.08,8.83-1.58,12.25-2.67,4.08-2.67,4.08l-1.58-.5s2.66-5.08,2-10.16a36.74,36.74,0,0,0-2.09-8.5Z" transform="translate(-218.37 -254.33)"/><path class="cls-4" d="M290.15,282.8a11.8,11.8,0,0,0,6.84,2.5c4.5.34,11.66-1.16,16.25-2.66s9.91-3.09,12.5-3.25a19.82,19.82,0,0,0,3.16-.34,45.73,45.73,0,0,1-4.58-2.16c-1.17-.75-5.75-3.92-10.5-3.75a.76.76,0,0,0-1,.66c-.17.92-2.33,4.67-6.42,6.59s-10.41,2.16-12.66,2S290.15,282.22,290.15,282.8Z" transform="translate(-218.37 -254.33)"/><path class="cls-4" d="M284.74,281.05a5.56,5.56,0,0,0,2.91.84c1.92.08,4.42-1.42,5.09-1.84s7.33-4.33,10.58-9a25.11,25.11,0,0,0,4-9.33l-5.33.08s-5.75,1.42-8,4.67a6,6,0,0,0-.75,2.25,23.47,23.47,0,0,1-3.5,8.25A15.55,15.55,0,0,1,284.74,281.05Z" transform="translate(-218.37 -254.33)"/><path class="cls-4" d="M314.07,402.39s.67-.34,1.08-3.17,3.17-5.34,5.42-4.67A20.62,20.62,0,0,1,325.9,397c.09.25,3.59,4.33,3.59,4.33l-2.75,4.59-5.84,1.91S317.91,403.8,314.07,402.39Z" transform="translate(-218.37 -254.33)"/><path class="cls-4" d="M327,406.3s3.5-4.25,4.58-5.5,4.58-1,5.67,1.42a9.77,9.77,0,0,1,.5,5.25s-.33,4.83-1.67,6.42a12.71,12.71,0,0,1-5.17,3.25c-1.33.41-.25-1.09-.25-1.09S333.32,410.3,327,406.3Z" transform="translate(-218.37 -254.33)"/><path class="cls-4" d="M334.74,424.47l-.92,2.5s5.17,1.16,6.08,2.83.25,2.58,1.25,3,4.42,1.75,6-.66,2.76-3.75,2.42-5.25-1.25-3.34-1.92-3.59-1.41-.75-1.83-.83-4.5-.25-4.5-.25S336.82,422.64,334.74,424.47Z" transform="translate(-218.37 -254.33)"/><path class="cls-4" d="M320,419.89s-2.67-6.17-12.34-5l-1.16,3.5s4.83,1.24,7.66,8.91c0,0,2.75,1.17,4.5.59a5.28,5.28,0,0,0,2.09-1l2.16,2.83s2.34.08,4.25,0,5.84-1.17,6.92-3.33,2-6.84-2.17-8.67-9.58.92-10.08,1.25A19,19,0,0,1,320,419.89Z" transform="translate(-218.37 -254.33)"/><path class="cls-4" d="M310.57,402.72a11,11,0,0,0-1.75-4.25c-1.33-1.75-3.25-.83-3.92.5s-4,8.92-4,8.92l2.75.75S307.74,403.39,310.57,402.72Z" transform="translate(-218.37 -254.33)"/><path class="cls-4" d="M301.57,420.89l-6.25-.92-4.42,8.17a8.77,8.77,0,0,0,1.75,5.33c1.84,2.08,4,1.67,5.75.75s4.34-3.58,4.34-6.83A22.06,22.06,0,0,0,301.57,420.89Z" transform="translate(-218.37 -254.33)"/><path class="cls-4" d="M292.74,433.8l-.92-1.66-1.75-3.5-7.75,12.66s-.33,5.5.67,7.09,3.25,2.24,5.91.66,4.92-6.16,4.92-6.16-1.92-2.42-1.92-4.75A12.54,12.54,0,0,1,292.74,433.8Z" transform="translate(-218.37 -254.33)"/><path class="cls-4" d="M292.65,445.22a9.39,9.39,0,0,1-7.33,4.75c-5.42.67,2,8.42,2,8.42s4.08,1,4.5.75a23.2,23.2,0,0,0,2.17-2.75v-2.17a41.94,41.94,0,0,1-.75-8.33Z" transform="translate(-218.37 -254.33)"/><path class="cls-4" d="M329.15,452.55a30.54,30.54,0,0,1-3,4.67l-3.91,1.83-5.09,2.75-7-1.5-5.08-5s-3.5-4.08-3.67-7a25.59,25.59,0,0,1,.25-5.25l1.84-2.5s3.33,2,5.16,2.25c0,0,1,.33.75,1s.5,5,2.75,6.92,5.67,2.33,7.42.42,2.58-6.34,2.58-7.5a28.6,28.6,0,0,0-1-4.59l2.75-3.91s5.92,2.75,6.42,2.83a2.53,2.53,0,0,1,2.08,1.08c.67,1,1.34,5.34,1.34,6.59a2.18,2.18,0,0,1-1.59,2.33,11.38,11.38,0,0,1-2.5,0S329.9,451.05,329.15,452.55Z" transform="translate(-218.37 -254.33)"/><path d="M235.83,261.18a10.64,10.64,0,0,0-10.63,10.63V475a10.63,10.63,0,0,0,10.63,10.63H354A10.64,10.64,0,0,0,364.61,475V271.81A10.64,10.64,0,0,0,354,261.18ZM226.61,475V271.81a9.24,9.24,0,0,1,9.22-9.22H354a9.24,9.24,0,0,1,9.22,9.22V475a9.24,9.24,0,0,1-9.22,9.22H235.83A9.24,9.24,0,0,1,226.61,475Z" transform="translate(-218.37 -254.33)"/><path d="M279.2,300.09c3.94,84.07-48,149.86-48.52,150.52l-.91,1.14,45.82.35.21-.28c52.23-68.1,46.87-150.33,46.81-151.15l-.05-.65-43.4-.69Zm1.63,9.13c0-2.79-.08-5.61-.2-8.45l40.6.65c.06,1,.15,3.27.15,6.59,0,21.49-3.82,86.82-46.5,142.66l-42.22-.32C239.18,441.71,280.83,383.52,280.83,309.22Z" transform="translate(-218.37 -254.33)"/><path d="M244,281.34c-5.47.35-11.6,4.45-11.86,4.62l-1.36.93,1.61.35A20.6,20.6,0,0,1,235,288.4a73.91,73.91,0,0,0,14.08,5.5,19,19,0,0,0,15.34-2.27,11.74,11.74,0,0,0,7.66-.95l-.65-1.26c-4.89,2.52-10.54-.05-13.47-1.81l-1.82-1.22C253.1,284.27,248.54,281.06,244,281.34Zm.08,1.42c4-.25,8.34,2.78,11.2,4.79l1.9,1.28a24.44,24.44,0,0,0,5.23,2.31,18.05,18.05,0,0,1-13,1.39,72.81,72.81,0,0,1-13.82-5.41l-1.47-.7C236.13,285.24,240.37,283,244.11,282.76Z" transform="translate(-218.37 -254.33)"/><path d="M254.74,270.19l-1.51.35,1.26.92a11.75,11.75,0,0,1,4.85,6.21,36.54,36.54,0,0,0,3.13,6.09c4.51,7.11,10.55,6.85,10.81,6.83l-.08-1.41c-.22,0-5.49.19-9.53-6.17a35.5,35.5,0,0,1-3-5.89,12.66,12.66,0,0,0-4-5.76,13.08,13.08,0,0,1,11.68,5l1.13-.86C263.92,268.18,254.84,270.17,254.74,270.19Z" transform="translate(-218.37 -254.33)"/><path d="M271.38,262.28l-.79-.35A33.56,33.56,0,0,0,268,277a25.89,25.89,0,0,0,4.82,13l.4.5.53-.34c.25-.16,6.19-4,5.33-15.15s-7.22-13.37-7.49-13.46C271.62,261.54,271.5,261.92,271.38,262.28Zm-1.94,14.54c-.06-.7-.09-1.4-.09-2.08a33.3,33.3,0,0,1,2.29-11.64c1.36.68,5.39,3.38,6.06,12,.05.71.08,1.39.08,2,0,7.07-3,10.34-4.23,11.38A25.19,25.19,0,0,1,269.44,276.82Z" transform="translate(-218.37 -254.33)"/><path d="M244,281.49l1.18.79c4.31-6.47,14.92-3.09,15-3l.45-1.35C260.15,277.72,248.89,274.13,244,281.49Z" transform="translate(-218.37 -254.33)"/><path d="M237.24,292.93a49.35,49.35,0,0,1-5.09,2.29l-2,.76,7.89,2.25.84.26c2.43.74,7.49,2.28,9.31,2.43l.12-1.41a76.13,76.13,0,0,1-9-2.38l-.85-.26-3.87-1.1c1-.42,2.15-1,3.33-1.59,2.45-1.31,4.76-2.3,4.78-2.31l-.55-1.3S239.73,291.59,237.24,292.93Z" transform="translate(-218.37 -254.33)"/><path d="M264.3,298.27a44.24,44.24,0,0,1-6.72,2.84c-3.68,1.34-7.41,2.78-10.27,5.1a24,24,0,0,1,1.1-4.59,36.23,36.23,0,0,1,4.07-7.32l-1.15-.83a37.66,37.66,0,0,0-4.26,7.68,26.14,26.14,0,0,0-1.37,6.7l-.1,1.92,1.32-1.4c2.71-2.86,7-4.42,11.15-5.93A45.68,45.68,0,0,0,265,299.5a18.46,18.46,0,0,0,7.56-8.87l-1.33-.49A17.34,17.34,0,0,1,264.3,298.27Z" transform="translate(-218.37 -254.33)"/><path d="M275.6,266.4l1.27.64s1.61-3.18,3.57-4.38l-.74-1.21C277.39,262.87,275.68,266.26,275.6,266.4Z" transform="translate(-218.37 -254.33)"/><path d="M280.54,262.37a50.92,50.92,0,0,1,1.16,8.18l.08,1.59c.28,3.7.74,9.9-5.91,14l.74,1.21c7.39-4.52,6.87-11.52,6.58-15.28l-.08-1.49a52.53,52.53,0,0,0-1.18-8.48Z" transform="translate(-218.37 -254.33)"/><path d="M293.2,261.94c0,.08.58,8.31-3.7,14s-9.34,6.72-9.4,6.73l.27,1.39c.23,0,5.65-1.12,10.27-7.27s4-14.62,4-15Z" transform="translate(-218.37 -254.33)"/><path d="M281.73,270.32l1.34.46c2.18-6.37,6.68-7.82,6.87-7.88l-.41-1.36C289.32,261.61,284.16,263.23,281.73,270.32Z" transform="translate(-218.37 -254.33)"/><path d="M292.9,267.14l1.33.49c.08-.18,1.85-4.57,10.21-5l-.07-1.41C295,261.7,293,266.92,292.9,267.14Z" transform="translate(-218.37 -254.33)"/><path d="M299.09,274.53c-6.35,5.88-11.24,8.1-14.16,6.41l-.71,1.23c3.56,2.06,8.89-.16,15.83-6.6s8-13.13,8.06-13.41L306.7,262C306.69,262,305.64,268.46,299.09,274.53Z" transform="translate(-218.37 -254.33)"/><path d="M305.27,266.69l.27,1.39a42.83,42.83,0,0,1,12.59-.42c-.9.66-2.1,1.58-3.67,2.84a9,9,0,0,0-1.65,2.25c-1.69,2.76-4.25,6.94-9.88,8.11a42.41,42.41,0,0,1-14.4.49l-.25,1.4a43.56,43.56,0,0,0,14.94-.5c6.23-1.3,9.09-6,10.8-8.76a8.65,8.65,0,0,1,1.33-1.88,44.44,44.44,0,0,1,5-3.76l1.86-.93-2-.4A43.5,43.5,0,0,0,305.27,266.69Z" transform="translate(-218.37 -254.33)"/><path d="M313.57,273.93c3.86,0,6.46,1.45,8.75,2.72l1.6.87,2.55,1.27a32.23,32.23,0,0,0-5.2.57,49.69,49.69,0,0,0-5.44,1.62c-4.12,1.38-9.24,3.1-14.65,3.53-7.86.63-11.09-2.28-11.12-2.31l-1,1c.15.14,3.66,3.38,12.21,2.7,5.59-.45,10.8-2.2,15-3.6a48.55,48.55,0,0,1,5.26-1.58,31.87,31.87,0,0,1,8-.49l.38-1.34-5.34-2.67-1.54-.83a18.15,18.15,0,0,0-9.44-2.91Z" transform="translate(-218.37 -254.33)"/><path d="M315.71,282.57a23,23,0,0,1,9.76,5.83l1.15,1c.79.65,1.52,1.34,2.12,1.93l-2.28-.18-3.17.05c-4.28.17-11.44.44-17.21-1-7.47-1.91-10.43-5.4-10.46-5.43l-1.1.9c.13.15,3.24,3.87,11.21,5.9,6,1.53,13.26,1.25,17.61,1.08l3-.06,5.94.48-1.19-1.33a39.4,39.4,0,0,0-3.58-3.4l-1.09-1a24.19,24.19,0,0,0-10.33-6.16Z" transform="translate(-218.37 -254.33)"/><path d="M271.28,290.51s1.62-.67,2.12-1a34.69,34.69,0,0,0,2.88-3.16,38.29,38.29,0,0,0,3.12-2.25,8.16,8.16,0,0,1,2.5-1.38l1.63-1a4.94,4.94,0,0,1,2.12.25c.63.38,3.25.25,3.88.13a2.73,2.73,0,0,1,1.5.37l-.25,1.13,3.75,1.25,1.25,1.25s-5.13,5.25-9.5,6.62-6,1.13-7.75.5-7.38-.87-7.38-.87Z" transform="translate(-218.37 -254.33)"/><path d="M300.84,407.51l.12,1.41a5.68,5.68,0,0,1,5.16,3.15,5,5,0,0,1,.19,4.73,5.43,5.43,0,0,1-3.87,3.05,14.2,14.2,0,0,1-6.78-.63l-.51,1.33a15.69,15.69,0,0,0,7.55.7,6.9,6.9,0,0,0,4.89-3.85,6.47,6.47,0,0,0-.24-6A7.09,7.09,0,0,0,300.84,407.51Z" transform="translate(-218.37 -254.33)"/><path d="M300.63,421.25a12,12,0,0,1,1.4,6.58c-.31,3.77-4.11,6.64-5.91,6.51a5.56,5.56,0,0,1-3.39-2.27,5.06,5.06,0,0,1-1.13-3.88l-1.39-.28a6.27,6.27,0,0,0,1.4,5,6.8,6.8,0,0,0,4.41,2.83c2.88.2,7.07-3.62,7.42-7.82a13.19,13.19,0,0,0-1.6-7.42Z" transform="translate(-218.37 -254.33)"/><path d="M301,432s1.73,1.17,1.73,5.26q0,.64-.06,1.41a5.81,5.81,0,0,1-4.92,5.67c-.56-.15-4-1.2-4.86-4.45a9.78,9.78,0,0,1-.29-2.35,7.68,7.68,0,0,1,.88-3.77L292.3,433a9.79,9.79,0,0,0-.75,7.21c1.09,4.38,5.83,5.48,6,5.52l.11,0h.12a7.34,7.34,0,0,0,6.3-7c.53-6.2-2.22-7.93-2.34-8Z" transform="translate(-218.37 -254.33)"/><path d="M306.15,419.05a13,13,0,0,1,6.6,6.45c2.28,5.26-.59,7.64-.62,7.67-.82.41-7.21,0-9.1-3.46l-1.25.68c1.44,2.65,4.65,3.66,6.44,4s4.07.44,4.79-.14c1.31-1,3.21-4.34,1-9.33a14.3,14.3,0,0,0-7.39-7.22Z" transform="translate(-218.37 -254.33)"/><path d="M307.57,414.2l.34,1.37c.06,0,6.3-1.49,10.12,2.94,2.38,2.76,2.73,4.86,2.6,6.13a3.43,3.43,0,0,1-1.16,2.35c-1.14.89-4.26.09-5-.38l-.73,1.22c.92.55,4.79,1.72,6.63.28a4.8,4.8,0,0,0,1.7-3.33c.16-1.55-.23-4-2.93-7.19C314.71,412.48,307.86,414.13,307.57,414.2Z" transform="translate(-218.37 -254.33)"/><path d="M310.55,402c-3.88,1-7.26,6.07-7.4,6.29l1.18.78c0-.05,3.23-4.79,6.59-5.71a8.21,8.21,0,0,1,6.1,1.45,7.39,7.39,0,0,1,3.52,4.81c.57,3.87-4,5.65-4.22,5.73l.5,1.33c2-.77,5.71-3.26,5.12-7.27a8.76,8.76,0,0,0-4.14-5.78C315.39,402.1,312.62,401.47,310.55,402Z" transform="translate(-218.37 -254.33)"/><path d="M281.86,441.43c0,.23.36,5.69,1.6,7.81a3,3,0,0,0,2.86,1.33c2.32-.11,5.66-2.06,8.06-7.22l-1.29-.6c-2.13,4.59-5,6.32-6.84,6.4a1.69,1.69,0,0,1-1.57-.62c-.88-1.52-1.31-5.7-1.4-7.19Z" transform="translate(-218.37 -254.33)"/><path d="M311.91,434a8.21,8.21,0,0,1,0,6.63A2.66,2.66,0,0,1,310,442c-2.81.44-6.4-2.48-6.44-2.52l-.9,1.1c.17.14,4.12,3.36,7.56,2.82a4.05,4.05,0,0,0,2.93-2.11c1.15-2,1.2-5.09.12-7.85Z" transform="translate(-218.37 -254.33)"/><path d="M320,427.71a5.74,5.74,0,0,1,3.24,5.79c-.16,2.31-.77,3.85-1.75,4.47a3.4,3.4,0,0,1-3.11-.08c-3-1.2-4.6-5.06-4.61-5.1l-1.32.53c.08.18,1.82,4.46,5.4,5.89a4.71,4.71,0,0,0,4.39,0c1.41-.88,2.22-2.75,2.41-5.57a7.28,7.28,0,0,0-4.1-7.2Z" transform="translate(-218.37 -254.33)"/><path d="M304,398.71l1.24.69a2.57,2.57,0,0,1,2.21-1.14,1.57,1.57,0,0,1,1,.61,7.66,7.66,0,0,1,1.63,3.72l1.39.27c.18-.9-.66-3.36-1.81-4.75a2.91,2.91,0,0,0-2.22-1.27A4,4,0,0,0,304,398.71Z" transform="translate(-218.37 -254.33)"/><path d="M306.25,393.87l1,1c.68-.63,2.79-2.21,4.42-2,.34.05.89.49,1.43,1.6,1.08,2.23,1.5,5.92.39,7.84l1.22.71c1.39-2.38.9-6.62-.34-9.17-.69-1.42-1.56-2.25-2.5-2.38C309.2,391.14,306.37,393.76,306.25,393.87Z" transform="translate(-218.37 -254.33)"/><path d="M320.62,407.24l.57,1.3a19.64,19.64,0,0,1,5.55-1.61c.48,0,1.66.92,2.63,2.66.54,1,2.15,4.38.26,7.42l1.21.75c1.55-2.5,1.46-5.81-.24-8.86-.93-1.69-2.49-3.39-3.86-3.39C324.61,405.51,320.78,407.17,320.62,407.24Z" transform="translate(-218.37 -254.33)"/><path d="M327,416.35a27.19,27.19,0,0,0-7.25,2.92l.72,1.23a25.36,25.36,0,0,1,6.76-2.75,7.08,7.08,0,0,1,5.33,1.62,4.35,4.35,0,0,1,1.68,3.35c0,3.56-3.33,6.16-5.72,6.46a18.6,18.6,0,0,1-5.11-.16l-.26,1.4a20.49,20.49,0,0,0,5.55.17c2.84-.36,6.95-3.36,6.95-7.87a5.7,5.7,0,0,0-2.17-4.43A8.49,8.49,0,0,0,327,416.35Z" transform="translate(-218.37 -254.33)"/><path d="M333,427.93s4,.34,6.1,2.16a2.89,2.89,0,0,1,.54,3.1,6.2,6.2,0,0,1-5.49,4.16,14.28,14.28,0,0,1-9.64-2.68l-.89,1.1a15.43,15.43,0,0,0,10.69,3,7.63,7.63,0,0,0,6.69-5.15,4.28,4.28,0,0,0-1-4.6c-2.48-2.12-6.72-2.48-6.9-2.5Z" transform="translate(-218.37 -254.33)"/><path d="M320.41,439.13c1.57,4.26,1.27,9.31-.67,11.25a4.7,4.7,0,0,1-3.65,1.4,5.48,5.48,0,0,1-3.95-2.48,11.19,11.19,0,0,1-2.36-6.38l-1.42-.07a12.43,12.43,0,0,0,2.64,7.29,6.74,6.74,0,0,0,5,3.05,6.08,6.08,0,0,0,4.76-1.8c2.34-2.34,2.78-7.94,1-12.75Z" transform="translate(-218.37 -254.33)"/><path d="M303.19,453.83c2.14,2.65,4.5,2.44,5.72,2.08a6,6,0,0,0,4.2-4.78L311.7,451a4.6,4.6,0,0,1-3.19,3.57c-1.07.32-2.68.3-4.22-1.61-3.24-4-2-9.68-2-9.73l-1.38-.31C300.82,443.16,299.51,449.28,303.19,453.83Z" transform="translate(-218.37 -254.33)"/><path d="M293.05,454.06a5,5,0,0,0,4.87,4,6.22,6.22,0,0,0,5.84-4.85l-1.38-.36a4.77,4.77,0,0,1-4.46,3.79,3.57,3.57,0,0,1-3.5-3,21.8,21.8,0,0,1-.33-9.17l-1.38-.31A22.63,22.63,0,0,0,293.05,454.06Z" transform="translate(-218.37 -254.33)"/><path d="M284.54,449.83c.1.66,1.1,6.48,3.24,8.27,1.7,1.41,4.19.41,6.83-2.76l-1.08-.91c-.55.65-3.33,3.84-4.84,2.58s-2.49-5.76-2.75-7.4Z" transform="translate(-218.37 -254.33)"/><path d="M331.57,438.8c.58,1.53,1.84,5.9.77,7.67a1.48,1.48,0,0,1-1.18.71c-3.91.45-8.5-4.87-8.55-4.92l-1.08.92c.21.24,5.13,5.95,9.79,5.41a2.88,2.88,0,0,0,2.22-1.38c1.64-2.68-.4-8.28-.64-8.91Z" transform="translate(-218.37 -254.33)"/><path d="M328.7,448.13c.34,3.22-.39,5.89-2,7.34a3.38,3.38,0,0,1-3,.89c-2.66-.56-3.44-4.89-3.45-4.93l-1.4.24c0,.22,1,5.32,4.55,6.08a4.77,4.77,0,0,0,4.24-1.23c1.94-1.75,2.84-4.87,2.45-8.54Z" transform="translate(-218.37 -254.33)"/><path d="M308.55,455.23c.51,2,2.54,5.68,6.55,5.53a6.47,6.47,0,0,0,6-5.42l-1.39-.25c0,.17-.8,4.11-4.67,4.25s-5.07-4.28-5.12-4.47Z" transform="translate(-218.37 -254.33)"/><path d="M321.54,395c-4.31.18-7,4.15-7.06,4.32l1.18.78s2.36-3.53,5.94-3.68a3.87,3.87,0,0,1,3.33,1.73c1.44,2,1.68,4.95.64,7.82l1.33.48c1.2-3.3.89-6.8-.82-9.14A5.3,5.3,0,0,0,321.54,395Z" transform="translate(-218.37 -254.33)"/><path d="M332.22,400.37c-2.67.71-5.72,5-6.06,5.44l1.16.82c.84-1.2,3.42-4.4,5.27-4.89a3.42,3.42,0,0,1,3.17.73c.9.84,1.83,2.67,1.11,6.62-1.21,6.7-6,7.4-6.22,7.43l.17,1.4c.25,0,6-.82,7.45-8.57.83-4.6-.38-6.84-1.55-7.92A4.85,4.85,0,0,0,332.22,400.37Z" transform="translate(-218.37 -254.33)"/><path d="M334.43,423.91l.61,1.28c1.7-.8,6.63-2.75,9-2.12,2.78.73,3.73,4.18,3.32,5.81a4.15,4.15,0,0,1-2,2,6.4,6.4,0,0,1-4.27,1l-.39,1.36c1.7.49,4-.29,5.37-1.11a5.52,5.52,0,0,0,2.68-2.9c.59-2.38-.83-6.6-4.34-7.52S334.7,423.78,334.43,423.91Z" transform="translate(-218.37 -254.33)"/><path d="M341.21,433.16a11.77,11.77,0,0,1,4.37,5.14c.46,1.22.86,2.92.14,4.11a4.15,4.15,0,0,1-3.23,1.61c-3.76.45-7.21-2.09-9-4.41l-1.11.88c2,2.6,6,5.45,10.31,4.93,2.07-.25,3.51-1,4.27-2.28s.81-3.15,0-5.34a13,13,0,0,0-5-5.86Z" transform="translate(-218.37 -254.33)"/><path d="M335,413.72l.5,1.33s4.5-1.66,7.31.56a2.66,2.66,0,0,1,1.09,2.65,4.71,4.71,0,0,1-2.07,3.13l.5,1.32a6,6,0,0,0,3-4.23,4.06,4.06,0,0,0-1.61-4C340.23,411.78,335.2,413.64,335,413.72Z" transform="translate(-218.37 -254.33)"/><path d="M279.39,293.41a45.56,45.56,0,0,1,0,6.94l1.42.07c.05-1,.32-6.18,0-7.4Z" transform="translate(-218.37 -254.33)"/><path d="M282.71,292.69a40.54,40.54,0,0,1-.34,7.11l1.4.17c.07-.59.67-5.83.33-7.56Z" transform="translate(-218.37 -254.33)"/><path d="M322.07,306.39s5-3,13.67-2.34,10.66,6,10.5,7.34c0,0,12.33.33,14.66,7.83s-2.83,16.17-12.16,19.67-15,.83-15,.83-2.83,7.83-15.17,9.83C318.57,349.55,322.57,325.55,322.07,306.39Z" transform="translate(-218.37 -254.33)"/><path d="M316.07,361.22s8.17-4.33,10-5.5,10-3.5,15.33.5,6.67,10,6,13a17.21,17.21,0,0,1,7.67,7.67c3.17,5.83.5,13.16-3.67,18,0,0-.16,11-13.5,13.33,0,0,1.17-3.83-1.66-6.33s-6.67-.17-9.17,3.66a12.62,12.62,0,0,1-.17-1.66c0-.67.67-5-2.33-7.5s-8.83,2.33-9.17,2.83-.33-1.17-.66-2.17-.12-3.78-3-4.83c-1.84-.67-5,1.5-5,1.5l5.33-17Z" transform="translate(-218.37 -254.33)"/><path d="M337.57,410.05s8.84-2.5,15.5-.5a14.84,14.84,0,0,1,10,11c.33,2.67-1.83,2.83-1.33,4.84s2,3.49,1.83,5.66l.17,12.5s-1.34,2.84-8.34,2.34a12.4,12.4,0,0,1-4,12.5c-6.16,5.16-17.16,3.66-21.33-10,0,0,4.34,1,3-7.17a11.66,11.66,0,0,0,8.17,3.67c5,0,6.5-3,5-6.84s-3-4.16-3-4.16-.83-1,.83-1.5,4.84-1.67,4-5.84-4.5-4.5-7.5-4c0,0,4.67-1.17,4.17-5s-5-4.17-8.5-3.5a4,4,0,0,1,.5-1.83A9.59,9.59,0,0,0,337.57,410.05Z" transform="translate(-218.37 -254.33)"/><path d="M327.24,456.05s-2.34,3-5.84,0c0,0-.5-1.33-1.16.17a6.27,6.27,0,0,1-5.17,3.83c-3,.34-5.33-3.33-5.33-3.33s-.34-1.67-1-1.5a5.11,5.11,0,0,1-5-1.83,2.09,2.09,0,0,0-1.17,1,6.36,6.36,0,0,1-4.17,2.83c-2.16.33-4-1.67-4-1.67a2.34,2.34,0,0,0-1.66.67,4.24,4.24,0,0,1-3.5,1.83c-1.67-.16-3.34-3-3.84-7.66a8.26,8.26,0,0,0-1.33-1.5c-.5-.34-1.33-5.84-1.33-5.84s-.17-1.33-1.17-.33-6.33,8.67-6.33,8.67l-18,.16a33,33,0,0,0,2.5,13.67c3,7.33,12,8.67,12,8.67s-.5,8.66,8,10,11.5-4.5,11.5-4.5,2.16,5.33,10,5.66a70.93,70.93,0,0,0,10.33,0,14.55,14.55,0,0,0,6.17-8s6.83,7.17,15,1S330.4,457.88,327.24,456.05Z" transform="translate(-218.37 -254.33)"/><path d="M276.24,348.89s-7.84-14.5-23.34-10.17a17.09,17.09,0,0,0-11.83-11c-9.67-2.83-14.83,4.17-15,6l-.17,6.67s-.5,3,4.84,5.83c0,0,1.66,1.66.5,2.83s-4.17,2.33-5.17,10,1.67,15.33,8.33,19,17.17,1.5,17.17,1.5a30.13,30.13,0,0,0,10.5,16.17S274.4,365.89,276.24,348.89Z" transform="translate(-218.37 -254.33)"/><path d="M320.53,320.51a37.85,37.85,0,0,0-3.63-3s-1.87-1.62-2.37-2-1.63.25-1.25,1a6,6,0,0,1,.75,2.63c0,1-.88,8.75-2.88,10.5a5.91,5.91,0,0,1-4.62,1.25s-1.95.15-3.38.09a12.47,12.47,0,0,0,.5-1.72c.13-1,3.75-2.12,3.75-2.12a1.9,1.9,0,0,0,1.63-1.63,17.68,17.68,0,0,0,.25-2.62s.37-.5-.75-.88a8.46,8.46,0,0,1-1.88-.87s-.62-4.25-.75-4.75.38-.25-1-1.13-2.25-1.75-3.12-2.25-2.75-.5-2.5.38a14,14,0,0,1,.37,2s1.38,3.37.75,4.12a49.47,49.47,0,0,1-5.5-3.12c-1-.88-2-1.38-2.62-1s-.63,1.37,0,2.75,1.75,3.62,1.62,4,4.5,2.62,4.5,2.62a40,40,0,0,1-7.87,2.75c-3.38.63-4.88.88-5.5,1s-.5.5-.13,1.13,1.75,2.5,1.75,2.5-.12.12,1,.25a53.77,53.77,0,0,0,6.38-.13,10.9,10.9,0,0,0,2.25-.62s.37,3.75-.63,5.12-.87,3,.5,3.5a5,5,0,0,0,3.75-.25,1.56,1.56,0,0,0,.38-1s1.25-3.36,2.23-6.15c.67.83,1.27,1.65,1.27,1.65h2c.75,0,2.87-.37,3,.25s-1.75,4-5.75,6.13a23.32,23.32,0,0,1-7.88,3c-3.25.75-8,2.75-9.87,6.75-1.77,3.77.13,9.2,4.54,11.28a24.78,24.78,0,0,0-5.67,2c-4,2-8.12,5.25-8.87,8s.75,6.25.75,6.25-4.75,3.37-5.38,7.25c-.79,4.95,1.5,7.87,5.5,8.62s6.75,1.13,8.63,0,3.37-5.5,3.5-6.62-.25-1.5-1.25-1-1.75,2.12-5.25,2.37-5.75-.25-6.13-.62.38-3.38.88-4.38,1-2.25,2.37-2.12a12.22,12.22,0,0,0,5.5-.25c2.75-.75,3.5-2,3.38-2.38s-.75-1.5-1.63-1.37a59.31,59.31,0,0,1-6.12-.25c-1.63-.13-3-1.88-1-5.13A20.44,20.44,0,0,1,288.9,364a34.06,34.06,0,0,1,4.28-1.24c4.43.34,9.11-2.16,10.47-6.76a9.6,9.6,0,0,0-2.45-9.37,26.2,26.2,0,0,0,6.2-3.25c5.63-4,8-9.5,9.5-12.75s3.25-7,3.63-7.63S321.9,321.89,320.53,320.51Zm-21.75,31a5.31,5.31,0,0,1-6.13,5.88c-3.5-.5-4.12-5.63.13-7.75a27.45,27.45,0,0,1,4.38-1.66A6.69,6.69,0,0,1,298.78,351.51Z" transform="translate(-218.37 -254.33)"/><path d="M295,377.39c-.75-.5-3.13-2.63-3.13-2.63s-1.25-.75-1.75-1.12a.9.9,0,0,0-1.25,1.12,14.93,14.93,0,0,1,1,4.75c0,1.63-2.12,13.13-3.62,18.75-.59,2.19-1.37,4.73-2.29,7.34-3.3.28-7.48.54-9.84.54-3.5,0-7.5,4.75-4.37,11.25,1.46,3,2.82,5.27,4.56,6.75a49.58,49.58,0,0,1-3.56,4.12c-2.38,2.5-3.63,6.13-4.25,8.38s-.75,2.5.62,2.25,2.5-.75,2.63-1.63a17.88,17.88,0,0,1,3.62-7.62c.87-1.07,2-2.5,3.13-4.13a11.6,11.6,0,0,0,4.12.88c5.63.25,10.88-1.5,11.63-2.25s.62-2.63-.63-3.88a6,6,0,0,0-5.25-1.75,38.27,38.27,0,0,1-5.59.72c1.09-1.7,2.15-3.43,3.09-5.09a55.61,55.61,0,0,0,2.71-5.86,14.48,14.48,0,0,0,4.42-.77c2-.87,4.25-3.87,3.87-6.25a51.82,51.82,0,0,0-2.89-8c1.05-3.31,1.88-6.2,2.27-8C295.53,379.51,295.78,377.89,295,377.39Zm-16.25,40c-.36.62-.71,1.2-1,1.75-.39,0-.79-.07-1.2-.13-4.25-.62-5.25-4.75-3.13-7.12s5.25-2.88,8.5-3.25l1-.1A66.48,66.48,0,0,1,278.78,417.39Zm13.75-16.75c.24,1.66-1.91,4-4.7,4.55,1-2.52,1.94-5.23,2.83-7.87A8.23,8.23,0,0,1,292.53,400.64Z" transform="translate(-218.37 -254.33)"/></svg>