<svg id="_10_3" xmlns="http://www.w3.org/2000/svg" viewBox="0 0 153.07 238.11"><defs><style>.cls-1{fill:#ed1c24;}.cls-2{fill:#fff;}.cls-3{fill:#ffcb05;}</style></defs><title>_9_3</title><rect class="cls-1" width="153.07" height="238.11"/><path class="cls-2" d="M212.49,289.26v206.5l5.67,6.17,8.33,3.66,114.83-.16s8.84-2,8.67-9.84v-206s-.83-7.83-10-8.5l-118.67-.16S213.66,282.26,212.49,289.26Z" transform="translate(-204.7 -274.29)"/><path class="cls-1" d="M227,397.76l1.12,3.46s-4,3.87-5.29,6.37a69,69,0,0,0-2.83,6.5l1,7.34,1.67,9.33,3.83,5.67s3.83,7.16,4.33,8,2.67,5.83,2.67,5.83l9,9.5,13.33-1.17s11-1.66,12.67-2.16,8.33-2.67,8.33-2.67l2.84-9.67,2-7.5,3.83,2.67s4.67,5,10.67,5,7.75-8.83,5.95-13.67,8.71-14.83,8.71-14.83l8.67-1.67s3.67-6.83,3.67-8-4.5-8-4.5-8l-4-3.5-2.55-1.75s-1.62-2.25-6.45-3.58c0,0,3.16-6.67-.5-10.17a9.18,9.18,0,0,0-10.3-2.12,6.58,6.58,0,0,1-5.2-.21l-10.34-1.67s-5.83-9.66-15.83-1.66l-6.83,1.66-6.17-1.66-6.5,1.83-4.83,4.5-4.84,6.33Z" transform="translate(-204.7 -274.29)"/><path class="cls-1" d="M260.86,284.09a10.37,10.37,0,0,0-5.87-2.37c-3.13,0-5.75,1-6.88,3.25a40.72,40.72,0,0,0-2.12,7.37l2.25,5.13,7.25,5.75,8.62,3.62,5.38,2.38s7.25,3.25,7.87,3.5,7.75,1.12,7.75,1.12l3.13-.37s4.87,5.62,10.12,7.62,15.25,2.5,19-2.37.38-7.63-.87-9-3.5-4-3.63-5.25-11.12-13.88-11.12-13.88a6.26,6.26,0,0,0-4.13-6.37c-4.62-1.75-8.37.25-11,3.12l-7-2a9.46,9.46,0,0,0-3.87-3.75c-2.38-1-4.88.5-6,3S260.86,284.09,260.86,284.09Z" transform="translate(-204.7 -274.29)"/><path class="cls-3" d="M266.11,306.59s-9.62,2.63-17.62-.75S237,292.47,238,288.34s6.62-6,9.62-2.5C247.61,285.84,245.86,300.59,266.11,306.59Z" transform="translate(-204.7 -274.29)"/><path class="cls-3" d="M273.11,307.72s-9.5-4.88-12.37-10.63-1.75-11.75,1-13.75a6,6,0,0,1,8,1.25s-2.13,3.75-1,9.88,6.12,14.37,6.12,14.37Z" transform="translate(-204.7 -274.29)"/><path class="cls-3" d="M277.11,308.84a43.55,43.55,0,0,1-1.75-13.75c.38-7.12,3.75-10.87,6.63-11.12s4.62,2,4.62,6.87-4,11.88-8.25,16.63Z" transform="translate(-204.7 -274.29)"/><path class="cls-3" d="M280.24,308.22s16.87-1.5,21.12-17.75a6.76,6.76,0,0,1,4.5.25c2.38,1,3,3.37,2.88,5.37,0,0,.62.63,1.25.25s5.62-2.62,8.62,1.63.38,10.25-1.75,11.5l-1-.13s-5.12-3.62-13-1.25a30.18,30.18,0,0,1-17,2.75h-4.75L280,310Z" transform="translate(-204.7 -274.29)"/><path class="cls-3" d="M277.16,383.93s-3-2-3.84-2.5c0,0,1.79-4.71,8.29-7.84s12,.63,13.25,3.38a19.89,19.89,0,0,0-6.37,7.12S284,378.88,277.16,383.93Z" transform="translate(-204.7 -274.29)"/><path class="cls-3" d="M265.86,382.84a16.67,16.67,0,0,0-1.5-8.37A7.73,7.73,0,0,0,258,370a7,7,0,0,0-4.88,2.87c-1.62,2.25.38,5.75.38,6.63s1.12,4.25,4.12,7.12c0,0-3.37,1.13-4.37,3.75a10.34,10.34,0,0,0-.13,6.5s-3,.63-6.5,4.38-4.25,8.75-2.62,11,7.12,2.25,10.37-.75a16.18,16.18,0,0,0,4.5-8,6,6,0,0,1-.75-4.38c.63-2.25,3.88-3.62,5.88-3.75a7.9,7.9,0,0,1-1.75-6.75A8.05,8.05,0,0,1,265.86,382.84Z" transform="translate(-204.7 -274.29)"/><path class="cls-3" d="M241.49,398.34s1-4.5,3.12-6.25v-.75L242.74,388l-5.25-2.63s-7.38,1-8,1.38-4,5-4,5l.62,5.37,1.25,2,.75,2.13A21,21,0,0,1,241.49,398.34Z" transform="translate(-204.7 -274.29)"/><path class="cls-3" d="M242.61,408.72l1.13,3.12s-6.13,2.63-5,11a14.69,14.69,0,0,0-11,9.13l-4.63-2.25-1.25-4.5.63-6.5,4.87-3.25S232.11,408.72,242.61,408.72Z" transform="translate(-204.7 -274.29)"/><path class="cls-3" d="M240.74,441.47a5.27,5.27,0,0,0,4.12,4.12c3.5.63,7.38-2.5,7.38-2.5a7.79,7.79,0,0,0,8.25,3.75c.62,0,.5,1.38.5,1.38L258.74,457a48.85,48.85,0,0,1-4.63,3.37c-.37,0-9.5-.87-9.5-.87s-6.37-2.63-7-3.63-3.12-5.25-3.12-5.25l2.75-5.37Z" transform="translate(-204.7 -274.29)"/><path class="cls-3" d="M266.36,406.72s-1.12,5.12-1.37,6.62-1,4.88-1,4.88,1.5,6.37,3.87,8.5,4.75,2,6.13.37,2.75-6.5,2.37-12.25-5.37-9-5.37-9Z" transform="translate(-204.7 -274.29)"/><path class="cls-3" d="M272.11,428.34s-1.87,4.13-.5,10.88,5.88,12.87,5.88,12.87,3.5,2.63,3.87,2.38,3.13-2.75,3.13-2.75l-.13-3.5a18.86,18.86,0,0,0,.5-11.38c-1.62-6.62-3.87-9.12-3.87-9.12s-3.63-1.13-4.38-1.88l-1.12-1.12S272,426,272.11,428.34Z" transform="translate(-204.7 -274.29)"/><path class="cls-3" d="M276.36,419.09a8.82,8.82,0,0,0,7,.63c3.63-1.38,4.13-5.88,4.13-6.38s1.37.13,1.37.13l2.5,1.12s2,7.13-1.87,11S278.61,427,278.61,427l-2.25-1.75s-1.75-1.13-1.5-1.5S276.36,419.09,276.36,419.09Z" transform="translate(-204.7 -274.29)"/><path class="cls-3" d="M291.36,414.59a12.79,12.79,0,0,0,6.38-.87c3-1.38,3.25-3,3.25-3s6.87.25,10.62,5.75,2.63,6.25,2.63,6.25l-3,1.5s-.88,6.75-9.13,6.37c0,0-3.87-8-10.25-11Z" transform="translate(-204.7 -274.29)"/><path class="cls-3" d="M291.24,395.34a12.3,12.3,0,0,1-.13,6.25l.5.5a11.53,11.53,0,0,1,7.13,2.25,14.09,14.09,0,0,1,6-4c3.62-1.12,8.12-.37,9-.25s1.75-3.75,1.75-3.75l-3.38-3.5s-2-3.25-7.87-3.62S292.74,392.72,291.24,395.34Z" transform="translate(-204.7 -274.29)"/><path class="cls-3" d="M277.61,393l-2.12,3a8.88,8.88,0,0,1,2,5.75,24.09,24.09,0,0,1,6.37,3.62s5.88-.62,7.38-3.25,0-7.37-1.63-9.12S280.74,391.09,277.61,393Z" transform="translate(-204.7 -274.29)"/><path d="M222.41,280.38A10.64,10.64,0,0,0,211.78,291V495.67a10.64,10.64,0,0,0,10.63,10.63H340.07a10.64,10.64,0,0,0,10.63-10.63V291a10.64,10.64,0,0,0-10.63-10.63ZM213.2,495.67V291a9.22,9.22,0,0,1,9.21-9.21H340.07a9.22,9.22,0,0,1,9.21,9.21V495.67a9.22,9.22,0,0,1-9.21,9.21H222.41A9.22,9.22,0,0,1,213.2,495.67Z" transform="translate(-204.7 -274.29)"/><path d="M263.94,383.64a9.85,9.85,0,0,0-2,9,8,8,0,0,0,5.86,5.26c5.58,1.51,9.62-1.15,11.37-7.49a7,7,0,0,0-.76-5.56,9,9,0,0,0-5.1-4l.11,0A8.54,8.54,0,0,0,263.94,383.64Zm4.23,12.94a6.56,6.56,0,0,1-4.88-4.33,8.4,8.4,0,0,1,1.75-7.71,7,7,0,0,1,7.85-2.29l.05,0H273a7.6,7.6,0,0,1,4.19,3.33,5.56,5.56,0,0,1,.62,4.46C276.25,395.7,273,397.88,268.17,396.58Z" transform="translate(-204.7 -274.29)"/><path d="M257.69,398.44a5.06,5.06,0,0,0,.23,5c1.44,2.34,4.57,3.67,8.57,3.67,7.67,0,11.52-3.87,11.71-6.49a6.23,6.23,0,0,0-2.45-5.11l-.85,1.13a4.83,4.83,0,0,1,1.88,3.88c-.13,1.81-3.28,5.18-10.29,5.18-3.5,0-6.18-1.1-7.36-3a3.67,3.67,0,0,1-.17-3.64c1.45-2.91,5.35-3.11,5.39-3.11l-.06-1.42C264.1,394.56,259.52,394.78,257.69,398.44Z" transform="translate(-204.7 -274.29)"/><path d="M252.11,396.58c-4.77,1.47-9.83,7.47-9.83,11.68a5.79,5.79,0,0,0,1.79,4.51,7.23,7.23,0,0,0,5.84,1.36,11.45,11.45,0,0,0,7.24-4.52,9,9,0,0,0,2-6.62l-1.4.2a7.59,7.59,0,0,1-1.77,5.56,10,10,0,0,1-6.29,4,5.88,5.88,0,0,1-4.72-1,4.38,4.38,0,0,1-1.31-3.45c0-3.55,4.7-9.05,8.83-10.32,3.82-1.18,5.56.42,5.63.49l1-1C259.06,397.33,256.8,395.14,252.11,396.58Z" transform="translate(-204.7 -274.29)"/><path d="M264.29,412.63l-.25,2c-.19,1.94-.35,3.62-2,5.06a7.65,7.65,0,0,1-6.07,1.63,2.64,2.64,0,0,1-2-1.53c-1.22-2.89,0-7.15,0-7.19l-1.36-.41c0,.2-1.39,4.79,0,8.15a4,4,0,0,0,3,2.36,9.09,9.09,0,0,0,7.32-1.94c2.1-1.81,2.3-3.94,2.5-6l.24-1.9c.48-2.61,1.47-6.24,1.48-6.28l-1.36-.37C265.76,406.39,264.79,410,264.29,412.63Z" transform="translate(-204.7 -274.29)"/><path d="M270.6,406.68c.24.17,6,4.07,5.18,12.68-.57,6.28-2.44,7.86-3.51,8.25s-2.51-.08-3.78-1.35c-2.8-2.8-3.63-8.05-3.63-8.11l-1.41.22c0,.23.91,5.76,4,8.89,1.67,1.67,3.59,2.29,5.26,1.68s3.84-2.75,4.44-9.45c.87-9.48-5.54-13.81-5.81-14Z" transform="translate(-204.7 -274.29)"/><path d="M277.34,402.62a13.84,13.84,0,0,1,8.21,5.84,8.09,8.09,0,0,1,1.1,6.25,6.93,6.93,0,0,1-3.18,4.27,6.1,6.1,0,0,1-6.37-.58l-1.25.68a5.08,5.08,0,0,0,2.71,1.62,7.17,7.17,0,0,0,5.62-.49,8.42,8.42,0,0,0,3.85-5.14,9.39,9.39,0,0,0-1.27-7.34,15,15,0,0,0-9.13-6.5Z" transform="translate(-204.7 -274.29)"/><path d="M277.15,392.47l.67,1.25a13.45,13.45,0,0,1,9.46-.78,4.83,4.83,0,0,1,3.22,2.87,8.37,8.37,0,0,1-.3,6.28c-.95,1.75-4.18,2.46-6.15,2.3l-.12,1.41c2.34.19,6.21-.62,7.52-3a9.72,9.72,0,0,0,.36-7.48,6.27,6.27,0,0,0-4.11-3.7A14.72,14.72,0,0,0,277.15,392.47Z" transform="translate(-204.7 -274.29)"/><path d="M291.11,401.39l.1,1.41a11.07,11.07,0,0,1,7.62,2.81,4.79,4.79,0,0,1,1.62,4.72,5,5,0,0,1-4,3.41,9.79,9.79,0,0,1-8.17-1.48l-1,1a11.12,11.12,0,0,0,9.5,1.86,6.5,6.5,0,0,0,5-4.42,6.26,6.26,0,0,0-2-6.12A12.26,12.26,0,0,0,291.11,401.39Z" transform="translate(-204.7 -274.29)"/><path d="M290.8,414.58c.85,3.74.33,7.48-1.37,9.78a6.7,6.7,0,0,1-5.16,2.69c-6.21.46-7.9-2.95-8-3.09l-1.29.59c.08.19,2.12,4.45,9.36,3.92a8.21,8.21,0,0,0,6.2-3.27c2-2.66,2.57-6.74,1.61-10.93Z" transform="translate(-204.7 -274.29)"/><path d="M279.85,428s2.39,2.2,4.29,9.64c1.33,5.23.25,9.86-1.42,12.14a3.15,3.15,0,0,1-2.1,1.48c-2.69.15-6.4-3.84-7.94-10.78-1.59-7.16.11-11.54.13-11.58l-1.31-.53c-.08.19-1.9,4.79-.2,12.42,1.79,8,6.08,12.07,9.39,11.88a4.45,4.45,0,0,0,3.17-2.05c1.73-2.36,3.2-7.26,1.65-13.33-2-8-4.61-10.26-4.72-10.36Z" transform="translate(-204.7 -274.29)"/><path d="M291.76,420.1s3.85,1.38,8,7.87a12.8,12.8,0,0,1,1.62,10.57,7.15,7.15,0,0,1-3.47,4.57c-1.58.69-4.18.39-6.79-.77-2.81-1.25-4.95-3.22-5.59-5.14l-1.34.45c.77,2.32,3.15,4.55,6.35,6,3,1.34,6,1.63,7.94.78a8.53,8.53,0,0,0,4.25-5.46,14.18,14.18,0,0,0-1.77-11.74c-4.42-7-8.53-8.4-8.71-8.46Z" transform="translate(-204.7 -274.29)"/><path d="M260.13,431.37c2.6,1.5,5.73.83,7.9,0,1.54-.58,3.89-1.83,4.13-2.56l-1.26-.61c-.52.6-6.28,4.12-10.06,1.94s-3.81-7.82-3.81-7.87l-1.42,0C255.61,422.5,255.49,428.69,260.13,431.37Z" transform="translate(-204.7 -274.29)"/><path d="M252.14,437.22c-.91,3-.63,5.92.78,7.87a7,7,0,0,0,5.71,2.71c5.9.18,12-6.18,13.06-13.61l-1.4-.2c-1,6.64-6.49,12.55-11.61,12.39a5.59,5.59,0,0,1-4.61-2.12c-1.15-1.59-1.36-4-.57-6.63,1.38-4.6,6-6.53,6.09-6.55l-.53-1.31C258.84,429.86,253.72,432,252.14,437.22Z" transform="translate(-204.7 -274.29)"/><path d="M238,418.43c-1.16,4.82.86,7.88,6.16,9.35,2.74.75,5.46-.34,7.25-1.38,2.11-1.23,4-3.09,4.3-4.14l-1.38-.34a9.76,9.76,0,0,1-3.68,3.28c-1.55.89-3.86,1.83-6.11,1.21-4.54-1.25-6.13-3.61-5.17-7.65.92-3.83,5-6.37,5-6.4l-.74-1.2C243.43,411.27,239,414,238,418.43Z" transform="translate(-204.7 -274.29)"/><path d="M239.63,436.61a9.05,9.05,0,0,0,1.74,7.53,5.69,5.69,0,0,0,4.29,2.33c3.31,0,6.53-1.57,7.17-3.49l-1.35-.44c-.35,1-2.73,2.51-5.82,2.51a4.33,4.33,0,0,1-3.19-1.8,7.59,7.59,0,0,1-1.45-6.34c.94-4.43,4.8-9,4.84-9l-1.08-.93C244.62,427.16,240.66,431.82,239.63,436.61Z" transform="translate(-204.7 -274.29)"/><path d="M237.45,449.06c-.19,4.37,2.92,7.05,5.15,7.24a6.18,6.18,0,0,0,6.07-4.85,24.18,24.18,0,0,0,.86-5.86h-1.42a23.24,23.24,0,0,1-.8,5.48,4.77,4.77,0,0,1-4.6,3.82c-1.7-.15-4-2.41-3.85-5.77A18.1,18.1,0,0,1,241.1,442l-1.22-.72A19.2,19.2,0,0,0,237.45,449.06Z" transform="translate(-204.7 -274.29)"/><path d="M260,447s.33,1.06-.82,3.63-6,5.46-7.9,4.64c-1.59-.68-2.16-3.89-2.24-5.07l-1.41.1c0,.52.44,5.13,3.09,6.27,2.87,1.23,8.35-2.2,9.76-5.37s.94-4.49.84-4.73Z" transform="translate(-204.7 -274.29)"/><path d="M269.48,453.05a4.81,4.81,0,0,1-4.13.86c-3.4-1-3-7.2-3-7.27l-1.41-.1c0,.3-.49,7.42,4,8.73a6.19,6.19,0,0,0,5.33-1.06,10.45,10.45,0,0,0,4.24-7.74l-1.41-.09A9.14,9.14,0,0,1,269.48,453.05Z" transform="translate(-204.7 -274.29)"/><path d="M227.69,430a12,12,0,0,0-.44,9.65,9.48,9.48,0,0,0,4.8,5.48c4,1.66,8.26-2,9.09-3.87l-1.3-.57c-.57,1.28-4.05,4.44-7.25,3.13a8.17,8.17,0,0,1-4-4.67,10.67,10.67,0,0,1,.38-8.53c2.8-5.75,9.58-6.93,9.64-6.95l-.22-1.39C238.07,422.28,230.81,423.53,227.69,430Z" transform="translate(-204.7 -274.29)"/><path d="M229.93,412.17c-4.79,3.19-6.28,9-6.7,11.34-.5,2.77-.36,5.19.35,6.17a5.58,5.58,0,0,0,4.24,2.12v-1.42a4.2,4.2,0,0,1-3.1-1.54c-.34-.46-.6-2.35-.11-5.08.39-2.16,1.76-7.52,6.1-10.41a21.83,21.83,0,0,1,12.06-3.88l.08-1.42A23,23,0,0,0,229.93,412.17Z" transform="translate(-204.7 -274.29)"/><path d="M227.9,400.86c-6.78,5-5.59,12.48-4.68,13.94,1,1.62,3.44,1.83,3.55,1.83l.11-1.41a3.57,3.57,0,0,1-2.46-1.17c-.67-1.07-1.68-7.63,4.32-12.05a16.42,16.42,0,0,1,12.58-2.88l.34-1.38A17.62,17.62,0,0,0,227.9,400.86Z" transform="translate(-204.7 -274.29)"/><path d="M245.37,391a8.31,8.31,0,0,0-4.24,5.44c-1.3,5.75,3.28,7.15,3.33,7.17l.4-1.36c-.14,0-3.35-1.08-2.35-5.5a6.89,6.89,0,0,1,3.54-4.5,9.65,9.65,0,0,1,7.7-.66l.48-1.33A11.16,11.16,0,0,0,245.37,391Z" transform="translate(-204.7 -274.29)"/><path d="M254.36,388.05c-3.82,3.28-2,9-1.88,9.27l1.35-.45c0-.05-1.64-5.09,1.45-7.74s5.15-2.2,7.08-1.71l.12,0,.35-1.38-.13,0C260.64,385.52,258.07,384.88,254.36,388.05Z" transform="translate(-204.7 -274.29)"/><path d="M301,411.3a12.48,12.48,0,0,1,8.79,5.19c1.8,2.67,1.64,7.2-.39,10.3a6.66,6.66,0,0,1-7.07,3.11l-.25,1.39a8.08,8.08,0,0,0,8.51-3.72c2.35-3.61,2.51-8.72.37-11.87a13.72,13.72,0,0,0-9.88-5.82Z" transform="translate(-204.7 -274.29)"/><path d="M298.14,403.77l1,1c.05-.06,5.32-5.55,11-4.62,5.54.89,7.55,4.88,7.08,8.2a5.64,5.64,0,0,1-2.65,3.64,7.8,7.8,0,0,1-6,1.27l-.34,1.37a9.07,9.07,0,0,0,7.11-1.46,7.05,7.05,0,0,0,3.26-4.62c.57-4-1.77-8.75-8.25-9.8S298.38,403.52,298.14,403.77Z" transform="translate(-204.7 -274.29)"/><path d="M290.64,395.11l1,1c.06-.07,5.89-6.21,13.13-5.95,5.64.21,7.17,3.34,7.57,4.67.52,1.75.11,3.63-1,4.38l.82,1.16c1.56-1.11,2.19-3.6,1.5-5.94-1-3.39-4.33-5.52-8.88-5.68C297,388.43,290.89,394.84,290.64,395.11Z" transform="translate(-204.7 -274.29)"/><path d="M276.65,383.59l1,1a7.48,7.48,0,0,1,8.21-1.36,6.78,6.78,0,0,1,3.54,4.6,9.88,9.88,0,0,1,0,5.64l1.09.9c.68-.81,1-3.74.35-6.45a8.28,8.28,0,0,0-4.43-6A9.08,9.08,0,0,0,276.65,383.59Z" transform="translate(-204.7 -274.29)"/><path d="M295.4,376.1c-5.41,2.09-7.49,8-7.58,8.26l1.34.46c0-.05,2-5.55,6.75-7.4a7.87,7.87,0,0,1,6.28.32,7.43,7.43,0,0,1,3.79,3.58c.76,2.28.1,6.68-1.48,7.47l.64,1.27c2.44-1.22,3.08-6.51,2.19-9.19a8.72,8.72,0,0,0-4.54-4.41A9.31,9.31,0,0,0,295.4,376.1Z" transform="translate(-204.7 -274.29)"/><path d="M284.35,372.23c-7.73,1.55-11.65,8.23-11.81,8.51l1.23.71c0-.07,3.78-6.41,10.86-7.83,6.85-1.37,9.45,3.58,9.56,3.79l1.27-.63C295.43,376.71,292.29,370.64,284.35,372.23Z" transform="translate(-204.7 -274.29)"/><path d="M254.48,371.49a8.52,8.52,0,0,0-2,6.48c.35,5.24,4.89,9.16,5.08,9.33l.92-1.08s-4.28-3.71-4.59-8.34a7.14,7.14,0,0,1,1.66-5.43,4.39,4.39,0,0,1,3.14-1.48c1,0,2.72.92,4.16,2.67a10.59,10.59,0,0,1,2.14,9l1.39.28a12,12,0,0,0-2.43-10.16c-1.57-1.91-3.69-3.19-5.26-3.19A5.82,5.82,0,0,0,254.48,371.49Z" transform="translate(-204.7 -274.29)"/><path d="M263,373.24l1.23.71c.08-.13,2.05-3.32,7.51-3a8.06,8.06,0,0,1,6.72,4.57l1.31-.56a9.5,9.5,0,0,0-7.94-5.43C265.49,369.15,263.14,373.07,263,373.24Z" transform="translate(-204.7 -274.29)"/><path d="M227.42,392.36a9.08,9.08,0,0,0,.33,9.48l1.15-.83a7.69,7.69,0,0,1-.22-8,9.41,9.41,0,0,1,8.31-5.2c7,0,7.12,4.12,7.12,4.3h1.42s-.1-5.71-8.54-5.71A10.78,10.78,0,0,0,227.42,392.36Z" transform="translate(-204.7 -274.29)"/><path d="M243.85,379.78a12.2,12.2,0,0,0-.16,10.3l1.27-.64a10.92,10.92,0,0,1,.16-9c1-2,2.59-3.1,4.36-3a3.55,3.55,0,0,1,3.18,2.13L254,379a5,5,0,0,0-4.44-3C247.19,375.86,245.12,377.25,243.85,379.78Z" transform="translate(-204.7 -274.29)"/><path d="M279.32,284.19c-1.62,1.15-3.7,3.73-4.37,9.49a34.46,34.46,0,0,0,1.21,14.83l.12.31.32.11c1.81.61,6.82-4.88,9.56-12.77,1.91-5.5,1.18-8.7.23-10.42a4.89,4.89,0,0,0-3.07-2.5A5,5,0,0,0,279.32,284.19Zm-3.22,14.09a39.36,39.36,0,0,1,.26-4.44c.6-5.24,2.39-7.51,3.78-8.49a3.7,3.7,0,0,1,2.86-.73,3.42,3.42,0,0,1,2.15,1.81,7.17,7.17,0,0,1,.79,3.54,17.73,17.73,0,0,1-1.12,5.72c-2.44,7-6.21,10.91-7.53,11.7A33,33,0,0,1,276.1,298.28Z" transform="translate(-204.7 -274.29)"/><path d="M273,280.74c-1.29.32-6,3.3-5,11.93.84,7.9,6.05,16.43,6.27,16.79l.42.7,2.46-2-.89-1.1L275,308c-1.22-2.13-5-9.13-5.66-15.5a17.88,17.88,0,0,1-.11-2c0-6,3.19-8.17,4.08-8.4a6.14,6.14,0,0,1,3.83,1.24,2.07,2.07,0,0,1,.95,1.58h1.42a3.45,3.45,0,0,0-1.5-2.7A7.3,7.3,0,0,0,273,280.74Z" transform="translate(-204.7 -274.29)"/><path d="M261.76,282.67a8.54,8.54,0,0,0-3.24,5.67,14.62,14.62,0,0,0,3.24,11.18A26.76,26.76,0,0,0,274,308.77l.41-1.35a26,26,0,0,1-11.47-8.76c-3.32-4.35-3.29-8.19-3-10.08a7.16,7.16,0,0,1,2.63-4.73,4.88,4.88,0,0,1,4-.62,4,4,0,0,1,2.5,1.68l1.27-.63a5.41,5.41,0,0,0-3.41-2.42A6.22,6.22,0,0,0,261.76,282.67Z" transform="translate(-204.7 -274.29)"/><path d="M251.35,281.54c-2.37.87-4,2.58-4.23,4.46-.55,4.18,1.58,12.21,9.66,17.2s14.17,4.45,14.43,4.43l-.11-1.41c-.06,0-6.06.41-13.57-4.23s-9.48-12.14-9-15.81c.18-1.33,1.48-2.64,3.32-3.31a8.36,8.36,0,0,1,8.51,1.75l.95-1.05A9.77,9.77,0,0,0,251.35,281.54Z" transform="translate(-204.7 -274.29)"/><path d="M240.51,284.29a6.27,6.27,0,0,0-3.27,5c-.59,4.48,1.94,10,6.45,14,7.5,6.66,17.1,5,22.26,4.2l.15,0-.23-1.4-.16,0c-4.92.82-14.08,2.35-21.08-3.86-5.07-4.49-6.39-9.65-6-12.71a4.92,4.92,0,0,1,2.5-4c4-2,6,.81,6.09.93l1.18-.79S245.67,281.71,240.51,284.29Z" transform="translate(-204.7 -274.29)"/><path d="M292.51,283.07c-4.1.89-6.53,5-6.63,5.17l1.22.71s2.23-3.74,5.71-4.5a7.23,7.23,0,0,1,6,1c1.33,1.07,2,2.8,2,5.14,0,3.14-2.92,7.66-7.26,11.25-5.14,4.25-11,6.27-15.57,5.39l-.26,1.39c5,1,11.27-1.17,16.73-5.68,4.73-3.91,7.78-8.76,7.78-12.35,0-2.79-.85-4.89-2.53-6.24A8.47,8.47,0,0,0,292.51,283.07Z" transform="translate(-204.7 -274.29)"/><path d="M301.17,290l.63,1.27a5.19,5.19,0,0,1,4.52.32,3.91,3.91,0,0,1,1.48,2.86c.51,3.25-.68,8.28-4.49,12.19-5.5,5.65-20,3.36-21.16,2.49,0,0-.1-.14-.08-.23s.17-.26.28-.32l-.71-1.23a2.06,2.06,0,0,0-1,1.3,1.75,1.75,0,0,0,.44,1.44c.71.85,4.91,1.53,8.39,1.66,3.89.15,11-.19,14.83-4.12a16.48,16.48,0,0,0,4.87-13.4c-.3-1.91-1.09-3.3-2.21-3.89A6.65,6.65,0,0,0,301.17,290Z" transform="translate(-204.7 -274.29)"/><path d="M303,307.4l.33,1.38c5.64-1.33,10.94-.5,13.51,2.14a5.17,5.17,0,0,1,1.31,5.16,6.87,6.87,0,0,1-3.9,4.26c-4.25,2.11-10.83,2.08-16-.07a24.86,24.86,0,0,1-11.32-9.69l-1.24.69a25.88,25.88,0,0,0,12,10.31c5.5,2.29,12.55,2.31,17.15,0a8.23,8.23,0,0,0,4.64-5.17,6.61,6.61,0,0,0-1.66-6.51C314.89,306.9,309.2,305.93,303,307.4Z" transform="translate(-204.7 -274.29)"/><path d="M308.16,296.85l1.33.49c.13-.38,1.64-1.22,3.94-1.17a5.35,5.35,0,0,1,5.38,3.64c2,6.44-2.49,9.22-2.68,9.34l.72,1.22c.06,0,5.69-3.44,3.31-11-.9-2.87-3.34-4.56-6.7-4.63C311.25,294.7,308.66,295.47,308.16,296.85Z" transform="translate(-204.7 -274.29)"/><path d="M263,307.18l1.92-.84,2.91.42c.5.08,3,0,3,0l2.17.67,1.08.33.84.75.83-.25.58-.33s.75.08,1,.08h1.25l1.59.33H281l.5.42.25.58L283,310l2.75.92,1.33.41,1.92,2.84s-7.84,2.45-9.67,3.08a8,8,0,0,0-3.58,3.08l-6.5-2.5a3.62,3.62,0,0,0-.67-3.41C267.24,312.51,263,307.18,263,307.18Z" transform="translate(-204.7 -274.29)"/><path d="M250.81,351.52l1.1.9c10.33-12.7,19-35.1,19.11-35.32l-1.32-.51C269.62,316.81,261,339,250.81,351.52Z" transform="translate(-204.7 -274.29)"/><path d="M253.66,357.31l1.15.82c10.67-14.89,21.1-38.39,21.2-38.63l-1.29-.57C274.61,319.17,264.25,342.54,253.66,357.31Z" transform="translate(-204.7 -274.29)"/><path d="M256.61,344.72l2.75-4.63a23.19,23.19,0,0,1-1.25-9.37c.5-4.75,1.25-7.88-.25-10.63s-4.12-3.25-6.5-2.75-4.87.5-5.87-.87a5.75,5.75,0,0,0-6.5-2.25c-3.25,1-4.75,3.5-6.25,5.75s-3.5,5.37-6.13,6.5a6.77,6.77,0,0,0-3.87,6.37c.25,2.13,2.12,4.25,6.62,4s10.38-2.5,17.75-.25S256.74,344.09,256.61,344.72Z" transform="translate(-204.7 -274.29)"/><path d="M261.11,347.22l1.38-2.38a18.34,18.34,0,0,0,6.62-2.37c2.88-1.88,7.25-7.25,9.38-10a13.47,13.47,0,0,1,8.25-5c3-.5,6.12.62,9.75,2.12s6.12,1.88,9.12.88a14.15,14.15,0,0,1,9.63-.13c3.12,1.25,3.62,2.5,3.12,4.88s-6.37,9.12-19,11.62-23.87.25-27.5-.12S261.61,346.84,261.11,347.22Z" transform="translate(-204.7 -274.29)"/><path d="M260.24,370.34a107.46,107.46,0,0,0-2.63-12.25,17,17,0,0,0-8.62-10.5c-4.25-2.25-10.75-5-16.13-3s-7.62,9.38-7.62,9.38-7.75-2.25-12.75,2.25l.12,32.5s1.25,5.62,14.25,10.25c0,0-.37-6.5,3.5-9.63s10.63-2.75,13.5,0c0,0-1.37-5.12.38-8.75s5.75-5.37,8.87-2.25c0,0-.12-4.62,2.38-6.62A5.67,5.67,0,0,1,260.24,370.34Z" transform="translate(-204.7 -274.29)"/><path d="M224,406.47a18.19,18.19,0,0,0-11.25-5.5l-.25,46.87s10-3.12,15.12-9.62c0,0-1.25-4.13-.12-6.88,0,0-3.38-1-3.88-3.62s1.5-9,3.25-11.5a5.38,5.38,0,0,1-3.5-2.88C222.49,411.09,224,406.47,224,406.47Z" transform="translate(-204.7 -274.29)"/><path d="M229.82,442.43a20.11,20.11,0,0,0-10.5,11.33c-3.16,8.5,3.84,21.33,19.67,28.83,0,0-16.33,10.5-24,19.5,0,0,2.24,2.84,4.83,3.17s7.17.5,7.17.5-1-5.17,6-10.5,19.33-9.33,19.33-9.33,8.17,5.5,18,4.5,16-13.34,16-13.34,7.67-.16,12.84-4.33,6.33-11.17,4-14.5-9-8-18.34-10.33c0,0-1.37,3.45-4.16,4s-6.17-4.71-6.17-4.71a2.28,2.28,0,0,0-.88,1c-.37.75-2.25,6.12-6.37,6.5s-5.5-5.88-5.5-5.88a1.54,1.54,0,0,0-1.5,1c-.42,1.09-4.88,6.75-8,6.38s-3.88-4.75-3.88-4.75-2.54,4.5-5.7,4.12-6.42-3.62-3.3-12.37l-1.75.37S232,446.63,229.82,442.43Z" transform="translate(-204.7 -274.29)"/><path d="M233.61,478.84s-5.5,12.13-6,13.63S217,503.84,217,503.84s-4-1.87-4.25-5.75c0,0,4.12-17.25,12.25-27.12S233.61,478.84,233.61,478.84Z" transform="translate(-204.7 -274.29)"/><path d="M311.74,392.34s3,2.88.62,7.38c0,0,5.88,2.12,5.75,7.62s-7.62,7.13-9,6.5c0,0-.25.5.38,1.13a9.27,9.27,0,0,1,1.62,9.62s7.63,4.25,12,5.75,8.25.25,12.5-3c0,0,8.13-.75,10.63-6.87s-.25-12.88-.25-12.88,3.62-8.62-.38-13.75-5.12-5.5-5.62-7.5-3.13-7.87-9.5-9S318.24,380,311.74,392.34Z" transform="translate(-204.7 -274.29)"/></svg>