<svg id="_9_4" xmlns="http://www.w3.org/2000/svg" viewBox="0 0 153.07 238.11"><defs><style>.cls-1{fill:#ed1c24;}.cls-2{fill:#fff;}.cls-3{fill:#ffcb05;}</style></defs><title>_9_4</title><rect class="cls-1" width="153.07" height="238.11"/><path class="cls-2" d="M219.88,293l-.17,83.16.17,121.67s.83,9.33,9.5,9.83H348.55s8-.5,8.83-9.83V293.54s-.33-7.84-10-8.84H229.05S221.55,284.54,219.88,293Z" transform="translate(-212.1 -277.15)"/><path class="cls-1" d="M247.55,411.87s3.66,5.83,8.33,9.16-1.5,2.51-1.5,2.51l-10.17,8.33.5,6.17,8.34,6.33,8.83,4.5,3.25,2.33-.25,4.84-.33,4.83s.5,1.83,1.33,2,6.5-.67,7-.67,11-3.83,11.5-3.83,13.67,1.83,13.67,1.83,9.66,5.84,12.66,6,8.34.84,10.67-.16,10.5-6.67,11.83-7.34,8-5.83,8-5.83l-2.33-15-3.5-11-.83-16.5-3.17-2.79,3.83-7.88-.83-4.37s.83-3.79-1.5-5.13-6,1.84-6,1.84a56.59,56.59,0,0,1-5,3c-.67.16-11-2.5-11-2.5a48.76,48.76,0,0,0,1-9.5,58.94,58.94,0,0,1,.67-9.67s-.84-.84-1.34,0-4.83,4.67-6,5.83-3.66,3.84-4.16,5a6.1,6.1,0,0,1-.42-3.25,44.57,44.57,0,0,0,.75-4.62s-6.37,5.62-8.5,8.37a28.92,28.92,0,0,0-4.37,10.38L282.38,394l-3.12-6.12a6.74,6.74,0,0,0-4.63-4.63c-3.75-1-5.5-.12-6.37,2s-3.5,1.38-3.5,1.38L259.13,384l-4.75,10.38-.5,4.5-8.37,8.25-1.38,4.25Z" transform="translate(-212.1 -277.15)"/><path class="cls-1" d="M275.88,322.7s-4.12,3.75-12.87,3.63a110.35,110.35,0,0,1-15-1.25l1-1.13a27.94,27.94,0,0,0,6.25-5.12c2.25-2.75,5-5.25,8.75-5.63l7-5.37s-1.63-5.5-1.13-9.63,3.25-11.12,3.25-11.12,2.63,3,3.63,4.12,5,6.63,5.75,7.25,6.75-1.75,6.75-1.75,2-3.62,2.87-5a49.24,49.24,0,0,0,2.38-4.87s3.12,4.37,4.25,6.25,3.75,6.12,3.12,15.5c0,0,5-3,5.38-3.25a30,30,0,0,1,5-2.25c.62,0,7.87-2,7.87-2a73.59,73.59,0,0,0,7.88.12c1.62-.25,5.5.63,5.5.63s-2.88,2.12-3.5,3.5-4.38,7.12-9.5,9l.37,8.87a15.11,15.11,0,0,1,4,3.75,14.62,14.62,0,0,1-9.62,7c-7,1.63-15.75-.62-20.75-6l-4.13,1.25-3.5-1.87-2.25-.88S277,323.58,275.88,322.7Z" transform="translate(-212.1 -277.15)"/><path class="cls-3" d="M283.76,322.83s-5.13-5.75-5.25-8.88a26.65,26.65,0,0,0-6.13-5.12c-4.12-2.63-12.37-4.25-14.5-4.63,0,0-1,0-.37.75s5.25,6.75,6.12,8.13,9.88,9.25,17.38,12a1.63,1.63,0,0,0,1.75-.13A2.72,2.72,0,0,0,283.76,322.83Z" transform="translate(-212.1 -277.15)"/><path class="cls-3" d="M280.88,306.7a34.47,34.47,0,0,1,1-7.75,98.79,98.79,0,0,1,3.38-9.5s2.5,4.63,3.12,5.63,4.13,7.37,4.38,12.12a19.3,19.3,0,0,0-1.63,3.5,29.24,29.24,0,0,0-.75,4.63S283.13,308.45,280.88,306.7Z" transform="translate(-212.1 -277.15)"/><path class="cls-3" d="M290,314.7s.5-4.12,1.62-5.62a19.8,19.8,0,0,0,2.75-7.25,33.65,33.65,0,0,1,3.13,5.12,25.52,25.52,0,0,1,1.12,5.13s-4.62,4.62-5.37,7.37Z" transform="translate(-212.1 -277.15)"/><path class="cls-3" d="M307.63,308.45l.75-3.5-.62-.25a10,10,0,0,1,4.75-5.62c3.75-2,10.37-3.13,10.37-3.13s-2.25,3.88-2.5,4.63a15.43,15.43,0,0,1-5.87,6.12A14.59,14.59,0,0,1,307.63,308.45Z" transform="translate(-212.1 -277.15)"/><path class="cls-3" d="M305,315.7s9.12,1.63,15-.87c0,0,4.87,1,6,1.87l1.75,1.38s-3.25,4.25-10.63,6a28,28,0,0,1-17.25-1.63S304.38,318.45,305,315.7Z" transform="translate(-212.1 -277.15)"/><path class="cls-3" d="M305.38,401.2s4.75-4.37,5.5-8.25a29.18,29.18,0,0,1,6.75-1,57.29,57.29,0,0,0,6.88-.62s-2.88,4.5-4,6.37-7.13,11.5-15.63,14.5A61,61,0,0,0,305.38,401.2Z" transform="translate(-212.1 -277.15)"/><path class="cls-3" d="M279.26,387.33s4.5-.63,8.87,8.12v3.63l-6.25,9.5s-1.5-4.88-1.87-6.38a9.1,9.1,0,0,1-.13-3.62C280,397.7,280.26,390.58,279.26,387.33Z" transform="translate(-212.1 -277.15)"/><path class="cls-3" d="M262.88,399a24.73,24.73,0,0,1-1.12-5.25c-.13-2.25-.63-7.75-.63-7.75s5.13,4.25,6.13,5.25,5.75,4.38,7.62,10.5,2,11.63,1,14.88l-6.75-1.88a18.68,18.68,0,0,0-1-9.37A12.76,12.76,0,0,0,262.88,399Z" transform="translate(-212.1 -277.15)"/><path class="cls-3" d="M294.76,430.45a6.21,6.21,0,0,1-4.5-1.5c-1.75-1.75-1.63-7.62-1.5-10.25s2-8.62,2-8.62l1.5-4.38,1.75-7s2.12,4,2.87,5.63,3.5,6.5,3.88,10.87-1.38,10.38-2.38,11.5a7,7,0,0,1-2.12,1.63A7.47,7.47,0,0,1,294.76,430.45Z" transform="translate(-212.1 -277.15)"/><path class="cls-3" d="M289.38,427.33s-.25-2.38-3.87-5.63-5.75-4-9.63-5.12-12-3.25-12.87-3.63-.38.5.25,1.13,2.75,4.37,3.87,5.87,4.25,5.88,8.25,8.5a16.64,16.64,0,0,0,11.25,2.63A3.11,3.11,0,0,0,289.38,427.33Z" transform="translate(-212.1 -277.15)"/><path class="cls-3" d="M274.51,427.7l-4.13-3.5s-4.25.63-6.87-.12a11.78,11.78,0,0,0-6.5-.38c-2.13.5-9.13,5.5-9.13,5.5l-3,4.38L243.51,440l5.5,3.13,6.75-2.5,3.12-2.25L262,435.7l-.63-.75a53.58,53.58,0,0,1,7-4.75A38.75,38.75,0,0,1,274.51,427.7Z" transform="translate(-212.1 -277.15)"/><path class="cls-3" d="M267.51,443.83s-5.38,0-7.38.25-6,5.37-6,5.37l-.25,5.13.25,1.87a19.12,19.12,0,0,1,4.13-1.87c1.37-.25,6.62-2.63,6.87-3.38C265.13,451.2,265.88,446.2,267.51,443.83Z" transform="translate(-212.1 -277.15)"/><path class="cls-3" d="M270.76,456.45s-.75,3-.5,3.75a32.16,32.16,0,0,1,.12,4.75l3.25,1.88,5.13-4.5,2.5-7,2-4.88-1-1.87S276.88,454.2,270.76,456.45Z" transform="translate(-212.1 -277.15)"/><path class="cls-3" d="M289.63,428.45a22.24,22.24,0,0,0-3.87,4.88c-1,2.12-1.25,8.62-1.5,9.87s-1.13,10-1.13,10l.75.63,2.38-1,7.25-9.63.75-5.37s1-4.75.5-7.38C294.76,430.45,291,427.7,289.63,428.45Z" transform="translate(-212.1 -277.15)"/><path class="cls-3" d="M300.26,449.45s.62,5.63,1.87,8.13,5.63,6.25,5.63,6.25l1.12-3.13-.75-5.12s.38-7.5-1.12-11.5a20,20,0,0,0-3.63-6.25L301,436a51.92,51.92,0,0,1,.5,7.13A23,23,0,0,1,300.26,449.45Z" transform="translate(-212.1 -277.15)"/><path class="cls-3" d="M304.51,438.58s3,6,3,6.75,1.62,1.75,1.62,1.75,5.63,2.75,7.75,3.75,9.38,3.5,9.38,3.5l4-.88-2-2.62-.88-1.88s-2-6.5-4.87-8.37a17.07,17.07,0,0,1-7.63,1.12C310.13,441.45,304.51,438.58,304.51,438.58Z" transform="translate(-212.1 -277.15)"/><path class="cls-3" d="M298.76,427.2s12.5-1.5,16-2.12a52.34,52.34,0,0,0,12-4.63c1.25-.87,1.5,1.25,1.5,1.25l-3,8.25a15.5,15.5,0,0,1-10.63,3.88c-6.62-.13-14.87-5.63-14.87-5.63Z" transform="translate(-212.1 -277.15)"/><path class="cls-3" d="M303,417.58l1.25-4.63s6.37.13,15.5-3.75,12.87-7.25,14.62-13.87c0,0,2.25-.5,2.5,2.62s-5.5,9.63-5.5,9.63A31.34,31.34,0,0,1,320,414.7C312.63,417.45,303.88,417.83,303,417.58Z" transform="translate(-212.1 -277.15)"/><path d="M308.19,304.27c-.19.05-4.77,1.39-11.34,8.71s-6.92,14.4-6.93,14.7l0,.89.87-.17c.27,0,6.48-1.31,12.18-8.51,4.81-6.08,6.09-14.48,6.14-14.84l.16-1.07Zm-10.28,9.65c4.41-4.91,7.85-7,9.53-7.8-.54,2.54-2.1,8.45-5.61,12.89a23,23,0,0,1-10.37,7.72A25.49,25.49,0,0,1,297.91,313.92Z" transform="translate(-212.1 -277.15)"/><path d="M229.8,284a10.64,10.64,0,0,0-10.63,10.63V497.78a10.64,10.64,0,0,0,10.63,10.63H347.46a10.64,10.64,0,0,0,10.63-10.63V294.62A10.64,10.64,0,0,0,347.46,284Zm-9.21,213.79V294.62a9.22,9.22,0,0,1,9.21-9.21H347.46a9.22,9.22,0,0,1,9.21,9.21V497.78a9.22,9.22,0,0,1-9.21,9.21H229.8A9.22,9.22,0,0,1,220.59,497.78Z" transform="translate(-212.1 -277.15)"/><path d="M275.84,303.57c0,.41.56,10.1,4.62,16.19a16,16,0,0,0,10.15,7.14l.21-1.4a14.89,14.89,0,0,1-9.18-6.52c-2.89-4.34-3.91-10.85-4.24-13.86l5.37,4.3,1.05.84c2.78,2.19,6.6,5.2,8.58,9.73l1.3-.57c-2.13-4.86-6.26-8.12-9-10.28l-1-.82-7.9-6.32Z" transform="translate(-212.1 -277.15)"/><path d="M284.56,288.78c0,.05-2.2,5.58-3.36,9.73a28.44,28.44,0,0,0-.86,8.75l1.41-.11s0-.56,0-1.43a26.46,26.46,0,0,1,.85-6.83c.79-2.8,2-6.22,2.75-8.13,1,2,2.94,5.57,4.14,7.48a18.52,18.52,0,0,1,2.57,8.31c0,.15,0,.3,0,.43l1.41.11c.18-2.56-1.06-6.86-2.77-9.6s-4.77-8.72-4.81-8.78l-.71-1.39Z" transform="translate(-212.1 -277.15)"/><path d="M293.84,301.37a24.88,24.88,0,0,1-2.73,7.79,15.25,15.25,0,0,0-1.6,6.18l1.41.06a14.15,14.15,0,0,1,1.4-5.49,28.07,28.07,0,0,0,2.57-6.5l1.88,3.31a15.23,15.23,0,0,1,1.1,4.9,2.36,2.36,0,0,1,0,.3l1.4.23A15,15,0,0,0,298,306l-4.16-7.34Z" transform="translate(-212.1 -277.15)"/><path d="M256.18,304.67c.05.06,5,5.67,7,8.44s12.34,11.83,23.49,15a18,18,0,0,1,.54,4.28c0,4.07,1.94,25,10.89,45.61l1.3-.56c-8.85-20.4-10.77-41-10.77-45.05a18.72,18.72,0,0,0-.7-5l-.11-.38-.38-.1c-11-2.94-21.1-11.72-23.11-14.56-1.4-2-4.19-5.26-5.8-7.13a54.53,54.53,0,0,1,10.31,2.54,21.86,21.86,0,0,1,9,6.75l1.14-.83a22.83,22.83,0,0,0-9.66-7.25,57.19,57.19,0,0,0-12.5-2.87l-1.81-.19Z" transform="translate(-212.1 -277.15)"/><path d="M272.54,286.64s-1.35,3.91-2.84,9.2c-1.55,5.49.91,12.32,1,12.61l1.33-.49a27,27,0,0,1-1.44-8.11,13.71,13.71,0,0,1,.45-3.62c1-3.49,1.89-6.32,2.4-7.86.85,1.11,2.21,2.85,3.4,4.14,1.86,2,4.05,5.07,4.33,6.35l1.38-.31c-.4-1.83-3.08-5.26-4.67-7-1.78-1.95-4.09-5.08-4.11-5.11l-.8-1.09Z" transform="translate(-212.1 -277.15)"/><path d="M294.05,286.46a27.89,27.89,0,0,1-2.59,5.17,24.11,24.11,0,0,0-2.59,5.52l1.35.43a23.09,23.09,0,0,1,2.41-5.14,25.5,25.5,0,0,0,2.24-4.23c1,1.55,3,4.45,4.24,6.53a21.37,21.37,0,0,1,2.34,9.95,16.15,16.15,0,0,1-.58,4.48l1.36.4c1.6-5.51-.08-12.58-1.91-15.57s-5-7.65-5-7.7l-.77-1.14Z" transform="translate(-212.1 -277.15)"/><path d="M257.41,315.84,255,318.3a23,23,0,0,1-8.7,6.42l.28,1.36a68.54,68.54,0,0,1,8.89.66c2.19.33,13.49,1.75,21-3.46l-.81-1.16c-7.07,4.9-17.89,3.54-20,3.22a60.7,60.7,0,0,0-6.29-.6,26.2,26.2,0,0,0,6.64-5.48l2.34-2.36a10.74,10.74,0,0,1,5.9-2.82l-.07-1.42A12,12,0,0,0,257.41,315.84Z" transform="translate(-212.1 -277.15)"/><path d="M323.49,295.16a30.33,30.33,0,0,0-10.28,2.92,16.74,16.74,0,0,0-6.64,7l1.29.6a15.38,15.38,0,0,1,6-6.34,26.86,26.86,0,0,1,8.3-2.56,49.37,49.37,0,0,1-4.66,6.46c-3.12,3.49-7.65,4.59-10.07,4.94l.2,1.4c2.61-.37,7.5-1.57,10.93-5.4a54.25,54.25,0,0,0,5.58-7.95l.68-1.18Z" transform="translate(-212.1 -277.15)"/><path d="M328,300.49c-2.95.17-7.91.17-8,.17v1.42c.05,0,5.05,0,8-.17a25.6,25.6,0,0,1,4.1.13,31.46,31.46,0,0,0-4.09,4.8,20.39,20.39,0,0,1-12.05,8.34c-6.66,1.59-11.18-.28-11.22-.3l-.56,1.31c.2.08,5,2.07,12.11.37a21.69,21.69,0,0,0,12.95-9,40.08,40.08,0,0,1,4.87-5.51l1-1-1.36-.25A26.79,26.79,0,0,0,328,300.49Z" transform="translate(-212.1 -277.15)"/><path d="M319,315.41c.05,0,5,.34,7.88,2.59-.9,1.07-3.66,3.73-10,5.35-8.06,2-15.26-.27-16.29-1.45l-1.07.94c1.37,1.56,9.05,4.09,17.71,1.88s11.17-6.32,11.27-6.49l.29-.49-.41-.39c-3.15-3-9-3.34-9.28-3.36Z" transform="translate(-212.1 -277.15)"/><path d="M320.14,323.87a7.9,7.9,0,0,1,3.9,3.28A17.92,17.92,0,0,1,308,333.83c-10.56-1.26-13.15-7.46-13.25-7.72l-1.32.52c.11.29,2.95,7.24,14.41,8.61s17.61-7.55,17.67-7.64l.22-.34-.17-.36a9.24,9.24,0,0,0-4.89-4.36Z" transform="translate(-212.1 -277.15)"/><path d="M304.59,379l1.25-.66c-11.93-22.89-10.93-51-10.92-51.31l-1.41-.05C293.5,327.29,292.47,355.8,304.59,379Z" transform="translate(-212.1 -277.15)"/><path d="M289.86,410.69c-.05.19-1.18,4.57-1.68,7.73-.41,2.62-.46,10.39,3,12.24,1.88,1,3.15.64,3.88.17,1-.62,2.07-2.18,1.82-6-.19-3-1.44-5.28-2.76-7.65a30.33,30.33,0,0,1-2.93-6.5l-.73-2.44Zm2,18.72c-1.83-1-2.49-4.87-2.49-8a17.73,17.73,0,0,1,.19-2.72c.27-1.69.73-3.75,1.09-5.32a40.68,40.68,0,0,0,2.25,4.53c1.29,2.33,2.41,4.33,2.59,7.05,0,.33,0,.64,0,.95,0,1.92-.43,3.27-1.21,3.78A2.53,2.53,0,0,1,291.88,429.41Z" transform="translate(-212.1 -277.15)"/><path d="M261.49,413.14s3.16,4,4.63,6.28,6.82,9.89,14.07,12c3.94,1.13,6.64,1.05,8.27-.24,1.17-.92,1.72-2.42,1.63-4.47v-.1l0-.09c-.05-.15-1.3-3.77-6.1-7-4-2.74-8.91-3.9-11.82-4.59l-1.4-.34-10.62-3.12ZM280.58,430c-6.78-1.93-11.87-9.19-13.27-11.37-.88-1.37-2.3-3.27-3.36-4.65l6.41,1.89,1.44.35c2.82.67,7.53,1.79,11.35,4.38a14.5,14.5,0,0,1,5.52,6.22,2.44,2.44,0,0,1,0,.27,3.5,3.5,0,0,1-1.09,2.92C286.36,431,284,431,280.58,430Z" transform="translate(-212.1 -277.15)"/><path d="M284,438l-.41,5.51c-.28,4.3-.57,8.75-1.23,10.84l1.23.66c0-.05,4.18-5.18,6.63-7.79s6.23-6.65,5.19-16.89l-1.41.14a31.79,31.79,0,0,1,.17,3.25c0,7.21-2.84,10.24-5,12.53-1.46,1.55-3.47,3.95-4.92,5.69.33-2.36.54-5.36.73-8.34l.41-5.47c.46-4.76,3-6.82,3.06-6.84l-.86-1.12C287.49,430.23,284.53,432.55,284,438Z" transform="translate(-212.1 -277.15)"/><path d="M295.87,429.41c.06,0,1.66.1,3.23,2.81,1.19,2.06,1.81,7.12,1.81,10.83a13.77,13.77,0,0,1-.37,3.76l-2.3,6.91-.81-1.87a47.62,47.62,0,0,1-2-5,13.83,13.83,0,0,1-.59-4.11,16.78,16.78,0,0,1,.27-3l-1.38-.3a17,17,0,0,0,.35,7.87,51.33,51.33,0,0,0,2.09,5.18A15.73,15.73,0,0,1,297.5,456l1.39.22,3-9c.91-2.74.38-12.39-1.56-15.75S296,428,295.88,428Z" transform="translate(-212.1 -277.15)"/><path d="M293.52,397.72a79.38,79.38,0,0,1-2.14,7.91,22.77,22.77,0,0,0-1.21,6.74h1.42a21.62,21.62,0,0,1,1.13-6.27c.66-1.9,1.26-4.16,1.66-5.82.79,2,2,4.93,2.7,6.41,1,2,3.14,6.27,3.14,10.86a13.51,13.51,0,0,1-.2,2.36c-1,5.86-2.55,7.13-4,7.62l.45,1.34c2.59-.86,4-3.39,5-8.71,1-5.9-1.83-11.65-3.06-14.11-1.14-2.27-3.45-8.37-3.47-8.43l-.85-2.25Z" transform="translate(-212.1 -277.15)"/><path d="M285.78,401.49a40.12,40.12,0,0,0-4.56,7.78c-2.28,5.62,1.1,10.62,1.24,10.83l1.17-.8a11.79,11.79,0,0,1-1.77-6,9.2,9.2,0,0,1,.68-3.49,38.93,38.93,0,0,1,4.4-7.5c.53-.77,1-1.45,1.4-2.08a14.61,14.61,0,0,0,.54,2.23l.36.89a16.84,16.84,0,0,1,1.48,5,1.73,1.73,0,0,1,0,.41l1.4.26c.31-1.72-.8-4.42-1.53-6.2l-.34-.85a24.94,24.94,0,0,1-.79-4.16l-1.4-.08A15.57,15.57,0,0,1,285.78,401.49Z" transform="translate(-212.1 -277.15)"/><path d="M301.77,374.82A61.51,61.51,0,0,0,291.3,386a20.15,20.15,0,0,0-3.62,13.16l1.4-.17s-.05-.47-.05-1.23a19.27,19.27,0,0,1,3.43-10.94,58.93,58.93,0,0,1,8.35-9.25,22.54,22.54,0,0,0-1,5.34c0,.13,0,.26,0,.38l.2,1.58a50.51,50.51,0,0,1,.59,7.11c0,4.21-.76,9.13-3.81,13l1.12.88c5.5-7,4.1-16.93,3.5-21.17l-.19-1.49c-.15-2.32,1.62-7.5,1.63-7.55l.8-2.32Z" transform="translate(-212.1 -277.15)"/><path d="M305.75,377.83c-4.61,3.93-5.67,7.53-5.72,7.68l1.36.39s1-3.37,5.28-7a53.26,53.26,0,0,0,4.87-4.68,29.78,29.78,0,0,0-.71,5.23c0,.16,0,.31,0,.46l0,.49c.1,1.35.15,2.64.15,3.88,0,7.92-2.14,13.46-6.39,16.5l.82,1.16c5.35-3.82,7.65-11.11,6.83-21.65l0-.48c-.15-2.36,1.3-8.05,1.32-8.11l-1.26-.59A43.44,43.44,0,0,1,305.75,377.83Z" transform="translate(-212.1 -277.15)"/><path d="M301,392.51s3.66,4.12,3.82,12.87a24.68,24.68,0,0,1-4.51,14.71l1.1.89a25.58,25.58,0,0,0,4.83-15.62c-.17-9.33-4-13.63-4.19-13.8Z" transform="translate(-212.1 -277.15)"/><path d="M245.48,410.13s3.22,4.22,5.87,7.21,9.56,9.33,19.65,7.56l-.24-1.4c-9.4,1.65-16-4.42-18.35-7.1-1.64-1.85-3.5-4.17-4.66-5.65,1.86.29,4.36.54,7.52.85l1.37.14c4.48.45,5.6,2.44,5.61,2.46l1.26-.65c-.05-.11-1.4-2.69-6.73-3.22l-1.37-.14a82,82,0,0,1-9.19-1.18l-2-.49Z" transform="translate(-212.1 -277.15)"/><path d="M264.81,431.62c-3.15,2.15-4.8,3.47-4.87,3.53l-2,1.63,2.58-.38c.06,0,5.56-.79,9.52.48,6,1.92,10.9,2.25,14.92,1l-.42-1.35c-3.74,1.16-8.34.83-14.07-1a22.84,22.84,0,0,0-7.63-.76c.75-.54,1.65-1.18,2.81-2,3.05-2.09,9.27-4.23,9.33-4.25l-.46-1.34C274.22,427.29,268,429.42,264.81,431.62Z" transform="translate(-212.1 -277.15)"/><path d="M253.83,425.28l-8.23,5.34,1.84.28c.06,0,5.47.83,7.57,1.48l.37.11c2.23.7,5.61,1.74,8.46,1.24l-.25-1.39c-2.51.44-5.69-.55-7.79-1.2l-.38-.12c-1.41-.43-4.13-.92-5.94-1.23l5.12-3.33a12.64,12.64,0,0,1,7.22-2l.12-1.41A13.77,13.77,0,0,0,253.83,425.28Z" transform="translate(-212.1 -277.15)"/><path d="M248.24,434.35c-2,1.83-3.65,3.63-3.72,3.71l-1.07,1.18h1.6a20.5,20.5,0,0,1,4.31.48l.3.08a12,12,0,0,0,13.24-3.62l-1-1c-4.77,5.22-9.71,3.82-11.81,3.22l-.32-.09a16.25,16.25,0,0,0-3.1-.46c.67-.68,1.57-1.59,2.56-2.5,1.86-1.7,6.18-3,6.23-3L255,431C254.82,431.08,250.33,432.42,248.24,434.35Z" transform="translate(-212.1 -277.15)"/><path d="M260.33,443.5a25.1,25.1,0,0,0-3.92-.21c1-1.46,3.06-4.52,3.06-4.52l-1.18-.8-4.63,6.85,1.42-.08a29.81,29.81,0,0,1,5,.16c1.59.27,14.95.37,20.82-6.57l-1.08-.92C274.72,443.46,262.55,443.87,260.33,443.5Z" transform="translate(-212.1 -277.15)"/><path d="M264.34,451.68a81.82,81.82,0,0,0,.34,9.76l.18,1.83,1.09-1.48s2.26-3.05,4.41-4.12l.65-.32c3.05-1.47,11.15-5.37,13.87-12.39l-1.33-.51c-2.51,6.5-10.24,10.22-13.15,11.63l-.67.32a13.74,13.74,0,0,0-3.78,3.17c-.11-1.44-.23-3.6-.23-5.88,0-.65,0-1.31,0-2a13,13,0,0,1,2.5-7.24l-1.09-.91A14.2,14.2,0,0,0,264.34,451.68Z" transform="translate(-212.1 -277.15)"/><path d="M255.68,450.26a44.51,44.51,0,0,1-1.31,5.73l-.62,2,1.7-1.19a16.36,16.36,0,0,1,2.85-1.58l1.1-.31c1.73-.45,4.35-1.11,6.18-3.22l-1.07-.93c-1.54,1.77-3.9,2.38-5.46,2.77l-1.25.36a11.68,11.68,0,0,0-1.59.78c.28-1.08.61-2.55.87-4.17.46-2.88,3.58-5.72,3.61-5.75l-.95-1.05C259.6,443.8,256.21,446.88,255.68,450.26Z" transform="translate(-212.1 -277.15)"/><path d="M275.21,461.83l-.62.49c-.82.69-1.45,1.31-2,1.85a13.61,13.61,0,0,0-.55-3.34,9,9,0,0,1-.39-2.57,5.62,5.62,0,0,1,.21-1.65l-1.33-.48a8.66,8.66,0,0,0,.15,5.1,12.32,12.32,0,0,1,.48,4.7l-.4,2.66,1.66-2.12a23.33,23.33,0,0,1,3.06-3.06l.59-.47c2.15-1.69,5.76-4.51,7.16-14.47l-1.4-.2C280.52,457.67,277.33,460.17,275.21,461.83Z" transform="translate(-212.1 -277.15)"/><path d="M255.51,394.27a96.06,96.06,0,0,0,2,12.44,11.5,11.5,0,0,0,6.6,7.49l.5-1.33a10.21,10.21,0,0,1-5.73-6.51,85.81,85.81,0,0,1-1.81-10.67c1.46,1,3.88,2.74,5.74,3.94a15.51,15.51,0,0,1,6.08,12.21,14.35,14.35,0,0,1-.23,2.57l1.4.25a16.71,16.71,0,0,0-6.48-16.22c-2.79-1.8-6.93-4.78-7-4.81l-1.27-.91Z" transform="translate(-212.1 -277.15)"/><path d="M260,385.54a41.63,41.63,0,0,1,1.14,8.16,10.21,10.21,0,0,0,2,6.29l1.09-.91a8.94,8.94,0,0,1-1.67-5.38,35.12,35.12,0,0,0-.73-6.38l3.88,3.41.69.57a23.23,23.23,0,0,1,8.27,12.43,27.38,27.38,0,0,1,1.17,7.56,12.51,12.51,0,0,1-.79,4.93l1.27.63c.09-.19,2.26-4.68-.29-13.51a24.47,24.47,0,0,0-8.74-13.14l-.63-.53-7.21-6.33Z" transform="translate(-212.1 -277.15)"/><path d="M268.61,383.67a15.87,15.87,0,0,0-1.94,7.37h1.42a14.83,14.83,0,0,1,1.73-6.64,2.87,2.87,0,0,1,2.76-1.11,7.26,7.26,0,0,1,5.81,4.35c1.07,2.63.88,6.4.72,9.43a16.87,16.87,0,0,0,.09,4.66l.43,1.45c.65,2.14,1.63,5.36,1.39,6.55l1.39.28c.31-1.54-.65-4.7-1.42-7.24l-.43-1.43a17.85,17.85,0,0,1,0-4.19c.17-3.17.38-7.12-.82-10a8.6,8.6,0,0,0-7-5.22A4.13,4.13,0,0,0,268.61,383.67Z" transform="translate(-212.1 -277.15)"/><path d="M279,386.66l.11,1.41c.22,0,5.36-.28,8.45,8.21l1.33-.49C285.4,386.23,279.25,386.64,279,386.66Z" transform="translate(-212.1 -277.15)"/><path d="M324.21,390.51a24.86,24.86,0,0,1-5.33.65c-3.08,0-7.29,0-8.83,1.54l1,1c1.13-1.12,5.32-1.12,7.83-1.12a25.08,25.08,0,0,0,4.12-.38,78.39,78.39,0,0,1-8.49,12.2c-5.1,5.91-9.93,7.27-10,7.28l.37,1.37c.21-.05,5.27-1.46,10.68-7.72a81.5,81.5,0,0,0,9.13-13.27l1.1-1.93Z" transform="translate(-212.1 -277.15)"/><path d="M327.71,390.53a74.39,74.39,0,0,1-6.56,4.92l.8,1.17a72.86,72.86,0,0,0,6.76-5.08,3.66,3.66,0,0,1,3.6-.63c1.26.56,1.44,2.08,1.36,3.25-.32,5.14-2.51,9.26-12.42,13.9s-16.59,4.27-16.65,4.27l-.1,1.41c.27,0,7,.46,17.35-4.4,10.55-4.93,12.88-9.43,13.24-15.09.19-3.09-1.3-4.23-2.2-4.64A5.07,5.07,0,0,0,327.71,390.53Z" transform="translate(-212.1 -277.15)"/><path d="M334.29,394.71l.52,1.32h0a1.06,1.06,0,0,1,.69.48c.32.41,1,1.64.08,4.11-1.52,4.22-7.95,10.45-16.09,13.58a42.34,42.34,0,0,1-16.52,2.62l-.12,1.41A42.84,42.84,0,0,0,320,415.53c8.83-3.4,15.31-10,16.91-14.42,1.3-3.6-.13-5.35-.6-5.8A1.94,1.94,0,0,0,334.29,394.71Z" transform="translate(-212.1 -277.15)"/><path d="M331.19,407.2a15.68,15.68,0,0,1-.49,7.46c-1.28,4.16-8.55,8.26-14.28,9.35-6.07,1.14-18.32,2.31-18.44,2.32l.13,1.41c.13,0,12.44-1.18,18.57-2.34s13.93-5.62,15.38-10.32a16.9,16.9,0,0,0,.51-8.21Z" transform="translate(-212.1 -277.15)"/><path d="M326.36,420.35s1,5.07-2,8.91-9.2,4.61-13.23,3.27-12.65-5.59-12.74-5.63l-.62,1.27c.36.18,8.92,4.37,12.92,5.7,4.57,1.53,11.35.55,14.77-3.73s2.36-9.86,2.31-10.09Z" transform="translate(-212.1 -277.15)"/><path d="M324.36,430.18c.07.09,1.87,2.15.67,6.33-1.24,4.34-7.43,5.22-13,4.16-5.87-1.11-10.59-5.6-10.64-5.64l-1,1c.2.2,5.06,4.83,11.36,6s13.16,0,14.65-5.16c1.42-5-.9-7.57-1-7.68Z" transform="translate(-212.1 -277.15)"/><path d="M302.27,437.76s3.81,3.12,4.91,10.22a36.58,36.58,0,0,1,.4,5.51,46.59,46.59,0,0,1-.64,7.6c-1.73-1.82-5.32-6.18-5.69-11.11l-1.41.11c.52,7,6.8,12.73,7.07,13l.89.8.27-1.16a43.63,43.63,0,0,0,.51-14.94c-1.2-7.69-5.25-11-5.43-11.11Z" transform="translate(-212.1 -277.15)"/><path d="M322.21,441.32c1.59.87,3.18,4.33,3.67,5.77l1.63,4.37a48.66,48.66,0,0,1-10.44-1.61,21.84,21.84,0,0,1-8.86-4.65l-1,1a22.7,22.7,0,0,0,9.48,5,49.36,49.36,0,0,0,11.86,1.69h1l-2.35-6.27c-.44-1.33-2.19-5.39-4.33-6.56Z" transform="translate(-212.1 -277.15)"/><path d="M313.17,450c3.25,3.85,4.15,9.58,4.41,12.18l-4-2.58a22,22,0,0,1-4.65-4.17l-1.1.9a23.37,23.37,0,0,0,5,4.49l6.25,4v-1.32c0-.36-.23-9-4.83-14.44Z" transform="translate(-212.1 -277.15)"/><path d="M323.79,440.4s5.08.68,7.37,3.57a68.57,68.57,0,0,1,4.2,6.18c-2.06-.28-5.84-.89-7.63-1.9l-.7,1.24c2.77,1.55,9.34,2.22,9.61,2.25l1.38.14-.69-1.2a76.23,76.23,0,0,0-5.06-7.58c-2.65-3.36-8.07-4.07-8.3-4.1Z" transform="translate(-212.1 -277.15)"/><path d="M357.38,451.33c-.25,1.25-7.12,7-7.12,7-.88,9.5-8,16.75-8,16.75s-.5,4.62-3.38,14.87a57.87,57.87,0,0,1-8.5,17.63l-9.5.12s-1.12-1.75-1.62-2.62-1.25-.75-2.38-1.25-2.87-3-4-4-1.12-.38-4.25,1-9.12.75-12.25-2.13-4.25-8.5-8.25-11.12-6.37-1.5-9.5-.13-8.87,4.75-15.12.5-1.75-16-1.25-19.37S264.63,452,264.63,452l.88,8.88.62-1,4.88-3a25,25,0,0,0,.37,3.62c.25.75.63,5.13.63,5.13s1.25-1.13,1.75-1.63,4.12-3.25,6.25-6.62,2.25-9,2.25-9l1.37-1.63.25,6.5a51.32,51.32,0,0,1,5.13-5.37c2.12-1.75,4.75-6.13,4.75-6.13-.13,1.63,1,6.13,1.87,8s2.75,5.13,2.75,5.13l1.88-4.25c.62,7,7.25,11.5,7.25,11.5.75-1.88.75-6,.75-6,2.37,4.12,9.87,7.12,9.87,7.12.25-5.75-3.37-12.37-3.37-12.37l-.38-1.13a47.39,47.39,0,0,0,14,2.5l-.75-3a42.1,42.1,0,0,0,8.88,1.75,72.23,72.23,0,0,0-4.25-7.12c-2.13-3-8.38-4.13-8.38-4.13,5-4.37,1.13-10,1.13-10a10.22,10.22,0,0,0,1.7-9.33c7.84-5,5.17-12.34,5.17-12.34s7-6,14.17-6a17.24,17.24,0,0,1,11.33,4Zm-26.75,41.12c2.13-4.62.25-5.12.25-5.12l-6,4.75c.63,1.37,1.38,7,1.38,7A21.14,21.14,0,0,0,330.63,492.45Z" transform="translate(-212.1 -277.15)"/><path d="M267.05,390.87l1.33-5.83s.83-5.34-8.17-10a18.18,18.18,0,0,0-16.33-.67,17.7,17.7,0,0,0-11.17-4.83c-7.16-.5-12.5,5-12.83,6.33V386.7s0,2.5,2.83,4.84a4.15,4.15,0,0,0-2.66,2.66l-.17,18.33s1.17,4.17,13,5.34,15.83-4.34,15.83-4.34l-2.2-3.33s4.87.25,7,.5,8,1.38,8,1.38a11.74,11.74,0,0,1-3.5-6.38c-.63-3.87-1.5-11-1.5-11s3.62,2,4.37,2.63a12,12,0,0,0,2.13,1.25s-.63-3-1.13-6.13-.87-6.75-.87-6.75Z" transform="translate(-212.1 -277.15)"/><path d="M255.63,420.2s-1.12,3.25-7.87,3.88S239.26,422.7,236,422a13.49,13.49,0,0,0-14.25,8c-3.13,7.38,1,11.63,1.62,12.88s2.75,1.75.38,2.62-3.75,1.63-3.88,2.75-.12,22-.12,22,1.25,3.25,11.75,2.38,22.5-10,24.87-16.75a2.1,2.1,0,0,1-.75-2.25c.38-1.5,1.13-5.13,1.75-6.25a23.73,23.73,0,0,1,2.5-3.13l-4.37-.37,2.25-4.5s-.75,1-4.75.37-6.5-1.25-7.63-1.25a18.89,18.89,0,0,1,4-4c1.75-1,4.63-2.37,4.63-2.37s-2.38-1-3.13-1.25l-2.62-.88s3.25-2.25,5-3.5,7.87-3,7.87-3l-3.5-1.75Z" transform="translate(-212.1 -277.15)"/><path d="M290.21,351.37s-3.33-4.33-4.83-5.83-6.5-6-16.83-8.17-17.67-1.5-22.67-2-13.67.33-14.5,5.17,3,8.66,8.83,9.5,6.17-.34,8.67.83,7.33,5.83,15.67,6.83,12.5-.83,15.16-2.5,9.67-2.17,11.5.67Z" transform="translate(-212.1 -277.15)"/><path d="M296.88,352.87l.5,3s7.5,4.67,11.33,7.33,10.34,5.5,20.17,5.5,13.17-5.16,13.67-8.16-2.17-5.51-5.67-6.67-4-.83-5.67-2.17-6.16-3.5-13.83-3.16S302.21,352.37,296.88,352.87Z" transform="translate(-212.1 -277.15)"/><path d="M277.63,323.2s3.13,1.38,4.25,1a1.38,1.38,0,0,0,.75-2.12c-.37-.75,3.38,3.25,7.75,4.12l.38,1.38,3.62-.88-.25,6.25s-3.75-1.62-5.75,2.75l-1.5-8S279.88,325.45,277.63,323.2Z" transform="translate(-212.1 -277.15)"/></svg>