<svg id="_5_1" xmlns="http://www.w3.org/2000/svg" viewBox="0 0 153.07 238.11"><defs><style>.cls-1{fill:#ed1c24;}.cls-2{fill:#fff;}.cls-3{fill:#0066b3;}.cls-4{fill:#ffcb05;}</style></defs><title>_5_1</title><rect class="cls-1" width="153.07" height="238.11"/><path class="cls-2" d="M226.44,315.79V489.45l138.16,2.67V330.29l-6.16-16.5-18.67-2.34H326.94l-90.84-4.16A10.56,10.56,0,0,0,226.44,315.79Z" transform="translate(-218.9 -299.7)"/><path class="cls-1" d="M290.1,461.29a10.39,10.39,0,0,0-4.83,3.16,4.5,4.5,0,0,0-.83,4.5l.83,3.5,5.5,1.67,6.83-.67,4.67-4.66-.5-5.17-2.83-1.83-3.84-2.34Z" transform="translate(-218.9 -299.7)"/><path class="cls-1" d="M266.1,491.45l-10.16-4.66-8.34-2-8.66,2.83-5.34,6.67,9.84,8.16s13-2.33,13.5-2.5,7-4,7-4Z" transform="translate(-218.9 -299.7)"/><path class="cls-1" d="M315.27,509.45l-6.5-4.66s-3.67-2.67-2.83-3.84,3.83-7.33,3.83-7.33,7.33-1.33,8-1.33,11.17,2.33,11.17,2.33,5.83,7.83,5.83,8.33-2.83,8.34-2.83,8.34l-10.17,1.5Z" transform="translate(-218.9 -299.7)"/><path class="cls-3" d="M263.69,394.58a46.7,46.7,0,0,1-5.38-3.25c-2.62-1.88-5.5-5.63-8.87-8.5s-6.75-4.75-10.75-1.88-3.75,14.25-3.63,16.75a28.14,28.14,0,0,1-1.25,9c-.87,2.63-4.87,6.88-4.87,6.88l.62,1.37a10.89,10.89,0,0,1,3-1.5,31.29,31.29,0,0,0,10.88-2.5c4.75-2.25,9.5-8.37,11.62-11a15.27,15.27,0,0,1,8.25-4.75Z" transform="translate(-218.9 -299.7)"/><path class="cls-3" d="M279.19,386.58s-2.13-6-2.88-8-3.5-5.13-3.75-5.63a30.85,30.85,0,0,1-.62,5.63c-.5,1.5-3.63,10-5.63,14.62s-3.87,14.5-1.25,21.25,5.88,8.88,7.75,11.13,4.13,4,4.5,6.37a2.67,2.67,0,0,1,2.88.25,80.61,80.61,0,0,1,3.62-9.5c1.63-3.12,5-5.12,6.63-11.12s-1.38-10.13-2.13-10.75c0,0,4.13.12,8.75,5.62s8.75,6.63,12.5,7.38,11.5-1.63,13.13-2l5.87-1.38a12.88,12.88,0,0,1-5-3.25c-1.75-2.12-6.5-10.75-8.62-15.62s-3.5-9.75-10.38-12.63a20.63,20.63,0,0,0-13.75-.5c-.37.13-.12,1.13-.12,1.13a8.41,8.41,0,0,1,5.25,2.12c2.25,2.13,3.87,3.88,3.87,3.88s-3,1-5.12,1.75-7,1.37-8.63.75a30.85,30.85,0,0,1,5,4.87c1.75,2.38,4.25,4.38,5.5,4.5a13.88,13.88,0,0,1-6.5,1.38,15.61,15.61,0,0,1-7.12-2.38s-.63,1.88-3.5,2.25-9.5-1.62-9.5-1.62l2.12-2Z" transform="translate(-218.9 -299.7)"/><path class="cls-3" d="M324.44,473.45l40,.84v46.16s-.5,8-6.67,9-19.83.5-19.83.5l-9.5-.33,1.5-27.17s-.84-3.66-3.17-5l16-12.66-18.83-10.17Z" transform="translate(-218.9 -299.7)"/><polygon class="cls-3" points="90.2 230.42 89.03 210.59 64.7 229.75 90.2 230.42"/><path class="cls-3" d="M226.44,486.29,238.77,495l.67,32.67-3.17,2.17s-8.5-.17-9.83-8.17Z" transform="translate(-218.9 -299.7)"/><path class="cls-4" d="M309.1,530.12,307.77,503l.17-1.66s2.66,5.17,11.16,5.33,10.84-4.17,10.84-4.17l-.17,1.84-1.33,25.33Z" transform="translate(-218.9 -299.7)"/><path class="cls-4" d="M236.27,529.79l3.17-2.17-.67-32.17s2.83,4.34,11.17,3.67S261.1,495,261.1,495l-.33,16.67,54.67-41.5,27.33,14.67-15.5,12.5a29.82,29.82,0,0,0-7.33-2.34c-3.5-.5-12.34.34-12,6.34l.16,8.33-24.66,20.5-41.84-.33Z" transform="translate(-218.9 -299.7)"/><path class="cls-4" d="M285.1,493.45l-.5-5.33L284.44,469a8,8,0,0,0,7.5,3.84A9,9,0,0,0,299.6,468s.5-.49.67.67-.33,13.67-.33,13.67Z" transform="translate(-218.9 -299.7)"/><path class="cls-4" d="M283.94,493.79,261.1,511.12l-.5-1.83.5-14.34s-.16-5.66-8-7.5-13.66,2.17-14.33,7.5l-12.33-8.66-.17-26.84Z" transform="translate(-218.9 -299.7)"/><path class="cls-4" d="M278.27,431.45s-2.83,1.17-3,6,2,9.17,3.67,9.5c0,0,2.83-1.49,3.33-7.33S279.1,431.45,278.27,431.45Z" transform="translate(-218.9 -299.7)"/><path class="cls-4" d="M269.94,397.08a23.92,23.92,0,0,0,7.16,2c3.17.17,5.34-.83,6.34-4s4.83-13,7.83-16.83c0,0-3.5-.34-7.67,3s-8.83,10.83-8.83,10.83S270.77,396.7,269.94,397.08Z" transform="translate(-218.9 -299.7)"/><path class="cls-4" d="M265.77,393.79s3.33-7.17,4-9,1.5-3.84,1.5-3.84a7.56,7.56,0,0,0-4.17-3.16c-2.66-.67-5.33,3.5-5.16,6.33S265.77,393.79,265.77,393.79Z" transform="translate(-218.9 -299.7)"/><path class="cls-4" d="M283.94,493.79l-5.67-3.5s-3.67-23.33-3.5-30.67a68.34,68.34,0,0,1,2-14.17l1.67,1.84,6.5,45.16S285.27,494.12,283.94,493.79Z" transform="translate(-218.9 -299.7)"/><path class="cls-1" d="M229.6,310s.34,6.67,8.84,9.17S252.6,318,252.6,318s7.17,9,22.17,4c0,0-.83,10.34,10.67,12,0,0-.84,5.84,4.16,7.84s10.5-1,11.84-3c0,0,.16,5.16,7.33,6.16s9.83-4,9.83-4,8.67,4.17,13.34-2.16-1.34-10.5-1.34-10.5,5.34-4.5,1.34-12.17a4.56,4.56,0,0,1,5.16-1.5c3.5,1,4,3.83,4,6s-.33,6.33,4.17,8.67,8.33-1.67,8.33-1.67,3.17,3.5,10.67,4.5l.33-15.83a10,10,0,0,0-9.5-8.84l-119-.16S231.94,307.45,229.6,310Z" transform="translate(-218.9 -299.7)"/><path d="M236.36,306.75a10.64,10.64,0,0,0-10.63,10.63V520a10.64,10.64,0,0,0,10.63,10.63H354.52A10.64,10.64,0,0,0,365.15,520V317.38a10.64,10.64,0,0,0-10.63-10.63ZM227.14,520V317.38a9.24,9.24,0,0,1,9.22-9.22H354.52a9.23,9.23,0,0,1,9.21,9.22V520a9.23,9.23,0,0,1-9.21,9.22H236.36A9.24,9.24,0,0,1,227.14,520Z" transform="translate(-218.9 -299.7)"/><path d="M226.69,346.7c19.5,12,28.5,32,28.5,33s-2,1.5-3.5,0-6.25-2.75-6.25-2.75-5.5-17.5-19-28.75Z" transform="translate(-218.9 -299.7)"/><path d="M255.19,379.7l4,1.75,1.25-.75,1.25-5.25,6,1.75a69.44,69.44,0,0,0-7.5-17.75c-5.25-8.5-9.25-14-10.5-17.5C249.69,342,246.19,351.7,255.19,379.7Z" transform="translate(-218.9 -299.7)"/><path d="M268.94,372.45l3.25-5.5,4.5,3.75s-.75-11.25-9.25-27S251.69,325,251.69,325s7.25,12.75,10.25,23.25S268.94,372.45,268.94,372.45Z" transform="translate(-218.9 -299.7)"/><path d="M282.69,377.7s4.25-3.5,6.25-3.75,5,1,7.5,0c0,0-3.75-25.5-18.5-37.75C277.94,336.2,287.19,347.2,282.69,377.7Z" transform="translate(-218.9 -299.7)"/><path d="M306.94,374s5.5.75,8.25,3a6.71,6.71,0,0,1,2.75,4.75s3.25-.75,4-3.25,15.5-33.25,42-46.5C363.94,332,333.44,328.7,306.94,374Z" transform="translate(-218.9 -299.7)"/><path d="M309.33,496.78a7.57,7.57,0,0,0-2.35,5.86c0,1.07,1.44,26.28,1.5,27.35l1.41-.08c-.51-9.07-1.49-26.43-1.49-27.21a6.25,6.25,0,0,1,1.89-4.88c1.75-1.61,4.64-2.25,8.59-1.91,10.58.92,10.36,6.27,10.35,6.49,0,0-1.5,27.52-1.5,27.52l1.41.07,1.5-27.5c0-.26.42-6.94-11.64-8C314.64,494.12,311.38,494.89,309.33,496.78Z" transform="translate(-218.9 -299.7)"/><path d="M307.49,501.09c.05.23,1.22,5.54,11.39,6.32,4.38.34,7.62-.44,9.65-2.32a5.56,5.56,0,0,0,1.87-3.64H329a4.09,4.09,0,0,1-1.41,2.6c-1.7,1.57-4.67,2.25-8.58,1.95-9-.7-10.07-5-10.11-5.19Z" transform="translate(-218.9 -299.7)"/><rect x="251.05" y="502.87" width="86.76" height="1.42" transform="translate(-466.01 -12.95) rotate(-37.87)"/><path d="M315.26,469.39l-79.33,60,.86,1.13,79-59.72,25.65,14.25-16,12.4,39,1,0-1.41-35-.87L344,484.86l-28.34-15.75Z" transform="translate(-218.9 -299.7)"/><rect x="279.13" y="519.37" width="32.37" height="1.42" transform="translate(-479.36 -0.55) rotate(-38.73)"/><path d="M238.07,494.26l-.08.31v.14l.5,33,1.41,0s-.49-32.72-.49-32.9l0-.19c1.19-4.89,4.79-7.23,10.7-6.94,9.48.46,10.3,7.08,10.33,7.37,0,0-.5,16.4-.5,16.4l1.41.05.5-16.5c0-.18-.93-8.21-11.67-8.73C245.63,486,239.79,487.23,238.07,494.26Z" transform="translate(-218.9 -299.7)"/><rect x="254.48" y="443.12" width="1.42" height="66.93" transform="translate(-503.75 152.23) rotate(-59.22)"/><path d="M226.29,487.29l11.83,7.89c.47,1,2.8,4.73,11.57,4.73,7.87,0,10.83-3.29,11.76-4.75l11.89,6.66.69-1.23-13.19-7.39-.31.74c-.08.18-2,4.56-10.84,4.56s-10.32-4-10.33-4l-.08-.22-.2-.14-12-8Z" transform="translate(-218.9 -299.7)"/><rect x="237.73" y="466.84" width="1.42" height="26.98" transform="translate(-515.98 152.42) rotate(-60.58)"/><path d="M275.23,463a272.67,272.67,0,0,0,2.51,27.59l1.4-.21a273.5,273.5,0,0,1-2.5-27.41c-.24-11.75,1-17.53,1-17.59l-1.39-.3C276.19,445.29,275,451,275.23,463Z" transform="translate(-218.9 -299.7)"/><path d="M274.73,439.45c0,5.25,2.18,7.3,3,7.91.48,4.51,6.22,43.74,6.47,45.45l1.4-.21c-.06-.4-5.61-38.36-6.4-44.87l.22.2a15,15,0,0,0,3.43-8.94,10.59,10.59,0,0,0-2.47-7.3,2.5,2.5,0,0,0-1.73-.94C277.22,430.75,274.73,432.58,274.73,439.45Zm4,6.87c-.11-.05-2.62-1.45-2.62-6.87s1.72-7.29,2.55-7.29a1.8,1.8,0,0,1,.77.58,9.21,9.21,0,0,1,2,5.78c0,.13,0,.27,0,.4a14.21,14.21,0,0,1-2.6,7.47Z" transform="translate(-218.9 -299.7)"/><path d="M291.66,460.75a8.26,8.26,0,0,0-6.14,2.5,8.81,8.81,0,0,0-2,6h0s.5,19.22.5,19.22l1.41,0-.5-19.25a7.53,7.53,0,0,1,1.69-5,6.91,6.91,0,0,1,5.13-2c2.79-.08,4.88.52,6.19,1.79a5.58,5.58,0,0,1,1.58,4l-.25,13.49,1.42,0,.25-13.5a7,7,0,0,0-2-5C297.29,461.38,294.86,460.65,291.66,460.75Z" transform="translate(-218.9 -299.7)"/><path d="M299,466.45c0,.06-.29,5.55-6.79,5.55-6.08,0-7.27-4.29-7.32-4.47l-1.37.35c0,.05,1.47,5.53,8.69,5.53,6.7,0,8.21-5.15,8.21-7Z" transform="translate(-218.9 -299.7)"/><path d="M337.44,530s5.5-29.75,27-49.25v8s-9,10.75-10,24c0,0,3.25-9,10.25-14v10.75a44.18,44.18,0,0,0-5.5,19.5,36,36,0,0,1-4.67,1Z" transform="translate(-218.9 -299.7)"/><rect x="342.73" y="453.08" width="1.42" height="42.01" transform="translate(-355.6 509.3) rotate(-88.98)"/><rect x="351.1" y="473.95" width="1.42" height="20.25" transform="translate(-355.48 530.19) rotate(-89.29)"/><rect x="347.1" y="478.7" width="1.42" height="20.25" transform="translate(-364.18 530.88) rotate(-89.29)"/><rect x="347.48" y="476.95" width="1.42" height="32.5" transform="translate(-369.22 534.06) rotate(-89.12)"/><rect x="346.6" y="485.33" width="1.42" height="34.25" transform="translate(-379.06 542.7) rotate(-89.16)"/><rect x="329.69" y="506.87" width="30.25" height="1.42" transform="translate(-223.08 -296.84) rotate(-0.47)"/><rect x="110.7" y="211.71" width="34.5" height="1.42"/><rect x="329.1" y="516.25" width="35.5" height="1.42" transform="translate(-223.88 -296.32) rotate(-0.55)"/><rect x="329.1" y="520.5" width="35.5" height="1.42" transform="translate(-221.03 -298.28) rotate(-0.23)"/><rect x="328.77" y="524.91" width="33.84" height="1.42" transform="translate(-223.96 -296.33) rotate(-0.55)"/><rect x="288.6" y="524.66" width="20.33" height="1.42" transform="translate(-223.23 -297.22) rotate(-0.47)"/><rect x="294.77" y="520.08" width="14" height="1.42" transform="translate(-231.39 -292.26) rotate(-1.38)"/><rect x="81.37" y="215.88" width="8" height="1.42"/><rect x="226.6" y="493.08" width="10.67" height="1.42" transform="translate(-234.09 -292.27) rotate(-1.78)"/><rect x="232.06" y="490.62" width="1.42" height="12.34" transform="translate(-489.02 416.36) rotate(-88.45)"/><rect x="226.27" y="500.33" width="12.33" height="1.42" transform="translate(-225.77 -296.46) rotate(-0.79)"/><rect x="7.7" y="204.55" width="12.5" height="1.42"/><rect x="231.98" y="503.29" width="1.42" height="12.5" transform="translate(-498.82 435.7) rotate(-89.23)"/><rect x="232.06" y="507.62" width="1.42" height="12.67" transform="translate(-506.04 433.4) rotate(-88.49)"/><rect x="232.14" y="512.2" width="1.42" height="12.84" transform="translate(-510.53 438.24) rotate(-88.51)"/><rect x="227.27" y="522.66" width="11.83" height="1.42" transform="translate(-226.08 -296.44) rotate(-0.79)"/><path d="M314.44,471l1.25-1,5.75,3.17s.5.67,4.33.5c0,0-.5-9.5-.5-14s.33-7.67.33-7.67,3.5,8.67,6.34,14.84,10,13.5,10,13.5-1.17-6.34-1.84-10-.66-14.67-1.33-24.17-2.83-19.16-8.83-23-12.05.06-13.5,6C314.6,436.62,313.94,456.62,314.44,471Z" transform="translate(-218.9 -299.7)"/><path d="M289.27,461.62a23.48,23.48,0,0,1,5.83.17c3,.5,5,1.83,5.09,6.16s-.25,12.84-.25,12.84.16.67,1.33-.17,7.83-6,7.83-6a166.93,166.93,0,0,1,1-55s-9.33-1-16.16-6.83a23.7,23.7,0,0,1-7.84,15.66S288.77,449.29,289.27,461.62Z" transform="translate(-218.9 -299.7)"/><path d="M277.94,490.33l.5-1.25s-4.38-17.13-1.5-43.38c0,0-1.88-3-1.38-9.5,0,0-3.62,0-9.37-7.25s-7.75-17.25-7.75-17.25-4.88,6.38-10.38,9a91.43,91.43,0,0,1,10.75,22.63c4.25,13.37,3.75,30.62,3.75,30.62s-4.62-9.75-6.87-15.25-16.63-37-29.25-48.25l-.13,7.25s7.25,5.25,8.63,20.13a101.1,101.1,0,0,0-8.38-7l-.12,4.62s12.5,9.88,18,34.75Z" transform="translate(-218.9 -299.7)"/><path d="M240.4,379.31a7.82,7.82,0,0,0-4.8,5.07c-1.56,4.23-1.52,9.77-1.5,14.21a34.08,34.08,0,0,1-.19,5.4c-.63,3.31-3,7.78-5.84,9.53l-.92.55,2.46,1.76.42-.31a7.14,7.14,0,0,1,2.57-1.36,26.54,26.54,0,0,0,13.9-4.28,35.92,35.92,0,0,0,9-9l1.25-1.57c1.24-1.24,5.58-3.46,7.67-3.46l.3-1.35a40.7,40.7,0,0,1-6.51-3.9c-.8-.68-2.1-2.05-3.47-3.49a53,53,0,0,0-6.93-6.56A9,9,0,0,0,240.4,379.31Zm-5.1,24.94a24.73,24.73,0,0,0,.23-4.14c0-.49,0-1,0-1.53s0-1.18,0-1.79c0-4,.15-8.46,1.42-11.92a6.38,6.38,0,0,1,3.91-4.22,7.59,7.59,0,0,1,6.2,1.06,53.25,53.25,0,0,1,6.69,6.35c1.46,1.54,2.72,2.87,3.58,3.6a30.67,30.67,0,0,0,4.95,3.14,18.55,18.55,0,0,0-6.49,3.49L254.39,400a35,35,0,0,1-8.68,8.68,25.57,25.57,0,0,1-13.11,4.05,5.72,5.72,0,0,0-2.58,1.07A18.72,18.72,0,0,0,235.3,404.25Z" transform="translate(-218.9 -299.7)"/><path d="M291.27,377.58c-.25,0-6.07.07-10.89,6.27l-1.15,1.48c-4,5.19-7.21,9.29-9.88,11.22l-1,.71,1.11.51a23.34,23.34,0,0,0,7.42,1.89c3.19.15,6.33-.39,7.72-5.35,1.29-4.61,3.28-10.55,7.21-15.59l.89-1.14Zm-10.92,8.62,1.15-1.48a14.43,14.43,0,0,1,8.3-5.5,48.49,48.49,0,0,0-6.55,14.71c-1.06,3.81-3.11,4.47-6.28,4.32a20.59,20.59,0,0,1-5.86-1.36C273.72,394.67,276.68,390.93,280.35,386.2Z" transform="translate(-218.9 -299.7)"/><path d="M290.4,378.91l.07,1.42a8,8,0,0,1,5.32,2.14c1.43,1.34,2.33,2.31,2.89,2.93l-4.29,1.21c-2.23.69-6.66,1.43-8.27,1l-.37,1.37c2,.56,6.91-.34,9.06-1l6.3-1.77-.61-.83a34.43,34.43,0,0,0-3.75-3.92A9.3,9.3,0,0,0,290.4,378.91Z" transform="translate(-218.9 -299.7)"/><path d="M286.41,388.92l4.34,4.84a26.85,26.85,0,0,0,4.26,3.48c-2.38.71-7.54,1.71-11.49-1.19l-.84,1.14c5.93,4.36,13.86,1.06,14.2.92l1.24-.53-1.14-.72a34.76,34.76,0,0,1-5.19-4.05L287.47,388Z" transform="translate(-218.9 -299.7)"/><path d="M291,377.64l.56,1.3a17.07,17.07,0,0,1,11.32.18c6.53,2.23,8.27,5.16,11.58,12.95,2.8,6.57,6.51,15.26,12.15,18.43l-5.3.93-2,.46c-3.6.89-9.06,2.23-13.41.25a24.5,24.5,0,0,1-8.31-6.33l-2-2c-2.86-2.69-6-3.9-7.59-3.68l-1.39.2,1,1a10.51,10.51,0,0,1,2.47,8.71,19.93,19.93,0,0,1-4.67,9.25l-.88,1.13c-1.18,1.69-4.43,8-5.11,11.61l1.39.26c.64-3.37,3.78-9.48,4.88-11.06l.82-1.05a21.14,21.14,0,0,0,5-9.9,11.79,11.79,0,0,0-1.72-8.47,13.6,13.6,0,0,1,4.87,3l1.94,2a26.11,26.11,0,0,0,8.75,6.65c4.81,2.19,10.55.77,14.34-.17l1.93-.44,7.63-1.33.07-1.39c-6.3-1.61-10.48-11.43-13.52-18.59-3.43-8.05-5.39-11.32-12.43-13.73S291.2,377.54,291,377.64Z" transform="translate(-218.9 -299.7)"/><path d="M271.9,372.51c.4,5-1.45,9.13-3.6,13.9s-4.48,10-4.9,17c-.79,13,4.41,18.06,7.85,21.38l.85.83a21.39,21.39,0,0,1,4.51,6.59l1.32-.51a22.22,22.22,0,0,0-4.83-7.08l-.87-.85c-3.2-3.09-7.5-7.25-7.5-17.74,0-.81,0-1.65.08-2.53.41-6.76,2.63-11.72,4.79-16.51,1.85-4.12,3.57-8.06,3.71-12.54,1.2,1.74,3.14,5.27,4.94,11.7l1.37-.39c-3-10.75-6.41-13.72-6.56-13.85l-1.3-1.1Z" transform="translate(-218.9 -299.7)"/><path d="M265.71,377.53c-2.76.91-4.85,4.58-4.3,7.55a37.14,37.14,0,0,0,3.91,9.9l1.23-.72a36.07,36.07,0,0,1-3.75-9.43c-.42-2.26,1.27-5.27,3.35-5.95s3.49,1.19,4.32,2.89l1.27-.63C269.61,376.79,266.81,377.17,265.71,377.53Z" transform="translate(-218.9 -299.7)"/><path d="M278.31,316.69a9.3,9.3,0,0,0-4.23,5.95,6,6,0,0,0-.12,1.21,10.8,10.8,0,0,0,2.47,6.39,11.88,11.88,0,0,0,8.37,4.49,7.75,7.75,0,0,0-.07.95,7.38,7.38,0,0,0,1,3.84,8,8,0,0,0,5.36,3.46c5.6,1.27,8.77-1.25,10.13-2.78a9.2,9.2,0,0,0,8,5.29,11,11,0,0,0,9.59-3.65c1.78.82,7.54,2.94,12.28-1.36a8.76,8.76,0,0,0,3-6.51,8.44,8.44,0,0,0-.43-2.65,7.26,7.26,0,0,0-5.39-4.91,8.86,8.86,0,0,0-5.4-7.76,8.08,8.08,0,0,0-9.36,1.84,8.5,8.5,0,0,0-6.62-1.55,13.84,13.84,0,0,0-4.66,1.93,13.69,13.69,0,0,0-6.76-2.79c-3-.26-5.55,1.56-6.79,2.64a8.4,8.4,0,0,0-5.07-4.78A6.64,6.64,0,0,0,278.31,316.69Zm13.12,24.91a6.69,6.69,0,0,1-4.46-2.81,6.47,6.47,0,0,1-.68-4.5l.21-.86-.88,0a10.52,10.52,0,0,1-8.08-4.05c-1.64-2.07-2.46-4.59-2.08-6.43a7.93,7.93,0,0,1,3.57-5,5.18,5.18,0,0,1,4.2-.61c3.4,1,4.51,4.81,4.52,4.85l.35,1.22.86-.94s3-3.23,6.42-2.94a12.64,12.64,0,0,1,6.42,2.83l.52.46.48-.52s1-1.05,4.48-1.95c1.86-.49,4.47.34,6.34,2a5.62,5.62,0,0,1,2.11,4.88,7.12,7.12,0,0,1-4.19,5.13,7.62,7.62,0,0,1-7.24-.14c-2-1.22-3.06-2.77-2.82-4.26a3.41,3.41,0,0,1,2.78-2.61c3.14-.71,4.56,1,4.62,1.08l1.12-.87c-.08-.1-2-2.51-6.05-1.59a4.81,4.81,0,0,0-3.87,3.76c-.33,2.1.94,4.17,3.49,5.71a9.07,9.07,0,0,0,8.58.2,8.56,8.56,0,0,0,5-6.22,5.29,5.29,0,0,0,.05-.8,7.16,7.16,0,0,0-2.53-5.22,6.59,6.59,0,0,1,7.64-1.43,7.54,7.54,0,0,1,4.6,7l0,.68.68.07a5.8,5.8,0,0,1,4.8,4.11,7.12,7.12,0,0,1-2.21,7.66c-4.88,4.42-10.92,1.05-11.17.91l-.58-.33-.37.55c-.11.17-2.71,4-8.69,3.52a7.71,7.71,0,0,1-7.19-5.46l-.44-1.74-.87,1.56C300.71,338.64,298.12,343.12,291.43,341.6Z" transform="translate(-218.9 -299.7)"/><path d="M324.58,314.11l.38,1.36a7.23,7.23,0,0,1,5.54.84,5,5,0,0,1,2.24,3.58c.6,4.26-2.62,7.71-2.65,7.74l1,1c.15-.16,3.73-4,3-8.92a6.36,6.36,0,0,0-2.87-4.56A8.53,8.53,0,0,0,324.58,314.11Z" transform="translate(-218.9 -299.7)"/><path d="M331.16,315.57l.89,1.1s2.44-1.94,4.89-1.36a4.26,4.26,0,0,1,3.46,4.77c-.17,2.64-.51,8.05,5.81,10.21s8.38-3,8.39-3.1l-1.33-.48c-.06.17-1.53,4-6.6,2.24-5.3-1.81-5-6.15-4.86-8.74a5.65,5.65,0,0,0-4.54-6.28C334.13,313.19,331.28,315.47,331.16,315.57Z" transform="translate(-218.9 -299.7)"/><path d="M342.63,310.93l.95,1.05c.15-.13,3.6-3.21,6.91-.48a6.6,6.6,0,0,1,2.43,6.6l-.28,1,1.05-.12c.19,0,4.65-.51,5.21,3.4.61,4.26-1,6.44-1,6.46l1.11.88a9.17,9.17,0,0,0,1.47-5.45,14.45,14.45,0,0,0-.16-2.09c-.52-3.69-3.69-4.64-5.88-4.65a5.76,5.76,0,0,0,.06-.78,8,8,0,0,0-3.09-6.35C348,307.59,344.17,309.52,342.63,310.93Z" transform="translate(-218.9 -299.7)"/><path d="M284.34,308.16a4.15,4.15,0,0,1,0,8.1l.23,1.39a5.28,5.28,0,0,0,4.43-5.56,5.35,5.35,0,0,0-4.45-5.34Z" transform="translate(-218.9 -299.7)"/><path d="M239.6,320c7.61,1.87,11.45,0,12.86-1,1.13,1.47,4.56,4.91,12.28,5.18,9.51.34,11.31-2.54,11.49-2.87L275,320.6s-1.62,2.45-10.2,2.15c-8.76-.32-11.46-4.94-11.57-5.14l-.47-.84-.67.7s-3.25,3.31-12.14,1.13c-10.23-2.51-9.19-8.91-9.14-9.19l-1.39-.25C229.35,309.49,228.09,317.15,239.6,320Z" transform="translate(-218.9 -299.7)"/><path d="M239.66,309a4.92,4.92,0,0,0,.84,3.84,4,4,0,0,0,3.72,1.85,11.24,11.24,0,0,0,5.8-2.16c.69,1.13,2.43,2.69,6.9,2.81s6.54-1.33,7.41-2.35c1.12,1.1,3.74,2.72,9,1.33,2.5-.68,4-1.78,4.46-3.28.61-2.06-1.05-4-1.12-4l-1.06.94a3.41,3.41,0,0,1,.82,2.71c-.3,1-1.5,1.78-3.47,2.31-6.15,1.65-8-1.37-8-1.5l-.75-1.3-.54,1.41s-1,2.51-6.64,2.36-6-2.61-6-2.71l-.3-2-1,1.77a9.1,9.1,0,0,1-5.46,2.32,2.59,2.59,0,0,1-2.48-1.18,3.61,3.61,0,0,1-.68-2.71,2.19,2.19,0,0,1,.93-1.3l-.7-1.23A3.59,3.59,0,0,0,239.66,309Z" transform="translate(-218.9 -299.7)"/><path d="M288.05,310.11l.43,1.35c.34-.1,8.23-2.43,12.12,9.38l1.34-.44C297.61,307.22,288.15,310.08,288.05,310.11Z" transform="translate(-218.9 -299.7)"/><path d="M297.24,313.15l1.05,1a8,8,0,0,1,8.73-1.65c6.34,2.42,5.43,8,5.39,8.21l1.39.26c0-.07,1.19-6.95-6.28-9.79A9.52,9.52,0,0,0,297.24,313.15Z" transform="translate(-218.9 -299.7)"/><path d="M309.61,312.94l1,1a10.35,10.35,0,0,1,8.87-2.15c5.17,1,4.94,9,4.94,9.11l1.41.05c0-.38.28-9.28-6.07-10.55A11.78,11.78,0,0,0,309.61,312.94Z" transform="translate(-218.9 -299.7)"/></svg>