<svg xmlns="http://www.w3.org/2000/svg" xmlns:xlink="http://www.w3.org/1999/xlink" width="100%" viewBox="0 0 300 316" preserveAspectRatio="none"><defs><pattern id="back" width="16" height="25"><image xlink:href="./assets/_back.svg" width="16" height="25"></image></pattern><pattern id="_1_1" width="16" height="25"><image xlink:href="./assets/converted/_1_1.svg" width="16" height="25"></image></pattern><pattern id="_1_2" width="16" height="25"><image xlink:href="./assets/converted/_1_2.svg" width="16" height="25"></image></pattern><pattern id="_1_3" width="16" height="25"><image xlink:href="./assets/converted/_1_3.svg" width="16" height="25"></image></pattern><pattern id="_1_4" width="16" height="25"><image xlink:href="./assets/converted/_1_4.svg" width="16" height="25"></image></pattern><pattern id="_2_1" width="16" height="25"><image xlink:href="./assets/converted/_2_1.svg" width="16" height="25"></image></pattern><pattern id="_2_2" width="16" height="25"><image xlink:href="./assets/converted/_2_2.svg" width="16" height="25"></image></pattern><pattern id="_2_3" width="16" height="25"><image xlink:href="./assets/converted/_2_3.svg" width="16" height="25"></image></pattern><pattern id="_2_4" width="16" height="25"><image xlink:href="./assets/converted/_2_4.svg" width="16" height="25"></image></pattern><pattern id="_3_1" width="16" height="25"><image xlink:href="./assets/converted/_3_1.svg" width="16" height="25"></image></pattern><pattern id="_3_2" width="16" height="25"><image xlink:href="./assets/converted/_3_2.svg" width="16" height="25"></image></pattern><pattern id="_3_3" width="16" height="25"><image xlink:href="./assets/converted/_3_3.svg" width="16" height="25"></image></pattern><pattern id="_3_4" width="16" height="25"><image xlink:href="./assets/converted/_3_4.svg" width="16" height="25"></image></pattern><pattern id="_4_1" width="16" height="25"><image xlink:href="./assets/converted/_4_1.svg" width="16" height="25"></image></pattern><pattern id="_4_2" width="16" height="25"><image xlink:href="./assets/converted/_4_2.svg" width="16" height="25"></image></pattern><pattern id="_4_3" width="16" height="25"><image xlink:href="./assets/converted/_4_3.svg" width="16" height="25"></image></pattern><pattern id="_4_4" width="16" height="25"><image xlink:href="./assets/converted/_4_4.svg" width="16" height="25"></image></pattern><pattern id="_5_1" width="16" height="25"><image xlink:href="./assets/converted/_5_1.svg" width="16" height="25"></image></pattern><pattern id="_5_2" width="16" height="25"><image xlink:href="./assets/converted/_5_2.svg" width="16" height="25"></image></pattern><pattern id="_5_3" width="16" height="25"><image xlink:href="./assets/converted/_5_3.svg" width="16" height="25"></image></pattern><pattern id="_5_4" width="16" height="25"><image xlink:href="./assets/converted/_5_4.svg" width="16" height="25"></image></pattern><pattern id="_6_1" width="16" height="25"><image xlink:href="./assets/converted/_6_1.svg" width="16" height="25"></image></pattern><pattern id="_6_2" width="16" height="25"><image xlink:href="./assets/converted/_6_2.svg" width="16" height="25"></image></pattern><pattern id="_6_3" width="16" height="25"><image xlink:href="./assets/converted/_6_3.svg" width="16" height="25"></image></pattern><pattern id="_6_4" width="16" height="25"><image xlink:href="./assets/converted/_6_4.svg" width="16" height="25"></image></pattern><pattern id="_7_1" width="16" height="25"><image xlink:href="./assets/converted/_7_1.svg" width="16" height="25"></image></pattern><pattern id="_7_2" width="16" height="25"><image xlink:href="./assets/converted/_7_2.svg" width="16" height="25"></image></pattern><pattern id="_7_3" width="16" height="25"><image xlink:href="./assets/converted/_7_3.svg" width="16" height="25"></image></pattern><pattern id="_7_4" width="16" height="25"><image xlink:href="./assets/converted/_7_4.svg" width="16" height="25"></image></pattern><pattern id="_8_1" width="16" height="25"><image xlink:href="./assets/converted/_8_1.svg" width="16" height="25"></image></pattern><pattern id="_8_2" width="16" height="25"><image xlink:href="./assets/converted/_8_2.svg" width="16" height="25"></image></pattern><pattern id="_8_3" width="16" height="25"><image xlink:href="./assets/converted/_8_3.svg" width="16" height="25"></image></pattern><pattern id="_8_4" width="16" height="25"><image xlink:href="./assets/converted/_8_4.svg" width="16" height="25"></image></pattern><pattern id="_9_1" width="16" height="25"><image xlink:href="./assets/converted/_9_1.svg" width="16" height="25"></image></pattern><pattern id="_9_2" width="16" height="25"><image xlink:href="./assets/converted/_9_2.svg" width="16" height="25"></image></pattern><pattern id="_9_3" width="16" height="25"><image xlink:href="./assets/converted/_9_3.svg" width="16" height="25"></image></pattern><pattern id="_9_4" width="16" height="25"><image xlink:href="./assets/converted/_9_4.svg" width="16" height="25"></image></pattern><pattern id="_10_1" width="16" height="25"><image xlink:href="./assets/converted/_10_1.svg" width="16" height="25"></image></pattern><pattern id="_10_2" width="16" height="25"><image xlink:href="./assets/converted/_10_2.svg" width="16" height="25"></image></pattern><pattern id="_10_3" width="16" height="25"><image xlink:href="./assets/converted/_10_3.svg" width="16" height="25"></image></pattern><pattern id="_10_4" width="16" height="25"><image xlink:href="./assets/converted/_10_4.svg" width="16" height="25"></image></pattern><pattern id="_11_1" width="16" height="25"><image xlink:href="./assets/converted/_11_1.svg" width="16" height="25"></image></pattern><pattern id="_11_2" width="16" height="25"><image xlink:href="./assets/converted/_11_2.svg" width="16" height="25"></image></pattern><pattern id="_11_3" width="16" height="25"><image xlink:href="./assets/converted/_11_3.svg" width="16" height="25"></image></pattern><pattern id="_11_4" width="16" height="25"><image xlink:href="./assets/converted/_11_4.svg" width="16" height="25"></image></pattern><pattern id="_12_1" width="16" height="25"><image xlink:href="./assets/converted/_12_1.svg" width="16" height="25"></image></pattern><pattern id="_12_2" width="16" height="25"><image xlink:href="./assets/converted/_12_2.svg" width="16" height="25"></image></pattern><pattern id="_12_3" width="16" height="25"><image xlink:href="./assets/converted/_12_3.svg" width="16" height="25"></image></pattern><pattern id="_12_4" width="16" height="25"><image xlink:href="./assets/converted/_12_4.svg" width="16" height="25"></image></pattern></defs><g id="floorSectionRectG"><rect x="0" y="0" width="100%" height="33.333333333333336" fill="green"></rect><rect x="0" y="33.333333333333336" width="100%" height="58.333333333333336" fill="blue"></rect><rect x="0" y="91.66666666666667" width="100%" height="133.33333333333334" fill="orange"></rect><rect x="0" y="225" width="100%" height="58.333333333333336" fill="blue"></rect><rect x="0" y="283.3333333333333" width="100%" height="33.333333333333336" fill="green"></rect></g><g id="centerDeckG"><g id="backg"><rect x="142" y="145.83334350585938" width="16" height="25" style="fill: url(&quot;#back&quot;);"></rect></g><g id="_2_4g"><rect x="94" y="116.6666768391927" width="16" height="25" style="fill: url(&quot;#_2_4&quot;);"></rect></g><g id="_10_3g"><rect x="94" y="145.83334350585938" width="16" height="25" style="fill: url(&quot;#_10_3&quot;);"></rect></g></g><image xlink:href="./assets/_back.svg" x="4" y="4.166666666666667" width="16" height="25"></image><image xlink:href="./assets/_back.svg" x="24" y="4.166666666666667" width="16" height="25"></image><image xlink:href="./assets/_back.svg" x="44" y="4.166666666666667" width="16" height="25"></image><image xlink:href="./assets/_back.svg" x="64" y="4.166666666666667" width="16" height="25"></image><image xlink:href="./assets/_back.svg" x="84" y="4.166666666666667" width="16" height="25"></image><image xlink:href="./assets/_back.svg" x="104" y="4.166666666666667" width="16" height="25"></image><image xlink:href="./assets/_back.svg" x="124" y="4.166666666666667" width="16" height="25"></image><image xlink:href="./assets/_back.svg" x="144" y="4.166666666666667" width="16" height="25"></image><image xlink:href="./assets/_back.svg" x="164" y="4.166666666666667" width="16" height="25"></image><image xlink:href="./assets/_back.svg" x="184" y="4.166666666666667" width="16" height="25"></image><g id="_8_1g"><rect x="4" y="50" width="16" height="25" style="fill: url(&quot;#_8_1&quot;);"></rect></g><g id="_2_1g"><rect x="104" y="37.5" width="16" height="25" style="fill: url(&quot;#_2_1&quot;);"></rect></g><g id="_6_1g"><rect x="112" y="37.5" width="16" height="25" style="fill: url(&quot;#_6_1&quot;);"></rect></g><g id="_3_2g"><rect x="104" y="62.5" width="16" height="25" style="fill: url(&quot;#_3_2&quot;);"></rect></g><g id="_9_2g"><rect x="112" y="62.5" width="16" height="25" style="fill: url(&quot;#_9_2&quot;);"></rect></g><g id="_9_4g"><rect x="196" y="62.5" width="16" height="25" style="fill: url(&quot;#_9_4&quot;);"></rect></g><g id="_6_3g"><rect x="204" y="62.5" width="16" height="25" style="fill: url(&quot;#_6_3&quot;);"></rect></g><g id="_3_4g"><rect x="212" y="62.5" width="16" height="25" style="fill: url(&quot;#_3_4&quot;);"></rect></g><g id="_1_3g"><rect x="4" y="287.50000000000006" width="16" height="25" style="fill: url(&quot;#_1_3&quot;);"></rect></g><g id="_3_3g"><rect x="24" y="287.50000000000006" width="16" height="25" style="fill: url(&quot;#_3_3&quot;);"></rect></g><g id="_7_3g"><rect x="44" y="287.50000000000006" width="16" height="25" style="fill: url(&quot;#_7_3&quot;);"></rect></g><g id="_8_2g"><rect x="64" y="287.50000000000006" width="16" height="25" style="fill: url(&quot;#_8_2&quot;);"></rect></g><g id="_9_1g"><rect x="84" y="287.50000000000006" width="16" height="25" style="fill: url(&quot;#_9_1&quot;);"></rect></g><g id="_10_2g"><rect x="104" y="287.50000000000006" width="16" height="25" style="fill: url(&quot;#_10_2&quot;);"></rect></g><g id="_11_3g"><rect x="124" y="287.50000000000006" width="16" height="25" style="fill: url(&quot;#_11_3&quot;);"></rect></g><g id="_12_1g"><rect x="4" y="241.66666666666669" width="16" height="25" style="fill: url(&quot;#_12_1&quot;);"></rect></g><g id="_5_1g"><rect x="104" y="229.16666666666669" width="16" height="25" style="fill: url(&quot;#_5_1&quot;);"></rect></g><g id="_4_1g"><rect x="112" y="229.16666666666669" width="16" height="25" style="fill: url(&quot;#_4_1&quot;);"></rect></g><g id="_5_2g"><rect x="104" y="254.16666666666669" width="16" height="25" style="fill: url(&quot;#_5_2&quot;);"></rect></g><g id="_4_2g"><rect x="112" y="254.16666666666669" width="16" height="25" style="fill: url(&quot;#_4_2&quot;);"></rect></g><g id="_12_4g"><rect x="196" y="254.16666666666669" width="16" height="25" style="fill: url(&quot;#_12_4&quot;);"></rect></g><g id="_4_3g"><rect x="204" y="254.16666666666669" width="16" height="25" style="fill: url(&quot;#_4_3&quot;);"></rect></g><g id="_4_4g"><rect x="212" y="254.16666666666669" width="16" height="25" style="fill: url(&quot;#_4_4&quot;);"></rect></g><g id="_8_3g"><rect x="220" y="254.16666666666669" width="16" height="25" style="fill: url(&quot;#_8_3&quot;);"></rect></g><g id="_2_3g"><rect x="196" y="229.16666666666669" width="16" height="25" style="fill: url(&quot;#_2_3&quot;);"></rect></g></svg>